<svg width="24" height="24" viewBox="0 0 24 24" fill="none" xmlns="http://www.w3.org/2000/svg">
<path d="M3.03293 10L20.9671 10C21.9872 10 22.3878 8.64858 21.539 8.07059L13.1438 2.35375C12.4512 1.88208 11.5488 1.88208 10.8562 2.35375L2.46102 8.07059C1.61224 8.64858 2.01282 10 3.03293 10Z" fill="#1AD079"/>
<rect x="6" y="10" width="4" height="8" fill="#1AD079"/>
<rect x="14" y="10" width="4" height="8" fill="#1AD079"/>
<path d="M19.3815 18C19.7603 18 20.1066 18.214 20.2759 18.5528L21.2759 20.5528C21.6084 21.2177 21.1249 22 20.3815 22L3.61759 22C2.87421 22 2.39071 21.2177 2.72316 20.5528L3.72316 18.5528C3.89255 18.214 4.23882 18 4.61759 18L19.3815 18Z" fill="#1AD079"/>
</svg>
