<svg width="795" height="531" viewBox="0 0 795 531" fill="none" xmlns="http://www.w3.org/2000/svg">
<g clip-path="url(#clip0_529_7329)">
<path d="M761.354 536.986C744.962 536.986 654.572 537.017 541.24 536.986C511.991 536.986 481.175 536.986 449.743 536.956C444.207 536.956 438.64 536.956 433.074 536.956C410.561 536.956 387.802 536.925 365.105 536.925C358.984 536.925 352.895 536.925 346.805 536.925C309.93 536.894 273.454 536.863 238.732 536.832C103.501 536.679 63.7043 535.571 63.7043 535.51C63.4275 534.864 -60.608 471.648 38.2083 339.373C87.9086 272.773 31.2884 200.36 73.669 136.868C133.611 47.0128 232.858 99.7077 300.95 71.2223C312.975 66.2082 325.062 58.1178 337.148 45.69C343.945 38.7071 351.419 32.6163 359.384 27.3253C360.615 26.5255 361.845 25.7257 363.106 24.9566C367.873 22.0035 372.824 19.358 377.93 16.9585C381.344 15.3589 384.85 13.8516 388.417 12.4981C394.076 10.3448 399.858 8.4683 405.794 6.86868C414.19 4.62308 422.863 2.93118 431.69 1.82376C435.534 1.33157 439.409 0.931664 443.346 0.654808C519.434 -5.03612 605.026 26.9561 649.221 73.714C658.109 83.1271 698.552 131.854 666.69 198.791C646.545 241.058 730.907 281.448 760.862 329.713C837.043 452.453 762.031 535.387 761.354 536.986Z" fill="#D9E3F6"/>
<path d="M388.738 44.2347C507.401 7.08369 565.812 35.1861 565.812 35.1861L570.226 121.406C570.226 121.406 511.888 93.3036 393.152 130.455C274.416 167.606 221.521 139.209 221.521 139.209L217.107 52.9891C217.107 52.9891 270.002 81.3122 388.738 44.2347Z" fill="white"/>
<path d="M283.76 129.719L271.254 93.9661L275.815 93.7454L281.847 111.328C283.539 116.183 284.937 120.524 286.041 124.717H286.114C286.85 120.45 287.953 115.815 289.131 111.034L293.692 92.789L298.179 92.5684L288.395 129.499L283.76 129.719Z" fill="#1A3151"/>
<path d="M330.695 105.516C332.607 117.875 326.869 125.452 318.63 126.776C310.096 128.101 302.96 121.7 301.268 110.812C299.502 99.4096 304.726 90.9495 313.333 89.6253C322.161 88.2275 329.076 94.9221 330.695 105.516ZM305.682 110.003C306.859 117.654 311.641 123.981 318.262 122.951C324.883 121.921 327.605 114.564 326.281 106.398C325.177 99.2625 320.689 92.3472 313.701 93.3772C306.859 94.4807 304.505 102.132 305.682 110.003Z" fill="#1A3151"/>
<path d="M332.312 86.8304L336.432 85.874L343.789 117.434L357.399 114.271L358.281 118.096L340.552 122.216L332.312 86.8304Z" fill="#1A3151"/>
<path d="M356.223 81.0188L362.255 101.691C364.536 109.489 368.655 111.917 372.849 110.666C377.483 109.268 379.47 105.001 377.263 97.277L371.23 76.6048L375.35 75.4277L381.309 95.7321C384.472 106.473 380.647 112.358 373.879 114.344C367.478 116.257 361.446 113.535 358.282 102.721L352.25 82.1958L356.223 81.0188Z" fill="#1A3151"/>
<path d="M392.343 107.944L383 72.8531L387.488 71.676L402.348 86.7571C405.806 90.2148 408.601 93.4517 411.029 96.6886L411.102 96.615C409.484 92.0539 408.233 87.7871 406.762 82.2696L402.863 67.5563L406.688 66.5264L416.031 101.618L411.912 102.721L397.125 87.5664C393.888 84.2559 390.724 80.7983 388.076 77.4142L387.929 77.4878C389.327 81.8282 390.577 86.0215 392.122 91.9068L396.095 106.914L392.343 107.944Z" fill="#1A3151"/>
<path d="M422.508 67.2619L412.723 69.2482L411.914 65.3492L435.676 60.5674L436.485 64.4664L426.701 66.4527L433.028 98.1598L428.834 98.9691L422.508 67.2619Z" fill="#1A3151"/>
<path d="M460.392 76.5309L447.812 78.2965L449.578 91.2442L463.629 89.3315L464.144 93.2305L445.9 95.7318L440.971 59.7578L458.48 57.3301L458.994 61.2291L445.679 63.0683L447.224 74.4711L459.804 72.7055L460.392 76.5309Z" fill="#1A3151"/>
<path d="M484.742 74.6182L472.088 75.5009L472.971 88.5958L487.096 87.6394L487.39 91.5384L469.072 92.7891L466.645 56.5208L484.3 55.3438L484.595 59.2428L471.206 60.1256L471.941 71.6019L484.595 70.7191L484.742 74.6182Z" fill="#1A3151"/>
<path d="M492.688 55.5644C494.821 55.123 497.911 54.9023 500.78 54.9759C505.267 55.0494 508.21 56.0058 510.196 58.1392C511.815 59.7577 512.698 62.2589 512.624 65.0545C512.55 69.8363 509.755 72.9996 506.297 74.2503V74.3974C508.799 75.4273 510.27 78.0021 510.932 81.8276C511.888 86.9037 512.624 90.4349 513.286 91.8326L508.946 91.7591C508.431 90.7291 507.769 87.5658 506.886 83.0047C506.003 78.0022 504.311 76.0894 500.486 75.7952L496.513 75.7216L496.219 91.4648L492.025 91.3912L492.688 55.5644ZM496.66 72.1904L501.001 72.264C505.488 72.3375 508.431 69.6156 508.504 65.4959C508.578 60.7876 505.562 58.7277 501.074 58.5806C499.014 58.5806 497.543 58.7277 496.881 58.9484L496.66 72.1904Z" fill="#1A3151"/>
<path d="M181.575 33.862C169.069 37.0253 155.974 48.796 155.901 60.493C148.691 51.3708 127.798 51.3708 115.954 56.594C84.6883 70.2774 86.1596 109.856 108.082 129.278C119.853 139.724 134.346 147.449 149.353 153.702C161.933 158.925 192.978 168.489 193.052 168.415C193.125 168.415 211.738 141.784 218.432 130.013C226.451 115.889 233.072 100.881 235.941 85.432C241.238 56.4469 214.607 25.4018 181.575 33.862Z" fill="#EAC5B0"/>
<path d="M538.079 201.005C538.079 201.005 501.075 219.103 489.893 212.335C488.495 211.452 455.463 198.431 455.463 198.431L448.695 206.008L486.582 231.903L499.162 234.037L531.016 224.915L538.079 201.005Z" fill="#9EA6AD"/>
<path d="M562.649 204.242C562.649 204.242 584.057 239.481 597.078 239.775C598.697 239.848 633.567 246.616 633.567 246.616L635.185 256.695L589.28 258.019L577.509 253.017L555.66 228.151L562.649 204.242Z" fill="#9EA6AD"/>
<path d="M557.942 201.594C558.089 201.668 558.237 201.741 558.384 201.741C565.887 204.61 571.773 217.705 575.157 225.43C583.911 245.293 587.737 265.965 588.472 287.887C588.84 299.732 588.767 311.502 588.399 323.346C588.325 326.583 585.53 355.863 587.001 356.525C572.141 349.389 557.059 342.621 541.243 338.575C525.426 334.529 508.8 333.204 492.836 336.956C497.618 299.805 504.607 262.066 514.685 226.165C515.862 221.898 516.671 217.337 518.511 213.218C520.57 208.509 523.66 207.112 527.633 204.39C528.957 203.433 530.355 202.477 531.826 201.815C539.551 198.431 550.071 198.725 557.942 201.594Z" fill="#9EA6AD"/>
<path d="M581.042 318.344L564.122 387.496L563.828 438.404L555.588 440.17L552.278 392.867L543.965 306.132L581.042 318.344Z" fill="#DEC9AD"/>
<path d="M555.515 441.642L554.117 446.792L555.368 456.944H562.062L564.49 442.304L563.754 439.803L555.515 441.642Z" fill="#1A3151"/>
<path d="M516.009 310.84L514.611 370.576L522.777 454.81L530.943 455.398L533.739 378.154L550.217 308.045L516.009 310.84Z" fill="#DEC9AD"/>
<path d="M522.998 453.412L512.037 459.297L512.92 464.447L532.341 462.019L531.385 454.589L522.998 453.412Z" fill="#1A3151"/>
<path d="M513.655 318.565L508.211 387.57L513.949 434.8L536.019 433.549L539.918 379.772L549.335 321.14L547.863 312.018L516.009 312.533L513.655 318.565Z" fill="#A0A1A3"/>
<path d="M547.274 382.421L549.922 431.931L569.123 430.902L568.682 383.966L580.673 325.039L577.878 308.561L545.582 310.694L547.274 382.421Z" fill="#A0A1A3"/>
<path d="M502.326 319.816C522.116 322.832 555 325.039 574.789 328.055C575.819 292.302 572.214 251.031 563.533 216.455C561.989 210.202 559.634 203.434 554.117 200.197C548.232 196.813 535.799 197.254 532.194 203.949C526.971 213.66 525.941 229.182 523.66 239.996C518.364 264.494 505.563 294.95 502.326 319.816Z" fill="white"/>
<path d="M533.001 172.463C538.225 158.559 555.807 164.15 558.897 176.656C560.957 184.896 554.336 195.489 546.023 197.549C546.17 199.609 546.243 201.669 546.243 203.729C544.036 203.508 541.756 203.287 539.549 203.066C538.887 202.993 538.077 202.846 537.71 202.257C537.489 201.889 537.562 201.448 537.636 201.007C537.783 199.609 537.93 198.211 538.151 196.813C538.004 196.74 537.857 196.666 537.71 196.593C533.737 194.459 531.383 190.119 530.868 185.631C530.353 181.144 531.383 176.656 533.001 172.463Z" fill="#EAC1A4"/>
<path d="M534.18 176.731C531.238 180.703 531.753 186.147 532.341 190.855C532.782 195.049 532.635 197.624 528.001 197.182C525.426 196.961 520.791 196.52 519.32 194.019C518.216 192.106 520.497 188.134 521.821 186.662C522.851 185.559 524.617 185.412 525.647 184.308C526.088 183.867 526.309 183.278 526.529 182.69C527.339 180.262 527.854 177.761 527.927 175.259C528.001 173.567 527.854 171.802 528.295 170.11C528.883 167.682 531.458 165.475 533.077 163.636C536.019 160.178 543.523 156.647 547.275 161.355C548.084 162.459 548.379 163.857 548.452 165.254C548.526 166.064 548.599 166.946 548.305 167.682C547.275 170.772 544.332 170.404 541.831 171.213C538.815 172.022 536.093 174.156 534.18 176.731Z" fill="#1A3151"/>
<path d="M556.398 184.897C555.81 187.177 553.897 189.237 554.486 191.444C554.78 192.474 555.515 193.21 556.03 194.092C557.575 196.446 557.649 199.683 556.398 202.185C560.886 203.509 565.3 204.759 569.787 206.084C570.449 206.304 571.185 206.452 571.847 206.304C573.319 206.01 573.907 204.318 574.349 202.847C575.158 199.978 575.893 196.961 574.863 194.166C574.422 192.915 573.539 191.738 573.098 190.488C570.891 184.308 577.512 177.025 574.201 171.36C572.73 168.859 569.714 167.682 567.507 165.769C563.681 162.459 562.284 156.794 558.164 153.704C550.513 147.893 538.595 155.617 541.17 165.107C543.23 172.832 558.679 175.848 556.398 184.897Z" fill="#1A3151"/>
<path d="M557.427 202.698C557.427 202.698 563.901 291.419 550.144 309.002C536.387 326.511 530.502 333.132 530.502 333.132L587.001 356.599C587.001 356.526 585.53 227.122 557.427 202.698Z" fill="#9EA6AD"/>
<path d="M305.976 199.975C305.976 199.975 272.577 224.104 260.439 219.323C258.894 218.734 224.17 211.451 224.17 211.451L218.727 220.058L260.439 239.112H273.239L303.034 224.766L305.976 199.975Z" fill="white"/>
<path d="M208.574 168.782C208.574 168.782 213.724 171.357 214.607 184.893C215.489 198.429 218.653 206.742 218.653 206.742C218.653 206.742 214.607 209.832 210.855 208.508C207.103 207.184 205.779 207.037 205.852 201.446C205.852 195.855 202.615 169.886 202.615 169.886L208.574 168.782Z" fill="#1A3151"/>
<path d="M198.789 175.697C204.086 175.918 209.015 179.67 210.707 184.673C212.84 181.509 213.355 177.316 212.031 173.711C210.707 170.106 207.543 167.311 203.865 166.354C201.143 168.709 199.451 172.093 199.157 175.697H198.789Z" fill="#1A3151"/>
<path d="M192.463 207.773L158.549 208.435L146.631 153.628L135.449 155.173V222.265L155.386 231.903L191.875 237.052L192.463 207.773Z" fill="#EBB044"/>
<path d="M177.235 451.13L176.646 455.986L185.254 462.165L190.477 458.046L186.504 452.528L177.824 446.349L177.235 451.13Z" fill="#1A3151"/>
<path d="M180.693 303.557L178.854 318.123L190.919 368.81L176.941 449.512L185.843 452.823L211.297 374.254L215.49 351.375L216.447 302.674L180.693 303.557Z" fill="#DBDBDB"/>
<path d="M249.331 321.359L227.556 456.648L218.948 456.427L219.316 369.472L204.971 308.044L249.331 321.359Z" fill="#DBDBDB"/>
<path d="M219.023 455.324L218.949 460.253L228.071 465.329L232.853 460.547L228.292 455.545L219.023 455.324Z" fill="#1A3151"/>
<path d="M175.469 306.352C182.9 262.874 181.281 231.02 181.796 222.339C182.311 213.585 188.417 209.244 188.417 209.244C191.066 208.729 193.346 207.037 196.068 206.375C214.092 202.182 223.582 216.38 229.909 231.608C237.78 250.441 244.328 269.789 249.477 289.579C254.038 306.94 258.6 324.449 260.292 342.326C260.954 349.756 261.542 356.745 253.597 359.835C240.944 364.764 226.819 364.322 213.503 365.72C198.202 367.265 182.9 368.368 167.524 368.663C159.506 368.883 168.039 349.903 175.469 306.352Z" fill="#EBB044"/>
<path d="M139.348 154.731L132.801 147.89L135.376 136.119L141.849 136.266L143.541 146.566L146.778 148.625L146.631 153.628L139.348 154.731Z" fill="#EAC1A4"/>
<path d="M204.748 205.712L221.889 209.096L256.245 243.819L297.074 243.157L299.06 255.811L251.242 263.167L212.473 237.125L204.748 205.712Z" fill="#EBB044"/>
<path d="M208.942 206.67L211.149 253.164L188.27 208.509L195.258 206.229L200.261 204.831L208.942 206.67Z" fill="white"/>
<path d="M297.441 246.322L305.092 241.834L314.656 244.409L314.509 249.632L298.398 252.28L297.441 246.322Z" fill="#EAC1A4"/>
<path d="M210.412 180.039C204.747 167.017 188.342 173.197 185.988 185.335C184.664 192.251 188.048 204.315 196.287 204.61C196.655 205.787 197.317 207.994 198.421 208.582C199.598 209.244 202.54 207.699 203.717 207.111C204.012 206.964 204.379 206.743 204.6 206.449C204.821 206.081 204.674 205.198 204.527 204.315C205.409 204.021 206.292 203.653 207.175 203.138C210.853 200.931 212.84 196.665 213.134 192.398C213.355 188.204 212.104 183.938 210.412 180.039Z" fill="#EAC1A4"/>
<path d="M203.572 166.355C203.572 166.355 206.882 173.343 197.907 177.537C188.932 181.73 184.518 190.484 187.902 197.841C191.286 205.271 199.526 209.391 196.289 212.26C193.052 215.129 179.074 216.159 179.074 216.159C179.074 216.159 164.729 190.558 173.115 176.212C181.428 161.867 197.319 157.894 203.572 166.355Z" fill="#1A3151"/>
<path d="M618.634 85.4316C618.634 85.4316 603.994 102.205 597.814 148.552L609.953 150.611C609.953 150.611 612.748 109.709 624.74 88.2272L618.634 85.4316Z" fill="#145566"/>
<path d="M690.362 26.5791C690.362 26.5791 648.061 27.3148 629.522 43.7201C610.984 60.1254 619.223 89.3313 619.223 89.3313C619.223 89.3313 647.252 101.175 665.791 84.8437C684.403 68.4384 690.362 26.5791 690.362 26.5791Z" fill="#C8D6A1"/>
<path d="M619.222 89.3313C619.222 89.3313 620.84 89.9934 623.562 90.8027L663.95 49.8262L618.266 84.8438C618.781 87.6393 619.222 89.3313 619.222 89.3313Z" fill="#145566"/>
<path d="M553.969 43.499C553.969 43.499 554.778 81.2386 569.418 97.7175C584.131 114.27 610.173 106.766 610.173 106.766C610.173 106.766 620.694 81.7536 605.98 65.2011C591.341 48.6487 553.969 43.499 553.969 43.499Z" fill="#C8D6A1"/>
<path d="M610.249 106.766C610.249 106.766 610.837 105.295 611.573 102.94L574.863 67.04L606.276 107.649C608.704 107.134 610.249 106.766 610.249 106.766Z" fill="#145566"/>
<path d="M619.223 89.3308C619.223 89.3308 665.055 88.7423 683.152 55.2695C683.152 55.2695 669.91 110.15 619.223 89.3308Z" fill="#B8C48A"/>
<path d="M486.802 452.675L487.538 458.56L476.577 465.917L470.029 460.841L475.105 454.22L485.993 446.863L486.802 452.675Z" fill="#132235"/>
<path d="M487.169 450.763L478.562 376.166L488.567 292.669L486.213 274.866L440.896 273.247L439.277 302.159L447.075 376.314L475.84 454.588L487.169 450.763Z" fill="#1A3151"/>
<path d="M407.645 281.707V356.966L422.946 453.779L433.908 453.706L439.72 364.102L453.55 274.351L407.645 281.707Z" fill="#1A3151"/>
<path d="M433.834 458.267L422.137 464.3L416.178 458.488L421.989 452.529L433.76 452.382L433.834 458.267Z" fill="#132235"/>
<path d="M493.276 307.087C493.203 303.85 492.982 301.128 492.982 300.099C492.761 291.344 491.952 282.59 490.849 273.909C489.819 266.111 488.568 246.836 487.244 239.038C486.14 232.638 482.241 216.748 479.519 210.789C472.604 196.076 474.738 194.678 444.502 190.411C431.26 188.498 428.096 196.811 417.282 206.301C416.179 207.258 416.252 212.849 416.032 214.32C415.59 216.895 415.149 219.543 414.634 222.118C414.192 224.178 413.751 226.164 413.236 228.224C413.236 228.224 404.187 269.642 398.228 278.47C392.196 287.298 379.837 299.584 400.656 307.087C404.334 308.264 408.086 309.368 411.912 310.03C411.912 310.03 428.906 308.117 437.66 308.191C445.752 308.264 453.771 309 461.716 310.398C467.013 311.281 472.457 312.531 477.165 315.033C481.726 317.387 484.963 320.844 489.524 323.272C489.966 323.493 490.407 323.713 490.922 323.64C493.423 323.272 493.497 314.003 493.276 307.087Z" fill="#145566"/>
<path d="M444.355 194.677C445.9 195.413 449.504 195.707 453.256 194.236C453.992 193.942 454.507 193.206 454.507 192.397C454.507 190.116 454.286 187.836 453.918 185.555C456.714 184.525 460.024 183.054 460.466 180.111C460.613 179.155 460.466 178.199 460.319 177.316C459.657 173.49 458.995 169.665 458.332 165.839C458.112 164.515 457.891 163.117 457.155 162.014C455.905 160.028 453.404 159.145 451.123 158.777C445.164 157.747 438.69 159.071 434.129 162.97C432.878 164 431.775 165.251 431.26 166.796C430.451 169.15 431.039 171.725 431.701 174.079C432.29 176.286 432.878 178.493 433.467 180.7C434.129 183.201 435.085 186.144 437.587 187.1C438.911 187.615 440.456 187.468 441.633 188.204C443.546 189.381 443.251 192.47 444.355 194.677Z" fill="#EAC1A4"/>
<path d="M410 156.496C409.411 155.54 408.749 154.584 408.087 153.774C406.542 151.935 404.703 150.317 403.453 148.183C402.202 146.124 401.761 143.254 403.232 141.342C404.188 140.091 405.733 139.503 407.204 139.061C412.133 137.59 417.43 137.516 422.433 138.767C427.215 139.944 431.408 141.93 436.19 140.165C440.677 138.473 443.914 139.135 448.622 140.827C453.698 142.592 460.54 143.034 465.101 145.609C467.014 146.639 468.559 148.331 469.736 150.17C473.856 156.57 473.929 165.324 469.81 171.798C468.927 173.27 467.823 174.52 466.646 175.844C464.292 178.419 461.423 181.656 458.112 182.613C458.039 179.67 460.687 170.401 458.407 167.973C454.802 164.147 446.71 165.472 442.222 166.428C437.367 167.458 433.026 170.915 428.244 171.651C424.787 172.166 420.373 170.474 417.43 168.708C413.825 166.428 412.133 159.954 410 156.496Z" fill="#1A3151"/>
<path d="M347.247 209.097L337.904 203.065L340.258 198.945L347.615 201.667L347.836 199.166L355.266 205.272L353.353 209.907L347.247 209.097Z" fill="#AA6755"/>
<path d="M435.012 191.883L386.164 212.04L355.266 205.272L352.25 211.231L380.426 231.903L419.269 227.195L435.012 191.883Z" fill="#145566"/>
<path d="M503.061 116.036L502.252 103.75L497.029 103.897L495.704 112.431L493.203 111.327L495.189 121.7L500.633 122.289L503.061 116.036Z" fill="#EAC1A4"/>
<path d="M456.125 198.577L482.903 162.971L495.189 121.7L502.472 121.921L502.545 169.666L477.239 220.132L456.125 198.577Z" fill="#145566"/>
<path d="M299.283 457.973L299.062 463.122L309.068 468.713L314.438 463.858L309.582 458.488L299.577 452.896L299.283 457.973Z" fill="#DBDBDB"/>
<path d="M290.895 302.673L290.086 318.196L307.521 386.613L298.84 456.354L308.919 458.855L336.653 375.063L337.095 349.903L330.106 298.112L290.895 302.673Z" fill="#145566"/>
<path d="M367.329 301.056L375.201 366.015L372.111 451.205L362.695 452.235L348.276 375.505L326.941 299.511L367.329 301.056Z" fill="#145566"/>
<path d="M363.136 456.207L373.877 460.18L378.438 454.515L372.773 450.027L362.621 451.131L363.136 456.207Z" fill="#DBDBDB"/>
<path d="M371.083 290.24C361.372 270.525 357.4 248.822 352.324 227.488C350.779 221.235 349.234 214.761 345.703 209.317C341.656 203.064 336.139 200.269 329.959 199.239C322.161 197.914 313.333 199.312 305.535 199.974C300.827 214.761 297.737 206.375 292.146 220.941C290.969 223.957 287.806 250 286.555 253.016C286.555 253.016 273.828 293.109 278.022 324.743C278.095 325.037 278.095 325.332 278.169 325.699C278.978 325.847 279.787 325.994 280.523 326.141C291.558 328.348 302.813 329.525 314.069 329.378C324.074 329.231 334.079 327.98 343.79 325.552C357.105 322.242 372.849 323.566 383.736 314.738C380.5 308.338 374.32 296.714 371.083 290.24Z" fill="white"/>
<path d="M376.601 141.931L376.234 130.822H371.452L370.054 138.473L367.773 137.443L369.318 146.933L374.247 147.595L376.601 141.931Z" fill="#AA6755"/>
<path d="M331.062 198.504L359.459 176.949L369.317 146.934L375.938 147.301L379.469 182.098L349.16 225.282L331.062 198.504Z" fill="white"/>
<path d="M299.282 174.448C303.255 161.868 321.425 157.307 325.913 171.726C327.237 176.066 328.046 180.701 327.237 185.188C326.428 189.676 323.78 194.016 319.586 195.856H319.513C319.66 197.033 319.881 198.136 320.028 199.313C320.101 199.534 320.101 199.828 319.954 200.049C319.807 200.27 319.513 200.343 319.218 200.417C317.821 200.637 316.423 200.858 315.099 201.079C314.437 201.226 313.701 201.3 313.039 201.079C311.568 200.637 310.979 198.945 310.905 197.4C310.905 197.033 310.905 196.665 310.905 196.297C302.666 193.649 296.707 182.614 299.282 174.448Z" fill="#AA6755"/>
<path d="M324.368 153.776C327.752 153.629 330.254 157.087 333.196 159.073C335.624 160.691 338.493 161.353 340.994 162.825C343.496 164.222 345.923 166.944 345.703 169.961C348.498 168.784 351.588 167.68 354.531 168.489C357.473 169.372 359.901 173.198 358.43 176.067C357.105 178.641 353.574 178.936 352.176 181.437C349.969 185.41 354.31 192.251 350.632 194.679C349.749 195.268 348.645 195.341 347.762 195.93C346.732 196.665 346.218 198.063 345.703 199.314C343.128 204.978 336.948 208.215 331.21 206.891C327.752 204.831 325.251 201.079 324.295 196.96C323.191 192.031 325.913 190.559 326.796 186.072C327.752 181.143 326.649 175.772 323.927 171.653C322.161 168.931 319.439 166.503 316.423 165.988C315.172 165.767 315.467 166.797 314.143 165.767C313.554 165.326 312.892 163.634 312.818 162.898C316.497 160.471 319.954 153.997 324.368 153.776Z" fill="#1A3151"/>
<path d="M288.541 156.571C286.776 156.865 284.936 156.644 283.244 157.233C280.67 158.042 280.596 160.617 279.713 162.824C278.683 165.178 277.285 168.415 275.446 170.181C274.122 171.431 272.43 172.093 270.959 172.976C269.414 173.933 268.016 175.33 267.869 177.243C267.722 179.082 268.825 180.774 268.825 182.613C268.752 185.335 268.163 186.66 268.752 189.529C269.046 191 269.414 192.545 270.37 193.648C271.621 195.046 273.681 195.193 275.446 195.12C277.212 194.973 279.125 194.678 280.743 195.414C284.421 197.032 283.318 200.784 284.054 204.095C285.084 209.097 290.454 212.481 294.941 211.157C298.767 210.054 301.268 206.008 301.489 201.814C301.636 199.681 300.974 197.695 301.121 195.561C301.268 193.501 302.666 190.853 300.974 189.087C300.532 188.646 300.018 188.425 299.65 187.91C299.355 187.542 299.208 187.027 299.135 186.512C298.914 184.82 299.429 182.981 300.532 181.804C301.342 180.921 302.372 180.406 302.96 179.303C303.549 178.052 303.328 176.581 303.402 175.11C303.549 171.726 305.682 168.562 308.625 167.459C310.538 166.797 312.303 166.429 314.069 165.252C314.363 165.105 318.336 162.162 318.409 162.898C318.336 161.647 317.747 160.47 317.085 159.44C316.055 157.674 314.878 155.982 313.259 154.879C308.11 151.201 307.153 158.484 302.887 157.159C301.857 156.792 301.121 155.762 300.238 155.1C298.546 153.849 296.266 153.996 294.353 154.658C292.293 155.173 290.527 156.203 288.541 156.571Z" fill="#1A3151"/>
<path d="M247.049 380.802L355.927 422.809L475.178 383.009L373.951 343.872L247.049 380.802Z" fill="#1A6F82"/>
<path d="M442.593 387.297C442.64 362.31 422.422 342.016 397.434 341.969C372.447 341.923 352.153 362.141 352.106 387.128C352.059 412.115 372.278 432.409 397.265 432.456C422.252 432.503 442.546 412.285 442.593 387.297Z" fill="white"/>
<mask id="mask0_529_7329" style="mask-type:luminance" maskUnits="userSpaceOnUse" x="352" y="341" width="91" height="92">
<path d="M442.593 387.297C442.64 362.31 422.422 342.016 397.434 341.969C372.447 341.923 352.153 362.141 352.106 387.128C352.059 412.115 372.278 432.409 397.265 432.456C422.252 432.503 442.546 412.285 442.593 387.297Z" fill="white"/>
</mask>
<g mask="url(#mask0_529_7329)">
<path d="M426.698 360.057L427.728 359.248C427.507 358.953 422.357 352.185 412.205 348.286L411.764 349.537C421.622 353.289 426.698 359.983 426.698 360.057Z" fill="#5C5955"/>
<path d="M367.698 359.909C367.771 359.836 372.848 353.141 382.632 349.389L382.19 348.139C372.038 352.038 366.889 358.806 366.668 359.026L367.698 359.909Z" fill="#5C5955"/>
<path d="M430.449 411.406C433.539 408.095 435.967 402.872 437.732 395.809C438.983 390.586 439.424 386.246 439.424 386.246L438.1 386.099C438.1 386.246 436.555 403.019 429.566 410.523L430.449 411.406Z" fill="#5C5955"/>
<path d="M363.945 411.259L364.902 410.376C357.913 402.872 356.441 386.099 356.441 385.952L355.117 386.026C355.117 386.099 355.485 390.366 356.736 395.663C358.501 402.725 360.929 407.948 363.945 411.259Z" fill="#5C5955"/>
<path d="M396.389 428.841C402.274 428.841 406.909 427.737 407.203 427.664L406.909 426.413C406.835 426.413 396.315 428.914 387.046 426.413L386.678 427.664C389.988 428.473 393.372 428.841 396.389 428.841Z" fill="#5C5955"/>
</g>
<mask id="mask1_529_7329" style="mask-type:luminance" maskUnits="userSpaceOnUse" x="352" y="341" width="91" height="92">
<path d="M442.593 387.297C442.64 362.31 422.422 342.016 397.434 341.969C372.447 341.923 352.153 362.141 352.106 387.128C352.059 412.115 372.278 432.409 397.265 432.456C422.252 432.503 442.546 412.285 442.593 387.297Z" fill="white"/>
</mask>
<g mask="url(#mask1_529_7329)">
<path d="M397.345 370.281L412.721 381.463L406.762 399.561H387.782L381.896 381.463L397.345 370.281Z" fill="#1A3151"/>
</g>
<mask id="mask2_529_7329" style="mask-type:luminance" maskUnits="userSpaceOnUse" x="352" y="341" width="91" height="92">
<path d="M442.593 387.297C442.64 362.31 422.422 342.016 397.434 341.969C372.447 341.923 352.153 362.141 352.106 387.128C352.059 412.115 372.278 432.409 397.265 432.456C422.252 432.503 442.546 412.285 442.593 387.297Z" fill="white"/>
</mask>
<g mask="url(#mask2_529_7329)">
<path d="M397.346 360.497L381.971 349.315L387.93 331.218L406.91 331.291L412.721 349.389L397.346 360.497Z" fill="#1A3151"/>
</g>
<mask id="mask3_529_7329" style="mask-type:luminance" maskUnits="userSpaceOnUse" x="352" y="341" width="91" height="92">
<path d="M442.593 387.297C442.64 362.31 422.422 342.016 397.434 341.969C372.447 341.923 352.153 362.141 352.106 387.128C352.059 412.115 372.278 432.409 397.265 432.456C422.252 432.503 442.546 412.285 442.593 387.297Z" fill="white"/>
</mask>
<g mask="url(#mask3_529_7329)">
<path d="M411.691 409.346L430.671 409.64L436.336 427.811L420.74 438.772L405.512 427.369L411.691 409.346Z" fill="#1A3151"/>
<path d="M405.15 394.819L403.965 395.409L413.045 413.651L414.231 413.061L405.15 394.819Z" fill="#1A3151"/>
</g>
<mask id="mask4_529_7329" style="mask-type:luminance" maskUnits="userSpaceOnUse" x="352" y="341" width="91" height="92">
<path d="M442.593 387.297C442.64 362.31 422.422 342.016 397.434 341.969C372.447 341.923 352.153 362.141 352.106 387.128C352.059 412.115 372.278 432.409 397.265 432.456C422.252 432.503 442.546 412.285 442.593 387.297Z" fill="white"/>
</mask>
<g mask="url(#mask4_529_7329)">
<path d="M422.209 377.639L426.549 359.101L445.53 357.556L452.886 375.064L438.467 387.497L422.209 377.639Z" fill="#1A3151"/>
<path d="M427.085 374.751L408.391 382.861L408.918 384.076L427.612 375.966L427.085 374.751Z" fill="#1A3151"/>
</g>
<mask id="mask5_529_7329" style="mask-type:luminance" maskUnits="userSpaceOnUse" x="352" y="341" width="91" height="92">
<path d="M442.593 387.297C442.64 362.31 422.422 342.016 397.434 341.969C372.447 341.923 352.153 362.141 352.106 387.128C352.059 412.115 372.278 432.409 397.265 432.456C422.252 432.503 442.546 412.285 442.593 387.297Z" fill="white"/>
</mask>
<g mask="url(#mask5_529_7329)">
<path d="M382.779 409.565L363.725 409.713L358.061 427.883L373.509 438.918L388.811 427.589L382.779 409.565Z" fill="#1A3151"/>
<path d="M389.333 395.024L380.186 413.233L381.369 413.828L390.517 395.618L389.333 395.024Z" fill="#1A3151"/>
</g>
<mask id="mask6_529_7329" style="mask-type:luminance" maskUnits="userSpaceOnUse" x="352" y="341" width="91" height="92">
<path d="M442.593 387.297C442.64 362.31 422.422 342.016 397.434 341.969C372.447 341.923 352.153 362.141 352.106 387.128C352.059 412.115 372.278 432.409 397.265 432.456C422.252 432.503 442.546 412.285 442.593 387.297Z" fill="white"/>
</mask>
<g mask="url(#mask6_529_7329)">
<path d="M372.186 377.638L367.625 359.173L348.645 357.849L341.436 375.431L356.002 387.717L372.186 377.638Z" fill="#1A3151"/>
<path d="M367.277 374.831L366.764 376.052L385.546 383.956L386.06 382.736L367.277 374.831Z" fill="#1A3151"/>
</g>
<mask id="mask7_529_7329" style="mask-type:luminance" maskUnits="userSpaceOnUse" x="352" y="341" width="91" height="92">
<path d="M442.593 387.297C442.64 362.31 422.422 342.016 397.434 341.969C372.447 341.923 352.153 362.141 352.106 387.128C352.059 412.115 372.278 432.409 397.265 432.456C422.252 432.503 442.546 412.285 442.593 387.297Z" fill="white"/>
</mask>
<g mask="url(#mask7_529_7329)">
<path d="M396.715 350.997L396.676 372.479L398 372.481L398.04 351L396.715 350.997Z" fill="#1A3151"/>
</g>
<path d="M355.707 513.001L246.902 457.9L247.049 380.729L355.854 422.735L355.707 513.001Z" fill="#1A6F82"/>
<path d="M355.707 513.001L475.032 460.548L475.179 383.009L355.854 422.735L355.707 513.001Z" fill="#145566"/>
<path d="M346.365 361.454C340.994 363.146 338.052 368.885 339.817 374.255C341.509 379.625 347.248 382.568 352.618 380.802L366.669 376.315C372.04 374.623 374.982 368.885 373.217 363.514C371.525 358.144 365.786 355.201 360.416 356.967L346.365 361.454Z" fill="#3ABABA"/>
<path d="M361.224 394.264C355.191 391.174 347.761 393.528 344.671 399.561C341.581 405.593 343.935 413.023 349.968 416.113L365.858 424.279C371.891 427.369 379.321 425.015 382.411 418.982C385.501 412.95 383.146 405.52 377.114 402.43L361.224 394.264Z" fill="#3ABABA"/>
<path d="M309.286 410.891C312.376 404.858 319.806 402.504 325.839 405.594C331.871 408.684 334.225 416.114 331.135 422.146L322.97 438.037C319.88 444.069 312.45 446.423 306.417 443.334C300.385 440.244 298.031 432.814 301.12 426.781L309.286 410.891Z" fill="#B5D6CA"/>
<path d="M287.439 380.361C282.069 382.053 279.126 387.791 280.892 393.161C282.584 398.532 288.322 401.474 293.692 399.709L307.743 395.221C313.114 393.529 316.056 387.791 314.291 382.42C312.599 377.05 306.861 374.107 301.49 375.873L287.439 380.361Z" fill="#3ABABA"/>
<path d="M307.448 408.316C312.23 423.176 328.121 431.342 342.907 426.634C357.768 421.852 365.934 405.962 361.225 391.175L358.062 381.317C353.28 366.457 337.39 358.291 322.603 362.999C307.743 367.781 299.577 383.671 304.285 398.458L307.448 408.316Z" fill="#3ABABA"/>
<path d="M326.9 376.426C342.922 371.301 351.755 354.158 346.63 338.136C341.505 322.114 324.362 313.281 308.34 318.406C292.318 323.532 283.485 340.675 288.61 356.696C293.735 372.718 310.878 381.551 326.9 376.426Z" fill="#3ABABA"/>
<path d="M318.188 349.169C328.561 345.858 339.448 348.36 347.173 354.981C344.672 364.839 337.315 373.225 326.942 376.536C316.569 379.846 305.682 377.345 297.957 370.724C300.458 360.866 307.815 352.479 318.188 349.169Z" fill="#F4F1EF"/>
<path d="M340.506 336.07C348.014 333.668 352.153 325.635 349.751 318.127C347.35 310.619 339.317 306.48 331.809 308.882C324.301 311.284 320.162 319.317 322.563 326.824C324.965 334.332 332.998 338.471 340.506 336.07Z" fill="#3ABABA"/>
<path d="M292.41 351.519C299.918 349.117 304.057 341.084 301.656 333.576C299.254 326.069 291.221 321.929 283.713 324.331C276.205 326.733 272.066 334.766 274.468 342.274C276.869 349.781 284.903 353.921 292.41 351.519Z" fill="#3ABABA"/>
<path d="M331.22 341.442C332.846 340.922 333.742 339.183 333.222 337.557C332.702 335.932 330.963 335.036 329.338 335.556C327.712 336.076 326.816 337.815 327.336 339.44C327.856 341.065 329.595 341.962 331.22 341.442Z" fill="#1A3151"/>
<path d="M303.115 350.438C304.74 349.918 305.637 348.179 305.117 346.553C304.597 344.928 302.857 344.032 301.232 344.552C299.607 345.072 298.711 346.811 299.231 348.436C299.75 350.062 301.49 350.958 303.115 350.438Z" fill="#1A3151"/>
<path d="M312.669 361.97C313.111 361.087 314.214 360.792 315.024 361.234C316.789 362.117 318.628 362.411 320.467 362.19L318.26 355.201C314.361 353.951 313.626 351.155 313.626 351.155C313.184 349.757 313.92 348.065 315.318 347.624L319.658 346.226C321.056 345.785 322.601 346.668 323.042 348.139C323.116 348.433 323.925 351.008 321.645 354.098L323.925 361.087C325.544 360.204 326.868 358.88 327.824 357.114C328.265 356.231 329.369 355.937 330.178 356.378C331.061 356.82 331.355 357.923 330.914 358.733C329.295 361.896 326.5 364.103 323.337 365.133C320.173 366.163 316.642 365.942 313.479 364.324C312.522 363.882 312.228 362.852 312.669 361.97Z" fill="#1A3151"/>
<path d="M339.157 316.284C342.761 318.565 343.791 323.273 341.511 326.804L328.637 318.712C330.917 315.107 335.626 314.077 339.157 316.284Z" fill="white"/>
<path d="M281.995 334.602C283.614 330.703 288.028 328.79 292 330.409L286.188 344.533C282.289 342.988 280.45 338.501 281.995 334.602Z" fill="white"/>
<path d="M355.854 422.735L377.041 459.15L492.834 413.465L475.031 383.009L355.854 422.735Z" fill="#1A6F82"/>
<path d="M227.48 405.005L330.841 454.074L355.854 422.735L246.976 380.729L227.48 405.005Z" fill="#145566"/>
<path d="M601.125 150.685L594.504 143.843L597.079 132.072L603.553 132.219L605.245 142.519L608.482 144.579L608.408 149.581L601.125 150.685Z" fill="#EAC1A4"/>
<path d="M649.239 211.525C652.476 211.378 655.786 211.231 659.023 211.084C659.17 208.509 659.17 205.86 658.876 203.286C658.876 203.58 664.099 200.858 664.54 200.196C665.865 198.43 666.012 195.414 666.527 193.281C667.704 188.719 668.807 183.643 666.38 179.597C663.878 175.404 658.508 174.006 653.653 173.859C647.547 173.712 640.705 175.477 637.615 180.774C634.82 185.482 638.351 192.471 639.381 197.474C639.896 199.975 640.631 202.771 642.985 203.801C644.236 204.315 645.707 204.315 646.737 205.051C648.797 206.375 648.356 209.318 649.239 211.525Z" fill="#EAC1A4"/>
<path d="M628.051 171.725C627.684 168.341 627.316 164.957 626.948 161.573C626.801 160.323 626.654 158.998 627.095 157.821C627.757 155.835 629.743 154.584 631.803 154.069C633.79 153.554 635.923 153.481 637.983 153.039C640.19 152.524 642.323 151.568 644.53 151.642C648.797 151.789 652.034 155.761 656.227 156.424C662.039 157.306 667.409 154.658 670.941 161.5C671.603 162.75 671.75 164.222 672.338 165.472C673.074 167.164 674.398 168.488 675.502 169.96C680.136 176.507 678.665 186.512 673.074 192.103C670.352 194.825 669.249 197.253 665.57 198.136C667.262 194.678 664.982 180.848 660.347 179.303C659.096 178.861 655.418 180.406 654.02 180.627C651.004 181.068 648.061 181.583 645.192 182.76C640.926 184.526 636.364 185.777 631.803 186.144C631.215 186.218 630.553 186.218 630.111 185.85C629.67 185.482 629.596 184.894 629.523 184.305C629.008 180.112 628.566 175.919 628.051 171.725Z" fill="#1A3151"/>
<path d="M701.469 460.327L702.793 465.845L693.083 473.937L686.314 469.817L690.508 462.975L700.145 454.81L701.469 460.327Z" fill="#1A3151"/>
<path d="M678.885 290.24L682.931 306.94L678.002 384.626L701.617 458.413L691.244 463.195L644.088 378.079L638.423 350.859L635.48 293.256L678.885 290.24Z" fill="#145566"/>
<path d="M613.779 296.936L613.117 369.105L626.874 462.166H637.321L643.794 376.241L657.919 290.389L613.779 296.936Z" fill="#145566"/>
<path d="M637.246 460.915L637.32 466.58L625.991 472.244L620.326 466.58L625.991 460.915H637.246Z" fill="#1A3151"/>
<path d="M691.392 310.619C691.539 317.167 691.392 326.068 688.817 326.436C688.376 326.51 687.861 326.289 687.493 326.068C683.079 323.714 679.989 320.33 675.722 318.05C671.235 315.622 666.012 314.371 660.935 313.489C653.358 312.091 645.634 311.282 637.909 311.134C631.803 311.061 625.771 311.576 619.665 312.091C614.662 312.532 609.954 314.003 604.804 313.709C599.581 313.341 594.358 311.723 589.87 309.001C589.723 308.927 589.502 308.78 589.429 308.633C589.355 308.412 589.429 308.192 589.502 308.045C590.606 305.102 591.342 302.159 593.254 299.732C595.461 297.01 596.933 293.552 598.551 290.462C601.788 283.988 604.878 277.22 607.158 270.379C610.616 261.036 614.515 251.913 617.899 242.57C620.18 236.097 622.313 229.476 625.476 223.296C627.904 218.441 632.318 211.452 637.615 209.318C639.381 208.583 641.367 208.509 643.28 208.436C649.165 208.289 654.977 208.068 660.862 207.921C662.995 207.847 665.202 207.774 667.189 208.656C670.131 209.981 671.75 212.997 673.221 215.866C679.695 228.666 683.815 242.423 686.169 256.695C687.419 264.125 688.523 271.556 689.406 279.059C690.362 287.372 691.098 295.759 691.245 304.146C691.171 304.881 691.318 307.53 691.392 310.619Z" fill="#3ABABA"/>
<path d="M622.9 232.196L589.428 204.977L597.741 147.374L610.541 147.301L608.702 197.252L638.276 211.598L622.9 232.196Z" fill="#3ABABA"/>
<path d="M636.59 273.113L626.102 270.799L590.241 433.296L600.729 435.61L636.59 273.113Z" fill="#1A3151"/>
<path d="M576.185 387.863L569.416 418.614C563.016 447.746 588.544 465.917 588.544 465.917C588.544 465.917 619.368 460.179 625.842 431.047L632.61 400.296L576.185 387.863Z" fill="#DBDBDB"/>
<path d="M629.372 280.972L627.901 279.942C627.018 279.28 606.199 264.199 611.643 239.48L612.599 235.287L663.875 246.616L662.919 250.81C657.475 275.528 632.241 280.457 631.138 280.678L629.372 280.972ZM619.441 245.586C618.558 259.049 627.754 268.539 631.432 271.702C636.14 270.378 648.426 265.744 653.281 253.09L619.441 245.586Z" fill="#DBDBDB"/>
<path d="M636.633 273.12L626.145 270.806L621.388 292.357L631.877 294.672L636.633 273.12Z" fill="#DBDBDB"/>
<path d="M651.371 268.097L646.589 270.009L642.469 268.097L641.586 268.832L642.396 269.862L638.497 269.347L635.848 270.966L635.48 275.159L637.982 278.837L642.175 278.69L646.442 276.042L653.063 273.688L651.371 268.097Z" fill="#EAC1A4"/>
<path d="M645.854 266.846L672.558 249.852L667.114 208.435L695.364 230.504L691.023 267.141L649.458 276.189L645.854 266.846Z" fill="#3ABABA"/>
</g>
<defs>
<clipPath id="clip0_529_7329">
<rect width="795" height="537" fill="white"/>
</clipPath>
</defs>
</svg>
