<svg width="738" height="498" viewBox="0 0 738 498" fill="none" xmlns="http://www.w3.org/2000/svg">
<g clip-path="url(#clip0_653_4987)">
<path d="M706.06 497.987C690.858 497.987 607.034 498.016 501.932 497.987C474.808 497.987 446.229 497.987 417.08 497.959C411.946 497.959 406.784 497.959 401.621 497.959C380.744 497.959 359.638 497.93 338.589 497.93C332.913 497.93 327.266 497.93 321.618 497.93C287.421 497.902 253.595 497.873 221.394 497.845C95.9846 497.702 59.0777 496.675 59.0777 496.618C58.821 496.019 -56.2063 437.395 35.4334 314.725C81.5242 252.963 29.016 185.809 68.3187 126.928C123.907 43.5985 215.946 92.4664 279.093 66.0497C290.245 61.3997 301.454 53.897 312.663 42.3718C318.966 35.896 325.897 30.2475 333.284 25.3407C334.425 24.599 335.566 23.8573 336.735 23.1441C341.156 20.4055 345.748 17.9521 350.482 15.7269C353.648 14.2435 356.9 12.8456 360.208 11.5904C365.456 9.59347 370.818 7.85328 376.323 6.36984C384.109 4.28732 392.152 2.7183 400.338 1.6913C403.903 1.23486 407.497 0.864001 411.148 0.607252C481.71 -4.67037 561.085 24.9984 602.071 68.3605C610.314 77.09 647.819 122.278 618.271 184.354C599.589 223.551 677.824 261.008 705.604 305.768C776.252 419.593 706.688 496.504 706.06 497.987Z" fill="#D9E3F6"/>
<path d="M360.506 41.0219C470.55 6.56896 524.72 32.6304 524.72 32.6304L528.813 112.588C528.813 112.588 474.712 86.527 364.599 120.98C254.486 155.433 205.433 129.099 205.433 129.099L201.34 49.1405C201.34 49.1405 250.393 75.4066 360.506 41.0219Z" fill="white"/>
<path d="M263.151 120.299L251.553 87.1419L255.783 86.9372L261.377 103.243C262.946 107.745 264.242 111.771 265.266 115.659H265.334C266.016 111.702 267.04 107.404 268.131 102.97L272.361 86.0503L276.523 85.8456L267.449 120.094L263.151 120.299Z" fill="#1A3151"/>
<path d="M306.677 97.8526C308.451 109.314 303.129 116.341 295.488 117.569C287.574 118.797 280.957 112.862 279.388 102.765C277.75 92.19 282.594 84.3443 290.576 83.1163C298.763 81.8201 305.176 88.0284 306.677 97.8526ZM283.481 102.014C284.573 109.11 289.007 114.977 295.147 114.022C301.287 113.066 303.812 106.244 302.584 98.6713C301.56 92.0536 297.399 85.6406 290.917 86.5957C284.573 87.6191 282.389 94.7143 283.481 102.014Z" fill="#1A3151"/>
<path d="M308.176 80.5241L311.996 79.6372L318.819 108.905L331.44 105.972L332.259 109.519L315.817 113.34L308.176 80.5241Z" fill="#1A3151"/>
<path d="M330.35 75.1347L335.944 94.3055C338.059 101.537 341.88 103.789 345.769 102.629C350.067 101.333 351.909 97.3756 349.862 90.2121L344.268 71.0413L348.088 69.9497L353.614 88.7794C356.548 98.7401 353 104.198 346.724 106.04C340.788 107.814 335.194 105.29 332.26 95.2607L326.666 76.2263L330.35 75.1347Z" fill="#1A3151"/>
<path d="M363.848 100.104L355.184 67.5618L359.345 66.4702L373.126 80.456C376.333 83.6626 378.925 86.6644 381.177 89.6662L381.245 89.598C379.744 85.3681 378.584 81.4112 377.22 76.2944L373.604 62.6497L377.152 61.6945L385.816 94.2372L381.995 95.2606L368.283 81.2065C365.281 78.1364 362.347 74.9299 359.891 71.7916L359.755 71.8599C361.051 75.8851 362.211 79.7738 363.643 85.2317L367.327 99.1493L363.848 100.104Z" fill="#1A3151"/>
<path d="M391.822 62.377L382.749 64.2191L381.998 60.6032L404.034 56.1687L404.785 59.7845L395.711 61.6266L401.578 91.0309L397.689 91.7814L391.822 62.377Z" fill="#1A3151"/>
<path d="M426.954 70.9724L415.288 72.6097L416.926 84.6171L429.956 82.8433L430.434 86.4591L413.514 88.7787L408.943 55.4174L425.181 53.166L425.658 56.7819L413.31 58.4875L414.742 69.0621L426.409 67.4248L426.954 70.9724Z" fill="#1A3151"/>
<path d="M449.537 69.1988L437.802 70.0175L438.621 82.1613L451.72 81.2744L451.993 84.8902L435.005 86.05L432.754 52.4158L449.128 51.3242L449.4 54.9401L436.984 55.7588L437.666 66.4016L449.4 65.5829L449.537 69.1988Z" fill="#1A3151"/>
<path d="M456.905 51.5289C458.884 51.1196 461.749 50.9149 464.41 50.9831C468.571 51.0514 471.3 51.9383 473.142 53.9168C474.643 55.4177 475.462 57.7373 475.394 60.3298C475.325 64.7643 472.733 67.6979 469.526 68.8577V68.9942C471.846 69.9493 473.21 72.3371 473.824 75.8848C474.711 80.5922 475.394 83.8669 476.008 85.1632L471.982 85.095C471.505 84.1398 470.891 81.2062 470.072 76.9763C469.254 72.3371 467.684 70.5633 464.137 70.2904L460.453 70.2222L460.18 84.8221L456.291 84.7538L456.905 51.5289ZM460.589 66.9475L464.614 67.0157C468.776 67.0839 471.505 64.5596 471.573 60.7391C471.641 56.3728 468.844 54.4625 464.683 54.3261C462.772 54.3261 461.408 54.4625 460.794 54.6672L460.589 66.9475Z" fill="#1A3151"/>
<path d="M168.388 31.4022C156.79 34.3359 144.646 45.2516 144.578 56.0992C137.892 47.6395 118.517 47.6395 107.533 52.4833C78.5377 65.1729 79.9022 101.877 100.233 119.888C111.149 129.576 124.589 136.74 138.506 142.539C150.172 147.382 178.963 156.251 179.031 156.183C179.099 156.183 196.36 131.486 202.568 120.571C210.005 107.472 216.145 93.554 218.805 79.227C223.718 52.3469 199.021 23.5565 168.388 31.4022Z" fill="#EAC5B0"/>
<path d="M498.999 186.407C498.999 186.407 464.683 203.19 454.313 196.914C453.016 196.095 422.384 184.02 422.384 184.02L416.107 191.047L451.243 215.061L462.909 217.04L492.45 208.58L498.999 186.407Z" fill="#9EA6AD"/>
<path d="M521.786 189.409C521.786 189.409 541.639 222.088 553.715 222.361C555.215 222.429 587.554 228.705 587.554 228.705L589.054 238.052L546.483 239.28L535.567 234.641L515.305 211.581L521.786 189.409Z" fill="#9EA6AD"/>
<path d="M517.421 186.953C517.557 187.021 517.694 187.09 517.83 187.09C524.789 189.75 530.247 201.894 533.385 209.058C541.504 227.478 545.051 246.649 545.734 266.98C546.075 277.964 546.007 288.879 545.665 299.863C545.597 302.865 543.005 330.018 544.369 330.632C530.588 324.014 516.602 317.738 501.934 313.986C487.266 310.233 471.847 309.005 457.043 312.485C461.478 278.032 467.959 243.033 477.305 209.74C478.397 205.783 479.147 201.553 480.853 197.733C482.763 193.366 485.629 192.07 489.313 189.546C490.541 188.659 491.837 187.772 493.201 187.158C500.365 184.02 510.121 184.292 517.421 186.953Z" fill="#9EA6AD"/>
<path d="M538.844 295.224L523.152 359.354L522.879 406.564L515.238 408.202L512.168 364.334L504.459 283.898L538.844 295.224Z" fill="#DEC9AD"/>
<path d="M515.171 409.567L513.875 414.343L515.035 423.758H521.243L523.495 410.181L522.812 407.862L515.171 409.567Z" fill="#1A3151"/>
<path d="M478.535 288.265L477.238 343.663L484.811 421.779L492.384 422.325L494.976 350.69L510.258 285.673L478.535 288.265Z" fill="#DEC9AD"/>
<path d="M485.017 420.482L474.852 425.94L475.67 430.716L493.681 428.465L492.794 421.574L485.017 420.482Z" fill="#1A3151"/>
<path d="M476.351 295.429L471.303 359.423L476.624 403.222L497.091 402.062L500.707 352.191L509.44 297.817L508.075 289.357L478.534 289.835L476.351 295.429Z" fill="#A0A1A3"/>
<path d="M507.526 354.648L509.982 400.563L527.789 399.607L527.379 356.081L538.5 301.434L535.907 286.152L505.957 288.13L507.526 354.648Z" fill="#A0A1A3"/>
<path d="M465.846 296.589C484.198 299.386 514.694 301.433 533.046 304.23C534.001 271.073 530.658 232.8 522.608 200.735C521.175 194.936 518.992 188.659 513.875 185.657C508.417 182.519 496.887 182.928 493.544 189.137C488.701 198.142 487.745 212.538 485.631 222.566C480.718 245.285 468.848 273.529 465.846 296.589Z" fill="white"/>
<path d="M494.294 159.938C499.138 147.044 515.443 152.229 518.308 163.827C520.219 171.468 514.079 181.292 506.369 183.203C506.506 185.113 506.574 187.023 506.574 188.933C504.527 188.729 502.412 188.524 500.366 188.319C499.752 188.251 499.001 188.115 498.66 187.569C498.455 187.228 498.524 186.818 498.592 186.409C498.728 185.113 498.865 183.817 499.069 182.52C498.933 182.452 498.796 182.384 498.66 182.316C494.976 180.337 492.793 176.312 492.315 172.15C491.838 167.989 492.793 163.827 494.294 159.938Z" fill="#EAC1A4"/>
<path d="M495.388 163.896C492.659 167.58 493.137 172.628 493.683 176.995C494.092 180.883 493.956 183.271 489.658 182.862C487.27 182.657 482.972 182.248 481.607 179.928C480.584 178.154 482.699 174.47 483.927 173.106C484.882 172.082 486.519 171.946 487.474 170.923C487.884 170.513 488.088 169.968 488.293 169.422C489.044 167.17 489.521 164.851 489.589 162.531C489.658 160.962 489.521 159.325 489.93 157.756C490.476 155.504 492.864 153.457 494.365 151.752C497.094 148.545 504.053 145.271 507.532 149.637C508.283 150.66 508.556 151.957 508.624 153.253C508.692 154.003 508.76 154.822 508.487 155.504C507.532 158.37 504.803 158.028 502.484 158.779C499.686 159.529 497.162 161.508 495.388 163.896Z" fill="#1A3151"/>
<path d="M515.991 171.468C515.445 173.583 513.671 175.493 514.217 177.54C514.49 178.495 515.172 179.178 515.65 179.996C517.083 182.179 517.151 185.181 515.991 187.501C520.153 188.729 524.246 189.889 528.408 191.117C529.022 191.321 529.704 191.458 530.318 191.321C531.682 191.048 532.228 189.479 532.638 188.115C533.388 185.454 534.07 182.657 533.115 180.064C532.706 178.905 531.887 177.813 531.478 176.653C529.431 170.923 535.571 164.168 532.501 158.915C531.137 156.596 528.339 155.504 526.293 153.73C522.745 150.66 521.449 145.407 517.628 142.541C510.533 137.152 499.481 144.315 501.869 153.116C503.779 160.28 518.106 163.077 515.991 171.468Z" fill="#1A3151"/>
<path d="M516.943 187.977C516.943 187.977 522.946 270.254 510.188 286.56C497.431 302.797 491.973 308.937 491.973 308.937L544.368 330.7C544.368 330.632 543.004 210.627 516.943 187.977Z" fill="#9EA6AD"/>
<path d="M283.755 185.451C283.755 185.451 252.781 207.829 241.525 203.394C240.092 202.848 207.89 196.094 207.89 196.094L202.842 204.076L241.525 221.746H253.396L281.026 208.443L283.755 185.451Z" fill="white"/>
<path d="M193.423 156.523C193.423 156.523 198.198 158.911 199.017 171.464C199.836 184.018 202.769 191.727 202.769 191.727C202.769 191.727 199.017 194.592 195.538 193.364C192.058 192.136 190.83 192 190.898 186.815C190.898 181.63 187.896 157.547 187.896 157.547L193.423 156.523Z" fill="#1A3151"/>
<path d="M184.348 162.937C189.26 163.142 193.831 166.621 195.4 171.26C197.378 168.327 197.856 164.438 196.628 161.095C195.4 157.752 192.466 155.159 189.055 154.272C186.531 156.456 184.962 159.594 184.689 162.937H184.348Z" fill="#1A3151"/>
<path d="M178.483 192.682L147.032 193.296L135.979 142.47L125.609 143.902V206.122L144.098 215.06L177.937 219.835L178.483 192.682Z" fill="#EBB044"/>
<path d="M164.36 418.366L163.814 422.869L171.797 428.6L176.64 424.779L172.956 419.662L164.906 413.931L164.36 418.366Z" fill="#1A3151"/>
<path d="M167.569 281.51L165.864 295.018L177.052 342.024L164.09 416.866L172.345 419.936L195.95 347.073L199.839 325.855L200.726 280.691L167.569 281.51Z" fill="#DBDBDB"/>
<path d="M231.219 298.019L211.025 423.483L203.043 423.278L203.384 342.638L190.08 285.671L231.219 298.019Z" fill="#DBDBDB"/>
<path d="M203.113 422.256L203.045 426.827L211.505 431.534L215.939 427.1L211.709 422.461L203.113 422.256Z" fill="#1A3151"/>
<path d="M162.724 284.103C169.615 243.783 168.114 214.242 168.591 206.191C169.069 198.073 174.732 194.048 174.732 194.048C177.188 193.57 179.303 192.001 181.827 191.387C198.542 187.498 207.342 200.665 213.21 214.788C220.51 232.253 226.581 250.196 231.357 268.548C235.587 284.648 239.817 300.886 241.386 317.464C242 324.355 242.546 330.836 235.178 333.701C223.443 338.272 210.344 337.863 197.996 339.159C183.805 340.592 169.615 341.615 155.356 341.888C147.92 342.093 155.834 324.491 162.724 284.103Z" fill="#EBB044"/>
<path d="M129.226 143.493L123.154 137.149L125.542 126.233L131.546 126.369L133.115 135.921L136.117 137.831L135.98 142.47L129.226 143.493Z" fill="#EAC1A4"/>
<path d="M189.875 190.771L205.771 193.909L237.632 226.111L275.496 225.497L277.338 237.231L232.992 244.054L197.038 219.903L189.875 190.771Z" fill="#EBB044"/>
<path d="M193.765 191.66L195.811 234.778L174.594 193.366L181.075 191.251L185.714 189.955L193.765 191.66Z" fill="white"/>
<path d="M275.836 228.431L282.931 224.27L291.8 226.657L291.664 231.501L276.723 233.957L275.836 228.431Z" fill="#EAC1A4"/>
<path d="M195.128 166.962C189.874 154.887 174.661 160.618 172.477 171.875C171.249 178.288 174.388 189.476 182.029 189.749C182.37 190.841 182.984 192.887 184.007 193.433C185.099 194.047 187.828 192.615 188.919 192.069C189.192 191.932 189.533 191.728 189.738 191.455C189.943 191.114 189.806 190.295 189.67 189.476C190.488 189.203 191.307 188.862 192.126 188.385C195.537 186.338 197.379 182.381 197.652 178.424C197.857 174.535 196.697 170.578 195.128 166.962Z" fill="#EAC1A4"/>
<path d="M188.788 154.272C188.788 154.272 191.858 160.753 183.535 164.642C175.211 168.531 171.118 176.65 174.256 183.472C177.395 190.362 185.036 194.183 182.034 196.844C179.032 199.504 166.069 200.46 166.069 200.46C166.069 200.46 152.766 176.718 160.543 163.414C168.253 150.111 182.989 146.426 188.788 154.272Z" fill="#1A3151"/>
<path d="M573.704 79.2261C573.704 79.2261 560.127 94.7811 554.396 137.762L565.653 139.672C565.653 139.672 568.246 101.74 579.366 81.8186L573.704 79.2261Z" fill="#145566"/>
<path d="M640.223 24.6479C640.223 24.6479 600.994 25.3302 583.802 40.544C566.61 55.7579 574.251 82.8427 574.251 82.8427C574.251 82.8427 600.244 93.8267 617.436 78.681C634.697 63.4672 640.223 24.6479 640.223 24.6479Z" fill="#C8D6A1"/>
<path d="M574.248 82.8426C574.248 82.8426 575.749 83.4566 578.273 84.2071L615.728 46.2065L573.361 78.681C573.839 81.2735 574.248 82.8426 574.248 82.8426Z" fill="#145566"/>
<path d="M513.736 40.3395C513.736 40.3395 514.487 75.3383 528.063 90.6203C541.708 105.971 565.859 99.0118 565.859 99.0118C565.859 99.0118 575.615 75.8158 561.97 60.4655C548.394 45.1152 513.736 40.3395 513.736 40.3395Z" fill="#C8D6A1"/>
<path d="M565.929 99.0118C565.929 99.0118 566.475 97.6474 567.157 95.4642L533.113 62.1711L562.245 99.8305C564.496 99.353 565.929 99.0118 565.929 99.0118Z" fill="#145566"/>
<path d="M574.252 82.8424C574.252 82.8424 616.755 82.2966 633.538 51.2549C633.538 51.2549 621.258 102.15 574.252 82.8424Z" fill="#B8C48A"/>
<path d="M451.448 419.799L452.13 425.257L441.964 432.079L435.893 427.372L440.6 421.232L450.697 414.409L451.448 419.799Z" fill="#132235"/>
<path d="M451.787 418.025L443.804 348.847L453.083 271.413L450.9 254.903L408.874 253.402L407.373 280.214L414.605 348.983L441.28 421.573L451.787 418.025Z" fill="#1A3151"/>
<path d="M378.039 261.248V331.041L392.23 420.823L402.395 420.755L407.785 337.659L420.611 254.426L378.039 261.248Z" fill="#1A3151"/>
<path d="M402.327 424.985L391.479 430.58L385.953 425.19L391.343 419.664L402.259 419.528L402.327 424.985Z" fill="#132235"/>
<path d="M457.451 284.784C457.383 281.783 457.178 279.258 457.178 278.303C456.974 270.185 456.223 262.066 455.2 254.016C454.245 246.784 453.085 228.909 451.857 221.678C450.834 215.742 447.218 201.006 444.693 195.48C438.28 181.835 440.259 180.539 412.219 176.582C399.939 174.808 397.005 182.517 386.976 191.318C385.953 192.205 386.021 197.39 385.816 198.755C385.407 201.142 384.998 203.598 384.52 205.986C384.111 207.896 383.702 209.739 383.224 211.649C383.224 211.649 374.832 250.059 369.306 258.245C363.712 266.432 352.25 277.826 371.558 284.784C374.969 285.876 378.448 286.899 381.996 287.513C381.996 287.513 397.756 285.74 405.874 285.808C413.379 285.876 420.815 286.558 428.183 287.855C433.095 288.673 438.144 289.833 442.51 292.153C446.74 294.336 449.742 297.542 453.972 299.794C454.381 299.998 454.791 300.203 455.268 300.135C457.588 299.794 457.656 291.198 457.451 284.784Z" fill="#145566"/>
<path d="M412.08 180.538C413.513 181.221 416.856 181.494 420.335 180.129C421.018 179.856 421.495 179.174 421.495 178.424C421.495 176.309 421.291 174.194 420.949 172.079C423.542 171.124 426.612 169.759 427.021 167.03C427.158 166.143 427.021 165.256 426.885 164.438C426.271 160.89 425.657 157.342 425.043 153.795C424.838 152.567 424.633 151.271 423.951 150.247C422.791 148.405 420.472 147.586 418.357 147.245C412.831 146.29 406.827 147.518 402.597 151.134C401.437 152.089 400.414 153.249 399.937 154.682C399.186 156.865 399.732 159.253 400.346 161.436C400.892 163.483 401.437 165.529 401.983 167.576C402.597 169.896 403.484 172.625 405.804 173.511C407.032 173.989 408.465 173.853 409.556 174.535C411.33 175.626 411.057 178.492 412.08 180.538Z" fill="#EAC1A4"/>
<path d="M380.221 145.13C379.675 144.243 379.061 143.357 378.447 142.606C377.014 140.901 375.308 139.4 374.149 137.421C372.989 135.511 372.58 132.85 373.944 131.076C374.831 129.917 376.264 129.371 377.628 128.961C382.199 127.597 387.111 127.529 391.75 128.689C396.185 129.78 400.074 131.622 404.508 129.985C408.67 128.416 411.672 129.03 416.038 130.599C420.745 132.236 427.09 132.645 431.32 135.033C433.094 135.988 434.527 137.558 435.618 139.263C439.439 145.199 439.507 153.317 435.686 159.321C434.868 160.685 433.844 161.845 432.753 163.073C430.57 165.461 427.909 168.463 424.839 169.35C424.771 166.621 427.227 158.025 425.112 155.773C421.769 152.226 414.264 153.454 410.103 154.341C405.6 155.296 401.575 158.502 397.14 159.184C393.934 159.662 389.84 158.093 387.111 156.456C383.768 154.341 382.199 148.337 380.221 145.13Z" fill="#1A3151"/>
<path d="M322.028 193.911L313.363 188.317L315.546 184.496L322.369 187.02L322.573 184.701L329.464 190.363L327.69 194.661L322.028 193.911Z" fill="#AA6755"/>
<path d="M403.42 177.947L358.119 196.64L329.465 190.363L326.668 195.89L352.798 215.06L388.82 210.694L403.42 177.947Z" fill="#145566"/>
<path d="M466.527 107.608L465.776 96.2148L460.932 96.3513L459.704 104.265L457.385 103.242L459.227 112.861L464.275 113.407L466.527 107.608Z" fill="#EAC1A4"/>
<path d="M422.998 184.155L447.831 151.135L459.225 112.862L465.979 113.066L466.047 157.343L442.578 204.145L422.998 184.155Z" fill="#145566"/>
<path d="M277.545 424.711L277.34 429.487L286.618 434.672L291.599 430.169L287.096 425.189L277.817 420.004L277.545 424.711Z" fill="#DBDBDB"/>
<path d="M269.766 280.691L269.016 295.086L285.185 358.534L277.134 423.21L286.481 425.53L312.201 347.823L312.611 324.491L306.129 276.461L269.766 280.691Z" fill="#145566"/>
<path d="M340.65 279.191L347.95 339.433L345.085 418.435L336.352 419.391L322.98 348.233L303.195 277.758L340.65 279.191Z" fill="#145566"/>
<path d="M336.761 423.074L346.721 426.759L350.951 421.505L345.698 417.344L336.283 418.367L336.761 423.074Z" fill="#DBDBDB"/>
<path d="M344.132 269.162C335.126 250.878 331.442 230.752 326.735 210.967C325.302 205.168 323.87 199.165 320.595 194.116C316.843 188.317 311.726 185.725 305.995 184.77C298.763 183.541 290.576 184.838 283.345 185.452C278.978 199.165 276.113 191.387 270.928 204.895C269.836 207.693 266.903 231.844 265.743 234.641C265.743 234.641 253.94 271.823 257.829 301.159C257.897 301.432 257.897 301.705 257.966 302.046C258.716 302.182 259.466 302.319 260.149 302.455C270.382 304.502 280.82 305.594 291.259 305.457C300.537 305.321 309.815 304.161 318.821 301.909C331.169 298.839 345.769 300.067 355.866 291.881C352.865 285.945 347.134 275.166 344.132 269.162Z" fill="white"/>
<path d="M349.249 131.624L348.908 121.322H344.474L343.177 128.418L341.062 127.462L342.495 136.263L347.066 136.877L349.249 131.624Z" fill="#AA6755"/>
<path d="M307.018 184.088L333.352 164.099L342.494 136.263L348.634 136.604L351.909 168.874L323.801 208.922L307.018 184.088Z" fill="white"/>
<path d="M277.545 161.779C281.229 150.113 298.08 145.883 302.242 159.255C303.47 163.28 304.22 167.578 303.47 171.74C302.719 175.901 300.263 179.927 296.374 181.632H296.306C296.442 182.724 296.647 183.747 296.784 184.839C296.852 185.043 296.852 185.316 296.715 185.521C296.579 185.726 296.306 185.794 296.033 185.862C294.737 186.067 293.441 186.271 292.213 186.476C291.599 186.612 290.916 186.681 290.302 186.476C288.938 186.067 288.392 184.498 288.324 183.065C288.324 182.724 288.324 182.383 288.324 182.041C280.683 179.585 275.157 169.352 277.545 161.779Z" fill="#AA6755"/>
<path d="M300.809 142.608C303.947 142.472 306.267 145.678 308.996 147.52C311.247 149.021 313.908 149.635 316.227 151C318.547 152.296 320.798 154.82 320.594 157.617C323.186 156.526 326.052 155.502 328.78 156.253C331.509 157.072 333.761 160.619 332.396 163.28C331.168 165.668 327.894 165.941 326.597 168.26C324.551 171.944 328.576 178.289 325.165 180.541C324.346 181.086 323.323 181.155 322.504 181.7C321.549 182.383 321.071 183.679 320.594 184.839C318.206 190.092 312.475 193.094 307.154 191.866C303.947 189.955 301.627 186.476 300.741 182.655C299.717 178.084 302.241 176.72 303.06 172.558C303.947 167.987 302.924 163.007 300.399 159.187C298.762 156.662 296.238 154.411 293.441 153.933C292.281 153.729 292.554 154.684 291.326 153.729C290.78 153.319 290.166 151.75 290.098 151.068C293.509 148.817 296.715 142.813 300.809 142.608Z" fill="#1A3151"/>
<path d="M267.584 145.2C265.946 145.473 264.241 145.268 262.672 145.814C260.284 146.565 260.216 148.953 259.397 150.999C258.442 153.182 257.146 156.184 255.44 157.822C254.212 158.981 252.643 159.595 251.278 160.414C249.846 161.301 248.549 162.597 248.413 164.371C248.276 166.077 249.3 167.646 249.3 169.351C249.232 171.876 248.686 173.104 249.232 175.764C249.505 177.129 249.846 178.562 250.733 179.585C251.892 180.881 253.803 181.018 255.44 180.949C257.077 180.813 258.851 180.54 260.352 181.222C263.763 182.723 262.74 186.203 263.422 189.273C264.377 193.912 269.358 197.05 273.519 195.822C277.067 194.799 279.386 191.047 279.591 187.158C279.728 185.179 279.114 183.337 279.25 181.359C279.386 179.449 280.683 176.992 279.114 175.355C278.704 174.946 278.227 174.741 277.886 174.264C277.613 173.922 277.476 173.445 277.408 172.967C277.203 171.398 277.681 169.693 278.704 168.601C279.455 167.782 280.41 167.305 280.956 166.281C281.501 165.122 281.297 163.757 281.365 162.393C281.501 159.254 283.48 156.321 286.209 155.297C287.983 154.683 289.62 154.342 291.257 153.251C291.53 153.114 295.214 150.385 295.283 151.067C295.214 149.908 294.669 148.816 294.055 147.861C293.099 146.224 292.008 144.654 290.507 143.631C285.731 140.22 284.844 146.974 280.887 145.746C279.932 145.405 279.25 144.45 278.431 143.836C276.862 142.676 274.747 142.812 272.973 143.426C271.063 143.904 269.426 144.859 267.584 145.2Z" fill="#1A3151"/>
<path d="M229.107 353.147L330.078 392.102L440.669 355.193L346.793 318.898L229.107 353.147Z" fill="#1A6F82"/>
<path d="M410.449 359.169C410.492 335.997 391.742 317.177 368.57 317.133C345.397 317.09 326.577 335.84 326.534 359.012C326.49 382.185 345.24 401.005 368.413 401.048C391.585 401.092 410.405 382.342 410.449 359.169Z" fill="white"/>
<mask id="mask0_653_4987" style="mask-type:luminance" maskUnits="userSpaceOnUse" x="326" y="317" width="85" height="85">
<path d="M410.451 359.169C410.494 335.997 391.744 317.177 368.572 317.133C345.399 317.09 326.579 335.84 326.536 359.012C326.492 382.185 345.242 401.005 368.414 401.048C391.587 401.092 410.407 382.342 410.451 359.169Z" fill="white"/>
</mask>
<g mask="url(#mask0_653_4987)">
<path d="M395.709 333.907L396.664 333.156C396.459 332.884 391.684 326.607 382.269 322.991L381.859 324.151C391.001 327.63 395.709 333.839 395.709 333.907Z" fill="#5C5955"/>
<path d="M340.994 333.77C341.062 333.702 345.77 327.494 354.844 324.014L354.434 322.854C345.019 326.47 340.244 332.747 340.039 332.952L340.994 333.77Z" fill="#5C5955"/>
<path d="M399.188 381.527C402.053 378.457 404.305 373.613 405.942 367.064C407.102 362.22 407.511 358.195 407.511 358.195L406.283 358.058C406.283 358.195 404.85 373.75 398.369 380.708L399.188 381.527Z" fill="#5C5955"/>
<path d="M337.515 381.391L338.402 380.572C331.921 373.613 330.556 358.058 330.556 357.922L329.328 357.99C329.328 358.058 329.669 362.015 330.829 366.928C332.466 373.477 334.718 378.321 337.515 381.391Z" fill="#5C5955"/>
<path d="M367.603 397.696C373.061 397.696 377.359 396.672 377.632 396.604L377.359 395.444C377.291 395.444 367.535 397.764 358.939 395.444L358.598 396.604C361.668 397.355 364.806 397.696 367.603 397.696Z" fill="#5C5955"/>
</g>
<mask id="mask1_653_4987" style="mask-type:luminance" maskUnits="userSpaceOnUse" x="326" y="317" width="85" height="85">
<path d="M410.451 359.169C410.494 335.997 391.744 317.177 368.572 317.133C345.399 317.09 326.579 335.84 326.536 359.012C326.492 382.185 345.242 401.005 368.414 401.048C391.587 401.092 410.407 382.342 410.451 359.169Z" fill="white"/>
</mask>
<g mask="url(#mask1_653_4987)">
<path d="M368.487 343.389L382.746 353.759L377.22 370.542H359.618L354.16 353.759L368.487 343.389Z" fill="#1A3151"/>
</g>
<mask id="mask2_653_4987" style="mask-type:luminance" maskUnits="userSpaceOnUse" x="326" y="317" width="85" height="85">
<path d="M410.451 359.169C410.494 335.997 391.744 317.177 368.572 317.133C345.399 317.09 326.579 335.84 326.536 359.012C326.492 382.185 345.242 401.005 368.414 401.048C391.587 401.092 410.407 382.342 410.451 359.169Z" fill="white"/>
</mask>
<g mask="url(#mask2_653_4987)">
<path d="M368.487 334.316L354.229 323.946L359.755 307.163L377.356 307.231L382.746 324.014L368.487 334.316Z" fill="#1A3151"/>
</g>
<mask id="mask3_653_4987" style="mask-type:luminance" maskUnits="userSpaceOnUse" x="326" y="317" width="85" height="85">
<path d="M410.451 359.169C410.494 335.997 391.744 317.177 368.572 317.133C345.399 317.09 326.579 335.84 326.536 359.012C326.492 382.185 345.242 401.005 368.414 401.048C391.587 401.092 410.407 382.342 410.451 359.169Z" fill="white"/>
</mask>
<g mask="url(#mask3_653_4987)">
<path d="M381.791 379.616L399.393 379.889L404.646 396.74L390.183 406.906L376.061 396.331L381.791 379.616Z" fill="#1A3151"/>
<path d="M375.726 366.145L374.627 366.692L383.048 383.609L384.147 383.062L375.726 366.145Z" fill="#1A3151"/>
</g>
<mask id="mask4_653_4987" style="mask-type:luminance" maskUnits="userSpaceOnUse" x="326" y="317" width="85" height="85">
<path d="M410.451 359.169C410.494 335.997 391.744 317.177 368.572 317.133C345.399 317.09 326.579 335.84 326.536 359.012C326.492 382.185 345.242 401.005 368.414 401.048C391.587 401.092 410.407 382.342 410.451 359.169Z" fill="white"/>
</mask>
<g mask="url(#mask4_653_4987)">
<path d="M391.545 350.211L395.57 333.019L413.172 331.586L419.994 347.824L406.622 359.353L391.545 350.211Z" fill="#1A3151"/>
<path d="M396.069 347.533L378.732 355.055L379.221 356.181L396.558 348.66L396.069 347.533Z" fill="#1A3151"/>
</g>
<mask id="mask5_653_4987" style="mask-type:luminance" maskUnits="userSpaceOnUse" x="326" y="317" width="85" height="85">
<path d="M410.451 359.169C410.494 335.997 391.744 317.177 368.572 317.133C345.399 317.09 326.579 335.84 326.536 359.012C326.492 382.185 345.242 401.005 368.414 401.048C391.587 401.092 410.407 382.342 410.451 359.169Z" fill="white"/>
</mask>
<g mask="url(#mask5_653_4987)">
<path d="M354.978 379.82L337.308 379.956L332.055 396.808L346.382 407.041L360.572 396.535L354.978 379.82Z" fill="#1A3151"/>
<path d="M361.057 366.334L352.574 383.222L353.672 383.773L362.155 366.886L361.057 366.334Z" fill="#1A3151"/>
</g>
<mask id="mask6_653_4987" style="mask-type:luminance" maskUnits="userSpaceOnUse" x="326" y="317" width="85" height="85">
<path d="M410.451 359.169C410.494 335.997 391.744 317.177 368.572 317.133C345.399 317.09 326.579 335.84 326.536 359.012C326.492 382.185 345.242 401.005 368.414 401.048C391.587 401.092 410.407 382.342 410.451 359.169Z" fill="white"/>
</mask>
<g mask="url(#mask6_653_4987)">
<path d="M345.156 350.212L340.926 333.087L323.325 331.859L316.639 348.165L330.147 359.558L345.156 350.212Z" fill="#1A3151"/>
<path d="M340.603 347.609L340.127 348.741L357.545 356.071L358.022 354.939L340.603 347.609Z" fill="#1A3151"/>
</g>
<mask id="mask7_653_4987" style="mask-type:luminance" maskUnits="userSpaceOnUse" x="326" y="317" width="85" height="85">
<path d="M410.451 359.169C410.494 335.997 391.744 317.177 368.572 317.133C345.399 317.09 326.579 335.84 326.536 359.012C326.492 382.185 345.242 401.005 368.414 401.048C391.587 401.092 410.407 382.342 410.451 359.169Z" fill="white"/>
</mask>
<g mask="url(#mask7_653_4987)">
<path d="M367.904 325.505L367.867 345.426L369.095 345.428L369.132 325.507L367.904 325.505Z" fill="#1A3151"/>
</g>
<path d="M329.873 475.744L228.971 424.644L229.107 353.078L330.01 392.033L329.873 475.744Z" fill="#1A6F82"/>
<path d="M329.873 475.743L440.532 427.1L440.668 355.192L330.009 392.033L329.873 475.743Z" fill="#145566"/>
<path d="M321.208 335.204C316.227 336.773 313.498 342.095 315.136 347.075C316.705 352.055 322.026 354.784 327.007 353.147L340.037 348.985C345.018 347.416 347.747 342.095 346.109 337.114C344.54 332.134 339.219 329.405 334.238 331.042L321.208 335.204Z" fill="#3ABABA"/>
<path d="M334.987 365.631C329.393 362.765 322.502 364.948 319.637 370.543C316.772 376.137 318.955 383.028 324.549 385.893L339.285 393.466C344.88 396.331 351.77 394.148 354.636 388.554C357.501 382.959 355.318 376.069 349.724 373.203L334.987 365.631Z" fill="#3ABABA"/>
<path d="M286.823 381.05C289.688 375.456 296.579 373.273 302.173 376.138C307.768 379.003 309.951 385.894 307.085 391.488L299.513 406.225C296.647 411.819 289.757 414.002 284.162 411.137C278.568 408.271 276.385 401.381 279.25 395.786L286.823 381.05Z" fill="#B5D6CA"/>
<path d="M266.563 352.737C261.583 354.306 258.854 359.627 260.491 364.608C262.06 369.588 267.382 372.317 272.362 370.68L285.393 366.518C290.373 364.949 293.102 359.627 291.465 354.647C289.895 349.667 284.574 346.938 279.594 348.575L266.563 352.737Z" fill="#3ABABA"/>
<path d="M285.12 378.662C289.555 392.443 304.291 400.016 318.004 395.649C331.785 391.215 339.358 376.479 334.991 362.766L332.058 353.624C327.623 339.843 312.887 332.27 299.174 336.636C285.393 341.071 277.82 355.807 282.186 369.52L285.12 378.662Z" fill="#3ABABA"/>
<path d="M303.158 349.088C318.016 344.335 326.208 328.437 321.455 313.579C316.702 298.721 300.804 290.53 285.946 295.283C271.088 300.036 262.896 315.934 267.649 330.792C272.402 345.65 288.3 353.842 303.158 349.088Z" fill="#3ABABA"/>
<path d="M295.078 323.811C304.697 320.741 314.795 323.06 321.958 329.2C319.638 338.342 312.816 346.12 303.197 349.19C293.577 352.26 283.48 349.94 276.316 343.8C278.636 334.658 285.458 326.881 295.078 323.811Z" fill="#F4F1EF"/>
<path d="M315.774 311.663C322.736 309.436 326.575 301.986 324.348 295.023C322.121 288.061 314.671 284.222 307.708 286.45C300.746 288.677 296.907 296.127 299.134 303.089C301.362 310.052 308.811 313.89 315.774 311.663Z" fill="#3ABABA"/>
<path d="M271.172 325.99C278.135 323.763 281.973 316.313 279.746 309.351C277.519 302.388 270.069 298.55 263.107 300.777C256.144 303.004 252.306 310.454 254.533 317.416C256.76 324.379 264.21 328.218 271.172 325.99Z" fill="#3ABABA"/>
<path d="M307.165 316.645C308.672 316.162 309.503 314.55 309.021 313.042C308.539 311.535 306.926 310.704 305.419 311.186C303.911 311.668 303.08 313.281 303.563 314.788C304.045 316.296 305.658 317.127 307.165 316.645Z" fill="#1A3151"/>
<path d="M281.1 324.988C282.608 324.505 283.439 322.893 282.957 321.385C282.474 319.878 280.862 319.047 279.354 319.529C277.847 320.011 277.016 321.624 277.498 323.131C277.98 324.639 279.593 325.47 281.1 324.988Z" fill="#1A3151"/>
<path d="M289.961 335.682C290.371 334.863 291.394 334.59 292.145 334.999C293.782 335.818 295.488 336.091 297.193 335.886L295.146 329.405C291.531 328.245 290.848 325.653 290.848 325.653C290.439 324.357 291.121 322.787 292.418 322.378L296.443 321.082C297.739 320.672 299.172 321.491 299.581 322.856C299.649 323.129 300.4 325.516 298.285 328.382L300.4 334.863C301.901 334.044 303.129 332.816 304.016 331.179C304.425 330.36 305.448 330.087 306.199 330.497C307.017 330.906 307.29 331.929 306.881 332.68C305.38 335.613 302.788 337.66 299.854 338.615C296.92 339.57 293.646 339.366 290.712 337.865C289.825 337.455 289.552 336.5 289.961 335.682Z" fill="#1A3151"/>
<path d="M314.524 293.314C317.867 295.429 318.822 299.795 316.707 303.07L304.768 295.566C306.883 292.223 311.249 291.267 314.524 293.314Z" fill="white"/>
<path d="M261.512 310.302C263.013 306.686 267.106 304.912 270.79 306.413L265.401 319.512C261.785 318.079 260.079 313.917 261.512 310.302Z" fill="white"/>
<path d="M330.01 392.033L349.658 425.804L457.042 383.437L440.532 355.192L330.01 392.033Z" fill="#1A6F82"/>
<path d="M210.959 375.591L306.813 421.097L330.009 392.033L229.038 353.078L210.959 375.591Z" fill="#145566"/>
<path d="M557.466 139.741L551.326 133.396L553.714 122.48L559.718 122.617L561.287 132.168L564.289 134.078L564.22 138.718L557.466 139.741Z" fill="#EAC1A4"/>
<path d="M602.085 196.163C605.087 196.026 608.157 195.89 611.159 195.753C611.296 193.366 611.296 190.91 611.023 188.522C611.023 188.795 615.867 186.27 616.276 185.656C617.504 184.019 617.64 181.222 618.118 179.243C619.21 175.013 620.233 170.306 617.982 166.554C615.662 162.665 610.682 161.369 606.179 161.232C600.516 161.096 594.172 162.733 591.306 167.645C588.714 172.012 591.988 178.493 592.943 183.132C593.421 185.452 594.103 188.044 596.286 188.999C597.446 189.477 598.811 189.477 599.766 190.159C601.676 191.387 601.267 194.116 602.085 196.163Z" fill="#EAC1A4"/>
<path d="M582.435 159.254C582.094 156.115 581.753 152.977 581.412 149.839C581.275 148.679 581.139 147.451 581.548 146.359C582.162 144.517 584.004 143.358 585.915 142.88C587.757 142.402 589.735 142.334 591.645 141.925C593.692 141.447 595.671 140.56 597.717 140.629C601.674 140.765 604.676 144.449 608.565 145.063C613.955 145.882 618.935 143.426 622.21 149.771C622.824 150.93 622.96 152.295 623.506 153.455C624.188 155.024 625.416 156.252 626.439 157.616C630.738 163.688 629.373 172.967 624.188 178.152C621.664 180.676 620.64 182.927 617.229 183.746C618.798 180.539 616.683 167.713 612.385 166.281C611.226 165.871 607.814 167.304 606.518 167.509C603.721 167.918 600.992 168.396 598.331 169.487C594.374 171.125 590.144 172.284 585.915 172.625C585.369 172.694 584.755 172.694 584.345 172.353C583.936 172.011 583.868 171.466 583.8 170.92C583.322 167.031 582.913 163.142 582.435 159.254Z" fill="#1A3151"/>
<path d="M650.523 426.896L651.751 432.013L642.745 439.517L636.469 435.697L640.358 429.352L649.295 421.779L650.523 426.896Z" fill="#1A3151"/>
<path d="M629.578 269.162L633.33 284.649L628.759 356.693L650.659 425.121L641.04 429.556L597.308 350.621L592.055 325.378L589.326 271.959L629.578 269.162Z" fill="#145566"/>
<path d="M569.198 275.371L568.584 342.299L581.342 428.602H591.03L597.033 348.916L610.132 269.299L569.198 275.371Z" fill="#145566"/>
<path d="M590.963 427.441L591.031 432.694L580.525 437.947L575.271 432.694L580.525 427.441H590.963Z" fill="#1A3151"/>
<path d="M641.176 288.061C641.312 294.133 641.176 302.388 638.788 302.729C638.379 302.797 637.901 302.592 637.56 302.388C633.467 300.205 630.601 297.066 626.644 294.951C622.483 292.7 617.639 291.54 612.931 290.721C605.904 289.425 598.741 288.675 591.577 288.538C585.915 288.47 580.321 288.948 574.658 289.425C570.019 289.835 565.652 291.199 560.877 290.926C556.033 290.585 551.189 289.084 547.027 286.56C546.891 286.492 546.686 286.355 546.618 286.219C546.55 286.014 546.618 285.809 546.686 285.673C547.71 282.944 548.392 280.215 550.166 277.964C552.212 275.439 553.577 272.233 555.078 269.367C558.08 263.364 560.945 257.087 563.06 250.742C566.266 242.078 569.882 233.618 573.021 224.954C575.136 218.95 577.114 212.81 580.048 207.079C582.299 202.577 586.392 196.095 591.305 194.117C592.942 193.435 594.784 193.366 596.558 193.298C602.016 193.162 607.405 192.957 612.863 192.821C614.842 192.752 616.888 192.684 618.73 193.503C621.459 194.731 622.96 197.528 624.325 200.189C630.328 212.06 634.149 224.817 636.332 238.053C637.492 244.943 638.515 251.834 639.334 258.793C640.221 266.502 640.903 274.28 641.04 282.057C640.971 282.739 641.108 285.195 641.176 288.061Z" fill="#3ABABA"/>
<path d="M577.659 215.333L546.617 190.09L554.326 136.671L566.197 136.603L564.492 182.926L591.918 196.23L577.659 215.333Z" fill="#3ABABA"/>
<path d="M590.355 253.278L580.629 251.131L547.373 401.827L557.099 403.973L590.355 253.278Z" fill="#1A3151"/>
<path d="M534.337 359.694L528.06 388.212C522.125 415.228 545.799 432.08 545.799 432.08C545.799 432.08 574.384 426.758 580.388 399.742L586.664 371.224L534.337 359.694Z" fill="#DBDBDB"/>
<path d="M583.663 260.566L582.299 259.61C581.48 258.996 562.173 245.011 567.221 222.087L568.108 218.199L615.66 228.705L614.773 232.594C609.725 255.517 586.324 260.088 585.301 260.293L583.663 260.566ZM574.453 227.75C573.635 240.235 582.162 249.036 585.574 251.969C589.94 250.741 601.333 246.443 605.836 234.709L574.453 227.75Z" fill="#DBDBDB"/>
<path d="M590.396 253.284L580.67 251.138L576.259 271.124L585.986 273.27L590.396 253.284Z" fill="#DBDBDB"/>
<path d="M604.066 248.626L599.632 250.4L595.811 248.626L594.993 249.308L595.743 250.263L592.127 249.786L589.671 251.286L589.33 255.175L591.65 258.586L595.538 258.45L599.495 255.994L605.636 253.811L604.066 248.626Z" fill="#EAC1A4"/>
<path d="M598.949 247.466L623.714 231.707L618.666 193.297L644.864 213.764L640.839 247.739L602.292 256.131L598.949 247.466Z" fill="#3ABABA"/>
</g>
<defs>
<clipPath id="clip0_653_4987">
<rect width="737.263" height="498" fill="white"/>
</clipPath>
</defs>
</svg>
