<svg width="738" height="498" viewBox="0 0 738 498" fill="none" xmlns="http://www.w3.org/2000/svg">
<g clip-path="url(#clip0_691_5021)">
<path d="M706.06 497.987C690.858 497.987 607.034 498.016 501.932 497.987C474.808 497.987 446.229 497.987 417.08 497.959C411.946 497.959 406.784 497.959 401.621 497.959C380.744 497.959 359.638 497.93 338.589 497.93C332.913 497.93 327.266 497.93 321.618 497.93C287.421 497.902 253.595 497.873 221.394 497.845C95.9846 497.702 59.0777 496.675 59.0777 496.618C58.821 496.019 -56.2063 437.395 35.4334 314.725C81.5242 252.963 29.016 185.809 68.3187 126.928C123.907 43.5985 215.946 92.4664 279.093 66.0497C290.245 61.3997 301.454 53.897 312.663 42.3718C318.966 35.896 325.897 30.2475 333.284 25.3407C334.425 24.599 335.566 23.8573 336.735 23.1441C341.156 20.4055 345.748 17.9521 350.482 15.7269C353.648 14.2435 356.9 12.8456 360.208 11.5904C365.456 9.59347 370.818 7.85328 376.323 6.36984C384.109 4.28732 392.152 2.7183 400.338 1.6913C403.903 1.23486 407.497 0.864001 411.148 0.607252C481.71 -4.67037 561.085 24.9984 602.071 68.3605C610.314 77.09 647.819 122.278 618.271 184.354C599.589 223.551 677.824 261.008 705.604 305.768C776.252 419.593 706.688 496.504 706.06 497.987Z" fill="#D9E3F6"/>
<path d="M360.509 41.0219C470.554 6.56896 524.724 32.6304 524.724 32.6304L528.817 112.588C528.817 112.588 474.716 86.527 364.603 120.98C254.49 155.433 205.437 129.099 205.437 129.099L201.344 49.1405C201.344 49.1405 250.397 75.4066 360.509 41.0219Z" fill="white"/>
<path d="M263.153 120.299L251.555 87.1418L255.785 86.9372L261.379 103.243C262.948 107.745 264.244 111.771 265.268 115.659H265.336C266.018 111.702 267.041 107.404 268.133 102.97L272.363 86.0503L276.525 85.8456L267.451 120.094L263.153 120.299Z" fill="#1A3151"/>
<path d="M306.677 97.8526C308.451 109.314 303.129 116.341 295.488 117.569C287.574 118.797 280.957 112.862 279.388 102.765C277.75 92.19 282.594 84.3443 290.576 83.1163C298.763 81.8201 305.176 88.0284 306.677 97.8526ZM283.481 102.014C284.573 109.11 289.007 114.977 295.147 114.022C301.287 113.066 303.812 106.244 302.584 98.6713C301.56 92.0536 297.399 85.6406 290.917 86.5957C284.573 87.6191 282.389 94.7143 283.481 102.014Z" fill="#1A3151"/>
<path d="M308.18 80.5241L312 79.6372L318.823 108.905L331.444 105.972L332.263 109.519L315.821 113.34L308.18 80.5241Z" fill="#1A3151"/>
<path d="M330.352 75.1347L335.946 94.3055C338.061 101.537 341.882 103.789 345.771 102.629C350.069 101.333 351.911 97.3756 349.864 90.2121L344.27 71.0413L348.09 69.9497L353.616 88.7794C356.55 98.7401 353.002 104.198 346.726 106.04C340.79 107.814 335.196 105.29 332.262 95.2607L326.668 76.2263L330.352 75.1347Z" fill="#1A3151"/>
<path d="M363.848 100.104L355.184 67.5616L359.345 66.47L373.126 80.4558C376.333 83.6623 378.925 86.6642 381.177 89.666L381.245 89.5978C379.744 85.3679 378.584 81.411 377.22 76.2942L373.604 62.6495L377.152 61.6943L385.816 94.237L381.995 95.2603L368.283 81.2063C365.281 78.1362 362.347 74.9297 359.891 71.7914L359.755 71.8597C361.051 75.8849 362.211 79.7736 363.643 85.2315L367.327 99.1491L363.848 100.104Z" fill="#1A3151"/>
<path d="M391.824 62.377L382.75 64.2191L382 60.6032L404.036 56.1687L404.787 59.7845L395.713 61.6266L401.58 91.0309L397.691 91.7814L391.824 62.377Z" fill="#1A3151"/>
<path d="M426.956 70.9724L415.29 72.6097L416.927 84.6171L429.958 82.8433L430.436 86.4591L413.516 88.7787L408.945 55.4174L425.183 53.166L425.66 56.7819L413.312 58.4875L414.744 69.0621L426.411 67.4248L426.956 70.9724Z" fill="#1A3151"/>
<path d="M449.541 69.1988L437.806 70.0175L438.625 82.1613L451.724 81.2744L451.997 84.8902L435.009 86.05L432.758 52.4158L449.131 51.3242L449.404 54.9401L436.988 55.7588L437.67 66.4016L449.404 65.5829L449.541 69.1988Z" fill="#1A3151"/>
<path d="M456.907 51.5289C458.885 51.1196 461.751 50.9149 464.412 50.9831C468.573 51.0514 471.302 51.9383 473.144 53.9168C474.645 55.4177 475.464 57.7373 475.396 60.3298C475.327 64.7643 472.735 67.6979 469.528 68.8577V68.9942C471.848 69.9493 473.212 72.3371 473.826 75.8848C474.713 80.5922 475.396 83.8669 476.01 85.1632L471.984 85.095C471.507 84.1398 470.893 81.2062 470.074 76.9763C469.255 72.3371 467.686 70.5633 464.139 70.2904L460.455 70.2222L460.182 84.8221L456.293 84.7538L456.907 51.5289ZM460.591 66.9475L464.616 67.0157C468.778 67.0839 471.507 64.5596 471.575 60.7391C471.643 56.3728 468.846 54.4625 464.684 54.3261C462.774 54.3261 461.41 54.4625 460.796 54.6672L460.591 66.9475Z" fill="#1A3151"/>
<path d="M168.39 31.4022C156.792 34.3359 144.648 45.2516 144.58 56.0992C137.894 47.6395 118.519 47.6395 107.535 52.4833C78.5396 65.1729 79.9041 101.877 100.235 119.888C111.151 129.576 124.591 136.74 138.508 142.539C150.174 147.382 178.965 156.251 179.033 156.183C179.101 156.183 196.362 131.486 202.57 120.57C210.007 107.472 216.147 93.5539 218.807 79.227C223.719 52.3469 199.023 23.5565 168.39 31.4022Z" fill="#EAC5B0"/>
<path d="M499.001 186.407C499.001 186.407 464.685 203.19 454.315 196.914C453.018 196.095 422.386 184.02 422.386 184.02L416.109 191.047L451.245 215.061L462.911 217.04L492.452 208.58L499.001 186.407Z" fill="#9EA6AD"/>
<path d="M521.786 189.409C521.786 189.409 541.639 222.088 553.715 222.361C555.215 222.429 587.554 228.705 587.554 228.705L589.054 238.052L546.483 239.28L535.567 234.641L515.305 211.581L521.786 189.409Z" fill="#9EA6AD"/>
<path d="M517.425 186.953C517.561 187.021 517.698 187.09 517.834 187.09C524.793 189.75 530.251 201.894 533.389 209.058C541.508 227.478 545.055 246.649 545.738 266.98C546.079 277.964 546.01 288.879 545.669 299.863C545.601 302.865 543.009 330.018 544.373 330.632C530.592 324.014 516.606 317.738 501.938 313.986C487.27 310.233 471.851 309.005 457.047 312.485C461.481 278.032 467.963 243.033 477.309 209.74C478.401 205.783 479.151 201.553 480.857 197.733C482.767 193.366 485.633 192.07 489.317 189.546C490.545 188.659 491.841 187.772 493.205 187.158C500.369 184.02 510.125 184.292 517.425 186.953Z" fill="#9EA6AD"/>
<path d="M538.846 295.224L523.154 359.354L522.881 406.564L515.24 408.202L512.17 364.334L504.461 283.898L538.846 295.224Z" fill="#DEC9AD"/>
<path d="M515.175 409.567L513.879 414.343L515.039 423.758H521.247L523.498 410.181L522.816 407.862L515.175 409.567Z" fill="#1A3151"/>
<path d="M478.538 288.265L477.242 343.663L484.815 421.779L492.388 422.325L494.98 350.69L510.262 285.673L478.538 288.265Z" fill="#DEC9AD"/>
<path d="M485.021 420.482L474.855 425.94L475.674 430.716L493.685 428.465L492.798 421.574L485.021 420.482Z" fill="#1A3151"/>
<path d="M476.353 295.429L471.305 359.423L476.626 403.222L497.093 402.062L500.709 352.191L509.442 297.817L508.077 289.357L478.536 289.835L476.353 295.429Z" fill="#A0A1A3"/>
<path d="M507.53 354.648L509.986 400.563L527.792 399.607L527.383 356.081L538.504 301.434L535.911 286.152L505.961 288.13L507.53 354.648Z" fill="#A0A1A3"/>
<path d="M465.852 296.589C484.204 299.386 514.7 301.433 533.052 304.23C534.007 271.073 530.664 232.8 522.614 200.735C521.181 194.936 518.998 188.659 513.881 185.657C508.423 182.519 496.893 182.928 493.55 189.137C488.706 198.142 487.751 212.538 485.636 222.566C480.724 245.285 468.853 273.529 465.852 296.589Z" fill="white"/>
<path d="M494.298 159.938C499.142 147.044 515.447 152.229 518.312 163.827C520.223 171.468 514.083 181.292 506.373 183.203C506.51 185.113 506.578 187.023 506.578 188.933C504.531 188.729 502.416 188.524 500.37 188.319C499.756 188.251 499.005 188.115 498.664 187.569C498.459 187.228 498.528 186.818 498.596 186.409C498.732 185.113 498.869 183.817 499.073 182.52C498.937 182.452 498.8 182.384 498.664 182.316C494.98 180.337 492.797 176.312 492.319 172.15C491.842 167.989 492.797 163.827 494.298 159.938Z" fill="#EAC1A4"/>
<path d="M495.392 163.896C492.663 167.58 493.141 172.628 493.687 176.995C494.096 180.883 493.96 183.271 489.661 182.862C487.274 182.657 482.976 182.248 481.611 179.928C480.588 178.154 482.703 174.47 483.931 173.106C484.886 172.082 486.523 171.946 487.478 170.923C487.888 170.513 488.092 169.968 488.297 169.422C489.047 167.17 489.525 164.851 489.593 162.531C489.661 160.962 489.525 159.325 489.934 157.756C490.48 155.504 492.868 153.457 494.369 151.752C497.098 148.545 504.057 145.271 507.536 149.637C508.286 150.66 508.559 151.957 508.628 153.253C508.696 154.003 508.764 154.822 508.491 155.504C507.536 158.37 504.807 158.028 502.488 158.779C499.69 159.529 497.166 161.508 495.392 163.896Z" fill="#1A3151"/>
<path d="M515.993 171.468C515.447 173.583 513.673 175.493 514.219 177.54C514.492 178.495 515.174 179.178 515.652 179.996C517.084 182.179 517.153 185.181 515.993 187.501C520.155 188.729 524.248 189.889 528.41 191.117C529.024 191.321 529.706 191.458 530.32 191.321C531.684 191.048 532.23 189.479 532.639 188.115C533.39 185.454 534.072 182.657 533.117 180.064C532.708 178.905 531.889 177.813 531.48 176.653C529.433 170.923 535.573 164.168 532.503 158.915C531.139 156.596 528.341 155.504 526.295 153.73C522.747 150.66 521.451 145.407 517.63 142.541C510.535 137.152 499.483 144.315 501.871 153.116C503.781 160.28 518.108 163.077 515.993 171.468Z" fill="#1A3151"/>
<path d="M516.946 187.977C516.946 187.977 522.95 270.254 510.192 286.56C497.434 302.797 491.977 308.937 491.977 308.937L544.372 330.7C544.372 330.632 543.008 210.627 516.946 187.977Z" fill="#9EA6AD"/>
<path d="M283.757 185.451C283.757 185.451 252.783 207.829 241.527 203.394C240.094 202.848 207.892 196.094 207.892 196.094L202.844 204.076L241.527 221.746H253.397L281.028 208.443L283.757 185.451Z" fill="white"/>
<path d="M193.425 156.523C193.425 156.523 198.2 158.911 199.019 171.464C199.838 184.018 202.771 191.727 202.771 191.727C202.771 191.727 199.019 194.592 195.539 193.364C192.06 192.136 190.832 192 190.9 186.815C190.9 181.63 187.898 157.547 187.898 157.547L193.425 156.523Z" fill="#1A3151"/>
<path d="M184.352 162.937C189.264 163.142 193.835 166.621 195.404 171.26C197.382 168.327 197.86 164.438 196.632 161.095C195.404 157.752 192.47 155.159 189.059 154.272C186.535 156.456 184.966 159.594 184.693 162.937H184.352Z" fill="#1A3151"/>
<path d="M178.483 192.682L147.032 193.296L135.979 142.47L125.609 143.902V206.122L144.098 215.06L177.937 219.835L178.483 192.682Z" fill="#EBB044"/>
<path d="M164.358 418.366L163.812 422.869L171.795 428.6L176.639 424.779L172.954 419.662L164.904 413.931L164.358 418.366Z" fill="#1A3151"/>
<path d="M167.565 281.51L165.86 295.018L177.048 342.024L164.086 416.866L172.341 419.936L195.946 347.073L199.835 325.855L200.722 280.691L167.565 281.51Z" fill="#DBDBDB"/>
<path d="M231.217 298.019L211.023 423.483L203.041 423.278L203.382 342.638L190.078 285.671L231.217 298.019Z" fill="#DBDBDB"/>
<path d="M203.111 422.256L203.043 426.827L211.503 431.534L215.937 427.1L211.707 422.461L203.111 422.256Z" fill="#1A3151"/>
<path d="M162.724 284.103C169.615 243.783 168.114 214.242 168.591 206.191C169.069 198.073 174.732 194.048 174.732 194.048C177.188 193.57 179.303 192.001 181.827 191.387C198.542 187.498 207.342 200.665 213.21 214.788C220.51 232.253 226.581 250.196 231.357 268.548C235.587 284.648 239.817 300.886 241.386 317.464C242 324.355 242.546 330.836 235.178 333.701C223.443 338.272 210.344 337.863 197.996 339.159C183.805 340.592 169.615 341.615 155.356 341.888C147.92 342.093 155.834 324.491 162.724 284.103Z" fill="#EBB044"/>
<path d="M129.228 143.493L123.156 137.149L125.544 126.233L131.548 126.369L133.117 135.921L136.119 137.831L135.982 142.47L129.228 143.493Z" fill="#EAC1A4"/>
<path d="M189.879 190.771L205.775 193.909L237.635 226.111L275.5 225.497L277.342 237.231L232.996 244.054L197.042 219.902L189.879 190.771Z" fill="#EBB044"/>
<path d="M193.768 191.661L195.815 234.778L174.598 193.366L181.079 191.251L185.718 189.955L193.768 191.661Z" fill="white"/>
<path d="M275.836 228.431L282.931 224.27L291.8 226.657L291.664 231.501L276.723 233.957L275.836 228.431Z" fill="#EAC1A4"/>
<path d="M195.128 166.962C189.874 154.887 174.661 160.618 172.477 171.875C171.249 178.288 174.388 189.476 182.029 189.749C182.37 190.841 182.984 192.887 184.007 193.433C185.099 194.047 187.828 192.615 188.919 192.069C189.192 191.932 189.533 191.728 189.738 191.455C189.943 191.114 189.806 190.295 189.67 189.476C190.488 189.203 191.307 188.862 192.126 188.385C195.537 186.338 197.379 182.381 197.652 178.424C197.857 174.535 196.697 170.578 195.128 166.962Z" fill="#EAC1A4"/>
<path d="M188.79 154.272C188.79 154.272 191.86 160.753 183.537 164.642C175.213 168.531 171.12 176.65 174.258 183.472C177.397 190.362 185.038 194.183 182.036 196.844C179.034 199.504 166.071 200.46 166.071 200.46C166.071 200.46 152.768 176.718 160.545 163.414C168.255 150.111 182.991 146.426 188.79 154.272Z" fill="#1A3151"/>
<path d="M573.706 79.2261C573.706 79.2261 560.129 94.7811 554.398 137.762L565.655 139.672C565.655 139.672 568.248 101.74 579.368 81.8186L573.706 79.2261Z" fill="#145566"/>
<path d="M640.227 24.6479C640.227 24.6479 600.998 25.3302 583.806 40.544C566.614 55.7579 574.255 82.8427 574.255 82.8427C574.255 82.8427 600.248 93.8267 617.44 78.681C634.701 63.4672 640.227 24.6479 640.227 24.6479Z" fill="#C8D6A1"/>
<path d="M574.254 82.8426C574.254 82.8426 575.755 83.4566 578.279 84.2071L615.734 46.2065L573.367 78.681C573.845 81.2735 574.254 82.8426 574.254 82.8426Z" fill="#145566"/>
<path d="M513.738 40.3395C513.738 40.3395 514.489 75.3382 528.065 90.6203C541.71 105.971 565.861 99.0118 565.861 99.0118C565.861 99.0118 575.617 75.8158 561.972 60.4655C548.396 45.1152 513.738 40.3395 513.738 40.3395Z" fill="#C8D6A1"/>
<path d="M565.933 99.0118C565.933 99.0118 566.479 97.6474 567.161 95.4642L533.117 62.1711L562.249 99.8305C564.5 99.353 565.933 99.0118 565.933 99.0118Z" fill="#145566"/>
<path d="M574.254 82.8424C574.254 82.8424 616.757 82.2966 633.54 51.2549C633.54 51.2549 621.26 102.15 574.254 82.8424Z" fill="#B8C48A"/>
<path d="M451.453 419.799L452.136 425.257L441.97 432.079L435.898 427.372L440.606 421.232L450.703 414.409L451.453 419.799Z" fill="#132235"/>
<path d="M451.793 418.025L443.81 348.847L453.089 271.413L450.906 254.903L408.88 253.402L407.379 280.214L414.611 348.983L441.286 421.573L451.793 418.025Z" fill="#1A3151"/>
<path d="M378.047 261.248V331.041L392.237 420.823L402.403 420.755L407.792 337.659L420.618 254.426L378.047 261.248Z" fill="#1A3151"/>
<path d="M402.335 424.985L391.487 430.58L385.961 425.19L391.351 419.664L402.266 419.528L402.335 424.985Z" fill="#132235"/>
<path d="M457.457 284.784C457.389 281.783 457.184 279.258 457.184 278.303C456.98 270.185 456.229 262.066 455.206 254.016C454.251 246.784 453.091 228.909 451.863 221.678C450.839 215.742 447.224 201.006 444.699 195.48C438.286 181.835 440.265 180.539 412.225 176.582C399.945 174.808 397.011 182.517 386.982 191.318C385.959 192.205 386.027 197.39 385.822 198.755C385.413 201.142 385.004 203.598 384.526 205.986C384.117 207.896 383.707 209.739 383.23 211.649C383.23 211.649 374.838 250.059 369.312 258.245C363.718 266.432 352.256 277.826 371.564 284.784C374.975 285.876 378.454 286.899 382.002 287.513C382.002 287.513 397.761 285.74 405.88 285.808C413.385 285.876 420.821 286.558 428.189 287.855C433.101 288.673 438.15 289.833 442.516 292.153C446.746 294.336 449.748 297.542 453.978 299.794C454.387 299.998 454.796 300.203 455.274 300.135C457.594 299.794 457.662 291.198 457.457 284.784Z" fill="#145566"/>
<path d="M412.086 180.538C413.519 181.221 416.862 181.494 420.341 180.129C421.024 179.856 421.501 179.174 421.501 178.424C421.501 176.309 421.296 174.194 420.955 172.079C423.548 171.124 426.618 169.759 427.027 167.03C427.164 166.143 427.027 165.256 426.891 164.438C426.277 160.89 425.663 157.342 425.049 153.795C424.844 152.567 424.639 151.271 423.957 150.247C422.797 148.405 420.478 147.586 418.363 147.245C412.837 146.29 406.833 147.518 402.603 151.134C401.443 152.089 400.42 153.249 399.942 154.682C399.192 156.865 399.738 159.253 400.352 161.436C400.898 163.483 401.443 165.529 401.989 167.576C402.603 169.896 403.49 172.625 405.81 173.511C407.038 173.989 408.47 173.853 409.562 174.535C411.336 175.626 411.063 178.492 412.086 180.538Z" fill="#EAC1A4"/>
<path d="M380.228 145.13C379.683 144.243 379.069 143.357 378.455 142.606C377.022 140.901 375.316 139.4 374.156 137.421C372.997 135.511 372.587 132.85 373.952 131.076C374.839 129.917 376.271 129.371 377.636 128.961C382.207 127.597 387.119 127.529 391.758 128.689C396.193 129.78 400.081 131.622 404.516 129.985C408.678 128.416 411.679 129.03 416.046 130.599C420.753 132.236 427.098 132.645 431.328 135.033C433.102 135.988 434.534 137.558 435.626 139.263C439.446 145.199 439.515 153.317 435.694 159.321C434.875 160.685 433.852 161.845 432.761 163.073C430.577 165.461 427.917 168.463 424.847 169.35C424.778 166.621 427.234 158.025 425.12 155.773C421.777 152.226 414.272 153.454 410.11 154.341C405.608 155.296 401.582 158.502 397.148 159.184C393.941 159.662 389.848 158.093 387.119 156.456C383.776 154.341 382.207 148.337 380.228 145.13Z" fill="#1A3151"/>
<path d="M322.032 193.911L313.367 188.317L315.55 184.496L322.373 187.02L322.577 184.701L329.468 190.363L327.694 194.661L322.032 193.911Z" fill="#AA6755"/>
<path d="M403.423 177.947L358.123 196.64L329.469 190.363L326.672 195.89L352.802 215.06L388.824 210.694L403.423 177.947Z" fill="#145566"/>
<path d="M466.529 107.608L465.778 96.2148L460.934 96.3513L459.706 104.265L457.387 103.242L459.229 112.861L464.277 113.407L466.529 107.608Z" fill="#EAC1A4"/>
<path d="M423 184.155L447.833 151.135L459.227 112.862L465.981 113.066L466.049 157.343L442.58 204.145L423 184.155Z" fill="#145566"/>
<path d="M277.545 424.711L277.34 429.487L286.618 434.672L291.599 430.169L287.096 425.189L277.817 420.004L277.545 424.711Z" fill="#DBDBDB"/>
<path d="M269.766 280.691L269.016 295.086L285.185 358.534L277.134 423.21L286.481 425.53L312.201 347.823L312.611 324.491L306.129 276.461L269.766 280.691Z" fill="#145566"/>
<path d="M340.65 279.191L347.95 339.433L345.085 418.436L336.352 419.391L322.98 348.233L303.195 277.758L340.65 279.191Z" fill="#145566"/>
<path d="M336.763 423.075L346.723 426.759L350.953 421.505L345.7 417.344L336.285 418.367L336.763 423.075Z" fill="#DBDBDB"/>
<path d="M344.136 269.162C335.13 250.878 331.446 230.752 326.739 210.967C325.306 205.168 323.873 199.165 320.599 194.116C316.846 188.317 311.73 185.725 305.999 184.77C298.767 183.541 290.58 184.838 283.349 185.452C278.982 199.165 276.117 191.387 270.932 204.895C269.84 207.693 266.907 231.844 265.747 234.641C265.747 234.641 253.944 271.823 257.833 301.159C257.901 301.432 257.901 301.705 257.969 302.046C258.72 302.182 259.47 302.319 260.153 302.455C270.386 304.502 280.824 305.594 291.263 305.457C300.541 305.321 309.819 304.161 318.825 301.909C331.173 298.839 345.773 300.067 355.87 291.881C352.868 285.945 347.138 275.166 344.136 269.162Z" fill="white"/>
<path d="M349.249 131.624L348.908 121.322H344.474L343.177 128.418L341.062 127.462L342.495 136.263L347.066 136.877L349.249 131.624Z" fill="#AA6755"/>
<path d="M307.02 184.088L333.354 164.099L342.496 136.263L348.636 136.604L351.911 168.874L323.803 208.922L307.02 184.088Z" fill="white"/>
<path d="M277.546 161.779C281.231 150.113 298.082 145.883 302.243 159.255C303.471 163.28 304.222 167.578 303.471 171.74C302.721 175.901 300.265 179.927 296.376 181.632H296.308C296.444 182.724 296.649 183.747 296.786 184.839C296.854 185.043 296.854 185.316 296.717 185.521C296.581 185.726 296.308 185.794 296.035 185.862C294.739 186.067 293.443 186.271 292.215 186.476C291.601 186.612 290.918 186.681 290.304 186.476C288.94 186.067 288.394 184.498 288.326 183.065C288.326 182.724 288.326 182.383 288.326 182.041C280.685 179.585 275.159 169.352 277.546 161.779Z" fill="#AA6755"/>
<path d="M300.813 142.608C303.951 142.472 306.271 145.678 309 147.52C311.251 149.021 313.912 149.635 316.231 151C318.551 152.296 320.802 154.82 320.598 157.617C323.19 156.526 326.055 155.502 328.784 156.253C331.513 157.072 333.765 160.619 332.4 163.28C331.172 165.668 327.897 165.941 326.601 168.26C324.554 171.944 328.58 178.289 325.168 180.541C324.35 181.086 323.326 181.155 322.508 181.7C321.553 182.383 321.075 183.679 320.598 184.839C318.21 190.092 312.479 193.094 307.157 191.866C303.951 189.955 301.631 186.476 300.744 182.655C299.721 178.084 302.245 176.72 303.064 172.558C303.951 167.987 302.928 163.007 300.403 159.187C298.766 156.662 296.242 154.411 293.445 153.933C292.285 153.729 292.558 154.684 291.33 153.729C290.784 153.319 290.17 151.75 290.102 151.068C293.513 148.817 296.719 142.813 300.813 142.608Z" fill="#1A3151"/>
<path d="M267.586 145.2C265.948 145.473 264.243 145.268 262.674 145.814C260.286 146.565 260.218 148.953 259.399 150.999C258.444 153.182 257.148 156.184 255.442 157.822C254.214 158.981 252.645 159.595 251.28 160.414C249.848 161.301 248.551 162.597 248.415 164.371C248.278 166.077 249.302 167.646 249.302 169.351C249.234 171.876 248.688 173.104 249.234 175.764C249.506 177.129 249.848 178.562 250.734 179.585C251.894 180.881 253.805 181.018 255.442 180.949C257.079 180.813 258.853 180.54 260.354 181.222C263.765 182.723 262.742 186.203 263.424 189.273C264.379 193.912 269.36 197.05 273.521 195.822C277.069 194.799 279.388 191.047 279.593 187.158C279.73 185.179 279.116 183.337 279.252 181.359C279.388 179.449 280.685 176.992 279.115 175.355C278.706 174.946 278.229 174.741 277.887 174.264C277.615 173.922 277.478 173.445 277.41 172.967C277.205 171.398 277.683 169.693 278.706 168.601C279.457 167.782 280.412 167.305 280.958 166.281C281.503 165.122 281.299 163.757 281.367 162.393C281.503 159.254 283.482 156.321 286.211 155.297C287.985 154.683 289.622 154.342 291.259 153.251C291.532 153.114 295.216 150.385 295.285 151.067C295.216 149.908 294.67 148.816 294.056 147.861C293.101 146.224 292.01 144.654 290.509 143.631C285.733 140.22 284.846 146.974 280.889 145.746C279.934 145.405 279.252 144.45 278.433 143.836C276.864 142.676 274.749 142.812 272.975 143.426C271.065 143.904 269.428 144.859 267.586 145.2Z" fill="#1A3151"/>
<path d="M229.109 353.147L330.08 392.102L440.671 355.193L346.795 318.898L229.109 353.147Z" fill="#1A6F82"/>
<path d="M410.451 359.169C410.494 335.997 391.744 317.177 368.572 317.133C345.399 317.09 326.579 335.84 326.536 359.012C326.492 382.185 345.242 401.005 368.414 401.048C391.587 401.092 410.407 382.342 410.451 359.169Z" fill="white"/>
<mask id="mask0_691_5021" style="mask-type:luminance" maskUnits="userSpaceOnUse" x="326" y="317" width="85" height="85">
<path d="M410.454 359.169C410.498 335.997 391.748 317.177 368.576 317.133C345.403 317.09 326.583 335.84 326.54 359.012C326.496 382.185 345.246 401.005 368.418 401.048C391.591 401.092 410.411 382.342 410.454 359.169Z" fill="white"/>
</mask>
<g mask="url(#mask0_691_5021)">
<path d="M395.713 333.907L396.668 333.156C396.463 332.884 391.687 326.607 382.273 322.991L381.863 324.151C391.005 327.63 395.713 333.839 395.713 333.907Z" fill="#5C5955"/>
<path d="M340.998 333.77C341.066 333.702 345.774 327.494 354.847 324.014L354.438 322.854C345.023 326.47 340.248 332.747 340.043 332.952L340.998 333.77Z" fill="#5C5955"/>
<path d="M399.194 381.527C402.059 378.457 404.31 373.613 405.948 367.064C407.108 362.22 407.517 358.195 407.517 358.195L406.289 358.058C406.289 358.195 404.856 373.75 398.375 380.708L399.194 381.527Z" fill="#5C5955"/>
<path d="M337.519 381.391L338.406 380.572C331.925 373.613 330.56 358.058 330.56 357.922L329.332 357.99C329.332 358.058 329.673 362.015 330.833 366.928C332.47 373.477 334.722 378.321 337.519 381.391Z" fill="#5C5955"/>
<path d="M367.607 397.696C373.065 397.696 377.363 396.672 377.636 396.604L377.363 395.444C377.295 395.444 367.539 397.764 358.943 395.444L358.602 396.604C361.672 397.355 364.81 397.696 367.607 397.696Z" fill="#5C5955"/>
</g>
<mask id="mask1_691_5021" style="mask-type:luminance" maskUnits="userSpaceOnUse" x="326" y="317" width="85" height="85">
<path d="M410.454 359.169C410.498 335.997 391.748 317.177 368.576 317.133C345.403 317.09 326.583 335.84 326.54 359.012C326.496 382.185 345.246 401.005 368.418 401.048C391.591 401.092 410.411 382.342 410.454 359.169Z" fill="white"/>
</mask>
<g mask="url(#mask1_691_5021)">
<path d="M368.491 343.389L382.75 353.759L377.224 370.542H359.622L354.164 353.759L368.491 343.389Z" fill="#1A3151"/>
</g>
<mask id="mask2_691_5021" style="mask-type:luminance" maskUnits="userSpaceOnUse" x="326" y="317" width="85" height="85">
<path d="M410.454 359.169C410.498 335.997 391.748 317.177 368.576 317.133C345.403 317.09 326.583 335.84 326.54 359.012C326.496 382.185 345.246 401.005 368.418 401.048C391.591 401.092 410.411 382.342 410.454 359.169Z" fill="white"/>
</mask>
<g mask="url(#mask2_691_5021)">
<path d="M368.493 334.316L354.234 323.946L359.76 307.163L377.362 307.231L382.752 324.014L368.493 334.316Z" fill="#1A3151"/>
</g>
<mask id="mask3_691_5021" style="mask-type:luminance" maskUnits="userSpaceOnUse" x="326" y="317" width="85" height="85">
<path d="M410.454 359.169C410.498 335.997 391.748 317.177 368.576 317.133C345.403 317.09 326.583 335.84 326.54 359.012C326.496 382.185 345.246 401.005 368.418 401.048C391.591 401.092 410.411 382.342 410.454 359.169Z" fill="white"/>
</mask>
<g mask="url(#mask3_691_5021)">
<path d="M381.797 379.616L399.399 379.889L404.652 396.74L390.189 406.906L376.066 396.331L381.797 379.616Z" fill="#1A3151"/>
<path d="M375.732 366.145L374.633 366.692L383.054 383.609L384.153 383.062L375.732 366.145Z" fill="#1A3151"/>
</g>
<mask id="mask4_691_5021" style="mask-type:luminance" maskUnits="userSpaceOnUse" x="326" y="317" width="85" height="85">
<path d="M410.454 359.169C410.498 335.997 391.748 317.177 368.576 317.133C345.403 317.09 326.583 335.84 326.54 359.012C326.496 382.185 345.246 401.005 368.418 401.048C391.591 401.092 410.411 382.342 410.454 359.169Z" fill="white"/>
</mask>
<g mask="url(#mask4_691_5021)">
<path d="M391.547 350.211L395.572 333.019L413.174 331.586L419.996 347.824L406.624 359.353L391.547 350.211Z" fill="#1A3151"/>
<path d="M396.071 347.533L378.734 355.055L379.223 356.181L396.56 348.66L396.071 347.533Z" fill="#1A3151"/>
</g>
<mask id="mask5_691_5021" style="mask-type:luminance" maskUnits="userSpaceOnUse" x="326" y="317" width="85" height="85">
<path d="M410.454 359.169C410.498 335.997 391.748 317.177 368.576 317.133C345.403 317.09 326.583 335.84 326.54 359.012C326.496 382.185 345.246 401.005 368.418 401.048C391.591 401.092 410.411 382.342 410.454 359.169Z" fill="white"/>
</mask>
<g mask="url(#mask5_691_5021)">
<path d="M354.982 379.82L337.312 379.956L332.059 396.808L346.386 407.041L360.576 396.535L354.982 379.82Z" fill="#1A3151"/>
<path d="M361.061 366.334L352.578 383.222L353.676 383.773L362.159 366.886L361.061 366.334Z" fill="#1A3151"/>
</g>
<mask id="mask6_691_5021" style="mask-type:luminance" maskUnits="userSpaceOnUse" x="326" y="317" width="85" height="85">
<path d="M410.454 359.169C410.498 335.997 391.748 317.177 368.576 317.133C345.403 317.09 326.583 335.84 326.54 359.012C326.496 382.185 345.246 401.005 368.418 401.048C391.591 401.092 410.411 382.342 410.454 359.169Z" fill="white"/>
</mask>
<g mask="url(#mask6_691_5021)">
<path d="M345.158 350.212L340.928 333.087L323.327 331.859L316.641 348.165L330.149 359.558L345.158 350.212Z" fill="#1A3151"/>
<path d="M340.605 347.609L340.129 348.741L357.547 356.071L358.024 354.939L340.605 347.609Z" fill="#1A3151"/>
</g>
<mask id="mask7_691_5021" style="mask-type:luminance" maskUnits="userSpaceOnUse" x="326" y="317" width="85" height="85">
<path d="M410.454 359.169C410.498 335.997 391.748 317.177 368.576 317.133C345.403 317.09 326.583 335.84 326.54 359.012C326.496 382.185 345.246 401.005 368.418 401.048C391.591 401.092 410.411 382.342 410.454 359.169Z" fill="white"/>
</mask>
<g mask="url(#mask7_691_5021)">
<path d="M367.908 325.505L367.871 345.426L369.099 345.428L369.136 325.507L367.908 325.505Z" fill="#1A3151"/>
</g>
<path d="M329.875 475.744L228.973 424.644L229.109 353.078L330.012 392.033L329.875 475.744Z" fill="#1A6F82"/>
<path d="M329.875 475.743L440.534 427.1L440.67 355.192L330.011 392.033L329.875 475.743Z" fill="#145566"/>
<path d="M321.208 335.204C316.227 336.773 313.498 342.095 315.136 347.075C316.705 352.055 322.026 354.784 327.007 353.147L340.037 348.985C345.018 347.416 347.747 342.095 346.109 337.114C344.54 332.134 339.219 329.405 334.238 331.042L321.208 335.204Z" fill="#3ABABA"/>
<path d="M334.985 365.631C329.391 362.765 322.5 364.948 319.635 370.543C316.77 376.137 318.953 383.028 324.547 385.893L339.283 393.466C344.878 396.331 351.768 394.148 354.634 388.554C357.499 382.959 355.316 376.069 349.722 373.203L334.985 365.631Z" fill="#3ABABA"/>
<path d="M286.825 381.05C289.69 375.456 296.581 373.273 302.175 376.138C307.77 379.003 309.953 385.894 307.087 391.488L299.515 406.225C296.649 411.819 289.759 414.002 284.164 411.137C278.57 408.271 276.387 401.381 279.252 395.786L286.825 381.05Z" fill="#B5D6CA"/>
<path d="M266.563 352.737C261.583 354.306 258.854 359.627 260.491 364.608C262.06 369.588 267.382 372.317 272.362 370.68L285.393 366.518C290.373 364.949 293.102 359.627 291.465 354.647C289.895 349.667 284.574 346.938 279.594 348.575L266.563 352.737Z" fill="#3ABABA"/>
<path d="M285.122 378.662C289.556 392.443 304.293 400.016 318.006 395.649C331.787 391.215 339.36 376.479 334.993 362.766L332.06 353.624C327.625 339.843 312.889 332.27 299.176 336.636C285.395 341.071 277.822 355.807 282.188 369.52L285.122 378.662Z" fill="#3ABABA"/>
<path d="M303.158 349.088C318.016 344.335 326.208 328.437 321.455 313.579C316.702 298.721 300.804 290.53 285.946 295.283C271.088 300.036 262.896 315.934 267.649 330.792C272.402 345.65 288.3 353.842 303.158 349.088Z" fill="#3ABABA"/>
<path d="M295.078 323.811C304.697 320.741 314.795 323.06 321.958 329.2C319.638 338.342 312.816 346.12 303.197 349.19C293.577 352.26 283.48 349.94 276.316 343.8C278.636 334.658 285.458 326.881 295.078 323.811Z" fill="#F4F1EF"/>
<path d="M315.774 311.663C322.736 309.436 326.575 301.986 324.348 295.023C322.121 288.061 314.671 284.222 307.708 286.45C300.746 288.677 296.907 296.127 299.134 303.089C301.362 310.052 308.811 313.89 315.774 311.663Z" fill="#3ABABA"/>
<path d="M271.172 325.99C278.135 323.763 281.973 316.313 279.746 309.351C277.519 302.388 270.069 298.55 263.107 300.777C256.144 303.004 252.306 310.454 254.533 317.416C256.76 324.379 264.21 328.218 271.172 325.99Z" fill="#3ABABA"/>
<path d="M307.163 316.645C308.67 316.162 309.501 314.55 309.019 313.042C308.537 311.535 306.924 310.704 305.417 311.186C303.909 311.668 303.078 313.281 303.561 314.788C304.043 316.296 305.656 317.127 307.163 316.645Z" fill="#1A3151"/>
<path d="M281.1 324.988C282.608 324.505 283.439 322.893 282.957 321.385C282.474 319.878 280.862 319.047 279.354 319.529C277.847 320.011 277.016 321.624 277.498 323.131C277.98 324.639 279.593 325.47 281.1 324.988Z" fill="#1A3151"/>
<path d="M289.96 335.682C290.369 334.863 291.392 334.59 292.143 334.999C293.78 335.818 295.486 336.091 297.191 335.886L295.145 329.405C291.529 328.245 290.846 325.653 290.846 325.653C290.437 324.357 291.119 322.787 292.416 322.378L296.441 321.082C297.737 320.672 299.17 321.491 299.579 322.856C299.647 323.129 300.398 325.516 298.283 328.382L300.398 334.863C301.899 334.044 303.127 332.816 304.014 331.179C304.423 330.36 305.446 330.087 306.197 330.497C307.015 330.906 307.288 331.929 306.879 332.68C305.378 335.613 302.786 337.66 299.852 338.615C296.918 339.57 293.644 339.366 290.71 337.865C289.823 337.455 289.55 336.5 289.96 335.682Z" fill="#1A3151"/>
<path d="M314.526 293.314C317.868 295.429 318.824 299.795 316.709 303.07L304.77 295.565C306.884 292.222 311.251 291.267 314.526 293.314Z" fill="white"/>
<path d="M261.514 310.301C263.015 306.686 267.108 304.912 270.792 306.413L265.403 319.512C261.787 318.079 260.081 313.917 261.514 310.301Z" fill="white"/>
<path d="M330.012 392.033L349.66 425.804L457.044 383.437L440.534 355.192L330.012 392.033Z" fill="#1A6F82"/>
<path d="M210.961 375.591L306.815 421.097L330.011 392.033L229.04 353.078L210.961 375.591Z" fill="#145566"/>
<path d="M557.468 139.741L551.328 133.396L553.716 122.48L559.72 122.617L561.289 132.168L564.291 134.078L564.222 138.718L557.468 139.741Z" fill="#EAC1A4"/>
<path d="M602.085 196.163C605.087 196.026 608.157 195.89 611.159 195.754C611.296 193.366 611.296 190.91 611.023 188.522C611.023 188.795 615.867 186.27 616.276 185.656C617.504 184.019 617.64 181.222 618.118 179.243C619.21 175.014 620.233 170.306 617.982 166.554C615.662 162.665 610.682 161.369 606.179 161.232C600.516 161.096 594.172 162.733 591.306 167.645C588.714 172.012 591.988 178.493 592.943 183.132C593.421 185.452 594.103 188.044 596.286 188.999C597.446 189.477 598.811 189.477 599.766 190.159C601.676 191.387 601.267 194.116 602.085 196.163Z" fill="#EAC1A4"/>
<path d="M582.437 159.254C582.096 156.115 581.755 152.977 581.414 149.839C581.277 148.679 581.141 147.451 581.55 146.359C582.164 144.517 584.006 143.358 585.917 142.88C587.759 142.403 589.737 142.334 591.647 141.925C593.694 141.447 595.673 140.56 597.719 140.629C601.676 140.765 604.678 144.449 608.567 145.063C613.956 145.882 618.937 143.426 622.212 149.771C622.826 150.93 622.962 152.295 623.508 153.455C624.19 155.024 625.418 156.252 626.441 157.616C630.739 163.688 629.375 172.967 624.19 178.152C621.666 180.676 620.642 182.927 617.231 183.746C618.8 180.54 616.685 167.713 612.387 166.281C611.228 165.871 607.816 167.304 606.52 167.509C603.723 167.918 600.994 168.396 598.333 169.487C594.376 171.125 590.146 172.284 585.917 172.626C585.371 172.694 584.757 172.694 584.347 172.353C583.938 172.012 583.87 171.466 583.802 170.92C583.324 167.031 582.915 163.143 582.437 159.254Z" fill="#1A3151"/>
<path d="M650.523 426.896L651.751 432.013L642.745 439.517L636.469 435.697L640.358 429.352L649.295 421.779L650.523 426.896Z" fill="#1A3151"/>
<path d="M629.58 269.162L633.332 284.649L628.761 356.693L650.661 425.121L641.042 429.556L597.31 350.621L592.057 325.378L589.328 271.959L629.58 269.162Z" fill="#145566"/>
<path d="M569.204 275.371L568.59 342.299L581.348 428.601H591.035L597.039 348.916L610.138 269.299L569.204 275.371Z" fill="#145566"/>
<path d="M590.969 427.441L591.037 432.694L580.531 437.947L575.277 432.694L580.531 427.441H590.969Z" fill="#1A3151"/>
<path d="M641.18 288.061C641.316 294.133 641.18 302.388 638.792 302.729C638.383 302.797 637.905 302.592 637.564 302.388C633.471 300.205 630.605 297.066 626.648 294.951C622.487 292.7 617.643 291.54 612.935 290.721C605.908 289.425 598.745 288.675 591.581 288.538C585.919 288.47 580.324 288.948 574.662 289.425C570.023 289.835 565.656 291.199 560.881 290.926C556.037 290.585 551.193 289.084 547.031 286.56C546.895 286.492 546.69 286.355 546.622 286.219C546.554 286.014 546.622 285.809 546.69 285.673C547.714 282.944 548.396 280.215 550.17 277.964C552.216 275.439 553.581 272.233 555.082 269.367C558.084 263.364 560.949 257.087 563.064 250.742C566.27 242.078 569.886 233.618 573.025 224.954C575.139 218.95 577.118 212.81 580.052 207.079C582.303 202.577 586.396 196.095 591.308 194.117C592.946 193.435 594.788 193.366 596.562 193.298C602.02 193.162 607.409 192.957 612.867 192.821C614.846 192.752 616.892 192.684 618.734 193.503C621.463 194.731 622.964 197.528 624.329 200.189C630.332 212.06 634.153 224.817 636.336 238.053C637.496 244.943 638.519 251.834 639.338 258.793C640.225 266.502 640.907 274.28 641.043 282.057C640.975 282.739 641.112 285.195 641.18 288.061Z" fill="#3ABABA"/>
<path d="M577.663 215.333L546.621 190.09L554.33 136.671L566.201 136.603L564.496 182.926L591.922 196.23L577.663 215.333Z" fill="#3ABABA"/>
<path d="M590.359 253.278L580.633 251.131L547.376 401.827L557.103 403.973L590.359 253.278Z" fill="#1A3151"/>
<path d="M534.341 359.694L528.064 388.212C522.129 415.228 545.802 432.08 545.802 432.08C545.802 432.08 574.388 426.758 580.392 399.742L586.668 371.224L534.341 359.694Z" fill="#DBDBDB"/>
<path d="M583.665 260.566L582.301 259.61C581.482 258.996 562.175 245.011 567.223 222.087L568.11 218.199L615.662 228.705L614.775 232.594C609.727 255.517 586.326 260.088 585.303 260.293L583.665 260.566ZM574.455 227.75C573.636 240.235 582.164 249.036 585.576 251.969C589.942 250.741 601.335 246.443 605.838 234.709L574.455 227.75Z" fill="#DBDBDB"/>
<path d="M590.398 253.284L580.672 251.138L576.261 271.124L585.988 273.27L590.398 253.284Z" fill="#DBDBDB"/>
<path d="M604.068 248.626L599.634 250.4L595.813 248.626L594.995 249.308L595.745 250.263L592.129 249.786L589.673 251.286L589.332 255.175L591.652 258.586L595.54 258.45L599.497 255.994L605.637 253.811L604.068 248.626Z" fill="#EAC1A4"/>
<path d="M598.953 247.466L623.718 231.707L618.67 193.297L644.868 213.764L640.842 247.739L602.296 256.131L598.953 247.466Z" fill="#3ABABA"/>
</g>
<defs>
<clipPath id="clip0_691_5021">
<rect width="737.263" height="498" fill="white"/>
</clipPath>
</defs>
</svg>
