<svg width="319" height="217" viewBox="0 0 319 217" fill="none" xmlns="http://www.w3.org/2000/svg">
<g clip-path="url(#clip0_691_5494)">
<path d="M307.415 216.994C300.796 216.994 264.299 217.007 218.538 216.994C206.729 216.994 194.286 216.994 181.594 216.982C179.359 216.982 177.111 216.982 174.864 216.982C165.774 216.982 156.584 216.97 147.42 216.97C144.948 216.97 142.49 216.97 140.031 216.97C125.142 216.957 110.414 216.945 96.3936 216.932C41.7912 216.87 25.7221 216.423 25.7221 216.398C25.6103 216.137 -24.4719 190.592 15.4275 137.139C35.4952 110.227 12.6334 80.9649 29.7456 55.3079C53.9485 18.9977 94.0218 40.2916 121.515 28.7807C126.371 26.7545 131.251 23.4852 136.132 18.4632C138.876 15.6414 141.894 13.1801 145.11 11.0421C145.607 10.7189 146.103 10.3957 146.612 10.0849C148.537 8.89154 150.537 7.82249 152.598 6.8529C153.976 6.2065 155.392 5.59739 156.833 5.05044C159.118 4.18029 161.452 3.42201 163.849 2.77561C167.239 1.86817 170.741 1.18448 174.305 0.736974C175.857 0.538082 177.422 0.376482 179.011 0.264606C209.734 -2.03508 244.293 10.8929 262.138 29.7876C265.727 33.5914 282.057 53.2817 269.192 80.331C261.058 97.4108 295.121 113.732 307.216 133.236C337.976 182.835 307.688 216.348 307.415 216.994Z" fill="#D9E3F6"/>
<path d="M156.964 17.8752C204.877 2.86262 228.462 14.2187 228.462 14.2187L230.244 49.0599C230.244 49.0599 206.689 37.7038 158.746 52.7164C110.804 67.729 89.4463 56.254 89.4463 56.254L87.6641 21.4129C87.6641 21.4129 109.021 32.8581 156.964 17.8752Z" fill="white"/>
<path d="M114.577 52.4193L109.527 37.9715L111.369 37.8823L113.805 44.9873C114.488 46.9493 115.052 48.7033 115.498 50.3978H115.528C115.825 48.6736 116.27 46.8007 116.745 44.8684L118.587 37.4958L120.399 37.4067L116.448 52.3301L114.577 52.4193Z" fill="#1A3151"/>
<path d="M133.528 42.6386C134.3 47.6329 131.983 50.6949 128.656 51.23C125.21 51.7651 122.329 49.1788 121.646 44.779C120.933 40.1712 123.042 36.7525 126.517 36.2174C130.082 35.6525 132.874 38.3578 133.528 42.6386ZM123.428 44.452C123.903 47.5437 125.834 50.1003 128.508 49.6841C131.181 49.2679 132.28 46.2951 131.745 42.9953C131.3 40.1117 129.488 37.3173 126.666 37.7335C123.903 38.1794 122.953 41.2711 123.428 44.452Z" fill="#1A3151"/>
<path d="M134.18 35.0876L135.843 34.7012L138.814 47.4545L144.309 46.1762L144.665 47.722L137.507 49.3868L134.18 35.0876Z" fill="#1A3151"/>
<path d="M143.834 32.7393L146.27 41.0929C147.191 44.244 148.855 45.225 150.548 44.7197C152.419 44.1548 153.221 42.4306 152.33 39.3092L149.894 30.9556L151.558 30.48L153.964 38.6849C155.241 43.0252 153.696 45.4034 150.963 46.2061C148.379 46.979 145.943 45.8791 144.666 41.5091L142.23 33.215L143.834 32.7393Z" fill="#1A3151"/>
<path d="M158.421 43.6197L154.648 29.4394L156.46 28.9638L162.461 35.058C163.857 36.4552 164.986 37.7632 165.966 39.0713L165.995 39.0415C165.342 37.1984 164.837 35.4742 164.243 33.2446L162.669 27.299L164.213 26.8828L167.986 41.063L166.322 41.509L160.352 35.385C159.045 34.0473 157.767 32.65 156.698 31.2826L156.639 31.3123C157.203 33.0662 157.708 34.7607 158.332 37.139L159.936 43.2035L158.421 43.6197Z" fill="#1A3151"/>
<path d="M170.602 27.1803L166.651 27.983L166.324 26.4074L175.919 24.4751L176.245 26.0507L172.295 26.8533L174.849 39.6661L173.156 39.9931L170.602 27.1803Z" fill="#1A3151"/>
<path d="M185.897 30.926L180.817 31.6395L181.53 36.8716L187.204 36.0987L187.412 37.6742L180.045 38.685L178.055 24.148L185.124 23.167L185.332 24.7426L179.956 25.4858L180.58 30.0936L185.659 29.3801L185.897 30.926Z" fill="#1A3151"/>
<path d="M195.729 30.153L190.62 30.5097L190.976 35.8013L196.68 35.4148L196.798 36.9904L189.402 37.4958L188.422 22.8399L195.551 22.3643L195.67 23.9398L190.264 24.2966L190.561 28.9341L195.67 28.5774L195.729 30.153Z" fill="#1A3151"/>
<path d="M198.935 22.4534C199.797 22.2751 201.044 22.1859 202.203 22.2156C204.015 22.2453 205.203 22.6318 206.005 23.4939C206.658 24.1479 207.015 25.1587 206.985 26.2883C206.955 28.2206 205.827 29.4989 204.431 30.0043V30.0638C205.441 30.48 206.035 31.5204 206.302 33.0663C206.688 35.1175 206.985 36.5445 207.252 37.1093L205.5 37.0796C205.292 36.6634 205.025 35.3851 204.668 33.542C204.312 31.5204 203.629 30.7475 202.084 30.6286L200.48 30.5989L200.361 36.9607L198.668 36.9309L198.935 22.4534ZM200.539 29.1719L202.292 29.2017C204.104 29.2314 205.292 28.1315 205.322 26.4667C205.351 24.5641 204.134 23.7317 202.322 23.6723C201.49 23.6723 200.896 23.7317 200.628 23.8209L200.539 29.1719Z" fill="#1A3151"/>
<path d="M73.3166 13.6835C68.2669 14.9618 62.9795 19.7183 62.9498 24.4451C60.0388 20.7588 51.6028 20.7588 46.8204 22.8695C34.1962 28.3989 34.7903 44.3925 43.6421 52.2407C48.3948 56.4621 54.2465 59.5835 60.3061 62.1104C65.3856 64.2211 77.9207 68.0857 77.9504 68.056C77.9801 68.056 85.4953 57.2945 88.1984 52.538C91.4361 46.8302 94.1095 40.7657 95.268 34.5228C97.4067 22.81 86.6537 10.2648 73.3166 13.6835Z" fill="#EAC5B0"/>
<path d="M217.262 81.226C217.262 81.226 202.321 88.5391 197.806 85.8041C197.242 85.4474 183.905 80.1855 183.905 80.1855L181.172 83.2475L196.47 93.7118L201.549 94.5739L214.411 90.8876L217.262 81.226Z" fill="#9EA6AD"/>
<path d="M227.181 82.5337C227.181 82.5337 235.825 96.7734 241.083 96.8923C241.736 96.922 255.816 99.657 255.816 99.657L256.47 103.73L237.934 104.265L233.182 102.243L224.359 92.1953L227.181 82.5337Z" fill="#9EA6AD"/>
<path d="M225.284 81.4638C225.344 81.4935 225.403 81.5232 225.463 81.5232C228.492 82.6826 230.869 87.9742 232.235 91.0956C235.77 99.1222 237.314 107.476 237.612 116.335C237.76 121.121 237.73 125.877 237.582 130.664C237.552 131.972 236.423 143.803 237.017 144.071C231.017 141.187 224.928 138.452 218.541 136.817C212.155 135.182 205.442 134.647 198.996 136.163C200.927 121.151 203.749 105.9 207.818 91.3929C208.294 89.6687 208.62 87.8256 209.363 86.1608C210.195 84.2582 211.442 83.6934 213.046 82.5934C213.581 82.207 214.145 81.8205 214.739 81.553C217.858 80.1855 222.106 80.3044 225.284 81.4638Z" fill="#9EA6AD"/>
<path d="M234.612 128.642L227.78 156.586L227.661 177.158L224.334 177.871L222.997 158.756L219.641 123.707L234.612 128.642Z" fill="#DEC9AD"/>
<path d="M224.307 178.466L223.742 180.547L224.247 184.65H226.95L227.93 178.734L227.633 177.723L224.307 178.466Z" fill="#1A3151"/>
<path d="M208.353 125.61L207.789 149.749L211.086 183.787L214.383 184.025L215.512 152.811L222.166 124.48L208.353 125.61Z" fill="#DEC9AD"/>
<path d="M211.176 183.222L206.75 185.601L207.106 187.682L214.948 186.701L214.562 183.698L211.176 183.222Z" fill="#1A3151"/>
<path d="M207.401 128.731L205.203 156.616L207.52 175.701L216.431 175.196L218.006 153.465L221.808 129.772L221.214 126.085L208.352 126.293L207.401 128.731Z" fill="#A0A1A3"/>
<path d="M220.976 154.536L222.046 174.543L229.798 174.126L229.62 155.16L234.462 131.348L233.333 124.689L220.293 125.551L220.976 154.536Z" fill="#A0A1A3"/>
<path d="M202.828 129.237C210.819 130.456 224.096 131.348 232.087 132.567C232.503 118.119 231.047 101.441 227.542 87.4692C226.918 84.9424 225.968 82.2074 223.74 80.8993C221.364 79.5319 216.344 79.7102 214.888 82.4155C212.779 86.3396 212.363 92.6122 211.442 96.9822C209.304 106.882 204.135 119.189 202.828 129.237Z" fill="white"/>
<path d="M215.216 69.6922C217.325 64.0736 224.424 66.3329 225.672 71.3867C226.504 74.7162 223.83 78.9971 220.474 79.8294C220.533 80.6618 220.563 81.4942 220.563 82.3266C219.672 82.2374 218.751 82.1482 217.86 82.059C217.592 82.0293 217.266 81.9699 217.117 81.732C217.028 81.5834 217.058 81.405 217.087 81.2267C217.147 80.6618 217.206 80.097 217.295 79.5322C217.236 79.5024 217.177 79.4727 217.117 79.443C215.513 78.5809 214.563 76.8269 214.355 75.0135C214.147 73.2001 214.563 71.3867 215.216 69.6922Z" fill="#EAC1A4"/>
<path d="M215.693 71.4166C214.504 73.0219 214.712 75.2218 214.95 77.1244C215.128 78.8189 215.069 79.8593 213.197 79.681C212.158 79.5918 210.286 79.4134 209.692 78.4027C209.247 77.6297 210.168 76.0244 210.702 75.4299C211.118 74.984 211.831 74.9245 212.247 74.4786C212.425 74.3002 212.514 74.0624 212.603 73.8246C212.93 72.8435 213.138 71.8328 213.168 70.822C213.197 70.1383 213.138 69.4248 213.316 68.7411C213.554 67.7601 214.594 66.8682 215.247 66.125C216.435 64.7278 219.465 63.3009 220.98 65.2035C221.307 65.6494 221.425 66.2142 221.455 66.779C221.485 67.106 221.515 67.4628 221.396 67.7601C220.98 69.0086 219.792 68.86 218.782 69.187C217.564 69.514 216.465 70.3761 215.693 71.4166Z" fill="#1A3151"/>
<path d="M224.66 74.7163C224.423 75.6379 223.65 76.4703 223.888 77.3621C224.007 77.7783 224.304 78.0756 224.512 78.4323C225.136 79.3836 225.165 80.6916 224.66 81.7024C226.472 82.2375 228.255 82.7429 230.066 83.278C230.334 83.3672 230.631 83.4266 230.898 83.3672C231.492 83.2483 231.73 82.5645 231.908 81.9699C232.235 80.8106 232.532 79.5917 232.116 78.4621C231.938 77.9567 231.581 77.481 231.403 76.9757C230.512 74.4785 233.185 71.5354 231.849 69.2464C231.255 68.2356 230.037 67.76 229.146 66.9871C227.601 65.6493 227.037 63.3603 225.373 62.1117C222.284 59.7632 217.472 62.8846 218.512 66.7195C219.343 69.8409 225.581 71.0598 224.66 74.7163Z" fill="#1A3151"/>
<path d="M225.075 81.9096C225.075 81.9096 227.689 117.762 222.134 124.866C216.579 131.942 214.203 134.617 214.203 134.617L237.016 144.1C237.016 144.071 236.422 91.7793 225.075 81.9096Z" fill="#9EA6AD"/>
<path d="M123.546 80.8091C123.546 80.8091 110.06 90.5598 105.159 88.6275C104.535 88.3897 90.5145 85.4466 90.5145 85.4466L88.3164 88.9248L105.159 96.6244H110.327L122.357 90.8274L123.546 80.8091Z" fill="white"/>
<path d="M84.2146 68.2041C84.2146 68.2041 86.2939 69.2446 86.6504 74.7145C87.0068 80.1845 88.2841 83.5437 88.2841 83.5437C88.2841 83.5437 86.6504 84.7923 85.1355 84.2572C83.6205 83.7221 83.0859 83.6626 83.1156 81.4033C83.1156 79.144 81.8086 68.65 81.8086 68.65L84.2146 68.2041Z" fill="#1A3151"/>
<path d="M80.2656 70.9991C82.4043 71.0883 84.3945 72.6044 85.0777 74.6259C85.9391 73.3476 86.1471 71.6531 85.6124 70.1964C85.0777 68.7398 83.8004 67.6101 82.3152 67.2236C81.2162 68.1749 80.533 69.5424 80.4141 70.9991H80.2656Z" fill="#1A3151"/>
<path d="M77.7082 83.9603L64.0146 84.2279L59.2025 62.0806L54.6875 62.7049V89.8167L62.7373 93.7111L77.4706 95.7921L77.7082 83.9603Z" fill="#EBB044"/>
<path d="M71.5619 182.3L71.3242 184.262L74.7996 186.759L76.9086 185.095L75.3046 182.865L71.7995 180.368L71.5619 182.3Z" fill="#1A3151"/>
<path d="M72.9563 122.666L72.2137 128.552L77.0852 149.035L71.4414 181.646L75.0356 182.984L85.3133 151.235L87.0064 141.989L87.3926 122.309L72.9563 122.666Z" fill="#DBDBDB"/>
<path d="M100.669 129.86L91.877 184.53L88.4016 184.441L88.5501 149.302L82.7578 124.479L100.669 129.86Z" fill="#DBDBDB"/>
<path d="M88.432 183.995L88.4023 185.987L92.0857 188.038L94.0164 186.106L92.1748 184.085L88.432 183.995Z" fill="#1A3151"/>
<path d="M70.8487 123.796C73.8488 106.227 73.1954 93.3546 73.4033 89.8467C73.6112 86.3091 76.0767 84.5551 76.0767 84.5551C77.146 84.347 78.0668 83.6633 79.1659 83.3957C86.4434 81.7012 90.2753 87.4387 92.8298 93.5924C96.0082 101.203 98.6518 109.021 100.731 117.018C102.573 124.034 104.414 131.109 105.098 138.333C105.365 141.336 105.603 144.16 102.395 145.408C97.2854 147.4 91.5822 147.222 86.2058 147.786C80.0273 148.411 73.8488 148.857 67.6407 148.976C64.4029 149.065 67.8486 141.395 70.8487 123.796Z" fill="#EBB044"/>
<path d="M56.2648 62.5265L53.6211 59.7618L54.6607 55.0054L57.2747 55.0648L57.9579 59.2267L59.2649 60.0591L59.2055 62.0806L56.2648 62.5265Z" fill="#EAC1A4"/>
<path d="M82.6719 83.1274L89.5929 84.4949L103.465 98.5265L119.951 98.2589L120.753 103.372L101.445 106.345L85.7908 95.8212L82.6719 83.1274Z" fill="#EBB044"/>
<path d="M84.3664 83.5152L85.2575 102.303L76.0195 84.2584L78.8414 83.3368L80.8613 82.772L84.3664 83.5152Z" fill="white"/>
<path d="M120.098 99.5375L123.187 97.7241L127.048 98.7646L126.989 100.875L120.484 101.945L120.098 99.5375Z" fill="#EAC1A4"/>
<path d="M84.9588 72.7528C82.6716 67.4909 76.0475 69.9881 75.097 74.8932C74.5623 77.6876 75.9287 82.563 79.2556 82.6819C79.4041 83.1575 79.6714 84.0494 80.117 84.2872C80.5923 84.5548 81.7804 83.9305 82.2557 83.6926C82.3745 83.6332 82.523 83.544 82.6121 83.4251C82.7013 83.2765 82.6419 82.9197 82.5824 82.563C82.9389 82.4441 83.2953 82.2954 83.6518 82.0873C85.137 81.1955 85.939 79.4713 86.0578 77.7471C86.1469 76.0526 85.642 74.3283 84.9588 72.7528Z" fill="#EAC1A4"/>
<path d="M82.1958 67.2233C82.1958 67.2233 83.5325 70.0475 79.9085 71.742C76.2846 73.4365 74.5024 76.9741 75.8688 79.9469C77.2352 82.9494 80.562 84.6142 79.255 85.7736C77.9481 86.933 72.3043 87.3492 72.3043 87.3492C72.3043 87.3492 66.512 77.0038 69.8982 71.2069C73.2548 65.4099 79.6709 63.8046 82.1958 67.2233Z" fill="#1A3151"/>
<path d="M249.789 34.5223C249.789 34.5223 243.878 41.3002 241.383 60.0289L246.284 60.8612C246.284 60.8612 247.413 44.3325 252.255 35.6519L249.789 34.5223Z" fill="#145566"/>
<path d="M278.754 10.7402C278.754 10.7402 261.674 11.0375 254.188 17.6668C246.703 24.2962 250.03 36.0982 250.03 36.0982C250.03 36.0982 261.347 40.8844 268.832 34.2848C276.348 27.6554 278.754 10.7402 278.754 10.7402Z" fill="#C8D6A1"/>
<path d="M250.031 36.0982C250.031 36.0982 250.684 36.3657 251.783 36.6928L268.091 20.1343L249.645 34.2848C249.852 35.4145 250.031 36.0982 250.031 36.0982Z" fill="#145566"/>
<path d="M223.68 17.5777C223.68 17.5777 224.006 32.8282 229.918 39.4872C235.858 46.176 246.374 43.1438 246.374 43.1438C246.374 43.1438 250.621 33.0363 244.681 26.3475C238.769 19.6587 223.68 17.5777 223.68 17.5777Z" fill="#C8D6A1"/>
<path d="M246.405 43.1438C246.405 43.1438 246.643 42.5492 246.94 41.5979L232.117 27.0907L244.801 43.5005C245.781 43.2924 246.405 43.1438 246.405 43.1438Z" fill="#145566"/>
<path d="M250.027 36.098C250.027 36.098 268.533 35.8602 275.84 22.334C275.84 22.334 270.494 44.511 250.027 36.098Z" fill="#B8C48A"/>
<path d="M196.558 182.925L196.855 185.303L192.429 188.276L189.785 186.225L191.835 183.549L196.231 180.576L196.558 182.925Z" fill="#132235"/>
<path d="M196.705 182.152L193.229 152.008L197.269 118.267L196.318 111.072L178.021 110.418L177.367 122.102L180.516 152.067L192.13 183.698L196.705 182.152Z" fill="#1A3151"/>
<path d="M164.598 113.838V144.249L170.776 183.371L175.202 183.342L177.549 147.133L183.133 110.865L164.598 113.838Z" fill="#1A3151"/>
<path d="M175.172 185.185L170.449 187.623L168.043 185.274L170.39 182.866L175.142 182.807L175.172 185.185Z" fill="#132235"/>
<path d="M199.172 124.093C199.142 122.785 199.053 121.685 199.053 121.269C198.964 117.732 198.637 114.194 198.192 110.686C197.776 107.535 197.271 99.7461 196.736 96.595C196.29 94.0086 194.716 87.5874 193.617 85.1794C190.825 79.2338 191.686 78.669 179.478 76.9448C174.131 76.1719 172.854 79.5311 168.487 83.366C168.042 83.7525 168.071 86.0118 167.982 86.6064C167.804 87.6469 167.626 88.7171 167.418 89.7575C167.24 90.5899 167.062 91.3926 166.854 92.225C166.854 92.225 163.2 108.962 160.794 112.529C158.358 116.097 153.368 121.061 161.774 124.093C163.259 124.569 164.774 125.015 166.319 125.282C166.319 125.282 173.181 124.51 176.715 124.539C179.983 124.569 183.221 124.866 186.429 125.431C188.567 125.788 190.765 126.293 192.667 127.304C194.508 128.255 195.815 129.652 197.657 130.633C197.835 130.723 198.013 130.812 198.221 130.782C199.231 130.633 199.261 126.888 199.172 124.093Z" fill="#145566"/>
<path d="M179.419 78.6689C180.042 78.9661 181.498 79.0851 183.013 78.4905C183.31 78.3716 183.518 78.0743 183.518 77.7473C183.518 76.8257 183.429 75.9042 183.28 74.9826C184.409 74.5664 185.746 73.9719 185.924 72.7827C185.983 72.3963 185.924 72.0098 185.864 71.6531C185.597 70.1072 185.33 68.5614 185.062 67.0155C184.973 66.4804 184.884 65.9156 184.587 65.4697C184.082 64.667 183.072 64.3103 182.151 64.1616C179.745 63.7454 177.131 64.2805 175.29 65.8561C174.785 66.2723 174.339 66.7777 174.131 67.402C173.805 68.3533 174.042 69.3937 174.309 70.345C174.547 71.2369 174.785 72.1287 175.022 73.0206C175.29 74.0313 175.676 75.2204 176.686 75.6069C177.22 75.815 177.844 75.7555 178.32 76.0528C179.092 76.5285 178.973 77.777 179.419 78.6689Z" fill="#EAC1A4"/>
<path d="M165.548 63.24C165.31 62.8536 165.043 62.4671 164.775 62.1401C164.152 61.3969 163.409 60.7429 162.904 59.8808C162.399 59.0484 162.221 57.889 162.815 57.1161C163.201 56.6107 163.825 56.3729 164.419 56.1945C166.409 55.6 168.548 55.5702 170.568 56.0756C172.499 56.5513 174.192 57.3539 176.122 56.6404C177.934 55.9567 179.241 56.2242 181.142 56.908C183.192 57.6215 185.955 57.7998 187.796 58.8403C188.569 59.2565 189.192 59.9402 189.668 60.6834C191.331 63.2698 191.361 66.8074 189.697 69.4235C189.341 70.018 188.895 70.5234 188.42 71.0585C187.469 72.099 186.311 73.407 184.974 73.7935C184.945 72.6044 186.014 68.8586 185.093 67.8776C183.638 66.3318 180.37 66.8669 178.558 67.2533C176.598 67.6695 174.845 69.0667 172.914 69.364C171.518 69.5721 169.736 68.8884 168.548 68.1749C167.092 67.2533 166.409 64.6373 165.548 63.24Z" fill="#1A3151"/>
<path d="M140.21 84.4957L136.438 82.058L137.388 80.3933L140.358 81.4932L140.448 80.4824L143.448 82.9499L142.675 84.8227L140.21 84.4957Z" fill="#AA6755"/>
<path d="M175.648 77.5394L155.924 85.6849L143.448 82.9499L142.23 85.3578L153.607 93.7114L169.291 91.8088L175.648 77.5394Z" fill="#145566"/>
<path d="M203.125 46.8899L202.798 41.9253L200.689 41.9847L200.154 45.4332L199.145 44.9873L199.947 49.1789L202.145 49.4167L203.125 46.8899Z" fill="#EAC1A4"/>
<path d="M184.172 80.2447L194.984 65.8564L199.945 49.179L202.886 49.2682L202.915 68.5616L192.697 88.955L184.172 80.2447Z" fill="#145566"/>
<path d="M120.843 185.065L120.754 187.146L124.794 189.406L126.962 187.444L125.002 185.273L120.962 183.014L120.843 185.065Z" fill="#DBDBDB"/>
<path d="M117.456 122.309L117.129 128.582L124.169 156.229L120.664 184.411L124.733 185.422L135.932 151.562L136.11 141.395L133.288 120.466L117.456 122.309Z" fill="#145566"/>
<path d="M148.319 121.656L151.498 147.905L150.25 182.33L146.448 182.746L140.626 151.74L132.012 121.031L148.319 121.656Z" fill="#145566"/>
<path d="M146.626 184.352L150.963 185.957L152.804 183.668L150.517 181.854L146.418 182.3L146.626 184.352Z" fill="#DBDBDB"/>
<path d="M149.836 117.286C145.915 109.319 144.311 100.549 142.261 91.9279C141.638 89.401 141.014 86.785 139.588 84.5851C137.954 82.0582 135.727 80.9286 133.231 80.5124C130.083 79.9773 126.518 80.5421 123.37 80.8097C121.469 86.785 120.221 83.396 117.963 89.2821C117.488 90.501 116.211 101.025 115.706 102.244C115.706 102.244 110.567 118.445 112.26 131.228C112.29 131.347 112.29 131.466 112.32 131.615C112.646 131.674 112.973 131.734 113.27 131.793C117.726 132.685 122.271 133.161 126.815 133.101C130.855 133.042 134.895 132.536 138.816 131.555C144.192 130.218 150.549 130.753 154.945 127.185C153.638 124.599 151.143 119.902 149.836 117.286Z" fill="white"/>
<path d="M152.061 57.3546L151.912 52.8657H149.981L149.417 55.9574L148.496 55.5412L149.12 59.3761L151.11 59.6437L152.061 57.3546Z" fill="#AA6755"/>
<path d="M133.676 80.2155L145.142 71.5052L149.122 59.3762L151.795 59.5248L153.221 73.5862L140.983 91.0365L133.676 80.2155Z" fill="white"/>
<path d="M120.842 70.4946C122.446 65.4111 129.783 63.568 131.595 69.3947C132.13 71.1486 132.457 73.0215 132.13 74.8349C131.803 76.6483 130.734 78.4022 129.041 79.1454H129.011C129.07 79.6211 129.16 80.067 129.219 80.5427C129.249 80.6318 129.249 80.7507 129.189 80.8399C129.13 80.9291 129.011 80.9588 128.892 80.9886C128.328 81.0778 127.763 81.1669 127.229 81.2561C126.961 81.3156 126.664 81.3453 126.397 81.2561C125.803 81.0778 125.565 80.394 125.536 79.7697C125.536 79.6211 125.536 79.4724 125.536 79.3238C122.209 78.2536 119.803 73.7944 120.842 70.4946Z" fill="#AA6755"/>
<path d="M130.972 62.1409C132.339 62.0815 133.348 63.4787 134.537 64.2813C135.517 64.9354 136.675 65.2029 137.685 65.7975C138.695 66.3623 139.675 67.4622 139.586 68.6811C140.715 68.2054 141.963 67.7595 143.151 68.0865C144.339 68.4432 145.319 69.9891 144.725 71.1485C144.191 72.189 142.765 72.3079 142.2 73.3186C141.309 74.9239 143.062 77.6886 141.577 78.6697C141.22 78.9075 140.775 78.9372 140.418 79.175C140.002 79.4723 139.794 80.0372 139.586 80.5425C138.547 82.8316 136.052 84.1396 133.735 83.6045C132.339 82.7721 131.329 81.256 130.942 79.5912C130.497 77.5995 131.596 77.0049 131.952 75.1915C132.339 73.1997 131.893 71.0296 130.794 69.3648C130.081 68.2649 128.982 67.2839 127.764 67.0758C127.259 66.9866 127.378 67.4028 126.843 66.9866C126.606 66.8082 126.338 66.1245 126.309 65.8272C127.794 64.8462 129.19 62.2301 130.972 62.1409Z" fill="#1A3151"/>
<path d="M116.505 63.2705C115.792 63.3894 115.049 63.3002 114.366 63.538C113.326 63.8651 113.297 64.9055 112.94 65.7974C112.524 66.7487 111.96 68.0567 111.217 68.7702C110.683 69.2755 109.999 69.5431 109.405 69.8998C108.782 70.2863 108.217 70.8511 108.158 71.6241C108.098 72.3673 108.544 73.051 108.544 73.7942C108.514 74.8941 108.277 75.4292 108.514 76.5886C108.633 77.1832 108.782 77.8075 109.168 78.2534C109.673 78.8182 110.504 78.8777 111.217 78.8479C111.93 78.7885 112.703 78.6696 113.356 78.9669C114.841 79.6209 114.396 81.137 114.693 82.4748C115.109 84.4963 117.277 85.8637 119.089 85.3286C120.634 84.8827 121.644 83.2477 121.733 81.5532C121.792 80.6911 121.525 79.8884 121.584 79.0263C121.644 78.1939 122.208 77.1237 121.525 76.4103C121.346 76.2319 121.139 76.1427 120.99 75.9346C120.871 75.786 120.812 75.5779 120.782 75.3698C120.693 74.686 120.901 73.9428 121.346 73.4672C121.673 73.1105 122.089 72.9024 122.327 72.4564C122.564 71.9511 122.475 71.3565 122.505 70.7619C122.564 69.3945 123.426 68.1162 124.614 67.6702C125.386 67.4027 126.099 67.254 126.812 66.7784C126.931 66.7189 128.535 65.5298 128.565 65.8271C128.535 65.3217 128.297 64.8461 128.03 64.4299C127.614 63.7164 127.139 63.0327 126.485 62.5868C124.406 61.1004 124.02 64.0434 122.297 63.5083C121.881 63.3597 121.584 62.9435 121.228 62.6759C120.544 62.1706 119.624 62.23 118.851 62.4976C118.02 62.7057 117.307 63.1219 116.505 63.2705Z" fill="#1A3151"/>
<path d="M99.7539 153.881L143.716 170.856L191.867 154.773L150.994 138.958L99.7539 153.881Z" fill="#1A6F82"/>
<path d="M178.707 156.506C178.726 146.409 170.562 138.208 160.473 138.189C150.384 138.17 142.19 146.34 142.171 156.437C142.152 166.535 150.316 174.735 160.405 174.754C170.494 174.773 178.688 166.603 178.707 156.506Z" fill="white"/>
<mask id="mask0_691_5494" style="mask-type:luminance" maskUnits="userSpaceOnUse" x="142" y="138" width="37" height="37">
<path d="M178.707 156.506C178.726 146.409 170.562 138.208 160.473 138.189C150.384 138.17 142.19 146.34 142.171 156.437C142.152 166.535 150.316 174.735 160.405 174.754C170.494 174.773 178.688 166.603 178.707 156.506Z" fill="white"/>
</mask>
<g mask="url(#mask0_691_5494)">
<path d="M172.288 145.498L172.704 145.171C172.614 145.052 170.535 142.317 166.436 140.742L166.258 141.247C170.238 142.763 172.288 145.468 172.288 145.498Z" fill="#5C5955"/>
<path d="M148.467 145.438C148.496 145.409 150.546 142.703 154.497 141.187L154.318 140.682C150.219 142.258 148.14 144.992 148.051 145.082L148.467 145.438Z" fill="#5C5955"/>
<path d="M173.806 166.248C175.053 164.91 176.033 162.8 176.746 159.946C177.251 157.835 177.43 156.081 177.43 156.081L176.895 156.022C176.895 156.081 176.271 162.859 173.449 165.891L173.806 166.248Z" fill="#5C5955"/>
<path d="M146.951 166.189L147.337 165.832C144.515 162.8 143.921 156.022 143.921 155.962L143.387 155.992C143.387 156.022 143.535 157.746 144.04 159.886C144.753 162.74 145.733 164.851 146.951 166.189Z" fill="#5C5955"/>
<path d="M160.05 173.293C162.426 173.293 164.298 172.847 164.416 172.818L164.298 172.312C164.268 172.312 160.02 173.323 156.277 172.312L156.129 172.818C157.466 173.145 158.832 173.293 160.05 173.293Z" fill="#5C5955"/>
</g>
<mask id="mask1_691_5494" style="mask-type:luminance" maskUnits="userSpaceOnUse" x="142" y="138" width="37" height="37">
<path d="M178.707 156.506C178.726 146.409 170.562 138.208 160.473 138.189C150.384 138.17 142.19 146.34 142.171 156.437C142.152 166.535 150.316 174.735 160.405 174.754C170.494 174.773 178.688 166.603 178.707 156.506Z" fill="white"/>
</mask>
<g mask="url(#mask1_691_5494)">
<path d="M160.437 149.629L166.645 154.148L164.239 161.461H156.576L154.199 154.148L160.437 149.629Z" fill="#1A3151"/>
</g>
<mask id="mask2_691_5494" style="mask-type:luminance" maskUnits="userSpaceOnUse" x="142" y="138" width="37" height="37">
<path d="M178.707 156.506C178.726 146.409 170.562 138.208 160.473 138.189C150.384 138.17 142.19 146.34 142.171 156.437C142.152 166.535 150.316 174.735 160.405 174.754C170.494 174.773 178.688 166.603 178.707 156.506Z" fill="white"/>
</mask>
<g mask="url(#mask2_691_5494)">
<path d="M160.439 145.676L154.23 141.157L156.637 133.844L164.3 133.874L166.647 141.187L160.439 145.676Z" fill="#1A3151"/>
</g>
<mask id="mask3_691_5494" style="mask-type:luminance" maskUnits="userSpaceOnUse" x="142" y="138" width="37" height="37">
<path d="M178.707 156.506C178.726 146.409 170.562 138.208 160.473 138.189C150.384 138.17 142.19 146.34 142.171 156.437C142.152 166.535 150.316 174.735 160.405 174.754C170.494 174.773 178.688 166.603 178.707 156.506Z" fill="white"/>
</mask>
<g mask="url(#mask3_691_5494)">
<path d="M166.23 165.415L173.893 165.534L176.18 172.877L169.883 177.307L163.734 172.699L166.23 165.415Z" fill="#1A3151"/>
<path d="M163.588 159.545L163.109 159.784L166.776 167.155L167.254 166.917L163.588 159.545Z" fill="#1A3151"/>
</g>
<mask id="mask4_691_5494" style="mask-type:luminance" maskUnits="userSpaceOnUse" x="142" y="138" width="37" height="37">
<path d="M178.707 156.506C178.726 146.409 170.562 138.208 160.473 138.189C150.384 138.17 142.19 146.34 142.171 156.437C142.152 166.535 150.316 174.735 160.405 174.754C170.494 174.773 178.688 166.603 178.707 156.506Z" fill="white"/>
</mask>
<g mask="url(#mask4_691_5494)">
<path d="M170.473 152.602L172.225 145.111L179.889 144.487L182.859 151.562L177.037 156.586L170.473 152.602Z" fill="#1A3151"/>
<path d="M172.443 151.436L164.895 154.713L165.107 155.204L172.656 151.926L172.443 151.436Z" fill="#1A3151"/>
</g>
<mask id="mask5_691_5494" style="mask-type:luminance" maskUnits="userSpaceOnUse" x="142" y="138" width="37" height="37">
<path d="M178.707 156.506C178.726 146.409 170.562 138.208 160.473 138.189C150.384 138.17 142.19 146.34 142.171 156.437C142.152 166.535 150.316 174.735 160.405 174.754C170.494 174.773 178.688 166.603 178.707 156.506Z" fill="white"/>
</mask>
<g mask="url(#mask5_691_5494)">
<path d="M154.555 165.504L146.861 165.564L144.574 172.906L150.812 177.366L156.991 172.787L154.555 165.504Z" fill="#1A3151"/>
<path d="M157.201 159.628L153.508 166.986L153.986 167.227L157.679 159.868L157.201 159.628Z" fill="#1A3151"/>
</g>
<mask id="mask6_691_5494" style="mask-type:luminance" maskUnits="userSpaceOnUse" x="142" y="138" width="37" height="37">
<path d="M178.707 156.506C178.726 146.409 170.562 138.208 160.473 138.189C150.384 138.17 142.19 146.34 142.171 156.437C142.152 166.535 150.316 174.735 160.405 174.754C170.494 174.773 178.688 166.603 178.707 156.506Z" fill="white"/>
</mask>
<g mask="url(#mask6_691_5494)">
<path d="M150.276 152.603L148.434 145.141L140.77 144.606L137.859 151.711L143.741 156.675L150.276 152.603Z" fill="#1A3151"/>
<path d="M148.293 151.469L148.086 151.962L155.67 155.156L155.877 154.663L148.293 151.469Z" fill="#1A3151"/>
</g>
<mask id="mask7_691_5494" style="mask-type:luminance" maskUnits="userSpaceOnUse" x="142" y="138" width="37" height="37">
<path d="M178.707 156.506C178.726 146.409 170.562 138.208 160.473 138.189C150.384 138.17 142.19 146.34 142.171 156.437C142.152 166.535 150.316 174.735 160.405 174.754C170.494 174.773 178.688 166.603 178.707 156.506Z" fill="white"/>
</mask>
<g mask="url(#mask7_691_5494)">
<path d="M160.184 141.837L160.168 150.517L160.703 150.518L160.719 141.838L160.184 141.837Z" fill="#1A3151"/>
</g>
<path d="M143.628 207.302L99.6953 185.036L99.7547 153.851L143.687 170.826L143.628 207.302Z" fill="#1A6F82"/>
<path d="M143.625 207.302L191.805 186.106L191.865 154.773L143.684 170.826L143.625 207.302Z" fill="#145566"/>
<path d="M139.851 146.063C137.682 146.747 136.494 149.066 137.207 151.236C137.89 153.406 140.207 154.595 142.376 153.881L148.049 152.068C150.217 151.384 151.406 149.066 150.693 146.895C150.01 144.725 147.693 143.536 145.524 144.25L139.851 146.063Z" fill="#3ABABA"/>
<path d="M145.849 159.321C143.413 158.073 140.413 159.024 139.166 161.462C137.918 163.9 138.869 166.902 141.304 168.151L147.721 171.45C150.156 172.699 153.156 171.748 154.404 169.31C155.652 166.872 154.701 163.87 152.265 162.621L145.849 159.321Z" fill="#3ABABA"/>
<path d="M124.881 166.04C126.128 163.602 129.129 162.651 131.564 163.9C134 165.148 134.951 168.151 133.703 170.588L130.406 177.01C129.158 179.447 126.158 180.399 123.722 179.15C121.287 177.901 120.336 174.899 121.584 172.461L124.881 166.04Z" fill="#B5D6CA"/>
<path d="M116.062 153.703C113.893 154.386 112.705 156.705 113.418 158.875C114.101 161.045 116.418 162.235 118.586 161.521L124.26 159.708C126.428 159.024 127.617 156.705 126.904 154.535C126.22 152.365 123.904 151.176 121.735 151.889L116.062 153.703Z" fill="#3ABABA"/>
<path d="M124.139 164.999C126.07 171.005 132.486 174.304 138.457 172.402C144.457 170.469 147.754 164.048 145.853 158.073L144.576 154.089C142.645 148.084 136.229 144.784 130.258 146.687C124.258 148.619 120.961 155.041 122.862 161.016L124.139 164.999Z" fill="#3ABABA"/>
<path d="M131.993 152.113C138.462 150.042 142.028 143.114 139.959 136.64C137.89 130.166 130.968 126.596 124.499 128.667C118.029 130.738 114.463 137.666 116.532 144.14C118.602 150.614 125.524 154.184 131.993 152.113Z" fill="#3ABABA"/>
<path d="M128.477 141.099C132.666 139.761 137.062 140.772 140.181 143.447C139.171 147.431 136.2 150.82 132.012 152.157C127.824 153.495 123.428 152.484 120.309 149.809C121.319 145.825 124.289 142.436 128.477 141.099Z" fill="#F4F1EF"/>
<path d="M137.485 135.805C140.516 134.835 142.188 131.589 141.218 128.555C140.248 125.521 137.005 123.848 133.973 124.819C130.942 125.789 129.271 129.036 130.24 132.069C131.21 135.103 134.454 136.776 137.485 135.805Z" fill="#3ABABA"/>
<path d="M118.067 142.048C121.098 141.078 122.77 137.832 121.8 134.798C120.83 131.764 117.587 130.091 114.555 131.062C111.524 132.032 109.853 135.278 110.822 138.312C111.792 141.346 115.036 143.019 118.067 142.048Z" fill="#3ABABA"/>
<path d="M133.738 137.976C134.394 137.766 134.756 137.063 134.546 136.406C134.336 135.749 133.634 135.387 132.977 135.597C132.321 135.807 131.959 136.51 132.169 137.167C132.379 137.824 133.081 138.186 133.738 137.976Z" fill="#1A3151"/>
<path d="M122.39 141.611C123.046 141.401 123.408 140.698 123.198 140.041C122.988 139.385 122.286 139.022 121.63 139.233C120.973 139.443 120.612 140.145 120.822 140.802C121.031 141.459 121.734 141.821 122.39 141.611Z" fill="#1A3151"/>
<path d="M126.245 146.271C126.423 145.914 126.869 145.795 127.196 145.974C127.909 146.331 128.651 146.449 129.394 146.36L128.503 143.536C126.928 143.031 126.631 141.901 126.631 141.901C126.453 141.336 126.75 140.652 127.314 140.474L129.067 139.909C129.631 139.731 130.255 140.088 130.433 140.682C130.463 140.801 130.79 141.842 129.869 143.09L130.79 145.914C131.443 145.558 131.978 145.022 132.364 144.309C132.542 143.952 132.988 143.833 133.315 144.012C133.671 144.19 133.79 144.636 133.612 144.963C132.958 146.241 131.829 147.133 130.552 147.549C129.275 147.966 127.849 147.876 126.572 147.222C126.186 147.044 126.067 146.628 126.245 146.271Z" fill="#1A3151"/>
<path d="M136.943 127.81C138.399 128.732 138.814 130.634 137.894 132.061L132.695 128.791C133.616 127.334 135.517 126.918 136.943 127.81Z" fill="white"/>
<path d="M113.861 135.212C114.515 133.637 116.297 132.864 117.901 133.518L115.554 139.225C113.98 138.601 113.237 136.788 113.861 135.212Z" fill="white"/>
<path d="M143.688 170.826L152.242 185.541L198.997 167.08L191.808 154.773L143.688 170.826Z" fill="#1A6F82"/>
<path d="M91.8516 163.662L133.586 183.49L143.685 170.826L99.7232 153.851L91.8516 163.662Z" fill="#145566"/>
<path d="M242.72 60.8914L240.047 58.1267L241.087 53.3702L243.7 53.4297L244.384 57.5916L245.691 58.424L245.661 60.4455L242.72 60.8914Z" fill="#EAC1A4"/>
<path d="M262.146 85.4767C263.453 85.4172 264.79 85.3578 266.097 85.2983C266.156 84.2578 266.156 83.1876 266.038 82.1471C266.038 82.2661 268.147 81.1661 268.325 80.8986C268.86 80.1851 268.919 78.9662 269.127 78.1041C269.602 76.261 270.048 74.2098 269.067 72.5747C268.058 70.8802 265.889 70.3154 263.929 70.256C261.463 70.1965 258.701 70.91 257.453 73.0504C256.324 74.953 257.75 77.7771 258.166 79.7986C258.374 80.8094 258.671 81.939 259.622 82.3552C260.127 82.5633 260.721 82.5633 261.136 82.8606C261.968 83.3957 261.79 84.5848 262.146 85.4767Z" fill="#EAC1A4"/>
<path d="M253.591 69.3938C253.442 68.0264 253.294 66.6589 253.145 65.2914C253.086 64.786 253.027 64.2509 253.205 63.7753C253.472 62.9726 254.274 62.4672 255.106 62.2591C255.908 62.051 256.769 62.0213 257.601 61.8429C258.492 61.6348 259.354 61.2484 260.245 61.2781C261.967 61.3376 263.274 62.9429 264.968 63.2104C267.314 63.5672 269.483 62.497 270.908 65.2617C271.176 65.767 271.235 66.3616 271.473 66.867C271.77 67.5507 272.305 68.0858 272.75 68.6804C274.621 71.3262 274.027 75.3692 271.77 77.6285C270.671 78.7284 270.225 79.7094 268.74 80.0662C269.423 78.669 268.502 73.0801 266.631 72.4558C266.126 72.2775 264.641 72.9017 264.076 72.9909C262.859 73.1693 261.67 73.3774 260.512 73.853C258.789 74.5665 256.947 75.0719 255.106 75.2205C254.868 75.2503 254.601 75.2503 254.423 75.1016C254.244 74.953 254.215 74.7151 254.185 74.4773C253.977 72.7828 253.799 71.0883 253.591 69.3938Z" fill="#1A3151"/>
<path d="M283.232 186.017L283.767 188.247L279.846 191.517L277.113 189.852L278.806 187.087L282.698 183.788L283.232 186.017Z" fill="#1A3151"/>
<path d="M274.115 117.286L275.749 124.034L273.759 155.427L283.294 185.244L279.106 187.176L260.065 152.781L257.778 141.782L256.59 118.505L274.115 117.286Z" fill="#145566"/>
<path d="M247.83 119.992L247.562 149.155L253.117 186.761H257.335L259.949 152.038L265.652 117.346L247.83 119.992Z" fill="#145566"/>
<path d="M257.305 186.255L257.334 188.544L252.76 190.833L250.473 188.544L252.76 186.255H257.305Z" fill="#1A3151"/>
<path d="M279.167 125.521C279.226 128.166 279.167 131.764 278.127 131.912C277.949 131.942 277.741 131.853 277.592 131.764C275.81 130.812 274.563 129.445 272.84 128.523C271.028 127.542 268.919 127.037 266.869 126.68C263.81 126.115 260.691 125.788 257.572 125.729C255.106 125.699 252.671 125.907 250.205 126.115C248.185 126.294 246.284 126.888 244.205 126.769C242.096 126.621 239.987 125.967 238.175 124.867C238.115 124.837 238.026 124.777 237.997 124.718C237.967 124.629 237.997 124.54 238.026 124.48C238.472 123.291 238.769 122.102 239.541 121.121C240.432 120.021 241.026 118.624 241.68 117.375C242.987 114.759 244.235 112.024 245.155 109.259C246.551 105.484 248.126 101.798 249.492 98.0223C250.413 95.4063 251.274 92.7307 252.552 90.2336C253.532 88.2715 255.314 85.4474 257.453 84.5853C258.166 84.288 258.968 84.2583 259.74 84.2285C262.116 84.1691 264.463 84.0799 266.839 84.0204C267.701 83.9907 268.592 83.961 269.394 84.3177C270.582 84.8528 271.236 86.0717 271.83 87.2311C274.444 92.4037 276.107 97.9629 277.058 103.73C277.563 106.733 278.008 109.735 278.365 112.767C278.751 116.127 279.048 119.516 279.107 122.905C279.078 123.202 279.137 124.272 279.167 125.521Z" fill="#3ABABA"/>
<path d="M251.511 93.8299L237.996 82.8306L241.353 59.5536L246.521 59.5238L245.779 79.7091L257.72 85.5061L251.511 93.8299Z" fill="#3ABABA"/>
<path d="M257.04 110.364L252.805 109.429L238.325 175.093L242.56 176.028L257.04 110.364Z" fill="#1A3151"/>
<path d="M232.649 156.734L229.916 169.161C227.332 180.933 237.639 188.276 237.639 188.276C237.639 188.276 250.085 185.957 252.699 174.185L255.432 161.758L232.649 156.734Z" fill="#DBDBDB"/>
<path d="M254.122 113.54L253.528 113.123C253.172 112.856 244.766 106.762 246.964 96.7731L247.35 95.0786L268.054 99.6567L267.667 101.351C265.469 111.34 255.281 113.332 254.835 113.421L254.122 113.54ZM250.112 99.2405C249.756 104.681 253.469 108.516 254.954 109.794C256.855 109.259 261.816 107.386 263.776 102.273L250.112 99.2405Z" fill="#DBDBDB"/>
<path d="M257.055 110.367L252.82 109.432L250.9 118.14L255.135 119.076L257.055 110.367Z" fill="#DBDBDB"/>
<path d="M263.01 108.337L261.079 109.11L259.416 108.337L259.059 108.634L259.386 109.051L257.812 108.843L256.742 109.497L256.594 111.191L257.604 112.677L259.297 112.618L261.02 111.548L263.693 110.597L263.01 108.337Z" fill="#EAC1A4"/>
<path d="M260.781 107.832L271.564 100.965L269.366 84.228L280.772 93.1464L279.02 107.951L262.237 111.607L260.781 107.832Z" fill="#3ABABA"/>
</g>
<defs>
<clipPath id="clip0_691_5494">
<rect width="321" height="217" fill="white"/>
</clipPath>
</defs>
</svg>
