<svg width="939" height="686" fill="none" xmlns="http://www.w3.org/2000/svg"><path d="M899.26 685.982c-19.362 0-126.124.04-259.985 0-34.546 0-70.944 0-108.069-.039h-19.689c-26.59 0-53.471-.039-80.28-.039h-21.614c-43.555-.039-86.637-.079-127.649-.118-159.725-.196-206.73-1.611-206.73-1.69-.328-.825-146.83-81.581-30.115-250.558 58.703-85.079-8.173-177.584 41.884-258.694 70.799-114.787 188.023-47.471 268.448-83.86 14.204-6.405 28.48-16.74 42.756-32.616 8.028-8.92 16.855-16.702 26.263-23.46a177.953 177.953 0 0 1 4.396-3.027c5.63-3.772 11.479-7.152 17.509-10.217a171.399 171.399 0 0 1 12.387-5.698 203.39 203.39 0 0 1 20.524-7.191 213.479 213.479 0 0 1 30.587-6.445A224.06 224.06 0 0 1 523.65.836c89.87-7.27 190.965 33.6 243.166 93.331 10.498 12.025 58.266 74.272 20.633 159.783-23.794 53.994 75.848 105.591 111.23 167.248 89.979 156.796 1.38 262.741.581 264.784Z" fill="#D9E3F7"/><path d="M130.09 246.994s16.976-34.11 57.57-30.338c0 0 58.907-56.863 121.743-7.584 0 0 66.805-12.221 116.241 10.571 32.97 15.208 43.855 31.123 43.855 31.123l-339.409-3.772Z" fill="#F8FCFF"/><g opacity=".5" fill="#AEC3FF"><path opacity=".5" d="M337.855 519.559s-40.476-38.432-83.467-45.742c-5.698-.982-9.471 5.816-5.698 10.178.078.079.117.157.196.236 6.602 7.388 57.688 19.177 88.969 35.328Z"/><path opacity=".5" d="M350.626 529.58s-66.019-35.21-122.803-27.901c-3.458.432-6.091 3.498-5.777 6.995.196 2.279 1.611 4.873 5.659 7.466 10.767 6.917 78.437 4.009 122.921 13.44Z"/></g><g opacity=".5" fill="#AEC3FF"><path opacity=".5" d="M592.421 463.482s32.263-30.612 66.491-36.428c4.558-.786 7.545 4.597 4.519 8.095l-.157.157c-5.266 5.934-45.978 15.287-70.853 28.176Z"/><path opacity=".5" d="M582.244 471.459s52.58-28.058 97.811-22.242c2.751.354 4.873 2.79 4.597 5.58-.157 1.808-1.296 3.891-4.519 5.974-8.566 5.501-62.482 3.183-97.889 10.688Z"/></g><path opacity=".3" d="M321.861 557.52s8.095 34.385 1.572 35.485c-6.524 1.101-6.249-38.943-6.249-38.943s-32.931-14.069-45.506-12.261c0 0 21.496 32.97 14.933 32.459-6.563-.51-30.534-33.795-30.534-33.795s-33.324-4.637-37.725 15.169c-4.441 19.805 4.558 29.237 9.51 30.219 4.951.983 36.35-.825 35.721 3.301-.629 4.126-21.574 11.593-33.56 8.449 0 0 14.501 31.634 31.556 29.237 17.055-2.397 21.888-13.243 32.459-14.54 10.571-1.297 18.431 1.218 13.283 4.323-5.188 3.104-23.225 1.965-31.438 9.628-8.252 7.663-15.012 12.653 1.061 15.011 44.013 6.484 54.859-25.739 54.859-25.739s29.826-18.509 14.5-41.105c0 0-12.064-13.754-24.442-16.898Z" fill="#AEC3FF"/><path opacity=".5" d="M644.805 505.412c-3.93-20.002-37.529-16.19-37.529-16.19s-24.914 32.813-31.516 33.167c-6.602.353 15.836-32.185 15.836-32.185-12.614-2.122-46.017 11.161-46.017 11.161s-.746 40.24-7.23 38.982c-6.484-1.257 2.476-35.603 2.476-35.603-12.536 2.83-24.993 16.348-24.993 16.348-15.955 22.321 13.518 41.655 13.518 41.655s-.55 13.95-10.257 29.315c0 0-2.161 2.83-4.48 7.663l3.341.236c.353-.864.707-1.729 1.1-2.515v-.039c.275-.511.629-1.218 1.1-2.083 1.179-1.925 1.965-3.379 2.476-4.401 3.497-6.052 8.488-13.951 11.553-15.444 0 0-.314-.55-.589-1.572.196.511.393 1.022.589 1.572 4.873 12.693 33.364 16.741 49.554 14.579 16.19-2.161 9.549-7.152 1.454-15.05-8.095-7.899-26.211-7.231-31.32-10.493-5.108-3.222 2.869-5.541 13.44-4.008 10.571 1.572 15.169 12.575 32.223 15.404 17.055 2.83 32.421-28.569 32.421-28.569-12.143 2.869-32.931-5.187-33.482-9.313-.55-4.166 30.927-1.533 35.957-2.437 5.03-.943 14.305-10.138 10.375-30.18ZM425.723 634.935c1.847 4.166 25.975 6.131 37.686-.55 0 0-6.327 37.411-24.993 39.69-18.627 2.28-26.762-7.78-38.276-6.13-11.474 1.611-19.098 6.484-12.771 8.292 6.327 1.807 24.993-4.48 35.839 1.297 4.991 2.632 9.47 4.715 11.278 6.916h-14.304c-19.334 0-38.904 0-58.396-.039-.235-1.572-.471-2.437-.471-2.437s-36.625-11.082-26.879-39.179c0 0 8.802-17.88 20.984-24.679 0 0 1.179 38.472 8.331 37.804 7.152-.668-4.401-42.755-4.401-42.755s30.691-24.089 44.445-25.74c0 0-13.361 40.751-6.563 38.354 6.76-2.397 22.636-44.17 22.636-44.17s33.756-14.265 44.012 5.345c10.257 19.609 3.419 32.066-1.493 34.503-4.912 2.397-38.472 9.352-36.664 13.478Z" fill="#AEC3FF"/><path d="M387.566 129.653s13.126-24.679 44.485-21.928c0 0 45.506-41.144 94.077-5.502 0 0 51.597-8.842 89.834 7.663 25.464 11.003 33.913 22.517 33.913 22.517l-262.309-2.75ZM590.731 89.255s6.681-13.44 22.675-11.946c0 0 23.225-22.4 47.942-2.987 0 0 26.29-4.794 45.782 4.166 13.007 5.973 17.29 12.26 17.29 12.26l-133.689-1.493ZM144.822 158.811s6.681-13.439 22.675-11.946c0 0 23.224-22.399 47.942-2.987 0 0 26.29-4.794 45.781 4.166 13.008 5.973 17.291 12.261 17.291 12.261l-133.689-1.494Z" fill="#F8FCFF"/><path d="M591.164 647.982c2.633 1.061 12.104.197 12.418-.55.315-.747-5.894-7.977-8.527-9.038-2.633-1.061-5.659.196-6.72 2.868-1.1 2.633.197 5.62 2.829 6.72ZM615.017 652.462c-1.493 2.436-2.161 11.907-1.454 12.339.708.433 8.803-4.519 10.296-6.955 1.493-2.437.707-5.62-1.729-7.113-2.436-1.493-5.619-.707-7.113 1.729ZM602.286 671.01c2.711.865 12.064-.707 12.339-1.493.236-.786-6.484-7.506-9.195-8.37-2.712-.865-5.62.629-6.485 3.34-.864 2.712.629 5.659 3.341 6.523Z" fill="#A8D29F"/><path d="M616.039 680.167c0-.197-1.061-21.653-12.771-32.696l.235-.275c11.829 11.161 12.89 32.735 12.89 32.971h-.354ZM655.219 648.414c-1.651 1.101-8.174 1.808-8.489 1.336-.314-.471 2.908-6.208 4.52-7.309 1.65-1.1 3.851-.629 4.951 1.022a3.554 3.554 0 0 1-.982 4.951ZM639.657 654.781c1.336 1.454 3.104 7.78 2.711 8.173-.432.393-6.602-1.847-7.938-3.301-1.336-1.454-1.257-3.733.197-5.069 1.454-1.336 3.654-1.257 5.03.197ZM650.857 665.626c-1.729.983-8.292 1.179-8.567.708-.275-.472 3.341-5.973 5.07-6.956 1.729-.982 3.89-.353 4.872 1.376.983 1.689.354 3.89-1.375 4.872Z" fill="#A8D29F"/><path d="M642.761 673.722c-.039-.157-2.279-14.855 4.165-23.971l-.196-.158c-6.484 9.235-4.205 24.011-4.205 24.168l.236-.039ZM631.17 678.909l-.747-.118c-2.947-38.039-14.54-65.351-14.736-65.705l.668-.275c.196.354 11.867 27.823 14.815 66.098Z" fill="#A8D29F"/><path d="M607.827 609.274c1.415 1.612 8.135 4.244 8.606 3.812.472-.393-1.296-7.388-2.711-8.999-1.415-1.611-3.891-1.768-5.541-.353-1.651 1.414-1.808 3.89-.354 5.54Z" fill="#CCDBFD"/><path d="M618.083 603.616c-1.297 1.729-2.476 8.841-1.965 9.195.511.354 6.956-2.79 8.252-4.519a3.94 3.94 0 0 0-.786-5.502c-1.729-1.296-4.204-.904-5.501.826Z" fill="#CCDBFD"/><path d="M625.825 611.161c-2.082-.55-9.117.943-9.274 1.532-.157.59 5.148 5.463 7.231 6.052 2.083.55 4.244-.668 4.794-2.751.55-2.122-.668-4.283-2.751-4.833Z" fill="#CCDBFD"/><path d="M621.07 620.553c-.197-2.162-4.126-8.213-4.716-8.135-.629.079-3.301 6.759-3.065 8.881.197 2.162 2.122 3.734 4.283 3.537 2.122-.196 3.694-2.122 3.498-4.283Z" fill="#CCDBFD"/><path d="M610.381 620.12c1.926-1.021 6.052-6.916 5.777-7.466-.275-.55-7.467-.511-9.392.511-1.926 1.022-2.672 3.379-1.651 5.305 1.022 1.926 3.341 2.633 5.266 1.65Z" fill="#CCDBFD"/><path d="M617.453 612.854a1.297 1.297 0 1 0-2.562-.408 1.297 1.297 0 0 0 2.562.408Z" fill="#163560"/><path d="M630.935 640.044c-2.123 2.633-4.441 13.597-3.694 14.226.746.628 11.042-3.891 13.164-6.484 2.122-2.633 1.729-6.484-.904-8.606-2.554-2.162-6.405-1.769-8.566.864ZM588.808 682.799h-.511c-5.305-24.993-15.405-42.087-15.523-42.323l.433-.236c.118.236 10.296 17.448 15.601 42.559Z" fill="#A8D29F"/><path d="M567.194 638.629c1.1.943 5.776 2.083 6.051 1.769.275-.315-1.493-4.795-2.593-5.738a2.616 2.616 0 0 0-3.694.275 2.577 2.577 0 0 0 .236 3.694Z" fill="#CCDBFD"/><path d="M573.521 633.992c-.707 1.258-.865 6.091-.511 6.288.354.196 4.362-2.476 5.069-3.733.708-1.258.236-2.869-1.021-3.577-1.258-.707-2.83-.235-3.537 1.022Z" fill="#CCDBFD"/><path d="M579.297 638.315c-1.454-.196-5.973 1.415-6.013 1.847-.039.393 3.891 3.183 5.345 3.379a2.617 2.617 0 0 0 2.947-2.239c.157-1.454-.864-2.791-2.279-2.987Z" fill="#CCDBFD"/><path d="M576.979 644.996c-.315-1.415-3.458-5.07-3.851-4.991-.393.078-1.572 4.755-1.258 6.169.314 1.415 1.729 2.28 3.144 1.965 1.415-.353 2.279-1.729 1.965-3.143Z" fill="#CCDBFD"/><path d="M569.826 645.624c1.179-.825 3.419-5.108 3.183-5.462-.236-.354-5.03.314-6.209 1.179-1.179.825-1.454 2.476-.629 3.654.826 1.179 2.476 1.454 3.655.629Z" fill="#CCDBFD"/><path d="M573.905 640.144a.865.865 0 1 0-1.73-.044.865.865 0 0 0 1.73.044Z" fill="#163560"/><path d="M585.231 657.02c-1.179 1.926-1.729 9.432-1.179 9.746.55.354 6.995-3.537 8.174-5.462 1.179-1.926.59-4.441-1.336-5.62-1.965-1.179-4.48-.589-5.659 1.336ZM669.483 679.498l.668-.118c2.633-33.874 12.968-58.199 13.126-58.513l-.59-.275c-.157.354-10.571 24.836-13.204 58.906Z" fill="#A8D29F"/><path d="M690.272 617.487c-1.257 1.454-7.23 3.773-7.662 3.419-.393-.353 1.139-6.562 2.436-8.016 1.297-1.454 3.497-1.572 4.912-.315a3.445 3.445 0 0 1 .314 4.912Z" fill="#CCDBFD"/><path d="M681.116 612.418c1.139 1.533 2.2 7.86 1.768 8.213-.432.315-6.209-2.475-7.349-4.008-1.139-1.533-.825-3.733.708-4.873 1.532-1.139 3.733-.864 4.873.668Z" fill="#CCDBFD"/><path d="M674.278 619.177c1.847-.51 8.135.826 8.292 1.376.157.55-4.558 4.873-6.445 5.384-1.847.51-3.772-.59-4.283-2.437-.55-1.925.55-3.851 2.436-4.323Z" fill="#CCDBFD"/><path d="M678.484 627.548c.196-1.926 3.655-7.31 4.205-7.27.55.039 2.908 6.012 2.75 7.938-.196 1.925-1.886 3.34-3.811 3.143-1.926-.196-3.301-1.886-3.144-3.811Z" fill="#CCDBFD"/><path d="M687.993 627.115c-1.689-.904-5.383-6.13-5.108-6.641.275-.472 6.68-.432 8.37.472 1.69.903 2.358 3.025 1.454 4.715a3.493 3.493 0 0 1-4.716 1.454Z" fill="#CCDBFD"/><path d="M683.041 621.61a1.14 1.14 0 1 0-.36-2.251 1.14 1.14 0 0 0 .36 2.251Z" fill="#163560"/><path d="M667.952 653.955c1.886 2.319 3.929 12.104 3.261 12.654-.668.55-9.824-3.458-11.71-5.777-1.887-2.318-1.533-5.776.786-7.663a5.402 5.402 0 0 1 7.663.786ZM562.006 685.432s3.772-9.863 17.408-10.492c13.637-.629 23.029 7.427 34.307 3.733 11.278-3.733 29.944-12.143 47.589-6.523 17.644 5.58 20.631 13.321 20.631 13.321H562.006v-.039ZM129.98 685.354h23.579c1.257-1.061-.865-3.498-3.105-3.655-.982-.079-2.201.118-3.615.432-.315-4.322-2.162-23.657-9.157-22.91-7.859.864 0 8.527 2.201 13.047 1.651 3.34 3.38 8.173 4.166 10.453-.629.157-1.297.275-1.965.393-1.022-3.183-4.912-13.951-9.825-13.322-5.776.747-3.458 5.03.629 7.584 2.987 1.887 6.681 4.559 8.449 5.855-1.493.236-3.026.393-4.598.354-4.008-.039-6.012 1.14-6.759 1.769ZM756.292 684.528h-23.579c-1.257-1.061.865-3.497 3.105-3.654.982-.079 2.2.118 3.615.432.315-4.323 2.161-23.657 9.156-22.91 7.86.864 0 8.527-2.2 13.047-1.651 3.34-3.38 8.173-4.166 10.453.629.157 1.297.275 1.965.393 1.022-3.184 4.912-13.951 9.824-13.322 5.777.746 3.459 5.03-.628 7.584-2.987 1.886-6.681 4.559-8.449 5.855 1.493.236 3.026.393 4.598.354 4.008-.078 5.973 1.14 6.759 1.768Z" fill="#A8D29F"/><path fill-rule="evenodd" clip-rule="evenodd" d="M465.691 203.924s90.619-102.487 154.477-14.855c19.628 26.948 11.961 60.589-8.076 94.264 0 0-51.51 15.583-85.388 15.325-21.625-.164-37.856-7.615-53.86-14.962-17.328-7.955-34.39-15.788-57.744-14.117-35.34 2.527-56.324 9.628-85.937 29.079-28.233-42.723-42.836-86.916-16.809-118.588 68.848-83.781 153.337 23.854 153.337 23.854Z" fill="url('#paint0_linear_308_896')"/><path d="M329.163 298.658c46.453 70.295 129.808 136.608 129.808 136.608s107.968-76.051 153.121-151.933c0 0-51.51 15.583-85.388 15.325-21.625-.164-37.856-7.615-53.86-14.962-17.328-7.955-34.39-15.788-57.744-14.117-35.34 2.527-56.324 9.628-85.937 29.079Z" fill="url('#paint1_linear_308_896')"/><path d="M591.095 220.492c-6.76 2.161-14.147-.472-17.92-6.445-4.087-6.405-10.649-13.754-20.238-15.954-6.445-1.454-10.492-7.86-8.999-14.305 1.454-6.444 7.859-10.492 14.304-8.999 20.749 4.716 32.656 21.182 38.472 32.224 2.712 5.187.039 11.671-5.619 13.479ZM438.149 401.18c-11.946-11.514-44.288-47.353-44.288-47.353-5.226-5.069-12.811-17.133-7.741-22.36 5.069-5.226 19.688 8.056 24.914 13.125 0 0 23.421 28.569 36.586 38.079 14.422 10.453 20.316 18.588 15.247 23.814-2.554 2.673-14.225 4.834-24.718-5.305Z" fill="#fff" fill-opacity=".5"/><path d="M251.421 383.08c1.965 8.723 5.855 25.543 20.513 45.859 10.61 14.658 30.73 36.311 50.457 64.605 14.226 20.395 22.478 32.459 26.998 39.14 3.222 4.755 5.462 10.06 6.562 15.601l-34.11 102.487 81.11 7.113s30.573-106.771 30.573-151.53v-.04c0-5.187.039-10.728.196-16.622.59-27.39 8.528-49.004-70.656-49.751-.314 0-.629-.235-.982-.353-3.105-1.179-7.821-3.34-14.737-8.96a104.556 104.556 0 0 1-3.694-3.104c-7.741-6.838-15.051-12.222-21.967-16.466-36.035-22.36-72.071-35.918-70.263-27.979Z" fill="#FFB27D"/><path d="M245.763 331.089c1.178-12.889 10.767-53.365 10.767-53.365s9.392 2.161 12.811 8.174c10.06 17.565 6.759 52.265 6.248 52.461 0 0 16.348 31.477 19.138 51.715 0 0 43.423 23.579 52.579 40.476a22.123 22.123 0 0 1 1.336 3.026c1.258 3.812 1.769 8.999 1.69 14.776-.314 20.474-8.409 48.218-20.513 46.056-2.986-.55-72.857-78.673-75.765-92.427-.629-3.222-8.92-64.015-8.291-70.892Z" fill="#FFB27D"/><path d="M358.662 418.761s2.083 19.885-18.509 2.437l-1.65 22.831 28.687 15.248 9.746-16.78-18.274-23.736Z" fill="#FFB27D"/><path d="M258.573 297.726a7.32 7.32 0 0 0 .786-2.476s1.101-7.859 1.887-13.596c.51-3.812-2.044-6.877-3.459-7.428-.903-.353-6.523 14.344-6.759 28.216 3.301.039 6.131-2.004 7.545-4.716Z" fill="#FFC69F"/><path d="M294.766 390.074c9.392 3.065 66.49 41.93 69.595 43.109 7.152 9.039 8.331 22.36 4.873 23.854-4.716 2.004-15.208-2.044-22.203-8.449-9.392-8.606-12.104-19.963-14.894-26.251-1.257-2.829-9.588-6.955-12.732-11.121-8.331-10.924-23.578-20.317-24.639-21.142Z" fill="#F6A56E"/><path d="M404.051 427.171s-74.35-59.889-82.563-75.097c0 0-13.086 4.715-7.86 24.6 5.227 19.845 41.773 55.527 43.974 69.595 8.213 52.855 38.236 69.124 38.236 69.124s81.463-29.08 8.213-88.222Z" fill="#FFB27D"/><path d="M326.242 374.237c-.668-.55-1.297-1.178-1.768-1.925l-7.624-11.711c-2.122-3.261-1.454-7.505 1.611-10.02.747-.629 1.219-.904 1.219-.904 3.615 3.104 12.928 8.92 19.137 21.495-3.419 2.437-10.099 4.991-12.575 3.065Z" fill="#FFC69F"/><path d="M431.245 573.867s-.354 9.864-.943 25.543c0 .393-.04.826-.04 1.258-.825 21.417-2.082 53.012-3.497 84.882-47.117-.04-93.724-.079-138.09-.118 13.086-26.133 35.328-68.613 48.846-94.235 6.406-12.182 10.846-20.552 11.357-21.535.039-.078.039-.118.039-.118a16.642 16.642 0 0 1 2.515-2.947c1.258-1.218 2.633-2.279 4.166-3.144 12.457-7.309 33.206-3.851 49.789.983 7.663 2.24 14.422 4.755 19.099 6.602 3.183 1.297 5.423 2.279 6.287 2.672.315.079.472.157.472.157Z" fill="#02CECB"/><path d="M430.262 600.668s-32.813 8.881-51.794 9.156l-6.994-13.047-6.131 11.004s-23.971-7.27-28.844-14.383l16.701-30.063 77.769 1.572-.707 35.761Z" fill="#069E9C"/><path d="M428.887 548.285s10.099 23.499 12.261 51.322c0 0-39.533 4.401-58.357 2.083l-8.252-32.656-11.986 28.372s-21.77-2.829-29.355-8.684c0 0 14.108-24.129 22.989-40.123-.039-.039 36.625 11.003 72.7-.314Z" fill="#F3F8FF"/><path d="M404.955 593.28c.982-1.808.236-4.008-1.69-4.952-1.925-.943-4.244-.235-5.226 1.572-.983 1.808-.236 4.009 1.689 4.952 1.926.943 4.284.236 5.227-1.572Z" fill="#02CECB"/><path d="M666.124 383.08c-1.965 8.723-5.855 25.543-20.513 45.859-10.61 14.658-30.73 36.311-50.457 64.605-14.226 20.395-22.478 32.459-26.998 39.14-3.222 4.755-5.462 10.06-6.562 15.601l34.11 102.487-81.11 7.113s-30.573-106.771-30.573-151.53v-.04c0-5.187-.039-10.728-.196-16.622-.59-27.39-8.528-49.004 70.656-49.751.314 0 .629-.235.982-.353 3.105-1.179 7.821-3.34 14.737-8.96a104.556 104.556 0 0 0 3.694-3.104c7.741-6.838 15.051-12.222 21.967-16.466 36.035-22.36 72.071-35.918 70.263-27.979Z" fill="#FFB27D"/><path d="M671.784 331.089c-1.179-12.889-10.768-53.365-10.768-53.365s-9.392 2.161-12.811 8.174c-10.06 17.565-6.759 52.265-6.248 52.461 0 0-16.348 31.477-19.138 51.715 0 0-43.423 23.579-52.579 40.476a22.246 22.246 0 0 0-1.336 3.026c-1.258 3.812-1.769 8.999-1.69 14.776.314 20.474 8.409 48.218 20.513 46.056 2.987-.55 72.857-78.673 75.765-92.427.629-3.222 8.92-64.015 8.292-70.892Z" fill="#FFB27D"/><path d="M558.883 418.761s-2.083 19.885 18.509 2.437l1.65 22.831-28.687 15.248-9.746-16.78 18.274-23.736Z" fill="#FFB27D"/><path d="M658.972 297.726a7.32 7.32 0 0 1-.786-2.476s-1.1-7.859-1.886-13.596c-.511-3.812 2.043-6.877 3.458-7.428.904-.353 6.523 14.344 6.759 28.216-3.301.039-6.13-2.004-7.545-4.716Z" fill="#FFC69F"/><path d="M622.78 390.074c-9.392 3.065-66.491 41.93-69.596 43.109-7.152 9.039-8.331 22.36-4.873 23.854 4.716 2.004 15.208-2.044 22.203-8.449 9.392-8.606 12.104-19.963 14.894-26.251 1.257-2.829 9.588-6.955 12.732-11.121 8.331-10.924 23.579-20.317 24.64-21.142Z" fill="#F6A56E"/><path d="M513.494 427.171s74.35-59.889 82.563-75.097c0 0 13.086 4.715 7.86 24.6-5.227 19.845-41.773 55.527-43.974 69.595-8.213 52.855-38.236 69.124-38.236 69.124s-81.463-29.08-8.213-88.222Z" fill="#FFB27D"/><path d="M591.302 374.237c.668-.55 1.297-1.178 1.768-1.925 0 0 4.402-6.759 7.624-11.711 2.122-3.261 1.454-7.505-1.611-10.02-.747-.629-1.218-.904-1.218-.904-3.616 3.104-13.479 9.47-19.688 22.006 2.986 1.297 10.649 4.48 13.125 2.554Z" fill="#FFC69F"/><path d="M628.989 685.628c-43.974 0-90.659 0-138.208-.039-1.415-31.87-2.673-63.504-3.498-84.921 0-.432-.039-.825-.039-1.258-.59-15.64-.943-25.543-.943-25.543s.157-.078.432-.196c.904-.393 3.105-1.376 6.288-2.672 4.676-1.887 11.474-4.402 19.098-6.602 16.623-4.834 37.332-8.331 49.789-.983 1.533.865 2.909 1.926 4.166 3.144a26.137 26.137 0 0 1 2.515 2.947s0 .04.039.118c.55 1.022 4.952 9.392 11.357 21.535 13.597 25.7 35.957 68.338 49.004 94.47Z" fill="#02CECB"/><path d="M487.323 600.668s32.813 8.881 51.793 9.156l6.995-13.047 6.131 11.004s23.971-7.27 28.844-14.383l-16.702-30.063-77.769 1.572.708 35.761Z" fill="#069E9C"/><path d="M488.658 548.285s-10.099 23.499-12.261 51.322c0 0 39.533 4.401 58.357 2.083l8.252-32.656 11.986 28.372s21.77-2.829 29.355-8.684c0 0-14.108-24.129-22.989-40.123.039-.039-36.625 11.003-72.7-.314Z" fill="#F3F8FF"/><path d="M512.59 593.28c-.982-1.808-.235-4.008 1.69-4.952 1.926-.943 4.244-.235 5.227 1.572.982 1.808.236 4.009-1.69 4.952-1.926.943-4.244.236-5.227-1.572Z" fill="#02CECB"/><path d="m198.266 682.878-.51-.079c-2.044-26.486-10.139-45.467-10.257-45.742l.472-.196c.117.236 8.252 19.373 10.295 46.017Z" fill="#A8D29F"/><path d="M181.997 634.385c.982 1.14 5.659 2.947 5.973 2.672.314-.275-.904-5.148-1.886-6.287-.983-1.14-2.712-1.218-3.851-.236-1.101 1.022-1.219 2.712-.236 3.851Z" fill="#CCDBFD"/><path d="M189.189 630.456c-.904 1.218-1.729 6.169-1.376 6.405.354.275 4.834-1.926 5.738-3.144.903-1.218.668-2.908-.551-3.812-1.218-.903-2.947-.668-3.811.551Z" fill="#CCDBFD"/><path d="M194.534 635.721c-1.454-.393-6.366.668-6.484 1.061-.118.393 3.576 3.812 5.03 4.205a2.725 2.725 0 0 0 3.34-1.925c.432-1.454-.432-2.948-1.886-3.341Z" fill="#CCDBFD"/><path d="M191.232 642.245c-.157-1.494-2.868-5.698-3.301-5.659-.432.039-2.279 4.676-2.161 6.209.157 1.493 1.493 2.593 2.987 2.436 1.493-.157 2.633-1.454 2.475-2.986Z" fill="#CCDBFD"/><path d="M183.805 641.93c1.336-.707 4.205-4.794 4.009-5.187-.197-.393-5.227-.354-6.563.354a2.731 2.731 0 0 0-1.14 3.694 2.73 2.73 0 0 0 3.694 1.139Z" fill="#CCDBFD"/><path d="M188.667 636.904a.904.904 0 1 0-1.785-.283.904.904 0 0 0 1.785.283Z" fill="#233862"/><path d="M195.83 644.406c-1.493 1.808-3.065 9.471-2.554 9.903.511.432 7.663-2.712 9.156-4.519 1.494-1.808 1.219-4.519-.628-5.973-1.808-1.533-4.48-1.258-5.974.589ZM192.176 666.373c1.533.747 4.951 5.305 4.716 5.738-.197.432-5.895.55-7.467-.197-1.532-.747-2.161-2.594-1.415-4.165.786-1.494 2.633-2.122 4.166-1.376ZM213.121 682.878l.59-.079c2.357-30.416 11.631-52.226 11.749-52.501l-.55-.236c-.118.276-9.47 22.243-11.789 52.816Z" fill="#A8D29F"/><path d="M231.748 627.194c-1.14 1.297-6.523 3.38-6.877 3.065-.354-.314 1.022-5.894 2.161-7.191 1.14-1.297 3.105-1.415 4.441-.275 1.297 1.139 1.454 3.104.275 4.401Z" fill="#CCDBFD"/><path d="M223.535 622.675c1.022 1.375 1.965 7.073 1.572 7.348-.393.315-5.58-2.24-6.602-3.615-1.022-1.375-.747-3.34.629-4.401 1.414-.983 3.379-.708 4.401.668Z" fill="#CCDBFD"/><path d="M217.365 628.727c1.651-.472 7.309.746 7.427 1.218.118.471-4.126 4.362-5.776 4.833-1.651.472-3.38-.511-3.852-2.2a3.17 3.17 0 0 1 2.201-3.851Z" fill="#CCDBFD"/><path d="M221.177 636.232c.158-1.729 3.301-6.562 3.773-6.523.511.039 2.633 5.384 2.476 7.113a3.135 3.135 0 0 1-3.419 2.829c-1.729-.157-2.987-1.69-2.83-3.419Z" fill="#CCDBFD"/><path d="M229.704 635.879c-1.532-.786-4.833-5.502-4.597-5.934.236-.432 5.973-.393 7.505.393 1.533.786 2.123 2.711 1.337 4.244a3.2 3.2 0 0 1-4.245 1.297Z" fill="#CCDBFD"/><path d="M225.282 630.934a1.022 1.022 0 1 0-.32-2.019 1.022 1.022 0 0 0 .32 2.019Z" fill="#233862"/><path d="M213.279 651.794c1.689 2.083 3.536 10.885 2.947 11.357-.59.471-8.803-3.105-10.532-5.187-1.689-2.083-1.375-5.188.708-6.877 2.082-1.69 5.187-1.376 6.877.707ZM220.116 663.937c-1.768.864-5.659 6.091-5.423 6.602.236.511 6.798.668 8.567-.197 1.768-.864 2.515-2.986 1.65-4.755-.904-1.807-3.026-2.515-4.794-1.65ZM185.81 685.354s7.27-9.589 17.565-6.091c10.336 3.497 24.09.314 24.05 5.108l-41.615.983Z" fill="#A8D29F"/><defs><linearGradient id="paint0_linear_308_896" x1="434.945" y1="291.585" x2="621.41" y2="148.15" gradientUnits="userSpaceOnUse"><stop stop-color="#1E96FC"/><stop offset=".556" stop-color="#1E96FC" stop-opacity=".7"/><stop offset=".81" stop-color="#1E96FC" stop-opacity=".48"/><stop offset="1" stop-color="#1E96FC" stop-opacity=".16"/></linearGradient><linearGradient id="paint1_linear_308_896" x1="575.629" y1="278.027" x2="379.732" y2="435.413" gradientUnits="userSpaceOnUse"><stop stop-color="#FCF300"/><stop offset=".432" stop-color="#FCF300" stop-opacity=".66"/><stop offset=".765" stop-color="#FCF300" stop-opacity=".41"/><stop offset="1" stop-color="#FCF300" stop-opacity=".13"/></linearGradient></defs></svg>