<svg width="732" height="660" fill="none" xmlns="http://www.w3.org/2000/svg"><path d="M737.412 659.983c-15.877 0-103.424.038-213.193 0-28.328 0-58.176 0-88.619-.038h-16.145c-21.805 0-43.848-.037-65.831-.037H335.9c-35.716-.038-71.045-.076-104.675-.114-130.978-.189-169.524-1.55-169.524-1.626-.268-.794-120.403-78.488-24.694-241.062 48.137-81.854-6.703-170.853 34.345-248.888 58.057-110.437 154.183-45.672 220.134-80.682 11.647-6.163 23.354-16.106 35.06-31.38a144.287 144.287 0 0 1 21.537-22.572 148.272 148.272 0 0 1 3.604-2.911c4.617-3.63 9.413-6.881 14.358-9.83 3.307-1.966 6.702-3.819 10.158-5.482a151.055 151.055 0 0 1 16.83-6.919 152.857 152.857 0 0 1 25.082-6.2A157.652 157.652 0 0 1 429.404.804C503.1-6.19 586 33.13 628.805 90.598c8.609 11.569 47.78 71.457 16.92 153.727-19.511 51.947 62.197 101.589 91.211 160.909 73.785 150.853 1.132 252.783.476 254.749Z" fill="#D9E3F7"/><path d="M55.265 237.633s16.333-32.818 55.388-29.188c0 0 56.674-54.708 117.128-7.297 0 0 64.274-11.758 111.836 10.17 31.721 14.632 42.193 29.944 42.193 29.944l-326.545-3.629Z" fill="#F8FCFF"/><g opacity=".5" fill="#AEC3FF"><path opacity=".5" d="M255.155 499.867s-38.942-36.975-80.304-44.008c-5.482-.945-9.111 5.596-5.482 9.792.076.076.114.152.189.227 6.352 7.108 55.502 18.45 85.597 33.989Z"/><path opacity=".5" d="M267.441 509.509s-63.517-33.876-118.149-26.844c-3.327.416-5.86 3.365-5.558 6.73.189 2.193 1.55 4.688 5.444 7.183 10.36 6.654 75.465 3.857 118.263 12.931Z"/></g><g opacity=".5" fill="#AEC3FF"><path opacity=".5" d="M500.074 445.916s31.04-29.453 63.971-35.048c4.385-.756 7.259 4.423 4.347 7.788l-.151.152c-5.066 5.709-44.235 14.707-68.167 27.108Z"/><path opacity=".5" d="M490.281 453.591s50.587-26.995 94.103-21.4c2.647.341 4.688 2.685 4.424 5.369-.151 1.739-1.248 3.743-4.348 5.747-8.242 5.293-60.114 3.062-94.179 10.284Z"/></g><path opacity=".3" d="M239.767 536.389s7.788 33.082 1.512 34.141c-6.276 1.058-6.011-37.468-6.011-37.468s-31.683-13.535-43.782-11.796c0 0 20.681 31.721 14.367 31.23-6.314-.492-29.376-32.515-29.376-32.515s-32.061-4.461-36.296 14.594c-4.272 19.055 4.386 28.129 9.15 29.074 4.763.945 34.972-.794 34.367 3.176-.605 3.97-20.757 11.153-32.288 8.128 0 0 13.951 30.436 30.36 28.129 16.408-2.306 21.059-12.741 31.229-13.989 10.17-1.247 17.732 1.172 12.779 4.159-4.991 2.987-22.345 1.891-30.246 9.263-7.94 7.373-14.443 12.174 1.02 14.443 42.345 6.238 52.78-24.764 52.78-24.764s28.696-17.808 13.951-39.547c0 0-11.607-13.233-23.516-16.258Z" fill="#AEC3FF"/><path opacity=".5" d="M550.471 486.257c-3.781-19.244-36.107-15.577-36.107-15.577s-23.97 31.569-30.322 31.91c-6.351.34 15.237-30.965 15.237-30.965-12.136-2.042-44.273 10.738-44.273 10.738s-.718 38.715-6.957 37.505c-6.238-1.21 2.382-34.254 2.382-34.254-12.061 2.722-24.046 15.728-24.046 15.728-15.35 21.475 13.006 40.076 13.006 40.076s-.529 13.422-9.868 28.205c0 0-2.079 2.722-4.31 7.372l3.214.227c.34-.832.681-1.663 1.059-2.419v-.038c.264-.492.605-1.172 1.058-2.004 1.135-1.853 1.891-3.252 2.382-4.235 3.365-5.822 8.167-13.421 11.116-14.858 0 0-.303-.529-.567-1.512.189.491.378.983.567 1.512 4.688 12.212 32.098 16.106 47.675 14.027 15.577-2.08 9.188-6.881 1.399-14.481-7.788-7.599-25.218-6.956-30.133-10.094-4.915-3.101 2.76-5.331 12.931-3.857 10.17 1.513 14.593 12.099 31.002 14.821 16.409 2.722 31.191-27.486 31.191-27.486-11.682 2.76-31.683-4.991-32.212-8.961-.529-4.007 29.755-1.474 34.594-2.344 4.84-.907 13.762-9.754 9.982-29.036ZM339.692 610.871c1.777 4.007 24.991 5.898 36.257-.529 0 0-6.087 35.993-24.045 38.185-17.921 2.193-25.747-7.486-36.825-5.898-11.04 1.551-18.375 6.239-12.288 7.978 6.087 1.739 24.046-4.31 34.481 1.247 4.802 2.534 9.112 4.537 10.851 6.655h-13.762c-18.602 0-37.43 0-56.183-.038-.226-1.512-.453-2.344-.453-2.344s-35.237-10.662-25.861-37.695c0 0 8.469-17.202 20.19-23.743 0 0 1.134 37.014 8.015 36.371 6.881-.643-4.235-41.135-4.235-41.135s29.528-23.176 42.761-24.764c0 0-12.855 39.207-6.314 36.901 6.503-2.307 21.777-42.496 21.777-42.496s32.477-13.725 42.345 5.142c9.868 18.866 3.289 30.851-1.437 33.195-4.726 2.306-37.013 8.998-35.274 12.968Z" fill="#AEC3FF"/><path d="M302.982 124.739s12.628-23.744 42.799-21.097c0 0 43.781-39.585 90.512-5.293 0 0 49.641-8.507 86.428 7.372 24.5 10.587 32.628 21.664 32.628 21.664l-252.367-2.646ZM498.446 85.873s6.428-12.93 21.815-11.494c0 0 22.345-21.55 46.126-2.874 0 0 25.293-4.612 44.046 4.008 12.514 5.747 16.635 11.796 16.635 11.796l-128.622-1.436ZM69.436 152.792s6.428-12.93 21.816-11.493c0 0 22.344-21.551 46.125-2.874 0 0 25.293-4.612 44.046 4.008 12.514 5.747 16.636 11.796 16.636 11.796l-128.623-1.437Z" fill="#F8FCFF"/><path d="M498.858 623.423c2.533 1.021 11.645.189 11.948-.529.302-.718-5.672-7.675-8.205-8.696-2.533-1.021-5.444.189-6.465 2.76-1.058 2.533.189 5.407 2.722 6.465ZM521.809 627.733c-1.437 2.344-2.08 11.456-1.399 11.872.681.416 8.469-4.348 9.906-6.692 1.436-2.344.68-5.407-1.664-6.843-2.344-1.437-5.406-.681-6.843 1.663ZM509.557 645.579c2.608.831 11.607-.681 11.871-1.437.227-.756-6.238-7.221-8.847-8.053a4.965 4.965 0 0 0-6.238 3.214c-.832 2.608.605 5.444 3.214 6.276Z" fill="#A8D29F"/><path d="M522.793 654.388c0-.189-1.021-20.832-12.288-31.456l.227-.265c11.38 10.737 12.401 31.494 12.401 31.721h-.34ZM560.487 623.839c-1.588 1.059-7.864 1.739-8.166 1.285-.303-.453 2.798-5.973 4.348-7.032 1.588-1.058 3.705-.605 4.764.983a3.42 3.42 0 0 1-.946 4.764ZM545.516 629.964c1.285 1.399 2.987 7.486 2.609 7.864-.416.378-6.352-1.777-7.638-3.176-1.285-1.399-1.21-3.592.189-4.877 1.399-1.286 3.516-1.21 4.84.189ZM556.292 640.399c-1.664.945-7.978 1.134-8.243.68-.264-.453 3.214-5.747 4.878-6.692 1.663-.945 3.743-.34 4.688 1.324.945 1.625.34 3.743-1.323 4.688Z" fill="#A8D29F"/><path d="M548.501 648.187c-.037-.151-2.192-14.291 4.008-23.063l-.189-.151c-6.238 8.885-4.045 23.101-4.045 23.252l.226-.038ZM537.346 653.178l-.718-.113c-2.836-36.598-13.989-62.875-14.178-63.215l.642-.265c.189.341 11.418 26.768 14.254 63.593Z" fill="#A8D29F"/><path d="M514.888 586.182c1.361 1.551 7.826 4.084 8.28 3.668.453-.378-1.248-7.108-2.609-8.658-1.361-1.55-3.743-1.702-5.331-.34-1.588 1.361-1.739 3.743-.34 5.33Z" fill="#CCDBFD"/><path d="M524.756 580.738c-1.248 1.664-2.382 8.507-1.891 8.847.492.34 6.692-2.684 7.94-4.348a3.792 3.792 0 0 0-.756-5.293c-1.664-1.248-4.046-.869-5.293.794Z" fill="#CCDBFD"/><path d="M532.203 587.997c-2.004-.529-8.772.908-8.923 1.475-.151.567 4.953 5.255 6.957 5.822 2.004.529 4.083-.643 4.612-2.646.53-2.042-.642-4.121-2.646-4.651Z" fill="#CCDBFD"/><path d="M527.628 597.033c-.189-2.079-3.97-7.901-4.537-7.826-.605.076-3.176 6.503-2.949 8.545.189 2.079 2.042 3.592 4.121 3.402 2.042-.189 3.554-2.041 3.365-4.121Z" fill="#CCDBFD"/><path d="M517.345 596.617c1.853-.983 5.823-6.654 5.558-7.183-.265-.529-7.183-.492-9.036.491-1.853.983-2.571 3.252-1.588 5.105.983 1.852 3.214 2.533 5.066 1.587Z" fill="#CCDBFD"/><path d="M524.15 589.627a1.248 1.248 0 1 0-2.464-.394 1.248 1.248 0 0 0 2.464.394Z" fill="#163560"/><path d="M537.12 615.786c-2.042 2.533-4.273 13.081-3.554 13.686.718.605 10.624-3.743 12.665-6.238 2.042-2.533 1.664-6.238-.869-8.28-2.458-2.079-6.163-1.701-8.242.832ZM496.591 656.921h-.491c-5.104-24.046-14.821-40.493-14.934-40.719l.415-.227c.114.227 9.906 16.786 15.01 40.946Z" fill="#A8D29F"/><path d="M475.796 614.425c1.058.907 5.557 2.004 5.822 1.701.265-.302-1.437-4.612-2.495-5.52a2.517 2.517 0 0 0-3.554.265 2.48 2.48 0 0 0 .227 3.554Z" fill="#CCDBFD"/><path d="M481.883 609.963c-.681 1.21-.832 5.861-.492 6.05.341.189 4.197-2.382 4.878-3.592.68-1.21.226-2.76-.983-3.441-1.21-.68-2.723-.226-3.403.983Z" fill="#CCDBFD"/><path d="M487.44 614.122c-1.399-.189-5.747 1.361-5.784 1.777-.038.378 3.743 3.063 5.141 3.252a2.52 2.52 0 0 0 2.836-2.155c.151-1.399-.832-2.685-2.193-2.874Z" fill="#CCDBFD"/><path d="M485.21 620.55c-.302-1.361-3.327-4.877-3.705-4.802-.378.076-1.512 4.575-1.21 5.936.303 1.361 1.664 2.193 3.025 1.89 1.361-.34 2.193-1.663 1.89-3.024Z" fill="#CCDBFD"/><path d="M478.328 621.155c1.134-.794 3.289-4.915 3.062-5.256-.227-.34-4.839.303-5.973 1.135-1.135.794-1.399 2.381-.605 3.516.794 1.134 2.381 1.399 3.516.605Z" fill="#CCDBFD"/><path d="M482.252 615.882a.83.83 0 1 0-1.663-.044.832.832 0 0 0 1.663.044Z" fill="#163560"/><path d="M493.15 632.119c-1.135 1.852-1.664 9.074-1.135 9.376.53.34 6.73-3.403 7.864-5.255a3.927 3.927 0 0 0-1.285-5.407c-1.891-1.134-4.31-.567-5.444 1.286ZM574.208 653.745l.643-.114c2.533-32.59 12.477-55.993 12.628-56.295l-.567-.265c-.151.34-10.17 23.895-12.704 56.674Z" fill="#A8D29F"/><path d="M594.21 594.084c-1.21 1.399-6.957 3.63-7.373 3.289-.378-.34 1.097-6.314 2.344-7.712 1.248-1.399 3.365-1.513 4.726-.303a3.316 3.316 0 0 1 .303 4.726Z" fill="#CCDBFD"/><path d="M585.398 589.207c1.096 1.475 2.117 7.562 1.701 7.902-.416.302-5.974-2.382-7.07-3.857-1.096-1.474-.794-3.591.681-4.688 1.474-1.096 3.591-.831 4.688.643Z" fill="#CCDBFD"/><path d="M578.82 595.71c1.777-.491 7.826.794 7.977 1.323.152.53-4.385 4.689-6.2 5.18-1.777.492-3.63-.567-4.121-2.344-.529-1.853.529-3.705 2.344-4.159Z" fill="#CCDBFD"/><path d="M582.867 603.763c.189-1.853 3.516-7.032 4.046-6.994.529.037 2.797 5.784 2.646 7.637-.189 1.852-1.815 3.213-3.667 3.024-1.853-.189-3.176-1.814-3.025-3.667Z" fill="#CCDBFD"/><path d="M592.016 603.347c-1.626-.869-5.18-5.898-4.915-6.389.265-.454 6.427-.416 8.053.453 1.626.87 2.268 2.911 1.399 4.537a3.36 3.36 0 0 1-4.537 1.399Z" fill="#CCDBFD"/><path d="M587.252 598.051a1.098 1.098 0 1 0-.348-2.167 1.098 1.098 0 0 0 .348 2.167Z" fill="#163560"/><path d="M572.736 629.17c1.815 2.23 3.781 11.645 3.138 12.174-.643.529-9.452-3.327-11.267-5.558-1.815-2.231-1.474-5.558.756-7.372a5.197 5.197 0 0 1 7.373.756ZM470.807 659.454s3.63-9.49 16.749-10.095c13.119-.605 22.155 7.146 33.006 3.592 10.851-3.592 28.81-11.683 45.785-6.276 16.976 5.368 19.849 12.817 19.849 12.817H470.807v-.038ZM55.157 659.378h22.685c1.21-1.021-.832-3.365-2.987-3.516-.945-.076-2.117.113-3.478.416-.302-4.159-2.08-22.76-8.81-22.042-7.56.832 0 8.204 2.118 12.552 1.588 3.214 3.251 7.864 4.008 10.057-.605.151-1.248.265-1.89.378-.984-3.062-4.727-13.422-9.453-12.817-5.557.719-3.327 4.84.605 7.297 2.874 1.815 6.428 4.386 8.129 5.633-1.437.227-2.911.379-4.424.341-3.856-.038-5.784 1.096-6.502 1.701ZM657.732 658.584h-22.685c-1.21-1.02.832-3.365 2.987-3.516.945-.075 2.117.114 3.478.416.303-4.159 2.08-22.76 8.81-22.042 7.561.832 0 8.204-2.118 12.552-1.588 3.214-3.251 7.864-4.007 10.057.605.151 1.247.265 1.89.378.983-3.062 4.726-13.421 9.452-12.817 5.558.719 3.327 4.84-.605 7.297-2.873 1.815-6.427 4.386-8.129 5.634 1.437.227 2.912.378 4.424.34 3.856-.076 5.747 1.096 6.503 1.701Z" fill="#A8D29F"/><path fill-rule="evenodd" clip-rule="evenodd" d="M378.146 196.195s87.185-98.603 148.622-14.291c18.884 25.926 11.508 58.292-7.77 90.69 0 0-49.558 14.993-82.152 14.745-20.805-.158-36.421-7.327-51.818-14.395-16.671-7.654-33.087-15.19-55.556-13.583-34 2.432-54.19 9.264-82.68 27.978-27.163-41.104-41.212-83.623-16.172-114.093 66.239-80.607 147.526 22.949 147.526 22.949Z" fill="url('#paint0_linear_653_3534')"/><path d="M246.792 287.339c44.693 67.631 124.889 131.43 124.889 131.43s103.876-73.168 147.317-146.175c0 0-49.558 14.993-82.152 14.745-20.805-.158-36.421-7.327-51.818-14.395-16.671-7.654-33.087-15.19-55.556-13.583-34 2.432-54.19 9.264-82.68 27.978Z" fill="url('#paint1_linear_653_3534')"/><path d="M498.796 212.135c-6.503 2.08-13.611-.454-17.24-6.2-3.932-6.163-10.246-13.233-19.471-15.35-6.201-1.399-10.095-7.562-8.658-13.762 1.399-6.201 7.561-10.095 13.762-8.658 19.962 4.537 31.418 20.378 37.014 31.002 2.608 4.991.037 11.229-5.407 12.968ZM351.648 385.975c-11.494-11.077-42.61-45.558-42.61-45.558-5.028-4.877-12.325-16.484-7.448-21.513 4.877-5.028 18.942 7.751 23.97 12.628 0 0 22.534 27.486 35.199 36.636 13.876 10.057 19.547 17.883 14.67 22.911-2.458 2.571-13.687 4.651-23.781-5.104Z" fill="#fff" fill-opacity=".5"/><path d="M171.997 368.561c1.891 8.393 5.634 24.575 19.736 44.121 10.208 14.102 29.566 34.935 48.545 62.156 13.687 19.622 21.626 31.229 25.974 37.657 3.1 4.574 5.255 9.678 6.314 15.009l-32.817 98.603 78.035 6.843s29.415-102.723 29.415-145.787v-.037c0-4.991.037-10.322.189-15.993.567-26.352 8.204-47.146-67.979-47.865-.302 0-.605-.227-.945-.34-2.987-1.134-7.524-3.214-14.178-8.62a99.54 99.54 0 0 1-3.554-2.987c-7.448-6.578-14.48-11.758-21.134-15.841-34.67-21.513-69.34-34.557-67.601-26.919Z" fill="#FFB27D"/><path d="M166.553 318.541c1.134-12.401 10.36-51.343 10.36-51.343s9.036 2.079 12.325 7.864c9.679 16.9 6.503 50.284 6.011 50.473 0 0 15.728 30.284 18.413 49.755 0 0 41.777 22.685 50.586 38.942.53.983.946 1.966 1.286 2.912 1.21 3.667 1.701 8.657 1.626 14.215-.303 19.698-8.091 46.39-19.736 44.311-2.873-.529-70.096-75.691-72.893-88.924-.605-3.1-8.583-61.589-7.978-68.205Z" fill="#FFB27D"/><path d="M275.177 402.89s2.003 19.131-17.808 2.344l-1.588 21.966 27.6 14.67 9.376-16.144-17.58-22.836Z" fill="#FFB27D"/><path d="M178.876 286.442a7.026 7.026 0 0 0 .756-2.382s1.059-7.561 1.815-13.081c.492-3.668-1.966-6.617-3.327-7.146-.869-.34-6.276 13.8-6.503 27.146 3.176.038 5.898-1.928 7.259-4.537Z" fill="#FFC69F"/><path d="M213.699 375.29c9.036 2.949 63.971 40.341 66.958 41.475 6.881 8.696 8.015 21.513 4.688 22.95-4.537 1.928-14.632-1.966-21.361-8.129-9.037-8.28-11.645-19.206-14.33-25.256-1.209-2.722-9.225-6.692-12.249-10.699-8.016-10.511-22.685-19.547-23.706-20.341Z" fill="#F6A56E"/><path d="M318.839 410.98s-71.533-57.619-79.434-72.25c0 0-12.59 4.537-7.562 23.667 5.029 19.093 40.19 53.423 42.307 66.958 7.902 50.851 36.787 66.504 36.787 66.504s78.375-27.978 7.902-84.879Z" fill="#FFB27D"/><path d="M243.98 360.054c-.643-.53-1.248-1.135-1.702-1.853l-7.334-11.267c-2.042-3.138-1.399-7.221 1.55-9.641.718-.605 1.172-.869 1.172-.869 3.478 2.987 12.439 8.582 18.412 20.681-3.289 2.344-9.716 4.801-12.098 2.949Z" fill="#FFC69F"/><path d="M345.004 552.117s-.34 9.49-.907 24.575c0 .378-.038.794-.038 1.21-.794 20.605-2.004 51.003-3.365 81.665-45.332-.038-90.172-.076-132.857-.114 12.59-25.142 33.99-66.012 46.995-90.663 6.163-11.72 10.435-19.773 10.927-20.718.038-.076.038-.114.038-.114a15.956 15.956 0 0 1 2.419-2.835 19.608 19.608 0 0 1 4.008-3.025c11.985-7.032 31.948-3.705 47.902.945 7.373 2.155 13.876 4.575 18.375 6.352 3.062 1.248 5.218 2.193 6.049 2.571.303.076.454.151.454.151Z" fill="#02CECB"/><path d="M344.058 577.902s-31.569 8.545-49.831 8.809l-6.729-12.552-5.898 10.586s-23.063-6.994-27.751-13.837l16.068-28.923 74.822 1.512-.681 34.405Z" fill="#069E9C"/><path d="M342.736 527.504s9.717 22.609 11.796 49.377c0 0-38.034 4.235-56.144 2.004l-7.94-31.418-11.531 27.297s-20.946-2.722-28.243-8.355c0 0 13.573-23.214 22.118-38.602-.038-.038 35.237 10.586 69.944-.303Z" fill="#F3F8FF"/><path d="M319.712 570.794c.945-1.739.226-3.856-1.626-4.764-1.853-.907-4.083-.227-5.029 1.513-.945 1.739-.226 3.856 1.626 4.763 1.853.908 4.121.227 5.029-1.512Z" fill="#02CECB"/><path d="M570.981 368.561c-1.89 8.393-5.633 24.575-19.735 44.121-10.208 14.102-29.566 34.935-48.545 62.156-13.687 19.622-21.627 31.229-25.974 37.657-3.101 4.574-5.256 9.678-6.314 15.009l32.817 98.603-78.035 6.843S395.78 530.227 395.78 487.163v-.037c0-4.991-.038-10.322-.189-15.993-.567-26.352-8.204-47.146 67.978-47.865.303 0 .605-.227.946-.34 2.986-1.134 7.523-3.214 14.178-8.62a98.667 98.667 0 0 0 3.553-2.987c7.449-6.578 14.481-11.758 21.135-15.841 34.67-21.513 69.339-34.557 67.6-26.919Z" fill="#FFB27D"/><path d="M576.425 318.541c-1.135-12.401-10.36-51.343-10.36-51.343s-9.036 2.079-12.325 7.864c-9.679 16.9-6.503 50.284-6.012 50.473 0 0-15.728 30.284-18.412 49.755 0 0-41.778 22.685-50.587 38.942a21.392 21.392 0 0 0-1.285 2.912c-1.21 3.667-1.702 8.657-1.626 14.215.303 19.698 8.091 46.39 19.736 44.311 2.873-.529 70.095-75.691 72.893-88.924.605-3.1 8.583-61.589 7.978-68.205Z" fill="#FFB27D"/><path d="M467.802 402.89s-2.004 19.131 17.807 2.344l1.588 21.966-27.599 14.67-9.377-16.144 17.581-22.836Z" fill="#FFB27D"/><path d="M564.101 286.442a7.026 7.026 0 0 1-.756-2.382s-1.059-7.561-1.815-13.081c-.491-3.668 1.966-6.617 3.327-7.146.87-.34 6.276 13.8 6.503 27.146-3.176.038-5.898-1.928-7.259-4.537Z" fill="#FFC69F"/><path d="M529.28 375.29c-9.036 2.949-63.971 40.341-66.958 41.475-6.881 8.696-8.015 21.513-4.688 22.95 4.537 1.928 14.632-1.966 21.361-8.129 9.037-8.28 11.645-19.206 14.33-25.256 1.209-2.722 9.225-6.692 12.249-10.699 8.016-10.511 22.685-19.547 23.706-20.341Z" fill="#F6A56E"/><path d="M424.137 410.98s71.533-57.619 79.434-72.25c0 0 12.59 4.537 7.562 23.667-5.028 19.093-40.19 53.423-42.307 66.958-7.902 50.851-36.787 66.504-36.787 66.504s-78.375-27.978-7.902-84.879Z" fill="#FFB27D"/><path d="M498.998 360.054c.643-.53 1.248-1.135 1.702-1.853l7.334-11.267c2.042-3.138 1.399-7.221-1.55-9.641-.718-.605-1.172-.869-1.172-.869-3.478 2.987-12.968 9.111-18.941 21.172 2.873 1.248 10.246 4.31 12.627 2.458Z" fill="#FFC69F"/><path d="M535.251 659.642c-42.307 0-87.222 0-132.97-.037-1.361-30.662-2.571-61.098-3.365-81.703 0-.416-.037-.794-.037-1.21-.568-15.047-.908-24.575-.908-24.575s.151-.075.416-.189c.87-.378 2.987-1.323 6.049-2.571a194.67 194.67 0 0 1 18.375-6.352c15.993-4.65 35.917-8.015 47.902-.945 1.475.832 2.798 1.853 4.008 3.025.87.869 1.663 1.815 2.42 2.835 0 0 0 .038.037.114.53.983 4.764 9.036 10.927 20.719 13.081 24.726 34.594 65.747 47.146 90.889Z" fill="#02CECB"/><path d="M398.954 577.902s31.57 8.545 49.831 8.809l6.73-12.552 5.898 10.586s23.063-6.994 27.751-13.837l-16.068-28.923-74.822 1.512.68 34.405Z" fill="#069E9C"/><path d="M400.24 527.504s-9.717 22.609-11.796 49.377c0 0 38.034 4.235 56.144 2.004l7.94-31.418 11.531 27.297s20.946-2.722 28.243-8.355c0 0-13.573-23.214-22.118-38.602.038-.038-35.237 10.586-69.944-.303Z" fill="#F3F8FF"/><path d="M423.267 570.794c-.945-1.739-.227-3.856 1.626-4.764 1.852-.907 4.083-.227 5.028 1.513.945 1.739.227 3.856-1.626 4.763-1.852.908-4.083.227-5.028-1.512Z" fill="#02CECB"/><path d="m120.855 656.996-.492-.075c-1.966-25.483-9.754-43.744-9.867-44.009l.453-.189c.114.227 7.94 18.64 9.906 44.273Z" fill="#A8D29F"/><path d="M105.201 610.342c.945 1.096 5.444 2.835 5.746 2.57.303-.264-.869-4.952-1.814-6.049-.946-1.096-2.609-1.172-3.706-.227-1.058.983-1.172 2.609-.226 3.706Z" fill="#CCDBFD"/><path d="M112.119 606.561c-.87 1.172-1.664 5.936-1.324 6.162.341.265 4.651-1.852 5.52-3.024a2.605 2.605 0 0 0-.529-3.668c-1.172-.869-2.836-.642-3.667.53Z" fill="#CCDBFD"/><path d="M117.261 611.627c-1.398-.378-6.124.643-6.238 1.021-.113.378 3.441 3.667 4.84 4.045a2.622 2.622 0 0 0 3.213-1.852c.416-1.399-.416-2.836-1.815-3.214Z" fill="#CCDBFD"/><path d="M114.084 617.903c-.151-1.437-2.76-5.482-3.176-5.444-.416.038-2.192 4.499-2.079 5.973.151 1.437 1.437 2.496 2.873 2.344 1.437-.151 2.533-1.398 2.382-2.873Z" fill="#CCDBFD"/><path d="M106.939 617.601c1.285-.681 4.045-4.613 3.856-4.991-.189-.378-5.028-.34-6.314.34a2.627 2.627 0 0 0-1.096 3.554 2.627 2.627 0 0 0 3.554 1.097Z" fill="#CCDBFD"/><path d="M111.616 612.765a.868.868 0 1 0-1.717-.273.869.869 0 1 0 1.717.273Z" fill="#233862"/><path d="M118.508 619.983c-1.436 1.739-2.949 9.111-2.457 9.527.491.416 7.372-2.609 8.809-4.348 1.437-1.739 1.172-4.348-.605-5.747-1.739-1.474-4.31-1.209-5.747.568ZM114.994 641.117c1.475.718 4.764 5.104 4.537 5.52-.189.416-5.671.529-7.183-.189-1.475-.718-2.08-2.495-1.361-4.008.756-1.436 2.533-2.041 4.007-1.323ZM135.15 656.996l.568-.075c2.268-29.264 11.191-50.247 11.304-50.512l-.529-.226c-.114.264-9.112 21.399-11.343 50.813Z" fill="#A8D29F"/><path d="M153.072 603.423c-1.096 1.248-6.276 3.251-6.616 2.949-.34-.303.983-5.671 2.079-6.919 1.097-1.248 2.987-1.361 4.273-.265 1.247 1.097 1.398 2.987.264 4.235Z" fill="#CCDBFD"/><path d="M145.172 599.075c.983 1.323 1.89 6.805 1.512 7.07-.378.302-5.369-2.155-6.352-3.478-.983-1.324-.718-3.214.605-4.235 1.361-.945 3.252-.68 4.235.643Z" fill="#CCDBFD"/><path d="M139.234 604.897c1.588-.453 7.033.719 7.146 1.172.113.454-3.97 4.197-5.558 4.651-1.588.453-3.251-.492-3.705-2.118a3.05 3.05 0 0 1 2.117-3.705Z" fill="#CCDBFD"/><path d="M142.9 612.119c.152-1.664 3.176-6.314 3.63-6.277.491.038 2.533 5.18 2.382 6.844a3.016 3.016 0 0 1-3.289 2.722 3.016 3.016 0 0 1-2.723-3.289Z" fill="#CCDBFD"/><path d="M151.104 611.778c-1.475-.756-4.65-5.293-4.424-5.709.227-.416 5.747-.378 7.222.378 1.474.757 2.041 2.609 1.285 4.084a3.077 3.077 0 0 1-4.083 1.247Z" fill="#CCDBFD"/><path d="M146.852 607.021a.984.984 0 1 0-.311-1.943.984.984 0 0 0 .311 1.943Z" fill="#233862"/><path d="M135.301 627.09c1.625 2.004 3.402 10.473 2.835 10.927-.567.454-8.469-2.987-10.132-4.991-1.626-2.004-1.324-4.99.68-6.616 2.004-1.626 4.991-1.323 6.617.68ZM141.878 638.773c-1.702.832-5.445 5.86-5.218 6.352.227.491 6.541.643 8.242-.189 1.702-.832 2.42-2.874 1.588-4.575-.869-1.739-2.911-2.42-4.612-1.588ZM108.869 659.378s6.994-9.225 16.9-5.86c9.943 3.365 23.176.302 23.138 4.915l-40.038.945Z" fill="#A8D29F"/><defs><linearGradient id="paint0_linear_653_3534" x1="348.565" y1="280.534" x2="527.963" y2="142.535" gradientUnits="userSpaceOnUse"><stop stop-color="#1E96FC"/><stop offset=".556" stop-color="#1E96FC" stop-opacity=".7"/><stop offset=".81" stop-color="#1E96FC" stop-opacity=".48"/><stop offset="1" stop-color="#1E96FC" stop-opacity=".16"/></linearGradient><linearGradient id="paint1_linear_653_3534" x1="483.917" y1="267.49" x2="295.445" y2="418.91" gradientUnits="userSpaceOnUse"><stop stop-color="#FCF300"/><stop offset=".432" stop-color="#FCF300" stop-opacity=".66"/><stop offset=".765" stop-color="#FCF300" stop-opacity=".41"/><stop offset="1" stop-color="#FCF300" stop-opacity=".13"/></linearGradient></defs></svg>