<svg width="320" height="217" fill="none" xmlns="http://www.w3.org/2000/svg"><g clip-path="url('#clip0_874_4105')"><path d="M306.415 216.994c-6.619 0-43.116.013-88.877 0-11.809 0-24.252 0-36.944-.012h-6.73c-9.09 0-18.28-.012-27.444-.012h-7.389l-43.637-.038c-54.603-.062-70.672-.509-70.672-.534-.112-.261-50.194-25.806-10.295-79.259 20.068-26.912-2.794-56.174 14.319-81.831 24.203-36.31 64.276-15.016 91.769-26.527 4.856-2.026 9.736-5.296 14.617-10.318 2.744-2.822 5.762-5.283 8.978-7.42a59.036 59.036 0 0 1 7.488-4.19 60.801 60.801 0 0 1 4.235-1.803 73.344 73.344 0 0 1 7.016-2.274A78.127 78.127 0 0 1 173.305.737a82.612 82.612 0 0 1 4.706-.472c30.723-2.3 65.282 10.628 83.127 29.523 3.589 3.803 19.919 23.494 7.054 50.543-8.134 17.08 25.929 33.401 38.024 52.905 30.76 49.599.472 83.112.199 83.758Z" fill="#D9E3F6"/><path d="M100.813 64.276c3.671-5.909 13.923-.634 13.923-.634s3.993 13.483 6.054 14.396c2.061.913-1.159-12.194-1.159-12.194 4.272.85 13.332 9.121 13.332 9.121s-4.616 12.935-2.394 13.311c2.222.376 3.5-11.667 3.5-11.667 3.66 2.417 6 8.24 6 8.24 2.394 9.056-9.339 11.667-9.339 11.667s-1.503 4.523-.257 10.593c0 0 .343 1.16.493 2.986l-1.094-.333c0-.322-.011-.634-.043-.945v-.022c-.022-.193-.065-.462-.108-.795a23.74 23.74 0 0 1-.257-1.697c-.387-2.364-1.02-5.479-1.825-6.328 0 0 .171-.129.386-.43-.118.14-.247.28-.386.43-3.081 3.46-12.667 1.311-17.562-1.332-4.906-2.643-2.179-3.438 1.353-4.985 3.531-1.547 9.242.86 11.26.44 2.029-.418-.236-2.116-3.8-2.9-3.564-.784-6.355 2.181-12.141 1.032-5.786-1.16-6.891-13.043-6.891-13.043 3.521 2.374 11.132 2.32 11.808 1.064.665-1.257-9.683-4.233-11.175-5.114-1.503-.891-3.349-4.952.322-10.861Z" fill="#DFEBFD"/><path d="M178.926 80.68c-2.63-4.232-9.961-.461-9.961-.461s-2.856 9.647-4.326 10.291c-1.482.656.826-8.723.826-8.723-3.059.602-9.532 6.532-9.532 6.532s3.306 9.26 1.707 9.53c-1.589.268-2.501-8.348-2.501-8.348-2.62 1.73-4.294 5.887-4.294 5.887-1.718 6.478 6.687 8.347 6.687 8.347s1.074 3.234.183 7.585c0 0-.247.827-.354 2.138l.783-.237c0-.225.011-.451.032-.676v-.011c.022-.14.043-.333.076-.569.096-.538.161-.935.182-1.214.279-1.687.73-3.922 1.299-4.534 0 0-.118-.097-.279-.312l.279.312c2.2 2.471 9.06.935 12.57-.956s1.557-2.46-.966-3.567c-2.523-1.106-6.613.612-8.062.312-1.449-.301.172-1.515 2.727-2.074 2.555-.558 4.541 1.558 8.684.731 4.144-.827 4.938-9.325 4.938-9.325-2.523 1.697-7.965 1.665-8.448.763-.483-.903 6.934-3.03 7.997-3.664 1.052-.612 2.372-3.524-.247-7.756Z" fill="#CDE0FB"/><path d="M144.107 187.134s-3.725-6.306-8.384-8.455c0 0 .644 14.127-1.996 14.084-2.63-.042.418-15.803.418-15.803s-11.915-7.96-17.003-8.186c0 0 6.033 14.568 3.488 13.869-2.544-.687-9.521-15.556-9.521-15.556s-12.763-4.286-15.973 3.191c-3.199 7.477-.354 11.839 1.524 12.602 1.879.763 14.352 2.363 13.805 3.932-.558 1.579-9.339 2.976-13.826.849 0 0 3.37 13.525 10.262 13.847 6.892.312 9.586-3.599 13.837-3.33 4.251.269 7.17 1.837 4.905 2.675-2.265.838-9.274-.935-13.085 1.472-3.811 2.406-6.806 3.803-.687 5.995 6.129 2.191 17.572 2.986 20.524-1.558 1.074.848 2.351 4.329 3.221 6.994.118.451.3 1.074.601 1.923.064.204.118.386.161.547h1.191a17.84 17.84 0 0 0-.279-.827c-.214-.58-.365-.902-.365-.902-2.501-6.801-1.567-12.28-1.567-12.28s13.107-5.049 8.749-15.083Zm-11.69 19.649c.129-.193.247-.376.365-.558-.172.333-.333.515-.365.558Z" fill="#AFCDFB"/><path d="M153.102 162.446v53.813h-4.723v-53.813h4.723Z" fill="#94B0ED"/><path d="M101.777 162.446h53.802v-30.907c0-14.869-12.044-26.923-26.901-26.923s-26.901 12.054-26.901 26.923v30.907Z" fill="#AFCDFB"/><path d="M170.89 104.616h-43.851v35.055h38.494l5.357-35.055Z" fill="#AFCDFB"/><path d="M143.984 162.446h53.802v-30.907c0-14.869-12.044-26.923-26.901-26.923-14.856 0-26.901 12.054-26.901 26.923v30.907Z" fill="#628AD3"/><path d="M146.875 159.342h48.016v-27.589c0-13.267-10.746-24.021-24.003-24.021s-24.002 10.754-24.002 24.021v27.589h-.011Z" fill="#233862"/><path d="M240.514 162.446h-97.34a1.558 1.558 0 0 1 0-3.115h97.34a1.558 1.558 0 0 1 0 3.115Z" fill="#628AD3"/><path d="M139.714 165.304h22.8c.805 0 1.46-.655 1.46-1.461v-1.461h-25.806v1.375c0 .849.687 1.547 1.546 1.547Z" fill="#94B0ED"/><path d="M264.71 108.752s2.061 3.395-1.814 5.533c0 0 2.973 1.074 4.004.666 0 0-.258.269-.451.365 0 0 2.791.892 4.186.409 1.396-.484 4.391-14.02-3.853-14.74 0 0-6.505-2.331-7.88 4.931-1.374 7.262-3.875 6.564-3.875 6.564s.612.516.945.613c0 0 .537-.033.708-.258 0 0-.203.365-.365.462 0 0 2.641.999 4.251.44 1.611-.591 4.112-3.416 4.144-4.985Z" fill="#163560"/><path d="M256.43 215.625h10.52s.246-1.601-.301-2.826c-.526-1.171-1.342-1.89-1.417-2.782-.666.688-1.492 1.128-3.016.924-.183.301-1.203 1.923-1.825 2.363-.687.505-3.757.323-3.961 2.321Z" fill="#233862"/><path d="M265.117 211.607s-.901.29-1.835.376c-1.653.15-1.9-.344-1.9-.344s-1.643-14.675-6.978-42.714c-.773-4.051-1.073-6.296-1.352-9.895-.086-1.074-.161-2.277-.258-3.685-.236-3.781.333-10.141 3.167-11.806 1.288-.763 3.048-.548 5.399 1.31.183.151.376.301.569.473 6.903 5.984 4.079 23.151 4.358 31.23.043 1.343.183 2.428.451 3.169.355.967 1.117 2.299 1.299 3.556 1.46 10.464-2.92 28.33-2.92 28.33Z" fill="#2B478B"/><path d="M266.295 176.541 253.06 159.03c-.086-1.074-.161-2.277-.258-3.685-.236-3.781.333-10.141 3.167-11.806l5.399 1.31c.183.151.376.301.569.473 6.913 5.973 4.079 23.141 4.358 31.219ZM303.73 193.462l-4.38-9.572s-1.567.44-2.436 1.45c-.838.967-1.45.795-3.371-.537.719 1.117.816 1.772 1.267 3.244.354.043 2.361 1.988 4.412 2.525.815.204 2.608 3.534 4.508 2.89Z" fill="#233862"/><path d="M257.817 147.728s9.425 32.799 12.882 34.905c3.456 2.105 21.619 5.017 25.301 6.596 0 0 .451-.645.182-2.02-.053-.3-.579-1.407-.579-1.407s-11.282-8.487-18.7-9.336c-1.846-.215 3.747-28.362-8.695-29.49-11.357-1.02-10.391.752-10.391.752Z" fill="#2B478B"/><path d="M243.851 93.96s.215-1.054.451-1.86c.107-.354-.623-2.685-1.138-2.975-.505-.29-1.825 1.278-1.449 2.492.193.623.504 2.632.504 2.632l1.632-.29Z" fill="#FFB27D"/><path d="M243.852 93.96s.279-.613.526-.71c.246-.097.515-1.096.697-1.493 0 0-.171-.258-.483.075-.193.204-.612.795-.612.795l-.128 1.332ZM287.38 98.063c.065.129.151.376.237.59v-.182c0-.44 1.663-2.868 2.351-3.019.687-.15 1.653 2.117.794 3.374-.44.644-1.761 2.943-1.761 2.943l-1.47-.891s-.011-.623-.408-1.118c-.204-.258-.204-1.44-.279-1.966 0 .022.3-.215.536.269ZM259.707 117.433c-.021.011 1.889 1.396 3.521 1.203 1.524-.183 2.77-1.944 2.748-1.955-.601-.215-.655-1.096-.096-4.77l-.29.011-4.874.236s-.118 1.504-.322 2.911c-.161 1.171-.397 2.278-.687 2.364Z" fill="#FFB27D"/><path d="M260.728 112.147s-.118 1.504-.322 2.912c2.662.322 4.412-1.891 5.185-3.148l-4.863.236Z" fill="#ED975D"/><path d="M266.157 111.481s1.717-1.987 2.329-3.814c.44-1.3.494-6.37-4.594-6.392 0 0-1.471-.075-2.963.645-1.191.569-2.984 1.912-1.889 6.51l.236 1.526 6.881 1.525Z" fill="#163560"/><path d="M253.598 146.471s4.777 3.019 12.731 1.075c.096-.022 4.519-.731 4.519-.731-.107-.301-4.766-8.003-4.873-8.283-1.407-3.642 1.857-21.045-.301-22.023-.547.602-2.125 1.01-3.467.892-1.546-.14-2.072-.806-1.943-1.526-1.718.817-3.038 1.569-3.038 1.569-1.557 2.352-3.628 29.027-3.628 29.027ZM259.642 113.35s6.247 1.032 6.827-2.868c.58-3.9 1.782-6.403-2.179-7.23-3.961-.827-4.959.548-5.475 1.805-.504 1.257-.783 7.917.827 8.293Z" fill="#FFB27D"/><path d="M261.457 102.736s1.031 4.835 3.564 5.909c2.533 1.074 3.778.537 3.778.537s-1.781-1.901-1.781-4.77c0-.011-3.94-3.663-5.561-1.676Z" fill="#163560"/><path d="M261.82 103.177s-1.428.827-1.89 1.783c-.461.945-.901 2.976-1.492 2.815 0 0-.826-3.309.881-4.856 1.824-1.644 2.501.258 2.501.258Z" fill="#163560"/><path d="M289.27 101.802s-4.026 12.257-5.099 14.148c-.644 1.139-7.901 5.662-12.119 8.648a.832.832 0 0 0-.161.194v.011c-1.052 1.622-4.316 11.699-3.543 13.504 3.285 7.595 5.539 10.539 6.355 12.666a2.02 2.02 0 0 1-1.213 2.632 34.933 34.933 0 0 1-5.689 1.493c-.451.075-.913.151-1.385.204-6.473.828-10.853-.698-13.085-1.826a2.958 2.958 0 0 1-1.621-2.815c.128-2.406 1.331-4.78 1.878-10.56.408-4.383-3.37-11.066-3.209-13.397.064-.924.783-2.03 1.18-2.739.698-1.268 1.074-2.407.612-3.051-3.081-4.233-9.736-10.067-10.004-11.528-.397-2.138-.215-15.373-.215-15.373.258-.086.633-.301 1.116-.344.44-.043.977.097.977.097s1.761 10.968 1.89 11.549c.128.58 7.557 8.959 9.564 8.927 1.803-.032 4.358 1.364 4.755 1.633 0 0-1.621 2.879-2.028 6.768-.28 2.718 1.535 1.515 2.672-.354 1.546-2.525 4.648-6.113 4.648-6.113s2.534-.655 4.412.021c1.879.688 11.626-4.823 11.937-5.328.311-.505 5.528-10.238 5.528-10.238s.43-.248 1.128.107c.708.365.719 1.064.719 1.064Z" fill="#F99746"/><path d="M261.454 111.234s-.269.537-.623.548c-.354.011-1.277-.075-1.331-.172-.065-.097-.215-.655-.215-.655s1.503-.065 2.169.279Z" fill="#fff"/><path d="M273.491 153.605a34.933 34.933 0 0 1-5.689 1.493c-2.233-3.083-6.012-6.961-5.045-14.095 1.009-7.37 8.244-15.137 9.113-16.2-1.052 1.622-4.315 11.699-3.542 13.504 3.284 7.595 5.539 10.539 6.355 12.666a1.998 1.998 0 0 1-1.192 2.632ZM251.568 123.965c.698-1.268 1.074-2.407.612-3.051-3.08-4.233-9.736-10.067-10.004-11.528.655 1.579 8.716 6.317 10.981 8.348 2.244 2.009-1.492 6.123-1.589 6.231Z" fill="#ED7D2B"/><path d="M190.155 80.541s-.322-3.534 3.617-3.534c0 0-1.191.322-1.814.977 0 0 2.512-1.472 5.249.795 2.738 2.267 1.031 7.96 1.868 9.035.827 1.085 4.069 1.3 3.671 4.792-.397 3.491-10.283 7.863-9.639 10.753 0 0-3.875-5.694-1.106-8.293 0 0-1.352 1.267-1.492 2.782 0 0-.365-2.954 1.514-3.9 1.663-.838 3.027-3.889 2.876-4.436-.139-.538-4.744-8.971-4.744-8.971Z" fill="#2C3A64"/><path d="M195.716 95.367s-5.603 14.159-6.816 13.632c-1.213-.526-8.33-2.782-8.33-2.782l-.472 1.73s6.773 5.221 10.262 5.457c3.489.226 8.212-10.055 8.212-10.055l-2.856-7.983Z" fill="#FFB27D"/><path d="m195.78 105.519 5.529 19.337c.086.29.107.57.086.849a2.486 2.486 0 0 1-1.793 2.224l-33.556 9.604a2.482 2.482 0 0 1-3.07-1.708l-5.529-19.327a2.485 2.485 0 0 1 1.707-3.072l33.556-9.605a2.494 2.494 0 0 1 3.07 1.698Z" fill="#ED8537"/><path d="M201.394 125.705a2.485 2.485 0 0 1-1.793 2.224l-33.556 9.604a2.482 2.482 0 0 1-2.705-.945l17.089-15.578 20.965 4.695Z" fill="#DD6D22"/><path d="m195.781 105.519-15.017 18.671-23.026-6.693-.279-.988a2.485 2.485 0 0 1 1.707-3.073l33.556-9.604c1.299-.387 2.673.376 3.059 1.687Z" fill="#F99746"/><path d="M183.061 106.572s-3.07-1.3-3.5.343c-.225.871-.751 2.02.194 1.934.944-.086 1.9-.72 2.007-1.235.107-.527 1.299-1.042 1.299-1.042Z" fill="#FFB27D"/><path d="M221.705 118.905a.953.953 0 0 1-.086.139c-.644 1.118-2.125 3.868-3.746 6.876-.773 1.429-1.578 2.911-2.34 4.308-1.321 2.406-2.512 4.555-3.221 5.694a87.451 87.451 0 0 1-1.449 2.288.508.508 0 0 0-.064.333c.075 1.021.054 2.03-.043 3.019-.977 9.776-7.568 15.008-7.568 15.008l-1.954.29s2.77-10.27 3.586-16.082c.139-.989.193-1.784.15-2.299-.14-1.515.129-3.739.633-6.285.902-4.534 2.566-10.099 4.004-14.546.097-.28 2.845-10.249 2.845-10.249 2.308 2.019 10.745 2.857 10.745 2.857s1.417 3.46-1.492 8.649Z" fill="#2B478B"/><path d="M197.121 159.331h8.169s.193-1.246-.236-2.192c-.408-.902-.988-.934-.075-2.363-.515.537-2.19.752-3.371.601-.139.237-.934 1.816-1.417 2.16-.526.387-2.909.247-3.07 1.794ZM221.703 118.905a1.048 1.048 0 0 1-.086.139c-.644 1.118-4.133 7.563-5.754 10.561 1.89-7.767.569-15.535.569-15.535l5.271 4.835Z" fill="#233862"/><path d="M191.272 80.047c-.053-.215 4.67 2.138 4.906 2.406 2.211 2.46 1.578 5.662.311 5.694-.816.022-.655 1.375-.655 1.375l-9.049-3.835s1.095-6.36 4.487-5.64Z" fill="#2C3A64"/><path d="M194.319 95.656s-1.202 1.247-1.202 4.985c0 0 1.664 2.622 5.969 3.288-.011.01-3.715-8.273-4.767-8.273Z" fill="#F9DDBF"/><path d="m215.325 110.847-.032-1.525c3.049.386 10.498-3.642 10.498-3.642s3.188 2.116 3.618 8.175c.215 2.955 1.556 15.46 1.707 19.188.053 1.353.075 2.32.075 2.707 0 .118.053.225.129.311.633.806 1.18 1.655 1.653 2.536 4.648 8.648 2.222 20.412 2.222 20.412l-1.084-.28s-3.929-12.193-6.495-17.457c-.44-.892-.837-1.59-1.159-1.988-.966-1.171-1.986-3.169-2.984-5.565-1.89-4.544-8.148-22.872-8.148-22.872Z" fill="#2B478B"/><path d="M228.715 159.331h8.169s.193-1.246-.236-2.192c-.408-.902-1.052-1.321-.891-2.417-.516.537-1.364 1.139-2.544.978-.14.236-.934 1.493-1.417 1.837-.537.387-2.92.247-3.081 1.794Z" fill="#233862"/><path d="M199.637 105.691c1.095.182-.183 1.063 1.331 1.224 2.147.237 4.369.398 5.528.86.419.172.709.376.795.644.504 1.515 3.692 4.126 3.692 4.126 14.234-.645 14.825-6.876 14.825-6.876-9.232-8.981-17.734-14.267-24.217-14.976-1.106-.118-2.512.58-3.511 1.032-2.275 1.01-3.768 3.931-3.768 3.931s1.149 9.326 5.325 10.035Z" fill="#F9DDBF"/><path d="M200.965 106.915c2.147.237 4.369.398 5.528.86.472-7.101-2.877-12.452-2.877-12.452s-2.179 8.907-2.651 11.592Z" fill="#F2CCAA"/><path d="M199.107 94.131s5.4-.3 6.366 3.105c.955 3.395-1.804 16.952-2.394 18.349-1.084 2.546-6.355 9.819-6.355 9.819l-1.943-.591s3.521-11.108 4.305-12.204c1.224-1.74-1.6-17.006.021-18.478Z" fill="#FFB27D"/><path d="M194.783 124.803s-.097.859-.462 1.31c-.365.441-1.417 1.515-1.438 2.149 0 0 .053.279.279.225.225-.053 1.02-.827 1.417-.773 0 0-.215 1.257-.43 1.622-.214.355-.042 1.859.086 2.17.129.312 1.707-1.643 2.351-2.514.644-.87.011-4.415.011-4.415l-1.814.226Z" fill="#FFB27D"/><path d="M206.537 101.769c-.011.076-5.11.935-8.308-.676 0 0-2.663-8.359 1.148-7.95 3.811.397 6.065 1.6 6.162 3.427.096 1.815.998 5.199.998 5.199Z" fill="#F9DDBF"/><path d="M198.076 91.725s-1.503 5.608-3.768 3.931c.064-.268-.333-1.063-.794-1.858-.591-1.02-1.299-2.063-1.299-2.063l3.059-2.686.183-.16c.934 1.643 1.857 2.277 2.619 2.836Z" fill="#FFB27D"/><path d="M192.215 91.735s.708 1.042 1.299 2.063c1.9-1.171 1.9-3.524 1.76-4.749l-3.059 2.686Z" fill="#ED985F"/><path d="M192.133 93.078s4.616-2.568 2.973-5.425c-1.642-2.858-2.157-5.103-5.174-3.588-3.016 1.525-2.952 2.933-2.641 4.018.322 1.095 3.607 5.586 4.842 4.995Z" fill="#FFB27D"/><path d="M186.516 86.428c.214-1.267.858-1.386 1.299-1.3 1.706-2.825 4.487-1.719 4.487-1.719 1.492 1.87 3.639 2.192 3.639 2.192s-.537.999-2.748 1.611c-.677.194-1.439.076-2.18-.172a12.16 12.16 0 0 0 3.135 1.182c-2.909.269-5.679-2.395-5.958-2.675-.139.409-.365 1.279-.225 1.913.193.859.955 2.406.483 2.61.011-.01-2.254-1.74-1.932-3.642Z" fill="#2C3A64"/><path d="M130.031 128.026c.289.333.322.698.182 1.095-.268.731-1.127 1.537-2.136 2.353-.129.107-.247.204-.344.29-.021.022-.053.043-.075.065-.021.021-.043.032-.064.053-.945.87-.591 1.064-2.276 2.826-1.932 2.009-3.252 2.041-3.628 1.858-.322-.161.333-1.224 1.052-2.417.032-.054.064-.118.107-.172l.29-.483c.837-1.44.623-2.117.429-4.255-.161-1.74-2.705-9.733-2.705-9.733l3.693-.634s1.116 6.36 2.34 7.338c.655.526 1.385.526 2.018.913.043.032.086.054.129.086.333.247.698.494.988.817Z" fill="#FFB27D"/><path d="M130.033 128.026c.29.333.322.698.183 1.095-.322.731-1.17 1.537-2.147 2.342-.129.108-.236.204-.344.29-.021.022-.053.043-.075.065-.021.021-.043.032-.064.054-.945.87-.59 1.063-2.276 2.825-1.932 2.009-3.252 2.041-3.628 1.859-.322-.162.333-1.225 1.052-2.418a8.25 8.25 0 0 0 3.435-2.535c1.159-1.483 1.932-3.384 2.727-4.491.042.033.085.054.128.086.355.258.72.505 1.009.828Z" fill="#233862"/><path d="M100.244 125.716c-.225 1.139-1.857.945-3.67.505-1.815-.441-1.386.086-3.973-.204-2.587-.29-3.37-1.247-3.445-1.633-.076-.344 1.202-.462 2.576-.623l.515-.065c1.546-.193 2.684-1.192 4.08-2.009 1.33-.773 3.316-3.943 3.316-3.943l3.543.28s-1.858 2.825-2.577 4.061c-.418.719-.397 1.676-.343 2.417.032.408.064.816-.022 1.214Z" fill="#FFB27D"/><path d="M96.573 126.231c-1.814-.44-1.385.086-3.972-.204-2.587-.29-3.37-1.246-3.445-1.633-.076-.343 1.202-.462 2.576-.623l.01.022s1.546 1.096 3.704 1.149c1.75.043 3.607-.462 4.82-.44.032.397.053.816-.032 1.214-.215 1.149-1.836.956-3.66.515ZM113.824 103.037l3.317 8.917 4.326 11.645s1.17.119 2.297-.214c1.031-.301 2.222-1.086 2.222-1.086s-1.202-12.505-3.445-19.692c-.569-1.847-1.213-3.33-1.933-4.168-3.467-4.093-6.784 4.598-6.784 4.598Z" fill="#233862"/><path d="M117.195 88.867c2.168-.698 8.362.204 14.577 1.418l1.299-2.149 13.429-1.052s4.434 9.84 2.008 16.103c-.355.924-1.063 1.515-2.276 1.537h-10.788c-6.677 0-14.138-4.598-15.104-4.792-1.578-.311-2.211 2.847-3.789 6.167-1.578 3.319-14.846 14.696-14.846 14.696s-2.04.022-2.877-.3c-.901-.344-1.234-.785-1.234-.785s14.706-29.253 19.601-30.843Z" fill="#2B478B"/><path d="M129.336 69.454c4.24 3.449 14.438 9.422 14.502 9.4 0 0 3.274 1.956 5.496 1 3.714-1.601 6.57-7.22 1.428-13.43-2.566-3.094-4.691-4.114-4.198-8.229.537-4.458-1.47-10.066-6.601-10.302-.43-.022-3.027-.366-4.884.215-4.713 1.471-12.614 19.058-5.743 21.346Z" fill="#A9453D"/><path d="M143.227 64.244c.021 0-1.031 2.299-2.566 2.857-1.632.591-3.95-.376-3.929-.386.279-.162.473-1.204.365-2.46-.011-.065-.011-.119-.021-.183-.14-1.408-.548-2.955-.58-3.051l4.97-1.418.29-.086c.333 3.92.794 4.64 1.471 4.727Z" fill="#FFB27D"/><path d="M141.474 59.592c-.483 1.45-1.707 4.06-4.39 4.48-.14-1.408-.548-2.955-.58-3.051l4.97-1.43Z" fill="#ED975D"/><path d="M135.678 62.514s6.698-.451 6.355-4.62c-.344-4.168.29-7.036-4.004-6.929-4.294.108-4.992 1.773-5.217 3.19-.215 1.419 1.116 8.37 2.866 8.359Z" fill="#FFB27D"/><path d="M134.477 50.89s1.663 4.888 5.614 5.457c2.887.42 4.025-.365 4.025-.365s-1.61-1.525-2.48-3.889a2.025 2.025 0 0 0-1.599-1.31c-2.04-.312-4.691-1.676-5.56.107Z" fill="#A9453D"/><path d="M135.892 51.76s-1.192.484-2.029 2.267c-.451.978-.783 3.298-.504 4.265 0 0-1.922-4.458-.537-6.467 1.492-2.138 3.07-.065 3.07-.065Z" fill="#A9453D"/><path d="M148.807 79.638c-.118.505-.225.978-.3 1.408-.14.698-.226 1.289-.301 1.816-.204 1.643-.139 2.62-.279 3.684a8.872 8.872 0 0 1-.504 2.01c-.28.762-7.536 1.45-11.669 1.17-1.31-.086-2.308-.268-2.662-.58-1.471-1.278-1.331 1.536-1.524-11.946-.097-6.575 5.571-12.43 5.571-12.43s.451 2.804 6.076-.537c.204-.118 2.415 3.17 4.551 7.209 2.351 4.469 1.707 5.414 1.041 8.197Z" fill="#AEC3FF"/><path d="m117.141 111.965 4.326 11.645s1.17.118 2.297-.215c1.03-.301 2.222-1.085 2.222-1.085s-1.202-12.505-3.446-19.692l-5.399 9.347Z" fill="#2B478B"/><path d="M137.136 64.76s-5.786.977-6.473 3.48c-.676 2.493-5.378 16.448-5.378 16.448s3.639 1.246 5.002-.118c1.364-1.365 4.734-12.623 4.734-12.623l2.115-7.188Z" fill="#AEC3FF"/><path d="M136.808 59.839s-.161.72-.891.849c-.73.118-.945.043-1.106-.086-.161-.13-.354-.408-.354-.408s1.159-.452 2.351-.355Z" fill="#fff"/><path d="M148.204 82.85c-.204 1.644-.14 2.622-.279 3.686-5.26.021-12.28-4.061-12.28-4.061l12.559.376ZM135.637 79.026s8.19-.247 9.564-4.899c1.514-5.113 3.21 2.106 3.21 2.106l-.902 4.609h-8.985l-2.887-1.816Z" fill="#94B0ED"/><path d="m137.301 86.75-12.699.119-6.258-14.697 12.709-.118 6.248 14.697Z" fill="#F9DDBF"/><path d="m135.647 80.111-.934-1.15s-.633-.558-1.084-.655c-.462-.096-1.428-.655-1.514-.494-.096.161.741 1.279.741 1.279l.043.01c-.956.72-3.382.086-3.682.376-.365.355.494 1.129.966 1.558.462.43 1.782 1.16 2.812.838.752-.236 1.943-.473 1.943-.473l.709-1.289Z" fill="#FFB27D"/><path d="M143.214 64.233s5.314.344 6.645 2.428c1.331 2.073 2.974 12.612 2.287 16.233-.687 3.62-17.712-.688-17.712-.688l.547-3.137s9.822.054 10.38-1.225c.741-1.718-2.147-13.611-2.147-13.611Z" fill="#AEC3FF"/><path d="M119.296 74.75s.794-.913 1.309-.472c.505.44-.128 2.578-.611 2.363-.483-.215-.977-1.622-.698-1.89Z" fill="#FFB27D"/><path d="M59.625 126.65c-.28-.848 9.49-2.202 8.394 5.598 0 0 17.53 2.352 10.746-8.713-2.351-3.835-1.61-6.575-1.106-9.153.504-2.579-.183-10.421-6.763-10.7 0 0-1.578-.957-3.864-.205-5.217 1.73-19.816 24.13-7.407 23.173Z" fill="#163560"/><path d="M73.852 137.179s.622 1.235 1.76 2.664c1.363 1.719 8.545-2.353 7.933-2.664-.623-.312-4.23-10.711-5.088-12.022-.86-1.311-3.79-1.987-3.79-1.987l-.815 14.009Z" fill="#F9DDBF"/><path d="M49.622 207.32s-1.986 1.805-1.6 3.094c.387 1.29 2.18 2.138 2.416 3.718.247 1.568 1.213 2.428 2.082 2.428h4.144s.644-1.107-.902-1.44c-1.546-.333-2.125-2.181-2.029-3.889.097-1.719-.15-3.996-.15-3.996l-3.285-.763-.676.848ZM66.39 208.094s-.71 7.671.16 8.09l11.132-.022s0-1.289-1.793-1.568c-1.792-.291-4.927-1.333-5.463-3.664-.526-2.342-4.037-2.836-4.037-2.836Z" fill="#233862"/><path d="M58.457 153.089c2.286-5.146 3.692-6.618 3.424-8.208-.204-1.192.601-22.141.601-22.141.269-.086.816-.161 1.117-.226a2.777 2.777 0 0 0 2.04-1.772c.386-1.096.697-2.708.697-4.727l.29.053 4.938.978s-.108 1.558-.118 3.019v.032a2.841 2.841 0 0 0 2.05 2.75c.622.183 1.17.333 1.17.333s1.814 5.179 2.157 10.496c.344 5.318-3.295 7.628.033 18.253 3.381 10.85-19.666 4.007-18.4 1.16Z" fill="#FFB27D"/><path d="M71.563 117.046s-.108 1.558-.118 3.019c-2.759-.075-4.219-2.6-4.82-3.997l4.938.978Z" fill="#E8945B"/><path d="M71.866 119.109s-6.473-.924-5.829-4.942c.634-4.018.226-6.854 4.39-6.435 4.155.419 4.713 2.084 4.831 3.47.108 1.396-1.696 8.036-3.392 7.907Z" fill="#FFB27D"/><path d="M73.365 108.097s-2.511 4.437-5.335 4.705c-2.823.269-3.886-.644-3.886-.644s2.34-1.322 3.232-4.136c.01-.011 5.023-2.385 5.99.075Z" fill="#163560"/><path d="M72.875 108.409s1.234.698 1.62 1.74c.377 1.021.634 2.331.28 3.835 0 0 1.846-2.997.633-5.049-1.277-2.17-2.533-.526-2.533-.526Z" fill="#163560"/><path d="M57.833 132.011s-.16 2.342 0 5.146c.108 1.859 1.997 4.351 2.255 4.974.665 1.547 1.427 1.794 1.427 1.794l5.84 1.429 2.05.505 6.484-1.934s2.952-8.25 1.77-12.891c-1.18-4.631-2.994-7.854-2.994-7.854s-5.292 5.179-12.173-.44l-4.659 9.271Z" fill="#F9DDBF"/><path d="M57.277 137.222c.108 1.858 2.544 4.286 2.813 4.909.665 1.547 1.427 1.794 1.427 1.794l5.84 1.429 1.557-2.202s-9.458-2.632-7.676-10.98l-3.96 5.05Z" fill="#F2CCAA"/><path d="M75.482 145.182s3.21 10.002 3.414 13.397c.204 3.405-6.13 48.355-6.387 49.923-.236 1.483-2.072 2.417-2.072 2.417s-.848.495-2.05.162c-1.675-.473-2.2-1.043-2.2-1.043s-2.502-32.057-.956-43.509c1.546-11.452 1.567-21.357 1.567-21.357h8.684v.01Z" fill="#ED7D2B"/><path d="M61.88 144.881s-4.896 6.575-5.357 11.023c-.462 4.448-.72 20.057-1.685 24.387-.977 4.329-4.541 12.666-4.541 26.181 0 0 .376.773 1.513 1.182.365.128.86.257 1.331.365a2.11 2.11 0 0 0 2.351-1.118c2.416-4.866 10.112-20.562 10.499-23.817.279-2.31 2.705-17.565 8.008-26.525 1.277-2.148-.784-10.7-.784-10.7l-11.336-.978Z" fill="#F99746"/><path d="M70.98 116.52s.033.494 1.224.601c0 0 .999.097 1.052-.43 0 0-.901-.515-2.275-.171Z" fill="#fff"/><path d="M75.996 143.635s-1.289 1.021-3.843 1.075c-3.06.064-10.628-.785-10.628-.785s-.332.946-.322 1.934c0 0 9.254 2.331 14.61.344-.01 0 .676-1.3.183-2.568Z" fill="#233862"/><path d="M71.488 145.762c0-.87.623-1.579 1.396-1.579.773 0 1.395.709 1.395 1.579 0 .871-.622 1.58-1.395 1.58s-1.396-.709-1.396-1.58Zm.462 0c0 .613.418 1.118.934 1.118.515 0 .934-.505.934-1.118 0-.612-.419-1.117-.934-1.117-.516 0-.934.505-.934 1.117Z" fill="#fff"/><path d="m66.195 150.221 13.902.129 6.848-16.093-13.912-.129-6.838 16.093Z" fill="#C5D9EA"/><path d="m68.012 142.948 1.02-1.257s.687-.613 1.191-.72c.505-.107 1.556-.72 1.664-.548.107.172-.816 1.397-.816 1.397l-.043.01c1.052.795 3.703.097 4.026.419.397.387-.548 1.236-1.052 1.709-.505.472-1.954 1.267-3.081.913-.827-.258-2.126-.516-2.126-.516l-.783-1.407ZM85.893 137.082s-.87-.999-1.427-.516c-.558.473.15 2.826.676 2.589.526-.236 1.063-1.783.751-2.073Z" fill="#FFB27D"/><path d="M62.493 122.74s-4.638.322-6.42 4.652c-1.781 4.329-5.077 13.547-5.077 14.761 0 1.214 3.64 5.715 17.873 2.245 0 0 .483-1.364-.462-2.063 0 0-9.929-3.19-9.907-3.824.032-1.203 1.341-2.235 6.88-7.789 1.514-1.515-2.887-7.982-2.887-7.982Z" fill="#F9DDBF"/><g opacity=".7"><path d="m221.93 83.13 13.89 4.544-8.33-8.122-.837 1.988-3.575.021-1.148 1.569Z" fill="#9EC3F6"/><path d="m235.818 87.674-10.788-8.208-11.518-2.631 22.306 10.84ZM227.488 79.552l8.33 8.122-5.549-11.366-2.781 3.244Z" fill="#fff"/></g><g opacity=".7"><path d="m177.598 59.71-14.653 2.095 9.726-6.629.494 2.128 3.563.644.87 1.762Z" fill="#9EC3F6"/><path d="m162.945 61.805 12.195-6.295 11.958-.602-24.153 6.897ZM172.671 55.176l-9.726 6.629 7.536-10.367 2.19 3.738Z" fill="#fff"/></g><path d="M102.285 216.259h-.859c-4.466-.87-20.245-4.287-20.117-9.121.15-5.221 18.367 7.305 20.976 9.121ZM109.166 216.259h-3.241c-8.202-5.361-20.482-14.557-19.516-21.078 1.428-9.712 9.683 2.825 12.377 7.746 1.664 3.061 6.763 9.163 10.38 13.332ZM40.387 133.601l-4.82 6.478a1.282 1.282 0 0 1-.247.237 1.002 1.002 0 0 1-1.148-.033l-11.24-8.379a.99.99 0 0 1-.353-1.096 1.14 1.14 0 0 1 .15-.301l4.82-6.478a.996.996 0 0 1 1.395-.204l11.24 8.38c.44.333.536.956.203 1.396Z" fill="#CDE0FB"/><path d="M35.32 140.316a1.002 1.002 0 0 1-1.148-.033l-11.24-8.379a.99.99 0 0 1-.353-1.096l9.135 1.665 3.606 7.843Z" fill="#BED7FB"/><path d="m40.386 133.601-9.618-.247-3.467-8.992.247-.333a.996.996 0 0 1 1.395-.204l11.24 8.38c.44.333.536.956.203 1.396Z" fill="#DFEBFD"/><path d="m212.999 170.783 5.56 30.639c.086.452.075.903.011 1.333a3.835 3.835 0 0 1-3.113 3.147l-53.179 9.658a3.848 3.848 0 0 1-4.025-1.88 3.988 3.988 0 0 1-.451-1.224l-5.561-30.629c-.376-2.095 1.009-4.104 3.092-4.48l53.179-9.658a3.855 3.855 0 0 1 4.487 3.094Z" fill="#ED8537"/><path d="M218.567 202.744a3.832 3.832 0 0 1-3.113 3.148l-53.179 9.658a3.85 3.85 0 0 1-4.025-1.88l28.715-21.39 31.602 10.464Z" fill="#DD6D22"/><path d="m212.997 170.783-25.999 26.46-34.458-13.847-.279-1.569c-.376-2.095 1.009-4.104 3.091-4.48l53.179-9.658a3.845 3.845 0 0 1 4.466 3.094Z" fill="#F99746"/><path d="M249.947 208.008c1.289-.687 3.006-4.018.161-9.142-2.844-5.114-11.668-1.107-11.668-1.107s-3.907 11.162-5.679 11.839c-1.771.677 1.482-10.195 1.482-10.195-3.629.537-11.572 7.112-11.572 7.112s2.018 6.671 2.04 9.755h17.915l6.441.021c.913-2.503 1.245-4.867 1.245-4.867-3.059 1.848-9.446 1.494-9.961.409-.516-1.075 8.308-3.137 9.596-3.825Zm-33.663 6.532a7.843 7.843 0 0 0-.354 1.74h6.988c-.945-2.793-1.256-8.412-1.256-8.412-3.167 1.88-5.378 6.672-5.378 6.672Z" fill="#CDE0FB"/><path d="M309.002 217H27.296a.426.426 0 0 1-.433-.415v-.477c0-.223.19-.415.433-.415h281.706c.232 0 .432.182.432.415v.477a.42.42 0 0 1-.432.415Z" fill="#2E3552"/><path d="M183.544 192.205c.269-.988.709-1.644 1.632-1.655 1.385-.01 1.879.774 2.104 1.676.311 1.214-.945 1.655-1.868 1.752-1.309.128-2.115-.881-1.868-1.773Z" fill="#2B478B"/></g><defs><clipPath id="clip0_874_4105"><path fill="#fff" transform="translate(-1)" d="M0 0h321v217H0z"/></clipPath></defs></svg>