<svg width="738" height="498" fill="none" xmlns="http://www.w3.org/2000/svg"><g clip-path="url('#clip0_874_3975')"><path d="M706.06 497.987c-15.202 0-99.026.029-204.128 0-27.124 0-55.703 0-84.852-.028h-15.459c-20.877 0-41.983-.029-63.032-.029h-16.971c-34.197-.028-68.023-.057-100.224-.085-125.41-.143-162.316-1.17-162.316-1.227-.257-.599-115.284-59.223-23.645-181.893 46.091-61.762-6.417-128.916 32.886-187.797 55.588-83.33 147.627-34.462 210.774-60.878 11.152-4.65 22.361-12.153 33.57-23.678 6.303-6.476 13.234-12.125 20.621-17.031 1.141-.742 2.282-1.484 3.451-2.197 4.421-2.738 9.013-5.192 13.747-7.417a140.256 140.256 0 0 1 9.726-4.137 168.59 168.59 0 0 1 16.115-5.22 179.556 179.556 0 0 1 24.015-4.679c3.565-.456 7.159-.827 10.81-1.084C481.71-4.67 561.085 24.998 602.071 68.361c8.243 8.729 45.748 53.917 16.2 115.993-18.682 39.197 59.553 76.654 87.333 121.414 70.648 113.825 1.084 190.736.456 192.219Z" fill="#D9E3F6"/><path d="M233.84 147.509c8.432-13.56 31.977-1.455 31.977-1.455s9.172 30.942 13.905 33.037c4.734 2.096-2.662-27.983-2.662-27.983 9.812 1.948 30.621 20.932 30.621 20.932s-10.602 29.684-5.498 30.547c5.103.863 8.037-26.775 8.037-26.775 8.407 5.548 13.782 18.91 13.782 18.91 5.498 20.784-21.449 26.775-21.449 26.775s-3.452 10.38-.592 24.31c0 0 .789 2.663 1.134 6.854l-2.515-.764c0-.74-.024-1.455-.098-2.17v-.049c-.05-.444-.148-1.06-.247-1.825a54.49 54.49 0 0 1-.592-3.895c-.887-5.424-2.342-12.574-4.191-14.522 0 0 .395-.296.888-.986-.272.321-.567.641-.888.986-7.076 7.939-29.092 3.008-40.335-3.057-11.267-6.065-5.005-7.889 3.106-11.44 8.112-3.55 21.228 1.973 25.863 1.011 4.66-.961-.542-4.857-8.728-6.657-8.185-1.799-14.595 5.005-27.884 2.367-13.289-2.663-15.828-29.931-15.828-29.931 8.086 5.449 25.567 5.326 27.12 2.441 1.528-2.884-22.239-9.714-25.666-11.735-3.451-2.047-7.692-11.366.74-24.926Z" fill="#DFEBFD"/><path d="M413.251 185.156c-6.04-9.714-22.88-1.06-22.88-1.06s-6.558 22.14-9.935 23.619c-3.403 1.504 1.898-20.019 1.898-20.019-7.027 1.38-21.893 14.99-21.893 14.99s7.593 21.252 3.92 21.869c-3.649.616-5.745-19.157-5.745-19.157-6.016 3.969-9.862 13.511-9.862 13.511-3.945 14.866 15.36 19.156 15.36 19.156s2.466 7.421.419 17.407c0 0-.567 1.898-.813 4.906l1.799-.543c0-.517.025-1.035.074-1.553v-.024c.05-.321.099-.765.173-1.307.222-1.233.37-2.145.419-2.786.641-3.871 1.677-8.999 2.983-10.404 0 0-.271-.222-.641-.715l.641.715c5.055 5.67 20.809 2.145 28.871-2.195 8.062-4.339 3.575-5.646-2.219-8.185-5.794-2.539-15.187 1.405-18.516.715-3.328-.69.395-3.476 6.263-4.758 5.867-1.282 10.429 3.575 19.945 1.676 9.517-1.898 11.342-21.4 11.342-21.4-5.794 3.895-18.294 3.821-19.404 1.75-1.109-2.071 15.927-6.952 18.368-8.407 2.416-1.405 5.449-8.087-.567-17.801Z" fill="#CDE0FB"/><path d="M333.273 429.46s-8.555-14.472-19.255-19.403c0 0 1.479 32.421-4.586 32.322-6.041-.099.961-36.267.961-36.267s-27.366-18.269-39.053-18.787c0 0 13.856 33.432 8.013 31.829-5.843-1.578-21.869-35.7-21.869-35.7s-29.314-9.837-36.686 7.323c-7.347 17.159-.813 27.169 3.501 28.92 4.315 1.75 32.964 5.424 31.706 9.023-1.282 3.624-21.449 6.83-31.755 1.948 0 0 7.741 31.04 23.57 31.78 15.828.715 22.016-8.259 31.78-7.643 9.763.616 16.469 4.216 11.267 6.139-5.202 1.923-21.302-2.145-30.054 3.378-8.753 5.522-15.631 8.727-1.578 13.757 14.078 5.03 40.36 6.854 47.14-3.575 2.465 1.948 5.399 9.936 7.396 16.05.271 1.036.69 2.466 1.381 4.413.148.469.271.888.37 1.258h2.736a42.582 42.582 0 0 0-.641-1.899c-.493-1.331-.838-2.071-.838-2.071-5.745-15.606-3.6-28.18-3.6-28.18s30.104-11.588 20.094-34.615Zm-26.849 45.093c.296-.443.567-.863.838-1.282-.394.765-.764 1.184-.838 1.282Z" fill="#AFCDFB"/><path d="M353.934 372.803v123.496h-10.848V372.803h10.848Z" fill="#94B0ED"/><path d="M236.059 372.803h123.569v-70.931c0-34.122-27.663-61.785-61.785-61.785s-61.784 27.663-61.784 61.785v70.931Z" fill="#AFCDFB"/><path d="M394.789 240.087H294.074v80.448h88.412l12.303-80.448Z" fill="#AFCDFB"/><path d="M333 372.803h123.569v-70.931c0-34.122-27.662-61.785-61.784-61.785S333 267.75 333 301.872v70.931Z" fill="#628AD3"/><path d="M339.633 365.678h110.28v-63.313c0-30.449-24.679-55.128-55.128-55.128-30.448 0-55.128 24.679-55.128 55.128v63.313h-.024Z" fill="#233862"/><path d="M554.699 372.803H331.13a3.577 3.577 0 0 1-3.575-3.575 3.577 3.577 0 0 1 3.575-3.574h223.569a3.576 3.576 0 0 1 3.574 3.574 3.577 3.577 0 0 1-3.574 3.575Z" fill="#628AD3"/><path d="M323.191 379.361h52.367a3.356 3.356 0 0 0 3.353-3.353v-3.353h-59.27v3.156a3.55 3.55 0 0 0 3.55 3.55Z" fill="#94B0ED"/><path d="M610.27 249.579s4.734 7.791-4.167 12.697c0 0 6.829 2.466 9.196 1.529 0 0-.591.616-1.035.838 0 0 6.41 2.046 9.615.937 3.205-1.11 10.084-32.174-8.851-33.826 0 0-14.941-5.35-18.096 11.316-3.156 16.667-8.901 15.064-8.901 15.064s1.406 1.184 2.17 1.406c0 0 1.233-.074 1.627-.592 0 0-.468.838-.838 1.06 0 0 6.065 2.293 9.763 1.011 3.698-1.356 9.443-7.84 9.517-11.44Z" fill="#163560"/><path d="M591.258 494.844h24.161s.568-3.673-.69-6.484c-1.208-2.687-3.082-4.339-3.254-6.386-1.529 1.578-3.427 2.589-6.928 2.121-.419.69-2.762 4.413-4.192 5.424-1.577 1.159-8.629.739-9.097 5.325Z" fill="#233862"/><path d="M611.207 485.623s-2.071.666-4.216.863c-3.797.345-4.364-.789-4.364-.789s-3.772-33.678-16.025-98.027c-1.776-9.295-2.466-14.448-3.107-22.707-.197-2.465-.37-5.227-.592-8.456-.542-8.679.765-23.274 7.274-27.096 2.958-1.75 7.001-1.257 12.401 3.008.419.345.863.69 1.307 1.085 15.853 13.732 9.368 53.131 10.009 71.671.099 3.082.419 5.572 1.036 7.273.813 2.219 2.564 5.276 2.983 8.161 3.353 24.014-6.706 65.014-6.706 65.014Z" fill="#2B478B"/><path d="m613.914 405.15-30.399-40.187c-.198-2.465-.37-5.227-.592-8.456-.542-8.679.764-23.274 7.273-27.096l12.401 3.008c.419.345.863.69 1.307 1.085 15.878 13.708 9.369 53.106 10.01 71.646ZM699.889 443.981l-10.059-21.967s-3.599 1.011-5.596 3.328c-1.923 2.219-3.329 1.825-7.742-1.232 1.652 2.564 1.874 4.068 2.909 7.445.814.099 5.424 4.562 10.134 5.794 1.873.469 5.991 8.112 10.354 6.632Z" fill="#233862"/><path d="M594.438 339.026s21.646 75.271 29.585 80.104c7.939 4.832 49.655 11.513 58.111 15.138 0 0 1.036-1.48.419-4.636-.123-.69-1.331-3.229-1.331-3.229s-25.912-19.478-42.948-21.425c-4.241-.493 8.604-65.089-19.971-67.677-26.084-2.343-23.865 1.725-23.865 1.725Z" fill="#2B478B"/><path d="M562.363 215.63s.493-2.417 1.036-4.266c.246-.813-1.43-6.163-2.614-6.829-1.158-.666-4.191 2.934-3.328 5.72.444 1.43 1.159 6.04 1.159 6.04l3.747-.665Z" fill="#FFB27D"/><path d="M562.367 215.63s.641-1.406 1.208-1.628c.567-.222 1.184-2.514 1.603-3.427 0 0-.395-.591-1.11.173-.443.468-1.405 1.824-1.405 1.824l-.296 3.058ZM662.338 225.048c.148.296.345.863.543 1.356v-.419c0-1.011 3.821-6.583 5.399-6.928 1.578-.346 3.797 4.857 1.824 7.741-1.01 1.479-4.043 6.756-4.043 6.756l-3.378-2.047s-.024-1.43-.936-2.564c-.469-.592-.469-3.304-.642-4.512 0 .05.691-.493 1.233.617ZM598.778 269.5c-.05.025 4.339 3.205 8.087 2.761 3.5-.419 6.36-4.462 6.311-4.487-1.381-.493-1.504-2.515-.222-10.946l-.665.024-11.194.543s-.271 3.451-.739 6.681c-.37 2.687-.913 5.227-1.578 5.424Z" fill="#FFB27D"/><path d="M601.122 257.37s-.271 3.452-.739 6.681c6.114.74 10.133-4.339 11.908-7.223l-11.169.542Z" fill="#ED975D"/><path d="M613.597 255.841s3.945-4.561 5.35-8.752c1.011-2.983 1.134-14.62-10.552-14.67 0 0-3.378-.172-6.805 1.48-2.737 1.306-6.854 4.388-4.339 14.94l.542 3.501 15.804 3.501Z" fill="#163560"/><path d="M584.75 336.142s10.971 6.928 29.241 2.465c.221-.049 10.379-1.676 10.379-1.676-.246-.691-10.947-18.368-11.193-19.009-3.23-8.358 4.265-48.299-.69-50.542-1.258 1.38-4.882 2.317-7.964 2.046-3.55-.32-4.758-1.849-4.462-3.501-3.945 1.874-6.978 3.6-6.978 3.6-3.575 5.399-8.333 66.617-8.333 66.617ZM598.63 260.131s14.349 2.367 15.681-6.583c1.331-8.949 4.092-14.694-5.005-16.592-9.098-1.899-11.391 1.257-12.574 4.142-1.159 2.884-1.8 18.17 1.898 19.033Z" fill="#FFB27D"/><path d="M602.797 235.772s2.367 11.095 8.185 13.561c5.819 2.465 8.679 1.232 8.679 1.232s-4.093-4.364-4.093-10.946c0-.025-9.048-8.408-12.771-3.847Z" fill="#163560"/><path d="M603.636 236.783s-3.279 1.899-4.339 4.093c-1.06 2.17-2.071 6.829-3.427 6.459 0 0-1.899-7.593 2.021-11.143 4.192-3.773 5.745.591 5.745.591Z" fill="#163560"/><path d="M666.676 233.627s-9.245 28.131-11.711 32.471c-1.479 2.613-18.145 12.993-27.835 19.847-.098.074-.222.222-.37.444v.024c-2.416 3.723-9.911 26.849-8.136 30.991 7.545 17.431 12.722 24.186 14.596 29.068.937 2.441-.321 5.178-2.786 6.04a80.07 80.07 0 0 1-13.067 3.427 60.84 60.84 0 0 1-3.18.469c-14.867 1.898-24.926-1.603-30.055-4.191-2.416-1.208-3.87-3.748-3.722-6.46.295-5.523 3.057-10.971 4.314-24.235.937-10.06-7.741-25.395-7.372-30.745.148-2.12 1.8-4.66 2.712-6.287 1.603-2.909 2.466-5.523 1.406-7.002-7.076-9.714-22.362-23.101-22.978-26.454-.913-4.907-.494-35.281-.494-35.281.592-.197 1.455-.691 2.565-.789 1.01-.099 2.243.222 2.243.222s4.044 25.172 4.339 26.504c.296 1.331 17.357 20.562 21.968 20.488 4.142-.074 10.01 3.131 10.922 3.747 0 0-3.723 6.608-4.66 15.533-.641 6.237 3.526 3.476 6.139-.814 3.55-5.794 10.676-14.029 10.676-14.029s5.818-1.503 10.133.05c4.314 1.578 26.701-11.07 27.416-12.229.715-1.159 12.697-23.496 12.697-23.496s.986-.567 2.589.247c1.627.838 1.651 2.44 1.651 2.44Z" fill="#F99746"/><path d="M602.797 255.274s-.617 1.233-1.43 1.258c-.814.024-2.934-.173-3.057-.395-.148-.222-.494-1.504-.494-1.504s3.452-.148 4.981.641Z" fill="#fff"/><path d="M630.436 352.512a80.042 80.042 0 0 1-13.067 3.427c-5.128-7.075-13.806-15.976-11.587-32.346 2.317-16.914 18.934-34.739 20.932-37.18-2.417 3.723-9.912 26.849-8.137 30.991 7.545 17.431 12.722 24.186 14.596 29.068.986 2.441-.271 5.153-2.737 6.04ZM580.088 284.49c1.603-2.909 2.466-5.522 1.406-7.002-7.076-9.714-22.362-23.101-22.978-26.454 1.504 3.624 20.019 14.497 25.221 19.156 5.153 4.611-3.427 14.054-3.649 14.3Z" fill="#ED7D2B"/><path d="M439.042 184.836s-.74-8.112 8.309-8.112c0 0-2.737.74-4.167 2.244 0 0 5.769-3.378 12.056 1.824 6.287 5.203 2.367 18.27 4.29 20.735 1.898 2.49 9.344 2.983 8.432 10.996-.912 8.013-23.619 18.047-22.14 24.679 0 0-8.9-13.067-2.539-19.033 0 0-3.107 2.909-3.427 6.386 0 0-.839-6.78 3.476-8.95 3.821-1.923 6.952-8.925 6.607-10.182-.32-1.233-10.897-20.587-10.897-20.587Z" fill="#2C3A64"/><path d="M451.814 218.859s-12.87 32.495-15.656 31.287c-2.786-1.208-19.132-6.385-19.132-6.385l-1.085 3.969s15.558 11.982 23.57 12.525c8.013.517 18.861-23.077 18.861-23.077l-6.558-18.319Z" fill="#FFB27D"/><path d="m451.961 242.158 12.697 44.379c.198.665.247 1.306.198 1.947a5.705 5.705 0 0 1-4.118 5.104l-77.07 22.041c-2.392.69-4.857-.271-6.213-2.169a5.487 5.487 0 0 1-.839-1.751l-12.697-44.354a5.702 5.702 0 0 1 3.92-7.051l77.071-22.041c3.008-.863 6.164.887 7.051 3.895Z" fill="#ED8537"/><path d="M464.854 288.484a5.702 5.702 0 0 1-4.117 5.104l-77.071 22.041c-2.391.691-4.857-.271-6.213-2.169l39.25-35.75 48.151 10.774Z" fill="#DD6D22"/><path d="m451.96 242.158-34.492 42.85-52.884-15.36-.641-2.268a5.7 5.7 0 0 1 3.92-7.051l77.07-22.042c2.984-.887 6.139.863 7.027 3.871Z" fill="#F99746"/><path d="M422.749 244.574s-7.052-2.983-8.038.789c-.518 1.997-1.726 4.635.444 4.438 2.17-.197 4.364-1.652 4.61-2.835.247-1.208 2.984-2.392 2.984-2.392Z" fill="#FFB27D"/><path d="M511.501 272.878a2.213 2.213 0 0 1-.197.32c-1.48 2.564-4.882 8.876-8.605 15.779a2960.53 2960.53 0 0 1-5.375 9.887c-3.032 5.523-5.769 10.453-7.396 13.067-1.627 2.638-2.835 4.512-3.328 5.251-.148.222-.173.493-.148.765a40.584 40.584 0 0 1-.099 6.928c-2.243 22.435-17.381 34.442-17.381 34.442l-4.488.666s6.361-23.57 8.235-36.908c.321-2.268.444-4.093.345-5.276-.32-3.477.296-8.58 1.455-14.423 2.071-10.405 5.892-23.176 9.196-33.383.222-.641 6.534-23.52 6.534-23.52 5.3 4.635 24.679 6.558 24.679 6.558s3.254 7.939-3.427 19.847Z" fill="#2B478B"/><path d="M455.043 365.653h18.762s.444-2.859-.542-5.029c-.937-2.071-2.268-2.145-.173-5.424-1.183 1.233-5.029 1.726-7.741 1.381-.321.542-2.145 4.166-3.255 4.955-1.208.888-6.681.567-7.051 4.117ZM511.502 272.878a2.213 2.213 0 0 1-.197.32c-1.479 2.564-9.492 17.357-13.215 24.236 4.339-17.825 1.307-35.651 1.307-35.651l12.105 11.095Z" fill="#233862"/><path d="M441.606 183.702c-.123-.493 10.725 4.906 11.268 5.522 5.079 5.646 3.624 12.993.715 13.067-1.874.05-1.504 3.156-1.504 3.156l-20.784-8.802s2.515-14.595 10.305-12.943Z" fill="#2C3A64"/><path d="M448.609 219.525s-2.761 2.86-2.761 11.44c0 0 3.821 6.016 13.708 7.544-.025.025-8.531-18.984-10.947-18.984Z" fill="#F9DDBF"/><path d="m496.855 254.387-.074-3.501c7.002.887 24.113-8.358 24.113-8.358s7.322 4.857 8.308 18.762c.493 6.78 3.575 35.478 3.92 44.033.124 3.107.173 5.326.173 6.213 0 .272.123.518.296.715a39.95 39.95 0 0 1 3.797 5.819c10.675 19.847 5.103 46.844 5.103 46.844l-2.49-.641s-9.024-27.983-14.916-40.064c-1.011-2.046-1.923-3.649-2.663-4.561-2.219-2.688-4.561-7.273-6.854-12.771-4.339-10.429-18.713-52.49-18.713-52.49Z" fill="#2B478B"/><path d="M527.602 365.653h18.762s.444-2.859-.543-5.029c-.936-2.071-2.416-3.033-2.046-5.547-1.183 1.232-3.131 2.613-5.843 2.243-.321.543-2.145 3.427-3.255 4.216-1.232.888-6.706.567-7.075 4.117Z" fill="#233862"/><path d="M460.815 242.552c2.514.42-.419 2.441 3.057 2.811 4.931.543 10.034.912 12.697 1.972.962.395 1.627.863 1.824 1.48 1.159 3.476 8.482 9.467 8.482 9.467 32.692-1.479 34.048-15.779 34.048-15.779-21.203-20.611-40.73-32.741-55.621-34.368-2.54-.272-5.769 1.331-8.062 2.366-5.227 2.318-8.654 9.024-8.654 9.024s2.638 21.4 12.229 23.027Z" fill="#F9DDBF"/><path d="M463.871 245.363c4.931.543 10.035.912 12.697 1.972 1.085-16.296-6.607-28.574-6.607-28.574s-5.005 20.438-6.09 26.602Z" fill="#F2CCAA"/><path d="M459.604 216.024s12.401-.69 14.62 7.125c2.194 7.791-4.142 38.905-5.498 42.111-2.49 5.843-14.596 22.534-14.596 22.534l-4.462-1.356s8.087-25.493 9.887-28.008c2.81-3.994-3.674-39.028.049-42.406Z" fill="#FFB27D"/><path d="M449.669 286.413s-.222 1.973-1.061 3.008c-.838 1.011-3.254 3.476-3.303 4.931 0 0 .123.641.641.518.517-.124 2.342-1.899 3.254-1.775 0 0-.493 2.884-.986 3.722-.493.814-.099 4.266.197 4.981.296.715 3.92-3.772 5.4-5.769 1.479-1.998.024-10.134.024-10.134l-4.166.518Z" fill="#FFB27D"/><path d="M476.664 233.553c-.025.173-11.736 2.145-19.083-1.553 0 0-6.114-19.181 2.638-18.244 8.752.912 13.93 3.673 14.152 7.865.222 4.166 2.293 11.932 2.293 11.932Z" fill="#F9DDBF"/><path d="M457.235 210.501s-3.452 12.87-8.654 9.024c.148-.616-.764-2.441-1.824-4.265-1.356-2.342-2.984-4.734-2.984-4.734l7.027-6.164.419-.369c2.145 3.772 4.265 5.226 6.016 6.508Z" fill="#FFB27D"/><path d="M443.773 210.526s1.628 2.391 2.984 4.734c4.364-2.688 4.364-8.087 4.043-10.898l-7.027 6.164Z" fill="#ED985F"/><path d="M443.581 213.608s10.601-5.893 6.829-12.451c-3.772-6.558-4.956-11.711-11.884-8.234-6.928 3.501-6.78 6.73-6.065 9.22.74 2.515 8.284 12.821 11.12 11.465Z" fill="#FFB27D"/><path d="M430.681 198.347c.493-2.91 1.973-3.181 2.984-2.984 3.92-6.484 10.305-3.944 10.305-3.944 3.427 4.29 8.358 5.029 8.358 5.029s-1.232 2.293-6.311 3.698c-1.554.444-3.304.173-5.005-.394 3.525 1.972 7.199 2.712 7.199 2.712-6.682.616-13.042-5.498-13.683-6.139-.321.937-.839 2.934-.518 4.388.444 1.973 2.194 5.523 1.109 5.992.025-.025-5.177-3.995-4.438-8.358Z" fill="#2C3A64"/><path d="M300.95 293.81c.665.764.739 1.602.419 2.514-.617 1.677-2.589 3.526-4.907 5.4-.295.246-.567.468-.788.666-.05.049-.124.098-.173.147-.049.05-.099.074-.148.124-2.17 1.997-1.356 2.441-5.227 6.484-4.438 4.61-7.47 4.684-8.333 4.265-.74-.37.764-2.81 2.416-5.547.074-.123.148-.271.247-.395l.665-1.109c1.923-3.304 1.43-4.857.987-9.763-.37-3.994-6.213-22.337-6.213-22.337l8.481-1.455s2.564 14.595 5.374 16.839c1.504 1.208 3.181 1.208 4.636 2.096.098.074.197.123.295.197.765.567 1.603 1.134 2.269 1.874Z" fill="#FFB27D"/><path d="M300.949 293.81c.666.764.74 1.602.419 2.514-.739 1.677-2.687 3.526-4.931 5.375-.296.247-.542.469-.789.666-.049.049-.123.099-.172.148-.05.049-.099.074-.148.123-2.17 1.997-1.356 2.441-5.227 6.484-4.438 4.611-7.47 4.685-8.333 4.266-.74-.37.764-2.811 2.416-5.548.863-.32 4.857-1.947 7.889-5.818 2.663-3.403 4.438-7.767 6.263-10.306.098.074.197.123.296.197.813.592 1.651 1.159 2.317 1.899Z" fill="#233862"/><path d="M232.534 288.509c-.518 2.613-4.265 2.17-8.432 1.159-4.166-1.011-3.18.197-9.122-.469-5.942-.665-7.742-2.86-7.914-3.747-.173-.789 2.761-1.06 5.917-1.43l1.183-.148c3.551-.444 6.164-2.737 9.369-4.611 3.057-1.775 7.619-9.048 7.619-9.048l8.136.641s-4.266 6.484-5.918 9.32c-.961 1.652-.912 3.846-.789 5.547.074.937.148 1.874-.049 2.786Z" fill="#FFB27D"/><path d="M224.102 289.692c-4.166-1.01-3.18.198-9.122-.468s-7.742-2.86-7.914-3.748c-.173-.789 2.761-1.06 5.917-1.43l.025.05s3.55 2.515 8.506 2.638c4.018.098 8.283-1.06 11.069-1.011.074.912.124 1.874-.073 2.786-.494 2.638-4.216 2.194-8.408 1.183ZM263.723 236.463l7.618 20.463 9.936 26.726s2.687.271 5.276-.493c2.367-.69 5.103-2.49 5.103-2.49s-2.761-28.698-7.914-45.192c-1.306-4.241-2.786-7.643-4.438-9.566-7.963-9.394-15.581 10.552-15.581 10.552Z" fill="#233862"/><path d="M271.465 203.943c4.98-1.602 19.206.469 33.481 3.255l2.983-4.931 30.843-2.416s10.183 22.583 4.611 36.957c-.814 2.12-2.441 3.476-5.227 3.526h-24.778c-15.335 0-32.47-10.553-34.689-10.996-3.625-.715-5.079 6.533-8.703 14.151-3.625 7.619-34.098 33.728-34.098 33.728s-4.684.049-6.607-.69c-2.071-.789-2.836-1.8-2.836-1.8s33.777-67.135 45.02-70.784Z" fill="#2B478B"/><path d="M299.349 159.392c9.738 7.914 33.16 21.622 33.308 21.573 0 0 7.52 4.487 12.623 2.293 8.531-3.674 15.089-16.568 3.279-30.818-5.892-7.101-10.774-9.443-9.64-18.886 1.233-10.232-3.377-23.101-15.162-23.644-.986-.049-6.953-.838-11.218.493-10.823 3.378-28.969 43.738-13.19 48.989Z" fill="#A9453D"/><path d="M331.251 147.435c.05 0-2.366 5.276-5.892 6.558-3.748 1.356-9.073-.863-9.024-.888.641-.37 1.085-2.761.839-5.646-.025-.148-.025-.271-.05-.419-.32-3.23-1.257-6.78-1.331-7.002l11.415-3.254.666-.197c.764 8.999 1.824 10.65 3.377 10.848Z" fill="#FFB27D"/><path d="M327.232 136.759c-1.11 3.329-3.921 9.32-10.084 10.281-.321-3.229-1.258-6.78-1.332-7.002l11.416-3.279Z" fill="#ED975D"/><path d="M313.92 143.465s15.385-1.035 14.596-10.601c-.789-9.566.665-16.149-9.196-15.903-9.862.247-11.465 4.069-11.983 7.323-.493 3.254 2.564 19.206 6.583 19.181Z" fill="#FFB27D"/><path d="M311.16 116.789s3.822 11.218 12.895 12.524c6.632.962 9.245-.838 9.245-.838s-3.698-3.501-5.695-8.925a4.655 4.655 0 0 0-3.674-3.008c-4.684-.715-10.774-3.846-12.771.247Z" fill="#A9453D"/><path d="M314.41 118.786s-2.736 1.109-4.659 5.202c-1.036 2.244-1.8 7.569-1.159 9.788 0 0-4.413-10.232-1.233-14.842 3.427-4.906 7.051-.148 7.051-.148Z" fill="#A9453D"/><path d="M344.071 182.765c-.271 1.159-.518 2.243-.69 3.23a72.53 72.53 0 0 0-.691 4.166c-.468 3.772-.32 6.016-.641 8.457-.172 1.356-.493 2.811-1.159 4.61-.641 1.751-17.307 3.329-26.799 2.688-3.008-.198-5.301-.617-6.115-1.332-3.377-2.934-3.057 3.526-3.501-27.416-.221-15.088 12.796-28.525 12.796-28.525s1.036 6.435 13.955-1.233c.468-.271 5.547 7.273 10.453 16.543 5.4 10.257 3.921 12.426 2.392 18.812Z" fill="#AEC3FF"/><path d="m271.34 256.951 9.936 26.726s2.687.271 5.276-.494c2.367-.69 5.103-2.49 5.103-2.49s-2.761-28.698-7.914-45.192l-12.401 21.45Z" fill="#2B478B"/><path d="M317.27 148.618s-13.289 2.244-14.867 7.988c-1.553 5.72-12.352 37.747-12.352 37.747s8.358 2.86 11.489-.272c3.131-3.131 10.873-28.969 10.873-28.969l4.857-16.494Z" fill="#AEC3FF"/><path d="M316.509 137.326s-.37 1.652-2.047 1.948c-1.676.271-2.169.099-2.539-.197-.37-.296-.814-.937-.814-.937s2.663-1.036 5.4-.814Z" fill="#fff"/><path d="M342.69 190.137c-.469 3.772-.321 6.015-.641 8.456-12.081.05-28.205-9.319-28.205-9.319l28.846.863ZM313.82 181.36s18.812-.567 21.968-11.243c3.476-11.736 7.371 4.832 7.371 4.832l-2.071 10.577h-20.636l-6.632-4.166Z" fill="#94B0ED"/><path d="m317.642 199.086-29.167.272-14.373-33.728 29.191-.271 14.349 33.727Z" fill="#F9DDBF"/><path d="m313.845 183.85-2.145-2.638s-1.454-1.282-2.49-1.504c-1.06-.222-3.279-1.504-3.476-1.134-.222.369 1.701 2.934 1.701 2.934l.099.024c-2.195 1.652-7.767.197-8.457.863-.838.814 1.134 2.589 2.219 3.575 1.06.986 4.093 2.663 6.459 1.923 1.726-.542 4.463-1.085 4.463-1.085l1.627-2.958Z" fill="#FFB27D"/><path d="M331.226 147.41s12.204.789 15.261 5.572c3.058 4.758 6.83 28.945 5.252 37.253-1.578 8.309-40.68-1.578-40.68-1.578l1.257-7.199s22.559.123 23.841-2.81c1.701-3.945-4.931-31.238-4.931-31.238Z" fill="#AEC3FF"/><path d="M276.295 171.547s1.825-2.096 3.008-1.085c1.159 1.011-.296 5.917-1.405 5.424-1.11-.493-2.244-3.723-1.603-4.339Z" fill="#FFB27D"/><path d="M139.242 290.654c-.641-1.948 21.795-5.054 19.28 12.845 0 0 40.261 5.399 24.68-19.995-5.4-8.802-3.699-15.089-2.54-21.006 1.159-5.917-.419-23.915-15.532-24.556 0 0-3.624-2.194-8.876-.468-11.982 3.969-45.513 55.374-17.012 53.18Z" fill="#163560"/><path d="M171.91 314.815s1.43 2.836 4.044 6.115c3.131 3.945 19.625-5.4 18.219-6.115-1.43-.715-9.714-24.58-11.686-27.588-1.972-3.008-8.703-4.561-8.703-4.561l-1.874 32.149Z" fill="#F9DDBF"/><path d="M116.265 475.786s-4.561 4.142-3.674 7.101c.888 2.958 5.005 4.906 5.547 8.53.567 3.6 2.786 5.572 4.783 5.572h9.517s1.479-2.539-2.071-3.304c-3.55-.764-4.881-5.005-4.66-8.925.222-3.944-.345-9.171-.345-9.171l-7.544-1.751-1.553 1.948ZM154.777 477.561s-1.627 17.604.37 18.565l25.567-.049s0-2.959-4.117-3.6c-4.118-.665-11.317-3.057-12.55-8.407-1.208-5.375-9.27-6.509-9.27-6.509Z" fill="#233862"/><path d="M136.553 351.329c5.252-11.809 8.482-15.187 7.865-18.836-.468-2.737 1.381-50.813 1.381-50.813.616-.198 1.874-.37 2.564-.518 2.17-.469 3.945-1.997 4.684-4.068.888-2.515 1.603-6.213 1.603-10.848l.666.123 11.341 2.244s-.247 3.575-.271 6.928v.074a6.522 6.522 0 0 0 4.709 6.311c1.43.419 2.687.764 2.687.764s4.167 11.884 4.956 24.088c.788 12.204-7.569 17.505.074 41.888 7.766 24.902-45.168 9.197-42.259 2.663Z" fill="#FFB27D"/><path d="M166.658 268.612s-.247 3.575-.272 6.928c-6.336-.172-9.689-5.966-11.07-9.171l11.342 2.243Z" fill="#E8945B"/><path d="M167.35 273.346s-14.866-2.12-13.387-11.341c1.455-9.221.518-15.73 10.084-14.768 9.541.961 10.823 4.783 11.094 7.963.247 3.206-3.895 18.442-7.791 18.146Z" fill="#FFB27D"/><path d="M170.799 248.075s-5.769 10.182-12.253 10.799c-6.484.616-8.925-1.479-8.925-1.479s5.375-3.033 7.421-9.492c.025-.025 11.539-5.474 13.757.172Z" fill="#163560"/><path d="M169.668 248.79s2.835 1.603 3.723 3.994c.863 2.342 1.454 5.35.641 8.802 0 0 4.24-6.879 1.454-11.588-2.933-4.98-5.818-1.208-5.818-1.208Z" fill="#163560"/><path d="M135.125 302.957s-.37 5.374 0 11.809c.247 4.265 4.586 9.985 5.178 11.415 1.528 3.551 3.279 4.118 3.279 4.118l13.412 3.279 4.709 1.158 14.892-4.437s6.78-18.935 4.068-29.586c-2.712-10.626-6.879-18.023-6.879-18.023s-12.155 11.884-27.959-1.01l-10.7 21.277Z" fill="#F9DDBF"/><path d="M133.844 314.914c.246 4.265 5.843 9.837 6.459 11.267 1.529 3.551 3.279 4.118 3.279 4.118l13.413 3.279 3.574-5.054s-21.72-6.041-17.628-25.198l-9.097 11.588Z" fill="#F2CCAA"/><path d="M175.657 333.183s7.371 22.954 7.84 30.745c.468 7.815-14.078 110.97-14.67 114.57-.542 3.402-4.758 5.547-4.758 5.547s-1.948 1.135-4.709.37c-3.846-1.085-5.054-2.391-5.054-2.391s-5.745-73.57-2.195-99.852c3.551-26.282 3.6-49.013 3.6-49.013h19.946v.024Z" fill="#ED7D2B"/><path d="M144.419 332.493s-11.243 15.089-12.303 25.296c-1.06 10.207-1.652 46.03-3.871 55.966-2.243 9.936-10.429 29.068-10.429 60.083 0 0 .863 1.775 3.477 2.712.838.296 1.972.592 3.057.839 2.17.493 4.388-.567 5.399-2.564 5.548-11.169 23.225-47.19 24.113-54.66.641-5.301 6.213-40.31 18.392-60.872 2.934-4.931-1.8-24.557-1.8-24.557l-26.035-2.243Z" fill="#F99746"/><path d="M165.324 267.404s.074 1.135 2.811 1.381c0 0 2.293.222 2.416-.986 0 0-2.071-1.184-5.227-.395Z" fill="#fff"/><path d="M176.842 329.633s-2.959 2.342-8.826 2.465c-7.027.148-24.409-1.799-24.409-1.799s-.764 2.169-.739 4.437c0 0 21.252 5.351 33.555.789-.025 0 1.553-2.983.419-5.892Z" fill="#233862"/><path d="M166.484 334.515c0-1.997 1.43-3.625 3.205-3.625 1.776 0 3.206 1.628 3.206 3.625s-1.43 3.624-3.206 3.624c-1.775 0-3.205-1.627-3.205-3.624Zm1.061 0c0 1.405.961 2.564 2.144 2.564 1.184 0 2.145-1.159 2.145-2.564 0-1.406-.961-2.564-2.145-2.564-1.183 0-2.144 1.158-2.144 2.564Z" fill="#fff"/><path d="m154.332 344.746 31.928.296 15.73-36.933-31.953-.295-15.705 36.932Z" fill="#C5D9EA"/><path d="m158.5 328.055 2.342-2.885s1.578-1.405 2.737-1.651c1.159-.247 3.575-1.652 3.821-1.258.247.395-1.873 3.205-1.873 3.205l-.099.025c2.416 1.824 8.506.222 9.245.962.913.887-1.257 2.835-2.416 3.92-1.158 1.084-4.487 2.909-7.076 2.095-1.898-.591-4.881-1.183-4.881-1.183l-1.8-3.23ZM199.572 314.594s-1.997-2.293-3.279-1.184c-1.282 1.085.345 6.484 1.553 5.942 1.208-.542 2.441-4.093 1.726-4.758Z" fill="#FFB27D"/><path d="M145.823 281.68s-10.651.739-14.743 10.675c-4.093 9.936-11.662 31.09-11.662 33.876 0 2.786 8.358 13.116 41.05 5.152 0 0 1.11-3.131-1.06-4.733 0 0-22.806-7.323-22.756-8.777.074-2.762 3.081-5.129 15.803-17.875 3.477-3.476-6.632-18.318-6.632-18.318Z" fill="#F9DDBF"/><g opacity=".7"><path d="m512.02 190.778 31.903 10.428-19.132-18.638-1.923 4.561-8.21.049-2.638 3.6Z" fill="#9EC3F6"/><path d="m543.92 201.206-24.778-18.836-26.454-6.04 51.232 24.876Z" fill="#fff"/><path d="m524.789 182.568 19.132 18.639-12.746-26.085-6.386 7.446Z" fill="#fff"/></g><g opacity=".7"><path d="m410.201 137.03-33.654 4.808 22.337-15.212 1.134 4.882 8.186 1.479 1.997 4.043Z" fill="#9EC3F6"/><path d="m376.547 141.838 28.008-14.448 27.465-1.38-55.473 15.828Z" fill="#fff"/><path d="m398.884 126.626-22.337 15.212 17.307-23.792 5.03 8.58Z" fill="#fff"/></g><path d="M237.22 496.299h-1.972c-10.257-1.997-46.499-9.837-46.203-20.932.345-11.982 42.184 16.765 48.175 20.932ZM253.024 496.299h-7.446c-18.836-12.303-47.041-33.407-44.822-48.373 3.279-22.287 22.239 6.485 28.427 17.776 3.822 7.027 15.533 21.031 23.841 30.597ZM95.058 306.605l-11.07 14.867c-.173.222-.37.395-.567.543a2.304 2.304 0 0 1-2.638-.074L54.969 302.71a2.272 2.272 0 0 1-.813-2.515c.074-.246.197-.468.345-.69l11.07-14.867c.764-1.011 2.194-1.233 3.205-.468l25.813 19.23c1.011.765 1.233 2.195.469 3.205Z" fill="#CDE0FB"/><path d="M83.42 322.015a2.304 2.304 0 0 1-2.637-.074L54.969 302.71a2.272 2.272 0 0 1-.813-2.515l20.98 3.822 8.285 17.998Z" fill="#BED7FB"/><path d="m95.058 306.605-22.09-.567-7.964-20.636.567-.764c.764-1.011 2.194-1.233 3.205-.468L94.59 303.4c1.01.765 1.232 2.195.468 3.205Z" fill="#DFEBFD"/><path d="m491.507 391.935 12.771 70.316c.198 1.035.173 2.071.025 3.057a8.803 8.803 0 0 1-7.15 7.224l-122.139 22.164c-3.772.691-7.446-1.159-9.246-4.314a9.155 9.155 0 0 1-1.035-2.811l-12.771-70.291c-.863-4.807 2.317-9.418 7.1-10.281l122.14-22.164c4.832-.863 9.418 2.293 10.305 7.1Z" fill="#ED8537"/><path d="M504.3 465.283a8.8 8.8 0 0 1-7.149 7.224l-122.14 22.165c-3.772.69-7.446-1.159-9.245-4.315l65.951-49.088 72.583 24.014Z" fill="#DD6D22"/><path d="m491.505 391.935-59.714 60.725-79.142-31.78-.641-3.6c-.862-4.807 2.318-9.418 7.101-10.281l122.139-22.164a8.83 8.83 0 0 1 10.257 7.1Z" fill="#F99746"/><path d="M576.369 477.364c2.959-1.578 6.903-9.221.37-20.981-6.534-11.736-26.8-2.54-26.8-2.54s-8.974 25.617-13.042 27.17c-4.068 1.553 3.402-23.397 3.402-23.397-8.333 1.232-26.578 16.321-26.578 16.321s4.635 15.311 4.685 22.387h41.149l14.792.049c2.096-5.745 2.86-11.169 2.86-11.169-7.026 4.241-21.696 3.427-22.879.937-1.184-2.465 19.082-7.199 22.041-8.777Zm-77.317 14.99c-.444 1.405-.715 2.737-.814 3.994h16.05c-2.169-6.41-2.884-19.304-2.884-19.304-7.273 4.314-12.352 15.31-12.352 15.31Z" fill="#CDE0FB"/><path d="M712.007 498H64.994c-.534 0-.994-.419-.994-.954v-1.093c0-.511.436-.953.993-.953h647.014c.533 0 .993.419.993.953v1.093c0 .535-.436.954-.993.954Z" fill="#2E3552"/><path d="M423.856 441.097c.616-2.268 1.627-3.772 3.747-3.797 3.181-.025 4.315 1.775 4.833 3.846.715 2.786-2.17 3.797-4.29 4.019-3.008.296-4.857-2.022-4.29-4.068Z" fill="#2B478B"/></g><defs><clipPath id="clip0_874_3975"><path fill="#fff" d="M0 0h737.263v498H0z"/></clipPath></defs></svg>