<svg width="288" height="212" fill="none" xmlns="http://www.w3.org/2000/svg"><path d="M275.811 211.196c-5.938 0-38.683.012-79.739 0-10.596 0-21.76 0-33.146-.012h-6.039c-8.156 0-16.4-.012-24.623-.012h-6.629l-39.151-.036c-48.99-.061-63.406-.494-63.406-.519-.1-.253-45.034-25.021-9.236-76.848 18.004-26.095-2.507-54.467 12.846-79.344 21.714-35.206 57.668-14.56 82.335-25.72 4.357-1.965 8.735-5.135 13.114-10.004a50.198 50.198 0 0 1 8.055-7.196c.446-.313.891-.627 1.348-.928a51.824 51.824 0 0 1 5.37-3.134 52.552 52.552 0 0 1 3.8-1.747 62.318 62.318 0 0 1 6.295-2.206 65.445 65.445 0 0 1 9.381-1.977 68.677 68.677 0 0 1 4.222-.458c27.564-2.23 58.571 10.305 74.581 28.626 3.22 3.688 17.871 22.78 6.329 49.006-7.298 16.561 23.263 32.386 34.115 51.297 27.598 48.091.423 80.585.178 81.212Z" fill="#D9E3F7"/><path d="M39.9 76.554s5.207-10.462 17.658-9.305c0 0 18.067-17.44 37.34-2.326 0 0 20.489-3.748 35.652 3.242C140.662 72.83 144 77.711 144 77.711L39.9 76.554Z" fill="#F8FCFF"/><g opacity=".5" fill="#AEC3FF"><path opacity=".5" d="M103.624 160.152s-12.414-11.787-25.6-14.029c-1.748-.302-2.905 1.784-1.748 3.121.024.024.036.049.06.073 2.025 2.266 17.694 5.881 27.288 10.835Z"/><path opacity=".5" d="M107.54 163.226s-20.248-10.8-37.665-8.558c-1.06.133-1.868 1.073-1.772 2.146.06.699.495 1.494 1.736 2.29 3.303 2.121 24.058 1.229 37.701 4.122Z"/></g><g opacity=".5" fill="#AEC3FF"><path opacity=".5" d="M181.699 142.952s9.896-9.389 20.394-11.173c1.398-.241 2.314 1.41 1.386 2.483l-.049.048c-1.615 1.82-14.101 4.688-21.731 8.642Z"/><path opacity=".5" d="M178.578 145.399s16.127-8.606 30-6.822c.843.108 1.494.855 1.41 1.711-.048.555-.398 1.193-1.386 1.832-2.628 1.688-19.164.976-30.024 3.279Z"/></g><path opacity=".3" d="M98.717 171.796s2.483 10.546.482 10.883c-2 .338-1.916-11.944-1.916-11.944s-10.1-4.315-13.957-3.76c0 0 6.593 10.112 4.58 9.955-2.013-.157-9.365-10.365-9.365-10.365s-10.22-1.423-11.57 4.652c-1.363 6.075 1.397 8.967 2.916 9.269 1.519.301 11.149-.253 10.956 1.012-.193 1.266-6.617 3.556-10.293 2.591 0 0 4.447 9.703 9.678 8.968 5.231-.735 6.714-4.062 9.956-4.46 3.242-.398 5.653.374 4.074 1.326-1.591.952-7.123.603-9.642 2.953-2.532 2.35-4.605 3.881.325 4.604 13.5 1.989 16.826-7.894 16.826-7.894s9.148-5.677 4.447-12.608c0 0-3.7-4.218-7.497-5.182Z" fill="#AEC3FF"/><path opacity=".5" d="M197.768 155.813c-1.206-6.135-11.511-4.965-11.511-4.965s-7.641 10.064-9.666 10.172c-2.025.109 4.857-9.871 4.857-9.871-3.869-.651-14.114 3.423-14.114 3.423s-.229 12.342-2.217 11.956c-1.989-.385.759-10.92.759-10.92-3.845.868-7.666 5.014-7.666 5.014-4.893 6.846 4.146 12.776 4.146 12.776s-.168 4.279-3.145 8.992c0 0-.663.868-1.374 2.35l1.024.072c.109-.265.217-.53.338-.771v-.012c.084-.157.193-.374.337-.639.362-.59.603-1.036.759-1.35 1.073-1.856 2.604-4.279 3.544-4.737 0 0-.096-.168-.181-.482.06.157.121.314.181.482 1.495 3.893 10.233 5.135 15.199 4.472 4.965-.663 2.928-2.194.446-4.616-2.483-2.423-8.04-2.218-9.607-3.218-1.566-.989.88-1.7 4.123-1.23 3.242.482 4.652 3.857 9.883 4.725 5.231.868 9.943-8.762 9.943-8.762-3.724.879-10.1-1.591-10.269-2.857-.168-1.277 9.486-.47 11.029-.747 1.542-.289 4.387-3.11 3.182-9.257ZM130.573 195.54c.566 1.277 7.967 1.88 11.559-.169 0 0-1.941 11.474-7.666 12.173-5.713.699-8.208-2.386-11.739-1.88-3.52.494-5.858 1.989-3.918 2.543 1.941.555 7.666-1.374 10.993.398 1.53.807 2.904 1.446 3.459 2.121h-4.388c-5.93 0-11.932 0-17.91-.012-.072-.482-.145-.747-.145-.747s-11.233-3.399-8.244-12.017c0 0 2.7-5.484 6.436-7.569 0 0 .362 11.8 2.556 11.595 2.193-.205-1.35-13.114-1.35-13.114s9.413-7.388 13.631-7.894c0 0-4.098 12.499-2.012 11.763 2.073-.735 6.942-13.547 6.942-13.547s10.353-4.375 13.499 1.639c3.146 6.014 1.049 9.835-.458 10.582-1.506.736-11.8 2.869-11.245 4.135Z" fill="#AEC3FF"/><path d="M118.871 40.565s4.026-7.57 13.644-6.726c0 0 13.957-12.619 28.854-1.687 0 0 15.826-2.712 27.553 2.35 7.81 3.375 10.402 6.906 10.402 6.906l-80.453-.843ZM181.184 28.174s2.049-4.122 6.954-3.664c0 0 7.123-6.87 14.704-.916 0 0 8.064-1.47 14.042 1.277 3.989 1.832 5.303 3.76 5.303 3.76l-41.003-.457ZM44.418 49.507s2.049-4.122 6.954-3.664c0 0 7.124-6.87 14.705-.916 0 0 8.063-1.47 14.041 1.278 3.99 1.832 5.304 3.76 5.304 3.76l-41.004-.458Z" fill="#F8FCFF"/><path d="M181.316 199.54c.808.326 3.713.06 3.809-.169.096-.229-1.808-2.446-2.615-2.772a1.58 1.58 0 0 0-2.061.88c-.338.808.06 1.724.867 2.061ZM188.632 200.914c-.458.747-.663 3.652-.446 3.784.217.133 2.7-1.386 3.158-2.133a1.589 1.589 0 0 0-.53-2.182 1.589 1.589 0 0 0-2.182.531ZM184.727 206.603c.831.265 3.7-.217 3.784-.458.073-.241-1.988-2.302-2.82-2.567a1.582 1.582 0 0 0-1.989 1.024 1.596 1.596 0 0 0 1.025 2.001Z" fill="#A8D29F"/><path d="M188.946 209.411c0-.06-.325-6.641-3.917-10.028l.073-.084c3.628 3.423 3.953 10.04 3.953 10.112h-.109ZM200.963 199.674c-.506.338-2.506.555-2.603.41-.096-.145.892-1.904 1.386-2.242a1.093 1.093 0 0 1 1.519.314 1.09 1.09 0 0 1-.302 1.518ZM196.19 201.627c.409.446.952 2.386.831 2.507-.132.12-2.025-.567-2.435-1.013a1.103 1.103 0 0 1 .061-1.554 1.089 1.089 0 0 1 1.543.06ZM199.624 204.953c-.53.301-2.543.362-2.627.217-.085-.145 1.024-1.832 1.555-2.133a1.092 1.092 0 0 1 1.494.421 1.097 1.097 0 0 1-.422 1.495Z" fill="#A8D29F"/><path d="M197.141 207.437c-.012-.048-.699-4.556 1.277-7.352l-.06-.049c-1.989 2.833-1.29 7.365-1.29 7.413l.073-.012ZM193.587 209.027l-.229-.037c-.904-11.667-4.46-20.043-4.52-20.152l.205-.084c.06.108 3.64 8.533 4.544 20.273Z" fill="#A8D29F"/><path d="M186.426 187.67c.434.494 2.495 1.302 2.64 1.169.145-.12-.398-2.266-.832-2.76a1.213 1.213 0 0 0-1.699-.108 1.191 1.191 0 0 0-.109 1.699Z" fill="#CCDBFD"/><path d="M189.572 185.934c-.398.531-.76 2.712-.603 2.821.157.108 2.133-.856 2.531-1.386a1.21 1.21 0 0 0-.241-1.688 1.21 1.21 0 0 0-1.687.253Z" fill="#CCDBFD"/><path d="M191.947 188.248c-.639-.169-2.796.289-2.844.47-.049.181 1.579 1.676 2.217 1.856a1.201 1.201 0 0 0 1.471-.843c.169-.651-.205-1.314-.844-1.483Z" fill="#CCDBFD"/><path d="M190.489 191.129c-.061-.663-1.266-2.519-1.447-2.495-.193.024-1.012 2.073-.94 2.724.06.663.651 1.145 1.314 1.085a1.204 1.204 0 0 0 1.073-1.314Z" fill="#CCDBFD"/><path d="M187.211 190.996c.59-.313 1.856-2.121 1.771-2.29-.084-.169-2.29-.156-2.88.157a1.2 1.2 0 0 0-.506 1.627 1.196 1.196 0 0 0 1.615.506Z" fill="#CCDBFD"/><path d="M189.379 188.768a.398.398 0 1 0-.786-.126.398.398 0 0 0 .786.126Z" fill="#163560"/><path d="M193.515 197.107c-.651.807-1.362 4.17-1.133 4.363.229.193 3.387-1.194 4.037-1.989a1.876 1.876 0 0 0-.277-2.64c-.783-.662-1.964-.542-2.627.266ZM180.593 210.219h-.156c-1.627-7.665-4.725-12.908-4.761-12.981l.132-.072c.037.072 3.158 5.352 4.785 13.053Z" fill="#A8D29F"/><path d="M173.963 196.673c.337.289 1.772.639 1.856.542.084-.096-.458-1.47-.795-1.759a.801.801 0 0 0-1.133.084.79.79 0 0 0 .072 1.133Z" fill="#CCDBFD"/><path d="M175.904 195.251c-.217.385-.265 1.868-.157 1.928.109.06 1.338-.759 1.555-1.145a.811.811 0 0 0-.313-1.097.797.797 0 0 0-1.085.314Z" fill="#CCDBFD"/><path d="M177.676 196.576c-.446-.06-1.832.434-1.844.567-.012.12 1.193.976 1.639 1.036a.802.802 0 0 0 .904-.687.834.834 0 0 0-.699-.916Z" fill="#CCDBFD"/><path d="M176.964 198.626c-.097-.434-1.061-1.555-1.181-1.53-.121.024-.482 1.458-.386 1.892.096.434.53.699.964.602a.81.81 0 0 0 .603-.964Z" fill="#CCDBFD"/><path d="M174.771 198.819c.361-.253 1.048-1.567.976-1.675-.072-.109-1.543.096-1.905.361a.809.809 0 0 0-.192 1.121.808.808 0 0 0 1.121.193Z" fill="#CCDBFD"/><path d="M176.022 197.138a.266.266 0 1 0-.531-.013.266.266 0 0 0 .531.013Z" fill="#163560"/><path d="M179.496 202.314c-.362.59-.531 2.893-.362 2.989.169.108 2.145-1.085 2.507-1.675a1.252 1.252 0 0 0-.41-1.724 1.263 1.263 0 0 0-1.735.41ZM205.338 209.207l.205-.036c.807-10.39 3.977-17.85 4.025-17.947l-.18-.084c-.049.108-3.243 7.617-4.05 18.067Z" fill="#A8D29F"/><path d="M211.711 190.188c-.385.446-2.217 1.157-2.35 1.049-.121-.109.35-2.013.747-2.459a1.07 1.07 0 0 1 1.507-.097c.446.386.494 1.061.096 1.507Z" fill="#CCDBFD"/><path d="M208.904 188.633c.349.47.675 2.411.542 2.519-.132.097-1.904-.759-2.254-1.229a1.074 1.074 0 0 1 .217-1.495c.47-.349 1.145-.265 1.495.205Z" fill="#CCDBFD"/><path d="M206.806 190.707c.567-.157 2.495.253 2.544.422.048.168-1.399 1.494-1.977 1.651a1.072 1.072 0 0 1-1.314-.747 1.05 1.05 0 0 1 .747-1.326Z" fill="#CCDBFD"/><path d="M208.096 193.273c.06-.59 1.12-2.242 1.289-2.23.169.013.892 1.845.844 2.435a1.068 1.068 0 0 1-1.169.964 1.076 1.076 0 0 1-.964-1.169Z" fill="#CCDBFD"/><path d="M211.013 193.141c-.519-.277-1.651-1.88-1.567-2.037.084-.145 2.049-.133 2.567.145.518.277.723.928.446 1.446a1.071 1.071 0 0 1-1.446.446Z" fill="#CCDBFD"/><path d="M209.494 191.452a.348.348 0 0 0 .29-.4.35.35 0 1 0-.29.4Z" fill="#163560"/><path d="M204.868 201.373c.578.711 1.205 3.713 1 3.881-.205.169-3.013-1.06-3.592-1.771a1.68 1.68 0 0 1 .241-2.351 1.658 1.658 0 0 1 2.351.241ZM172.373 211.027s1.157-3.025 5.339-3.218c4.183-.193 7.063 2.278 10.523 1.145 3.459-1.145 9.184-3.724 14.595-2 5.412 1.711 6.328 4.085 6.328 4.085h-36.785v-.012ZM39.865 211.003h7.232c.386-.325-.265-1.073-.952-1.121-.301-.024-.675.036-1.109.133-.096-1.326-.663-7.256-2.808-7.027-2.41.265 0 2.615.675 4.002.506 1.024 1.036 2.507 1.277 3.206-.192.048-.397.084-.602.12-.314-.976-1.507-4.279-3.013-4.086-1.772.229-1.061 1.543.192 2.326.916.579 2.05 1.399 2.592 1.796a7.716 7.716 0 0 1-1.41.109c-1.23-.012-1.845.349-2.074.542ZM231.962 210.75h-7.232c-.385-.326.266-1.073.953-1.121.301-.024.675.036 1.108.132.097-1.325.663-7.255 2.809-7.026 2.41.265 0 2.615-.675 4.001-.506 1.025-1.037 2.507-1.278 3.206.193.048.398.085.603.121.313-.977 1.506-4.279 3.013-4.086 1.772.229 1.061 1.543-.193 2.326-.916.579-2.049 1.398-2.591 1.796.458.072.928.12 1.41.108 1.229-.024 1.832.35 2.073.543Z" fill="#A8D29F"/><path fill-rule="evenodd" clip-rule="evenodd" d="M142.832 63.343s27.794-31.434 47.379-4.556c6.02 8.265 3.669 18.583-2.477 28.912 0 0-15.798 4.78-26.189 4.7-6.633-.05-11.611-2.335-16.519-4.589-5.315-2.44-10.548-4.842-17.711-4.33-10.839.775-17.275 2.953-26.358 8.92-8.66-13.104-13.138-26.659-5.155-36.373 21.116-25.696 47.03 7.316 47.03 7.316Z" fill="url('#paint0_linear_354_908')"/><path d="M100.957 92.4c14.248 21.559 39.814 41.898 39.814 41.898s33.115-23.325 46.963-46.6c0 0-15.798 4.78-26.189 4.701-6.633-.05-11.611-2.335-16.519-4.589-5.315-2.44-10.548-4.842-17.711-4.33-10.839.775-17.275 2.953-26.358 8.92Z" fill="url('#paint1_linear_354_908')"/><path d="M181.295 68.425c-2.073.663-4.339-.144-5.496-1.976-1.254-1.965-3.267-4.219-6.207-4.894a3.653 3.653 0 0 1-2.761-4.387 3.654 3.654 0 0 1 4.388-2.76c6.364 1.446 10.016 6.496 11.799 9.883.832 1.591.012 3.58-1.723 4.134ZM134.385 123.843c-3.664-3.531-13.584-14.523-13.584-14.523-1.603-1.555-3.929-5.255-2.374-6.859 1.555-1.603 6.038 2.471 7.642 4.026 0 0 7.183 8.763 11.221 11.679 4.423 3.206 6.231 5.701 4.676 7.304-.783.82-4.363 1.483-7.581-1.627Z" fill="#fff" fill-opacity=".5"/><path d="M77.114 118.293c.602 2.676 1.796 7.834 6.291 14.066 3.255 4.495 9.426 11.136 15.476 19.814 4.363 6.256 6.894 9.956 8.28 12.005a13.058 13.058 0 0 1 2.013 4.785l-10.462 31.434 24.877 2.181s9.377-32.747 9.377-46.475v-.012c0-1.591.013-3.291.061-5.099.181-8.401 2.615-15.03-21.671-15.259-.097 0-.193-.072-.302-.108-.952-.362-2.398-1.025-4.519-2.748a31.139 31.139 0 0 1-1.133-.952c-2.375-2.098-4.617-3.749-6.738-5.05-11.052-6.859-22.105-11.017-21.55-8.582Z" fill="#FFB27D"/><path d="M75.378 102.347c.361-3.953 3.302-16.367 3.302-16.367s2.88.662 3.93 2.507c3.085 5.387 2.072 16.03 1.916 16.09 0 0 5.014 9.654 5.87 15.862 0 0 13.318 7.231 16.126 12.414.169.313.301.627.41.928.386 1.169.542 2.76.518 4.532-.096 6.279-2.579 14.789-6.291 14.126-.916-.169-22.346-24.13-23.238-28.348-.193-.989-2.736-19.635-2.543-21.744Z" fill="#FFB27D"/><path d="M110.005 129.236s.639 6.099-5.677.748l-.506 7.002 8.799 4.677 2.989-5.147-5.605-7.28Z" fill="#FFB27D"/><path d="M79.306 92.114c.12-.23.205-.482.241-.76 0 0 .338-2.41.579-4.17.157-1.169-.627-2.11-1.06-2.278-.278-.108-2.002 4.4-2.074 8.654 1.013.012 1.88-.615 2.314-1.446Z" fill="#FFC69F"/><path d="M90.408 120.438c2.88.94 20.394 12.86 21.346 13.222 2.193 2.772 2.555 6.858 1.494 7.316-1.446.615-4.664-.627-6.81-2.591-2.88-2.64-3.712-6.123-4.568-8.052-.385-.867-2.94-2.133-3.905-3.41-2.555-3.351-7.231-6.232-7.557-6.485Z" fill="#F6A56E"/><path d="M123.926 131.816s-22.804-18.369-25.323-23.033c0 0-4.013 1.446-2.41 7.545 1.603 6.087 12.812 17.031 13.487 21.346 2.519 16.211 11.727 21.2 11.727 21.2s24.985-8.919 2.519-27.058Z" fill="#FFB27D"/><path d="M100.062 115.581a2.53 2.53 0 0 1-.543-.591l-2.338-3.592c-.65-1-.446-2.302.494-3.073.23-.193.374-.277.374-.277 1.109.952 3.965 2.736 5.869 6.593-1.048.747-3.097 1.53-3.856.94Z" fill="#FFC69F"/><path d="M132.267 176.81s-.109 3.026-.29 7.835c0 .12-.012.253-.012.385-.253 6.569-.638 16.26-1.072 26.034l-42.354-.036c4.014-8.015 10.835-21.044 14.982-28.902 1.964-3.737 3.326-6.304 3.483-6.605.012-.024.012-.037.012-.037.229-.337.482-.638.771-.903.386-.374.808-.7 1.278-.965 3.821-2.242 10.185-1.181 15.271.302a68.625 68.625 0 0 1 5.858 2.024c.976.398 1.663.7 1.928.82.096.024.145.048.145.048Z" fill="#02CECB"/><path d="M131.965 185.03s-10.064 2.724-15.886 2.808l-2.145-4.001-1.88 3.375s-7.352-2.23-8.847-4.412l5.122-9.22 23.853.482-.217 10.968Z" fill="#069E9C"/><path d="M131.544 168.964s3.097 7.207 3.76 15.741c0 0-12.125 1.349-17.898.638l-2.531-10.016-3.676 8.703s-6.677-.868-9.004-2.664c0 0 4.327-7.401 7.051-12.306-.012-.012 11.233 3.375 22.298-.096Z" fill="#F3F8FF"/><path d="M124.203 182.764c.301-.555.072-1.23-.518-1.519-.591-.289-1.302-.072-1.603.482-.302.555-.073 1.23.518 1.519.591.289 1.314.072 1.603-.482Z" fill="#02CECB"/><path d="M204.306 118.292c-.603 2.676-1.796 7.834-6.292 14.066-3.254 4.495-9.425 11.136-15.476 19.814-4.363 6.256-6.894 9.956-8.28 12.005a13.092 13.092 0 0 0-2.013 4.785l10.462 31.434-24.877 2.181s-9.377-32.747-9.377-46.475v-.012c0-1.591-.012-3.291-.06-5.099-.181-8.401-2.616-15.03 21.671-15.259.096 0 .192-.072.301-.108.952-.362 2.398-1.025 4.52-2.748.361-.289.735-.603 1.133-.952 2.374-2.098 4.616-3.749 6.737-5.05 11.053-6.859 22.105-11.017 21.551-8.582Z" fill="#FFB27D"/><path d="M206.04 102.346c-.362-3.953-3.303-16.367-3.303-16.367s-2.88.662-3.929 2.507c-3.085 5.387-2.073 16.03-1.916 16.09 0 0-5.014 9.654-5.87 15.862 0 0-13.318 7.231-16.127 12.414a6.852 6.852 0 0 0-.409.928c-.386 1.169-.543 2.76-.519 4.532.097 6.279 2.58 14.789 6.292 14.126.916-.169 22.346-24.13 23.238-28.348.192-.989 2.736-19.635 2.543-21.744Z" fill="#FFB27D"/><path d="M171.413 129.236s-.639 6.099 5.677.748l.506 7.002-8.798 4.677-2.989-5.147 5.604-7.28Z" fill="#FFB27D"/><path d="M202.111 92.114a2.275 2.275 0 0 1-.241-.76s-.337-2.41-.578-4.17c-.157-1.169.627-2.11 1.061-2.278.277-.108 2 4.4 2.073 8.654-1.013.012-1.881-.615-2.315-1.446Z" fill="#FFC69F"/><path d="M191.011 120.438c-2.88.94-20.393 12.86-21.345 13.222-2.194 2.772-2.555 6.858-1.495 7.316 1.447.615 4.665-.627 6.81-2.591 2.881-2.64 3.712-6.123 4.568-8.052.386-.867 2.941-2.133 3.905-3.41 2.555-3.351 7.232-6.232 7.557-6.485Z" fill="#F6A56E"/><path d="M157.492 131.816s22.804-18.369 25.323-23.033c0 0 4.014 1.446 2.411 7.545-1.603 6.087-12.812 17.031-13.487 21.346-2.519 16.211-11.727 21.2-11.727 21.2s-24.986-8.919-2.52-27.058Z" fill="#FFB27D"/><path d="M181.358 115.581c.205-.169.397-.362.542-.591l2.338-3.592c.651-1 .446-2.302-.494-3.073-.229-.193-.374-.277-.374-.277-1.108.952-4.134 2.904-6.038 6.749.916.398 3.266 1.374 4.026.784Z" fill="#FFC69F"/><path d="M192.914 211.087c-13.487 0-27.806 0-42.39-.012-.434-9.775-.819-19.478-1.072-26.046 0-.133-.012-.254-.012-.386-.181-4.797-.29-7.834-.29-7.834s.049-.025.133-.061c.277-.12.952-.422 1.928-.819a62.004 62.004 0 0 1 5.858-2.025c5.098-1.483 11.45-2.555 15.271-.301.47.265.892.59 1.278.964.277.277.53.578.771.904 0 0 0 .012.012.036.169.313 1.519 2.88 3.483 6.605 4.171 7.882 11.029 20.96 15.03 28.975Z" fill="#02CECB"/><path d="M149.463 185.029s10.064 2.724 15.886 2.808l2.145-4.001 1.88 3.375s7.352-2.23 8.847-4.412l-5.122-9.22-23.853.482.217 10.968Z" fill="#069E9C"/><path d="M149.874 168.963s-3.098 7.207-3.761 15.74c0 0 12.125 1.35 17.899.639l2.531-10.016 3.676 8.703s6.677-.868 9.003-2.664c0 0-4.327-7.401-7.051-12.306.013-.012-11.233 3.375-22.297-.096Z" fill="#F3F8FF"/><path d="M157.213 182.763c-.302-.555-.073-1.23.518-1.519.591-.289 1.302-.072 1.603.482.301.555.072 1.23-.518 1.519-.591.289-1.302.072-1.603-.482Z" fill="#02CECB"/><path d="m60.81 210.244-.156-.024c-.627-8.124-3.11-13.945-3.146-14.03l.144-.06c.037.072 2.532 5.942 3.158 14.114Z" fill="#A8D29F"/><path d="M55.822 195.371c.302.349 1.736.904 1.832.819.097-.084-.277-1.578-.578-1.928a.837.837 0 0 0-1.181-.072.85.85 0 0 0-.073 1.181Z" fill="#CCDBFD"/><path d="M58.028 194.165c-.278.374-.53 1.892-.422 1.965.108.084 1.482-.591 1.76-.964a.831.831 0 0 0-.17-1.17c-.373-.277-.903-.205-1.168.169Z" fill="#CCDBFD"/><path d="M59.667 195.781c-.446-.121-1.952.205-1.988.325-.037.121 1.096 1.169 1.542 1.29a.837.837 0 0 0 1.025-.591.819.819 0 0 0-.579-1.024Z" fill="#CCDBFD"/><path d="M58.656 197.781c-.049-.458-.88-1.747-1.013-1.735-.133.012-.699 1.434-.663 1.904a.837.837 0 0 0 .916.747.84.84 0 0 0 .76-.916Z" fill="#CCDBFD"/><path d="M56.377 197.685c.41-.217 1.29-1.47 1.23-1.591-.06-.12-1.603-.108-2.013.109a.838.838 0 1 0 .783 1.482Z" fill="#CCDBFD"/><path d="M57.867 196.143a.277.277 0 1 0-.547-.087.277.277 0 0 0 .547.087Z" fill="#233862"/><path d="M60.064 198.444c-.458.554-.94 2.904-.784 3.037.157.133 2.35-.832 2.809-1.386a1.291 1.291 0 0 0-.193-1.832 1.28 1.28 0 0 0-1.832.181ZM58.944 205.181c.47.229 1.519 1.627 1.447 1.759-.06.133-1.808.169-2.29-.06a.956.956 0 0 1-.434-1.278.969.969 0 0 1 1.277-.421ZM65.367 210.242l.181-.024c.723-9.329 3.568-16.018 3.604-16.102l-.169-.073c-.036.085-2.905 6.822-3.616 16.199Z" fill="#A8D29F"/><path d="M71.082 193.164c-.35.397-2.001 1.036-2.11.94-.108-.097.314-1.808.663-2.206a.968.968 0 0 1 1.362-.084.944.944 0 0 1 .085 1.35Z" fill="#CCDBFD"/><path d="M68.562 191.777c.313.422.603 2.17.482 2.254-.12.097-1.712-.687-2.025-1.109a.975.975 0 0 1 .193-1.35c.434-.301 1.037-.217 1.35.205Z" fill="#CCDBFD"/><path d="M66.67 193.634c.505-.145 2.24.229 2.277.373.036.145-1.266 1.338-1.772 1.483a.959.959 0 0 1-1.18-.675.972.972 0 0 1 .674-1.181Z" fill="#CCDBFD"/><path d="M67.838 195.936c.048-.53 1.013-2.013 1.157-2.001.157.012.808 1.651.76 2.182a.96.96 0 0 1-1.05.867.96.96 0 0 1-.867-1.048Z" fill="#CCDBFD"/><path d="M70.453 195.827c-.47-.241-1.483-1.687-1.41-1.82.072-.132 1.832-.12 2.302.121s.65.832.41 1.302a.98.98 0 0 1-1.302.397Z" fill="#CCDBFD"/><path d="M69.097 194.311a.313.313 0 1 0-.098-.62.313.313 0 0 0 .099.62Z" fill="#233862"/><path d="M65.415 200.709c.519.638 1.085 3.338.904 3.483-.18.145-2.7-.952-3.23-1.591a1.506 1.506 0 0 1 .217-2.109 1.505 1.505 0 0 1 2.11.217ZM67.512 204.433c-.542.265-1.736 1.868-1.663 2.025.072.157 2.085.205 2.627-.06.543-.266.772-.916.507-1.459a1.098 1.098 0 0 0-1.47-.506ZM56.99 211.002s2.23-2.94 5.388-1.868c3.17 1.073 7.388.097 7.376 1.567l-12.764.301Z" fill="#A8D29F"/><defs><linearGradient id="paint0_linear_354_908" x1="133.402" y1="90.23" x2="190.592" y2="46.237" gradientUnits="userSpaceOnUse"><stop stop-color="#1E96FC"/><stop offset=".556" stop-color="#1E96FC" stop-opacity=".7"/><stop offset=".81" stop-color="#1E96FC" stop-opacity=".48"/><stop offset="1" stop-color="#1E96FC" stop-opacity=".16"/></linearGradient><linearGradient id="paint1_linear_354_908" x1="176.551" y1="86.072" x2="116.467" y2="134.343" gradientUnits="userSpaceOnUse"><stop stop-color="#FCF300"/><stop offset=".432" stop-color="#FCF300" stop-opacity=".66"/><stop offset=".765" stop-color="#FCF300" stop-opacity=".41"/><stop offset="1" stop-color="#FCF300" stop-opacity=".13"/></linearGradient></defs></svg>