<svg width="795" height="531" fill="none" xmlns="http://www.w3.org/2000/svg"><g clip-path="url('#clip0_529_7329')"><path d="M761.354 536.986c-16.392 0-106.782.031-220.114 0-29.249 0-60.065 0-91.497-.03h-16.669c-22.513 0-45.272-.031-67.969-.031h-18.3c-36.875-.031-73.351-.062-108.073-.093-135.231-.153-175.028-1.261-175.028-1.322-.276-.646-124.312-63.862-25.496-196.137 49.7-66.6-6.92-139.013 35.461-202.505 59.942-89.855 159.189-37.16 227.281-65.646 12.025-5.014 24.112-13.104 36.198-25.532 6.797-6.983 14.271-13.074 22.236-18.365 1.231-.8 2.461-1.6 3.722-2.368 4.767-2.954 9.718-5.599 14.824-7.998 3.414-1.6 6.92-3.107 10.487-4.46a181.81 181.81 0 0 1 17.377-5.63 193.632 193.632 0 0 1 25.896-5.045c3.844-.492 7.719-.892 11.656-1.17 76.088-5.69 161.68 26.302 205.875 73.06 8.888 9.413 49.331 58.14 17.469 125.077-20.145 42.267 64.217 82.657 94.172 130.922 76.181 122.74 1.169 205.674.492 207.273Z" fill="#D9E3F6"/><path d="M388.738 44.235c118.663-37.151 177.074-9.049 177.074-9.049l4.414 86.22s-58.338-28.102-177.074 9.049c-118.736 37.151-171.631 8.754-171.631 8.754l-4.414-86.22s52.895 28.323 171.631-8.754Z" fill="#fff"/><path d="m283.76 129.719-12.506-35.753 4.561-.22 6.032 17.582c1.692 4.855 3.09 9.196 4.194 13.389h.073c.736-4.267 1.839-8.902 3.017-13.683l4.561-18.245 4.487-.22-9.784 36.93-4.635.22ZM330.695 105.516c1.912 12.359-3.826 19.936-12.065 21.26-8.534 1.325-15.67-5.076-17.362-15.964-1.766-11.402 3.458-19.862 12.065-21.187 8.828-1.397 15.743 5.297 17.362 15.891Zm-25.013 4.487c1.177 7.651 5.959 13.978 12.58 12.948 6.621-1.03 9.343-8.387 8.019-16.553-1.104-7.135-5.592-14.05-12.58-13.02-6.842 1.103-9.196 8.754-8.019 16.625ZM332.312 86.83l4.12-.956 7.357 31.56 13.61-3.163.882 3.825-17.729 4.12-8.24-35.386ZM356.223 81.019l6.032 20.672c2.281 7.798 6.4 10.226 10.594 8.975 4.634-1.398 6.621-5.665 4.414-13.389l-6.033-20.672 4.12-1.177 5.959 20.304c3.163 10.741-.662 16.626-7.43 18.612-6.401 1.913-12.433-.809-15.597-11.623l-6.032-20.525 3.973-1.177ZM392.343 107.944 383 72.854l4.488-1.178 14.86 15.081c3.458 3.458 6.253 6.695 8.681 9.932l.073-.074c-1.618-4.561-2.869-8.828-4.34-14.345l-3.899-14.714 3.825-1.03 9.343 35.092-4.119 1.103-14.787-15.155c-3.237-3.31-6.401-6.768-9.049-10.152l-.147.074c1.398 4.34 2.648 8.534 4.193 14.419l3.973 15.007-3.752 1.03ZM422.508 67.262l-9.785 1.986-.809-3.899 23.762-4.782.809 3.9-9.784 1.986 6.327 31.707-4.194.81-6.326-31.708ZM460.392 76.53l-12.58 1.766 1.766 12.948 14.051-1.912.515 3.899-18.244 2.5-4.929-35.973 17.509-2.428.514 3.9-13.315 1.838 1.545 11.403 12.58-1.766.588 3.826ZM484.742 74.618l-12.654.883.883 13.095 14.125-.957.294 3.9-18.318 1.25-2.427-36.268 17.655-1.177.295 3.899-13.389.883.735 11.476 12.654-.883.147 3.9ZM492.688 55.564c2.133-.441 5.223-.662 8.092-.588 4.487.073 7.43 1.03 9.416 3.163 1.619 1.619 2.502 4.12 2.428 6.916-.074 4.781-2.869 7.945-6.327 9.195v.147c2.502 1.03 3.973 3.605 4.635 7.43.956 5.077 1.692 8.608 2.354 10.006l-4.34-.074c-.515-1.03-1.177-4.193-2.06-8.754-.883-5.003-2.575-6.916-6.4-7.21l-3.973-.073-.294 15.743-4.194-.074.663-35.827Zm3.972 16.626 4.341.074c4.487.074 7.43-2.648 7.503-6.768.074-4.708-2.942-6.768-7.43-6.915-2.06 0-3.531.147-4.193.367l-.221 13.242Z" fill="#1A3151"/><path d="M181.575 33.862c-12.506 3.163-25.601 14.934-25.674 26.631-7.21-9.122-28.103-9.122-39.947-3.899-31.266 13.683-29.794 53.262-7.872 72.684 11.771 10.446 26.264 18.171 41.271 24.424 12.58 5.223 43.625 14.787 43.699 14.713.073 0 18.686-26.631 25.38-38.402 8.019-14.124 14.64-29.132 17.509-44.581 5.297-28.985-21.334-60.03-54.366-51.57Z" fill="#EAC5B0"/><path d="M538.079 201.005s-37.004 18.098-48.186 11.33c-1.398-.883-34.43-13.904-34.43-13.904l-6.768 7.577 37.887 25.895 12.58 2.134 31.854-9.122 7.063-23.91ZM562.649 204.242s21.408 35.239 34.429 35.533c1.619.073 36.489 6.841 36.489 6.841l1.618 10.079-45.905 1.324-11.771-5.002-21.849-24.866 6.989-23.909Z" fill="#9EA6AD"/><path d="M557.942 201.594c.147.074.295.147.442.147 7.503 2.869 13.389 15.964 16.773 23.689 8.754 19.863 12.58 40.535 13.315 62.457.368 11.845.295 23.615-.073 35.459-.074 3.237-2.869 32.517-1.398 33.179-14.86-7.136-29.942-13.904-45.758-17.95-15.817-4.046-32.443-5.371-48.407-1.619 4.782-37.151 11.771-74.89 21.849-110.791 1.177-4.267 1.986-8.828 3.826-12.947 2.059-4.709 5.149-6.106 9.122-8.828 1.324-.957 2.722-1.913 4.193-2.575 7.725-3.384 18.245-3.09 26.116-.221Z" fill="#9EA6AD"/><path d="m581.042 318.344-16.92 69.152-.294 50.908-8.24 1.766-3.31-47.303-8.313-86.735 37.077 12.212Z" fill="#DEC9AD"/><path d="m555.515 441.642-1.398 5.15 1.251 10.152h6.694l2.428-14.64-.736-2.501-8.239 1.839Z" fill="#1A3151"/><path d="m516.009 310.84-1.398 59.736 8.166 84.234 8.166.588 2.796-77.244 16.478-70.109-34.208 2.795Z" fill="#DEC9AD"/><path d="m522.998 453.412-10.961 5.885.883 5.15 19.421-2.428-.956-7.43-8.387-1.177Z" fill="#1A3151"/><path d="m513.655 318.565-5.444 69.005 5.738 47.23 22.07-1.251 3.899-53.777 9.417-58.632-1.472-9.122-31.854.515-2.354 6.032Z" fill="#A0A1A3"/><path d="m547.274 382.421 2.648 49.51 19.201-1.029-.441-46.936 11.991-58.927-2.795-16.478-32.296 2.133 1.692 71.727Z" fill="#A0A1A3"/><path d="M502.326 319.816c19.79 3.016 52.674 5.223 72.463 8.239 1.03-35.753-2.575-77.024-11.256-111.6-1.544-6.253-3.899-13.021-9.416-16.258-5.885-3.384-18.318-2.943-21.923 3.752-5.223 9.711-6.253 25.233-8.534 36.047-5.296 24.498-18.097 54.954-21.334 79.82Z" fill="#fff"/><path d="M533.001 172.463c5.224-13.904 22.806-8.313 25.896 4.193 2.06 8.24-4.561 18.833-12.874 20.893.147 2.06.22 4.12.22 6.18-2.207-.221-4.487-.442-6.694-.663-.662-.073-1.472-.22-1.839-.809-.221-.368-.148-.809-.074-1.25.147-1.398.294-2.796.515-4.194l-.441-.22c-3.973-2.134-6.327-6.474-6.842-10.962-.515-4.487.515-8.975 2.133-13.168Z" fill="#EAC1A4"/><path d="M534.18 176.731c-2.942 3.972-2.427 9.416-1.839 14.124.441 4.194.294 6.769-4.34 6.327-2.575-.221-7.21-.662-8.681-3.163-1.104-1.913 1.177-5.885 2.501-7.357 1.03-1.103 2.796-1.25 3.826-2.354.441-.441.662-1.03.882-1.618.81-2.428 1.325-4.929 1.398-7.431.074-1.692-.073-3.457.368-5.149.588-2.428 3.163-4.635 4.782-6.474 2.942-3.458 10.446-6.989 14.198-2.281.809 1.104 1.104 2.502 1.177 3.899.074.81.147 1.692-.147 2.428-1.03 3.09-3.973 2.722-6.474 3.531-3.016.809-5.738 2.943-7.651 5.518Z" fill="#1A3151"/><path d="M556.398 184.897c-.588 2.28-2.501 4.34-1.912 6.547.294 1.03 1.029 1.766 1.544 2.648 1.545 2.354 1.619 5.591.368 8.093 4.488 1.324 8.902 2.574 13.389 3.899.662.22 1.398.368 2.06.22 1.472-.294 2.06-1.986 2.502-3.457.809-2.869 1.544-5.886.514-8.681-.441-1.251-1.324-2.428-1.765-3.678-2.207-6.18 4.414-13.463 1.103-19.128-1.471-2.501-4.487-3.678-6.694-5.591-3.826-3.31-5.223-8.975-9.343-12.065-7.651-5.811-19.569 1.913-16.994 11.403 2.06 7.725 17.509 10.741 15.228 19.79Z" fill="#1A3151"/><path d="M557.427 202.698s6.474 88.721-7.283 106.304c-13.757 17.509-19.642 24.13-19.642 24.13l56.499 23.467c0-.073-1.471-129.477-29.574-153.901Z" fill="#9EA6AD"/><path d="M305.976 199.975s-33.399 24.129-45.537 19.348c-1.545-.589-36.269-7.872-36.269-7.872l-5.443 8.607 41.712 19.054h12.8l29.795-14.346 2.942-24.791Z" fill="#fff"/><path d="M208.574 168.782s5.15 2.575 6.033 16.111c.882 13.536 4.046 21.849 4.046 21.849s-4.046 3.09-7.798 1.766c-3.752-1.324-5.076-1.471-5.003-7.062 0-5.591-3.237-31.56-3.237-31.56l5.959-1.104Z" fill="#1A3151"/><path d="M198.789 175.697c5.297.221 10.226 3.973 11.918 8.976 2.133-3.164 2.648-7.357 1.324-10.962-1.324-3.605-4.488-6.4-8.166-7.357-2.722 2.355-4.414 5.739-4.708 9.343h-.368Z" fill="#1A3151"/><path d="m192.463 207.773-33.914.662-11.918-54.807-11.182 1.545v67.092l19.937 9.638 36.489 5.149.588-29.279Z" fill="#EBB044"/><path d="m177.235 451.13-.589 4.856 8.608 6.179 5.223-4.119-3.973-5.518-8.68-6.179-.589 4.781Z" fill="#1A3151"/><path d="m180.693 303.557-1.839 14.566 12.065 50.687-13.978 80.702 8.902 3.311 25.454-78.569 4.193-22.879.957-48.701-35.754.883Z" fill="#DBDBDB"/><path d="m249.331 321.359-21.775 135.289-8.608-.221.368-86.955-14.345-61.428 44.36 13.315Z" fill="#DBDBDB"/><path d="m219.023 455.324-.074 4.929 9.122 5.076 4.782-4.782-4.561-5.002-9.269-.221Z" fill="#1A3151"/><path d="M175.469 306.352c7.431-43.478 5.812-75.332 6.327-84.013.515-8.754 6.621-13.095 6.621-13.095 2.649-.515 4.929-2.207 7.651-2.869 18.024-4.193 27.514 10.005 33.841 25.233a433.055 433.055 0 0 1 19.568 57.971c4.561 17.361 9.123 34.87 10.815 52.747.662 7.43 1.25 14.419-6.695 17.509-12.653 4.929-26.778 4.487-40.094 5.885-15.301 1.545-30.603 2.648-45.979 2.943-8.018.22.515-18.76 7.945-62.311Z" fill="#EBB044"/><path d="m139.348 154.731-6.547-6.841 2.575-11.771 6.473.147 1.692 10.3 3.237 2.059-.147 5.003-7.283 1.103Z" fill="#EAC1A4"/><path d="m204.748 205.712 17.141 3.384 34.356 34.723 40.829-.662 1.986 12.654-47.818 7.356-38.769-26.042-7.725-31.413Z" fill="#EBB044"/><path d="m208.942 206.67 2.207 46.494-22.879-44.655 6.988-2.28 5.003-1.398 8.681 1.839Z" fill="#fff"/><path d="m297.441 246.322 7.651-4.488 9.564 2.575-.147 5.223-16.111 2.648-.957-5.958ZM210.412 180.039c-5.665-13.022-22.07-6.842-24.424 5.296-1.324 6.916 2.06 18.98 10.299 19.275.368 1.177 1.03 3.384 2.134 3.972 1.177.662 4.119-.883 5.296-1.471.295-.147.662-.368.883-.662.221-.368.074-1.251-.073-2.134a13.918 13.918 0 0 0 2.648-1.177c3.678-2.207 5.665-6.473 5.959-10.74.221-4.194-1.03-8.46-2.722-12.359Z" fill="#EAC1A4"/><path d="M203.572 166.355s3.31 6.988-5.665 11.182c-8.975 4.193-13.389 12.947-10.005 20.304 3.384 7.43 11.624 11.55 8.387 14.419-3.237 2.869-17.215 3.899-17.215 3.899s-14.345-25.601-5.959-39.947c8.313-14.345 24.204-18.318 30.457-9.857Z" fill="#1A3151"/><path d="M618.634 85.432s-14.64 16.773-20.82 63.12l12.139 2.059s2.795-40.902 14.787-62.384l-6.106-2.795Z" fill="#145566"/><path d="M690.362 26.58s-42.301.735-60.84 17.14c-18.538 16.405-10.299 45.611-10.299 45.611s28.029 11.844 46.568-4.487c18.612-16.406 24.571-58.265 24.571-58.265Z" fill="#C8D6A1"/><path d="M619.222 89.331s1.618.662 4.34 1.472l40.388-40.977-45.684 35.018c.515 2.795.956 4.487.956 4.487Z" fill="#145566"/><path d="M553.969 43.499s.809 37.74 15.449 54.218c14.713 16.553 40.755 9.049 40.755 9.049s10.521-25.012-4.193-41.565C591.341 48.65 553.969 43.5 553.969 43.5Z" fill="#C8D6A1"/><path d="M610.249 106.766s.588-1.471 1.324-3.826l-36.71-35.9 31.413 40.609c2.428-.515 3.973-.883 3.973-.883Z" fill="#145566"/><path d="M619.223 89.33s45.832-.588 63.929-34.06c0 0-13.242 54.88-63.929 34.06Z" fill="#B8C48A"/><path d="m486.802 452.675.736 5.885-10.961 7.357-6.548-5.076 5.076-6.621 10.888-7.357.809 5.812Z" fill="#132235"/><path d="m487.169 450.763-8.607-74.597 10.005-83.497-2.354-17.803-45.317-1.619-1.619 28.912 7.798 74.155 28.765 78.274 11.329-3.825Z" fill="#1A3151"/><path d="M407.645 281.707v75.259l15.301 96.813 10.962-.073 5.812-89.604 13.83-89.751-45.905 7.356Z" fill="#1A3151"/><path d="m433.834 458.267-11.697 6.033-5.959-5.812 5.811-5.959 11.771-.147.074 5.885Z" fill="#132235"/><path d="M493.276 307.087c-.073-3.237-.294-5.959-.294-6.988-.221-8.755-1.03-17.509-2.133-26.19-1.03-7.798-2.281-27.073-3.605-34.871-1.104-6.4-5.003-22.29-7.725-28.249-6.915-14.713-4.781-16.111-35.017-20.378-13.242-1.913-16.406 6.4-27.22 15.89-1.103.957-1.03 6.548-1.25 8.019-.442 2.575-.883 5.223-1.398 7.798-.442 2.06-.883 4.046-1.398 6.106 0 0-9.049 41.418-15.008 50.246-6.032 8.828-18.391 21.114 2.428 28.617 3.678 1.177 7.43 2.281 11.256 2.943 0 0 16.994-1.913 25.748-1.839 8.092.073 16.111.809 24.056 2.207 5.297.883 10.741 2.133 15.449 4.635 4.561 2.354 7.798 5.811 12.359 8.239.442.221.883.441 1.398.368 2.501-.368 2.575-9.637 2.354-16.553Z" fill="#145566"/><path d="M444.355 194.677c1.545.736 5.149 1.03 8.901-.441a2.004 2.004 0 0 0 1.251-1.839c0-2.281-.221-4.561-.589-6.842 2.796-1.03 6.106-2.501 6.548-5.444.147-.956 0-1.912-.147-2.795l-1.987-11.477c-.22-1.324-.441-2.722-1.177-3.825-1.25-1.986-3.751-2.869-6.032-3.237-5.959-1.03-12.433.294-16.994 4.193-1.251 1.03-2.354 2.281-2.869 3.826-.809 2.354-.221 4.929.441 7.283l1.766 6.621c.662 2.501 1.618 5.444 4.12 6.4 1.324.515 2.869.368 4.046 1.104 1.913 1.177 1.618 4.266 2.722 6.473Z" fill="#EAC1A4"/><path d="M410 156.496a25.7 25.7 0 0 0-1.913-2.722c-1.545-1.839-3.384-3.457-4.634-5.591-1.251-2.059-1.692-4.929-.221-6.841.956-1.251 2.501-1.839 3.972-2.281 4.929-1.471 10.226-1.545 15.229-.294 4.782 1.177 8.975 3.163 13.757 1.398 4.487-1.692 7.724-1.03 12.432.662 5.076 1.765 11.918 2.207 16.479 4.782 1.913 1.03 3.458 2.722 4.635 4.561 4.12 6.4 4.193 15.154.074 21.628-.883 1.472-1.987 2.722-3.164 4.046-2.354 2.575-5.223 5.812-8.534 6.769-.073-2.943 2.575-12.212.295-14.64-3.605-3.826-11.697-2.501-16.185-1.545-4.855 1.03-9.196 4.487-13.978 5.223-3.457.515-7.871-1.177-10.814-2.943-3.605-2.28-5.297-8.754-7.43-12.212Z" fill="#1A3151"/><path d="m347.247 209.097-9.343-6.032 2.354-4.12 7.357 2.722.221-2.501 7.43 6.106-1.913 4.635-6.106-.81Z" fill="#AA6755"/><path d="m435.012 191.883-48.848 20.157-30.898-6.768-3.016 5.959 28.176 20.672 38.843-4.708 15.743-35.312Z" fill="#145566"/><path d="m503.061 116.036-.809-12.286-5.223.147-1.325 8.534-2.501-1.104 1.986 10.373 5.444.589 2.428-6.253Z" fill="#EAC1A4"/><path d="m456.125 198.577 26.778-35.606 12.286-41.271 7.283.221.073 47.745-25.306 50.466-21.114-21.555Z" fill="#145566"/><path d="m299.283 457.973-.221 5.149 10.006 5.591 5.37-4.855-4.856-5.37-10.005-5.592-.294 5.077Z" fill="#DBDBDB"/><path d="m290.895 302.673-.809 15.523 17.435 68.417-8.681 69.741 10.079 2.501 27.734-83.792.442-25.16-6.989-51.791-39.211 4.561Z" fill="#145566"/><path d="m367.329 301.056 7.872 64.959-3.09 85.19-9.416 1.03-14.419-76.73-21.335-75.994 40.388 1.545Z" fill="#145566"/><path d="m363.136 456.207 10.741 3.973 4.561-5.665-5.665-4.488-10.152 1.104.515 5.076Z" fill="#DBDBDB"/><path d="M371.083 290.24c-9.711-19.715-13.683-41.418-18.759-62.752-1.545-6.253-3.09-12.727-6.621-18.171-4.047-6.253-9.564-9.048-15.744-10.078-7.798-1.325-16.626.073-24.424.735-4.708 14.787-7.798 6.401-13.389 20.967-1.177 3.016-4.34 29.059-5.591 32.075 0 0-12.727 40.093-8.533 71.727.073.294.073.589.147.956.809.148 1.618.295 2.354.442 11.035 2.207 22.29 3.384 33.546 3.237 10.005-.147 20.01-1.398 29.721-3.826 13.315-3.31 29.059-1.986 39.946-10.814-3.236-6.4-9.416-18.024-12.653-24.498Z" fill="#fff"/><path d="m376.601 141.931-.367-11.109h-4.782l-1.398 7.651-2.281-1.03 1.545 9.49 4.929.662 2.354-5.664Z" fill="#AA6755"/><path d="m331.062 198.504 28.397-21.555 9.858-30.015 6.621.367 3.531 34.797-30.309 43.184-18.098-26.778Z" fill="#fff"/><path d="M299.282 174.448c3.973-12.58 22.143-17.141 26.631-2.722 1.324 4.34 2.133 8.975 1.324 13.462-.809 4.488-3.457 8.828-7.651 10.668h-.073c.147 1.177.368 2.28.515 3.457.073.221.073.515-.074.736-.147.221-.441.294-.736.368-1.397.22-2.795.441-4.119.662-.662.147-1.398.221-2.06 0-1.471-.442-2.06-2.134-2.134-3.679v-1.103c-8.239-2.648-14.198-13.683-11.623-21.849Z" fill="#AA6755"/><path d="M324.368 153.776c3.384-.147 5.886 3.311 8.828 5.297 2.428 1.618 5.297 2.28 7.798 3.752 2.502 1.397 4.929 4.119 4.709 7.136 2.795-1.177 5.885-2.281 8.828-1.472 2.942.883 5.37 4.709 3.899 7.578-1.325 2.574-4.856 2.869-6.254 5.37-2.207 3.973 2.134 10.814-1.544 13.242-.883.589-1.987.662-2.87 1.251-1.03.735-1.544 2.133-2.059 3.384-2.575 5.664-8.755 8.901-14.493 7.577-3.458-2.06-5.959-5.812-6.915-9.931-1.104-4.929 1.618-6.401 2.501-10.888.956-4.929-.147-10.3-2.869-14.419-1.766-2.722-4.488-5.15-7.504-5.665-1.251-.221-.956.809-2.28-.221-.589-.441-1.251-2.133-1.325-2.869 3.679-2.427 7.136-8.901 11.55-9.122Z" fill="#1A3151"/><path d="M288.541 156.571c-1.765.294-3.605.073-5.297.662-2.574.809-2.648 3.384-3.531 5.591-1.03 2.354-2.428 5.591-4.267 7.357-1.324 1.25-3.016 1.912-4.487 2.795-1.545.957-2.943 2.354-3.09 4.267-.147 1.839.956 3.531.956 5.37-.073 2.722-.662 4.047-.073 6.916.294 1.471.662 3.016 1.618 4.119 1.251 1.398 3.311 1.545 5.076 1.472 1.766-.147 3.679-.442 5.297.294 3.678 1.618 2.575 5.37 3.311 8.681 1.03 5.002 6.4 8.386 10.887 7.062 3.826-1.103 6.327-5.149 6.548-9.343.147-2.133-.515-4.119-.368-6.253.147-2.06 1.545-4.708-.147-6.474-.442-.441-.956-.662-1.324-1.177-.295-.368-.442-.883-.515-1.398-.221-1.692.294-3.531 1.397-4.708.81-.883 1.84-1.398 2.428-2.501.589-1.251.368-2.722.442-4.193.147-3.384 2.28-6.548 5.223-7.651 1.913-.662 3.678-1.03 5.444-2.207.294-.147 4.267-3.09 4.34-2.354-.073-1.251-.662-2.428-1.324-3.458-1.03-1.766-2.207-3.458-3.826-4.561-5.149-3.678-6.106 3.605-10.372 2.28-1.03-.367-1.766-1.397-2.649-2.059-1.692-1.251-3.972-1.104-5.885-.442-2.06.515-3.826 1.545-5.812 1.913Z" fill="#1A3151"/><path d="m247.049 380.802 108.878 42.007 119.251-39.8-101.227-39.137-126.902 36.93Z" fill="#1A6F82"/><path d="M442.593 387.297c.047-24.987-20.171-45.281-45.159-45.328-24.987-.046-45.281 20.172-45.328 45.159-.047 24.987 20.172 45.281 45.159 45.328 24.987.047 45.281-20.171 45.328-45.159Z" fill="#fff"/><mask id="mask0_529_7329" style="mask-type:luminance" maskUnits="userSpaceOnUse" x="352" y="341" width="91" height="92"><path d="M442.593 387.297c.047-24.987-20.171-45.281-45.159-45.328-24.987-.046-45.281 20.172-45.328 45.159-.047 24.987 20.172 45.281 45.159 45.328 24.987.047 45.281-20.171 45.328-45.159Z" fill="#fff"/></mask><g mask="url('#mask0_529_7329')" fill="#5C5955"><path d="m426.698 360.057 1.03-.809c-.221-.295-5.371-7.063-15.523-10.962l-.441 1.251c9.858 3.752 14.934 10.446 14.934 10.52ZM367.698 359.909c.073-.073 5.15-6.768 14.934-10.52l-.442-1.25c-10.152 3.899-15.301 10.667-15.522 10.887l1.03.883ZM430.449 411.406c3.09-3.311 5.518-8.534 7.283-15.597 1.251-5.223 1.692-9.563 1.692-9.563l-1.324-.147c0 .147-1.545 16.92-8.534 24.424l.883.883ZM363.945 411.259l.957-.883c-6.989-7.504-8.461-24.277-8.461-24.424l-1.324.074c0 .073.368 4.34 1.619 9.637 1.765 7.062 4.193 12.285 7.209 15.596ZM396.389 428.841c5.885 0 10.52-1.104 10.814-1.177l-.294-1.251c-.074 0-10.594 2.501-19.863 0l-.368 1.251a41.646 41.646 0 0 0 9.711 1.177Z"/></g><mask id="mask1_529_7329" style="mask-type:luminance" maskUnits="userSpaceOnUse" x="352" y="341" width="91" height="92"><path d="M442.593 387.297c.047-24.987-20.171-45.281-45.159-45.328-24.987-.046-45.281 20.172-45.328 45.159-.047 24.987 20.172 45.281 45.159 45.328 24.987.047 45.281-20.171 45.328-45.159Z" fill="#fff"/></mask><g mask="url('#mask1_529_7329')"><path d="m397.345 370.281 15.376 11.182-5.959 18.098h-18.98l-5.886-18.098 15.449-11.182Z" fill="#1A3151"/></g><mask id="mask2_529_7329" style="mask-type:luminance" maskUnits="userSpaceOnUse" x="352" y="341" width="91" height="92"><path d="M442.593 387.297c.047-24.987-20.171-45.281-45.159-45.328-24.987-.046-45.281 20.172-45.328 45.159-.047 24.987 20.172 45.281 45.159 45.328 24.987.047 45.281-20.171 45.328-45.159Z" fill="#fff"/></mask><g mask="url('#mask2_529_7329')"><path d="m397.346 360.497-15.375-11.182 5.959-18.097 18.98.073 5.811 18.098-15.375 11.108Z" fill="#1A3151"/></g><mask id="mask3_529_7329" style="mask-type:luminance" maskUnits="userSpaceOnUse" x="352" y="341" width="91" height="92"><path d="M442.593 387.297c.047-24.987-20.171-45.281-45.159-45.328-24.987-.046-45.281 20.172-45.328 45.159-.047 24.987 20.172 45.281 45.159 45.328 24.987.047 45.281-20.171 45.328-45.159Z" fill="#fff"/></mask><g mask="url('#mask3_529_7329')" fill="#1A3151"><path d="m411.691 409.346 18.98.294 5.665 18.171-15.596 10.961-15.228-11.403 6.179-18.023Z"/><path d="m405.15 394.819-1.185.59 9.08 18.242 1.186-.59-9.081-18.242Z"/></g><mask id="mask4_529_7329" style="mask-type:luminance" maskUnits="userSpaceOnUse" x="352" y="341" width="91" height="92"><path d="M442.593 387.297c.047-24.987-20.171-45.281-45.159-45.328-24.987-.046-45.281 20.172-45.328 45.159-.047 24.987 20.172 45.281 45.159 45.328 24.987.047 45.281-20.171 45.328-45.159Z" fill="#fff"/></mask><g mask="url('#mask4_529_7329')" fill="#1A3151"><path d="m422.209 377.639 4.34-18.538 18.981-1.545 7.356 17.508-14.419 12.433-16.258-9.858Z"/><path d="m427.085 374.751-18.694 8.11.527 1.215 18.694-8.11-.527-1.215Z"/></g><mask id="mask5_529_7329" style="mask-type:luminance" maskUnits="userSpaceOnUse" x="352" y="341" width="91" height="92"><path d="M442.593 387.297c.047-24.987-20.171-45.281-45.159-45.328-24.987-.046-45.281 20.172-45.328 45.159-.047 24.987 20.172 45.281 45.159 45.328 24.987.047 45.281-20.171 45.328-45.159Z" fill="#fff"/></mask><g mask="url('#mask5_529_7329')" fill="#1A3151"><path d="m382.779 409.565-19.054.148-5.664 18.17 15.448 11.035 15.302-11.329-6.032-18.024Z"/><path d="m389.333 395.024-9.147 18.209 1.183.595 9.148-18.21-1.184-.594Z"/></g><mask id="mask6_529_7329" style="mask-type:luminance" maskUnits="userSpaceOnUse" x="352" y="341" width="91" height="92"><path d="M442.593 387.297c.047-24.987-20.171-45.281-45.159-45.328-24.987-.046-45.281 20.172-45.328 45.159-.047 24.987 20.172 45.281 45.159 45.328 24.987.047 45.281-20.171 45.328-45.159Z" fill="#fff"/></mask><g mask="url('#mask6_529_7329')" fill="#1A3151"><path d="m372.186 377.638-4.561-18.465-18.98-1.324-7.209 17.582 14.566 12.286 16.184-10.079Z"/><path d="m367.277 374.831-.513 1.221 18.782 7.904.514-1.22-18.783-7.905Z"/></g><mask id="mask7_529_7329" style="mask-type:luminance" maskUnits="userSpaceOnUse" x="352" y="341" width="91" height="92"><path d="M442.593 387.297c.047-24.987-20.171-45.281-45.159-45.328-24.987-.046-45.281 20.172-45.328 45.159-.047 24.987 20.172 45.281 45.159 45.328 24.987.047 45.281-20.171 45.328-45.159Z" fill="#fff"/></mask><g mask="url('#mask7_529_7329')"><path d="m396.715 350.997-.039 21.482 1.324.002.04-21.481-1.325-.003Z" fill="#1A3151"/></g><path d="M355.707 513.001 246.902 457.9l.147-77.171 108.805 42.006-.147 90.266Z" fill="#1A6F82"/><path d="m355.707 513.001 119.325-52.453.147-77.539-119.325 39.726-.147 90.266Z" fill="#145566"/><path d="M346.365 361.454c-5.371 1.692-8.313 7.431-6.548 12.801 1.692 5.37 7.431 8.313 12.801 6.547l14.051-4.487c5.371-1.692 8.313-7.43 6.548-12.801-1.692-5.37-7.431-8.313-12.801-6.547l-14.051 4.487ZM361.224 394.264c-6.033-3.09-13.463-.736-16.553 5.297-3.09 6.032-.736 13.462 5.297 16.552l15.89 8.166c6.033 3.09 13.463.736 16.553-5.297 3.09-6.032.735-13.462-5.297-16.552l-15.89-8.166Z" fill="#3ABABA"/><path d="M309.286 410.891c3.09-6.033 10.52-8.387 16.553-5.297 6.032 3.09 8.386 10.52 5.296 16.552l-8.165 15.891c-3.09 6.032-10.52 8.386-16.553 5.297-6.032-3.09-8.386-10.52-5.297-16.553l8.166-15.89Z" fill="#B5D6CA"/><path d="M287.439 380.361c-5.37 1.692-8.313 7.43-6.547 12.8 1.692 5.371 7.43 8.313 12.8 6.548l14.051-4.488c5.371-1.692 8.313-7.43 6.548-12.801-1.692-5.37-7.43-8.313-12.801-6.547l-14.051 4.488Z" fill="#3ABABA"/><path d="M307.448 408.316c4.782 14.86 20.673 23.026 35.459 18.318 14.861-4.782 23.027-20.672 18.318-35.459l-3.163-9.858c-4.782-14.86-20.672-23.026-35.459-18.318-14.86 4.782-23.026 20.672-18.318 35.459l3.163 9.858Z" fill="#3ABABA"/><path d="M326.9 376.426c16.022-5.125 24.855-22.268 19.73-38.29s-22.268-24.855-38.29-19.73c-16.022 5.126-24.855 22.269-19.73 38.29 5.125 16.022 22.268 24.855 38.29 19.73Z" fill="#3ABABA"/><path d="M318.188 349.169c10.373-3.311 21.26-.809 28.985 5.812-2.501 9.858-9.858 18.244-20.231 21.555-10.373 3.31-21.26.809-28.985-5.812 2.501-9.858 9.858-18.245 20.231-21.555Z" fill="#F4F1EF"/><path d="M340.506 336.07c7.508-2.402 11.647-10.435 9.245-17.943-2.401-7.508-10.434-11.647-17.942-9.245-7.508 2.402-11.647 10.435-9.246 17.942 2.402 7.508 10.435 11.647 17.943 9.246ZM292.41 351.519c7.508-2.402 11.647-10.435 9.246-17.943-2.402-7.507-10.435-11.647-17.943-9.245-7.508 2.402-11.647 10.435-9.245 17.943 2.401 7.507 10.435 11.647 17.942 9.245Z" fill="#3ABABA"/><path d="M331.22 341.442a3.09 3.09 0 1 0-1.882-5.886 3.09 3.09 0 0 0 1.882 5.886ZM303.115 350.438a3.09 3.09 0 1 0-1.884-5.887 3.09 3.09 0 0 0 1.884 5.887ZM312.669 361.97c.442-.883 1.545-1.178 2.355-.736a9.457 9.457 0 0 0 5.443.956l-2.207-6.989c-3.899-1.25-4.634-4.046-4.634-4.046-.442-1.398.294-3.09 1.692-3.531l4.34-1.398c1.398-.441 2.943.442 3.384 1.913.074.294.883 2.869-1.397 5.959l2.28 6.989c1.619-.883 2.943-2.207 3.899-3.973.441-.883 1.545-1.177 2.354-.736.883.442 1.177 1.545.736 2.355-1.619 3.163-4.414 5.37-7.577 6.4-3.164 1.03-6.695.809-9.858-.809-.957-.442-1.251-1.472-.81-2.354Z" fill="#1A3151"/><path d="M339.157 316.284c3.604 2.281 4.634 6.989 2.354 10.52l-12.874-8.092c2.28-3.605 6.989-4.635 10.52-2.428ZM281.995 334.602c1.619-3.899 6.033-5.812 10.005-4.193l-5.812 14.124c-3.899-1.545-5.738-6.032-4.193-9.931Z" fill="#fff"/><path d="m355.854 422.735 21.187 36.415 115.793-45.685-17.803-30.456-119.177 39.726Z" fill="#1A6F82"/><path d="m227.48 405.005 103.361 49.069 25.013-31.339-108.878-42.006-19.496 24.276Z" fill="#145566"/><path d="m601.125 150.685-6.621-6.842 2.575-11.771 6.474.147 1.692 10.3 3.237 2.06-.074 5.002-7.283 1.104ZM649.239 211.525c3.237-.147 6.547-.294 9.784-.441.147-2.575.147-5.224-.147-7.798 0 .294 5.223-2.428 5.664-3.09 1.325-1.766 1.472-4.782 1.987-6.915 1.177-4.562 2.28-9.638-.147-13.684-2.502-4.193-7.872-5.591-12.727-5.738-6.106-.147-12.948 1.618-16.038 6.915-2.795 4.708.736 11.697 1.766 16.7.515 2.501 1.25 5.297 3.604 6.327 1.251.514 2.722.514 3.752 1.25 2.06 1.324 1.619 4.267 2.502 6.474Z" fill="#EAC1A4"/><path d="m628.051 171.725-1.103-10.152c-.147-1.25-.294-2.575.147-3.752.662-1.986 2.648-3.237 4.708-3.752 1.987-.515 4.12-.588 6.18-1.03 2.207-.515 4.34-1.471 6.547-1.397 4.267.147 7.504 4.119 11.697 4.782 5.812.882 11.182-1.766 14.714 5.076.662 1.25.809 2.722 1.397 3.972.736 1.692 2.06 3.016 3.164 4.488 4.634 6.547 3.163 16.552-2.428 22.143-2.722 2.722-3.825 5.15-7.504 6.033 1.692-3.458-.588-17.288-5.223-18.833-1.251-.442-4.929 1.103-6.327 1.324-3.016.441-5.959.956-8.828 2.133-4.266 1.766-8.828 3.017-13.389 3.384-.588.074-1.25.074-1.692-.294-.441-.368-.515-.956-.588-1.545-.515-4.193-.957-8.386-1.472-12.58ZM701.469 460.327l1.324 5.518-9.71 8.092-6.769-4.12 4.194-6.842 9.637-8.165 1.324 5.517Z" fill="#1A3151"/><path d="m678.885 290.24 4.046 16.7-4.929 77.686 23.615 73.787-10.373 4.782-47.156-85.116-5.665-27.22-2.943-57.603 43.405-3.016Z" fill="#145566"/><path d="m613.779 296.936-.662 72.169 13.757 93.061h10.447l6.473-85.925 14.125-85.852-44.14 6.547Z" fill="#145566"/><path d="m637.246 460.915.074 5.665-11.329 5.664-5.665-5.664 5.665-5.665h11.255Z" fill="#1A3151"/><path d="M691.392 310.619c.147 6.548 0 15.449-2.575 15.817-.441.074-.956-.147-1.324-.368-4.414-2.354-7.504-5.738-11.771-8.018-4.487-2.428-9.71-3.679-14.787-4.561-7.577-1.398-15.301-2.207-23.026-2.355-6.106-.073-12.138.442-18.244.957-5.003.441-9.711 1.912-14.861 1.618-5.223-.368-10.446-1.986-14.934-4.708-.147-.074-.368-.221-.441-.368-.074-.221 0-.441.073-.588 1.104-2.943 1.84-5.886 3.752-8.313 2.207-2.722 3.679-6.18 5.297-9.27 3.237-6.474 6.327-13.242 8.607-20.083 3.458-9.343 7.357-18.466 10.741-27.809 2.281-6.473 4.414-13.094 7.577-19.274 2.428-4.855 6.842-11.844 12.139-13.978 1.766-.735 3.752-.809 5.665-.882 5.885-.147 11.697-.368 17.582-.515 2.133-.074 4.34-.147 6.327.735 2.942 1.325 4.561 4.341 6.032 7.21 6.474 12.8 10.594 26.557 12.948 40.829 1.25 7.43 2.354 14.861 3.237 22.364.956 8.313 1.692 16.7 1.839 25.087-.074.735.073 3.384.147 6.473Z" fill="#3ABABA"/><path d="m622.9 232.196-33.472-27.219 8.313-57.603 12.8-.073-1.839 49.951 29.574 14.346-15.376 20.598Z" fill="#3ABABA"/><path d="m636.59 273.113-10.488-2.314-35.861 162.497 10.488 2.314 35.861-162.497Z" fill="#1A3151"/><path d="m576.185 387.863-6.769 30.751c-6.4 29.132 19.128 47.303 19.128 47.303s30.824-5.738 37.298-34.87l6.768-30.751-56.425-12.433ZM629.372 280.972l-1.471-1.03c-.883-.662-21.702-15.743-16.258-40.462l.956-4.193 51.276 11.329-.956 4.194c-5.444 24.718-30.678 29.647-31.781 29.868l-1.766.294Zm-9.931-35.386c-.883 13.463 8.313 22.953 11.991 26.116 4.708-1.324 16.994-5.958 21.849-18.612l-33.84-7.504Z" fill="#DBDBDB"/><path d="m636.633 273.12-10.488-2.314-4.757 21.551 10.489 2.315 4.756-21.552Z" fill="#DBDBDB"/><path d="m651.371 268.097-4.782 1.912-4.12-1.912-.883.735.81 1.03-3.899-.515-2.649 1.619-.368 4.193 2.502 3.678 4.193-.147 4.267-2.648 6.621-2.354-1.692-5.591Z" fill="#EAC1A4"/><path d="m645.854 266.846 26.704-16.994-5.444-41.417 28.25 22.069-4.341 36.637-41.565 9.048-3.604-9.343Z" fill="#3ABABA"/></g><defs><clipPath id="clip0_529_7329"><path fill="#fff" d="M0 0h795v537H0z"/></clipPath></defs></svg>