<svg width="738" height="498" fill="none" xmlns="http://www.w3.org/2000/svg"><g clip-path="url('#clip0_653_4987')"><path d="M706.06 497.987c-15.202 0-99.026.029-204.128 0-27.124 0-55.703 0-84.852-.028h-15.459c-20.877 0-41.983-.029-63.032-.029h-16.971c-34.197-.028-68.023-.057-100.224-.085-125.41-.143-162.316-1.17-162.316-1.227-.257-.599-115.284-59.223-23.645-181.893 46.091-61.762-6.417-128.916 32.886-187.797 55.588-83.33 147.627-34.462 210.774-60.878 11.152-4.65 22.361-12.153 33.57-23.678 6.303-6.476 13.234-12.125 20.621-17.031 1.141-.742 2.282-1.484 3.451-2.197 4.421-2.738 9.013-5.192 13.747-7.417a140.256 140.256 0 0 1 9.726-4.137 168.59 168.59 0 0 1 16.115-5.22 179.556 179.556 0 0 1 24.015-4.679c3.565-.456 7.159-.827 10.81-1.084C481.71-4.67 561.085 24.998 602.071 68.361c8.243 8.729 45.748 53.917 16.2 115.993-18.682 39.197 59.553 76.654 87.333 121.414 70.648 113.825 1.084 190.736.456 192.219Z" fill="#D9E3F6"/><path d="M360.506 41.022C470.55 6.569 524.72 32.63 524.72 32.63l4.093 79.958s-54.101-26.061-164.214 8.392-159.166 8.119-159.166 8.119l-4.093-79.958s49.053 26.266 159.166-8.12Z" fill="#fff"/><path d="m263.151 120.299-11.598-33.157 4.23-.205 5.594 16.306c1.569 4.502 2.865 8.528 3.889 12.416h.068c.682-3.957 1.706-8.255 2.797-12.689l4.23-16.92 4.162-.204-9.074 34.248-4.298.205ZM306.677 97.853c1.774 11.461-3.548 18.488-11.189 19.716-7.914 1.228-14.531-4.707-16.1-14.804-1.638-10.575 3.206-18.42 11.188-19.649 8.187-1.296 14.6 4.912 16.101 14.737Zm-23.196 4.161c1.092 7.096 5.526 12.963 11.666 12.008 6.14-.956 8.665-7.778 7.437-15.35-1.024-6.618-5.185-13.031-11.667-12.076-6.344 1.023-8.528 8.118-7.436 15.418ZM308.176 80.524l3.82-.887 6.823 29.268 12.621-2.933.819 3.547-16.442 3.821-7.641-32.816ZM330.35 75.135l5.594 19.17c2.115 7.232 5.936 9.484 9.825 8.324 4.298-1.296 6.14-5.253 4.093-12.417l-5.594-19.17 3.82-1.092 5.526 18.83c2.934 9.96-.614 15.418-6.89 17.26-5.936 1.774-11.53-.75-14.464-10.78l-5.594-19.034 3.684-1.091ZM363.848 100.104l-8.664-32.542 4.161-1.092 13.781 13.986c3.207 3.207 5.799 6.208 8.051 9.21l.068-.068c-1.501-4.23-2.661-8.187-4.025-13.304l-3.616-13.644 3.548-.956 8.664 32.543-3.821 1.024-13.712-14.054c-3.002-3.07-5.936-6.277-8.392-9.415l-.136.068c1.296 4.025 2.456 7.914 3.888 13.372l3.684 13.917-3.479.955ZM391.822 62.377l-9.073 1.842-.751-3.616 22.036-4.434.751 3.616-9.074 1.842 5.867 29.404-3.889.75-5.867-29.404ZM426.954 70.972l-11.666 1.638 1.638 12.007 13.03-1.774.478 3.616-16.92 2.32-4.571-33.362 16.238-2.251.477 3.616-12.348 1.706 1.432 10.574 11.667-1.637.545 3.547ZM449.537 69.199l-11.735.819.819 12.143 13.099-.887.273 3.616-16.988 1.16-2.251-33.634 16.374-1.092.272 3.616-12.416.819.682 10.643 11.734-.82.137 3.617ZM456.905 51.529c1.979-.41 4.844-.614 7.505-.546 4.161.068 6.89.955 8.732 2.934 1.501 1.5 2.32 3.82 2.252 6.413-.069 4.434-2.661 7.368-5.868 8.528v.136c2.32.955 3.684 3.343 4.298 6.89.887 4.708 1.57 7.983 2.184 9.28l-4.026-.069c-.477-.955-1.091-3.889-1.91-8.119-.818-4.639-2.388-6.413-5.935-6.686l-3.684-.068-.273 14.6-3.889-.068.614-33.225Zm3.684 15.419 4.025.068c4.162.068 6.891-2.456 6.959-6.277.068-4.366-2.729-6.276-6.89-6.413-1.911 0-3.275.136-3.889.341l-.205 12.28Z" fill="#1A3151"/><path d="M168.388 31.402c-11.598 2.934-23.742 13.85-23.81 24.697-6.686-8.46-26.061-8.46-37.045-3.616-28.995 12.69-27.63 49.394-7.3 67.405 10.916 9.688 24.356 16.852 38.273 22.651 11.666 4.843 40.457 13.712 40.525 13.644.068 0 17.329-24.697 23.537-35.612 7.437-13.099 13.577-27.017 16.237-41.344 4.913-26.88-19.784-55.67-50.417-47.825Z" fill="#EAC5B0"/><path d="M498.999 186.407s-34.316 16.783-44.686 10.507c-1.297-.819-31.929-12.894-31.929-12.894l-6.277 7.027 35.136 24.014 11.666 1.979 29.541-8.46 6.549-22.173ZM521.786 189.409s19.853 32.679 31.929 32.952c1.5.068 33.839 6.344 33.839 6.344l1.5 9.347-42.571 1.228-10.916-4.639-20.262-23.06 6.481-22.172Z" fill="#9EA6AD"/><path d="M517.421 186.953c.136.068.273.137.409.137 6.959 2.66 12.417 14.804 15.555 21.968 8.119 18.42 11.666 37.591 12.349 57.922.341 10.984.273 21.899-.069 32.883-.068 3.002-2.66 30.155-1.296 30.769-13.781-6.618-27.767-12.894-42.435-16.646-14.668-3.753-30.087-4.981-44.891-1.501 4.435-34.453 10.916-69.452 20.262-102.745 1.092-3.957 1.842-8.187 3.548-12.007 1.91-4.367 4.776-5.663 8.46-8.187 1.228-.887 2.524-1.774 3.888-2.388 7.164-3.138 16.92-2.866 24.22-.205Z" fill="#9EA6AD"/><path d="m538.844 295.224-15.692 64.13-.273 47.21-7.641 1.638-3.07-43.868-7.709-80.436 34.385 11.326Z" fill="#DEC9AD"/><path d="m515.171 409.567-1.296 4.776 1.16 9.415h6.208l2.252-13.577-.683-2.319-7.641 1.705Z" fill="#1A3151"/><path d="m478.535 288.265-1.297 55.398 7.573 78.116 7.573.546 2.592-71.635 15.282-65.017-31.723 2.592Z" fill="#DEC9AD"/><path d="m485.017 420.482-10.165 5.458.818 4.776 18.011-2.251-.887-6.891-7.777-1.092Z" fill="#1A3151"/><path d="m476.351 295.429-5.048 63.994 5.321 43.799 20.467-1.16 3.616-49.871 8.733-54.374-1.365-8.46-29.541.478-2.183 5.594Z" fill="#A0A1A3"/><path d="m507.526 354.648 2.456 45.915 17.807-.956-.41-43.526 11.121-54.647-2.593-15.282-29.95 1.978 1.569 66.518Z" fill="#A0A1A3"/><path d="M465.846 296.589c18.352 2.797 48.848 4.844 67.2 7.641.955-33.157-2.388-71.43-10.438-103.495-1.433-5.799-3.616-12.076-8.733-15.078-5.458-3.138-16.988-2.729-20.331 3.48-4.843 9.005-5.799 23.401-7.913 33.429-4.913 22.719-16.783 50.963-19.785 74.023Z" fill="#fff"/><path d="M494.294 159.938c4.844-12.894 21.149-7.709 24.014 3.889 1.911 7.641-4.229 17.465-11.939 19.376.137 1.91.205 3.82.205 5.73-2.047-.204-4.162-.409-6.208-.614-.614-.068-1.365-.204-1.706-.75-.205-.341-.136-.751-.068-1.16.136-1.296.273-2.592.477-3.889l-.409-.204c-3.684-1.979-5.867-6.004-6.345-10.166-.477-4.161.478-8.323 1.979-12.212Z" fill="#EAC1A4"/><path d="M495.388 163.896c-2.729 3.684-2.251 8.732-1.705 13.099.409 3.888.273 6.276-4.025 5.867-2.388-.205-6.686-.614-8.051-2.934-1.023-1.774 1.092-5.458 2.32-6.822.955-1.024 2.592-1.16 3.547-2.183.41-.41.614-.955.819-1.501.751-2.252 1.228-4.571 1.296-6.891.069-1.569-.068-3.206.341-4.775.546-2.252 2.934-4.299 4.435-6.004 2.729-3.207 9.688-6.481 13.167-2.115.751 1.023 1.024 2.32 1.092 3.616.068.75.136 1.569-.137 2.251-.955 2.866-3.684 2.524-6.003 3.275-2.798.75-5.322 2.729-7.096 5.117Z" fill="#1A3151"/><path d="M515.991 171.468c-.546 2.115-2.32 4.025-1.774 6.072.273.955.955 1.638 1.433 2.456 1.433 2.183 1.501 5.185.341 7.505 4.162 1.228 8.255 2.388 12.417 3.616.614.204 1.296.341 1.91.204 1.364-.273 1.91-1.842 2.32-3.206.75-2.661 1.432-5.458.477-8.051-.409-1.159-1.228-2.251-1.637-3.411-2.047-5.73 4.093-12.485 1.023-17.738-1.364-2.319-4.162-3.411-6.208-5.185-3.548-3.07-4.844-8.323-8.665-11.189-7.095-5.389-18.147 1.774-15.759 10.575 1.91 7.164 16.237 9.961 14.122 18.352Z" fill="#1A3151"/><path d="M516.943 187.977s6.003 82.277-6.755 98.583c-12.757 16.237-18.215 22.377-18.215 22.377l52.395 21.763c0-.068-1.364-120.073-27.425-142.723Z" fill="#9EA6AD"/><path d="M283.755 185.451s-30.974 22.378-42.23 17.943c-1.433-.546-33.635-7.3-33.635-7.3l-5.048 7.982 38.683 17.67h11.871l27.63-13.303 2.729-22.992Z" fill="#fff"/><path d="M193.423 156.523s4.775 2.388 5.594 14.941c.819 12.554 3.752 20.263 3.752 20.263s-3.752 2.865-7.231 1.637c-3.48-1.228-4.708-1.364-4.64-6.549 0-5.185-3.002-29.268-3.002-29.268l5.527-1.024Z" fill="#1A3151"/><path d="M184.348 162.937c4.912.205 9.483 3.684 11.052 8.323 1.978-2.933 2.456-6.822 1.228-10.165-1.228-3.343-4.162-5.936-7.573-6.823-2.524 2.184-4.093 5.322-4.366 8.665h-.341Z" fill="#1A3151"/><path d="m178.483 192.682-31.451.614-11.053-50.826-10.37 1.432v62.22l18.489 8.938 33.839 4.775.546-27.153Z" fill="#EBB044"/><path d="m164.36 418.366-.546 4.503 7.983 5.731 4.843-3.821-3.684-5.117-8.05-5.731-.546 4.435Z" fill="#1A3151"/><path d="m167.569 281.51-1.705 13.508 11.188 47.006-12.962 74.842 8.255 3.07 23.605-72.863 3.889-21.218.887-45.164-33.157.819Z" fill="#DBDBDB"/><path d="m231.219 298.019-20.194 125.464-7.982-.205.341-80.64-13.304-56.967 41.139 12.348Z" fill="#DBDBDB"/><path d="m203.113 422.256-.068 4.571 8.46 4.707 4.434-4.434-4.23-4.639-8.596-.205Z" fill="#1A3151"/><path d="M162.724 284.103c6.891-40.32 5.39-69.861 5.867-77.912.478-8.118 6.141-12.143 6.141-12.143 2.456-.478 4.571-2.047 7.095-2.661 16.715-3.889 25.515 9.278 31.383 23.401a401.662 401.662 0 0 1 18.147 53.76c4.23 16.1 8.46 32.338 10.029 48.916.614 6.891 1.16 13.372-6.208 16.237-11.735 4.571-24.834 4.162-37.182 5.458-14.191 1.433-28.381 2.456-42.64 2.729-7.436.205.478-17.397 7.368-57.785Z" fill="#EBB044"/><path d="m129.226 143.493-6.072-6.344 2.388-10.916 6.004.136 1.569 9.552 3.002 1.91-.137 4.639-6.754 1.023Z" fill="#EAC1A4"/><path d="m189.875 190.771 15.896 3.138 31.861 32.202 37.864-.614 1.842 11.734-44.346 6.823-35.954-24.151-7.163-29.132Z" fill="#EBB044"/><path d="m193.765 191.66 2.046 43.118-21.217-41.412 6.481-2.115 4.639-1.296 8.051 1.705Z" fill="#fff"/><path d="m275.836 228.431 7.095-4.161 8.869 2.387-.136 4.844-14.941 2.456-.887-5.526ZM195.128 166.962c-5.254-12.075-20.467-6.344-22.651 4.913-1.228 6.413 1.911 17.601 9.552 17.874.341 1.092.955 3.138 1.978 3.684 1.092.614 3.821-.818 4.912-1.364.273-.137.614-.341.819-.614.205-.341.068-1.16-.068-1.979a12.969 12.969 0 0 0 2.456-1.091c3.411-2.047 5.253-6.004 5.526-9.961.205-3.889-.955-7.846-2.524-11.462Z" fill="#EAC1A4"/><path d="M188.788 154.272s3.07 6.481-5.253 10.37c-8.324 3.889-12.417 12.008-9.279 18.83 3.139 6.89 10.78 10.711 7.778 13.372-3.002 2.66-15.965 3.616-15.965 3.616s-13.303-23.742-5.526-37.046c7.71-13.303 22.446-16.988 28.245-9.142Z" fill="#1A3151"/><path d="M573.704 79.226s-13.577 15.555-19.308 58.536l11.257 1.91s2.593-37.932 13.713-57.853l-5.662-2.593Z" fill="#145566"/><path d="M640.223 24.648s-39.229.682-56.421 15.896-9.551 42.299-9.551 42.299 25.993 10.984 43.185-4.162c17.261-15.214 22.787-54.033 22.787-54.033Z" fill="#C8D6A1"/><path d="M574.248 82.843s1.501.614 4.025 1.364l37.455-38-42.367 32.474c.478 2.593.887 4.162.887 4.162Z" fill="#145566"/><path d="M513.736 40.34s.751 34.998 14.327 50.28c13.645 15.351 37.796 8.392 37.796 8.392s9.756-23.196-3.889-38.547c-13.576-15.35-48.234-20.126-48.234-20.126Z" fill="#C8D6A1"/><path d="M565.929 99.012s.546-1.365 1.228-3.548l-34.044-33.293 29.132 37.66c2.251-.478 3.684-.82 3.684-.82Z" fill="#145566"/><path d="M574.252 82.842s42.503-.545 59.286-31.587c0 0-12.28 50.895-59.286 31.587Z" fill="#B8C48A"/><path d="m451.448 419.799.682 5.458-10.166 6.822-6.071-4.707 4.707-6.14 10.097-6.823.751 5.39Z" fill="#132235"/><path d="m451.787 418.025-7.983-69.178 9.279-77.434-2.183-16.51-42.026-1.501-1.501 26.812 7.232 68.769 26.675 72.59 10.507-3.548Z" fill="#1A3151"/><path d="M378.039 261.248v69.793l14.191 89.782 10.165-.068 5.39-83.096 12.826-83.233-42.572 6.822Z" fill="#1A3151"/><path d="m402.327 424.985-10.848 5.595-5.526-5.39 5.39-5.526 10.916-.136.068 5.457Z" fill="#132235"/><path d="M457.451 284.784c-.068-3.001-.273-5.526-.273-6.481-.204-8.118-.955-16.237-1.978-24.287-.955-7.232-2.115-25.107-3.343-32.338-1.023-5.936-4.639-20.672-7.164-26.198-6.413-13.645-4.434-14.941-32.474-18.898-12.28-1.774-15.214 5.935-25.243 14.736-1.023.887-.955 6.072-1.16 7.437-.409 2.387-.818 4.843-1.296 7.231-.409 1.91-.818 3.753-1.296 5.663 0 0-8.392 38.41-13.918 46.596-5.594 8.187-17.056 19.581 2.252 26.539 3.411 1.092 6.89 2.115 10.438 2.729 0 0 15.76-1.773 23.878-1.705 7.505.068 14.941.75 22.309 2.047 4.912.818 9.961 1.978 14.327 4.298 4.23 2.183 7.232 5.389 11.462 7.641.409.204.819.409 1.296.341 2.32-.341 2.388-8.937 2.183-15.351Z" fill="#145566"/><path d="M412.08 180.538c1.433.683 4.776.956 8.255-.409a1.858 1.858 0 0 0 1.16-1.705c0-2.115-.204-4.23-.546-6.345 2.593-.955 5.663-2.32 6.072-5.049.137-.887 0-1.774-.136-2.592l-1.842-10.643c-.205-1.228-.41-2.524-1.092-3.548-1.16-1.842-3.479-2.661-5.594-3.002-5.526-.955-11.53.273-15.76 3.889-1.16.955-2.183 2.115-2.66 3.548-.751 2.183-.205 4.571.409 6.754l1.637 6.14c.614 2.32 1.501 5.049 3.821 5.935 1.228.478 2.661.342 3.752 1.024 1.774 1.091 1.501 3.957 2.524 6.003Z" fill="#EAC1A4"/><path d="M380.221 145.13a23.722 23.722 0 0 0-1.774-2.524c-1.433-1.705-3.139-3.206-4.298-5.185-1.16-1.91-1.569-4.571-.205-6.345.887-1.159 2.32-1.705 3.684-2.115 4.571-1.364 9.483-1.432 14.122-.272 4.435 1.091 8.324 2.933 12.758 1.296 4.162-1.569 7.164-.955 11.53.614 4.707 1.637 11.052 2.046 15.282 4.434 1.774.955 3.207 2.525 4.298 4.23 3.821 5.936 3.889 14.054.068 20.058-.818 1.364-1.842 2.524-2.933 3.752-2.183 2.388-4.844 5.39-7.914 6.277-.068-2.729 2.388-11.325.273-13.577-3.343-3.547-10.848-2.319-15.009-1.432-4.503.955-8.528 4.161-12.963 4.843-3.206.478-7.3-1.091-10.029-2.728-3.343-2.115-4.912-8.119-6.89-11.326Z" fill="#1A3151"/><path d="m322.028 193.911-8.665-5.594 2.183-3.821 6.823 2.524.204-2.319 6.891 5.662-1.774 4.298-5.662-.75Z" fill="#AA6755"/><path d="m403.42 177.947-45.301 18.693-28.654-6.277-2.797 5.527 26.13 19.17 36.022-4.366 14.6-32.747Z" fill="#145566"/><path d="m466.527 107.608-.751-11.393-4.844.136-1.228 7.914-2.319-1.023 1.842 9.619 5.048.546 2.252-5.799Z" fill="#EAC1A4"/><path d="m422.998 184.155 24.833-33.02 11.394-38.273 6.754.204.068 44.277-23.469 46.802-19.58-19.99Z" fill="#145566"/><path d="m277.545 424.711-.205 4.776 9.278 5.185 4.981-4.503-4.503-4.98-9.279-5.185-.272 4.707Z" fill="#DBDBDB"/><path d="m269.766 280.691-.75 14.395 16.169 63.448-8.051 64.676 9.347 2.32 25.72-77.707.41-23.332-6.482-48.03-36.363 4.23Z" fill="#145566"/><path d="m340.65 279.191 7.3 60.242-2.865 79.002-8.733.956-13.372-71.158-19.785-70.475 37.455 1.433Z" fill="#145566"/><path d="m336.761 423.074 9.96 3.685 4.23-5.254-5.253-4.161-9.415 1.023.478 4.707Z" fill="#DBDBDB"/><path d="M344.132 269.162c-9.006-18.284-12.69-38.41-17.397-58.195-1.433-5.799-2.865-11.802-6.14-16.851-3.752-5.799-8.869-8.391-14.6-9.346-7.232-1.229-15.419.068-22.65.682-4.367 13.713-7.232 5.935-12.417 19.443-1.092 2.798-4.025 26.949-5.185 29.746 0 0-11.803 37.182-7.914 66.518.068.273.068.546.137.887.75.136 1.5.273 2.183.409 10.233 2.047 20.671 3.139 31.11 3.002 9.278-.136 18.556-1.296 27.562-3.548 12.348-3.07 26.948-1.842 37.045-10.028-3.001-5.936-8.732-16.715-11.734-22.719Z" fill="#fff"/><path d="m349.249 131.624-.341-10.302h-4.434l-1.297 7.096-2.115-.956 1.433 8.801 4.571.614 2.183-5.253Z" fill="#AA6755"/><path d="m307.018 184.088 26.334-19.989 9.142-27.836 6.14.341 3.275 32.27-28.108 40.048-16.783-24.834Z" fill="#fff"/><path d="M277.545 161.779c3.684-11.666 20.535-15.896 24.697-2.524 1.228 4.025 1.978 8.323 1.228 12.485-.751 4.161-3.207 8.187-7.096 9.892h-.068c.136 1.092.341 2.115.478 3.207.068.204.068.477-.069.682-.136.205-.409.273-.682.341-1.296.205-2.592.409-3.82.614-.614.136-1.297.205-1.911 0-1.364-.409-1.91-1.978-1.978-3.411v-1.024c-7.641-2.456-13.167-12.689-10.779-20.262Z" fill="#AA6755"/><path d="M300.809 142.608c3.138-.136 5.458 3.07 8.187 4.912 2.251 1.501 4.912 2.115 7.231 3.48 2.32 1.296 4.571 3.82 4.367 6.617 2.592-1.091 5.458-2.115 8.186-1.364 2.729.819 4.981 4.366 3.616 7.027-1.228 2.388-4.502 2.661-5.799 4.98-2.046 3.684 1.979 10.029-1.432 12.281-.819.545-1.842.614-2.661 1.159-.955.683-1.433 1.979-1.91 3.139-2.388 5.253-8.119 8.255-13.44 7.027-3.207-1.911-5.527-5.39-6.413-9.211-1.024-4.571 1.5-5.935 2.319-10.097.887-4.571-.136-9.551-2.661-13.371-1.637-2.525-4.161-4.776-6.958-5.254-1.16-.204-.887.751-2.115-.204-.546-.41-1.16-1.979-1.228-2.661 3.411-2.251 6.617-8.255 10.711-8.46Z" fill="#1A3151"/><path d="M267.584 145.2c-1.638.273-3.343.068-4.912.614-2.388.751-2.456 3.139-3.275 5.185-.955 2.183-2.251 5.185-3.957 6.823-1.228 1.159-2.797 1.773-4.162 2.592-1.432.887-2.729 2.183-2.865 3.957-.137 1.706.887 3.275.887 4.98-.068 2.525-.614 3.753-.068 6.413.273 1.365.614 2.798 1.501 3.821 1.159 1.296 3.07 1.433 4.707 1.364 1.637-.136 3.411-.409 4.912.273 3.411 1.501 2.388 4.981 3.07 8.051.955 4.639 5.936 7.777 10.097 6.549 3.548-1.023 5.867-4.775 6.072-8.664.137-1.979-.477-3.821-.341-5.799.136-1.91 1.433-4.367-.136-6.004-.41-.409-.887-.614-1.228-1.091-.273-.342-.41-.819-.478-1.297-.205-1.569.273-3.274 1.296-4.366.751-.819 1.706-1.296 2.252-2.32.545-1.159.341-2.524.409-3.888.136-3.139 2.115-6.072 4.844-7.096 1.774-.614 3.411-.955 5.048-2.046.273-.137 3.957-2.866 4.026-2.184-.069-1.159-.614-2.251-1.228-3.206-.956-1.637-2.047-3.207-3.548-4.23-4.776-3.411-5.663 3.343-9.62 2.115-.955-.341-1.637-1.296-2.456-1.91-1.569-1.16-3.684-1.024-5.458-.41-1.91.478-3.547 1.433-5.389 1.774Z" fill="#1A3151"/><path d="m229.107 353.147 100.971 38.955 110.591-36.909-93.876-36.295-117.686 34.249Z" fill="#1A6F82"/><path d="M410.449 359.169c.043-23.172-18.707-41.992-41.879-42.036-23.173-.043-41.993 18.707-42.036 41.879-.044 23.173 18.706 41.993 41.879 42.036 23.172.044 41.992-18.706 42.036-41.879Z" fill="#fff"/><mask id="mask0_653_4987" style="mask-type:luminance" maskUnits="userSpaceOnUse" x="326" y="317" width="85" height="85"><path d="M410.451 359.169c.043-23.172-18.707-41.992-41.879-42.036-23.173-.043-41.993 18.707-42.036 41.879-.044 23.173 18.706 41.993 41.878 42.036 23.173.044 41.993-18.706 42.037-41.879Z" fill="#fff"/></mask><g mask="url('#mask0_653_4987')" fill="#5C5955"><path d="m395.709 333.907.955-.751c-.205-.272-4.98-6.549-14.395-10.165l-.41 1.16c9.142 3.479 13.85 9.688 13.85 9.756ZM340.994 333.77c.068-.068 4.776-6.276 13.85-9.756l-.41-1.16c-9.415 3.616-14.19 9.893-14.395 10.098l.955.818ZM399.188 381.527c2.865-3.07 5.117-7.914 6.754-14.463 1.16-4.844 1.569-8.869 1.569-8.869l-1.228-.137c0 .137-1.433 15.692-7.914 22.65l.819.819ZM337.515 381.391l.887-.819c-6.481-6.959-7.846-22.514-7.846-22.65l-1.228.068c0 .068.341 4.025 1.501 8.938 1.637 6.549 3.889 11.393 6.686 14.463ZM367.603 397.696c5.458 0 9.756-1.024 10.029-1.092l-.273-1.16c-.068 0-9.824 2.32-18.42 0l-.341 1.16a38.585 38.585 0 0 0 9.005 1.092Z"/></g><mask id="mask1_653_4987" style="mask-type:luminance" maskUnits="userSpaceOnUse" x="326" y="317" width="85" height="85"><path d="M410.451 359.169c.043-23.172-18.707-41.992-41.879-42.036-23.173-.043-41.993 18.707-42.036 41.879-.044 23.173 18.706 41.993 41.878 42.036 23.173.044 41.993-18.706 42.037-41.879Z" fill="#fff"/></mask><g mask="url('#mask1_653_4987')"><path d="m368.487 343.389 14.259 10.37-5.526 16.783h-17.602l-5.458-16.783 14.327-10.37Z" fill="#1A3151"/></g><mask id="mask2_653_4987" style="mask-type:luminance" maskUnits="userSpaceOnUse" x="326" y="317" width="85" height="85"><path d="M410.451 359.169c.043-23.172-18.707-41.992-41.879-42.036-23.173-.043-41.993 18.707-42.036 41.879-.044 23.173 18.706 41.993 41.878 42.036 23.173.044 41.993-18.706 42.037-41.879Z" fill="#fff"/></mask><g mask="url('#mask2_653_4987')"><path d="m368.487 334.316-14.258-10.37 5.526-16.783 17.601.068 5.39 16.783-14.259 10.302Z" fill="#1A3151"/></g><mask id="mask3_653_4987" style="mask-type:luminance" maskUnits="userSpaceOnUse" x="326" y="317" width="85" height="85"><path d="M410.451 359.169c.043-23.172-18.707-41.992-41.879-42.036-23.173-.043-41.993 18.707-42.036 41.879-.044 23.173 18.706 41.993 41.878 42.036 23.173.044 41.993-18.706 42.037-41.879Z" fill="#fff"/></mask><g mask="url('#mask3_653_4987')" fill="#1A3151"><path d="m381.791 379.616 17.602.273 5.253 16.851-14.463 10.166-14.122-10.575 5.73-16.715Z"/><path d="m375.726 366.145-1.099.547 8.421 16.917 1.099-.547-8.421-16.917Z"/></g><mask id="mask4_653_4987" style="mask-type:luminance" maskUnits="userSpaceOnUse" x="326" y="317" width="85" height="85"><path d="M410.451 359.169c.043-23.172-18.707-41.992-41.879-42.036-23.173-.043-41.993 18.707-42.036 41.879-.044 23.173 18.706 41.993 41.878 42.036 23.173.044 41.993-18.706 42.037-41.879Z" fill="#fff"/></mask><g mask="url('#mask4_653_4987')" fill="#1A3151"><path d="m391.545 350.211 4.025-17.192 17.602-1.433 6.822 16.238-13.372 11.529-15.077-9.142Z"/><path d="m396.069 347.533-17.337 7.522.489 1.126 17.337-7.521-.489-1.127Z"/></g><mask id="mask5_653_4987" style="mask-type:luminance" maskUnits="userSpaceOnUse" x="326" y="317" width="85" height="85"><path d="M410.451 359.169c.043-23.172-18.707-41.992-41.879-42.036-23.173-.043-41.993 18.707-42.036 41.879-.044 23.173 18.706 41.993 41.878 42.036 23.173.044 41.993-18.706 42.037-41.879Z" fill="#fff"/></mask><g mask="url('#mask5_653_4987')" fill="#1A3151"><path d="m354.978 379.82-17.67.136-5.253 16.852 14.327 10.233 14.19-10.506-5.594-16.715Z"/><path d="m361.057 366.334-8.483 16.888 1.098.551 8.483-16.887-1.098-.552Z"/></g><mask id="mask6_653_4987" style="mask-type:luminance" maskUnits="userSpaceOnUse" x="326" y="317" width="85" height="85"><path d="M410.451 359.169c.043-23.172-18.707-41.992-41.879-42.036-23.173-.043-41.993 18.707-42.036 41.879-.044 23.173 18.706 41.993 41.878 42.036 23.173.044 41.993-18.706 42.037-41.879Z" fill="#fff"/></mask><g mask="url('#mask6_653_4987')" fill="#1A3151"><path d="m345.156 350.212-4.23-17.125-17.601-1.228-6.686 16.306 13.508 11.393 15.009-9.346Z"/><path d="m340.603 347.609-.476 1.132 17.418 7.33.477-1.132-17.419-7.33Z"/></g><mask id="mask7_653_4987" style="mask-type:luminance" maskUnits="userSpaceOnUse" x="326" y="317" width="85" height="85"><path d="M410.451 359.169c.043-23.172-18.707-41.992-41.879-42.036-23.173-.043-41.993 18.707-42.036 41.879-.044 23.173 18.706 41.993 41.878 42.036 23.173.044 41.993-18.706 42.037-41.879Z" fill="#fff"/></mask><g mask="url('#mask7_653_4987')"><path d="m367.904 325.505-.037 19.921 1.228.002.037-19.921-1.228-.002Z" fill="#1A3151"/></g><path d="m329.873 475.744-100.902-51.1.136-71.566 100.903 38.955-.137 83.711Z" fill="#1A6F82"/><path d="M329.873 475.743 440.532 427.1l.136-71.908-110.659 36.841-.136 83.71Z" fill="#145566"/><path d="M321.208 335.204c-4.981 1.569-7.71 6.891-6.072 11.871 1.569 4.98 6.89 7.709 11.871 6.072l13.03-4.162c4.981-1.569 7.71-6.89 6.072-11.871-1.569-4.98-6.89-7.709-11.871-6.072l-13.03 4.162ZM334.987 365.631c-5.594-2.866-12.485-.683-15.35 4.912-2.865 5.594-.682 12.485 4.912 15.35l14.736 7.573c5.595 2.865 12.485.682 15.351-4.912 2.865-5.595.682-12.485-4.912-15.351l-14.737-7.572Z" fill="#3ABABA"/><path d="M286.823 381.05c2.865-5.594 9.756-7.777 15.35-4.912 5.595 2.865 7.778 9.756 4.912 15.35l-7.572 14.737c-2.866 5.594-9.756 7.777-15.351 4.912-5.594-2.866-7.777-9.756-4.912-15.351l7.573-14.736Z" fill="#B5D6CA"/><path d="M266.563 352.737c-4.98 1.569-7.709 6.89-6.072 11.871 1.569 4.98 6.891 7.709 11.871 6.072l13.031-4.162c4.98-1.569 7.709-6.891 6.072-11.871-1.57-4.98-6.891-7.709-11.871-6.072l-13.031 4.162Z" fill="#3ABABA"/><path d="M285.12 378.662c4.435 13.781 19.171 21.354 32.884 16.987 13.781-4.434 21.354-19.17 16.987-32.883l-2.933-9.142c-4.435-13.781-19.171-21.354-32.884-16.988-13.781 4.435-21.354 19.171-16.988 32.884l2.934 9.142Z" fill="#3ABABA"/><path d="M303.158 349.088c14.858-4.753 23.05-20.651 18.297-35.509s-20.651-23.049-35.509-18.296-23.05 20.651-18.297 35.509 20.651 23.05 35.509 18.296Z" fill="#3ABABA"/><path d="M295.078 323.811c9.619-3.07 19.717-.751 26.88 5.389-2.32 9.142-9.142 16.92-18.761 19.99-9.62 3.07-19.717.75-26.881-5.39 2.32-9.142 9.142-16.919 18.762-19.989Z" fill="#F4F1EF"/><path d="M315.774 311.663c6.962-2.227 10.801-9.677 8.574-16.64-2.227-6.962-9.677-10.801-16.64-8.573-6.962 2.227-10.801 9.677-8.574 16.639 2.228 6.963 9.677 10.801 16.64 8.574ZM271.172 325.99c6.963-2.227 10.801-9.677 8.574-16.639-2.227-6.963-9.677-10.801-16.639-8.574-6.963 2.227-10.801 9.677-8.574 16.639 2.227 6.963 9.677 10.802 16.639 8.574Z" fill="#3ABABA"/><path d="M307.165 316.645a2.867 2.867 0 0 0-1.746-5.459 2.865 2.865 0 0 0 1.746 5.459ZM281.1 324.988a2.866 2.866 0 1 0-1.746-5.46 2.866 2.866 0 0 0 1.746 5.46ZM289.961 335.682c.41-.819 1.433-1.092 2.184-.683a8.771 8.771 0 0 0 5.048.887l-2.047-6.481c-3.615-1.16-4.298-3.752-4.298-3.752-.409-1.296.273-2.866 1.57-3.275l4.025-1.296c1.296-.41 2.729.409 3.138 1.774.068.273.819 2.66-1.296 5.526l2.115 6.481c1.501-.819 2.729-2.047 3.616-3.684.409-.819 1.432-1.092 2.183-.682.818.409 1.091 1.432.682 2.183-1.501 2.933-4.093 4.98-7.027 5.935-2.934.955-6.208.751-9.142-.75-.887-.41-1.16-1.365-.751-2.183Z" fill="#1A3151"/><path d="M314.524 293.314c3.343 2.115 4.298 6.481 2.183 9.756l-11.939-7.504c2.115-3.343 6.481-4.299 9.756-2.252ZM261.512 310.302c1.501-3.616 5.594-5.39 9.278-3.889l-5.389 13.099c-3.616-1.433-5.322-5.595-3.889-9.21Z" fill="#fff"/><path d="m330.01 392.033 19.648 33.771 107.384-42.367-16.51-28.245-110.522 36.841Z" fill="#1A6F82"/><path d="m210.959 375.591 95.854 45.506 23.196-29.064-100.971-38.955-18.079 22.513Z" fill="#145566"/><path d="m557.466 139.741-6.14-6.345 2.388-10.916 6.004.137 1.569 9.551 3.002 1.91-.069 4.64-6.754 1.023ZM602.085 196.163c3.002-.137 6.072-.273 9.074-.41.137-2.387.137-4.843-.136-7.231 0 .273 4.844-2.252 5.253-2.866 1.228-1.637 1.364-4.434 1.842-6.413 1.092-4.23 2.115-8.937-.136-12.689-2.32-3.889-7.3-5.185-11.803-5.322-5.663-.136-12.007 1.501-14.873 6.413-2.592 4.367.682 10.848 1.637 15.487.478 2.32 1.16 4.912 3.343 5.867 1.16.478 2.525.478 3.48 1.16 1.91 1.228 1.501 3.957 2.319 6.004Z" fill="#EAC1A4"/><path d="m582.435 159.254-1.023-9.415c-.137-1.16-.273-2.388.136-3.48.614-1.842 2.456-3.001 4.367-3.479 1.842-.478 3.82-.546 5.73-.955 2.047-.478 4.026-1.365 6.072-1.296 3.957.136 6.959 3.82 10.848 4.434 5.39.819 10.37-1.637 13.645 4.708.614 1.159.75 2.524 1.296 3.684.682 1.569 1.91 2.797 2.933 4.161 4.299 6.072 2.934 15.351-2.251 20.536-2.524 2.524-3.548 4.775-6.959 5.594 1.569-3.207-.546-16.033-4.844-17.465-1.159-.41-4.571 1.023-5.867 1.228-2.797.409-5.526.887-8.187 1.978-3.957 1.638-8.187 2.797-12.416 3.138-.546.069-1.16.069-1.57-.272-.409-.342-.477-.887-.545-1.433-.478-3.889-.887-7.778-1.365-11.666ZM650.523 426.896l1.228 5.117-9.006 7.504-6.276-3.82 3.889-6.345 8.937-7.573 1.228 5.117Z" fill="#1A3151"/><path d="m629.578 269.162 3.752 15.487-4.571 72.044 21.9 68.428-9.619 4.435-43.732-78.935-5.253-25.243-2.729-53.419 40.252-2.797Z" fill="#145566"/><path d="m569.198 275.371-.614 66.928 12.758 86.303h9.688l6.003-79.686 13.099-79.617-40.934 6.072Z" fill="#145566"/><path d="m590.963 427.441.068 5.253-10.506 5.253-5.254-5.253 5.254-5.253h10.438Z" fill="#1A3151"/><path d="M641.176 288.061c.136 6.072 0 14.327-2.388 14.668-.409.068-.887-.137-1.228-.341-4.093-2.183-6.959-5.322-10.916-7.437-4.161-2.251-9.005-3.411-13.713-4.23a131.835 131.835 0 0 0-21.354-2.183c-5.662-.068-11.256.41-16.919.887-4.639.41-9.006 1.774-13.781 1.501-4.844-.341-9.688-1.842-13.85-4.366-.136-.068-.341-.205-.409-.341-.068-.205 0-.41.068-.546 1.024-2.729 1.706-5.458 3.48-7.709 2.046-2.525 3.411-5.731 4.912-8.597 3.002-6.003 5.867-12.28 7.982-18.625 3.206-8.664 6.822-17.124 9.961-25.788 2.115-6.004 4.093-12.144 7.027-17.875 2.251-4.502 6.344-10.984 11.257-12.962 1.637-.682 3.479-.751 5.253-.819 5.458-.136 10.847-.341 16.305-.477 1.979-.069 4.025-.137 5.867.682 2.729 1.228 4.23 4.025 5.595 6.686 6.003 11.871 9.824 24.628 12.007 37.864 1.16 6.89 2.183 13.781 3.002 20.74.887 7.709 1.569 15.487 1.706 23.264-.069.682.068 3.138.136 6.004Z" fill="#3ABABA"/><path d="m577.659 215.333-31.042-25.243 7.709-53.419 11.871-.068-1.705 46.323 27.426 13.304-14.259 19.103Z" fill="#3ABABA"/><path d="m590.355 253.278-9.726-2.147-33.256 150.696 9.726 2.146 33.256-150.695Z" fill="#1A3151"/><path d="m534.337 359.694-6.277 28.518c-5.935 27.016 17.739 43.868 17.739 43.868s28.585-5.322 34.589-32.338l6.276-28.518-52.327-11.53ZM583.663 260.566l-1.364-.956c-.819-.614-20.126-14.599-15.078-37.523l.887-3.888 47.552 10.506-.887 3.889c-5.048 22.923-28.449 27.494-29.472 27.699l-1.638.273Zm-9.21-32.816c-.818 12.485 7.709 21.286 11.121 24.219 4.366-1.228 15.759-5.526 20.262-17.26l-31.383-6.959Z" fill="#DBDBDB"/><path d="m590.396 253.284-9.726-2.146-4.411 19.986 9.727 2.146 4.41-19.986Z" fill="#DBDBDB"/><path d="m604.066 248.626-4.434 1.774-3.821-1.774-.818.682.75.955-3.616-.477-2.456 1.5-.341 3.889 2.32 3.411 3.888-.136 3.957-2.456 6.141-2.183-1.57-5.185Z" fill="#EAC1A4"/><path d="m598.949 247.466 24.765-15.759-5.048-38.41 26.198 20.467-4.025 33.975-38.547 8.392-3.343-8.665Z" fill="#3ABABA"/></g><defs><clipPath id="clip0_653_4987"><path fill="#fff" d="M0 0h737.263v498H0z"/></clipPath></defs></svg>