<svg width="319" height="217" fill="none" xmlns="http://www.w3.org/2000/svg"><g clip-path="url('#clip0_691_5494')"><path d="M307.415 216.994c-6.619 0-43.116.013-88.877 0-11.809 0-24.252 0-36.944-.012h-6.73c-9.09 0-18.28-.012-27.444-.012h-7.389l-43.637-.038c-54.603-.062-70.672-.509-70.672-.534-.112-.261-50.194-25.806-10.295-79.259 20.068-26.912-2.794-56.174 14.319-81.831 24.203-36.31 64.276-15.016 91.769-26.527 4.856-2.026 9.736-5.296 14.617-10.318 2.744-2.822 5.762-5.283 8.978-7.42a59.036 59.036 0 0 1 7.488-4.19 60.801 60.801 0 0 1 4.235-1.803 73.344 73.344 0 0 1 7.016-2.274A78.127 78.127 0 0 1 174.305.737a82.612 82.612 0 0 1 4.706-.472c30.723-2.3 65.282 10.628 83.127 29.523 3.589 3.803 19.919 23.494 7.054 50.543-8.134 17.08 25.929 33.401 38.024 52.905 30.76 49.599.472 83.112.199 83.758Z" fill="#D9E3F6"/><path d="M156.964 17.875c47.913-15.012 71.498-3.656 71.498-3.656l1.782 34.84s-23.555-11.355-71.498 3.657c-47.942 15.013-69.3 3.538-69.3 3.538l-1.782-34.841s21.357 11.445 69.3-3.538Z" fill="#fff"/><path d="m114.577 52.42-5.05-14.449 1.842-.089 2.436 7.105c.683 1.962 1.247 3.716 1.693 5.41h.03c.297-1.723.742-3.596 1.217-5.529l1.842-7.372 1.812-.09-3.951 14.924-1.871.09ZM133.528 42.639c.772 4.994-1.545 8.056-4.872 8.591-3.446.535-6.327-2.051-7.01-6.451-.713-4.608 1.396-8.027 4.871-8.562 3.565-.564 6.357 2.14 7.011 6.422Zm-10.1 1.813c.475 3.092 2.406 5.648 5.08 5.232 2.673-.416 3.772-3.389 3.237-6.689-.445-2.883-2.257-5.678-5.079-5.261-2.763.445-3.713 3.537-3.238 6.718ZM134.18 35.088l1.663-.387 2.971 12.754 5.495-1.279.356 1.546-7.158 1.665-3.327-14.3ZM143.834 32.74l2.436 8.353c.921 3.151 2.585 4.132 4.278 3.627 1.871-.565 2.673-2.29 1.782-5.41l-2.436-8.354 1.664-.476 2.406 8.205c1.277 4.34-.268 6.718-3.001 7.521-2.584.773-5.02-.327-6.297-4.697l-2.436-8.294 1.604-.476ZM158.421 43.62l-3.773-14.18 1.812-.476 6.001 6.094a37.117 37.117 0 0 1 3.505 4.013l.029-.03c-.653-1.843-1.158-3.567-1.752-5.796l-1.574-5.946 1.544-.416 3.773 14.18-1.664.446-5.97-6.124c-1.307-1.338-2.585-2.735-3.654-4.102l-.059.03a104.66 104.66 0 0 1 1.693 5.826l1.604 6.064-1.515.417ZM170.602 27.18l-3.951.803-.327-1.576 9.595-1.932.326 1.576-3.95.802 2.554 12.813-1.693.327-2.554-12.813ZM185.897 30.926l-5.08.714.713 5.232 5.674-.773.208 1.575-7.367 1.011-1.99-14.537 7.069-.981.208 1.576-5.376.743.624 4.608 5.079-.714.238 1.546ZM195.729 30.153l-5.109.357.356 5.291 5.704-.386.118 1.575-7.396.506-.98-14.656 7.129-.476.119 1.576-5.406.357.297 4.637 5.109-.357.059 1.576ZM198.935 22.453c.862-.178 2.109-.267 3.268-.237 1.812.03 3 .416 3.802 1.278.653.654 1.01 1.665.98 2.794-.03 1.933-1.158 3.21-2.554 3.716v.06c1.01.416 1.604 1.456 1.871 3.002.386 2.051.683 3.478.95 4.043l-1.752-.03c-.208-.416-.475-1.694-.832-3.537-.356-2.022-1.039-2.795-2.584-2.913l-1.604-.03-.119 6.362-1.693-.03.267-14.478Zm1.604 6.719 1.753.03c1.812.03 3-1.07 3.03-2.735.029-1.903-1.188-2.735-3-2.795-.832 0-1.426.06-1.694.149l-.089 5.35Z" fill="#1A3151"/><path d="M73.317 13.684c-5.05 1.278-10.337 6.034-10.367 10.761-2.911-3.686-11.347-3.686-16.13-1.576-12.624 5.53-12.03 21.523-3.178 29.372 4.753 4.221 10.604 7.343 16.664 9.87 5.08 2.11 17.615 5.975 17.644 5.945.03 0 7.545-10.761 10.248-15.518 3.238-5.708 5.912-11.772 7.07-18.015 2.139-11.713-8.614-24.258-21.951-20.84Z" fill="#EAC5B0"/><path d="M217.262 81.226s-14.941 7.313-19.456 4.578c-.564-.357-13.901-5.618-13.901-5.618l-2.733 3.061 15.298 10.465 5.079.862 12.862-3.686 2.851-9.662ZM227.181 82.534s8.644 14.24 13.902 14.358c.653.03 14.733 2.765 14.733 2.765l.654 4.073-18.536.535-4.752-2.022-8.823-10.048 2.822-9.661Z" fill="#9EA6AD"/><path d="M225.284 81.464c.06.03.119.06.179.06 3.029 1.159 5.406 6.45 6.772 9.572 3.535 8.026 5.079 16.38 5.377 25.239.148 4.786.118 9.542-.03 14.329-.03 1.308-1.159 13.139-.565 13.407-6-2.884-12.089-5.619-18.476-7.254-6.386-1.635-13.099-2.17-19.545-.654 1.931-15.012 4.753-30.263 8.822-44.77.476-1.724.802-3.567 1.545-5.232.832-1.903 2.079-2.468 3.683-3.568.535-.386 1.099-.773 1.693-1.04 3.119-1.367 7.367-1.249 10.545-.09Z" fill="#9EA6AD"/><path d="m234.612 128.642-6.832 27.944-.119 20.572-3.327.713-1.337-19.115-3.356-35.049 14.971 4.935Z" fill="#DEC9AD"/><path d="m224.307 178.466-.565 2.081.505 4.103h2.703l.98-5.916-.297-1.011-3.326.743Z" fill="#1A3151"/><path d="m208.353 125.61-.564 24.139 3.297 34.038 3.297.238 1.129-31.214 6.654-28.331-13.813 1.13Z" fill="#DEC9AD"/><path d="m211.176 183.222-4.426 2.379.356 2.081 7.842-.981-.386-3.003-3.386-.476Z" fill="#1A3151"/><path d="m207.401 128.731-2.198 27.885 2.317 19.085 8.911-.505 1.575-21.731 3.802-23.693-.594-3.687-12.862.208-.951 2.438Z" fill="#A0A1A3"/><path d="m220.976 154.536 1.07 20.007 7.752-.417-.178-18.966 4.842-23.812-1.129-6.659-13.04.862.683 28.985Z" fill="#A0A1A3"/><path d="M202.828 129.237c7.991 1.219 21.268 2.111 29.259 3.33.416-14.448-1.04-31.126-4.545-45.098-.624-2.527-1.574-5.262-3.802-6.57-2.376-1.367-7.396-1.189-8.852 1.516-2.109 3.925-2.525 10.197-3.446 14.567-2.138 9.9-7.307 22.207-8.614 32.255Z" fill="#fff"/><path d="M215.216 69.692c2.109-5.618 9.208-3.36 10.456 1.695.832 3.33-1.842 7.61-5.198 8.442.059.833.089 1.665.089 2.498-.891-.09-1.812-.179-2.703-.268-.268-.03-.594-.09-.743-.327-.089-.149-.059-.327-.03-.505.06-.565.119-1.13.208-1.695l-.178-.089c-1.604-.862-2.554-2.616-2.762-4.43-.208-1.813.208-3.626.861-5.32Z" fill="#EAC1A4"/><path d="M215.693 71.417c-1.189 1.605-.981 3.805-.743 5.707.178 1.695.119 2.735-1.753 2.557-1.039-.09-2.911-.268-3.505-1.278-.445-.773.476-2.379 1.01-2.973.416-.446 1.129-.506 1.545-.951.178-.179.267-.417.356-.654.327-.981.535-1.992.565-3.003.029-.684-.03-1.397.148-2.08.238-.982 1.278-1.874 1.931-2.617 1.188-1.397 4.218-2.824 5.733-.921.327.445.445 1.01.475 1.575.03.327.06.684-.059.981-.416 1.249-1.604 1.1-2.614 1.427-1.218.327-2.317 1.19-3.089 2.23Z" fill="#1A3151"/><path d="M224.66 74.716c-.237.922-1.01 1.754-.772 2.646.119.416.416.714.624 1.07.624.952.653 2.26.148 3.27 1.812.535 3.595 1.04 5.406 1.576.268.09.565.149.832.09.594-.12.832-.803 1.01-1.398.327-1.16.624-2.378.208-3.508-.178-.505-.535-.981-.713-1.486-.891-2.498 1.782-5.44.446-7.73-.594-1.01-1.812-1.486-2.703-2.259-1.545-1.338-2.109-3.627-3.773-4.875-3.089-2.349-7.901.773-6.861 4.607.831 3.122 7.069 4.34 6.148 7.997Z" fill="#1A3151"/><path d="M225.075 81.91s2.614 35.852-2.941 42.956c-5.555 7.076-7.931 9.751-7.931 9.751l22.813 9.483c0-.029-.594-52.32-11.941-62.19Z" fill="#9EA6AD"/><path d="M123.546 80.81s-13.486 9.75-18.387 7.817c-.624-.237-14.645-3.18-14.645-3.18l-2.198 3.478 16.843 7.7h5.168l12.03-5.798 1.189-10.018Z" fill="#fff"/><path d="M84.215 68.204s2.079 1.04 2.435 6.51c.357 5.47 1.634 8.83 1.634 8.83s-1.634 1.248-3.149.713c-1.514-.535-2.05-.594-2.02-2.854 0-2.259-1.306-12.753-1.306-12.753l2.406-.446Z" fill="#1A3151"/><path d="M80.266 71c2.138.088 4.128 1.604 4.812 3.626a4.979 4.979 0 0 0 .534-4.43c-.534-1.456-1.812-2.586-3.297-2.972a5.608 5.608 0 0 0-1.9 3.775h-.15Z" fill="#1A3151"/><path d="m77.708 83.96-13.693.268-4.813-22.147-4.514.624v27.112l8.05 3.894 14.733 2.081.237-11.832Z" fill="#EBB044"/><path d="m71.562 182.3-.238 1.962 3.476 2.497 2.109-1.664-1.604-2.23-3.506-2.497-.237 1.932Z" fill="#1A3151"/><path d="m72.956 122.666-.742 5.886 4.871 20.483-5.644 32.611 3.595 1.338 10.277-31.749 1.693-9.246.387-19.68-14.437.357Z" fill="#DBDBDB"/><path d="m100.669 129.86-8.792 54.67-3.475-.089.148-35.139-5.792-24.823 17.911 5.381Z" fill="#DBDBDB"/><path d="m88.432 183.995-.03 1.992 3.684 2.051 1.93-1.932-1.841-2.021-3.743-.09Z" fill="#1A3151"/><path d="M70.849 123.796c3-17.569 2.346-30.441 2.554-33.95.208-3.537 2.674-5.29 2.674-5.29 1.069-.209 1.99-.893 3.089-1.16 7.277-1.695 11.11 4.043 13.664 10.196a175.087 175.087 0 0 1 7.901 23.426c1.842 7.016 3.683 14.091 4.367 21.315.267 3.003.505 5.827-2.703 7.075-5.11 1.992-10.813 1.814-16.19 2.378-6.178.625-12.356 1.071-18.564 1.19-3.238.089.208-7.581 3.208-25.18Z" fill="#EBB044"/><path d="m56.265 62.526-2.644-2.764 1.04-4.757 2.614.06.683 4.162 1.307.832-.06 2.022-2.94.445Z" fill="#EAC1A4"/><path d="m82.672 83.127 6.92 1.368 13.873 14.031 16.486-.267.802 5.113-19.308 2.973-15.654-10.524-3.12-12.694Z" fill="#EBB044"/><path d="m84.366 83.515.891 18.788-9.238-18.045 2.822-.921 2.02-.565 3.505.743Z" fill="#fff"/><path d="m120.098 99.537 3.089-1.813 3.861 1.04-.059 2.111-6.505 1.07-.386-2.407ZM84.959 72.753c-2.287-5.262-8.912-2.765-9.862 2.14-.535 2.795.832 7.67 4.159 7.789.148.475.415 1.367.861 1.605.475.268 1.663-.357 2.139-.594.118-.06.267-.149.356-.268.09-.148.03-.505-.03-.862a5.615 5.615 0 0 0 1.07-.476c1.485-.892 2.287-2.616 2.406-4.34.089-1.694-.416-3.419-1.1-4.994Z" fill="#EAC1A4"/><path d="M82.196 67.223s1.337 2.825-2.287 4.519c-3.624 1.694-5.407 5.232-4.04 8.205 1.366 3.002 4.693 4.667 3.386 5.827-1.307 1.159-6.95 1.575-6.95 1.575s-5.793-10.345-2.407-16.142c3.357-5.797 9.773-7.402 12.298-3.984Z" fill="#1A3151"/><path d="M249.789 34.522s-5.911 6.778-8.406 25.507l4.901.832s1.129-16.528 5.971-25.21l-2.466-1.129Z" fill="#145566"/><path d="M278.754 10.74s-17.08.297-24.566 6.927c-7.485 6.63-4.158 18.431-4.158 18.431s11.317 4.786 18.802-1.813c7.516-6.63 9.922-23.545 9.922-23.545Z" fill="#C8D6A1"/><path d="M250.031 36.098s.653.268 1.752.595l16.308-16.559-18.446 14.15c.207 1.13.386 1.814.386 1.814Z" fill="#145566"/><path d="M223.68 17.578s.326 15.25 6.238 21.91c5.94 6.688 16.456 3.656 16.456 3.656s4.247-10.108-1.693-16.796c-5.912-6.69-21.001-8.77-21.001-8.77Z" fill="#C8D6A1"/><path d="M246.405 43.144s.238-.595.535-1.546L232.117 27.09l12.684 16.41c.98-.209 1.604-.357 1.604-.357Z" fill="#145566"/><path d="M250.027 36.098s18.506-.238 25.813-13.764c0 0-5.346 22.177-25.813 13.764Z" fill="#B8C48A"/><path d="m196.558 182.925.297 2.378-4.426 2.973-2.644-2.051 2.05-2.676 4.396-2.973.327 2.349Z" fill="#132235"/><path d="m196.705 182.152-3.476-30.144 4.04-33.741-.951-7.195-18.297-.654-.654 11.684 3.149 29.965 11.614 31.631 4.575-1.546Z" fill="#1A3151"/><path d="M164.598 113.838v30.411l6.178 39.122 4.426-.029 2.347-36.209 5.584-36.268-18.535 2.973Z" fill="#1A3151"/><path d="m175.172 185.185-4.723 2.438-2.406-2.349 2.347-2.408 4.752-.059.03 2.378Z" fill="#132235"/><path d="M199.172 124.093c-.03-1.308-.119-2.408-.119-2.824-.089-3.537-.416-7.075-.861-10.583-.416-3.151-.921-10.94-1.456-14.091-.446-2.586-2.02-9.008-3.119-11.416-2.792-5.945-1.931-6.51-14.139-8.234-5.347-.773-6.624 2.586-10.991 6.421-.445.386-.416 2.646-.505 3.24-.178 1.04-.356 2.111-.564 3.151a73.026 73.026 0 0 1-.564 2.468s-3.654 16.737-6.06 20.304c-2.436 3.568-7.426 8.532.98 11.564 1.485.476 3 .922 4.545 1.189 0 0 6.862-.772 10.396-.743 3.268.03 6.506.327 9.714.892 2.138.357 4.336.862 6.238 1.873 1.841.951 3.148 2.348 4.99 3.329.178.09.356.179.564.149 1.01-.149 1.04-3.894.951-6.689Z" fill="#145566"/><path d="M179.419 78.669c.623.297 2.079.416 3.594-.178a.81.81 0 0 0 .505-.744c0-.921-.089-1.843-.238-2.764 1.129-.417 2.466-1.011 2.644-2.2.059-.387 0-.773-.06-1.13l-.802-4.638c-.089-.535-.178-1.1-.475-1.545-.505-.803-1.515-1.16-2.436-1.308-2.406-.417-5.02.118-6.861 1.694-.505.416-.951.922-1.159 1.546-.326.951-.089 1.992.178 2.943l.713 2.676c.268 1.01.654 2.2 1.664 2.586.534.208 1.158.148 1.634.446.772.475.653 1.724 1.099 2.616Z" fill="#EAC1A4"/><path d="M165.548 63.24a10.271 10.271 0 0 0-.773-1.1c-.623-.743-1.366-1.397-1.871-2.26-.505-.832-.683-1.991-.089-2.764.386-.505 1.01-.743 1.604-.922a11.665 11.665 0 0 1 6.149-.118c1.931.475 3.624 1.278 5.554.564 1.812-.683 3.119-.416 5.02.268 2.05.713 4.813.892 6.654 1.932.773.416 1.396 1.1 1.872 1.843 1.663 2.587 1.693 6.124.029 8.74-.356.595-.802 1.1-1.277 1.635-.951 1.041-2.109 2.349-3.446 2.735-.029-1.189 1.04-4.934.119-5.915-1.455-1.546-4.723-1.011-6.535-.625-1.96.416-3.713 1.814-5.644 2.111-1.396.208-3.178-.476-4.366-1.19-1.456-.92-2.139-3.537-3-4.934Z" fill="#1A3151"/><path d="m140.21 84.496-3.772-2.438.95-1.665 2.97 1.1.09-1.01 3 2.467-.773 1.873-2.465-.327Z" fill="#AA6755"/><path d="m175.648 77.54-19.724 8.145-12.476-2.735-1.218 2.408 11.377 8.353 15.684-1.902 6.357-14.27Z" fill="#145566"/><path d="m203.125 46.89-.327-4.965-2.109.06-.535 3.448-1.009-.446.802 4.192 2.198.238.98-2.527Z" fill="#EAC1A4"/><path d="m184.172 80.245 10.812-14.389 4.961-16.677 2.941.09.029 19.293-10.218 20.393-8.525-8.71Z" fill="#145566"/><path d="m120.843 185.065-.089 2.081 4.04 2.26 2.168-1.962-1.96-2.171-4.04-2.259-.119 2.051Z" fill="#DBDBDB"/><path d="m117.456 122.309-.327 6.273 7.04 27.647-3.505 28.182 4.069 1.011 11.199-33.86.178-10.167-2.822-20.929-15.832 1.843Z" fill="#145566"/><path d="m148.319 121.656 3.179 26.249-1.248 34.425-3.802.416-5.822-31.006-8.614-30.709 16.307.625Z" fill="#145566"/><path d="m146.626 184.352 4.337 1.605 1.841-2.289-2.287-1.814-4.099.446.208 2.052Z" fill="#DBDBDB"/><path d="M149.836 117.286c-3.921-7.967-5.525-16.737-7.575-25.358-.623-2.527-1.247-5.143-2.673-7.343-1.634-2.527-3.861-3.656-6.357-4.073-3.148-.535-6.713.03-9.861.298-1.901 5.975-3.149 2.586-5.407 8.472-.475 1.219-1.752 11.743-2.257 12.962 0 0-5.139 16.201-3.446 28.984.03.119.03.238.06.387.326.059.653.119.95.178 4.456.892 9.001 1.368 13.545 1.308 4.04-.059 8.08-.565 12.001-1.546 5.376-1.337 11.733-.802 16.129-4.37-1.307-2.586-3.802-7.283-5.109-9.899Z" fill="#fff"/><path d="m152.061 57.355-.149-4.49h-1.931l-.564 3.092-.921-.416.624 3.835 1.99.268.951-2.29Z" fill="#AA6755"/><path d="m133.676 80.216 11.466-8.71 3.98-12.13 2.673.149 1.426 14.061-12.238 17.45-7.307-10.82Z" fill="#fff"/><path d="M120.842 70.495c1.604-5.084 8.941-6.927 10.753-1.1.535 1.754.862 3.627.535 5.44-.327 1.813-1.396 3.567-3.089 4.31h-.03c.059.476.149.922.208 1.398.03.089.03.208-.03.297-.059.09-.178.119-.297.149-.564.089-1.129.178-1.663.267-.268.06-.565.09-.832 0-.594-.178-.832-.862-.861-1.486v-.446c-3.327-1.07-5.733-5.53-4.694-8.83Z" fill="#AA6755"/><path d="M130.972 62.14c1.367-.059 2.376 1.339 3.565 2.141.98.654 2.138.922 3.148 1.516 1.01.565 1.99 1.665 1.901 2.884 1.129-.476 2.377-.921 3.565-.594 1.188.356 2.168 1.902 1.574 3.061-.534 1.041-1.96 1.16-2.525 2.17-.891 1.606.862 4.37-.623 5.352-.357.237-.802.267-1.159.505-.416.297-.624.862-.832 1.368-1.039 2.289-3.534 3.597-5.851 3.061-1.396-.832-2.406-2.348-2.793-4.013-.445-1.991.654-2.586 1.01-4.4.387-1.991-.059-4.161-1.158-5.826-.713-1.1-1.812-2.081-3.03-2.29-.505-.088-.386.328-.921-.088-.237-.179-.505-.862-.534-1.16 1.485-.98 2.881-3.597 4.663-3.686Z" fill="#1A3151"/><path d="M116.505 63.27c-.713.12-1.456.03-2.139.268-1.04.327-1.069 1.368-1.426 2.26-.416.95-.98 2.259-1.723 2.972-.534.505-1.218.773-1.812 1.13-.623.386-1.188.951-1.247 1.724-.06.743.386 1.427.386 2.17-.03 1.1-.267 1.635-.03 2.795.119.594.268 1.219.654 1.664.505.565 1.336.625 2.049.595.713-.06 1.486-.178 2.139.119 1.485.654 1.04 2.17 1.337 3.508.416 2.021 2.584 3.389 4.396 2.854 1.545-.446 2.555-2.081 2.644-3.776.059-.862-.208-1.665-.149-2.527.06-.832.624-1.902-.059-2.616-.179-.178-.386-.267-.535-.475-.119-.149-.178-.357-.208-.565-.089-.684.119-1.427.564-1.903.327-.356.743-.565.981-1.01.237-.506.148-1.1.178-1.695.059-1.368.921-2.646 2.109-3.092.772-.267 1.485-.416 2.198-.892.119-.06 1.723-1.248 1.753-.95-.03-.506-.268-.982-.535-1.398-.416-.714-.891-1.397-1.545-1.843-2.079-1.487-2.465 1.456-4.188.921-.416-.148-.713-.565-1.069-.832-.684-.505-1.604-.446-2.377-.178-.831.208-1.544.624-2.346.773Z" fill="#1A3151"/><path d="m99.754 153.881 43.962 16.975 48.151-16.083-40.873-15.815-51.24 14.923Z" fill="#1A6F82"/><path d="M178.707 156.506c.019-10.097-8.145-18.298-18.234-18.317-10.089-.019-18.283 8.151-18.302 18.248-.019 10.098 8.145 18.298 18.234 18.317 10.089.019 18.283-8.151 18.302-18.248Z" fill="#fff"/><mask id="mask0_691_5494" style="mask-type:luminance" maskUnits="userSpaceOnUse" x="142" y="138" width="37" height="37"><path d="M178.707 156.506c.019-10.097-8.145-18.298-18.234-18.317-10.089-.019-18.283 8.151-18.302 18.248-.019 10.098 8.145 18.298 18.234 18.317 10.089.019 18.283-8.151 18.302-18.248Z" fill="#fff"/></mask><g mask="url('#mask0_691_5494')" fill="#5C5955"><path d="m172.288 145.498.416-.327c-.09-.119-2.169-2.854-6.268-4.429l-.178.505c3.98 1.516 6.03 4.221 6.03 4.251ZM148.467 145.438c.029-.029 2.079-2.735 6.03-4.251l-.179-.505c-4.099 1.576-6.178 4.31-6.267 4.4l.416.356ZM173.806 166.248c1.247-1.338 2.227-3.448 2.94-6.302.505-2.111.684-3.865.684-3.865l-.535-.059c0 .059-.624 6.837-3.446 9.869l.357.357ZM146.951 166.189l.386-.357c-2.822-3.032-3.416-9.81-3.416-9.87l-.534.03c0 .03.148 1.754.653 3.894.713 2.854 1.693 4.965 2.911 6.303ZM160.05 173.293c2.376 0 4.248-.446 4.366-.475l-.118-.506c-.03 0-4.278 1.011-8.021 0l-.148.506a16.8 16.8 0 0 0 3.921.475Z"/></g><mask id="mask1_691_5494" style="mask-type:luminance" maskUnits="userSpaceOnUse" x="142" y="138" width="37" height="37"><path d="M178.707 156.506c.019-10.097-8.145-18.298-18.234-18.317-10.089-.019-18.283 8.151-18.302 18.248-.019 10.098 8.145 18.298 18.234 18.317 10.089.019 18.283-8.151 18.302-18.248Z" fill="#fff"/></mask><g mask="url('#mask1_691_5494')"><path d="m160.437 149.629 6.208 4.519-2.406 7.313h-7.663l-2.377-7.313 6.238-4.519Z" fill="#1A3151"/></g><mask id="mask2_691_5494" style="mask-type:luminance" maskUnits="userSpaceOnUse" x="142" y="138" width="37" height="37"><path d="M178.707 156.506c.019-10.097-8.145-18.298-18.234-18.317-10.089-.019-18.283 8.151-18.302 18.248-.019 10.098 8.145 18.298 18.234 18.317 10.089.019 18.283-8.151 18.302-18.248Z" fill="#fff"/></mask><g mask="url('#mask2_691_5494')"><path d="m160.439 145.676-6.209-4.519 2.407-7.313 7.663.03 2.347 7.313-6.208 4.489Z" fill="#1A3151"/></g><mask id="mask3_691_5494" style="mask-type:luminance" maskUnits="userSpaceOnUse" x="142" y="138" width="37" height="37"><path d="M178.707 156.506c.019-10.097-8.145-18.298-18.234-18.317-10.089-.019-18.283 8.151-18.302 18.248-.019 10.098 8.145 18.298 18.234 18.317 10.089.019 18.283-8.151 18.302-18.248Z" fill="#fff"/></mask><g mask="url('#mask3_691_5494')" fill="#1A3151"><path d="m166.23 165.415 7.663.119 2.287 7.343-6.297 4.43-6.149-4.608 2.496-7.284Z"/><path d="m163.588 159.545-.479.239 3.667 7.371.478-.238-3.666-7.372Z"/></g><mask id="mask4_691_5494" style="mask-type:luminance" maskUnits="userSpaceOnUse" x="142" y="138" width="37" height="37"><path d="M178.707 156.506c.019-10.097-8.145-18.298-18.234-18.317-10.089-.019-18.283 8.151-18.302 18.248-.019 10.098 8.145 18.298 18.234 18.317 10.089.019 18.283-8.151 18.302-18.248Z" fill="#fff"/></mask><g mask="url('#mask4_691_5494')" fill="#1A3151"><path d="m170.473 152.602 1.752-7.491 7.664-.624 2.97 7.075-5.822 5.024-6.564-3.984Z"/><path d="m172.443 151.436-7.548 3.277.212.491 7.549-3.278-.213-.49Z"/></g><mask id="mask5_691_5494" style="mask-type:luminance" maskUnits="userSpaceOnUse" x="142" y="138" width="37" height="37"><path d="M178.707 156.506c.019-10.097-8.145-18.298-18.234-18.317-10.089-.019-18.283 8.151-18.302 18.248-.019 10.098 8.145 18.298 18.234 18.317 10.089.019 18.283-8.151 18.302-18.248Z" fill="#fff"/></mask><g mask="url('#mask5_691_5494')" fill="#1A3151"><path d="m154.555 165.504-7.694.06-2.287 7.342 6.238 4.46 6.179-4.579-2.436-7.283Z"/><path d="m157.201 159.628-3.693 7.358.478.241 3.693-7.359-.478-.24Z"/></g><mask id="mask6_691_5494" style="mask-type:luminance" maskUnits="userSpaceOnUse" x="142" y="138" width="37" height="37"><path d="M178.707 156.506c.019-10.097-8.145-18.298-18.234-18.317-10.089-.019-18.283 8.151-18.302 18.248-.019 10.098 8.145 18.298 18.234 18.317 10.089.019 18.283-8.151 18.302-18.248Z" fill="#fff"/></mask><g mask="url('#mask6_691_5494')" fill="#1A3151"><path d="m150.276 152.603-1.842-7.462-7.664-.535-2.911 7.105 5.882 4.964 6.535-4.072Z"/><path d="m148.293 151.469-.207.493 7.584 3.194.207-.493-7.584-3.194Z"/></g><mask id="mask7_691_5494" style="mask-type:luminance" maskUnits="userSpaceOnUse" x="142" y="138" width="37" height="37"><path d="M178.707 156.506c.019-10.097-8.145-18.298-18.234-18.317-10.089-.019-18.283 8.151-18.302 18.248-.019 10.098 8.145 18.298 18.234 18.317 10.089.019 18.283-8.151 18.302-18.248Z" fill="#fff"/></mask><g mask="url('#mask7_691_5494')"><path d="m160.184 141.837-.016 8.68.535.001.016-8.68-.535-.001Z" fill="#1A3151"/></g><path d="m143.628 207.302-43.933-22.266.06-31.185 43.932 16.975-.059 36.476Z" fill="#1A6F82"/><path d="m143.625 207.302 48.18-21.196.06-31.333-48.181 16.053-.059 36.476Z" fill="#145566"/><path d="M139.851 146.063a4.078 4.078 0 0 0-2.644 5.173c.683 2.17 3 3.359 5.169 2.645l5.673-1.813a4.078 4.078 0 0 0 2.644-5.173 4.072 4.072 0 0 0-5.169-2.645l-5.673 1.813ZM145.849 159.321c-2.436-1.248-5.436-.297-6.683 2.141-1.248 2.438-.297 5.44 2.138 6.689l6.417 3.299c2.435 1.249 5.435.298 6.683-2.14 1.248-2.438.297-5.44-2.139-6.689l-6.416-3.3Z" fill="#3ABABA"/><path d="M124.881 166.04c1.247-2.438 4.248-3.389 6.683-2.14 2.436 1.248 3.387 4.251 2.139 6.688l-3.297 6.422c-1.248 2.437-4.248 3.389-6.684 2.14-2.435-1.249-3.386-4.251-2.138-6.689l3.297-6.421Z" fill="#B5D6CA"/><path d="M116.062 153.703a4.076 4.076 0 0 0-2.644 5.172c.683 2.17 3 3.36 5.168 2.646l5.674-1.813a4.078 4.078 0 0 0 2.644-5.173 4.074 4.074 0 0 0-5.169-2.646l-5.673 1.814Z" fill="#3ABABA"/><path d="M124.139 164.999c1.931 6.006 8.347 9.305 14.318 7.403 6-1.933 9.297-8.354 7.396-14.329l-1.277-3.984c-1.931-6.005-8.347-9.305-14.318-7.402-6 1.932-9.297 8.354-7.396 14.329l1.277 3.983Z" fill="#3ABABA"/><path d="M131.993 152.113c6.469-2.071 10.035-8.999 7.966-15.473s-8.991-10.044-15.46-7.973c-6.47 2.071-10.036 8.999-7.967 15.473 2.07 6.474 8.992 10.044 15.461 7.973Z" fill="#3ABABA"/><path d="M128.477 141.099a12.234 12.234 0 0 1 11.704 2.348c-1.01 3.984-3.981 7.373-8.169 8.71a12.232 12.232 0 0 1-11.703-2.348c1.01-3.984 3.98-7.373 8.168-8.71Z" fill="#F4F1EF"/><path d="M137.485 135.805a5.768 5.768 0 0 0-3.512-10.986 5.769 5.769 0 0 0-3.733 7.25 5.762 5.762 0 0 0 7.245 3.736ZM118.067 142.048a5.768 5.768 0 0 0-3.512-10.986 5.768 5.768 0 0 0-3.733 7.25 5.762 5.762 0 0 0 7.245 3.736Z" fill="#3ABABA"/><path d="M133.738 137.976a1.25 1.25 0 1 0-.763-2.379 1.25 1.25 0 0 0 .763 2.379ZM122.39 141.611a1.25 1.25 0 0 0-.76-2.378 1.247 1.247 0 1 0 .76 2.378ZM126.245 146.271a.7.7 0 0 1 .951-.297 3.817 3.817 0 0 0 2.198.386l-.891-2.824c-1.575-.505-1.872-1.635-1.872-1.635-.178-.565.119-1.249.683-1.427l1.753-.565c.564-.178 1.188.179 1.366.773.03.119.357 1.16-.564 2.408l.921 2.824a3.904 3.904 0 0 0 1.574-1.605.7.7 0 0 1 .951-.297.7.7 0 0 1 .297.951 5.243 5.243 0 0 1-3.06 2.586 5.179 5.179 0 0 1-3.98-.327c-.386-.178-.505-.594-.327-.951Z" fill="#1A3151"/><path d="M136.943 127.81a3.06 3.06 0 0 1 .951 4.251l-5.199-3.27a3.088 3.088 0 0 1 4.248-.981ZM113.861 135.212a3.094 3.094 0 0 1 4.04-1.694l-2.347 5.707c-1.574-.624-2.317-2.437-1.693-4.013Z" fill="#fff"/><path d="m143.688 170.826 8.554 14.715 46.755-18.461-7.189-12.307-48.12 16.053Z" fill="#1A6F82"/><path d="m91.852 163.662 41.734 19.828 10.099-12.664-43.962-16.975-7.871 9.811Z" fill="#145566"/><path d="m242.72 60.891-2.673-2.764 1.04-4.757 2.613.06.684 4.162 1.307.832-.03 2.022-2.941.445ZM262.146 85.477l3.951-.179c.059-1.04.059-2.11-.059-3.15 0 .118 2.109-.982 2.287-1.25.535-.713.594-1.932.802-2.794.475-1.843.921-3.894-.06-5.53-1.009-1.694-3.178-2.259-5.138-2.318-2.466-.06-5.228.654-6.476 2.794-1.129 1.903.297 4.727.713 6.749.208 1.01.505 2.14 1.456 2.556.505.208 1.099.208 1.514.506.832.535.654 1.724 1.01 2.616Z" fill="#EAC1A4"/><path d="m253.591 69.394-.446-4.103c-.059-.505-.118-1.04.06-1.516.267-.802 1.069-1.308 1.901-1.516.802-.208 1.663-.238 2.495-.416.891-.208 1.753-.595 2.644-.565 1.722.06 3.029 1.665 4.723 1.932 2.346.357 4.515-.713 5.94 2.052.268.505.327 1.1.565 1.605.297.684.832 1.219 1.277 1.813 1.871 2.646 1.277 6.69-.98 8.948-1.099 1.1-1.545 2.081-3.03 2.438.683-1.397-.238-6.986-2.109-7.61-.505-.178-1.99.446-2.555.535-1.217.178-2.406.386-3.564.862-1.723.714-3.565 1.219-5.406 1.368-.238.03-.505.03-.683-.12-.179-.148-.208-.386-.238-.624-.208-1.694-.386-3.389-.594-5.083ZM283.232 186.017l.535 2.23-3.921 3.27-2.733-1.665 1.693-2.765 3.892-3.299.534 2.229Z" fill="#1A3151"/><path d="m274.115 117.286 1.634 6.748-1.99 31.393 9.535 29.817-4.188 1.932-19.041-34.395-2.287-10.999-1.188-23.277 17.525-1.219Z" fill="#145566"/><path d="m247.83 119.992-.268 29.163 5.555 37.606h4.218l2.614-34.723 5.703-34.692-17.822 2.646Z" fill="#145566"/><path d="m257.305 186.255.029 2.289-4.574 2.289-2.287-2.289 2.287-2.289h4.545Z" fill="#1A3151"/><path d="M279.167 125.521c.059 2.645 0 6.243-1.04 6.391-.178.03-.386-.059-.535-.148-1.782-.952-3.029-2.319-4.752-3.241-1.812-.981-3.921-1.486-5.971-1.843a57.238 57.238 0 0 0-9.297-.951c-2.466-.03-4.901.178-7.367.386-2.02.179-3.921.773-6 .654a13.55 13.55 0 0 1-6.03-1.902c-.06-.03-.149-.09-.178-.149-.03-.089 0-.178.029-.238.446-1.189.743-2.378 1.515-3.359.891-1.1 1.485-2.497 2.139-3.746 1.307-2.616 2.555-5.351 3.475-8.116 1.396-3.775 2.971-7.461 4.337-11.237.921-2.616 1.782-5.291 3.06-7.788.98-1.962 2.762-4.787 4.901-5.649.713-.297 1.515-.327 2.287-.356 2.376-.06 4.723-.15 7.099-.209.862-.03 1.753-.059 2.555.298 1.188.535 1.842 1.754 2.436 2.913 2.614 5.173 4.277 10.732 5.228 16.499.505 3.003.95 6.005 1.307 9.037.386 3.36.683 6.749.742 10.138-.029.297.03 1.367.06 2.616Z" fill="#3ABABA"/><path d="m251.511 93.83-13.515-11 3.357-23.276 5.168-.03-.742 20.185 11.941 5.797-6.209 8.324Z" fill="#3ABABA"/><path d="m257.04 110.364-4.235-.935-14.48 65.664 4.235.935 14.48-65.664Z" fill="#1A3151"/><path d="m232.649 156.734-2.733 12.427c-2.584 11.772 7.723 19.115 7.723 19.115s12.446-2.319 15.06-14.091l2.733-12.427-22.783-5.024ZM254.122 113.54l-.594-.417c-.356-.267-8.762-6.361-6.564-16.35l.386-1.694 20.704 4.578-.387 1.694c-2.198 9.989-12.386 11.981-12.832 12.07l-.713.119Zm-4.01-14.3c-.356 5.441 3.357 9.276 4.842 10.554 1.901-.535 6.862-2.408 8.822-7.521l-13.664-3.032Z" fill="#DBDBDB"/><path d="m257.055 110.367-4.235-.935-1.92 8.708 4.235.936 1.92-8.709Z" fill="#DBDBDB"/><path d="m263.01 108.337-1.931.773-1.663-.773-.357.297.327.417-1.574-.208-1.07.654-.148 1.694 1.01 1.486 1.693-.059 1.723-1.07 2.673-.951-.683-2.26Z" fill="#EAC1A4"/><path d="m260.781 107.832 10.783-6.867-2.198-16.737 11.406 8.918-1.752 14.805-16.783 3.656-1.456-3.775Z" fill="#3ABABA"/></g><defs><clipPath id="clip0_691_5494"><path fill="#fff" d="M0 0h321v217H0z"/></clipPath></defs></svg>