<svg width="320" height="273" fill="none" xmlns="http://www.w3.org/2000/svg"><g clip-path="url('#clip0_991_7165')"><path d="M164.669 20.684s-37.033-1.602-57.947 31.827C85.809 85.939 70.523 71.245 47.108 96.873c-23.415 25.559-18.551 79.184-15.841 101.052 2.71 21.868 12.159 46.313 12.159 46.313h248.948s25.43-104.743 3.613-143.604c-21.817-38.86-68.994-40.81-81.987-60.38-13.062-19.57-49.331-19.57-49.331-19.57Z" fill="#E5E5EC"/><path d="M5.631 242.775s71.148-5.78 306.201 1.671c5.419.14 20.358 15.531-7.157 20.057-27.514 4.527-50.998 0-90.811 6.408-39.812 6.407-79.763-5.224-117.7-5.224-37.936 0-39.882-1.95-57.808-3.9-28.903-3.134-49.261-15.948-32.725-19.012Z" fill="#DAD7EB"/><path d="M246.933 233.373c-4.03-.557-7.434 9.75-7.434 9.75l-.07-.069c-.625-1.881-1.112-4.248-1.459-6.756.764-.557 4.864-3.691 5.836-5.014 1.112-1.393 1.043-4.875-1.042-5.084-2.015-.209-4.933 8.288-4.933 8.288l-.139-.14c-.208-2.019-.347-4.108-.486-6.058 1.042-1.115 3.474-3.831 4.03-5.154.694-1.671.764-3.413-.765-3.413-1.111 0-2.709 3.413-3.404 5.015-.07-1.602-.07-3.065-.07-4.109.626-1.323 1.876-4.179 2.085-5.572.347-1.88.347-4.805-.973-5.153-1.251-.348-2.71 1.323-3.196 4.387-.348 2.299.764 5.154 1.389 6.407 0 1.045 0 2.438.07 3.97-.695-1.95-2.432-6.477-4.447-7.173-1.181-.348-2.432.905-1.876 3.203.556 2.299 5.698 6.756 5.698 6.756l.833 1.114c.07 1.463.209 2.995.348 4.527-1.251-1.811-3.683-5.014-6.253-6.477-1.737-.975-6.184 1.045-3.613 4.318 2.153 2.786 8.337 4.736 10.144 5.223.278 2.089.625 4.039 1.111 5.711-2.084-2.159-7.017-6.825-10.352-6.198-4.308.835-5.142 5.014-1.32 6.755 3.752 1.741 12.715 1.88 12.715 1.88s5.419-2.437 7.434-4.039c2.154-1.462 4.238-6.337.139-6.895Z" fill="#A7A3D1"/><path d="M8.767 195.07s-1.667 6.756 2.988 17.759c4.655 11.004 22.65 22.982 22.65 22.982s1.112-12.744-5.141-25.698C23.08 197.229 8.767 195.07 8.767 195.07Z" fill="url('#paint0_linear_991_7165')"/><path d="M34.536 200.015s-3.682 3.482-5.28 12.048c-1.598 8.566 4.586 23.121 4.586 23.121s5.767-7.312 7.156-17.689c1.46-10.377-6.462-17.48-6.462-17.48Z" fill="url('#paint1_linear_991_7165')"/><path d="M.563 224.738s2.292 4.527 10.074 8.357c7.782 3.83 23.485 1.88 23.485 1.88s-5.49-7.591-15.078-11.769C9.456 219.027.562 224.738.562 224.738Z" fill="url('#paint2_linear_991_7165')"/><path d="M18.906 242.776h42.939s-.625-5.363-6.045-8.915c-5.42-3.552-11.603 0-11.603 0s-2.988-7.521-13.966-7.521-12.645 8.218-12.645 8.218-10.283-2.438-11.742 8.218h13.062Z" fill="url('#paint3_linear_991_7165')"/><path d="M173.43 244.237h42.938s-.625-5.362-6.044-8.914c-5.42-3.552-11.604 0-11.604 0s-2.987-7.521-13.965-7.521-12.646 8.218-12.646 8.218-10.283-2.438-11.742 8.217h13.063Z" fill="url('#paint4_linear_991_7165')"/><path d="M283.966 235.254s-1.181-5.363-.973-9.332c.278-3.97 4.864-4.527 5.003-7.731.139-3.203-1.042-7.312 2.849-9.541 3.821-2.228.833-4.387 3.196-8.218 2.362-3.83 5.072-2.646 6.462-1.184 1.389 1.463-1.946 8.149-.278 11.631 1.667 3.482-3.683 9.889-3.058 11.282.626 1.462 2.71 4.039 2.432 8.287-.278 4.249-3.335 6.547-3.335 6.547l-12.298-1.741Z" fill="url('#paint5_linear_991_7165')"/><path d="M288.141 233.443s.625-5.432 2.223-9.123c1.598-3.691 6.114-2.647 7.295-5.572 1.182-2.994 1.46-7.243 5.837-8.009 4.377-.835 2.293-3.83 5.767-6.685 3.474-2.856 5.628-.766 6.531 1.044.834 1.811-4.516 7.034-4.169 10.865.347 3.83-6.74 8.078-6.67 9.61.069 1.532 1.181 4.736-.486 8.636-1.668 3.9-5.35 5.014-5.35 5.014l-10.978-5.78Z" fill="url('#paint6_linear_991_7165')"/><path d="M265.14 244.517h42.939s-.625-5.363-6.044-8.915c-5.42-3.551-11.604 0-11.604 0s-2.987-7.521-13.965-7.521-12.646 8.218-12.646 8.218-10.283-2.438-11.742 8.218h13.062Z" fill="url('#paint7_linear_991_7165')"/><path d="M119.858 223.275s1.876.279 6.323 4.597c4.446 4.318 4.307 9.332 4.307 9.332s1.529-10.307 7.087-13.929c0 0 2.988 7.174 0 15.6 0 0 5.003-7.173 14.313-8.635 0 0-.694 8.844-7.851 14.276h-20.844c.069-.069-8.477-8.775-3.335-21.241Z" fill="#A7A3D1"/><path d="M93.73 230.031c-4.03-.557-7.434 9.75-7.434 9.75l-.07-.07c-.625-1.88-1.112-4.248-1.46-6.755.765-.557 4.864-3.691 5.837-5.015 1.112-1.392 1.043-4.875-1.042-5.084-2.015-.208-4.933 8.288-4.933 8.288l-.139-.139c-.209-2.02-.347-4.109-.486-6.059 1.042-1.115 3.474-3.831 4.03-5.154.694-1.671.764-3.412-.765-3.412-1.112 0-2.71 3.412-3.404 5.014-.07-1.602-.07-3.064-.07-4.109.626-1.323 1.876-4.179 2.085-5.571.347-1.881.347-4.806-.973-5.154-1.25-.348-2.71 1.323-3.196 4.388-.348 2.298.764 5.153 1.39 6.407 0 1.044 0 2.437.069 3.969-.695-1.95-2.432-6.476-4.447-7.173-1.181-.348-2.432.905-1.876 3.204.556 2.298 5.697 6.755 5.697 6.755l.834 1.114c.07 1.463.209 2.995.348 4.527-1.251-1.811-3.683-5.014-6.254-6.477-1.737-.975-6.183 1.045-3.613 4.318 2.154 2.786 8.338 4.736 10.145 5.223.278 2.09.625 4.04 1.111 5.711-2.084-2.159-7.017-6.825-10.352-6.198-4.308.836-5.142 5.014-1.32 6.755 3.752 1.741 12.715 1.881 12.715 1.881s5.419-2.438 7.434-4.04c2.154-1.462 4.238-6.337.139-6.894Z" fill="#E7B142"/><path d="M95.813 44.99c0-1.184 10.144-44.641 62.74-44.641 35.366 0 66.98 23.19 66.98 56.48 0 23.191-17.232 37.329-39.813 47.009-7.99 3.552-8.268 10.168-8.268 17.968v13.232h-38.909V109.27c0-10.377.486-18.873 11.047-25.768 14.383-9.193 27.793-9.959 27.793-26.673 0-11.352-8.477-19.36-19.108-19.36-16.953 0-25.221 14.206-27.792 24.305L95.813 44.99Zm89.143 130.441c0 14.903-12.02 26.952-27.097 26.952-14.869 0-26.889-12.049-26.889-26.952 0-15.113 12.02-27.161 26.889-27.161 15.077-.07 27.097 11.979 27.097 27.161Z" fill="url('#paint8_linear_991_7165')"/><path opacity=".47" d="M95.188 52.65c0-1.114 10.491-47.984 59.683-47.984 33.073 0 62.602 21.659 62.602 52.79 0 21.658-16.119 34.89-37.241 43.944-7.504 3.343-7.713 9.471-7.713 16.784v12.396h-36.338v-24.026c0-9.75.417-17.69 10.353-24.097 13.479-8.636 25.985-9.262 25.985-25.002 0-10.585-7.92-18.107-17.856-18.107-15.842 0-24.596 19.5-27.028 28.972L95.187 52.65Zm90.741 119.716c0 13.929-11.256 25.211-25.36 25.211-13.896 0-25.152-11.282-25.152-25.211 0-14.137 11.256-25.42 25.152-25.42 14.104 0 25.36 11.283 25.36 25.42Z" stroke="#fff" stroke-miterlimit="10"/><path d="M50.858 60.729c-.07-.279-1.18-10.168 9.936-14.068 7.435-2.647 15.842-.14 18.273 6.895 1.738 4.875-.833 9.123-4.933 12.883-1.459 1.324-.972 2.786-.416 4.388l.972 2.786-8.198 2.925-1.876-5.432c-.765-2.16-1.32-4.04.416-6.268 2.363-2.995 5.142-4.179 3.891-7.73-.833-2.368-3.196-3.483-5.489-2.647-3.543 1.254-4.238 4.875-4.03 7.173l-8.546-.905Zm28.487 20.893c1.112 3.134-.555 6.546-3.751 7.66-3.127 1.115-6.532-.557-7.643-3.69-1.112-3.204.486-6.617 3.682-7.731 3.127-1.114 6.6.557 7.712 3.76Z" fill="url('#paint9_linear_991_7165')"/><path d="M240.263 66.022c.07-.279 5.559-8.566 16.606-4.457 7.435 2.716 12.229 10.029 9.658 17.063-1.807 4.874-6.462 6.476-12.02 6.755-1.946.14-2.502 1.462-3.127 3.134l-1.042 2.785-8.129-2.994 2.015-5.432c.833-2.16 1.528-3.9 4.307-4.527 3.752-.836 6.601.07 7.921-3.413.903-2.368-.278-4.735-2.501-5.571-3.544-1.323-6.392.975-7.712 2.925l-5.976-6.268Zm8.616 34.264c-1.181 3.134-4.586 4.736-7.782 3.552-3.127-1.184-4.725-4.596-3.543-7.73 1.181-3.204 4.655-4.736 7.712-3.622 3.196 1.184 4.725 4.666 3.613 7.8Z" fill="url('#paint10_linear_991_7165')"/><path d="M104.361 78.767c.07-.14 2.988-4.596 8.963-2.437 4.03 1.462 6.601 5.432 5.211 9.192-.973 2.647-3.474 3.483-6.461 3.622-1.043.07-1.39.836-1.668 1.671l-.556 1.463-4.377-1.602 1.042-2.925c.417-1.184.834-2.09 2.362-2.438 2.015-.417 3.544.07 4.239-1.88.486-1.253-.139-2.577-1.32-2.995-1.946-.696-3.474.558-4.169 1.602l-3.266-3.273Zm4.655 18.455c-.625 1.672-2.501 2.508-4.168 1.88-1.668-.626-2.571-2.506-1.946-4.178a3.215 3.215 0 0 1 4.169-1.95c1.737.697 2.571 2.577 1.945 4.248Z" fill="#B6B6CE"/><path d="M231.852 24.376c0-.14.625-6.477 8.059-7.452 5.003-.627 9.867 2.02 10.492 6.755.417 3.274-1.737 5.572-4.794 7.383-1.043.626-.973 1.601-.834 2.716l.208 1.88-5.489.696-.486-3.621c-.208-1.462-.278-2.716 1.112-3.83 1.876-1.602 3.752-1.95 3.474-4.318-.209-1.602-1.529-2.577-3.057-2.368-2.432.279-3.335 2.437-3.474 3.97l-5.211-1.811Zm15.007 16.853a3.841 3.841 0 0 1-3.335 4.318 3.836 3.836 0 0 1-4.308-3.343c-.277-2.159 1.182-4.039 3.336-4.317 2.153-.279 4.029 1.184 4.307 3.342Z" fill="#E5E5EC"/><path d="m206.852 209.903 15.007 31.618-.417 4.596c2.154 1.184 7.574-6.407 7.574-6.407l-1.598-1.95s-4.655-24.375-8.546-27.927h-12.02v.07Z" fill="#D36762"/><path d="M221.516 245.072s-1.042 1.672-2.362 3.343c-1.251 1.672-2.64 3.552-2.015 4.457.556.906 6.601-3.273 10.909-6.268 4.377-2.994 3.752-3.064 3.682-3.551-.069-.488-2.918-3.761-2.918-3.761s-3.266 4.248-5.142 5.502c-1.876 1.253-2.154.278-2.154.278Z" fill="#282E4E"/><path d="m220.4 209.903-12.228-3.204 3.543 40.184-3.543 3.482h11.256l-.556-3.134c.278-3.691 2.154-30.225 1.528-37.328ZM221.161 151.403s4.933 11.352 5.697 16.297c.765 4.944-6.6 12.257-6.6 12.257l.903-28.554ZM206.366 126.68l-.765 2.368s-1.876 0-2.084.627c-.209.627.973 1.602.973 1.602s-1.251 5.014.139 7.382c1.389 2.298 9.935 1.044 9.935 1.044s3.474-.348 5.42-4.248c1.945-3.9 3.335-6.895 2.64-10.795-.417-2.298-4.516-3.83-8.477-3.76-3.543.069-6.6 2.437-7.781 5.78Z" fill="#FF897F"/><path d="m209.556 139.216-.556 5.153 8.616-1.184.694-5.501-8.754 1.532Z" fill="#FF897F"/><path d="M214.566 142.488s-6.809 0-9.588 6.338c-3.752 8.636-.139 21.31-.139 21.31l-.695 6.825s1.181 2.995 19.385-.208l-2.362-6.547s2.154-15.252 1.598-20.057c-.695-6.477-8.199-7.661-8.199-7.661Z" fill="#BDBED1"/><path d="M209.838 122.223s-.139 3.134 1.668 5.919c1.876 2.716 2.918 3.134 2.918 3.134s-.417 1.602-.208 2.02c.278.418 1.32-1.602 2.64-1.323 1.32.278 1.39 2.855.139 4.387-1.251 1.463-2.988 1.184-2.988 1.184s-.556 3.97 1.668 7.173c2.223 3.204 6.392 4.457 10.144 2.856 3.752-1.602 5.072-5.154 4.447-8.497-.626-3.343-4.933-5.85-4.933-5.85s1.667-7.382-1.182-11.003c-2.848-3.622-10.908-3.622-13.965-2.299 0 0-2.918-1.114-4.794.906-1.876 1.95-1.39 5.293.764 6.686-.07 0 1.459-4.04 3.682-5.293Z" fill="#282E4E"/><path d="m209.904 147.503-10.631 12.536 4.586 4.945 13.063-10.238c2.292-1.81 2.57-5.153.625-7.382-2.085-2.228-5.698-2.159-7.643.139Z" fill="#D3D5E2"/><path d="M194.273 141.792s.973 15.6 1.321 18.734c.277 3.134 1.667 5.641 4.377 5.85 2.223.139 3.821-1.323 3.821-1.323l-4.446-23.679-5.073.418Z" fill="#FF897F"/><path d="M196.568 135.176s-.486.279-.834.906c0 0-.764.209-1.25 1.114 0 0-.278.348-.695 1.184-.417.836.695 4.109.695 4.109l5.002-.418s.904-1.95 1.112-2.925c.208-.975-.417-2.089-.625-2.438-.209-.348-.556-.278-.695.07-.139.348.139 1.671.139 1.671l-.348.488s-.555-.627-.486-1.602c.069-.975 1.459-3.412.973-4.109-.487-.696-1.668 1.463-1.668 1.463s-.695.209-1.32.487Z" fill="#FF897F"/><path d="m204.211 176.962 1.32 32.941h14.938s4.517-27.3 3.196-33.15c-.069.07-12.437 1.88-19.454.209Z" fill="url('#paint11_linear_991_7165')"/><path d="M209.694 248.903s-1.806.836-3.821 1.532c-2.015.697-4.1 1.532-4.1 2.577s7.296.836 12.576.766c5.281-.07 5.489-.278 5.628-.696.209-.418-1.042-5.015-1.042-5.015s-5.002 1.741-7.295 1.741c-2.224 0-1.946-.905-1.946-.905Z" fill="#282E4E"/><path d="M212.548 139.007s-1.25.766-3.126.975M194.758 142.001l2.987-.418" stroke="#BA6561" stroke-miterlimit="10" stroke-linecap="round" stroke-linejoin="round"/><path d="M114.719 250.436h-9.102v5.362h9.102v-5.362Z" fill="#FF897F"/><path d="M105.616 255.171s-.139 5.78 0 6.755c0 0 4.517.279 6.81.279 2.292 0 8.754.278 10.838-.279 2.015-.487 1.251-1.323.765-2.159-.487-.835-9.45-4.596-9.45-4.596s-5.211.766-8.963 0Z" fill="#282E4E"/><path d="M101.1 178.146s-.278 7.87 0 18.943c.278 11.004 3.057 55.088 3.057 55.088l11.812.557 4.377-74.588H101.1Z" fill="url('#paint12_linear_991_7165')"/><path d="m113.606 116.721.765 2.368s1.876 0 2.084.627c.208.627-.973 1.602-.973 1.602s1.251 5.014-.139 7.312c-1.389 2.299-9.866 1.045-9.866 1.045s-3.474-.348-5.419-4.248c-1.946-3.9-3.336-6.825-2.571-10.725.417-2.298 4.516-3.831 8.407-3.691 3.474 0 6.601 2.368 7.712 5.71Z" fill="#FF897F"/><path d="m110.412 129.187.555 5.154-8.546-1.184-.694-5.432 8.685 1.462Z" fill="#FF897F"/><path d="M110.545 112.543s-1.32 2.159-4.238 3.343c0 0 1.042 4.109.208 4.526-.764.488-.764-.626-2.362-.766-1.598-.139-1.737 1.881-1.251 3.761.486 1.811 2.432 2.298 3.127 2.159.694-.139.903.696-.487 1.95-1.389 1.254-3.613 2.507-3.613 2.507s-6.253-5.78-7.365-8.705c-1.111-2.925 0-4.597 0-4.597s-.764-3.83 2.363-5.78c3.126-1.95 9.449-2.368 12.02-2.159 2.571.279 2.362 1.671 2.362 1.671s1.112.07 1.598 1.463c.487 1.393-.556 2.507-.556 2.507s-1.042-1.393-1.806-1.88Z" fill="#282E4E"/><path d="M102.278 132.321s-3.474 5.015-5.072 10.238c-1.598 5.223 3.891 35.657 3.891 35.657h19.176s-.556-29.529-2.015-34.682c-1.806-6.547-7.365-9.75-7.365-9.75l-8.615-1.463Z" fill="url('#paint13_linear_991_7165')"/><path d="m108.05 178.634-.417 71.453M104.016 250.087h12.298" stroke="#F96786" stroke-miterlimit="10" stroke-linecap="round" stroke-linejoin="round"/><path d="M98.388 141.236c-2.71 4.944-7.782 15.042-10.63 25.698l8.06 3.273 12.853-23.539a5.769 5.769 0 0 0 .209-5.223c0-.07-.07-.07-.07-.14-2.084-4.109-8.129-4.178-10.422-.069Z" fill="url('#paint14_linear_991_7165')"/><path d="M111.313 182.882s2.015.418 2.015 0c0-.417-1.042-.905-2.154-.905h-.903v-.209l.834-.139s1.876.696 1.945.348c.139-.348-1.251-1.393-2.084-1.323-.487 0-1.112.139-1.598.278l-.904.07c.695-.418 1.321-.696 1.182-.975-.209-.348-.556-.278-1.737.209-.765.279-1.46.766-1.807.975h-.347L95.68 170.277l-8.06-3.273s-2.293 5.223 1.25 9.471c3.544 4.249 15.703 9.89 15.703 9.89 1.321.557 5.212-.975 5.212-.975l.764-.14s2.015.418 2.015 0-1.042-.905-2.154-.905h-.556v-.07l1.112-.209s2.015.418 2.015 0c0-.417-1.043-.905-2.154-.905h-.904v-.07l1.39-.209Z" fill="#FF897F"/><path d="M106.867 128.561s1.946 1.462 3.683 1.392M105.828 181.211s1.042 2.298.903 3.273" stroke="#BA6561" stroke-miterlimit="10" stroke-linecap="round" stroke-linejoin="round"/><path d="M263.12 138.938s-5.419 9.819-9.24 17.619l-10.353-8.496-.625-.766c-.139-.488-.417-1.045-.765-1.533-.764-.975-.972-3.064-1.459-2.019-.278.557-.069 1.602.209 2.437l-2.154-.139c-.487-.139-2.432-.766-3.613-.696-1.39.069-1.042.626-.973.766.07.069 1.876.278 3.127.766l-.07.069c-.834-.208-2.084-.557-2.918-.487-1.39.07-1.042.627-.973.766.07.07 2.154.348 3.405.905v.07c-.834-.209-1.876-.418-2.64-.418-1.39.07-1.043.627-.973.766.069.07 1.737.279 2.987.766-.625-.069-1.32-.139-1.875-.069-1.39.209-.973.696-.904.766.07.069 1.32.139 2.502.418l4.863 1.671c1.529 2.786 7.018 11.979 12.159 14.346 1.598.697 3.683-.139 4.794-1.462l6.045-7.521-.556-18.525ZM265.899 232.188l1.598 17.759-2.849 3.274s.904 2.716 9.519-.418l-.903-3.9s1.181-12.397.903-16.227l-8.268-.488ZM286.539 232.188l3.96 17.759.417 3.413s3.544 4.109 8.824 1.393l-3.682-5.85-1.529-16.715h-7.99Z" fill="#FF897F"/><path d="M265.001 252.664s-5.628 4.248-5.698 5.154c-.069.836.417 1.114 1.807 1.253 1.389.14 8.546-.905 11.047-1.393 2.502-.487 2.64-.974 2.64-.974s.278-2.02-.833-4.736c0 0-2.085 1.95-7.435 1.671-1.111-.069-1.528-.975-1.528-.975ZM290.633 251.201s.069 5.502.834 7.034c.764 1.532 4.377 2.577 6.183 3.134 1.807.557 6.184.836 6.879-.696.695-1.533-4.864-5.92-4.864-5.92s-3.404.557-5.211.348c-1.806-.209-3.821-3.9-3.821-3.9Z" fill="#464F96"/><path d="M290.079 186.434c-.973-5.014-2.571-9.75-5.281-13.998l-1.528-7.452c1.389-3.83 5.836-16.714 5.767-25.141l-10.7-3.134-5.906-.209s-3.544.696-9.38 2.438c0 0-2.64 10.446-2.293 15.46.278 3.552 1.251 7.313 1.807 9.263l-.139 9.053-1.39 73.195 14.869 1.184-.556-52.581 1.181.488 8.963 53.346 14.174-1.81c.07-.07-8.615-54.879-9.588-60.102Z" fill="url('#paint15_linear_991_7165')"/><path d="M270.343 137.266s-1.667 1.462-.695 2.716c.904 1.254 3.266-.279 3.266-.279s2.084 1.881 4.655 1.115c2.571-.697 3.127-3.622 3.127-3.622" stroke="#F96786" stroke-miterlimit="10" stroke-linecap="round" stroke-linejoin="round"/><path d="M289.246 139.843s-4.516 4.944-4.724 9.959c-.209 4.109 8.129 12.675 10.977 16.296l-10.769 9.75-.347.07c-.209-.14-.556-.279-1.251-.488-1.042-.278-2.432-.139-2.571 0-.139.14 0 .348.487.418.486.07.972.07.972.07l.417.278-1.806.279c-.626 0-1.807.07-2.502.278-1.042.279-2.084 1.045-1.876 1.463.209.348 1.459-.209 2.015-.487h1.876l.07.069c-.556.07-1.251.139-1.668.209-1.042.279-2.084 1.045-1.876 1.463.209.348 1.459-.209 2.015-.488h2.293v.07c-.486.069-1.042.139-1.39.209-1.042.278-2.084 1.044-1.876 1.462.209.348 1.46-.209 2.015-.487h2.015c-.208 0-.417.069-.625.139-1.042.278-2.084 1.045-1.876 1.462.208.349 1.459-.209 2.015-.487h1.181s3.474.418 4.933-1.88c2.502-1.184 14.035-8.358 15.355-10.865 1.946-3.83-13.479-28.762-13.479-28.762Z" fill="#FF897F"/><path d="M265.972 126.68s-1.528 4.875-1.32 8.148c.209 3.203 3.266 2.577 4.1 2.298.764-.278 1.945 1.114 2.918.627.973-.418-.348-2.925-.348-2.925l-5.35-8.148Z" fill="#282E4E"/><path d="m271.109 133.226.209 6.128s.625.488 2.362.488 4.308-1.671 4.308-1.671l-.347-6.129-6.532 1.184Z" fill="#FF897F"/><path d="M281.249 124.312c-.556-.069-.973.07-1.32.209.347-2.994.278-5.571.278-5.571l-14.105-.836s-.903 7.243-.139 11.422c.348 2.019 1.668 3.551 2.918 4.596 1.599 1.323 3.683 1.602 5.559.697 1.529-.697 3.335-1.95 4.169-4.04 0-.069.069-.209.069-.278.695-.209 1.876-.766 2.849-1.672 1.737-1.602 1.945-4.387-.278-4.527Z" fill="#FF897F"/><path d="M270.974 121.526c2.71 1.184 6.323.557 6.323.557s-.556 1.811-.139 3.274c.417 1.462 1.32 1.601 1.32 1.601s1.042-2.367 2.432-2.158c1.39.208.903 2.925-.139 4.108-1.042 1.115-2.154 1.115-2.154 1.115s-1.459 1.741-.973 3.482c0 0 .278 3.761.348 4.666 0 0 .556.627 1.945-.07 1.39-.766 3.196.697 5.698-.835 2.501-1.602 2.154-3.9.833-7.104-1.32-3.204-1.806-7.173-1.806-7.173s-.07-4.666-1.39-7.034c-1.32-2.368-3.613-3.273-6.322-3.83-2.71-.558-4.725.487-4.725.487s-5.697.696-7.573 4.039c-3.335 6.059 1.042 8.427 1.042 8.427s1.876-2.298 2.362-6.337c-.069-.14 1.042 1.95 2.918 2.785Z" fill="#282E4E"/><path d="M263.672 157.393s3.891-1.324 6.253-1.324 8.616 2.09 8.616 2.09" stroke="#F96786" stroke-miterlimit="10"/><path d="M272.843 139.772s-.834 3.97-.695 6.756M269.516 190.751s5.419 1.393 7.087 4.248M285.008 245.282l14.243-1.672M261.18 242.983l14.799 1.533" stroke="#F96786" stroke-miterlimit="10" stroke-linecap="round" stroke-linejoin="round"/><path d="M295.5 166.098s3.057.557 4.238 1.184M253.812 156.486s.348 3.065 0 5.224M271.32 135.316s2.78.557 5.837-2.368" stroke="#BA6561" stroke-miterlimit="10" stroke-linecap="round" stroke-linejoin="round"/><path d="m39.325 231.701 1.737 16.506-1.736 8.566s-.417.626 3.474 1.253c3.89.627 5.975-.975 5.975-.975l-1.39-9.123.626-14.764-8.686-1.463ZM62.117 232.328l3.474 14.973 1.042 7.104 14.591.348-8.407-7.452-2.779-16.296-7.92 1.323Z" fill="#FF897F"/><path d="M40.436 251.62s.695 2.438 3.196 2.716c3.822.418 4.308-2.577 4.308-2.577s1.32 5.363 1.39 6.616c.07 1.254-2.71 2.856-5.42 2.856-3.057 0-4.585-1.602-5.28-2.647-.695-1.114 1.806-6.964 1.806-6.964ZM65.866 249.321s-.278 3.134 0 4.457.555 2.159.903 2.228c.278.07 5.42.349 6.67.349 1.25.069 6.948.278 8.685 0 1.737-.279 2.015-.349 2.293-1.115s-7.712-4.526-7.712-4.526-1.876.766-4.794.835c-2.919.209-4.795-2.298-6.045-2.228Z" fill="#464F96"/><path d="M48.706 124.173v5.85l-7.087-.488-1.111-8.218 8.198 2.856ZM86.853 130.997c-.904-.278-2.085-.209-2.918-.069v-.349c1.25-.209 3.682-.626 2.431-.975-1.459-.417-3.752.209-3.752.209l-2.154-.557c.626-.905 1.112-2.716.626-2.507-.487.209-2.293 2.786-2.849 3.413l-9.45 10.237-13.618-12.257c-1.459 1.532-1.875 9.053.279 12.675 2.153 3.552 13.548 7.8 13.548 7.8 4.516-.139 10.144-10.725 11.812-13.998l2.293-.07s.625 0 1.111-.07c1.32-.139 3.057-.348 1.946-.766-.626-.209-1.32-.278-2.015-.278v-.279c1.25-.209 3.821-.487 2.57-.905-.764-.279-1.806-.209-2.64-.139v-.209c1.043-.14 4.17-.418 2.78-.906Z" fill="#FF897F"/><path d="M50.926 107.528s2.501 8.775 2.71 12.606c.208 3.9-2.293 6.128-5.49 6.128-3.196 0-6.044-1.95-6.044-1.95l-4.03-7.451c-1.529-2.786-.625-6.268 2.015-8.009 1.111-.697 2.293-1.393 3.613-1.881 4.308-1.671 7.226.557 7.226.557Z" fill="#FF897F"/><path d="M39.333 117.209s-2.224-.766-2.988.627c-.764 1.393 1.042 3.621 2.571 4.388 1.529.766 3.821 0 3.821 0l-3.404-5.015Z" fill="#FF897F"/><path d="M63.509 166.934s-3.474 2.089-10.909 2.507c-3.126.209-6.461.069-9.38-.07-4.03-.209-7.017-.557-7.017-.557l1.112-14.277-5.698-23.4c2.501-2.019 9.727-3.691 9.727-3.691s3.266 2.507 6.462 2.229c1.112-.14.903-2.507.903-2.507s4.1-.279 5.906.487c.278.07.487.209.695.418 4.586 4.596 3.405 25.837 3.405 25.837l4.794 13.024Z" fill="url('#paint16_linear_991_7165')"/><path d="M49.888 107.25s-.347 2.019-2.432 4.178c-2.154 2.159-4.1 2.298-4.1 2.298s-.555 1.184-1.389 1.742l-.834.557s.695 1.88.348 3.273c0 0-1.737-2.507-3.335-2.298-1.598.209-2.293 2.019-1.181 3.482 1.042 1.462 3.196 2.019 3.682 2.019l.556 3.9s-1.112.349-2.78-.208h-.069c-.764-.349-1.667.766-3.335.835-1.667.07-1.945-.975-3.335-.557-1.39.418-4.03.905-4.933-1.88-.903-2.786 1.32-3.622.556-5.293-.695-1.672.208-2.925 1.667-3.691 1.46-.766 0-4.945 2.154-6.547 2.154-1.671 2.71-1.81 3.196-2.855.487-1.045 2.502-2.02 4.308-1.95 2.293.07 1.737-2.159 4.933-1.88 3.752.348 4.517 1.95 4.517 1.95s1.736-.07 3.612 1.601c3.127 2.717 2.502 6.338 1.043 8.845.07 0-1.876-6.546-2.849-7.521Z" fill="#282E4E"/><path d="m31.892 130.649-12.506 13.372-10.353-9.402c-.555-.627-2.64-2.995-3.126-3.204-.556-.208.139 1.602.834 2.438l-2.085.766s-2.362-.418-3.752.139c-1.181.488 1.25.627 2.571.766v.349c-.834-.07-2.015-.07-2.918.348-1.32.627 1.876.627 2.918.696v.209c-.764 0-1.876 0-2.57.348-1.182.558 1.389.627 2.64.697v.278c-.695.07-1.46.14-2.015.418-1.043.488.694.557 2.014.557h1.112l2.293-.139c1.945 3.204 8.407 13.232 12.923 12.954 0 0 13.271-7.034 15.078-10.795 1.876-3.761-1.46-9.332-3.058-10.795Z" fill="#FF897F"/><path d="m73.585 232.189-3.474.557-8.546 1.393-9.033-47.497-1.25-1.601v49.098H37.386s-3.683-34.543-3.683-44.989c0-10.447 2.71-22.913 2.71-22.913 13.688 4.248 26.472-1.045 26.472-1.045l.417 1.045c4.933 14.625 10.283 65.952 10.283 65.952Z" fill="url('#paint17_linear_991_7165')"/><path d="M19.39 144.021s2.085 2.229 2.988 3.692M68.786 140.4s-.626 2.159 0 4.04M48.703 126.263s-4.934.696-7.226-3.134" stroke="#BA6561" stroke-miterlimit="10" stroke-linecap="round" stroke-linejoin="round"/><path d="m37.938 154.259 2.57.836" stroke="#F96786" stroke-miterlimit="10" stroke-linecap="round" stroke-linejoin="round"/><path d="M34.813 175.361s4.585-.975 5.28-6.268" stroke="#7954B3" stroke-miterlimit="10"/><path d="M35.992 168.118s14.591 4.735 27.515-1.184M51.352 185.04s1.042-3.203 3.752-4.666" stroke="#7954B3" stroke-miterlimit="10"/><path d="M60.727 168.048s1.598 4.805 4.516 5.85M36.969 230.1s5.072.766 14.382 0M73.164 227.871s-6.461 1.602-12.367 1.88" stroke="#7954B3" stroke-miterlimit="10"/><path d="M39.46 127.934s3.058 2.925 7.505 2.925 2.987-3.831 2.987-3.831M43.148 145.554s6.532-1.324 12.229-1.533" stroke="#F96786" stroke-miterlimit="10" stroke-linecap="round" stroke-linejoin="round"/></g><defs><linearGradient id="paint0_linear_991_7165" x1="10.331" y1="196.833" x2="22.952" y2="215.069" gradientUnits="userSpaceOnUse"><stop stop-color="#DC911B"/><stop offset="1" stop-color="#E7B142"/></linearGradient><linearGradient id="paint1_linear_991_7165" x1="28.967" y1="217.596" x2="41.181" y2="217.596" gradientUnits="userSpaceOnUse"><stop stop-color="#DC911B"/><stop offset="1" stop-color="#E7B142"/></linearGradient><linearGradient id="paint2_linear_991_7165" x1="19.893" y1="216.178" x2="16.262" y2="235.308" gradientUnits="userSpaceOnUse"><stop stop-color="#DC911B"/><stop offset="1" stop-color="#E7B142"/></linearGradient><linearGradient id="paint3_linear_991_7165" x1="31.841" y1="206.952" x2="33.779" y2="240.194" gradientUnits="userSpaceOnUse"><stop stop-color="#FFE9EC"/><stop offset="1" stop-color="#A7A3D1"/></linearGradient><linearGradient id="paint4_linear_991_7165" x1="189.096" y1="253.929" x2="187.643" y2="233.057" gradientUnits="userSpaceOnUse"><stop stop-color="#DC911B"/><stop offset="1" stop-color="#E7B142"/></linearGradient><linearGradient id="paint5_linear_991_7165" x1="290.024" y1="177.238" x2="293.233" y2="238.512" gradientUnits="userSpaceOnUse"><stop stop-color="#FFE9EC"/><stop offset="1" stop-color="#A7A3D1"/></linearGradient><linearGradient id="paint6_linear_991_7165" x1="293.542" y1="212.084" x2="303.249" y2="219.889" gradientUnits="userSpaceOnUse"><stop stop-color="#FFE9EC"/><stop offset="1" stop-color="#A7A3D1"/></linearGradient><linearGradient id="paint7_linear_991_7165" x1="252.194" y1="236.28" x2="308.124" y2="236.28" gradientUnits="userSpaceOnUse"><stop stop-color="#DC911B"/><stop offset="1" stop-color="#E7B142"/></linearGradient><linearGradient id="paint8_linear_991_7165" x1="108.478" y1="123.847" x2="232.493" y2="60.167" gradientUnits="userSpaceOnUse"><stop stop-color="#7954B3"/><stop offset=".049" stop-color="#7153AE"/><stop offset=".213" stop-color="#5951A1"/><stop offset=".366" stop-color="#4B4F99"/><stop offset=".497" stop-color="#464F96"/><stop offset=".639" stop-color="#4A4F98"/><stop offset=".779" stop-color="#56519F"/><stop offset=".916" stop-color="#6952AA"/><stop offset="1" stop-color="#7954B3"/></linearGradient><linearGradient id="paint9_linear_991_7165" x1="75.029" y1="95.797" x2="64.958" y2="57.154" gradientUnits="userSpaceOnUse"><stop stop-color="#DC911B"/><stop offset="1" stop-color="#E7B142"/></linearGradient><linearGradient id="paint10_linear_991_7165" x1="237.161" y1="82.34" x2="267.229" y2="82.34" gradientUnits="userSpaceOnUse"><stop stop-color="#DC911B"/><stop offset="1" stop-color="#E7B142"/></linearGradient><linearGradient id="paint11_linear_991_7165" x1="219.287" y1="202.761" x2="207.675" y2="179.977" gradientUnits="userSpaceOnUse"><stop offset=".15" stop-color="#464F96"/><stop offset=".396" stop-color="#4A4F98"/><stop offset=".627" stop-color="#55509F"/><stop offset=".851" stop-color="#6852A9"/><stop offset="1" stop-color="#7954B3"/></linearGradient><linearGradient id="paint12_linear_991_7165" x1="135.987" y1="193.656" x2="95.036" y2="226.032" gradientUnits="userSpaceOnUse"><stop stop-color="#CD536C"/><stop offset="1" stop-color="#8B1F5A"/></linearGradient><linearGradient id="paint13_linear_991_7165" x1="118.402" y1="196.948" x2="104.457" y2="139.272" gradientUnits="userSpaceOnUse"><stop offset=".15" stop-color="#464F96"/><stop offset=".396" stop-color="#4A4F98"/><stop offset=".627" stop-color="#55509F"/><stop offset=".851" stop-color="#6852A9"/><stop offset="1" stop-color="#7954B3"/></linearGradient><linearGradient id="paint14_linear_991_7165" x1="96.154" y1="158.49" x2="105.913" y2="139.183" gradientUnits="userSpaceOnUse"><stop stop-color="#464F96"/><stop offset=".279" stop-color="#4A4F98"/><stop offset=".561" stop-color="#56519F"/><stop offset=".843" stop-color="#6A53AB"/><stop offset="1" stop-color="#7954B3"/></linearGradient><linearGradient id="paint15_linear_991_7165" x1="260.784" y1="192.409" x2="299.714" y2="192.409" gradientUnits="userSpaceOnUse"><stop stop-color="#CD536C"/><stop offset="1" stop-color="#8B1F5A"/></linearGradient><linearGradient id="paint16_linear_991_7165" x1="41.165" y1="129.283" x2="53.559" y2="176.04" gradientUnits="userSpaceOnUse"><stop stop-color="#CD536C"/><stop offset="1" stop-color="#8B1F5A"/></linearGradient><linearGradient id="paint17_linear_991_7165" x1="41.073" y1="164.971" x2="59.852" y2="235.811" gradientUnits="userSpaceOnUse"><stop stop-color="#464F96"/><stop offset=".279" stop-color="#4A4F98"/><stop offset=".561" stop-color="#56519F"/><stop offset=".843" stop-color="#6A53AB"/><stop offset="1" stop-color="#7954B3"/></linearGradient><clipPath id="clip0_991_7165"><path fill="#fff" d="M0 0h321v273H0z"/></clipPath></defs></svg>