<svg width="589" height="500" fill="none" xmlns="http://www.w3.org/2000/svg"><g clip-path="url('#clip0_986_4166')"><path d="M302.15 37.883s-67.951-2.934-106.326 58.29c-38.374 61.225-66.421 34.312-109.385 81.251C43.475 224.235 52.399 322.449 57.37 362.5c4.972 40.051 22.31 84.822 22.31 84.822h456.794s46.662-191.837 6.63-263.011c-40.032-71.173-126.597-74.745-150.437-110.586C368.7 37.883 302.15 37.883 302.15 37.883Z" fill="#E5E5EC"/><path d="M10.33 444.643s130.549-10.587 561.845 3.061c9.944.255 37.355 28.444-13.131 36.735s-93.577 0-166.629 11.734c-73.051 11.735-146.357-9.566-215.966-9.566-69.609 0-73.179-3.571-106.071-7.143-53.036-5.74-90.39-29.209-60.048-34.821Z" fill="#DAD7EB"/><path d="M453.097 427.423c-7.394-1.02-13.641 17.858-13.641 17.858l-.127-.128c-1.148-3.444-2.04-7.781-2.678-12.372 1.403-1.021 8.925-6.761 10.709-9.184 2.04-2.551 1.913-8.929-1.912-9.311-3.697-.383-9.052 15.178-9.052 15.178l-.255-.255c-.382-3.699-.637-7.525-.892-11.097 1.912-2.041 6.374-7.015 7.394-9.439 1.275-3.061 1.403-6.25-1.402-6.25-2.04 0-4.972 6.25-6.247 9.184-.127-2.934-.128-5.612-.128-7.525 1.148-2.424 3.443-7.654 3.825-10.205.638-3.443.638-8.801-1.785-9.438-2.294-.638-4.972 2.423-5.864 8.035-.638 4.21 1.402 9.439 2.55 11.735 0 1.913 0 4.464.127 7.271-1.275-3.572-4.462-11.863-8.159-13.138-2.168-.638-4.462 1.658-3.442 5.867 1.019 4.209 10.454 12.373 10.454 12.373l1.53 2.04c.127 2.679.382 5.485.637 8.291-2.295-3.316-6.757-9.183-11.474-11.862-3.187-1.786-11.347 1.913-6.629 7.908 3.952 5.102 15.298 8.674 18.613 9.566.51 3.827 1.147 7.398 2.04 10.46-3.825-3.954-12.877-12.5-18.996-11.352-7.904 1.53-9.434 9.183-2.422 12.372 6.884 3.189 23.33 3.444 23.33 3.444s9.944-4.464 13.641-7.398c3.953-2.679 7.777-11.607.255-12.628Z" fill="#A7A3D1"/><path d="M16.072 357.271s-3.06 12.373 5.482 32.526c8.542 20.153 41.562 42.092 41.562 42.092s2.04-23.342-9.435-47.066c-11.346-23.597-37.609-27.552-37.609-27.552Z" fill="url('#paint0_linear_986_4166')"/><path d="M63.369 366.327s-6.757 6.378-9.69 22.066c-2.932 15.689 8.415 42.347 8.415 42.347s10.581-13.392 13.131-32.398c2.677-19.005-11.856-32.015-11.856-32.015Z" fill="url('#paint1_linear_986_4166')"/><path d="M1.023 411.607s4.208 8.291 18.486 15.307c14.28 7.015 43.092 3.443 43.092 3.443s-10.072-13.903-27.665-21.556c-17.594-7.653-33.913 2.806-33.913 2.806Z" fill="url('#paint2_linear_986_4166')"/><path d="M34.679 444.644h78.788s-1.147-9.821-11.091-16.327c-9.945-6.505-21.291 0-21.291 0s-5.482-13.775-25.625-13.775c-20.144 0-23.203 15.051-23.203 15.051s-18.869-4.464-21.546 15.051h23.968Z" fill="url('#paint3_linear_986_4166')"/><path d="M318.218 447.322h78.788s-1.147-9.822-11.091-16.327c-9.944-6.505-21.291 0-21.291 0s-5.482-13.775-25.625-13.775c-20.144 0-23.203 15.051-23.203 15.051s-18.869-4.465-21.546 15.051h23.968Z" fill="url('#paint4_linear_986_4166')"/><path d="M521.049 430.868s-2.167-9.821-1.785-17.092c.51-7.27 8.924-8.291 9.179-14.158.255-5.867-1.912-13.393 5.227-17.475 7.012-4.081 1.53-8.035 5.865-15.051 4.334-7.015 9.307-4.846 11.856-2.168 2.55 2.679-3.569 14.924-.51 21.301 3.06 6.378-6.757 18.112-5.609 20.663 1.147 2.679 4.972 7.398 4.462 15.179-.51 7.781-6.12 11.99-6.12 11.99l-22.565-3.189Z" fill="url('#paint5_linear_986_4166')"/><path d="M528.703 427.552s1.148-9.949 4.08-16.71c2.932-6.76 11.219-4.847 13.386-10.204 2.167-5.484 2.677-13.265 10.709-14.668 8.032-1.531 4.207-7.015 10.582-12.245 6.374-5.23 10.326-1.403 11.984 1.913 1.53 3.317-8.287 12.883-7.65 19.898.638 7.016-12.366 14.796-12.239 17.602.128 2.806 2.168 8.674-.892 15.817-3.06 7.142-9.817 9.183-9.817 9.183l-20.143-10.586Z" fill="url('#paint6_linear_986_4166')"/><path d="M486.507 447.833h78.788s-1.147-9.822-11.091-16.327c-9.944-6.505-21.291 0-21.291 0s-5.482-13.776-25.625-13.776c-20.144 0-23.203 15.051-23.203 15.051s-18.869-4.464-21.546 15.052h23.968Z" fill="url('#paint7_linear_986_4166')"/><path d="M219.92 408.93s3.442.51 11.602 8.418c8.159 7.908 7.904 17.092 7.904 17.092s2.805-18.878 13.004-25.51c0 0 5.482 13.137 0 28.571 0 0 9.179-13.138 26.263-15.816 0 0-1.275 16.199-14.407 26.148H226.04c.127-.128-15.554-16.072-6.12-38.903Z" fill="#A7A3D1"/><path d="M171.988 421.301c-7.394-1.02-13.641 17.857-13.641 17.857l-.128-.127c-1.147-3.444-2.04-7.781-2.677-12.373 1.402-1.02 8.924-6.76 10.709-9.183 2.04-2.551 1.912-8.929-1.912-9.311-3.697-.383-9.052 15.178-9.052 15.178l-.255-.255c-.382-3.699-.637-7.525-.892-11.097 1.912-2.041 6.374-7.015 7.394-9.439 1.275-3.061 1.402-6.25-1.402-6.25-2.04 0-4.972 6.25-6.247 9.184-.128-2.934-.128-5.612-.128-7.526 1.148-2.423 3.442-7.653 3.825-10.204.637-3.443.637-8.801-1.785-9.438-2.295-.638-4.972 2.423-5.865 8.035-.637 4.209 1.403 9.439 2.55 11.735 0 1.913 0 4.464.128 7.27-1.275-3.571-4.462-11.862-8.16-13.137-2.167-.638-4.462 1.658-3.442 5.867 1.02 4.209 10.454 12.372 10.454 12.372l1.53 2.041c.128 2.679.383 5.485.638 8.291-2.295-3.316-6.757-9.184-11.474-11.862-3.188-1.786-11.347 1.913-6.63 7.908 3.952 5.102 15.299 8.673 18.614 9.566.51 3.827 1.147 7.398 2.039 10.46-3.824-3.955-12.876-12.5-18.995-11.353-7.905 1.531-9.435 9.184-2.423 12.373 6.885 3.189 23.331 3.444 23.331 3.444s9.944-4.464 13.641-7.398c3.952-2.679 7.777-11.607.255-12.628Z" fill="#E7B142"/><path d="M175.805 82.398c0-2.168 18.613-81.76 115.122-81.76 64.892 0 122.9 42.474 122.9 103.444 0 42.474-31.617 68.367-73.051 86.097-14.662 6.505-15.172 18.622-15.172 32.908v24.234h-71.393v-47.194c0-19.005.892-34.566 20.27-47.193 26.391-16.837 50.996-18.24 50.996-48.852 0-20.791-15.554-35.46-35.06-35.46-31.107 0-46.278 26.02-50.995 44.516l-63.617-30.74ZM339.373 321.3c0 27.296-22.055 49.362-49.72 49.362-27.283 0-49.339-22.066-49.339-49.362 0-27.679 22.056-49.745 49.339-49.745 27.665-.128 49.72 21.939 49.72 49.745Z" fill="url('#paint8_linear_986_4166')"/><path opacity=".47" d="M174.656 96.429c0-2.041 19.251-87.883 109.513-87.883 60.685 0 114.868 39.668 114.868 96.684 0 39.668-29.577 63.903-68.334 80.484-13.769 6.123-14.151 17.347-14.151 30.74v22.704h-66.677v-44.005c0-17.857.765-32.398 18.996-44.133 24.733-15.816 47.681-16.964 47.681-45.79 0-19.388-14.534-33.164-32.765-33.164-29.068 0-45.131 35.715-49.593 53.062l-59.538-28.7Zm166.501 219.26c0 25.51-20.653 46.173-46.533 46.173-25.498 0-46.152-20.663-46.152-46.173 0-25.893 20.654-46.556 46.152-46.556 25.88 0 46.533 20.663 46.533 46.556Z" stroke="#fff" stroke-miterlimit="10"/><path d="M93.316 111.224c-.127-.51-2.167-18.622 18.231-25.765 13.641-4.847 29.068-.255 33.53 12.627 3.187 8.929-1.53 16.71-9.052 23.597-2.677 2.424-1.785 5.102-.765 8.036l1.785 5.102-15.044 5.357-3.442-9.949c-1.402-3.954-2.422-7.398.765-11.479 4.334-5.485 9.434-7.653 7.139-14.158-1.53-4.337-5.864-6.378-10.071-4.847-6.502 2.296-7.777 8.928-7.395 13.137l-15.68-1.658Zm52.271 38.265c2.039 5.74-1.02 11.99-6.885 14.031-5.737 2.041-11.984-1.02-14.024-6.76-2.039-5.867.893-12.117 6.757-14.158 5.737-2.041 12.112 1.02 14.152 6.887Z" fill="url('#paint9_linear_986_4166')"/><path d="M440.851 120.918c.127-.51 10.199-15.688 30.47-8.163 13.641 4.975 22.438 18.367 17.721 31.25-3.315 8.929-11.857 11.862-22.056 12.372-3.57.256-4.59 2.679-5.737 5.74l-1.912 5.102-14.917-5.484 3.698-9.949c1.53-3.954 2.804-7.143 7.904-8.291 6.884-1.531 12.111.127 14.534-6.25 1.657-4.337-.51-8.674-4.59-10.204-6.502-2.424-11.729 1.785-14.151 5.357l-10.964-11.48Zm15.808 62.755c-2.167 5.74-8.414 8.674-14.278 6.506-5.737-2.169-8.67-8.419-6.502-14.159 2.167-5.867 8.541-8.673 14.151-6.632 5.864 2.168 8.669 8.546 6.629 14.285Z" fill="url('#paint10_linear_986_4166')"/><path d="M191.488 144.26c.127-.255 5.482-8.418 16.446-4.464 7.394 2.679 12.111 9.949 9.561 16.837-1.784 4.847-6.374 6.377-11.856 6.633-1.912.127-2.55 1.53-3.06 3.061l-1.02 2.678-8.032-2.933 1.913-5.357c.765-2.169 1.53-3.827 4.334-4.465 3.698-.765 6.502.128 7.777-3.444.893-2.296-.255-4.719-2.422-5.484-3.57-1.276-6.374 1.02-7.649 2.933l-5.992-5.995Zm8.541 33.801c-1.147 3.062-4.589 4.592-7.649 3.444-3.06-1.148-4.717-4.592-3.57-7.653 1.148-3.189 4.59-4.719 7.65-3.571 3.187 1.275 4.717 4.719 3.569 7.78Z" fill="#B6B6CE"/><path d="M425.422 44.643c0-.255 1.147-11.862 14.789-13.648 9.179-1.148 18.103 3.699 19.25 12.372.765 5.995-3.187 10.205-8.796 13.52-1.913 1.149-1.785 2.934-1.53 4.975l.382 3.444-10.071 1.276-.893-6.633c-.382-2.678-.51-4.974 2.04-7.015 3.442-2.934 6.884-3.572 6.375-7.908-.383-2.934-2.805-4.72-5.61-4.337-4.462.51-6.119 4.464-6.374 7.27l-9.562-3.316ZM452.96 75.51c.509 3.827-2.168 7.398-6.12 7.908-3.825.51-7.394-2.168-7.904-6.122-.51-3.954 2.167-7.398 6.119-7.908 3.952-.51 7.395 2.168 7.905 6.122Z" fill="#E5E5EC"/><path d="m379.539 384.438 27.538 57.908-.765 8.419c3.952 2.168 13.896-11.735 13.896-11.735l-2.932-3.571s-8.542-44.643-15.681-51.148h-22.056v.127Z" fill="#D36762"/><path d="M406.441 448.85s-1.912 3.062-4.335 6.123c-2.295 3.061-4.844 6.505-3.697 8.163 1.02 1.658 12.112-5.995 20.016-11.479 8.032-5.485 6.884-5.613 6.757-6.506-.128-.892-5.355-6.887-5.355-6.887s-5.992 7.78-9.434 10.076c-3.442 2.296-3.952.51-3.952.51Z" fill="#282E4E"/><path d="m404.399 384.438-22.438-5.868 6.502 73.597-6.502 6.378h20.653l-1.02-5.74c.51-6.76 3.952-55.357 2.805-68.367ZM405.798 277.296s9.052 20.791 10.454 29.847c1.402 9.056-12.111 22.449-12.111 22.449l1.657-52.296ZM378.647 232.015l-1.402 4.336s-3.442 0-3.825 1.148c-.382 1.148 1.785 2.934 1.785 2.934s-2.295 9.184.255 13.521c2.55 4.209 18.231 1.913 18.231 1.913s6.375-.638 9.944-7.781c3.57-7.143 6.12-12.627 4.845-19.77-.765-4.209-8.287-7.016-15.554-6.888-6.502.128-12.111 4.464-14.279 10.587Z" fill="#FF897F"/><path d="m384.504 254.974-1.02 9.439 15.809-2.169 1.275-10.076-16.064 2.806Z" fill="#FF897F"/><path d="M393.69 260.968s-12.494 0-17.594 11.607c-6.884 15.816-.255 39.031-.255 39.031l-1.275 12.5s2.167 5.484 35.57-.383l-4.335-11.99s3.952-27.934 2.932-36.735c-1.275-11.862-15.043-14.03-15.043-14.03Z" fill="#BDBED1"/><path d="M385.016 223.851s-.255 5.74 3.06 10.842c3.442 4.975 5.354 5.74 5.354 5.74s-.765 2.934-.382 3.699c.51.765 2.422-2.934 4.844-2.423 2.423.51 2.55 5.229.255 8.035-2.295 2.679-5.482 2.169-5.482 2.169s-1.02 7.27 3.06 13.137c4.08 5.868 11.729 8.164 18.613 5.23 6.885-2.934 9.307-9.439 8.16-15.561-1.148-6.123-9.052-10.715-9.052-10.715s3.06-13.52-2.167-20.153c-5.227-6.632-20.016-6.632-25.626-4.209 0 0-5.354-2.041-8.796 1.658-3.443 3.572-2.55 9.694 1.402 12.245-.127 0 2.677-7.398 6.757-9.694Z" fill="#282E4E"/><path d="m385.146 270.153-19.505 22.959 8.414 9.057 23.968-18.75c4.207-3.317 4.717-9.439 1.147-13.521-3.824-4.081-10.454-3.954-14.024.255Z" fill="#D3D5E2"/><path d="M356.461 259.693s1.785 28.571 2.422 34.311c.51 5.74 3.06 10.332 8.032 10.715 4.08.255 7.012-2.424 7.012-2.424l-8.159-43.367-9.307.765Z" fill="#FF897F"/><path d="M360.67 247.576s-.893.51-1.53 1.658c0 0-1.403.383-2.295 2.041 0 0-.51.638-1.275 2.168-.765 1.531 1.275 7.526 1.275 7.526l9.179-.766s1.658-3.571 2.04-5.357c.383-1.785-.765-3.826-1.147-4.464-.383-.638-1.02-.51-1.275.127-.255.638.255 3.062.255 3.062l-.638.893s-1.02-1.148-.892-2.934c.127-1.786 2.677-6.25 1.785-7.526-.893-1.275-3.06 2.679-3.06 2.679s-1.275.383-2.422.893Z" fill="#FF897F"/><path d="m374.688 324.106 2.422 60.332h27.41s8.287-50 5.864-60.714c-.127.127-22.82 3.444-35.696.382Z" fill="url('#paint11_linear_986_4166')"/><path d="M384.76 455.867s-3.314 1.53-7.012 2.806c-3.697 1.275-7.521 2.806-7.521 4.719 0 1.913 13.386 1.531 23.075 1.403 9.689-.127 10.072-.51 10.327-1.275.382-.766-1.913-9.184-1.913-9.184s-9.179 3.189-13.386 3.189c-4.08 0-3.57-1.658-3.57-1.658Z" fill="#282E4E"/><path d="M389.987 254.591s-2.295 1.403-5.737 1.786M357.352 260.076l5.482-.765" stroke="#BA6561" stroke-miterlimit="10" stroke-linecap="round" stroke-linejoin="round"/><path d="M210.482 458.674h-16.701v9.821h16.701v-9.821Z" fill="#FF897F"/><path d="M193.777 467.348s-.255 10.586 0 12.372c0 0 8.287.51 12.494.51 4.207 0 16.064.511 19.889-.51 3.697-.893 2.294-2.423 1.402-3.954-.892-1.531-17.339-8.418-17.339-8.418s-9.561 1.403-16.446 0Z" fill="#282E4E"/><path d="M185.492 326.276s-.51 14.414 0 34.694c.51 20.153 5.61 100.893 5.61 100.893l21.673 1.021 8.032-136.608h-35.315Z" fill="url('#paint12_linear_986_4166')"/><path d="m208.446 213.776 1.402 4.337s3.442 0 3.825 1.148c.382 1.148-1.785 2.933-1.785 2.933s2.295 9.184-.255 13.393c-2.55 4.209-18.104 1.914-18.104 1.914s-6.374-.638-9.944-7.781c-3.57-7.143-6.119-12.5-4.717-19.643.765-4.209 8.287-7.015 15.426-6.76 6.375 0 12.112 4.337 14.152 10.459Z" fill="#FF897F"/><path d="m202.577 236.607 1.02 9.439-15.681-2.168-1.275-9.949 15.936 2.678Z" fill="#FF897F"/><path d="M202.831 206.123s-2.423 3.954-7.777 6.123c0 0 1.912 7.525.382 8.291-1.402.892-1.402-1.148-4.334-1.403-2.933-.256-3.188 3.443-2.295 6.887.892 3.317 4.462 4.209 5.737 3.954 1.275-.255 1.657 1.276-.893 3.572-2.549 2.296-6.629 4.592-6.629 4.592s-11.474-10.587-13.514-15.944c-2.04-5.357 0-8.419 0-8.419s-1.402-7.015 4.335-10.586c5.737-3.572 17.338-4.337 22.055-3.954 4.718.51 4.335 3.061 4.335 3.061s2.04.127 2.932 2.678c.893 2.551-1.02 4.592-1.02 4.592s-1.912-2.551-3.314-3.444Z" fill="#282E4E"/><path d="M187.662 242.349s-6.374 9.183-9.306 18.75c-2.933 9.566 7.139 65.306 7.139 65.306h35.187s-1.02-54.082-3.697-63.521c-3.315-11.989-13.514-17.857-13.514-17.857l-15.809-2.678Z" fill="url('#paint13_linear_986_4166')"/><path d="m198.242 327.17-.765 130.867M190.844 458.036h22.565" stroke="#F96786" stroke-miterlimit="10" stroke-linecap="round" stroke-linejoin="round"/><path d="M180.521 258.675c-4.972 9.056-14.278 27.551-19.505 47.066l14.788 5.995 23.586-43.112c1.657-2.934 1.785-6.506.382-9.567 0-.127-.127-.127-.127-.255-3.825-7.525-14.916-7.653-19.124-.127Z" fill="url('#paint14_linear_986_4166')"/><path d="M204.234 334.95s3.698.765 3.698 0-1.913-1.658-3.953-1.658h-1.657v-.383l1.53-.255s3.442 1.275 3.57.638c.255-.638-2.295-2.551-3.825-2.424-.892 0-2.04.255-2.932.51l-1.658.128c1.275-.765 2.423-1.276 2.168-1.786-.383-.638-1.02-.51-3.188.383-1.402.51-2.677 1.403-3.314 1.786h-.638l-18.486-20.026-14.788-5.995s-4.208 9.566 2.294 17.347c6.502 7.781 28.813 18.112 28.813 18.112 2.422 1.021 9.562-1.785 9.562-1.785l1.402-.255s3.697.765 3.697 0c0-.766-1.912-1.659-3.952-1.659h-1.02v-.127l2.04-.383s3.697.765 3.697 0-1.912-1.658-3.952-1.658h-1.657v-.128l2.549-.382Z" fill="#FF897F"/><path d="M196.078 235.46s3.57 2.679 6.757 2.551M194.164 331.89s1.912 4.209 1.657 5.995" stroke="#BA6561" stroke-miterlimit="10" stroke-linecap="round" stroke-linejoin="round"/><path d="M482.794 254.465s-9.944 17.985-16.956 32.27l-18.996-15.561-1.148-1.403c-.255-.893-.765-1.913-1.402-2.806-1.402-1.786-1.785-5.612-2.677-3.699-.51 1.02-.128 2.934.382 4.464l-3.952-.255c-.892-.255-4.462-1.403-6.629-1.275-2.55.127-1.913 1.147-1.785 1.403.127.127 3.442.51 5.737 1.403l-.128.127c-1.53-.382-3.824-1.02-5.354-.893-2.55.128-1.913 1.148-1.785 1.403.127.128 3.952.638 6.247 1.659v.127c-1.53-.383-3.442-.765-4.845-.765-2.55.127-1.912 1.148-1.785 1.403.128.127 3.188.51 5.482 1.403-1.147-.128-2.422-.255-3.442-.128-2.55.383-1.785 1.276-1.657 1.403.127.128 2.422.256 4.589.766l8.925 3.061c2.804 5.102 12.876 21.939 22.31 26.275 2.933 1.276 6.757-.255 8.797-2.678l11.092-13.776-1.02-33.928ZM487.896 425.255l2.933 32.525-5.227 5.995s1.657 4.975 17.466-.765l-1.658-7.143s2.168-22.704 1.658-29.719l-15.172-.893ZM525.758 425.255l7.267 32.525.765 6.25s6.502 7.526 16.191 2.551l-6.757-10.714-2.805-30.612h-14.661Z" fill="#FF897F"/><path d="M486.239 462.756s-10.326 7.781-10.454 9.439c-.127 1.53.765 2.041 3.315 2.296 2.55.255 15.681-1.658 20.271-2.551 4.589-.893 4.844-1.786 4.844-1.786s.51-3.699-1.53-8.674c0 0-3.824 3.572-13.641 3.062-2.04-.128-2.805-1.786-2.805-1.786ZM533.281 460.076s.128 10.077 1.53 12.883c1.403 2.806 8.032 4.719 11.347 5.74 3.314 1.02 11.346 1.53 12.621-1.276 1.275-2.806-8.924-10.842-8.924-10.842s-6.247 1.021-9.562.638c-3.315-.383-7.012-7.143-7.012-7.143Z" fill="#464F96"/><path d="M532.257 341.455c-1.785-9.184-4.717-17.857-9.689-25.638l-2.805-13.648c2.55-7.015 10.709-30.612 10.581-46.046l-19.633-5.739-10.837-.383s-6.501 1.275-17.211 4.464c0 0-4.844 19.133-4.207 28.317.51 6.505 2.295 13.392 3.315 16.964l-.255 16.582-2.55 134.056 27.283 2.168-1.02-96.301 2.167.893 16.446 97.704 26.008-3.316c.128-.128-15.808-100.511-17.593-110.077Z" fill="url('#paint15_linear_986_4166')"/><path d="M496.053 251.404s-3.06 2.678-1.275 4.974c1.657 2.296 5.992-.51 5.992-.51s3.824 3.444 8.542 2.041c4.717-1.275 5.737-6.633 5.737-6.633" stroke="#F96786" stroke-miterlimit="10" stroke-linecap="round" stroke-linejoin="round"/><path d="M530.726 256.123s-8.287 9.056-8.67 18.24c-.382 7.525 14.917 23.214 20.144 29.847l-19.761 17.857-.638.127c-.382-.255-1.02-.51-2.294-.892-1.913-.511-4.463-.255-4.718 0-.255.255 0 .637.893.765a14.47 14.47 0 0 0 1.785.127l.765.511-3.315.51c-1.147 0-3.315.127-4.59.51-1.912.51-3.824 1.913-3.442 2.679.383.637 2.677-.383 3.697-.893h3.443l.127.127c-1.02.128-2.295.255-3.06.383-1.912.51-3.824 1.913-3.442 2.679.383.637 2.677-.383 3.697-.893h4.207v.127c-.892.128-1.912.255-2.549.383-1.913.51-3.825 1.913-3.443 2.679.383.637 2.678-.383 3.698-.893h3.697c-.383 0-.765.127-1.148.255-1.912.51-3.824 1.913-3.442 2.678.383.638 2.677-.382 3.697-.893h2.168s6.374.766 9.051-3.443c4.59-2.169 25.753-15.307 28.176-19.898 3.569-7.016-24.733-52.679-24.733-52.679Z" fill="#FF897F"/><path d="M488.021 232.016s-2.805 8.928-2.423 14.923c.383 5.867 5.992 4.719 7.522 4.209 1.403-.51 3.57 2.041 5.355 1.148 1.785-.765-.638-5.357-.638-5.357l-9.816-14.923Z" fill="#282E4E"/><path d="m497.453 244.005.383 11.225s1.147.893 4.334.893c3.187 0 7.905-3.062 7.905-3.062l-.638-11.224-11.984 2.168Z" fill="#FF897F"/><path d="M516.064 227.679c-1.02-.127-1.785.128-2.422.383.637-5.485.51-10.204.51-10.204l-25.88-1.531s-1.658 13.265-.255 20.919c.637 3.698 3.059 6.505 5.354 8.418 2.932 2.423 6.757 2.934 10.199 1.275 2.805-1.275 6.12-3.571 7.65-7.398 0-.127.127-.382.127-.51 1.275-.382 3.442-1.403 5.227-3.061 3.187-2.934 3.57-8.036-.51-8.291Z" fill="#FF897F"/><path d="M497.206 222.577c4.972 2.168 11.601 1.02 11.601 1.02s-1.02 3.316-.255 5.995c.765 2.679 2.422 2.934 2.422 2.934s1.913-4.337 4.463-3.954c2.549.382 1.657 5.357-.255 7.525-1.913 2.041-3.953 2.041-3.953 2.041s-2.677 3.189-1.784 6.377c0 0 .509 6.888.637 8.546 0 0 1.02 1.148 3.57-.127 2.549-1.403 5.864 1.275 10.454-1.531 4.589-2.934 3.952-7.143 1.53-13.01-2.423-5.867-3.315-13.138-3.315-13.138s-.128-8.546-2.55-12.882c-2.422-4.337-6.629-5.995-11.601-7.016-4.972-1.02-8.67.893-8.67.893s-10.454 1.276-13.896 7.398c-6.119 11.097 1.912 15.434 1.912 15.434s3.443-4.209 4.335-11.607c-.127-.256 1.912 3.571 5.355 5.102Z" fill="#282E4E"/><path d="M483.812 288.265s7.14-2.423 11.475-2.423c4.334 0 15.808 3.826 15.808 3.826" stroke="#F96786" stroke-miterlimit="10"/><path d="M500.639 255.994s-1.529 7.271-1.274 12.373M494.523 349.362s9.945 2.551 13.004 7.781M522.953 449.235l26.135-3.061M479.227 445.025l27.155 2.807" stroke="#F96786" stroke-miterlimit="10" stroke-linecap="round" stroke-linejoin="round"/><path d="M542.203 304.21s5.61 1.02 7.777 2.168M465.711 286.606s.637 5.613 0 9.567M497.836 247.832s5.099 1.02 10.709-4.337" stroke="#BA6561" stroke-miterlimit="10" stroke-linecap="round" stroke-linejoin="round"/><path d="m72.157 424.362 3.187 30.23-3.187 15.689s-.765 1.148 6.374 2.296c7.14 1.148 10.964-1.786 10.964-1.786l-2.55-16.709 1.148-27.041-15.936-2.679ZM113.969 425.51l6.374 27.424 1.913 13.01 26.772.638-15.426-13.648-5.099-29.847-14.534 2.423Z" fill="#FF897F"/><path d="M74.195 460.843s1.275 4.464 5.864 4.974c7.012.766 7.904-4.719 7.904-4.719s2.423 9.821 2.55 12.117c.128 2.296-4.972 5.23-9.944 5.23-5.61 0-8.414-2.934-9.689-4.847-1.275-2.041 3.315-12.755 3.315-12.755ZM120.852 456.632s-.51 5.74 0 8.164c.51 2.423 1.02 3.954 1.657 4.081.51.128 9.944.638 12.239.638 2.295.128 12.749.51 15.936 0 3.187-.51 3.697-.638 4.207-2.041.51-1.403-14.151-8.29-14.151-8.29s-3.442 1.403-8.797 1.53c-5.354.383-8.797-4.209-11.091-4.082Z" fill="#464F96"/><path d="M89.364 227.423v10.714l-13.004-.893-2.04-15.051 15.044 5.23ZM159.359 239.923c-1.657-.51-3.824-.382-5.354-.127v-.638c2.294-.383 6.757-1.148 4.462-1.786-2.677-.765-6.885.383-6.885.383l-3.952-1.02c1.148-1.659 2.04-4.975 1.148-4.592-.893.382-4.208 5.102-5.227 6.25l-17.339 18.75-24.988-22.449c-2.677 2.806-3.442 16.581.51 23.214 3.952 6.505 24.861 14.286 24.861 14.286 8.286-.255 18.613-19.643 21.673-25.638l4.207-.128s1.147.001 2.04-.127c2.422-.255 5.609-.638 3.569-1.403-1.147-.383-2.422-.51-3.697-.51v-.511c2.295-.382 7.012-.892 4.717-1.658-1.402-.51-3.314-.382-4.844-.255v-.382c1.912-.256 7.649-.766 5.099-1.659Z" fill="#FF897F"/><path d="M93.442 196.939s4.59 16.072 4.973 23.087c.382 7.143-4.208 11.224-10.072 11.224-5.865 0-11.092-3.571-11.092-3.571l-7.394-13.648c-2.805-5.102-1.147-11.48 3.697-14.668 2.04-1.276 4.207-2.551 6.63-3.444 7.904-3.061 13.258 1.02 13.258 1.02Z" fill="#FF897F"/><path d="M72.158 214.669s-4.08-1.403-5.482 1.148c-1.402 2.551 1.912 6.633 4.717 8.036 2.805 1.403 7.012 0 7.012 0l-6.247-9.184Z" fill="#FF897F"/><path d="M116.525 305.739s-6.374 3.827-20.016 4.592c-5.737.383-11.856.128-17.21-.127-7.395-.383-12.877-1.021-12.877-1.021l2.04-26.148-10.454-42.857c4.59-3.699 17.848-6.76 17.848-6.76s5.992 4.592 11.857 4.082c2.04-.255 1.657-4.592 1.657-4.592s7.522-.51 10.837.893c.51.127.892.382 1.275.765 8.414 8.418 6.247 47.321 6.247 47.321l8.796 23.852Z" fill="url('#paint16_linear_986_4166')"/><path d="M91.529 196.429s-.638 3.699-4.462 7.653c-3.952 3.954-7.522 4.209-7.522 4.209s-1.02 2.168-2.55 3.189l-1.53 1.02s1.275 3.444.638 5.995c0 0-3.188-4.592-6.12-4.209s-4.207 3.699-2.167 6.377c1.912 2.679 5.864 3.699 6.757 3.699l1.02 7.143s-2.04.638-5.1-.382h-.127c-1.403-.638-3.06 1.403-6.12 1.53-3.06.128-3.57-1.785-6.12-1.02-2.549.765-7.394 1.658-9.051-3.444s2.422-6.633 1.02-9.694c-1.275-3.061.382-5.357 3.06-6.76 2.677-1.403 0-9.056 3.952-11.99 3.952-3.061 4.972-3.316 5.864-5.229.893-1.914 4.59-3.699 7.905-3.572 4.207.128 3.187-3.954 9.051-3.444 6.885.638 8.287 3.572 8.287 3.572s3.188-.128 6.63 2.933c5.737 4.975 4.59 11.607 1.912 16.199.127 0-3.442-11.989-5.227-13.775Z" fill="#282E4E"/><path d="m58.512 239.286-22.948 24.49-18.996-17.219c-1.02-1.148-4.844-5.485-5.737-5.868-1.02-.382.255 2.934 1.53 4.464l-3.824 1.404s-4.335-.766-6.885.255c-2.167.892 2.295 1.148 4.717 1.403v.637c-1.53-.127-3.697-.127-5.354.638-2.423 1.148 3.442 1.148 5.354 1.276v.382c-1.402 0-3.442 0-4.717.638-2.167 1.021 2.55 1.148 4.845 1.276v.51c-1.275.127-2.677.255-3.697.765-1.913.893 1.274 1.021 3.697 1.021h2.04l4.207-.256c3.57 5.868 15.426 24.235 23.713 23.725 0 0 24.35-12.883 27.665-19.77 3.442-6.888-2.677-17.092-5.61-19.771Z" fill="#FF897F"/><path d="m135.007 425.255-6.375 1.02-15.681 2.551-16.573-86.99-2.295-2.933v89.923H68.585s-6.757-63.265-6.757-82.398c0-19.132 4.972-41.964 4.972-41.964 25.116 7.781 48.574-1.913 48.574-1.913l.765 1.913c9.051 26.786 18.868 120.791 18.868 120.791Z" fill="url('#paint17_linear_986_4166')"/><path d="M35.57 263.776s3.825 4.082 5.482 6.761M126.205 257.144s-1.147 3.954 0 7.397M89.36 231.251s-9.051 1.275-13.258-5.74" stroke="#BA6561" stroke-miterlimit="10" stroke-linecap="round" stroke-linejoin="round"/><path d="m69.602 282.525 4.717 1.531" stroke="#F96786" stroke-miterlimit="10" stroke-linecap="round" stroke-linejoin="round"/><path d="M63.867 321.174s8.414-1.786 9.69-11.48" stroke="#7954B3" stroke-miterlimit="10"/><path d="M66.031 307.908s26.773 8.673 50.486-2.169M94.21 338.902s1.913-5.867 6.885-8.546" stroke="#7954B3" stroke-miterlimit="10"/><path d="M111.422 307.781s2.932 8.801 8.287 10.715M67.82 421.429s9.307 1.403 26.39 0M134.248 417.347s-11.857 2.933-22.693 3.444" stroke="#7954B3" stroke-miterlimit="10"/><path d="M72.406 234.311s5.61 5.358 13.77 5.358c8.158 0 5.481-7.016 5.481-7.016M79.164 266.583s11.984-2.424 22.438-2.807" stroke="#F96786" stroke-miterlimit="10" stroke-linecap="round" stroke-linejoin="round"/></g><defs><linearGradient id="paint0_linear_986_4166" x1="18.941" y1="360.5" x2="42.042" y2="393.94" gradientUnits="userSpaceOnUse"><stop stop-color="#DC911B"/><stop offset="1" stop-color="#E7B142"/></linearGradient><linearGradient id="paint1_linear_986_4166" x1="53.149" y1="398.527" x2="75.561" y2="398.527" gradientUnits="userSpaceOnUse"><stop stop-color="#DC911B"/><stop offset="1" stop-color="#E7B142"/></linearGradient><linearGradient id="paint2_linear_986_4166" x1="36.493" y1="395.929" x2="29.854" y2="430.971" gradientUnits="userSpaceOnUse"><stop stop-color="#DC911B"/><stop offset="1" stop-color="#E7B142"/></linearGradient><linearGradient id="paint3_linear_986_4166" x1="58.414" y1="379.033" x2="61.955" y2="439.916" gradientUnits="userSpaceOnUse"><stop stop-color="#FFE9EC"/><stop offset="1" stop-color="#A7A3D1"/></linearGradient><linearGradient id="paint4_linear_986_4166" x1="346.964" y1="465.072" x2="344.308" y2="426.843" gradientUnits="userSpaceOnUse"><stop stop-color="#DC911B"/><stop offset="1" stop-color="#E7B142"/></linearGradient><linearGradient id="paint5_linear_986_4166" x1="532.164" y1="324.612" x2="538.03" y2="436.837" gradientUnits="userSpaceOnUse"><stop stop-color="#FFE9EC"/><stop offset="1" stop-color="#A7A3D1"/></linearGradient><linearGradient id="paint6_linear_986_4166" x1="538.614" y1="388.432" x2="556.399" y2="402.76" gradientUnits="userSpaceOnUse"><stop stop-color="#FFE9EC"/><stop offset="1" stop-color="#A7A3D1"/></linearGradient><linearGradient id="paint7_linear_986_4166" x1="462.752" y1="432.747" x2="565.376" y2="432.747" gradientUnits="userSpaceOnUse"><stop stop-color="#DC911B"/><stop offset="1" stop-color="#E7B142"/></linearGradient><linearGradient id="paint8_linear_986_4166" x1="199.045" y1="226.826" x2="426.423" y2="109.854" gradientUnits="userSpaceOnUse"><stop stop-color="#7954B3"/><stop offset=".049" stop-color="#7153AE"/><stop offset=".213" stop-color="#5951A1"/><stop offset=".366" stop-color="#4B4F99"/><stop offset=".497" stop-color="#464F96"/><stop offset=".639" stop-color="#4A4F98"/><stop offset=".779" stop-color="#56519F"/><stop offset=".916" stop-color="#6952AA"/><stop offset="1" stop-color="#7954B3"/></linearGradient><linearGradient id="paint9_linear_986_4166" x1="137.666" y1="175.452" x2="119.252" y2="104.661" gradientUnits="userSpaceOnUse"><stop stop-color="#DC911B"/><stop offset="1" stop-color="#E7B142"/></linearGradient><linearGradient id="paint10_linear_986_4166" x1="435.158" y1="150.804" x2="490.329" y2="150.804" gradientUnits="userSpaceOnUse"><stop stop-color="#DC911B"/><stop offset="1" stop-color="#E7B142"/></linearGradient><linearGradient id="paint11_linear_986_4166" x1="402.351" y1="371.357" x2="381.106" y2="329.596" gradientUnits="userSpaceOnUse"><stop offset=".15" stop-color="#464F96"/><stop offset=".396" stop-color="#4A4F98"/><stop offset=".627" stop-color="#55509F"/><stop offset=".851" stop-color="#6852A9"/><stop offset="1" stop-color="#7954B3"/></linearGradient><linearGradient id="paint12_linear_986_4166" x1="249.506" y1="354.681" x2="174.472" y2="414.114" gradientUnits="userSpaceOnUse"><stop stop-color="#CD536C"/><stop offset="1" stop-color="#8B1F5A"/></linearGradient><linearGradient id="paint13_linear_986_4166" x1="217.248" y1="360.713" x2="191.75" y2="255.058" gradientUnits="userSpaceOnUse"><stop offset=".15" stop-color="#464F96"/><stop offset=".396" stop-color="#4A4F98"/><stop offset=".627" stop-color="#55509F"/><stop offset=".851" stop-color="#6852A9"/><stop offset="1" stop-color="#7954B3"/></linearGradient><linearGradient id="paint14_linear_986_4166" x1="176.422" y1="290.276" x2="194.277" y2="254.89" gradientUnits="userSpaceOnUse"><stop stop-color="#464F96"/><stop offset=".279" stop-color="#4A4F98"/><stop offset=".561" stop-color="#56519F"/><stop offset=".843" stop-color="#6A53AB"/><stop offset="1" stop-color="#7954B3"/></linearGradient><linearGradient id="paint15_linear_986_4166" x1="478.504" y1="352.398" x2="549.936" y2="352.398" gradientUnits="userSpaceOnUse"><stop stop-color="#CD536C"/><stop offset="1" stop-color="#8B1F5A"/></linearGradient><linearGradient id="paint16_linear_986_4166" x1="75.527" y1="236.782" x2="98.191" y2="322.438" gradientUnits="userSpaceOnUse"><stop stop-color="#CD536C"/><stop offset="1" stop-color="#8B1F5A"/></linearGradient><linearGradient id="paint17_linear_986_4166" x1="75.352" y1="302.146" x2="109.689" y2="431.92" gradientUnits="userSpaceOnUse"><stop stop-color="#464F96"/><stop offset=".279" stop-color="#4A4F98"/><stop offset=".561" stop-color="#56519F"/><stop offset=".843" stop-color="#6A53AB"/><stop offset="1" stop-color="#7954B3"/></linearGradient><clipPath id="clip0_986_4166"><path fill="#fff" d="M0 0h589v500H0z"/></clipPath></defs></svg>