<svg width="661" height="483" fill="none" xmlns="http://www.w3.org/2000/svg"><path d="M633.025 482.891c-13.629 0-88.783.027-183.013 0-24.319 0-49.941 0-76.075-.028h-13.859c-18.719 0-37.641-.028-56.513-.028H288.35l-89.857-.082c-112.437-.139-145.526-1.135-145.526-1.19-.23-.581-103.36-57.428-21.199-176.378 41.323-59.89-5.753-125.009 29.484-182.105 49.838-80.803 132.357-33.417 188.971-59.032 9.999-4.51 20.048-11.785 30.098-22.96 5.651-6.28 11.865-11.757 18.488-16.515 1.023-.72 2.046-1.439 3.094-2.13 3.964-2.656 8.081-5.035 12.325-7.193a120.892 120.892 0 0 1 8.72-4.011 143.202 143.202 0 0 1 14.448-5.062 150.28 150.28 0 0 1 21.531-4.537c3.196-.443 6.418-.802 9.691-1.051 63.264-5.118 134.429 23.652 171.174 65.7 7.391 8.464 41.017 52.282 14.525 112.476-16.749 38.009 53.393 74.33 78.299 117.733 63.34 110.375.972 184.954.409 186.393Z" fill="#D9E3F7"/><path d="M91.574 173.869s11.951-24.011 40.526-21.356c0 0 41.467-40.028 85.7-5.339 0 0 47.027-8.603 81.827 7.442 23.209 10.705 30.871 21.909 30.871 21.909l-238.924-2.656Z" fill="#F8FCFF"/><g opacity=".5" fill="#AEC3FF"><path opacity=".5" d="M237.832 365.739s-28.493-27.054-58.756-32.2c-4.012-.691-6.667 4.094-4.012 7.165.056.055.083.111.139.166 4.647 5.201 40.609 13.499 62.629 24.869Z"/><path opacity=".5" d="M246.82 372.793s-46.474-24.786-86.447-19.641c-2.434.305-4.287 2.462-4.066 4.924.138 1.605 1.134 3.431 3.983 5.256 7.58 4.869 55.216 2.822 86.53 9.461Z"/></g><g opacity=".5" fill="#AEC3FF"><path opacity=".5" d="M417.027 326.264s22.712-21.55 46.806-25.644c3.209-.553 5.311 3.237 3.181 5.699l-.111.111c-3.706 4.177-32.365 10.76-49.876 19.834Z"/><path opacity=".5" d="M409.867 331.879s37.013-19.751 68.853-15.657c1.936.249 3.43 1.964 3.237 3.928-.111 1.273-.913 2.739-3.182 4.205-6.03 3.873-43.984 2.241-68.908 7.524Z"/></g><path opacity=".3" d="M226.573 392.461s5.698 24.205 1.106 24.979c-4.592.775-4.398-27.414-4.398-27.414s-23.182-9.903-32.034-8.631c0 0 15.132 23.21 10.512 22.85-4.619-.36-21.494-23.79-21.494-23.79s-23.458-3.264-26.556 10.678c-3.126 13.942 3.209 20.581 6.694 21.273 3.486.691 25.588-.581 25.146 2.323-.443 2.905-15.187 8.161-23.624 5.948 0 0 10.207 22.268 22.213 20.581 12.006-1.688 15.408-9.323 22.85-10.235 7.441-.913 12.973.857 9.35 3.043-3.652 2.185-16.349 1.383-22.131 6.777-5.809 5.394-10.567 8.907.747 10.567 30.983 4.565 38.618-18.119 38.618-18.119s20.996-13.029 10.207-28.935c0 0-8.492-9.682-17.206-11.895Z" fill="#AEC3FF"/><path opacity=".5" d="M453.904 355.78c-2.766-14.08-26.418-11.397-26.418-11.397s-17.538 23.099-22.185 23.348c-4.648.248 11.148-22.656 11.148-22.656-8.88-1.494-32.393 7.856-32.393 7.856s-.526 28.327-5.09 27.441c-4.565-.885 1.743-25.062 1.743-25.062-8.825 1.992-17.594 11.508-17.594 11.508-11.231 15.712 9.516 29.322 9.516 29.322s-.387 9.821-7.22 20.637c0 0-1.521 1.991-3.154 5.394l2.352.166c.249-.609.498-1.217.774-1.77v-.028c.194-.36.443-.858.775-1.466a42.13 42.13 0 0 0 1.743-3.098c2.462-4.261 5.975-9.821 8.133-10.872 0 0-.222-.387-.415-1.106.138.359.276.719.415 1.106 3.43 8.935 23.485 11.784 34.882 10.263 11.397-1.522 6.722-5.035 1.024-10.595-5.699-5.56-18.451-5.09-22.047-7.386-3.597-2.268 2.019-3.9 9.46-2.822 7.442 1.107 10.678 8.853 22.684 10.844 12.006 1.992 22.822-20.111 22.822-20.111-8.548 2.02-23.182-3.651-23.569-6.556-.387-2.932 21.771-1.079 25.311-1.715 3.541-.664 10.07-7.137 7.303-21.245ZM299.684 446.957c1.3 2.932 18.285 4.315 26.528-.388 0 0-4.453 26.336-17.593 27.94-13.112 1.604-18.839-5.477-26.944-4.315-8.077 1.134-13.444 4.564-8.99 5.836 4.453 1.273 17.593-3.153 25.228.913 3.513 1.854 6.667 3.32 7.939 4.869h-10.069c-13.61 0-27.386 0-41.107-.028-.166-1.106-.332-1.715-.332-1.715s-25.782-7.801-18.921-27.58c0 0 6.196-12.586 14.772-17.372 0 0 .83 27.082 5.864 26.612 5.035-.471-3.098-30.097-3.098-30.097s21.605-16.958 31.287-18.12c0 0-9.406 28.687-4.62 26.999 4.758-1.687 15.934-31.093 15.934-31.093s23.762-10.041 30.982 3.762c7.22 13.804 2.407 22.573-1.051 24.288-3.458 1.688-27.082 6.584-25.809 9.489Z" fill="#AEC3FF"/><path d="M272.82 91.268s9.24-17.372 31.315-15.436c0 0 32.033-28.963 66.225-3.873 0 0 36.321-6.224 63.237 5.394 17.925 7.746 23.873 15.851 23.873 15.851l-184.65-1.936ZM415.836 62.83s4.703-9.46 15.961-8.409c0 0 16.349-15.768 33.749-2.102 0 0 18.507-3.375 32.227 2.932 9.157 4.205 12.172 8.63 12.172 8.63l-94.109-1.05ZM101.949 111.794s4.703-9.461 15.962-8.41c0 0 16.348-15.768 33.748-2.102 0 0 18.507-3.375 32.228 2.932 9.156 4.205 12.171 8.631 12.171 8.631l-94.109-1.051Z" fill="#F8FCFF"/><path d="M416.147 456.14c1.853.747 8.52.139 8.742-.387.221-.525-4.15-5.615-6.003-6.362a3.628 3.628 0 0 0-4.731 2.019c-.774 1.854.139 3.956 1.992 4.73ZM432.938 459.294c-1.052 1.715-1.522 8.382-1.024 8.686.498.304 6.197-3.181 7.248-4.896 1.051-1.715.498-3.956-1.217-5.007-1.716-1.051-3.956-.498-5.007 1.217ZM423.973 472.351c1.909.608 8.493-.498 8.686-1.051.166-.554-4.564-5.284-6.473-5.893a3.633 3.633 0 0 0-4.564 2.352c-.609 1.909.442 3.983 2.351 4.592Z" fill="#A8D29F"/><path d="M433.658 478.796c0-.138-.747-15.242-8.99-23.015l.166-.194c8.326 7.856 9.073 23.043 9.073 23.209h-.249ZM461.236 456.445c-1.161.775-5.754 1.273-5.975.941-.221-.332 2.047-4.371 3.181-5.145 1.162-.775 2.711-.443 3.486.719a2.501 2.501 0 0 1-.692 3.485ZM450.282 460.927c.94 1.023 2.185 5.477 1.909 5.754-.305.276-4.648-1.301-5.588-2.324-.941-1.024-.885-2.628.138-3.569 1.024-.94 2.573-.885 3.541.139ZM458.166 468.562c-1.217.691-5.837.829-6.031.498-.193-.332 2.352-4.205 3.569-4.897 1.217-.691 2.739-.249 3.43.968.692 1.19.249 2.739-.968 3.431Z" fill="#A8D29F"/><path d="M452.467 474.26c-.028-.111-1.605-10.456 2.932-16.874l-.138-.111c-4.565 6.501-2.96 16.902-2.96 17.013l.166-.028ZM444.309 477.911l-.525-.083c-2.075-26.777-10.236-46.003-10.374-46.252l.47-.194c.139.249 8.355 19.586 10.429 46.529Z" fill="#A8D29F"/><path d="M427.88 428.893c.996 1.134 5.726 2.987 6.058 2.683.332-.277-.912-5.201-1.908-6.335-.996-1.134-2.739-1.245-3.901-.249-1.162.996-1.272 2.739-.249 3.901Z" fill="#CCDBFD"/><path d="M435.102 424.909c-.913 1.217-1.743 6.224-1.383 6.473.359.249 4.896-1.964 5.809-3.181a2.775 2.775 0 0 0-.553-3.873c-1.218-.913-2.96-.636-3.873.581Z" fill="#CCDBFD"/><path d="M440.55 430.221c-1.466-.388-6.417.663-6.528 1.078-.111.415 3.624 3.846 5.09 4.26 1.466.388 2.987-.47 3.375-1.936.387-1.494-.471-3.015-1.937-3.402Z" fill="#CCDBFD"/><path d="M437.202 436.832c-.138-1.521-2.904-5.781-3.319-5.726-.443.055-2.324 4.758-2.158 6.252.138 1.521 1.494 2.628 3.015 2.489 1.494-.138 2.601-1.493 2.462-3.015Z" fill="#CCDBFD"/><path d="M429.678 436.528c1.355-.72 4.26-4.869 4.066-5.256-.193-.388-5.256-.36-6.611.359a2.757 2.757 0 0 0-1.162 3.735 2.75 2.75 0 0 0 3.707 1.162Z" fill="#CCDBFD"/><path d="M434.654 431.413a.913.913 0 1 0-1.803-.29.913.913 0 0 0 1.803.29Z" fill="#163560"/><path d="M444.146 450.553c-1.494 1.853-3.126 9.571-2.6 10.014.526.442 7.773-2.739 9.267-4.565 1.494-1.853 1.217-4.564-.636-6.058-1.798-1.521-4.509-1.245-6.031.609ZM414.49 480.65h-.36c-3.735-17.594-10.844-29.627-10.927-29.793l.304-.166c.083.166 7.248 12.282 10.983 29.959Z" fill="#A8D29F"/><path d="M399.281 449.557c.775.664 4.067 1.466 4.26 1.245.194-.221-1.051-3.375-1.825-4.039a1.842 1.842 0 0 0-2.601.194 1.816 1.816 0 0 0 .166 2.6Z" fill="#CCDBFD"/><path d="M403.734 446.293c-.498.885-.609 4.288-.36 4.426.249.138 3.071-1.743 3.569-2.628.498-.885.166-2.019-.72-2.517-.885-.498-1.991-.166-2.489.719Z" fill="#CCDBFD"/><path d="M407.795 449.336c-1.023-.139-4.205.996-4.232 1.3-.028.276 2.738 2.241 3.762 2.379a1.844 1.844 0 0 0 2.075-1.577c.11-1.023-.609-1.964-1.605-2.102Z" fill="#CCDBFD"/><path d="M406.165 454.038c-.222-.995-2.435-3.568-2.711-3.513-.277.056-1.107 3.348-.886 4.343.222.996 1.218 1.605 2.213 1.384a1.86 1.86 0 0 0 1.384-2.214Z" fill="#CCDBFD"/><path d="M401.13 454.481c.83-.581 2.406-3.596 2.24-3.845-.166-.249-3.54.221-4.37.83a1.853 1.853 0 0 0-.443 2.572c.581.83 1.743 1.024 2.573.443Z" fill="#CCDBFD"/><path d="M404.002 450.624a.609.609 0 1 0-1.217-.033.609.609 0 0 0 1.217.033Z" fill="#163560"/><path d="M411.973 462.503c-.83 1.356-1.217 6.639-.83 6.861.387.248 4.924-2.49 5.754-3.846a2.872 2.872 0 0 0-.941-3.955c-1.383-.83-3.153-.415-3.983.94ZM471.285 478.326l.47-.083c1.854-23.845 9.129-40.968 9.24-41.19l-.415-.193c-.111.249-7.441 17.483-9.295 41.466Z" fill="#A8D29F"/><path d="M485.915 434.674c-.885 1.024-5.09 2.656-5.394 2.407-.277-.249.802-4.62 1.715-5.644.913-1.023 2.462-1.106 3.458-.221a2.426 2.426 0 0 1 .221 3.458Z" fill="#CCDBFD"/><path d="M479.469 431.106c.802 1.078 1.549 5.532 1.245 5.781-.305.221-4.371-1.743-5.173-2.822a2.462 2.462 0 0 1 .498-3.43c1.078-.802 2.628-.608 3.43.471Z" fill="#CCDBFD"/><path d="M474.655 435.864c1.3-.36 5.726.581 5.837.968.11.387-3.209 3.43-4.537 3.79a2.46 2.46 0 0 1-3.015-1.715c-.388-1.356.387-2.711 1.715-3.043Z" fill="#CCDBFD"/><path d="M477.614 441.756c.138-1.356 2.573-5.145 2.96-5.118.387.028 2.047 4.233 1.936 5.588-.138 1.356-1.327 2.352-2.683 2.213a2.473 2.473 0 0 1-2.213-2.683Z" fill="#CCDBFD"/><path d="M484.313 441.451c-1.189-.636-3.789-4.315-3.596-4.675.194-.332 4.703-.304 5.892.332 1.19.637 1.66 2.13 1.024 3.32a2.459 2.459 0 0 1-3.32 1.023Z" fill="#CCDBFD"/><path d="M480.826 437.576a.802.802 0 1 0-.253-1.585.802.802 0 0 0 .253 1.585Z" fill="#163560"/><path d="M470.204 460.345c1.327 1.632 2.766 8.52 2.296 8.908-.471.387-6.916-2.435-8.244-4.067-1.328-1.632-1.079-4.066.553-5.394a3.803 3.803 0 0 1 5.395.553ZM395.621 482.503s2.656-6.943 12.255-7.386c9.599-.442 16.21 5.228 24.149 2.628 7.94-2.628 21.079-8.548 33.5-4.592 12.421 3.928 14.523 9.378 14.523 9.378h-84.427v-.028ZM91.502 482.448H108.1c.885-.747-.609-2.462-2.185-2.573-.692-.055-1.549.083-2.545.305-.222-3.043-1.522-16.653-6.446-16.128-5.532.609 0 6.003 1.55 9.184 1.161 2.352 2.378 5.754 2.932 7.359-.443.11-.913.193-1.383.276-.72-2.24-3.458-9.82-6.916-9.377-4.067.525-2.434 3.54.442 5.339 2.103 1.327 4.703 3.208 5.948 4.121-1.051.166-2.13.277-3.237.249-2.821-.027-4.232.802-4.758 1.245ZM532.382 481.867h-16.598c-.885-.747.608-2.462 2.185-2.572.692-.056 1.549.083 2.545.304.221-3.043 1.522-16.653 6.446-16.128 5.532.609 0 6.003-1.55 9.184-1.161 2.352-2.379 5.754-2.932 7.359.443.11.913.193 1.383.276.72-2.24 3.458-9.82 6.916-9.377 4.066.525 2.434 3.541-.443 5.339-2.102 1.327-4.702 3.208-5.947 4.121 1.051.166 2.13.277 3.237.249 2.821-.055 4.204.803 4.758 1.245Z" fill="#A8D29F"/><path fill-rule="evenodd" clip-rule="evenodd" d="M327.823 143.551s63.791-72.145 108.743-10.457c13.817 18.969 8.42 42.651-5.685 66.356 0 0-36.26 10.969-60.108 10.788-15.223-.115-26.648-5.361-37.914-10.533-12.198-5.599-24.209-11.113-40.649-9.937-24.877 1.779-39.649 6.777-60.494 20.47-19.875-30.074-30.154-61.184-11.833-83.479 48.465-58.977 107.94 16.792 107.94 16.792Z" fill="url('#paint0_linear_347_775')"/><path d="M231.716 210.238c32.7 49.483 91.377 96.164 91.377 96.164s76.003-53.535 107.788-106.952c0 0-36.26 10.969-60.108 10.788-15.223-.115-26.648-5.361-37.914-10.533-12.198-5.599-24.209-11.113-40.649-9.937-24.877 1.779-39.649 6.777-60.494 20.47Z" fill="url('#paint1_linear_347_775')"/><path d="M416.101 155.214c-4.758 1.521-9.958-.332-12.614-4.537-2.877-4.509-7.497-9.682-14.246-11.231-4.537-1.024-7.386-5.533-6.335-10.07 1.023-4.536 5.532-7.385 10.069-6.334 14.606 3.319 22.988 14.91 27.082 22.683 1.909 3.652.028 8.216-3.956 9.489ZM308.436 282.408c-8.41-8.106-31.176-33.334-31.176-33.334-3.679-3.569-9.018-12.061-5.45-15.74 3.569-3.68 13.859 5.671 17.538 9.239 0 0 16.487 20.111 25.755 26.805 10.152 7.359 14.301 13.085 10.733 16.764-1.798 1.881-10.014 3.403-17.4-3.734Z" fill="#fff" fill-opacity=".5"/><path d="M176.98 269.665c1.383 6.141 4.121 17.981 14.44 32.283 7.469 10.318 21.632 25.56 35.519 45.477 10.014 14.357 15.823 22.85 19.004 27.553 2.268 3.347 3.845 7.081 4.62 10.982l-24.012 72.145 57.097 5.007s21.521-75.16 21.521-106.668v-.028c0-3.652.028-7.552.139-11.702.415-19.281 6.002-34.495-49.738-35.021-.222 0-.443-.166-.692-.249-2.185-.83-5.505-2.351-10.373-6.307a73.506 73.506 0 0 1-2.601-2.185c-5.449-4.813-10.595-8.603-15.463-11.591-25.367-15.74-50.734-25.284-49.461-19.696Z" fill="#FFB27D"/><path d="M172.997 233.067c.829-9.073 7.579-37.566 7.579-37.566s6.612 1.522 9.018 5.754c7.082 12.365 4.758 36.792 4.399 36.93 0 0 11.507 22.158 13.472 36.404 0 0 30.567 16.598 37.012 28.493.388.719.692 1.439.941 2.13.885 2.683 1.245 6.335 1.189 10.401-.221 14.413-5.919 33.943-14.44 32.421-2.102-.387-51.287-55.381-53.334-65.063-.442-2.268-6.279-45.063-5.836-49.904Z" fill="#FFB27D"/><path d="M252.468 294.783s1.467 13.998-13.029 1.715l-1.162 16.072 20.194 10.733 6.861-11.812-12.864-16.708Z" fill="#FFB27D"/><path d="M182.018 209.582a5.149 5.149 0 0 0 .554-1.743s.774-5.533 1.327-9.572c.36-2.683-1.438-4.841-2.434-5.228-.636-.249-4.592 10.097-4.758 19.862 2.324.028 4.315-1.411 5.311-3.319Z" fill="#FFC69F"/><path d="M207.492 274.589c6.612 2.158 46.806 29.516 48.991 30.346 5.035 6.363 5.865 15.74 3.43 16.792-3.319 1.41-10.705-1.439-15.629-5.948-6.612-6.058-8.52-14.053-10.484-18.479-.886-1.992-6.75-4.896-8.963-7.828-5.865-7.691-16.598-14.302-17.345-14.883Z" fill="#F6A56E"/><path d="M284.418 300.703s-52.338-42.158-58.119-52.864c0 0-9.212 3.32-5.533 17.317 3.679 13.97 29.406 39.088 30.955 48.991 5.781 37.207 26.916 48.659 26.916 48.659s57.345-20.47 5.781-62.103Z" fill="#FFB27D"/><path d="M229.647 263.441c-.47-.387-.913-.83-1.244-1.355 0 0-3.099-4.758-5.367-8.244-1.494-2.296-1.024-5.283 1.134-7.054.526-.442.858-.636.858-.636 2.545 2.185 9.101 6.279 13.471 15.132-2.406 1.715-7.109 3.513-8.852 2.157Z" fill="#FFC69F"/><path d="M303.564 403.969s-.249 6.943-.664 17.98c0 .277-.028.581-.028.886-.581 15.076-1.466 37.317-2.462 59.751-33.167-.027-65.976-.055-97.207-.083 9.212-18.395 24.869-48.299 34.385-66.335 4.509-8.576 7.635-14.468 7.995-15.159.027-.056.027-.083.027-.083a11.7 11.7 0 0 1 1.771-2.075 14.31 14.31 0 0 1 2.932-2.213c8.769-5.145 23.375-2.711 35.049.692 5.394 1.576 10.152 3.347 13.444 4.647a134.64 134.64 0 0 1 4.426 1.881c.221.055.332.111.332.111Z" fill="#02CECB"/><path d="M302.871 422.835s-23.099 6.251-36.46 6.445l-4.924-9.184-4.315 7.746s-16.875-5.118-20.305-10.125l11.757-21.162 54.745 1.106-.498 25.174Z" fill="#069E9C"/><path d="M301.902 385.96s7.109 16.542 8.631 36.128c0 0-27.829 3.098-41.079 1.466l-5.81-22.988-8.437 19.973s-15.325-1.992-20.664-6.114c0 0 9.931-16.985 16.183-28.244-.028-.027 25.782 7.746 51.176-.221Z" fill="#F3F8FF"/><path d="M285.06 417.634c.691-1.272.166-2.822-1.19-3.486-1.355-.663-2.987-.165-3.679 1.107-.692 1.273-.166 2.822 1.189 3.486 1.356.663 3.016.166 3.68-1.107Z" fill="#02CECB"/><path d="M468.911 269.665c-1.383 6.141-4.122 17.981-14.44 32.283-7.469 10.318-21.633 25.56-35.519 45.478-10.014 14.357-15.823 22.849-19.005 27.552-2.268 3.347-3.845 7.081-4.619 10.982l24.011 72.145-57.096 5.007s-21.522-75.16-21.522-106.668v-.028c0-3.652-.028-7.552-.138-11.701-.415-19.281-6.003-34.496 49.738-35.022.221 0 .442-.166.691-.249 2.186-.829 5.505-2.351 10.374-6.307a73.513 73.513 0 0 0 2.6-2.185c5.45-4.813 10.595-8.603 15.464-11.591 25.366-15.74 50.733-25.284 49.461-19.696Z" fill="#FFB27D"/><path d="M472.894 233.067c-.83-9.073-7.58-37.566-7.58-37.566s-6.611 1.522-9.018 5.754c-7.082 12.365-4.758 36.792-4.398 36.93 0 0-11.508 22.158-13.472 36.404 0 0-30.568 16.598-37.013 28.493a15.74 15.74 0 0 0-.941 2.13c-.885 2.683-1.244 6.335-1.189 10.401.221 14.413 5.92 33.943 14.44 32.421 2.102-.387 51.287-55.381 53.334-65.063.442-2.268 6.279-45.063 5.837-49.904Z" fill="#FFB27D"/><path d="M393.414 294.783s-1.466 13.998 13.029 1.715l1.162 16.072-20.194 10.734-6.86-11.812 12.863-16.709Z" fill="#FFB27D"/><path d="M463.873 209.582a5.17 5.17 0 0 1-.553-1.743s-.775-5.533-1.328-9.572c-.359-2.683 1.439-4.841 2.434-5.228.637-.249 4.593 10.097 4.758 19.862-2.323.028-4.315-1.411-5.311-3.319Z" fill="#FFC69F"/><path d="M438.398 274.589c-6.612 2.158-46.806 29.516-48.991 30.346-5.035 6.363-5.865 15.74-3.43 16.792 3.319 1.41 10.705-1.439 15.629-5.948 6.611-6.058 8.52-14.053 10.484-18.479.885-1.992 6.75-4.896 8.963-7.828 5.865-7.691 16.598-14.302 17.345-14.883Z" fill="#F6A56E"/><path d="M361.466 300.703s52.338-42.158 58.119-52.864c0 0 9.212 3.32 5.533 17.317-3.679 13.97-29.406 39.088-30.955 48.991-5.781 37.207-26.916 48.659-26.916 48.659s-57.345-20.47-5.781-62.103Z" fill="#FFB27D"/><path d="M416.239 263.441c.471-.387.913-.83 1.245-1.355l5.367-8.244c1.494-2.296 1.023-5.283-1.134-7.054-.526-.442-.858-.636-.858-.636-2.545 2.185-9.488 6.667-13.859 15.491 2.102.913 7.497 3.154 9.239 1.798Z" fill="#FFC69F"/><path d="M442.764 482.642c-30.955 0-63.818 0-97.29-.028a10575.34 10575.34 0 0 1-2.462-59.779c0-.305-.028-.581-.028-.885-.415-11.01-.664-17.981-.664-17.981s.111-.056.305-.139c.636-.276 2.185-.968 4.426-1.881a142.241 142.241 0 0 1 13.444-4.647c11.701-3.403 26.279-5.865 35.049-.692a14.374 14.374 0 0 1 2.932 2.213 18.454 18.454 0 0 1 1.77 2.075s0 .028.028.083c.387.719 3.485 6.612 7.995 15.159 9.571 18.092 25.311 48.106 34.495 66.502Z" fill="#02CECB"/><path d="M343.045 422.835s23.098 6.251 36.459 6.445l4.924-9.184 4.316 7.746s16.874-5.118 20.304-10.125l-11.756-21.162-54.745 1.106.498 25.174Z" fill="#069E9C"/><path d="M343.982 385.96s-7.109 16.542-8.63 36.128c0 0 27.828 3.098 41.079 1.466l5.809-22.988 8.437 19.973s15.326-1.992 20.664-6.114c0 0-9.931-16.985-16.182-28.244.027-.027-25.782 7.746-51.177-.221Z" fill="#F3F8FF"/><path d="M360.828 417.634c-.692-1.273-.166-2.822 1.189-3.486 1.356-.664 2.988-.166 3.679 1.107.692 1.272.166 2.822-1.189 3.485-1.356.664-2.988.166-3.679-1.106Z" fill="#02CECB"/><path d="m139.568 480.706-.36-.056c-1.438-18.645-7.137-32.006-7.22-32.199l.332-.139c.083.166 5.809 13.638 7.248 32.394Z" fill="#A8D29F"/><path d="M128.111 446.57c.692.802 3.984 2.074 4.205 1.881.221-.194-.636-3.624-1.328-4.426-.691-.802-1.908-.858-2.711-.166a1.951 1.951 0 0 0-.166 2.711Z" fill="#CCDBFD"/><path d="M133.179 443.804c-.636.857-1.217 4.343-.968 4.509.249.193 3.403-1.356 4.039-2.213a1.907 1.907 0 0 0-.387-2.684c-.858-.636-2.075-.47-2.684.388Z" fill="#CCDBFD"/><path d="M136.941 447.51c-1.023-.276-4.481.471-4.564.747-.083.277 2.517 2.684 3.541 2.96a1.919 1.919 0 0 0 2.351-1.355 1.882 1.882 0 0 0-1.328-2.352Z" fill="#CCDBFD"/><path d="M134.615 452.102c-.111-1.051-2.02-4.011-2.324-3.983-.304.028-1.605 3.292-1.522 4.371a1.923 1.923 0 0 0 2.103 1.715c1.051-.111 1.853-1.024 1.743-2.103Z" fill="#CCDBFD"/><path d="M129.387 451.881c.94-.498 2.96-3.375 2.822-3.651-.139-.277-3.68-.249-4.62.249a1.921 1.921 0 0 0-.802 2.6c.498.94 1.659 1.3 2.6.802Z" fill="#CCDBFD"/><path d="M132.81 448.343a.637.637 0 1 0-1.259-.2.637.637 0 0 0 1.259.2Z" fill="#233862"/><path d="M137.848 453.624c-1.051 1.272-2.158 6.666-1.798 6.971.359.304 5.394-1.909 6.445-3.181 1.051-1.273.858-3.182-.442-4.205-1.273-1.079-3.154-.885-4.205.415ZM135.282 469.087c1.079.526 3.486 3.734 3.32 4.039-.138.304-4.15.387-5.256-.139-1.079-.525-1.522-1.825-.996-2.932a2.223 2.223 0 0 1 2.932-.968ZM150.031 480.705l.415-.055c1.66-21.411 8.188-36.764 8.271-36.958l-.387-.166c-.083.194-6.667 15.658-8.299 37.179Z" fill="#A8D29F"/><path d="M163.139 441.507c-.803.913-4.592 2.379-4.841 2.158-.249-.222.719-4.15 1.521-5.063.802-.913 2.185-.996 3.126-.193.913.802 1.024 2.185.194 3.098Z" fill="#CCDBFD"/><path d="M157.358 438.326c.719.968 1.383 4.979 1.106 5.173-.277.221-3.928-1.577-4.647-2.545a2.238 2.238 0 0 1 .442-3.099c.996-.691 2.379-.498 3.099.471Z" fill="#CCDBFD"/><path d="M153.019 442.586c1.162-.332 5.146.525 5.229.857.083.332-2.905 3.071-4.067 3.403-1.162.332-2.379-.36-2.711-1.549a2.232 2.232 0 0 1 1.549-2.711Z" fill="#CCDBFD"/><path d="M155.705 447.869c.11-1.217 2.323-4.619 2.655-4.592.36.028 1.854 3.79 1.743 5.007a2.206 2.206 0 0 1-2.407 1.992 2.205 2.205 0 0 1-1.991-2.407Z" fill="#CCDBFD"/><path d="M161.702 447.62c-1.079-.553-3.403-3.872-3.237-4.177.166-.304 4.205-.276 5.284.277 1.079.553 1.494 1.909.941 2.988a2.251 2.251 0 0 1-2.988.912Z" fill="#CCDBFD"/><path d="M158.593 444.139a.72.72 0 1 0-.227-1.42.72.72 0 0 0 .227 1.42Z" fill="#233862"/><path d="M150.139 458.824c1.19 1.466 2.49 7.663 2.075 7.995-.415.331-6.197-2.186-7.414-3.652-1.189-1.466-.968-3.651.498-4.841 1.466-1.189 3.652-.968 4.841.498ZM154.954 467.372c-1.245.608-3.984 4.288-3.818 4.647.166.36 4.786.47 6.031-.138a2.503 2.503 0 0 0 1.161-3.347c-.636-1.273-2.13-1.771-3.374-1.162ZM130.801 482.448s5.117-6.75 12.365-4.288c7.275 2.462 16.957.222 16.93 3.596l-29.295.692Z" fill="#A8D29F"/><defs><linearGradient id="paint0_linear_347_775" x1="306.18" y1="205.259" x2="437.44" y2="104.289" gradientUnits="userSpaceOnUse"><stop stop-color="#1E96FC"/><stop offset=".556" stop-color="#1E96FC" stop-opacity=".7"/><stop offset=".81" stop-color="#1E96FC" stop-opacity=".48"/><stop offset="1" stop-color="#1E96FC" stop-opacity=".16"/></linearGradient><linearGradient id="paint1_linear_347_775" x1="405.213" y1="195.715" x2="267.314" y2="306.505" gradientUnits="userSpaceOnUse"><stop stop-color="#FCF300"/><stop offset=".432" stop-color="#FCF300" stop-opacity=".66"/><stop offset=".765" stop-color="#FCF300" stop-opacity=".41"/><stop offset="1" stop-color="#FCF300" stop-opacity=".13"/></linearGradient></defs></svg>