<svg width="319" height="218" fill="none" xmlns="http://www.w3.org/2000/svg"><path d="M307.415 217.994c-6.619 0-43.116.013-88.877 0-11.809 0-24.252 0-36.944-.012h-6.73c-9.09 0-18.28-.013-27.444-.013h-7.389l-43.637-.037c-54.603-.062-70.672-.512-70.672-.537-.112-.262-50.194-25.925-10.295-79.624 20.068-27.036-2.794-56.433 14.319-82.208 24.203-36.478 64.276-15.086 91.769-26.65 4.856-2.035 9.736-5.32 14.617-10.365 2.744-2.834 5.762-5.307 8.978-7.455.497-.325.993-.65 1.502-.962a58.944 58.944 0 0 1 5.986-3.247 60.655 60.655 0 0 1 4.235-1.81 73.104 73.104 0 0 1 7.016-2.286A77.81 77.81 0 0 1 174.305.74c1.552-.2 3.117-.362 4.706-.474 30.723-2.31 65.282 10.677 83.127 29.659 3.589 3.821 19.919 23.602 7.054 50.776-8.134 17.159 25.929 33.555 38.024 53.149 30.76 49.827.472 83.495.199 84.144Z" fill="#D9E3F6"/><path d="M186.126 127.265c.024-1.257.993-3.4-.921-5.437-1.358-1.462-2.553-3.105-3.125-3.908-.207-.326-2.524 1.589-2.474 1.667.382.568 2.129 3.46 2.383 5.074.278 1.817 3.375 3.807 3.375 3.807s.755.047.762-1.203Z" fill="#F4A671"/><path d="m183.28 119.538-3.675.048s-5.746-9.129-5.922-12.025c-.17-2.766-5.693-14.87.773-22.427.291-.342.608-.675.951-.998.011-.013.024-.024.037-.034l.033.052c.131.22.644 1.154 1.247 3.216.942 3.224 2.108 9.21 2.383 19.548-.001 0 2.556 8.849 4.173 12.62Z" fill="#F4A671"/><path d="M171.814 71.074s-.397 1.079.189 1.502c.586.423-1.487 2.362-1.887 3.99-.4 1.63.101 2.495.101 2.495s-.06-.985.3-1.467c0 0-.386 1.119.253 1.95.64.831.264 1.255.264 1.255s2.03.033 2.523-1.348c0 0-.119.656-.266.898 0 0 1.981-.697 2.498-2.065.516-1.368-.45-2.97-1.051-3.185-.602-.215-1.581-1.85-1.401-2.293.18-.442-1.523-1.732-1.523-1.732Z" fill="#1A3151"/><path d="m172.279 187.213-2.379.891s-10.328-14.403-11.6-27.075c-.227-2.263-.152-4.454.339-6.479l-.277-1.605c-.081-.478-.183-1.054-.297-1.714-.336-1.934-.797-4.581-1.326-7.595-1.215-6.935-2.789-15.802-4.012-22.32l.64-.206 6.933-2.25 1.433-4.575 5.161-1.367s1.153 2.268 2.185 12.982c.19 1.406.363 2.955.493 4.636.401 5.129.431 11.493-.492 18.768a99.857 99.857 0 0 1-.906 5.761c-.272 1.448-.312 3.421-.199 5.687.522 10.363 4.304 26.461 4.304 26.461Z" fill="#B64C41"/><path d="m169.572 130.539-11.21 22.407c-.081-.478-.183-1.054-.297-1.714a4305.11 4305.11 0 0 0-1.326-7.595c-1.215-6.936-2.789-15.802-4.012-22.32l.64-.207 6.933-2.249 1.433-4.575 6.166-1.845s.149 2.746 1.18 13.46c.19 1.408.363 2.957.493 4.638Z" fill="#963333"/><path d="m176.981 64.315-11.195 9.113s-.327-1.978-1.479-1.674c-1.798.473-4.555-4.37-2.434-8.753.14-.286 1.863-4.623 7.377-5.169 7.089.547 7.731 6.483 7.731 6.483Z" fill="#1A3151"/><path d="M172.945 88.657c-1.365.636-3.013 1.07-5.007 1.18-7.475.412-9.171-6.176-9.481-10.55 1.077-.392 2.021-.356 2.565-.326.53.03 1.083.085 1.54.141.915-.48 2.556-2.813 3.506-6.715l.323.15 5.393 2.549s-.572 1.764-.996 3.452c-.33 1.321-.566 2.598-.369 2.955.425.175.679.283.679.283l.002.006c.055.14 1.228 3.145 1.845 6.875Z" fill="#FFB27D"/><path d="M174.818 93.59c-.057.15-.119.296-.186.447-1.893 4.1-7.038 17.643-7.038 17.643.5 3.054-21.179 2.836-21.24.057-.659-2.37 1.624-5.893 3.638-8.42.493-.617.969-1.171 1.381-1.638a6.778 6.778 0 0 0 1.664-3.759c.278-2.652.297-5.19.291-7.252-.003-1.003-.01-1.892 0-2.626.412-.308.81-.59 1.182-.86.567-.414 1.068-.804 1.435-1.198.406-.43.661-.87.69-1.365.02-.375.009-.76-.029-1.144a11.2 11.2 0 0 0-.069-.543c-.292-1.908-1.084-3.638-1.084-3.638 2.007-.816 5.572-.33 5.572-.33s-.003.2-.005.527c-.013 1.31 0 4.673.418 5.309.521.792 10.075 4.265 10.58 3.19.497-1.058-.864-6.015-.915-6.202l-.002-.006c.103.04.202.08.299.12.487.199.908.427 1.312.575 2.599.955 2.843 1.823 2.843 1.823-1.927 1.255.754 5.314-.737 9.29Z" fill="#EBB044"/><path d="M171.784 75.089s-.574 1.762-.996 3.453c-3.153-.885-4.109-4.216-4.397-6.003l5.393 2.55Z" fill="#ED985F"/><path d="M172.449 76.955s-7.542-1.755-6.382-6.46c1.159-4.705.966-8.102 5.831-7.18 4.864.923 5.354 2.95 5.347 4.616-.007 1.663-2.804 9.359-4.796 9.024Z" fill="#FFB27D"/><path d="M177.667 65.257c-.811-1.706-1.765-1.614-2.363-1.313-3.544-3.296-7.02-.603-7.02-.603-1.338 3.25-4.237 4.578-4.237 4.578s1.159 1.192 4.517 1.166c1.026-.008 2.058-.481 2.995-1.134-1.81 1.834-3.932 2.95-3.932 2.95 4.204-.81 7.022-5.703 7.312-6.222.356.529 1.037 1.654 1.094 2.605.077 1.291-.364 3.8.371 3.895.002 0 2.479-3.364 1.263-5.922Z" fill="#1A3151"/><path d="M179.722 191.606h-11.978s-.448-1.921.339-3.228c.696-1.156.638-1.859.123-2.816.543.223 1.034.471 1.808.426.597-.034 1.259-.458 1.813-.781.515.591 2.691 3.258 3.381 3.756.782.566 4.272.364 4.514 2.643Z" fill="#233862"/><path d="M158.344 104.358c-3.127-.222-6.104-.5-8.352-1.042.493-.617.969-1.171 1.381-1.638.264-.299.501-.619.708-.957.52-.846.85-1.803.955-2.802.279-2.652.298-5.19.292-7.253 2.728-3.07 5.017-5.564 5.017-5.564s5.083 4.683 5.87 9.349c.786 4.663 2.272 10.486-5.871 9.907Z" fill="#9B732A"/><path d="M159.602 78.84s3.691 4.396 2.899 10.995h1.529s.866-4.614-3.008-10.874c0 0-.506-.072-.67-.086-.19-.016-.75-.035-.75-.035ZM172.909 93.332l-1.485-.368c1.995-5.302.465-9.847-.026-11.066.487.2.924.394 1.312.576 2.059 6.758.199 10.858.199 10.858Z" fill="#963333"/><path d="M173.559 90.666s-7.364-1.928-9.441-2.465c-2.078-.536-2.242.698-2.242.698s-.29 4.02-.322 4.433c-.479 6.31-9.472 7.389-9.472 7.389s-2.324 2.91-4.316 5.771c-3.416 4.907-2.995 13.194-2.995 13.194a24.542 24.542 0 0 0-.011 3.275c.271 4.355.763 22.862 1.279 28.338a163.74 163.74 0 0 0 .417 3.967c.02.172-.039.334-.127.484a25.784 25.784 0 0 0-1.901 4.019c-5.054 13.541.778 30.218.778 30.218l1.514-.613s3.319-18.559 6.016-26.758c.458-1.391.897-2.484 1.298-3.137 1.173-1.903 2.261-5.012 3.249-8.709 1.866-6.991 3.369-16.087 4.369-23.106.138.006 1.234-9.428 4.837-13.767l1.411-1.453 4.473-11.05s1.235-7.345 1.608-8.579c.375-1.234-.422-2.15-.422-2.15Z" fill="#B64C41"/><path d="M162.617 89.272c0-.356.287-.643.64-.643a.642.642 0 0 1 0 1.286.641.641 0 0 1-.64-.643Z" fill="#ED7D2B"/><path d="M162.734 89.272c0-.356.287-.643.64-.643.354 0 .64.288.64.643a.64.64 0 1 1-1.28 0Z" fill="#F99746"/><path d="M162.997 89.151a.092.092 0 0 1 .118-.06.094.094 0 0 1 .06.118.093.093 0 0 1-.118.06.093.093 0 0 1-.06-.118ZM163.575 89.338a.093.093 0 0 1 .118-.06.093.093 0 0 1 .06.118.092.092 0 0 1-.118.06.093.093 0 0 1-.06-.118Z" fill="#2B478B"/><path d="M171.844 91.362c0-.356.287-.643.639-.643.354 0 .64.288.64.643a.641.641 0 0 1-.64.643.641.641 0 0 1-.639-.643Z" fill="#ED7D2B"/><path d="M171.961 91.362a.64.64 0 1 1 1.279 0 .641.641 0 0 1-.639.643.64.64 0 0 1-.64-.643Z" fill="#F99746"/><path d="M172.223 91.24a.094.094 0 0 1 .118-.06.093.093 0 0 1 .06.118.093.093 0 0 1-.118.06.094.094 0 0 1-.06-.118ZM172.801 91.428a.094.094 0 0 1 .118-.06c.05.015.076.068.06.118a.092.092 0 0 1-.117.06.095.095 0 0 1-.061-.118Z" fill="#2B478B"/><path d="M161.728 68.82s-.397 1.079.189 1.502c.586.423-1.486 2.362-1.887 3.991-.4 1.629.101 2.493.101 2.493s-.06-.986.3-1.468c0 0-.388 1.12.253 1.952.64.83.265 1.253.265 1.253s2.029.034 2.522-1.347c0 0-.119.657-.266.898 0 0 1.981-.697 2.498-2.066.516-1.368-.45-2.969-1.051-3.184-.602-.215-1.581-1.85-1.401-2.293.18-.442-1.523-1.73-1.523-1.73Z" fill="#1A3151"/><path d="M176.723 87.373c-1.711.253-2.404 1.273-2.404 1.273s-.147-2.163.137-3.509c.098-.47.25-.84.477-.98.104-.066.269-.066.474-.016a.84.84 0 0 1 .07.018c.131.218.644 1.151 1.246 3.214ZM200.674 127.516c-3.047.16-5.129-4.594-6.412-4.656-.21-.01-.611.049-1.124.125 1.264 2.084 2.229 4.534 2.765 7.227 1.827 9.169-2.022 17.676-8.596 18.998-6.393 1.286-13.01-4.698-15.046-13.464-.057-.246-.11-.493-.16-.743-.532-2.674-.581-5.291-.221-7.691l.002-.021a4.03 4.03 0 0 0-.614.197c-1.161.555-1.263 5.746-4.136 6.778-2.873 1.03-4.809-4.505-1.388-8.817 2.086-2.63 5.782-3.899 8.349-4.489a12.352 12.352 0 0 1 1.831-2.339l.076-.077a7.494 7.494 0 0 1-3.774-5.135 7.494 7.494 0 0 1-.103-2.283l-.019-.004a3.806 3.806 0 0 1-2.627-2.905c-.41-2.064.92-4.073 2.975-4.486a3.78 3.78 0 0 1 3.791 1.468 7.436 7.436 0 0 1 3.564-.772 3.803 3.803 0 0 1 2.924-2.766c2.054-.413 4.051.925 4.464 2.991a3.827 3.827 0 0 1-1.154 3.557 7.53 7.53 0 0 1 .835 2.251 7.51 7.51 0 0 1-1.298 5.913 11.98 11.98 0 0 1 3.1 1.643c2.575-.495 6.785-.898 9.902.826 4.809 2.654 5.14 8.511 2.094 8.674Z" fill="#EBB044"/><path d="M172.261 135.742c-.057-.245-.11-.493-.16-.743-.532-2.674-.581-5.291-.221-7.69.378-.443.88-.771 1.449-.499 1.258.6 1.06 6.659 2.98 8.057 1.424 1.035-2.137 1.047-4.048.875ZM179.565 117.658c-.722.269-2.262.75-3.642.963l.076-.077a7.496 7.496 0 0 1-3.775-5.134 7.496 7.496 0 0 1-.102-2.283.097.097 0 0 0-.02-.005c.076-.03.173.015.298.195.48.682 3.07 6.209 7.165 5.576 0-.001 1.07.366 0 .765ZM181.508 104.905s.96-1.797 2.384-1.332c1.424.466 1.623 2.531.696 3.096-.001.001-1.381-1.283-3.08-1.764ZM174.817 105.956s-2.053-.951-2.979.148c-.927 1.099.926 2.501.926 2.501s.893-1.864 2.053-2.649Z" fill="#9B732A"/><path d="m175.648 116.052-.661 2.462s-2.323-.851-3.521-1.306c-.359-.14-.562-.231-.562-.231-.957-.376-2.095-.859-3.337-1.378l-.018-.003c-2.118-.937-4.482-2.027-6.444-3.12-1.377-.783-2.553-1.567-3.322-2.276a2.299 2.299 0 0 1-.216-.223c-1.8-1.89-3.462-6.788-4.517-11.908-.147-.707-.278-1.411-.411-2.097-.456-2.547-.742-5.026-.803-7.132-.048-1.259-.026-2.395.1-3.31.04-.323.077-.628.146-.91.964-5.158 3.641-5.407 3.641-5.407.056-.008.113-.017.187-.022.455.01.862.396 1.234 1.07.471.84.894 2.149 1.29 3.709.596 2.48 1.125 5.647 1.585 8.783.259 1.72.499 3.437.761 5.029.137.963.286 1.872.428 2.707.28 1.595.558 2.896.863 3.742.194.55.884 1.393 1.824 2.372 1.63 1.712 4.078 3.866 6.226 5.654.889.75 1.735 1.437 2.438 2.005 1.136.924 3.089 1.79 3.089 1.79Z" fill="#FFB27D"/><path d="M158.739 84c-3.409-1.61-6.661.609-6.661.609.987-5.234 3.798-5.465 3.798-5.465 1.156-.238 2.08 1.807 2.863 4.857Z" fill="#EBB044"/><path d="M174.08 115.5s1.411.565 2.214.708c.803.143 2.041-.257 3.059.41 1.017.667 1.742 1.111 1.742 1.111s.247.379-.293.531c-.309.088-1.869-.905-1.935-.641-.067.265.993.858 1.607.891.616.034 1.738.576 1.738.976 0 .401-1.818 1.348-2.88 1.281-1.061-.066-3.242-1.948-3.795-2.081-.551-.134-2.873-1.065-2.873-1.065l1.416-2.121Z" fill="#FFB27D"/><path d="M154.004 191.607h-11.977s-.287-1.836.338-3.228c.599-1.335 1.65-1.998 1.425-3.613.761.787 1.808 1.547 3.54 1.312.211.347 1.451 2.375 2.16 2.887.783.565 4.274.363 4.514 2.642Z" fill="#233862"/><path d="M277.873 180.57s2.32 2.161 1.868 3.698c-.454 1.536-2.547 2.56-2.829 4.437-.284 1.878-1.415 2.902-2.434 2.902h-4.855s-.75-1.321 1.06-1.719c1.81-.398 2.493-2.605 2.381-4.652-.113-2.048.17-4.779.17-4.779l3.847-.91.792 1.023ZM248.955 191.398c-.177.09-.695.157-1.43.21h-11.744c.055-.379.363-1.465 2.083-1.747 2.028-.33 5.542-1.516 6.328-4.123.025-.086.046-.171.067-.258.623-2.787 5.15.854 5.15.854l.033.301c.104 1.021.372 4.33-.487 4.763Z" fill="#1A3151"/><path d="M238.402 116.83s.688 8.625 1.496 18.992c1.099 14.084 2.419 31.382 2.551 34.659.226 5.69 1.132 14.793 1.132 14.793s2.149 2.162 6.451 1.251c0 0 3.833-12.994 4.928-26.742l.052-.679c1.019-13.996 2.602-43.467 2.602-43.467l-19.212 1.193Z" fill="#145566"/><path d="M238.402 116.83s.688 8.625 1.496 18.992l15.061 23.961.052-.679c1.018-13.996 2.601-43.467 2.601-43.467l-19.21 1.193Z" fill="#0F3C48"/><path d="M241.543 117.855s12.392 31.235 20.541 45.913c8.149 14.679 10.695 18.774 10.695 18.774s4.668-1.877 5.093-3.158c0 0-3.116-28.337-8.573-35.245-3.084-3.903-6.706-15.617-6.876-19.713-.169-4.096-1.103-12.203-1.103-12.203l-19.777 5.632Z" fill="#145566"/><path d="M217.222 113.527s-4.373 2.11-4.962 2.652c-.588.541-2.041 3.201-1.93 3.401.111.201.329.262.726-.013.396-.275 1.509-1.427 1.549-1.213.041.214-2.969 3.775-2.436 4.529.532.753 3.55.531 5.271-.701 1.723-1.232 3.443-5.761 3.702-6.007 2.198-2.098-1.92-2.648-1.92-2.648Z" fill="#FFB27D"/><path d="M217.027 115.791c-1.213-1.062-1.246-1.331-1.246-1.331s7.754-13.482 8.428-14.778c.672-1.297 4.828-21.544 4.828-21.544l14.367-4.189s-10.12 26.311-11.887 29.563c-2.921 5.373-12.456 13.281-12.456 13.281s-1.08-.168-2.034-1.002Z" fill="#9B732A"/><path d="M236.083 68.68s-5.056 8.945-9.998 10.113c0 0 .205-3.004 1.409-5.06a54.882 54.882 0 0 1-1.299-1.601c-1.245-1.603-1.836-2.585-1.836-2.585l1.678-4.533 1.138-3.076a14.84 14.84 0 0 0 1.778 2.576c3.238 3.745 7.13 4.166 7.13 4.166Z" fill="#FFB27D"/><path d="M228.953 64.513s.604 4.483-2.758 7.617c-1.245-1.602-1.836-2.585-1.836-2.585l1.678-4.533c1.798-.55 2.916-.499 2.916-.499Z" fill="#ED975D"/><path d="M223.025 70.209s7.555-2.961 5.649-7.663c-1.906-4.702-2.216-8.25-7.12-6.559-4.904 1.692-5.108 3.867-4.851 5.593.255 1.725 4.307 9.278 6.322 8.629Z" fill="#FFB27D"/><path d="M262.051 114.58c-3.047 4.405-25.834 10.291-25.562 7.243a33.434 33.434 0 0 0-.002-6.013 39.4 39.4 0 0 0-.243-2.077c-.581-4.009-1.954-9.16-5.022-15.124a63.85 63.85 0 0 0-.717-1.353 46.312 46.312 0 0 1-3.159-7.136c-1.58-4.588-2.218-8.977-1.42-11.845.004-.016.006-.028.012-.04 4.763-2.214 6.608-10.801 6.608-10.801s16.249 2.932 25.353 24.708c0 0 .874 2.39 1.873 5.637 1.213 3.936 2.611 9.125 2.853 12.827.119 1.756-.027 3.18-.574 3.974Z" fill="#EBB044"/><path d="M229.757 53.81c.053-.104.207-.217.582-.332 0 0-.351-.12-.76-.03-.212-.52-.727-1.406-1.694-1.413 0 0 .554.146.759.703-1.325-.843-3.782-1.089-9.914.965-8.081 2.706-4.043 7.423-2.819 7.8 1.224.38 3.479-2.048 5.507-2.38 2.028-.332 3.126 2.51 3.898 2.745.774.235.334-.411 1.143-1.058.81-.647 1.275.875 1.257 1.945-.018 1.07 1.562 2.083 1.562 2.083l.925-1.707c.926-1.707.675-7.907-.21-9.022l-.236-.298Z" fill="#1A3151"/><path d="M262.625 110.603c-19.608-5.947-22.727-29.45-22.727-29.45s11.165 8.577 19.874 16.623c1.214 3.936 2.612 9.126 2.853 12.827Z" fill="#9B732A"/><path d="M268 111.375s-.442 3.73-.335 4.339c.107.608.813 2.419.989 2.43.176.009.709.031.695-.342-.014-.372-.255-.721-.101-.66.156.062.2 1.469.907 1.433.706-.036 2.788-.826 2.704-2.461-.084-1.634-2.301-4.629-2.354-4.901-.448-2.302-2.505.162-2.505.162Z" fill="#FFB27D"/><path d="M269.175 112.004c-1.556.716-2.133-.015-2.133-.015s-9.061-15.213-10.015-16.436c-.955-1.223-17.682-8.44-17.682-8.44s-6.808-2.616-7.077-6.768c-.234-3.608 1.804-5.825 4.035-7.162 2.659-1.593 6.022-1.358 8.466.55 5.488 4.284 16.365 12.903 18.115 15.24 3.896 5.201 8.215 21.505 8.215 21.505s-.702.962-1.924 1.526Z" fill="#EBB044"/><path d="m230.224 122.32-4.078 4.097-.056-.036-6.121-3.86s3.167 1.028 3.595.908c.404-.113 4.828-1.643 5.871-1.515a.405.405 0 0 1 .152.043l.637.363Z" fill="#4A75CB"/><path d="M225.963 127.533a51.875 51.875 0 0 1-1.311-.321c-1.9-.489-5.251-1.428-6.574-2.198-1.187-.69-7.457-4.356-11.777-6.931 1.723-.927 3.423-1.057 4.848-.877 5.044 2.977 11.633 6.885 12.44 7.455 1.326.938 3.134 2.072 3.134 2.072s-.007.052-.026.129c-.06.253-.249.775-.734.671Z" fill="#E58638"/><path d="M225.963 127.531a51.112 51.112 0 0 1-1.31-.321c-1.9-.49-5.252-1.429-6.574-2.198-1.188-.69-7.458-4.357-11.778-6.932-2.169-1.292-3.847-2.31-4.142-2.539-.881-.681-2.578-2.385-2.16-2.706.417-.321 1.231.003 1.537-.045l.013-.003c.072-.011.19-.03.353-.039.582-.035 1.739.045 3.384 1.001 0 0 2.61 1.533 5.865 3.454 5.043 2.976 11.633 6.885 12.44 7.454a82.926 82.926 0 0 0 3.134 2.073s-.007.052-.027.129c-.061.253-.249.776-.735.672Z" fill="#739AF0"/><path d="M225.963 127.529c-.164-.034-.65-.151-1.311-.32.086-.758-.441-1.361-.441-1.361l2.486 1.012c-.06.251-.249.774-.734.669Z" fill="#4A75CB"/><g opacity=".5" fill="#4A75CB"><path d="M220.575 124.31a.085.085 0 0 1-.029-.113l.045-.075a.084.084 0 0 1 .113-.029.084.084 0 0 1 .029.113l-.045.075a.085.085 0 0 1-.113.029ZM220.212 124.095a.083.083 0 0 1-.029-.113l.045-.075a.084.084 0 0 1 .113-.029.085.085 0 0 1 .029.113l-.045.075a.082.082 0 0 1-.113.029ZM219.849 123.88a.083.083 0 0 1-.029-.113l.044-.075a.083.083 0 0 1 .113-.028.082.082 0 0 1 .029.113l-.044.074a.083.083 0 0 1-.113.029ZM219.485 123.661a.083.083 0 0 1-.028-.113l.044-.074a.083.083 0 0 1 .142.084l-.044.074a.084.084 0 0 1-.114.029ZM219.122 123.446a.083.083 0 0 1-.029-.113l.045-.074a.083.083 0 0 1 .113-.029.084.084 0 0 1 .029.113l-.045.075a.083.083 0 0 1-.113.028ZM218.759 123.232a.083.083 0 0 1-.029-.113l.045-.075a.083.083 0 0 1 .113-.029.083.083 0 0 1 .028.113l-.044.075a.084.084 0 0 1-.113.029ZM218.392 123.013a.083.083 0 0 1-.029-.113l.044-.075a.085.085 0 0 1 .113-.029.083.083 0 0 1 .029.113l-.044.075a.082.082 0 0 1-.113.029ZM218.032 122.798a.084.084 0 0 1-.029-.113l.045-.075a.083.083 0 0 1 .113-.028.082.082 0 0 1 .029.113l-.045.074a.083.083 0 0 1-.113.029ZM217.669 122.583a.084.084 0 0 1-.029-.113l.045-.074a.082.082 0 0 1 .113-.029.084.084 0 0 1 .029.113l-.045.074a.083.083 0 0 1-.113.029ZM213.388 120.04a.083.083 0 0 1-.029-.113l.044-.074a.084.084 0 0 1 .114-.029.083.083 0 0 1 .028.113l-.044.074a.083.083 0 0 1-.113.029ZM213.024 119.825a.083.083 0 0 1-.028-.113l.044-.074a.083.083 0 0 1 .142.084l-.044.074a.084.084 0 0 1-.114.029ZM212.665 119.607a.084.084 0 0 1-.029-.113l.045-.075a.084.084 0 0 1 .113-.029.084.084 0 0 1 .029.113l-.045.075a.082.082 0 0 1-.113.029ZM212.298 119.392a.083.083 0 0 1-.029-.113l.045-.075a.083.083 0 0 1 .113-.029.085.085 0 0 1 .029.113l-.045.075a.084.084 0 0 1-.113.029ZM211.939 119.177a.083.083 0 0 1-.029-.113l.044-.075a.085.085 0 0 1 .113-.029.083.083 0 0 1 .029.113l-.044.075a.082.082 0 0 1-.113.029ZM211.571 118.962a.084.084 0 0 1-.029-.113l.045-.075a.083.083 0 0 1 .113-.028.082.082 0 0 1 .029.113l-.045.074a.082.082 0 0 1-.113.029ZM211.208 118.743a.084.084 0 0 1-.029-.113l.045-.074a.083.083 0 0 1 .113-.029.084.084 0 0 1 .029.113l-.045.074a.083.083 0 0 1-.113.029ZM210.845 118.528a.082.082 0 0 1-.029-.113l.044-.074a.084.084 0 0 1 .114-.029.083.083 0 0 1 .028.113l-.044.075a.083.083 0 0 1-.113.028ZM210.482 118.314a.083.083 0 0 1-.029-.113l.044-.075a.084.084 0 0 1 .113-.029.083.083 0 0 1 .029.113l-.044.075a.085.085 0 0 1-.113.029ZM209.079 117.478a.084.084 0 0 1-.029-.113l.045-.075a.084.084 0 0 1 .113-.029.084.084 0 0 1 .029.113l-.045.075a.085.085 0 0 1-.113.029ZM209.79 117.899a.082.082 0 0 1-.028-.113l.044-.074a.083.083 0 0 1 .142.084l-.045.075a.084.084 0 0 1-.113.028ZM208.712 117.263a.083.083 0 0 1-.029-.113l.045-.075a.084.084 0 0 1 .113-.029.085.085 0 0 1 .029.113l-.045.075a.082.082 0 0 1-.113.029ZM208.353 117.044a.083.083 0 0 1-.029-.113l.044-.075a.083.083 0 0 1 .113-.028.082.082 0 0 1 .029.113l-.044.074a.083.083 0 0 1-.113.029ZM207.985 116.829a.083.083 0 0 1-.028-.113l.044-.074a.083.083 0 0 1 .142.084l-.044.074a.084.084 0 0 1-.114.029ZM207.626 116.614a.084.084 0 0 1-.029-.113l.045-.074a.083.083 0 0 1 .113-.029.084.084 0 0 1 .029.113l-.045.074a.08.08 0 0 1-.113.029ZM207.259 116.399a.082.082 0 0 1-.029-.113l.045-.074a.083.083 0 0 1 .113-.029.084.084 0 0 1 .029.113l-.045.075a.083.083 0 0 1-.113.028ZM206.899 116.181a.083.083 0 0 1-.028-.113l.044-.075a.085.085 0 0 1 .113-.029.083.083 0 0 1 .029.113l-.044.075a.085.085 0 0 1-.114.029ZM206.532 115.966a.084.084 0 0 1-.029-.113l.045-.075a.084.084 0 0 1 .113-.029.084.084 0 0 1 .029.114l-.045.074a.083.083 0 0 1-.113.029ZM206.173 115.751a.083.083 0 0 1-.029-.113l.045-.074a.082.082 0 0 1 .113-.029.084.084 0 0 1 .029.113l-.045.074a.083.083 0 0 1-.113.029ZM205.814 115.536a.083.083 0 0 1-.029-.113l.044-.074a.083.083 0 0 1 .142.084l-.044.074a.083.083 0 0 1-.113.029ZM205.454 115.321a.083.083 0 0 1-.029-.113l.045-.074a.083.083 0 0 1 .113-.029.084.084 0 0 1 .029.113l-.045.075a.082.082 0 0 1-.113.028ZM205.087 115.107a.084.084 0 0 1-.029-.113l.045-.075a.084.084 0 0 1 .113-.029.084.084 0 0 1 .029.113l-.045.075a.084.084 0 0 1-.113.029ZM202.296 113.222a.124.124 0 0 1-.141.04.17.17 0 0 1-.035-.019l-.569-.453c.072-.011.19-.03.353-.04l.371.296a.126.126 0 0 1 .021.176Z"/><path d="m211.439 119.312-.11-.066a.154.154 0 0 1-.054-.211l.273-.463a.152.152 0 0 1 .21-.054l.11.066a.155.155 0 0 1 .054.211l-.272.463a.153.153 0 0 1-.211.054ZM212.162 119.742l-.11-.066a.156.156 0 0 1-.054-.212l.273-.463a.153.153 0 0 1 .21-.054l.11.066c.073.044.097.14.054.212l-.273.463a.154.154 0 0 1-.21.054ZM216.603 121.946a.082.082 0 0 1-.029-.113l.044-.074a.083.083 0 0 1 .142.084l-.044.075a.083.083 0 0 1-.113.028ZM216.239 121.732a.085.085 0 0 1-.029-.113l.045-.075a.084.084 0 0 1 .113-.029.083.083 0 0 1 .029.113l-.045.075a.085.085 0 0 1-.113.029ZM215.876 121.517a.084.084 0 0 1-.029-.113l.045-.075a.084.084 0 0 1 .113-.029.084.084 0 0 1 .029.113l-.045.075a.084.084 0 0 1-.113.029ZM215.513 121.298a.083.083 0 0 1-.029-.113l.044-.075a.084.084 0 0 1 .114-.028.083.083 0 0 1 .028.113l-.044.074a.082.082 0 0 1-.113.029ZM215.149 121.083a.083.083 0 0 1-.028-.113l.044-.074a.083.083 0 0 1 .113-.029c.04.023.052.073.029.113l-.044.074a.084.084 0 0 1-.114.029ZM214.786 120.868a.084.084 0 0 1-.029-.113l.045-.074a.083.083 0 0 1 .113-.029.084.084 0 0 1 .029.113l-.045.074a.083.083 0 0 1-.113.029ZM214.423 120.653a.082.082 0 0 1-.029-.113l.045-.074a.082.082 0 0 1 .113-.029.084.084 0 0 1 .029.113l-.045.075a.083.083 0 0 1-.113.028ZM214.06 120.435a.083.083 0 0 1-.029-.113l.044-.075a.084.084 0 0 1 .113-.029.083.083 0 0 1 .029.113l-.044.075a.085.085 0 0 1-.113.029ZM213.696 120.22a.085.085 0 0 1-.029-.113l.045-.075a.084.084 0 0 1 .113-.029.083.083 0 0 1 .029.113l-.045.075a.082.082 0 0 1-.113.029Z"/></g><path d="M211.457 121.241c.244.045.428-.22.305-.436-.124-.217-.313-.467-.58-.622-.55-.32-.713.693-.535.807.107.067.484.193.81.251Z" fill="#2B478B"/><path d="m211.407 120.041-.676 1.15s-.672-.137-1.591-.654c-.562-.316-.902-.609-1.08-.788-.114-.114-.162-.181-.162-.181l.709-1.206a.674.674 0 0 1 .25.031c.805.23 2.458 1.54 2.458 1.54l.092.108Z" fill="#2B478B"/><path d="m208.857 118.393-.797 1.356c-.114-.114-.162-.181-.162-.181l.709-1.206a.674.674 0 0 1 .25.031Z" fill="#4A75CB"/><path d="M224.242 125.645c.033-.012 2.368.518 3.638 1.452l-1.605-.025-2.063-1.227c.001.002-.135-.139.03-.2Z" fill="#2B478B"/><path d="M219.475 120.968s-1.444 1-1.696 1.135c-.251.136-.654.098-.654.098h-.003l-2.486-.42s-2.649-1.556-3.22-1.909c-.051-.033-.086-.054-.1-.065-.168-.122-.223-.23-.165-.264.057-.033 4.414 1.71 4.895 1.906.005.002.01.003.013.006.469.189.563.09.563.09l2.403-.664a.252.252 0 0 1 .129-.015c.147.015.321.102.321.102Z" fill="#4A75CB"/><path d="M219.155 120.866c-.658.203-2.474.761-2.632.781-.17.022-4.132-1.422-5.107-1.775-.051-.033-.086-.054-.1-.065-.168-.122-.223-.23-.165-.264.057-.033 4.414 1.71 4.895 1.906.481.196.578.096.578.096l2.402-.664a.233.233 0 0 1 .129-.015Z" fill="#4A75CB"/><path d="M219.477 120.967s-1.444 1.001-1.696 1.135c-.251.136-.654.099-.654.099h-.003c-.47-.25-.832-.54-1.062-.747.469.189.564.09.564.09l2.402-.663a.241.241 0 0 1 .129-.016c.146.016.32.102.32.102Z" fill="#4A75CB"/><path d="m226.202 126.445-6.233-3.92s3.219 1.055 3.651.938c.409-.111 4.882-1.613 5.941-1.478-1.202.488-4.021 1.698-4.216 2.367-.186.64.499 1.633.857 2.093Z" fill="#739AF0"/><path d="M76.522 50.19c-.013-.346-.278-4.077-5.932-4.272 0 0 2.78.333 3.261 1.562 0 0-1.893-1.519-3.434-1.03-1.541.487-2.446 3.203-2.456 4.096-.01.894.848 3.773 1.826 4.017.37.092.797.068 1.185.001-.26.409-.516.86-.76 1.363-2.255 4.656.071 9.205 1.98 8.703 1.225-.322 1.572 1.779 1.572 1.779l11.898-9.685s-4.371-9.093-9.14-6.533Z" fill="#1A3151"/><path d="m80.664 187.344-2.528.946s-10.977-15.307-12.328-28.776c-.242-2.405-.162-4.735.36-6.887l-.295-1.704a5564.848 5564.848 0 0 0-1.725-9.894c-1.292-7.371-2.966-16.794-4.265-23.721l.681-.22 7.368-2.39 1.524-4.863 5.487-1.452s1.225 2.41 2.32 13.798a85.85 85.85 0 0 1 .524 4.928c.427 5.452.458 12.215-.522 19.948a105.28 105.28 0 0 1-.964 6.122c-.29 1.539-.332 3.637-.21 6.046.553 11.008 4.573 28.119 4.573 28.119Z" fill="#145566"/><path d="m77.787 127.109-11.914 23.814a5564.848 5564.848 0 0 0-1.725-9.894c-1.292-7.371-2.966-16.794-4.265-23.721l.681-.22 7.368-2.39 1.524-4.863 5.487-1.452s1.225 2.41 2.32 13.798c.203 1.495.387 3.142.524 4.928Z" fill="#0F3C48"/><path d="m72.548 111.439-.276-2.378c-4.622 1.234-16.967-3.448-16.967-3.448s-4.477 3.957-3.888 13.439c.286 4.629.81 24.297 1.358 30.118a168.008 168.008 0 0 0 .444 4.216c.021.183-.042.356-.135.516a27.305 27.305 0 0 0-2.019 4.271c-5.371 14.392.827 32.115.827 32.115l1.609-.651s3.527-19.724 6.393-28.439c.487-1.477.953-2.639 1.381-3.334 1.246-2.022 2.402-5.326 3.452-9.256 1.984-7.431 3.581-17.096 4.644-24.557.146.007 3.177-12.612 3.177-12.612Z" fill="#145566"/><path d="M108.95 108.402c-.995.885-3.634-2.154-3.998-2.557-.019-.038-.038-.057-.038-.057l.804-2.251s3.461-.135 4.035.442c.574.578.287 3.481-.803 4.423Z" fill="#ED985F"/><path d="m105.719 103.534-.344 2.327s-.153 0-.421-.019c-.842-.058-2.888-.173-5.203-.423-3.48-.347-7.613-.962-9.257-1.98-2.505-1.539-6.618-6.25-9.295-10.962-.077-.115-.134-.23-.191-.346-1.397-2.5-2.373-4.98-2.448-6.962-.057-1.212.077-2.25.325-3.153a8.053 8.053 0 0 1 1.416-2.846c.076-.115.153-.23.268-.326.918-1.097 1.817-1.558 1.817-1.558.46-.193.957.038 1.473.596v.019c.421.442.88 1.116 1.32 1.962.02.02.039.038.039.058.095.173.191.365.306.577.038.038.057.096.076.134.21.443.421.904.632 1.385 2.352 5.154 4.858 12.96 6.943 15.288.9 1 5.011 2.961 8.281 4.423a158.71 158.71 0 0 0 4.263 1.806Z" fill="#ED985F"/><path d="M81.375 82.593c-1.45.677-3.202 1.137-5.322 1.252-7.944.438-9.748-6.563-10.076-11.211 1.145-.417 2.147-.377 2.726-.346.563.031 1.151.089 1.635.149.973-.511 2.718-2.99 3.728-7.136l.343.16 5.732 2.71s-.609 1.875-1.058 3.67c-.35 1.404-.603 2.761-.393 3.14.452.186.723.301.723.301l.002.006c.057.148 1.304 3.341 1.96 7.305Z" fill="#FFB27D"/><path d="M83.36 87.836a7.33 7.33 0 0 1-.198.475c-2.013 4.356-5.737 22.403-5.737 22.403.53 3.245-24.254-.637-24.317-3.591-.873-3.132 3.097-8.165 5.336-10.69.281-.318.532-.658.751-1.018.552-.9.904-1.917 1.015-2.979.44-4.188.273-8.112.31-10.498.437-.326.86-.626 1.254-.913.603-.442 1.135-.854 1.527-1.273.432-.456.702-.923.732-1.45.022-.397.01-.806-.031-1.215-.02-.192-.043-.386-.072-.578-.31-2.027-1.151-3.865-1.151-3.865 2.131-.867 5.922-.351 5.922-.351s-.004.211-.006.558c-.012 1.392 0 4.966.443 5.643.555.842 10.71 4.533 11.246 3.39.528-1.124-.918-6.392-.972-6.592l-.003-.006c3.401 1.343 4.616 2.47 4.616 2.47-2.047 1.333.92 5.853-.665 10.08Z" fill="#EBB044"/><path d="M80.138 68.173s-.61 1.874-1.058 3.67c-3.35-.94-4.368-4.48-4.674-6.378l5.732 2.708Z" fill="#ED985F"/><path d="M80.843 70.158s-8.016-1.865-6.785-6.867c1.232-5 1.027-8.61 6.198-7.63 5.17.98 5.69 3.134 5.683 4.905-.007 1.768-2.98 9.948-5.096 9.592Z" fill="#FFB27D"/><path d="M86.39 57.723c-.862-1.813-1.876-1.715-2.51-1.394-3.767-3.505-7.462-.64-7.462-.64-1.421 3.453-4.504 4.864-4.504 4.864s1.232 1.269 4.8 1.24c1.091-.009 2.188-.512 3.185-1.206-1.924 1.949-4.18 3.134-4.18 3.134 4.468-.86 7.463-6.06 7.77-6.613.38.561 1.103 1.759 1.164 2.768.082 1.373-.387 4.038.395 4.14.002 0 2.635-3.575 1.342-6.293Z" fill="#1A3151"/><path d="M84.026 77.754s1.93 3.385 2.22 4.257c0 0-2.503-.098-3.513 1.84 0-.002-.243-5.641 1.293-6.097Z" fill="#EBB044"/><path d="M70.753 104.647c-4.888-.052-9.028-5.155-11.558-9.234a7.12 7.12 0 0 0 1.016-2.979c.44-4.188.272-8.112.31-10.498.437-.326.86-.627 1.253-.913.603-.442 1.135-.855 1.527-1.273 4.005 6.8 14.08 24.968 7.452 24.897Z" fill="#9B732A"/><path d="M61.24 191.609H48.512s-.305-1.951.36-3.431c.637-1.42 1.635-2.066 1.397-3.783.808.836 2.127 1.774 3.967 1.525.226.368 1.455 2.335 2.209 2.879.832.601 4.54.387 4.797 2.81ZM88.571 191.608h-12.73s-.475-2.041.36-3.431c.741-1.228.456-1.929-.091-2.945.576.237 1.322.453 2.144.406.633-.037 1.304-.325 1.892-.669.548.627 2.894 3.301 3.627 3.831.832.6 4.543.386 4.798 2.808Z" fill="#1A3151"/><path d="M99.585 97.156 87.2 113.354l1.007.71 12.538-16.2-1.159-.708Z" fill="#247B7B"/><path d="M100.745 97.863h12.569l-13.157 16.2h-11.95l12.538-16.2Z" fill="#247B7B"/><path d="M99.586 97.156h12.485l.706.708h-12.032l-1.16-.708Z" fill="#CCDFED"/><path d="M99.917 97.36H112.3l.2-.204H99.586l.331.203Z" fill="#247B7B"/><path d="M98.157 107.699c-.034-.645-.88-.616-1.522-.618-1.053-.005-2.715-.077-3.677-.449 0 0 3.07-.044 2.418-1.019-.118-.178-1.644-.043-3.348-.043-.698 0-2.425.962-2.336 1.007a34.9 34.9 0 0 1-2.72-.483c-.841-.462-1.855-1.02-2.925-1.635-2.583-1.462-5.547-3.25-7.575-4.73-1.167-.847-2.047-1.597-2.352-2.136-.478-.827-1.014-2.135-1.607-3.75-.306-.846-.631-1.769-.957-2.75-.573-1.616-1.147-3.365-1.74-5.115-1.072-3.192-2.22-6.404-3.309-8.885-.708-1.559-1.397-2.846-2.047-3.635-.517-.634-1.014-.961-1.492-.884-.077.019-.134.038-.192.057 0 0-2.753.77-2.792 6.347-.019.307 0 .634.02.98.038.981.23 2.174.516 3.48.46 2.194 1.225 4.731 2.181 7.309.268.692.536 1.404.823 2.114 2.066 5.154 4.724 9.962 6.962 11.597.096.076.172.134.268.192.938.596 2.315 1.192 3.902 1.75 2.257.77 4.934 1.462 7.326 2.039H82c1.396.308 2.677.596 3.748.808 0 0 .176.044.49.107l.142.028c1.014.25 3.098.788 5.068 1.558 2.755 1.096 4.78-.267 5.7-1.231.581-.61 1.04-1.421 1.008-2.01Z" fill="#FFB27D"/><path d="M66.5 77.102c-3.682-1.02-6.523 1.87-6.523 1.87.046-5.567 2.802-6.33 2.802-6.33 1.109-.461 2.394 1.47 3.72 4.46Z" fill="#EBB044"/><path d="M154.09 145.245c-1.504-1.359-.266-4.569-.839-5.203-.094-.103-.31-.264-.586-.471a14.805 14.805 0 0 1-2.07 4.692c-3.413 5.161-9.181 7.341-12.882 4.865-3.599-2.406-3.916-8.329-.787-13.401.087-.142.178-.283.272-.425.996-1.505 2.191-2.755 3.478-3.712a.028.028 0 0 1 .011-.008 2.867 2.867 0 0 0-.381-.198c-.803-.286-3.269 2.102-5.098 1.233-1.828-.87-.158-4.379 3.456-4.79 2.203-.251 4.529.893 6.008 1.826a8.142 8.142 0 0 1 1.949-.235c.024 0 .048-.002.072 0a4.985 4.985 0 0 1 1.635-5.306c-.002-.003-.003-.007-.006-.01a2.54 2.54 0 0 1 .121-2.599 2.507 2.507 0 0 1 3.486-.705 2.532 2.532 0 0 1 1.095 2.474 4.956 4.956 0 0 1 2.031 1.317 2.501 2.501 0 0 1 2.66.079 2.537 2.537 0 0 1 .7 3.505 2.508 2.508 0 0 1-2.197 1.126 4.99 4.99 0 0 1-.657 1.449 4.934 4.934 0 0 1-3.363 2.163c.33.679.559 1.431.688 2.231 1.439.98 3.601 2.774 4.262 5.051 1.02 3.506-1.553 6.411-3.058 5.052Z" fill="#EFCDAF"/><path d="M136.926 135.724c.087-.142.178-.282.271-.424a14.808 14.808 0 0 1 3.478-3.712c.383-.03.773.053.913.448.311.874-2.604 3.622-2.355 5.183.186 1.156-1.491-.514-2.307-1.495ZM148.779 130.677c-.464-.214-1.411-.713-2.157-1.263.024 0 .048-.002.071 0a4.99 4.99 0 0 1 1.636-5.306c-.002-.003-.003-.007-.006-.01.05.021.073.089.049.232-.093.545-1.453 4.358.763 5.99 0-.002.331.673-.356.357Z" fill="#E2B99A"/><path d="M155.629 125.613s1.288-.391 1.738.498c.451.889-.417 1.951-1.115 1.78 0-.001-.05-1.253-.623-2.278ZM151.999 122.955s-.52-1.413-1.467-1.335c-.947.08-.729 1.61-.729 1.61s1.288-.453 2.196-.275Z" fill="#FFF3E9"/><path d="M122.83 136.939s-3.228-4.184-3.249-7.598c-.022-3.414.076-4.548.643-4.394.567.154 3.116 2.058 4.033 3.954.916 1.896 2.527 6.856 2.56 7.532.034.675-3.987.506-3.987.506Z" fill="#AFCDFB"/><path d="M123.006 135.604s-2.062-2.89-2.14-5.198c-.078-2.308-.039-3.073.312-2.957.351.115 1.953 1.451 2.552 2.749.599 1.3 1.683 4.684 1.716 5.141.033.456-2.44.265-2.44.265Z" fill="#E57970"/><path d="M128.036 135.19s-1.547-5.665-.936-7.208c.611-1.542 3.781-.512 4.139.575.36 1.088.138 5.679.138 5.679l-3.341.954Z" fill="#AFCDFB"/><path d="M128.448 128.676s-.224 4.49.557 6.238l1.502-.429s.233-5.015.032-5.352c-.2-.339-2.091-.457-2.091-.457Z" fill="#E57970"/><path d="M127.012 128.304s5.204 3.462 5.623 3.097c.42-.366-1.162-3.881-1.776-4.196-.613-.314-3.884-.963-3.847 1.099Z" fill="#AFCDFB"/><path d="M117.442 191.594h70.941v-58.812h-70.941v58.812Z" fill="#D3671E"/><path d="M223.851 132.781H152.91v58.812h70.941v-58.812Z" fill="#F1A34F"/><path opacity=".4" d="M223.85 132.781v40.34l-70.94 18.472v-58.812h70.94Z" fill="#D86713"/><path d="m152.91 132.781 14.038 15.475h70.001l-13.098-15.475H152.91ZM117.484 176.68h11.241l-.99-3.181.99-2.272h-11.241v5.453Z" fill="#F1A34F"/><path opacity=".4" d="M223.866 186.766h-11.241l.99-3.181-.99-2.273h11.241v5.454Z" fill="#D86713"/><path d="m152.913 139.43-14.953 15.034h-20.476v-21.683h35.429v6.649Z" fill="#C95C12"/><path d="m117.442 132.781-15.95 15.475h35.493l15.927-15.475h-35.47ZM157.871 167.223v-11.586h3.545c.776 0 1.487.133 2.133.401a4.793 4.793 0 0 1 1.662 1.13 5.18 5.18 0 0 1 1.081 1.747c.259.679.388 1.433.388 2.26v.525c0 .828-.128 1.58-.384 2.257a5.053 5.053 0 0 1-1.085 1.743 4.821 4.821 0 0 1-1.674 1.127 5.623 5.623 0 0 1-2.145.397h-3.521v-.001Zm2.375-9.652v7.735h1.148c.938 0 1.653-.312 2.145-.936.49-.622.736-1.513.736-2.67v-.541c0-1.178-.242-2.07-.728-2.677-.485-.607-1.196-.911-2.129-.911h-1.172ZM177.869 161.692c0 .886-.118 1.68-.356 2.382-.238.704-.572 1.299-1.001 1.787a4.381 4.381 0 0 1-1.547 1.126 4.89 4.89 0 0 1-1.986.395 4.9 4.9 0 0 1-1.988-.395 4.434 4.434 0 0 1-1.555-1.126c-.436-.488-.775-1.083-1.018-1.787-.243-.703-.363-1.496-.363-2.382v-.51c0-.881.119-1.673.36-2.379.24-.706.576-1.306 1.009-1.798a4.353 4.353 0 0 1 1.551-1.134 4.917 4.917 0 0 1 1.986-.394c.722 0 1.384.131 1.986.394a4.374 4.374 0 0 1 1.551 1.134c.432.492.768 1.092 1.009 1.798.24.706.36 1.499.36 2.379v.51h.002Zm-2.407-.524c0-1.216-.216-2.138-.649-2.77-.433-.631-1.05-.947-1.852-.947-.803 0-1.42.316-1.852.947-.433.631-.65 1.554-.65 2.77v.525c0 .605.056 1.14.17 1.604.114.464.277.853.49 1.169.214.317.476.555.788.717a2.28 2.28 0 0 0 1.069.243c.803 0 1.417-.319 1.844-.955.427-.636.641-1.561.641-2.777v-.526h.001ZM188.966 167.223h-2.375l-4.623-7.623v7.623h-2.374v-11.586h2.374l4.63 7.638v-7.638h2.366v11.586h.002ZM197.691 164.836h-4.163l-.792 2.387h-2.525l4.29-11.586h2.2l4.314 11.586h-2.525l-.799-2.387Zm-3.521-1.933h2.88l-1.448-4.338-1.432 4.338ZM209.816 157.57h-3.53v9.652h-2.374v-9.652h-3.482v-1.933h9.386v1.933ZM218.105 162.202h-4.56v3.104h5.351v1.917h-7.724v-11.586h7.709v1.933h-5.334v2.761h4.559v1.871h-.001Z" fill="#F1A34F"/><path d="m99.926 176.1-1.291.253a2.848 2.848 0 0 1-3.328-2.258l-1.9-9.834a2.865 2.865 0 0 1 1.849-3.237.927.927 0 0 1-.029-.105l-.111-.578a.745.745 0 0 1 .585-.871l.575-.113c.4-.078.789.187.867.587l.11.58c.007.026.01.054.012.08v.015a2.85 2.85 0 0 1 3.009 2.299l1.899 9.835c.298 1.54-.714 3.048-2.247 3.347Z" fill="#CADDFF"/><path d="m100.381 163.496-6.865 1.34 1.305 6.759 6.865-1.34-1.305-6.759Z" fill="#2B478B"/><path d="m97.264 160.605-2.009.419a.927.927 0 0 1-.029-.105l-.11-.578a.745.745 0 0 1 .584-.871l.575-.113c.4-.078.79.187.867.587l.111.58a.991.991 0 0 1 .01.081Z" fill="#4A75CB"/><path d="M134.737 158.123s-.85 1.203-1.63 1.22c-.779.017-1.965-.558-1.965-.558s-.717-1.605-.231-2.232c0 0 .487-.215.996.165.087.066.176.147.264.253a.83.83 0 0 0 .409.279c.556.171 1.217-.231 1.464.156.144.225.301.394.43.513.152.137.263.204.263.204ZM123.648 166.807s3.006-7.324 8.418-7.463c0 0 4.996.558 5.273 7.463h-13.691Z" fill="#F9DDBF"/><path d="M130.581 159.569s2.169.484 2.838.199c0 0 .102-.911-.811-.784-.626.088-1.032-.215-1.273-.336-.339-.173-.844.54-.754.921Z" fill="#F1A34F"/><path d="M132.471 158.194c-.139.104-.565-1.475-.565-1.475.088.066.176.148.264.253a.835.835 0 0 0 .409.279c.002.047.027.841-.108.943ZM134.473 157.917c-.03.018-1.034.623-1.169.623-.139 0 .74-1.134.74-1.134.142.224.3.393.429.511ZM126.587 164.76c-.055-.048 2.127-3.232 2.729-3.256.601-.022 1.952.698 2.93.791.978.093 1.926-.186 2.112.396.185.582.693 2.642.381 2.972-.312.329-6.952.128-8.152-.903Z" fill="#E5C1A1"/><path d="M101.248 169.713a1.018 1.018 0 0 1-.6.515 1.021 1.021 0 0 1-.787-.06l-13.48-6.884a1.045 1.045 0 0 1-.454-1.396 1.034 1.034 0 0 1 1.388-.456l13.48 6.885c.507.26.71.887.453 1.396Z" fill="#E57970"/><path d="m90.849 165.566-.85-2.762-2.17-1.109 1.307 2.997 1.713.874ZM94.143 167.246l-1.713-.875-1.309-2.996 2.172 1.108.85 2.763ZM97.436 168.93l-1.714-.874-1.308-2.997 2.171 1.109.85 2.762ZM100.904 170.104a1.021 1.021 0 0 1-1.043.065l-.791-.404-1.308-2.995 2.171 1.108.971 2.226ZM85.927 161.888s-.273-1.473-1.463-1.911c0 0 .14.169-.432.353-.573.184-.407.581-.61.761 0 0 .826 1.104 2.505.797Z" fill="#B64C41"/><path d="m85.696 162.084-.032-.016a.188.188 0 0 1-.081-.251l.167-.332a.185.185 0 0 1 .25-.082l.031.016c.09.047.128.16.081.251l-.167.332a.185.185 0 0 1-.249.082Z" fill="#4A75CB"/><path d="M101.191 169.685s1.344-.648 2.398.06c0 0-.219-.013-.029.56.19.574-.227.672-.251.944.001 0-1.373-.02-2.118-1.564Z" fill="#B64C41"/><path d="m101.172 169.986.032.015c.091.047.203.01.25-.081l.167-.332a.187.187 0 0 0-.081-.251l-.031-.016a.185.185 0 0 0-.25.082l-.167.332a.185.185 0 0 0 .08.251Z" fill="#4A75CB"/><path d="M118.699 169.819a1.025 1.025 0 0 1-1.41-.378l-7.573-13.158a1.044 1.044 0 0 1 .377-1.418 1.03 1.03 0 0 1 1.411.379l7.572 13.158a1.044 1.044 0 0 1-.377 1.417Z" fill="#F1A34F"/><path d="m112.227 160.646.784-2.78-1.219-2.12-.526 3.229.961 1.671ZM114.079 163.857l-.962-1.671.526-3.229 1.22 2.119-.784 2.781ZM115.922 167.069l-.961-1.671.526-3.23 1.22 2.119-.785 2.782ZM118.198 169.96a1.022 1.022 0 0 1-.909-.518l-.445-.772.526-3.229 1.219 2.12-.391 2.399Z" fill="#F9DDBF"/><path d="M110.092 154.865s.571-1.385-.191-2.404c0 0 .025.219-.555.059-.58-.16-.655.264-.924.303.001.002.097 1.38 1.67 2.042Z" fill="#F1A34F"/><path d="m109.793 154.901-.018-.031a.188.188 0 0 1 .068-.256l.32-.187a.188.188 0 0 1 .255.069l.018.031a.19.19 0 0 1-.068.256l-.321.187a.188.188 0 0 1-.254-.069Z" fill="#D3671E"/><path d="M118.667 169.766s1.478.192 1.978 1.364c0 0-.177-.131-.328.453-.151.586-.555.44-.722.654 0 .001-1.141-.768-.928-2.471Z" fill="#F1A34F"/><path d="m118.486 170.01.018.032c.051.089.166.12.254.068l.321-.186a.19.19 0 0 0 .068-.256l-.018-.032a.187.187 0 0 0-.255-.068l-.32.186a.188.188 0 0 0-.068.256Z" fill="#D3671E"/><path d="M94.193 173.512a1.016 1.016 0 0 1-.502-.612 1.04 1.04 0 0 1 .073-.79l7.064-13.44a1.032 1.032 0 0 1 1.899.179c.077.255.059.538-.073.791l-7.064 13.44a1.035 1.035 0 0 1-1.397.432Z" fill="#4A75CB"/><path d="m98.484 163.127 2.76-.811 1.138-2.164-3 1.267-.898 1.708ZM96.758 166.408l.897-1.706 3.001-1.268-1.139 2.165-2.76.809ZM95.035 169.69l.898-1.708 3-1.267-1.137 2.165-2.76.81ZM93.81 173.16a1.056 1.056 0 0 1-.046-1.05l.415-.788 3-1.267-1.136 2.164-2.233.941ZM102.224 158.237s1.47-.25 1.924-1.44c0 0-.171.138-.344-.441-.174-.58-.572-.418-.746-.626 0 0-1.111.813-.834 2.507Z" fill="#699FF0"/><path d="m102.033 158.002.017-.031a.185.185 0 0 1 .251-.078l.328.174a.187.187 0 0 1 .077.252l-.016.032a.186.186 0 0 1-.251.078l-.328-.174a.188.188 0 0 1-.078-.253ZM94.223 173.457s.623 1.362-.1 2.409c0 0 .018-.22-.555-.038-.573.182-.665-.24-.935-.268 0 .001.043-1.379 1.59-2.103Z" fill="#4A75CB"/><path d="m93.921 173.432-.017.031a.187.187 0 0 0 .078.252l.328.175c.09.048.203.013.25-.078l.017-.032a.187.187 0 0 0-.077-.252l-.328-.174a.185.185 0 0 0-.251.078Z" fill="#4A75CB"/><path d="M108.309 161.296s.617.874 1.183.886c.566.012 1.427-.405 1.427-.405s.52-1.164.167-1.62c0 0-.354-.156-.723.119a1.166 1.166 0 0 0-.192.184.59.59 0 0 1-.296.202c-.404.124-.884-.167-1.062.113a1.937 1.937 0 0 1-.312.372c-.111.101-.192.149-.192.149ZM116.357 167.601s-2.182-5.315-6.109-5.417c0 0-3.625.405-3.826 5.417h9.935Z" fill="#B64C41"/><path d="M111.32 162.344s-1.574.352-2.06.146c0 0-.073-.663.59-.569.453.064.749-.155.923-.245.246-.127.613.392.547.668ZM109.956 161.347c.1.076.41-1.07.41-1.07a1.126 1.126 0 0 0-.192.184.597.597 0 0 1-.296.202c-.003.035-.021.611.078.684ZM108.5 161.149c.022.013.75.452.849.452.1 0-.537-.824-.537-.824a1.84 1.84 0 0 1-.312.372ZM114.222 166.113c.041-.035-1.543-2.346-1.98-2.363-.436-.016-1.417.506-2.127.574-.71.067-1.398-.135-1.532.287-.134.422-.503 1.918-.277 2.157.227.239 5.045.094 5.916-.655Z" fill="#963333"/><path d="M123.949 161.576c-.649.009-.975-.978-.975-.978l-6.327 1.926c.283.697-.175 1.234-.175 1.234s-1.094.735-.754 1.865l1.4 4.65a1.56 1.56 0 0 0 1.942 1.044l6.674-2.031a1.571 1.571 0 0 0 1.039-1.951l-1.4-4.652a1.567 1.567 0 0 0-1.424-1.107Z" fill="#CADDFF"/><path d="m116.016 162.314.38 1.262c.137.456 1.87.333 3.87-.276 2.001-.608 3.511-1.473 3.373-1.928l-.38-1.263-7.243 2.205Z" fill="#963333"/><path d="M123.26 160.112c.138.455-1.373 1.32-3.373 1.928-2 .608-3.733.732-3.87.276-.138-.455 1.372-1.32 3.373-1.928 2-.609 3.733-.733 3.87-.276Z" fill="#B64C41"/><path d="M106.973 164.105c-.453-.222-.34-1.02-.34-1.02l-5.058-.87c-.043.583-.547.796-.547.796s-1.014.128-1.167 1.031l-.633 3.717c-.112.659.333 1.29.988 1.403l5.335.917a1.214 1.214 0 0 0 1.396-.993l.632-3.717a1.218 1.218 0 0 0-.606-1.264Z" fill="#B7D2F9"/><path d="m101.206 161.852-.173 1.008c-.062.364 1.184.884 2.783 1.158 1.599.275 2.945.202 3.007-.162l.172-1.009-5.789-.995Z" fill="#C95C12"/><path d="M106.995 162.848c-.062.365-1.409.437-3.007.162-1.599-.275-2.845-.793-2.783-1.157.063-.365 1.409-.438 3.008-.163 1.598.274 2.844.794 2.782 1.158Z" fill="#F1A34F"/><path d="M90.856 191.594h31.339v-25.98H90.856v25.98Z" fill="#D3671E"/><path d="M106.528 191.594h31.339v-25.98h-31.339v25.98Z" fill="#F1A34F"/><path opacity=".4" d="M106.531 165.613h31.42v17.8l-31.42 8.18v-25.98Z" fill="#D86713"/><path d="m106.531 165.613 6.201 6.836h30.924l-5.787-6.836h-31.338ZM90.875 185.006h4.966l-.438-1.405.438-1.003h-4.966v2.408Z" fill="#F1A34F"/><path d="m106.527 168.55-6.606 6.642h-9.046v-9.579h15.652v2.937Z" fill="#C95C12"/><path d="m90.859 165.613-7.046 6.836h15.679l7.036-6.836h-15.67ZM108.715 180.83v-5.119h1.566c.343 0 .657.059.942.178.286.119.531.285.735.499.204.214.363.471.477.772.114.3.171.632.171.997v.232a2.8 2.8 0 0 1-.17.997 2.233 2.233 0 0 1-.48.769c-.205.216-.453.38-.739.498a2.483 2.483 0 0 1-.947.176h-1.555v.001Zm1.048-4.264v3.416h.507c.415 0 .731-.138.947-.413.217-.276.326-.669.326-1.18v-.239c0-.52-.108-.915-.322-1.183-.214-.268-.528-.403-.941-.403h-.517v.002ZM117.549 178.386c0 .392-.053.742-.158 1.053a2.286 2.286 0 0 1-.442.79c-.19.217-.418.381-.684.498a2.157 2.157 0 0 1-.878.174c-.319 0-.612-.057-.878-.174a1.937 1.937 0 0 1-.687-.498 2.281 2.281 0 0 1-.45-.79 3.217 3.217 0 0 1-.161-1.053v-.224c0-.39.053-.74.159-1.051.106-.311.255-.577.446-.795.191-.217.42-.384.685-.501.266-.115.558-.174.878-.174.319 0 .612.057.877.174.266.115.494.282.686.501.191.218.339.484.446.795.106.311.159.662.159 1.051v.224h.002Zm-1.063-.232c0-.536-.096-.945-.287-1.223-.191-.279-.464-.419-.818-.419-.354 0-.626.14-.818.419-.191.278-.287.686-.287 1.223v.232c0 .267.025.504.076.708.05.206.122.378.216.517.095.14.21.246.348.317.138.07.294.107.472.107.354 0 .626-.141.815-.422.188-.282.283-.69.283-1.228v-.231ZM122.452 180.83h-1.049l-2.042-3.368v3.368h-1.049v-5.119h1.049l2.046 3.374v-3.374h1.045v5.119ZM126.304 179.775h-1.839l-.349 1.055H123l1.895-5.119h.972l1.906 5.119h-1.115l-.354-1.055Zm-1.556-.854h1.272l-.639-1.917-.633 1.917ZM131.662 176.566h-1.559v4.264h-1.049v-4.264h-1.538v-.855h4.146v.855ZM135.32 178.611h-2.014v1.371h2.364v.848h-3.412v-5.119h3.405v.855h-2.357v1.22h2.014v.825Z" fill="#F1A34F"/></svg>