<svg width="738" height="498" fill="none" xmlns="http://www.w3.org/2000/svg"><path d="M706.06 497.987c-15.202 0-99.026.029-204.128 0-27.124 0-55.703 0-84.852-.028h-15.459c-20.877 0-41.983-.029-63.032-.029h-16.971c-34.197-.028-68.023-.057-100.224-.085-125.41-.143-162.316-1.17-162.316-1.227-.257-.599-115.284-59.223-23.645-181.893 46.091-61.762-6.417-128.916 32.886-187.797 55.588-83.33 147.627-34.462 210.774-60.878 11.152-4.65 22.361-12.153 33.57-23.678 6.303-6.476 13.234-12.125 20.621-17.031 1.141-.742 2.282-1.484 3.451-2.197 4.421-2.738 9.013-5.192 13.747-7.417a140.256 140.256 0 0 1 9.726-4.137 168.59 168.59 0 0 1 16.115-5.22 179.556 179.556 0 0 1 24.015-4.679c3.565-.456 7.159-.827 10.81-1.084C481.71-4.67 561.085 24.998 602.071 68.361c8.243 8.729 45.748 53.917 16.2 115.993-18.682 39.197 59.553 76.654 87.333 121.414 70.648 113.825 1.084 190.736.456 192.219Z" fill="#D9E3F6"/><path d="M427.493 290.721c.055-2.87 2.279-7.767-2.118-12.419-3.117-3.339-5.863-7.093-7.176-8.928-.475-.744-5.797 3.631-5.682 3.809.877 1.296 4.889 7.904 5.474 11.589.637 4.153 7.75 8.698 7.75 8.698s1.735.107 1.752-2.749Z" fill="#F4A671"/><path d="m420.951 273.072-8.439.11s-13.198-20.855-13.602-27.471c-.39-6.319-13.075-33.968 1.774-51.231a28.263 28.263 0 0 1 2.186-2.279c.025-.03.055-.055.085-.08l.074.121c.303.502 1.481 2.636 2.865 7.346 2.164 7.366 4.841 21.039 5.473 44.654-.003 0 5.871 20.215 9.584 28.83Z" fill="#F4A671"/><path d="M394.616 162.355s-.912 2.464.434 3.431c1.345.966-3.417 5.396-4.334 9.117-.92 3.721.231 5.699.231 5.699s-.138-2.252.689-3.354c0 0-.887 2.557.582 4.457 1.469 1.898.607 2.865.607 2.865s4.66.077 5.795-3.079c0 0-.275 1.5-.613 2.052 0 0 4.551-1.593 5.737-4.718 1.187-3.126-1.032-6.784-2.414-7.275-1.381-.492-3.63-4.227-3.216-5.237.412-1.011-3.498-3.958-3.498-3.958Z" fill="#1A3151"/><path d="m395.688 427.67-5.462 2.035s-23.723-32.903-26.645-61.851c-.521-5.169-.348-10.175.78-14.8l-.637-3.666c-.186-1.093-.42-2.408-.681-3.916-.771-4.419-1.832-10.466-3.045-17.351-2.791-15.843-6.407-36.096-9.217-50.987l1.472-.472 15.923-5.138 3.29-10.452 11.855-3.123s2.648 5.182 5.018 29.657c.437 3.21.835 6.75 1.131 10.589.923 11.719.992 26.254-1.128 42.875a225.453 225.453 0 0 1-2.082 13.16c-.623 3.309-.717 7.816-.456 12.992 1.197 23.673 9.884 60.448 9.884 60.448Z" fill="#B64C41"/><path d="m389.47 298.201-25.746 51.187c-.186-1.093-.42-2.408-.681-3.916-.771-4.418-1.832-10.466-3.045-17.35-2.791-15.843-6.407-36.097-9.217-50.987l1.472-.472 15.923-5.139 3.29-10.452 14.162-4.213s.344 6.273 2.711 30.747c.437 3.216.835 6.756 1.131 10.595Z" fill="#963333"/><path d="m406.486 146.92-25.713 20.816s-.75-4.517-3.397-3.822c-4.128 1.079-10.461-9.986-5.589-19.996.321-.653 4.279-10.562 16.942-11.809 16.282 1.25 17.757 14.811 17.757 14.811Z" fill="#1A3151"/><path d="M397.222 202.527c-3.137 1.453-6.921 2.444-11.502 2.694-17.166.942-21.063-14.107-21.775-24.098 2.475-.895 4.641-.813 5.891-.744 1.217.065 2.488.192 3.537.321 2.101-1.096 5.872-6.426 8.052-15.341l.742.344 12.388 5.822s-1.316 4.031-2.288 7.887c-.758 3.018-1.301 5.935-.848 6.75.977.398 1.56.646 1.56.646s0 .005.005.013c.126.322 2.82 7.184 4.238 15.706Z" fill="#FFB27D"/><path d="M401.523 213.791c-.129.34-.272.675-.426 1.021-4.347 9.365-16.164 40.304-16.164 40.304 1.148 6.976-48.644 6.479-48.785.129-1.513-5.413 3.73-13.462 8.357-19.234a99.02 99.02 0 0 1 3.172-3.741 15.646 15.646 0 0 0 1.626-2.186 15.218 15.218 0 0 0 2.194-6.401c.64-6.059.684-11.856.67-16.568-.008-2.291-.024-4.32 0-5.998.945-.703 1.86-1.349 2.714-1.964 1.301-.947 2.452-1.837 3.295-2.738.934-.98 1.519-1.985 1.585-3.117.046-.857.022-1.735-.066-2.614a22.756 22.756 0 0 0-.16-1.241c-.67-4.359-2.488-8.311-2.488-8.311 4.609-1.864 12.798-.752 12.798-.752s-.008.456-.011 1.203c-.03 2.99 0 10.674.958 12.127 1.198 1.81 23.14 9.744 24.302 7.286 1.139-2.414-1.986-13.739-2.104-14.165l-.003-.014c.237.091.465.184.687.272 1.118.456 2.084.978 3.013 1.315 5.97 2.181 6.53 4.164 6.53 4.164-4.427 2.867 1.73 12.141-1.694 21.223Z" fill="#EBB044"/><path d="M394.552 171.532s-1.318 4.026-2.287 7.887c-7.242-2.021-9.439-9.631-10.101-13.712l12.388 5.825Z" fill="#ED985F"/><path d="M396.082 175.794s-17.323-4.009-14.659-14.758c2.664-10.749 2.219-18.507 13.393-16.401 11.172 2.107 12.298 6.737 12.282 10.543-.017 3.801-6.44 21.38-11.016 20.616Z" fill="#FFB27D"/><path d="M408.072 149.073c-1.862-3.897-4.054-3.688-5.427-2.999-8.14-7.53-16.123-1.379-16.123-1.379-3.073 7.423-9.733 10.458-9.733 10.458s2.661 2.724 10.375 2.664c2.357-.019 4.727-1.099 6.88-2.59-4.158 4.188-9.033 6.737-9.033 6.737 9.656-1.849 16.129-13.026 16.794-14.212.818 1.208 2.383 3.779 2.512 5.951.179 2.949-.834 8.681.854 8.898.003 0 5.693-7.684 2.901-13.528Z" fill="#1A3151"/><path d="M412.778 437.7h-27.509s-1.03-4.388.777-7.373c1.598-2.642 1.466-4.249.283-6.435 1.247.511 2.375 1.077 4.152.975 1.371-.08 2.892-1.046 4.163-1.785 1.184 1.351 6.182 7.442 7.767 8.579 1.796 1.294 9.812.832 10.367 6.039Z" fill="#233862"/><path d="M363.682 238.396c-7.181-.508-14.019-1.143-19.182-2.381a97.186 97.186 0 0 1 3.172-3.741 15.646 15.646 0 0 0 1.626-2.186 15.245 15.245 0 0 0 2.194-6.401c.64-6.059.684-11.856.67-16.568 6.264-7.014 11.523-12.713 11.523-12.713s11.675 10.7 13.482 21.358c1.804 10.652 5.217 23.955-13.485 22.632Z" fill="#9B732A"/><path d="M366.574 180.102s8.478 10.043 6.66 25.117h3.512s1.989-10.54-6.909-24.84c0 0-1.162-.165-1.538-.198a59.988 59.988 0 0 0-1.725-.079ZM397.14 213.209l-3.41-.84c4.583-12.114 1.068-22.494-.058-25.279 1.118.456 2.12.898 3.013 1.315 4.729 15.437.455 24.804.455 24.804Z" fill="#963333"/><path d="M398.624 207.118s-16.914-4.405-21.684-5.63c-4.773-1.225-5.149 1.593-5.149 1.593s-.665 9.183-.739 10.128c-1.101 14.415-21.756 16.879-21.756 16.879s-5.336 6.648-9.911 13.184c-7.846 11.208-6.879 30.14-6.879 30.14a55.432 55.432 0 0 0-.025 7.481c.621 9.95 1.752 52.225 2.936 64.734a373.627 373.627 0 0 0 .958 9.063c.047.393-.09.764-.291 1.107a58.765 58.765 0 0 0-4.366 9.18c-11.609 30.934 1.788 69.03 1.788 69.03l3.476-1.401s7.624-42.396 13.817-61.125c1.051-3.178 2.059-5.674 2.982-7.165 2.694-4.348 5.193-11.449 7.462-19.897 4.286-15.969 7.738-36.747 10.034-52.783.316.014 2.834-21.536 11.109-31.45l3.24-3.317 10.274-25.244s2.837-16.779 3.694-19.597c.862-2.82-.97-4.91-.97-4.91Z" fill="#B64C41"/><path d="M373.5 203.934a1.469 1.469 0 1 1 2.938 0 1.469 1.469 0 0 1-2.938 0Z" fill="#ED7D2B"/><path d="M373.766 203.934a1.469 1.469 0 1 1 2.938 0 1.469 1.469 0 0 1-2.938 0Z" fill="#F99746"/><path d="M374.366 203.656a.214.214 0 0 1 .406.132.214.214 0 1 1-.406-.132ZM375.695 204.086a.211.211 0 0 1 .269-.137.21.21 0 0 1 .137.269.21.21 0 0 1-.269.137.21.21 0 0 1-.137-.269Z" fill="#2B478B"/><path d="M394.688 208.708a1.47 1.47 0 1 1 2.94 0 1.47 1.47 0 0 1-2.94 0Z" fill="#ED7D2B"/><path d="M394.953 208.708a1.47 1.47 0 1 1 2.94 0 1.47 1.47 0 0 1-2.94 0Z" fill="#F99746"/><path d="M395.557 208.429a.214.214 0 0 1 .269-.138.214.214 0 1 1-.269.138ZM396.885 208.858a.214.214 0 1 1 .138.27.218.218 0 0 1-.138-.27Z" fill="#2B478B"/><path d="M371.459 157.211s-.911 2.463.434 3.43c1.346.967-3.413 5.396-4.333 9.118-.92 3.721.23 5.695.23 5.695s-.137-2.252.69-3.353c0 0-.89 2.557.582 4.457 1.469 1.898.607 2.865.607 2.865s4.66.076 5.794-3.079c0 0-.274 1.502-.612 2.051 0 0 4.551-1.592 5.737-4.718 1.186-3.125-1.033-6.783-2.414-7.274-1.381-.492-3.631-4.227-3.216-5.237.412-1.011-3.499-3.955-3.499-3.955Z" fill="#1A3151"/><path d="M405.893 199.59c-3.93.577-5.52 2.908-5.52 2.908s-.338-4.943.313-8.016c.225-1.074.574-1.92 1.096-2.241.239-.148.617-.148 1.09-.036.052.011.104.025.159.042.302.499 1.48 2.631 2.862 7.343ZM460.899 291.292c-6.998.366-11.779-10.493-14.726-10.636-.483-.022-1.403.113-2.581.286 2.902 4.762 5.119 10.359 6.349 16.51 4.196 20.946-4.644 40.378-19.743 43.399-14.684 2.939-29.882-10.732-34.556-30.758a59.158 59.158 0 0 1-.368-1.697c-1.222-6.108-1.334-12.086-.508-17.568 0-.016.003-.033.006-.049-.632.167-1.123.313-1.412.45-2.666 1.269-2.9 13.127-9.499 15.484-6.599 2.353-11.045-10.291-3.188-20.141 4.792-6.009 13.28-8.906 19.177-10.255 1.224-1.999 2.633-3.792 4.204-5.344.058-.058.115-.118.176-.176a17.123 17.123 0 0 1-8.67-11.729 17.086 17.086 0 0 1-.236-5.215l-.044-.011a8.716 8.716 0 0 1-6.034-6.635 8.712 8.712 0 0 1 15.541-6.896 17.236 17.236 0 0 1 8.187-1.763 8.718 8.718 0 0 1 6.714-6.319 8.715 8.715 0 0 1 10.252 6.833 8.71 8.71 0 0 1-2.65 8.126 17.137 17.137 0 0 1 1.92 5.144 17.092 17.092 0 0 1-2.983 13.506c2.464.848 4.856 2.12 7.121 3.754 5.913-1.132 15.582-2.052 22.742 1.886 11.045 6.064 11.806 19.444 4.809 19.814Z" fill="#EBB044"/><path d="M395.638 310.087a58.429 58.429 0 0 1-.368-1.697c-1.222-6.107-1.334-12.086-.508-17.567.868-1.011 2.022-1.761 3.329-1.14 2.889 1.37 2.433 15.211 6.843 18.405 3.271 2.365-4.907 2.392-9.296 1.999ZM412.414 268.771c-1.659.615-5.196 1.714-8.365 2.2.057-.058.115-.118.176-.176a17.123 17.123 0 0 1-8.67-11.729 17.054 17.054 0 0 1-.236-5.215l-.044-.011c.173-.069.395.036.683.445 1.102 1.56 7.05 14.184 16.456 12.74 0-.003 2.458.834 0 1.746ZM416.875 239.644s2.205-4.105 5.476-3.043c3.271 1.066 3.727 5.781 1.598 7.072-.002.003-3.172-2.93-7.074-4.029ZM401.514 242.045s-4.716-2.173-6.844.337c-2.128 2.51 2.128 5.712 2.128 5.712s2.052-4.256 4.716-6.049Z" fill="#9B732A"/><path d="m403.433 265.108-1.519 5.624s-5.336-1.944-8.088-2.985c-.823-.319-1.29-.528-1.29-.528-2.197-.859-4.812-1.96-7.665-3.147l-.041-.008c-4.864-2.139-10.293-4.63-14.8-7.126-3.163-1.788-5.863-3.579-7.629-5.199a5.155 5.155 0 0 1-.497-.511c-4.133-4.317-7.95-15.505-10.375-27.201-.338-1.615-.637-3.224-.942-4.79-1.049-5.819-1.706-11.482-1.846-16.293-.11-2.876-.06-5.471.231-7.561.091-.738.176-1.436.335-2.081 2.214-11.782 8.362-12.35 8.362-12.35.129-.019.259-.039.429-.05 1.046.022 1.98.904 2.834 2.445 1.082 1.916 2.054 4.907 2.963 8.472 1.37 5.665 2.584 12.899 3.642 20.064.593 3.93 1.145 7.851 1.746 11.487.316 2.2.657 4.276.983 6.185.643 3.644 1.283 6.615 1.983 8.549.445 1.255 2.03 3.18 4.188 5.418 3.746 3.911 9.368 8.832 14.3 12.916a355.898 355.898 0 0 0 5.599 4.58c2.609 2.11 7.097 4.09 7.097 4.09Z" fill="#FFB27D"/><path d="M364.596 191.892c-7.829-3.68-15.299 1.389-15.299 1.389 2.266-11.957 8.722-12.484 8.722-12.484 2.656-.544 4.778 4.127 6.577 11.095Z" fill="#EBB044"/><path d="M399.822 263.852s3.24 1.29 5.086 1.617c1.843.327 4.688-.588 7.025.937a169.274 169.274 0 0 0 4.001 2.537s.569.865-.673 1.214c-.708.2-4.292-2.068-4.443-1.464-.154.604 2.279 1.958 3.691 2.035 1.414.077 3.99 1.316 3.99 2.23 0 .915-4.174 3.079-6.613 2.925-2.439-.151-7.448-4.449-8.716-4.754-1.266-.305-6.6-2.433-6.6-2.433l3.252-4.844Z" fill="#FFB27D"/><path d="M353.715 437.703h-27.509s-.659-4.193.777-7.374c1.376-3.051 3.79-4.564 3.273-8.255 1.747 1.799 4.153 3.535 8.129 2.999.486.791 3.334 5.424 4.963 6.594 1.798 1.291 9.815.829 10.367 6.036Z" fill="#233862"/><path d="M638.209 412.493s5.327 4.938 4.289 8.448c-1.04 3.509-5.849 5.849-6.497 10.136-.651 4.29-3.249 6.63-5.589 6.63H619.26s-1.722-3.019 2.436-3.928c4.157-.909 5.726-5.951 5.467-10.628-.258-4.676.39-10.916.39-10.916l8.838-2.079 1.818 2.337ZM571.797 437.226c-.406.206-1.598.36-3.284.481h-26.974c.126-.865.832-3.348 4.784-3.991 4.658-.755 12.729-3.463 14.533-9.419.058-.195.107-.39.154-.588 1.431-6.368 11.828 1.95 11.828 1.95s.03.255.077.686c.239 2.335.854 9.892-1.118 10.881Z" fill="#1A3151"/><path d="M547.559 266.883s1.579 19.702 3.435 43.385c2.524 32.173 5.556 71.688 5.858 79.175.519 12.998 2.601 33.792 2.601 33.792s4.935 4.941 14.816 2.859c0 0 8.804-29.684 11.32-61.09.038-.514.076-1.033.118-1.552 2.339-31.972 5.976-99.296 5.976-99.296l-44.124 2.727Z" fill="#145566"/><path d="M547.559 266.883s1.579 19.702 3.435 43.385l34.592 54.736c.038-.514.077-1.033.118-1.552 2.34-31.972 5.976-99.296 5.976-99.296l-44.121 2.727Z" fill="#0F3C48"/><path d="M554.773 269.226s28.463 71.352 47.178 104.884c18.716 33.532 24.565 42.888 24.565 42.888s10.722-4.29 11.697-7.214c0 0-7.157-64.735-19.691-80.515-7.083-8.917-15.401-35.676-15.791-45.033-.39-9.356-2.535-27.877-2.535-27.877l-45.423 12.867Z" fill="#145566"/><path d="M498.907 259.344s-10.043 4.819-11.396 6.058c-1.352 1.236-4.688 7.31-4.433 7.769.256.459.755.599 1.667-.03.909-.629 3.466-3.26 3.559-2.771.094.489-6.819 8.623-5.597 10.345 1.222 1.722 8.154 1.214 12.109-1.601 3.957-2.815 7.906-13.16 8.502-13.723 5.048-4.792-4.411-6.047-4.411-6.047Z" fill="#FFB27D"/><path d="M498.455 264.513c-2.787-2.425-2.861-3.04-2.861-3.04s17.809-30.8 19.355-33.76c1.544-2.963 11.09-49.215 11.09-49.215l32.998-9.568s-23.244 60.104-27.303 67.533c-6.709 12.275-28.607 30.34-28.607 30.34s-2.48-.384-4.672-2.29Z" fill="#9B732A"/><path d="M542.232 156.892s-11.614 20.432-22.965 23.101c0 0 .473-6.863 3.238-11.559a124.508 124.508 0 0 1-2.985-3.658c-2.859-3.66-4.215-5.904-4.215-5.904l3.853-10.356 2.614-7.028a33.802 33.802 0 0 0 4.084 5.885c7.437 8.555 16.376 9.519 16.376 9.519Z" fill="#FFB27D"/><path d="M525.848 147.374s1.387 10.241-6.336 17.4c-2.858-3.661-4.215-5.904-4.215-5.904l3.853-10.356c4.13-1.258 6.698-1.14 6.698-1.14Z" fill="#ED975D"/><path d="M512.24 160.381s17.351-6.764 12.974-17.505c-4.378-10.74-5.089-18.847-16.352-14.983-11.265 3.864-11.732 8.835-11.141 12.775.585 3.941 9.892 21.196 14.519 19.713Z" fill="#FFB27D"/><path d="M601.87 261.749c-6.998 10.062-59.335 23.508-58.709 16.546.236-2.669.554-7.365-.006-13.737a88.309 88.309 0 0 0-.557-4.745c-1.335-9.159-4.488-20.924-11.535-34.548a143.582 143.582 0 0 0-1.647-3.092 105.544 105.544 0 0 1-7.256-16.302c-3.628-10.479-5.094-20.506-3.26-27.059.009-.035.014-.063.028-.09 10.938-5.059 15.176-24.675 15.176-24.675s37.321 6.698 58.231 56.443c0 0 2.007 5.463 4.3 12.878 2.788 8.991 5.998 20.846 6.553 29.302.275 4.012-.06 7.264-1.318 9.079Z" fill="#EBB044"/><path d="M527.702 122.923c.121-.239.475-.497 1.337-.76 0 0-.807-.272-1.746-.066-.486-1.189-1.67-3.213-3.892-3.23 0 0 1.275.332 1.744 1.607-3.043-1.928-8.686-2.488-22.769 2.202-18.562 6.182-9.288 16.958-6.475 17.821 2.812.865 7.991-4.68 12.649-5.438 4.657-.758 7.178 5.731 8.952 6.27 1.777.538.767-.94 2.626-2.417 1.859-1.477 2.927 1.999 2.886 4.443-.041 2.445 3.587 4.76 3.587 4.76l2.125-3.9c2.126-3.9 1.549-18.062-.483-20.611-.178-.222-.357-.45-.541-.681Z" fill="#1A3151"/><path d="M603.194 252.664c-45.036-13.586-52.198-67.277-52.198-67.277s25.642 19.594 45.645 37.975c2.788 8.991 5.998 20.846 6.553 29.302Z" fill="#9B732A"/><path d="M615.542 254.428s-1.016 8.519-.769 9.911c.245 1.39 1.868 5.526 2.271 5.551.404.022 1.629.071 1.596-.78-.033-.852-.585-1.648-.231-1.508.357.14.459 3.356 2.082 3.273 1.623-.082 6.404-1.886 6.212-5.621-.195-3.735-5.287-10.576-5.408-11.197-1.029-5.259-5.753.371-5.753.371Z" fill="#FFB27D"/><path d="M618.238 255.864c-3.573 1.637-4.9-.033-4.9-.033s-20.811-34.754-23.002-37.547c-2.192-2.795-40.612-19.281-40.612-19.281s-15.634-5.976-16.252-15.461c-.538-8.242 4.141-13.306 9.266-16.36 6.107-3.638 13.833-3.103 19.446 1.255 12.602 9.788 37.585 29.476 41.606 34.814 8.947 11.883 18.866 49.128 18.866 49.128s-1.612 2.197-4.418 3.485Z" fill="#EBB044"/><path d="m528.777 279.434-9.367 9.359-.129-.082-14.058-8.819s7.274 2.348 8.258 2.074c.928-.258 11.089-3.752 13.484-3.461.145.02.263.05.348.099l1.464.83Z" fill="#4A75CB"/><path d="M518.987 291.335c-.376-.082-1.491-.346-3.01-.733-4.363-1.118-12.061-3.263-15.098-5.02-2.727-1.577-17.129-9.953-27.051-15.835 3.957-2.118 7.863-2.414 11.136-2.002 11.584 6.799 26.718 15.727 28.572 17.029 3.046 2.142 7.198 4.735 7.198 4.735s-.017.118-.06.294c-.138.576-.572 1.771-1.687 1.532Z" fill="#E58638"/><path d="M518.987 291.332c-.376-.082-1.491-.346-3.01-.733-4.364-1.118-12.061-3.262-15.099-5.02-2.727-1.576-17.128-9.952-27.05-15.835-4.982-2.952-8.835-5.278-9.513-5.8-2.024-1.557-5.921-5.449-4.963-6.182.959-.733 2.829.006 3.532-.104l.03-.006c.165-.024.437-.068.81-.09 1.338-.08 3.993.104 7.772 2.287 0 0 5.995 3.502 13.47 7.89 11.584 6.8 26.719 15.728 28.572 17.03 3.046 2.142 7.198 4.734 7.198 4.734s-.016.118-.06.294c-.14.58-.574 1.774-1.689 1.535Z" fill="#739AF0"/><path d="M518.988 291.334c-.376-.079-1.491-.346-3.01-.733.198-1.73-1.013-3.109-1.013-3.109l5.709 2.313c-.137.573-.571 1.768-1.686 1.529Z" fill="#4A75CB"/><g opacity=".5" fill="#4A75CB"><path d="M506.615 283.973a.19.19 0 0 1-.066-.258l.102-.17a.19.19 0 0 1 .258-.066.19.19 0 0 1 .066.258l-.102.17a.191.191 0 0 1-.258.066ZM505.779 283.481a.19.19 0 0 1-.066-.258l.102-.171a.19.19 0 0 1 .258-.065.19.19 0 0 1 .066.258l-.102.17a.189.189 0 0 1-.258.066ZM504.943 282.989a.19.19 0 0 1-.066-.258l.102-.171a.19.19 0 0 1 .258-.066.191.191 0 0 1 .066.259l-.102.17a.191.191 0 0 1-.258.066ZM504.107 282.493a.191.191 0 0 1-.066-.259l.102-.17a.19.19 0 0 1 .258-.066.19.19 0 0 1 .066.258l-.102.171a.19.19 0 0 1-.258.066ZM503.275 282a.19.19 0 0 1-.066-.258l.102-.17a.19.19 0 0 1 .258-.066.19.19 0 0 1 .066.258l-.102.171a.19.19 0 0 1-.258.065ZM502.443 281.508a.19.19 0 0 1-.066-.258l.102-.17a.19.19 0 0 1 .258-.066.19.19 0 0 1 .066.258l-.102.17a.19.19 0 0 1-.258.066ZM501.607 281.012a.19.19 0 0 1-.066-.258l.102-.17a.19.19 0 0 1 .258-.066.19.19 0 0 1 .066.258l-.102.17a.187.187 0 0 1-.258.066ZM500.775 280.52a.19.19 0 0 1-.066-.258l.102-.17a.189.189 0 0 1 .258-.066.19.19 0 0 1 .066.258l-.102.17a.191.191 0 0 1-.258.066ZM499.939 280.028a.19.19 0 0 1-.066-.258l.102-.171a.19.19 0 0 1 .258-.066.191.191 0 0 1 .066.259l-.102.17a.191.191 0 0 1-.258.066ZM490.107 274.219a.19.19 0 0 1-.066-.258l.102-.17a.19.19 0 0 1 .258-.066.19.19 0 0 1 .066.258l-.102.17a.19.19 0 0 1-.258.066ZM489.271 273.727a.19.19 0 0 1-.066-.258l.102-.17a.189.189 0 0 1 .258-.066.19.19 0 0 1 .066.258l-.102.17a.19.19 0 0 1-.258.066ZM488.443 273.231a.19.19 0 0 1-.066-.258l.102-.171a.19.19 0 0 1 .258-.065.19.19 0 0 1 .066.258l-.102.17a.186.186 0 0 1-.258.066ZM487.607 272.739a.19.19 0 0 1-.066-.258l.102-.171a.19.19 0 0 1 .258-.066.191.191 0 0 1 .066.259l-.102.17a.191.191 0 0 1-.258.066ZM486.771 272.247a.191.191 0 0 1-.066-.259l.102-.17a.19.19 0 0 1 .258-.066.19.19 0 0 1 .066.258l-.102.171a.19.19 0 0 1-.258.066ZM485.935 271.754a.19.19 0 0 1-.066-.258l.102-.17a.19.19 0 0 1 .258-.066.19.19 0 0 1 .066.258l-.102.17a.189.189 0 0 1-.258.066ZM485.099 271.258a.19.19 0 0 1-.066-.258l.102-.17a.19.19 0 0 1 .258-.066.19.19 0 0 1 .066.258l-.102.17a.19.19 0 0 1-.258.066ZM484.263 270.766a.19.19 0 0 1-.065-.258l.101-.17a.19.19 0 0 1 .258-.066.19.19 0 0 1 .066.258l-.101.17a.191.191 0 0 1-.259.066ZM483.431 270.274a.191.191 0 0 1-.066-.258l.102-.171a.19.19 0 0 1 .258-.065.19.19 0 0 1 .066.258l-.101.17a.191.191 0 0 1-.259.066ZM480.209 268.364a.19.19 0 0 1-.066-.258l.101-.171a.191.191 0 0 1 .259-.066.191.191 0 0 1 .065.259l-.101.17a.191.191 0 0 1-.258.066ZM481.838 269.329a.19.19 0 0 1-.066-.259l.102-.17a.19.19 0 0 1 .258-.066.19.19 0 0 1 .066.258l-.102.171a.191.191 0 0 1-.258.066ZM479.373 267.872a.191.191 0 0 1-.066-.259l.101-.17a.191.191 0 0 1 .259-.066.19.19 0 0 1 .066.258l-.102.171a.19.19 0 0 1-.258.066ZM478.537 267.379a.19.19 0 0 1-.066-.258l.102-.17a.19.19 0 0 1 .258-.066.19.19 0 0 1 .066.258l-.102.17a.19.19 0 0 1-.258.066ZM477.701 266.887a.19.19 0 0 1-.066-.258l.102-.17a.19.19 0 0 1 .258-.066.19.19 0 0 1 .066.258l-.102.17a.19.19 0 0 1-.258.066ZM476.865 266.391a.19.19 0 0 1-.066-.258l.102-.17a.19.19 0 0 1 .258-.066.19.19 0 0 1 .066.258l-.102.17a.185.185 0 0 1-.258.066ZM476.03 265.899a.188.188 0 0 1-.066-.258l.101-.171a.191.191 0 0 1 .259-.065.19.19 0 0 1 .065.258l-.101.17a.19.19 0 0 1-.258.066ZM475.201 265.403a.19.19 0 0 1-.066-.258l.102-.171a.19.19 0 0 1 .258-.066.191.191 0 0 1 .066.259l-.102.17a.191.191 0 0 1-.258.066ZM474.365 264.914a.19.19 0 0 1-.066-.258l.102-.17a.19.19 0 0 1 .258-.066.19.19 0 0 1 .066.258l-.102.171a.191.191 0 0 1-.258.065ZM473.529 264.418a.19.19 0 0 1-.066-.258l.102-.17a.19.19 0 0 1 .258-.066.19.19 0 0 1 .066.258l-.102.17a.19.19 0 0 1-.258.066ZM472.709 263.934a.19.19 0 0 1-.066-.258l.101-.17a.191.191 0 0 1 .259-.066.19.19 0 0 1 .065.258l-.101.17a.19.19 0 0 1-.258.066ZM471.877 263.438a.19.19 0 0 1-.066-.258l.101-.17a.19.19 0 0 1 .259-.066.19.19 0 0 1 .065.258l-.101.17a.188.188 0 0 1-.258.066ZM471.041 262.95a.19.19 0 0 1-.066-.259l.102-.17a.19.19 0 0 1 .258-.066.19.19 0 0 1 .066.258l-.101.171a.191.191 0 0 1-.259.066ZM464.629 258.646a.288.288 0 0 1-.404.046l-1.307-1.035c.165-.025.437-.069.81-.091l.854.676a.29.29 0 0 1 .047.404Z"/><path d="m485.628 272.556-.252-.151a.353.353 0 0 1-.124-.484l.626-1.057a.354.354 0 0 1 .484-.123l.252.151a.353.353 0 0 1 .124.483l-.626 1.057a.353.353 0 0 1-.484.124ZM487.289 273.536l-.253-.151a.354.354 0 0 1-.124-.483l.627-1.057a.352.352 0 0 1 .483-.124l.253.151a.354.354 0 0 1 .123.483l-.626 1.058a.356.356 0 0 1-.483.123ZM497.49 278.579a.191.191 0 0 1-.066-.259l.102-.17a.19.19 0 0 1 .258-.066.19.19 0 0 1 .066.258l-.102.171a.19.19 0 0 1-.258.066ZM496.654 278.09a.19.19 0 0 1-.066-.258l.102-.17a.19.19 0 0 1 .258-.066.19.19 0 0 1 .066.258l-.102.17a.191.191 0 0 1-.258.066ZM495.818 277.594a.19.19 0 0 1-.066-.258l.102-.17a.19.19 0 0 1 .258-.066.19.19 0 0 1 .066.258l-.102.17a.191.191 0 0 1-.258.066ZM494.982 277.098a.19.19 0 0 1-.066-.258l.102-.17a.19.19 0 0 1 .258-.066.19.19 0 0 1 .066.258l-.102.17a.188.188 0 0 1-.258.066ZM494.15 276.606a.19.19 0 0 1-.066-.258l.102-.171a.19.19 0 0 1 .258-.065.187.187 0 0 1 .066.258l-.102.17a.19.19 0 0 1-.258.066ZM493.318 276.114a.19.19 0 0 1-.066-.258l.102-.171a.19.19 0 0 1 .258-.066.191.191 0 0 1 .066.259l-.102.17a.19.19 0 0 1-.258.066ZM492.482 275.622a.191.191 0 0 1-.066-.259l.102-.17a.19.19 0 0 1 .258-.066.19.19 0 0 1 .066.258l-.102.171a.19.19 0 0 1-.258.066ZM491.646 275.125a.19.19 0 0 1-.066-.258l.102-.17a.19.19 0 0 1 .258-.066.19.19 0 0 1 .066.258l-.102.171a.191.191 0 0 1-.258.065ZM490.814 274.633a.19.19 0 0 1-.066-.258l.102-.17a.19.19 0 0 1 .258-.066.19.19 0 0 1 .066.258l-.102.17a.189.189 0 0 1-.258.066Z"/></g><path d="M485.674 276.969a.673.673 0 0 0 .7-.997c-.283-.494-.716-1.066-1.332-1.42-1.263-.73-1.636 1.582-1.227 1.843.244.154 1.112.442 1.859.574Z" fill="#2B478B"/><path d="m485.55 274.221-1.552 2.626s-1.543-.313-3.655-1.494c-1.291-.722-2.071-1.39-2.48-1.799-.261-.261-.371-.415-.371-.415l1.629-2.754c.156-.019.351.008.574.071 1.848.525 5.643 3.518 5.643 3.518l.212.247Z" fill="#2B478B"/><path d="m479.695 270.456-1.832 3.098c-.261-.261-.371-.415-.371-.415l1.629-2.754c.156-.019.351.008.574.071Z" fill="#4A75CB"/><path d="M515.031 287.024c.077-.028 5.441 1.184 8.357 3.317l-3.688-.057-4.737-2.801c.002.002-.311-.319.068-.459Z" fill="#2B478B"/><path d="M504.084 276.341s-3.318 2.285-3.897 2.593c-.577.31-1.502.225-1.502.225h-.006l-5.709-.961s-6.086-3.554-7.396-4.361c-.118-.074-.198-.124-.23-.149-.385-.277-.511-.524-.379-.601.131-.077 10.139 3.905 11.243 4.353.011.005.022.008.03.014 1.076.431 1.293.206 1.293.206l5.518-1.516a.56.56 0 0 1 .296-.036c.338.036.739.233.739.233Z" fill="#4A75CB"/><path d="M503.348 276.108c-1.511.464-5.682 1.738-6.045 1.785-.39.049-9.491-3.249-11.729-4.056-.118-.074-.198-.124-.23-.149-.385-.277-.511-.524-.379-.601.131-.077 10.139 3.905 11.243 4.353 1.104.447 1.326.22 1.326.22l5.517-1.516a.54.54 0 0 1 .297-.036Z" fill="#4A75CB"/><path d="M504.085 276.339s-3.317 2.285-3.896 2.593c-.577.31-1.503.225-1.503.225h-.005a12.394 12.394 0 0 1-2.439-1.705c1.077.431 1.294.206 1.294.206l5.517-1.516a.56.56 0 0 1 .296-.036c.335.036.736.233.736.233Z" fill="#4A75CB"/><path d="m519.539 288.849-14.316-8.956s7.393 2.411 8.387 2.142c.939-.252 11.213-3.682 13.643-3.375-2.76 1.115-9.236 3.878-9.683 5.407-.426 1.461 1.148 3.73 1.969 4.782Z" fill="#739AF0"/><path d="M175.749 114.659c-.03-.791-.64-9.316-13.624-9.761 0 0 6.385.761 7.489 3.568 0 0-4.347-3.469-7.887-2.354-3.54 1.115-5.619 7.319-5.641 9.359-.022 2.041 1.947 8.618 4.194 9.176.851.211 1.831.156 2.721.002a30.514 30.514 0 0 0-1.744 3.115c-5.179 10.636.162 21.028 4.548 19.88 2.812-.736 3.609 4.064 3.609 4.064l27.327-22.124c0-.002-10.04-20.772-20.992-14.925Z" fill="#1A3151"/><path d="m185.265 427.968-5.806 2.162s-25.213-34.968-28.316-65.737c-.555-5.492-.371-10.815.829-15.73 0 0-.247-1.407-.678-3.895a12430.746 12430.746 0 0 0-3.963-22.601c-2.966-16.837-6.811-38.365-9.796-54.189l1.566-.503 16.922-5.459 3.499-11.109 12.602-3.317s2.815 5.506 5.331 31.521c.464 3.411.887 7.176 1.202 11.257.981 12.454 1.052 27.905-1.2 45.568a238.973 238.973 0 0 1-2.213 13.987c-.665 3.515-.764 8.307-.484 13.811 1.272 25.147 10.505 64.234 10.505 64.234Z" fill="#145566"/><path d="m178.657 290.368-27.363 54.4a12430.746 12430.746 0 0 0-3.963-22.601c-2.966-16.837-6.811-38.365-9.796-54.189l1.566-.503 16.922-5.459 3.499-11.109 12.602-3.317s2.815 5.506 5.331 31.521a194.78 194.78 0 0 1 1.202 11.257Z" fill="#0F3C48"/><path d="m166.622 254.574-.635-5.432c-10.614 2.817-38.969-7.876-38.969-7.876s-10.282 9.038-8.931 30.7c.659 10.573 1.862 55.504 3.12 68.801.453 4.82.851 8.247 1.016 9.618.003.005.003.011.003.014.049.417-.096.812-.308 1.178a62.148 62.148 0 0 0-4.638 9.757c-12.336 32.875 1.9 73.363 1.9 73.363l3.694-1.488s8.101-45.058 14.684-64.965c1.118-3.376 2.189-6.028 3.172-7.616 2.862-4.619 5.517-12.168 7.929-21.146 4.556-16.974 8.225-39.054 10.666-56.097.335.016 7.297-28.811 7.297-28.811Z" fill="#145566"/><path d="M250.23 247.633c-2.285 2.022-8.346-4.921-9.181-5.841a.545.545 0 0 0-.088-.132l1.845-5.141s7.951-.307 9.269 1.011c1.318 1.318.659 7.95-1.845 10.103Z" fill="#ED985F"/><path d="m242.807 236.52-.791 5.317s-.352 0-.967-.044c-1.933-.132-6.632-.395-11.949-.967-7.994-.791-17.485-2.197-21.261-4.523-5.753-3.515-15.2-14.277-21.349-25.04a7.107 7.107 0 0 1-.44-.791c-3.207-5.712-5.448-11.378-5.621-15.903-.132-2.769.175-5.141.747-7.204a18.366 18.366 0 0 1 3.251-6.5c.176-.264.352-.527.615-.747 2.11-2.505 4.175-3.559 4.175-3.559 1.054-.44 2.197.088 3.383 1.362v.044c.967 1.01 2.021 2.548 3.032 4.482.044.044.088.088.088.132.22.395.439.834.703 1.318.088.088.132.219.176.307.483 1.011.966 2.065 1.45 3.164 5.401 11.773 11.158 29.607 15.947 34.924 2.065 2.285 11.51 6.764 19.021 10.103a357.626 357.626 0 0 0 9.79 4.125Z" fill="#ED985F"/><path d="M186.893 188.682c-3.331 1.546-7.354 2.598-12.223 2.861-18.246 1-22.387-14.994-23.143-25.611 2.631-.953 4.933-.863 6.262-.791 1.293.071 2.644.203 3.757.34 2.232-1.167 6.242-6.83 8.56-16.301l.788.365 13.165 6.19s-1.398 4.284-2.43 8.384c-.805 3.208-1.384 6.308-.901 7.176 1.038.423 1.659.687 1.659.687s0 .005.005.013c.132.338 2.997 7.632 4.501 16.687Z" fill="#FFB27D"/><path d="M191.457 200.655c-.137.365-.288.719-.456 1.085-4.622 9.952-13.176 51.179-13.176 51.179 1.219 7.412-55.705-1.456-55.85-8.203-2.005-7.157 7.112-18.653 12.256-24.423a16.329 16.329 0 0 0 1.725-2.323 16.193 16.193 0 0 0 2.331-6.805c1.011-9.568.626-18.532.712-23.983 1.005-.744 1.977-1.431 2.88-2.085 1.384-1.01 2.607-1.952 3.507-2.908.992-1.043 1.612-2.109 1.681-3.312.052-.909.025-1.843-.071-2.776-.044-.44-.099-.882-.165-1.321-.711-4.63-2.645-8.829-2.645-8.829 4.897-1.98 13.602-.802 13.602-.802s-.008.483-.013 1.274c-.028 3.18 0 11.345 1.019 12.891 1.274 1.925 24.595 10.356 25.828 7.744 1.214-2.568-2.109-14.602-2.233-15.057-.005-.011-.005-.014-.005-.014 7.81 3.067 10.6 5.641 10.6 5.641-4.701 3.045 2.115 13.371-1.527 23.027Z" fill="#EBB044"/><path d="M184.064 155.738s-1.401 4.281-2.431 8.384c-7.694-2.147-10.032-10.235-10.735-14.571l13.166 6.187Z" fill="#ED985F"/><path d="M185.682 160.27s-18.41-4.259-15.582-15.687c2.829-11.424 2.359-19.668 14.234-17.43 11.875 2.238 13.069 7.159 13.053 11.205-.017 4.039-6.844 22.725-11.705 21.912Z" fill="#FFB27D"/><path d="M198.421 131.87c-1.98-4.141-4.309-3.919-5.767-3.185-8.651-8.006-17.137-1.464-17.137-1.464-3.265 7.89-10.345 11.114-10.345 11.114s2.829 2.897 11.026 2.831c2.505-.019 5.023-1.17 7.313-2.754-4.418 4.451-9.601 7.159-9.601 7.159 10.263-1.963 17.142-13.844 17.848-15.107.871 1.283 2.532 4.018 2.672 6.325.19 3.136-.889 9.224.907 9.455.005.003 6.052-8.164 3.084-14.374Z" fill="#1A3151"/><path d="M192.988 177.621s4.432 7.734 5.097 9.725c0 0-5.748-.223-8.068 4.201 0-.002-.558-12.885 2.971-13.926Z" fill="#EBB044"/><path d="M162.502 239.062c-11.226-.118-20.734-11.776-26.545-21.094a16.209 16.209 0 0 0 2.332-6.805c1.01-9.568.626-18.532.711-23.983 1.005-.744 1.977-1.431 2.881-2.084 1.384-1.011 2.606-1.953 3.507-2.908 9.197 15.535 32.337 57.036 17.114 56.874Z" fill="#9B732A"/><path d="M140.655 437.711h-29.237s-.7-4.457.827-7.838c1.463-3.243 3.754-4.718 3.207-8.643 1.857 1.912 4.886 4.054 9.112 3.485.519.841 3.343 5.334 5.073 6.578 1.911 1.373 10.43.884 11.018 6.418ZM203.429 437.714h-29.236s-1.093-4.663.826-7.837c1.7-2.807 1.047-4.408-.211-6.729 1.324.541 3.037 1.036 4.924.929 1.455-.086 2.996-.745 4.347-1.53 1.258 1.433 6.646 7.541 8.329 8.752 1.912 1.371 10.433.882 11.021 6.415Z" fill="#1A3151"/><path d="m228.722 221.949-28.449 37.003 2.313 1.62 28.797-37.005-2.661-1.618Z" fill="#247B7B"/><path d="M231.383 223.566h28.869l-30.22 37.006h-27.446l28.797-37.006Z" fill="#247B7B"/><path d="M228.719 221.949h28.676l1.62 1.618H231.38l-2.661-1.618Z" fill="#CCDFED"/><path d="M229.479 222.413h28.438l.461-.464h-29.659l.76.464Z" fill="#247B7B"/><path d="M225.446 246.027c-.08-1.472-2.021-1.406-3.496-1.412-2.42-.011-6.237-.176-8.445-1.024 0 0 7.05-.102 5.553-2.329-.272-.406-3.776-.099-7.689-.099-1.604 0-5.57 2.2-5.367 2.301a78.85 78.85 0 0 1-6.244-1.104 368.88 368.88 0 0 1-6.721-3.734c-5.931-3.34-12.739-7.423-17.397-10.807-2.68-1.933-4.702-3.647-5.402-4.877-1.098-1.89-2.329-4.878-3.691-8.566a245.318 245.318 0 0 1-2.197-6.283c-1.318-3.691-2.636-7.687-3.998-11.685-2.461-7.292-5.097-14.63-7.599-20.298-1.626-3.559-3.208-6.5-4.702-8.302-1.186-1.45-2.329-2.197-3.427-2.021a5.382 5.382 0 0 0-.439.132s-6.325 1.757-6.413 14.497c-.044.703 0 1.45.044 2.241.088 2.241.527 4.965 1.186 7.951 1.055 5.009 2.813 10.806 5.01 16.694.615 1.582 1.23 3.208 1.889 4.831 4.745 11.773 10.85 22.755 15.991 26.49.22.176.396.307.616.439 2.153 1.362 5.316 2.725 8.96 3.999 5.185 1.757 11.334 3.339 16.827 4.657h.044c3.207.703 6.148 1.363 8.609 1.846 0 0 .404.101 1.123.244l.327.063c2.329.572 7.116 1.802 11.641 3.56 6.328 2.504 10.98-.61 13.092-2.813 1.334-1.392 2.389-3.246 2.315-4.591Z" fill="#FFB27D"/><path d="M152.735 176.133c-8.456-2.331-14.981 4.27-14.981 4.27.107-12.717 6.437-14.458 6.437-14.458 2.546-1.055 5.498 3.355 8.544 10.188Z" fill="#EBB044"/><path d="M353.916 331.798c-3.454-3.106-.612-10.438-1.927-11.885-.217-.236-.712-.604-1.346-1.077-.868 3.592-2.45 7.258-4.754 10.719-7.84 11.789-21.088 16.768-29.588 11.114-8.266-5.498-8.994-19.029-1.807-30.615.201-.324.409-.646.623-.97 2.288-3.438 5.034-6.294 7.989-8.48a.184.184 0 0 1 .025-.019c-.376-.217-.673-.379-.873-.451-1.846-.653-7.509 4.801-11.71 2.815-4.199-1.985-.363-10.002 7.936-10.941 5.062-.574 10.403 2.041 13.8 4.172a18.75 18.75 0 0 1 4.477-.539c.055 0 .109-.002.164 0a11.342 11.342 0 0 1 1.426-9.562 11.379 11.379 0 0 1 2.331-2.557c-.005-.008-.008-.016-.014-.024a5.775 5.775 0 1 1 10.799-1.895c.917.31 1.81.744 2.655 1.307.75.5 1.42 1.071 2.011 1.7a5.771 5.771 0 0 1 6.107.181 5.774 5.774 0 0 1-3.438 10.579 11.363 11.363 0 0 1-1.508 3.311 11.332 11.332 0 0 1-7.725 4.941c.758 1.552 1.285 3.268 1.582 5.097 3.304 2.238 8.269 6.336 9.788 11.537 2.342 8.011-3.568 14.646-7.023 11.542Z" fill="#EFCDAF"/><path d="M314.492 310.052c.201-.324.409-.645.624-.969 2.287-3.438 5.033-6.294 7.988-8.48.879-.069 1.774.12 2.096 1.024.714 1.996-5.982 8.274-5.408 11.839.426 2.642-3.424-1.173-5.3-3.414ZM341.715 298.522c-1.066-.488-3.241-1.628-4.954-2.886.055 0 .11-.003.164 0a11.342 11.342 0 0 1 1.426-9.562 11.358 11.358 0 0 1 2.331-2.557l-.013-.025c.115.05.167.203.112.53-.214 1.247-3.337 9.955 1.752 13.685 0-.006.761 1.538-.818.815Z" fill="#E2B99A"/><path d="M357.453 286.949s2.958-.892 3.993 1.137c1.035 2.033-.958 4.457-2.562 4.067 0-.002-.115-2.861-1.431-5.204ZM349.118 280.88s-1.195-3.227-3.37-3.049c-2.175.182-1.675 3.678-1.675 3.678s2.958-1.036 5.045-.629Z" fill="#FFF3E9"/><path d="M282.116 312.823s-7.412-9.557-7.461-17.356c-.05-7.799.175-10.389 1.477-10.038 1.302.352 7.157 4.702 9.263 9.033 2.104 4.331 5.803 15.662 5.88 17.205.077 1.543-9.159 1.156-9.159 1.156Z" fill="#AFCDFB"/><path d="M282.524 309.773s-4.735-6.602-4.916-11.875c-.178-5.272-.088-7.019.717-6.755.807.263 4.487 3.314 5.863 6.28 1.376 2.969 3.864 10.7 3.941 11.743.074 1.044-5.605.607-5.605.607Z" fill="#E57970"/><path d="M294.076 308.833s-3.554-12.943-2.15-16.466c1.403-3.524 8.683-1.17 9.507 1.313.827 2.485.316 12.973.316 12.973l-7.673 2.18Z" fill="#AFCDFB"/><path d="M295.021 293.953s-.513 10.257 1.28 14.25l3.449-.98s.536-11.455.074-12.226c-.458-.775-4.803-1.044-4.803-1.044Z" fill="#E57970"/><path d="M291.727 293.102s11.952 7.909 12.916 7.074c.964-.835-2.669-8.865-4.081-9.584-1.406-.717-8.92-2.2-8.835 2.51Z" fill="#AFCDFB"/><path d="M269.741 437.676h162.935V303.327H269.741v134.349Z" fill="#D3671E"/><path d="M514.145 303.324H351.211v134.349h162.934V303.324Z" fill="#F1A34F"/><path opacity=".4" d="M514.143 303.324v92.153l-162.932 42.196V303.324h162.932Z" fill="#D86713"/><path d="m351.211 303.324 32.241 35.35h160.776l-30.082-35.35H351.211ZM269.836 403.601h25.817l-2.274-7.266 2.274-5.19h-25.817v12.456Z" fill="#F1A34F"/><path opacity=".4" d="M514.177 426.644h-25.818l2.274-7.266-2.274-5.19h25.818v12.456Z" fill="#D86713"/><path d="m351.207 318.514-34.344 34.341h-47.027v-49.531h81.371v15.19Z" fill="#C95C12"/><path d="m269.742 303.324-36.633 35.35h81.52l36.58-35.35h-81.467ZM362.602 382.003v-26.468h8.142c1.782 0 3.414.305 4.899.917 1.486.613 2.758 1.472 3.818 2.582 1.06 1.109 1.886 2.439 2.482 3.99.594 1.552.89 3.274.89 5.163v1.2c0 1.89-.294 3.609-.881 5.155-.588 1.546-1.418 2.872-2.491 3.982a11.112 11.112 0 0 1-3.845 2.573c-1.491.607-3.133.909-4.927.909h-8.087v-.003Zm5.454-22.049v17.669h2.636c2.156 0 3.798-.711 4.927-2.136 1.126-1.423 1.691-3.458 1.691-6.1v-1.236c0-2.691-.557-4.729-1.672-6.115-1.115-1.387-2.746-2.082-4.891-2.082h-2.691ZM408.537 369.366c0 2.024-.272 3.839-.818 5.443-.547 1.607-1.313 2.966-2.299 4.081a10.039 10.039 0 0 1-3.553 2.573c-1.382.602-2.903.901-4.562.901-1.659 0-3.18-.299-4.564-.901a10.183 10.183 0 0 1-3.573-2.573c-1-1.115-1.78-2.474-2.337-4.081-.558-1.606-.835-3.419-.835-5.443v-1.164c0-2.013.275-3.823.827-5.435.552-1.612 1.323-2.983 2.318-4.109a9.993 9.993 0 0 1 3.561-2.589c1.382-.599 2.903-.901 4.562-.901 1.659 0 3.18.299 4.561.901a10.024 10.024 0 0 1 3.562 2.589c.994 1.126 1.766 2.497 2.318 4.109s.827 3.424.827 5.435v1.164h.005Zm-5.528-1.197c0-2.777-.497-4.883-1.491-6.328-.994-1.441-2.411-2.164-4.254-2.164-1.843 0-3.26.723-4.254 2.164-.994 1.442-1.491 3.551-1.491 6.328v1.2c0 1.381.129 2.603.39 3.663.261 1.06.637 1.95 1.126 2.672.491.723 1.093 1.266 1.809 1.637.715.371 1.533.555 2.456.555 1.842 0 3.254-.728 4.234-2.181.981-1.452 1.472-3.567 1.472-6.343v-1.203h.003ZM434.021 382.003h-5.454L417.95 364.59v17.413h-5.454v-26.468h5.454l10.634 17.45v-17.45h5.434v26.468h.003ZM454.055 376.549h-9.562l-1.818 5.454h-5.8l9.854-26.468h5.053l9.908 26.468h-5.8l-1.835-5.454Zm-8.087-4.416h6.615l-3.325-9.908-3.29 9.908ZM481.906 359.951h-8.107v22.05h-5.454v-22.05h-7.997v-4.416h21.558v4.416ZM500.938 370.532h-10.471v7.091h12.289v4.38h-17.74v-26.468h17.705v4.416H490.47v6.308h10.471v4.273h-.003Z" fill="#F1A34F"/><path d="m229.509 402.29-2.966.577c-3.52.683-6.959-1.637-7.642-5.158l-4.364-22.464c-.621-3.21 1.247-6.347 4.246-7.396-.025-.077-.05-.154-.066-.239l-.256-1.321a1.702 1.702 0 0 1 1.343-1.988l1.321-.258a1.703 1.703 0 0 1 1.991 1.34l.256 1.324c.013.06.021.123.024.184l.003.033c3.252-.256 6.272 1.983 6.91 5.253l4.361 22.467c.683 3.518-1.64 6.962-5.161 7.646Z" fill="#CADDFF"/><path d="m230.55 373.489-15.769 3.062 2.998 15.44 15.769-3.062-2.998-15.44Z" fill="#2B478B"/><path d="m223.396 366.89-4.614.955c-.024-.077-.049-.153-.066-.239l-.255-1.321a1.701 1.701 0 0 1 1.343-1.988l1.321-.258a1.704 1.704 0 0 1 1.991 1.34l.255 1.324c.011.063.019.126.025.187Z" fill="#4A75CB"/><path d="M309.461 361.217s-1.953 2.749-3.743 2.788c-1.791.038-4.515-1.274-4.515-1.274s-1.645-3.667-.53-5.1c0 0 1.117-.492 2.287.376.201.151.404.338.607.58.283.34.602.535.94.637 1.277.39 2.795-.528 3.361.357.332.513.692.898.989 1.17.348.313.604.466.604.466ZM283.992 381.053s6.904-16.731 19.334-17.049c0 0 11.474 1.274 12.111 17.049h-31.445Z" fill="#F9DDBF"/><path d="M299.923 364.516s4.981 1.107 6.519.456c0 0 .234-2.082-1.865-1.791-1.436.201-2.37-.491-2.922-.769-.779-.395-1.938 1.233-1.732 2.104Z" fill="#F1A34F"/><path d="M304.257 361.377c-.318.239-1.296-3.369-1.296-3.369.2.151.404.338.607.579.283.341.601.536.939.637.003.108.06 1.92-.25 2.153ZM308.857 360.749c-.069.041-2.376 1.423-2.686 1.423-.319 0 1.7-2.59 1.7-2.59.327.511.689.898.986 1.167ZM290.737 376.379c-.127-.109 4.885-7.381 6.267-7.436 1.381-.053 4.484 1.592 6.731 1.807 2.246.211 4.424-.426 4.85.903.425 1.329 1.592 6.036.876 6.789-.717.752-15.967.294-18.724-2.063Z" fill="#E5C1A1"/><path d="M232.544 387.691a2.326 2.326 0 0 1-.791.893 2.433 2.433 0 0 1-.587.285c-.58.19-1.228.157-1.807-.137l-30.961-15.728a2.378 2.378 0 0 1-1.041-3.188 2.369 2.369 0 0 1 1.378-1.178 2.358 2.358 0 0 1 1.807.137l30.962 15.728a2.378 2.378 0 0 1 1.04 3.188Z" fill="#E57970"/><path d="m208.664 378.218-1.953-6.311-4.984-2.532 3.004 6.846 3.933 1.997ZM216.225 382.058l-3.933-2-3.007-6.843 4.987 2.532 1.953 6.311ZM223.783 385.898l-3.935-1.997-3.004-6.846 4.987 2.534 1.952 6.309ZM231.752 388.583a2.363 2.363 0 0 1-2.394.148l-1.818-.923-3.005-6.843 4.987 2.532 2.23 5.086ZM197.355 369.816s-.626-3.364-3.359-4.367c0 0 .322.387-.994.808-1.315.42-.934 1.326-1.4 1.738 0 0 1.897 2.521 5.753 1.821Z" fill="#B64C41"/><path d="m196.823 370.261-.074-.036a.428.428 0 0 1-.187-.574l.384-.758a.428.428 0 0 1 .574-.186l.072.035a.428.428 0 0 1 .187.574l-.385.758a.423.423 0 0 1-.571.187Z" fill="#4A75CB"/><path d="M232.414 387.627s3.087-1.48 5.506.137c0 0-.502-.03-.066 1.28.437 1.31-.521 1.535-.576 2.156.002 0-3.153-.047-4.864-3.573Z" fill="#B64C41"/><path d="m232.369 388.315.075.036a.427.427 0 0 0 .573-.187l.385-.758a.427.427 0 0 0-.187-.574l-.071-.036a.427.427 0 0 0-.574.187l-.385.758a.424.424 0 0 0 .184.574Z" fill="#4A75CB"/><path d="M272.621 387.935a2.365 2.365 0 0 1-1.798.236 2.363 2.363 0 0 1-1.442-1.101l-17.392-30.058a2.368 2.368 0 0 1 2.664-3.474 2.363 2.363 0 0 1 1.442 1.101l17.392 30.058a2.379 2.379 0 0 1-.866 3.238Z" fill="#F1A34F"/><path d="m257.759 366.979 1.801-6.352-2.801-4.842-1.208 7.377 2.208 3.817ZM262.005 374.319l-2.208-3.818 1.208-7.376 2.801 4.842-1.801 6.352ZM266.247 381.653l-2.208-3.817 1.208-7.379 2.802 4.842-1.802 6.354ZM271.475 388.257a2.357 2.357 0 0 1-.648-.083 2.356 2.356 0 0 1-1.442-1.101l-1.022-1.763 1.209-7.376 2.801 4.841-.898 5.482Z" fill="#F9DDBF"/><path d="M252.856 353.774s1.31-3.164-.439-5.493c0 0 .057.5-1.275.135-1.332-.365-1.505.604-2.122.692.002.005.222 3.153 3.836 4.666Z" fill="#F1A34F"/><path d="m252.169 353.858-.042-.072a.43.43 0 0 1 .157-.585l.736-.425a.43.43 0 0 1 .585.156l.041.072a.43.43 0 0 1-.156.585l-.736.425a.432.432 0 0 1-.585-.156Z" fill="#D3671E"/><path d="M272.553 387.809s3.394.439 4.542 3.117c0 0-.406-.3-.752 1.035-.346 1.337-1.274 1.005-1.659 1.494 0 .003-2.62-1.755-2.131-5.646Z" fill="#F1A34F"/><path d="m272.135 388.368.041.072a.43.43 0 0 0 .585.156l.736-.425a.43.43 0 0 0 .157-.585l-.041-.072a.43.43 0 0 0-.585-.156l-.736.426a.43.43 0 0 0-.157.584Z" fill="#D3671E"/><path d="M216.341 396.366a2.33 2.33 0 0 1-.878-.804 2.436 2.436 0 0 1-.275-.593 2.365 2.365 0 0 1 .168-1.805l16.224-30.703a2.378 2.378 0 0 1 3.205-.988c.577.304.975.815 1.156 1.397a2.365 2.365 0 0 1-.167 1.807l-16.225 30.703a2.383 2.383 0 0 1-3.208.986Z" fill="#4A75CB"/><path d="m226.199 372.642 6.339-1.851 2.614-4.943-6.893 2.894-2.06 3.9ZM222.234 380.138l2.06-3.897 6.893-2.897-2.614 4.946-6.339 1.848ZM218.277 387.633l2.063-3.903 6.89-2.894-2.612 4.946-6.341 1.851ZM215.463 395.558a2.402 2.402 0 0 1-.275-.593 2.363 2.363 0 0 1 .168-1.804l.952-1.802 6.894-2.894-2.612 4.943-5.127 2.15ZM234.782 361.472s3.375-.571 4.419-3.29c0 0-.393.316-.791-1.008-.399-1.324-1.313-.953-1.714-1.428 0 0-2.551 1.857-1.914 5.726Z" fill="#699FF0"/><path d="m234.35 360.936.039-.071a.426.426 0 0 1 .576-.179l.753.398c.208.11.288.371.178.577l-.038.071a.428.428 0 0 1-.577.179l-.752-.398a.427.427 0 0 1-.179-.577ZM216.41 396.242s1.431 3.112-.228 5.504c0 0 .039-.503-1.277-.088-1.315.417-1.527-.547-2.147-.613 0 .003.099-3.15 3.652-4.803Z" fill="#4A75CB"/><path d="m215.721 396.181-.039.071a.427.427 0 0 0 .179.577l.752.398c.209.11.467.031.577-.178l.038-.072a.426.426 0 0 0-.178-.576l-.753-.399a.427.427 0 0 0-.576.179Z" fill="#4A75CB"/><path d="M248.758 368.459s1.417 1.997 2.719 2.024c1.299.028 3.276-.925 3.276-.925s1.194-2.658.384-3.699c0 0-.813-.357-1.661.272a2.546 2.546 0 0 0-.44.42c-.206.247-.436.39-.681.461-.928.283-2.029-.382-2.438.258a4.437 4.437 0 0 1-.717.849c-.255.231-.442.34-.442.34ZM267.24 382.859s-5.011-12.141-14.03-12.375c0 0-8.327.926-8.788 12.375h22.818Z" fill="#B64C41"/><path d="M255.679 370.853s-3.617.804-4.732.332c0 0-.168-1.513 1.354-1.299 1.041.146 1.722-.354 2.12-.56.566-.289 1.409.895 1.258 1.527ZM252.537 368.573c.23.173.941-2.444.941-2.444-.145.11-.293.244-.439.42-.206.247-.437.39-.681.461-.006.08-.047 1.396.179 1.563ZM249.195 368.122c.05.03 1.722 1.033 1.95 1.033.231 0-1.233-1.882-1.233-1.882-.239.374-.5.654-.717.849ZM262.343 379.464c.093-.08-3.546-5.358-4.548-5.397-1.003-.038-3.254 1.156-4.886 1.31-1.631.154-3.21-.307-3.518.657-.307.964-1.156 4.38-.637 4.926.522.547 11.587.215 13.589-1.496Z" fill="#963333"/><path d="M284.684 369.107c-1.491.019-2.238-2.236-2.238-2.236l-14.533 4.4c.651 1.592-.401 2.82-.401 2.82s-2.513 1.678-1.733 4.259l3.216 10.623a3.584 3.584 0 0 0 4.46 2.386l15.329-4.641a3.587 3.587 0 0 0 2.387-4.457l-3.216-10.625a3.596 3.596 0 0 0-3.271-2.529Z" fill="#CADDFF"/><path d="m266.461 370.798.873 2.884c.316 1.041 4.295.761 8.89-.632 4.594-1.389 8.063-3.364 7.747-4.405l-.873-2.883-16.637 5.036Z" fill="#963333"/><path d="M283.094 365.762c.316 1.041-3.152 3.016-7.747 4.405-4.594 1.39-8.574 1.673-8.89.632-.315-1.041 3.153-3.015 7.748-4.405 4.594-1.392 8.573-1.675 8.889-.632Z" fill="#B64C41"/><path d="M245.695 374.883c-1.041-.505-.78-2.328-.78-2.328l-11.617-1.989c-.099 1.332-1.258 1.818-1.258 1.818s-2.329.294-2.68 2.357l-1.453 8.491a2.785 2.785 0 0 0 2.268 3.205l12.254 2.095a2.785 2.785 0 0 0 3.205-2.268l1.453-8.491a2.784 2.784 0 0 0-1.392-2.89Z" fill="#B7D2F9"/><path d="m232.455 369.734-.395 2.304c-.143.833 2.719 2.019 6.39 2.645 3.672.629 6.764.461 6.907-.371l.396-2.304-13.298-2.274Z" fill="#C95C12"/><path d="M245.752 372.01c-.143.835-3.235 1-6.907.371s-6.533-1.813-6.391-2.645c.143-.832 3.235-1 6.907-.371 3.672.627 6.533 1.813 6.391 2.645Z" fill="#F1A34F"/><path d="M208.677 437.672h71.979v-59.349h-71.979v59.349Z" fill="#D3671E"/><path d="M244.662 437.672h71.979v-59.349h-71.979v59.349Z" fill="#F1A34F"/><path opacity=".4" d="M244.664 378.324h72.163v40.661l-72.163 18.688v-59.349Z" fill="#D86713"/><path d="m244.664 378.324 14.242 15.615h71.026l-13.292-15.615h-71.976ZM208.719 422.622h11.405l-1.005-3.208 1.005-2.293h-11.405v5.501Z" fill="#F1A34F"/><path d="m244.667 385.033-15.173 15.173h-20.775v-21.882h35.948v6.709Z" fill="#C95C12"/><path d="m208.676 378.324-16.184 15.615h36.012l16.161-15.615h-35.989ZM249.695 413.08v-11.693h3.598c.788 0 1.508.134 2.164.406a4.887 4.887 0 0 1 1.686 1.14c.47.489.835 1.076 1.096 1.763.264.686.393 1.444.393 2.279v.53c0 .835-.129 1.593-.39 2.277a5.089 5.089 0 0 1-1.102 1.758 4.907 4.907 0 0 1-1.697 1.137 5.76 5.76 0 0 1-2.175.4h-3.573v.003Zm2.409-9.741v7.805h1.164c.953 0 1.678-.316 2.175-.945.497-.628.747-1.527.747-2.694v-.546c0-1.189-.247-2.09-.739-2.702-.491-.613-1.213-.92-2.161-.92h-1.186v.002ZM269.987 407.503c0 .895-.121 1.694-.363 2.406-.241.708-.579 1.31-1.016 1.804-.436.494-.958.87-1.571 1.137a4.985 4.985 0 0 1-2.015.398 4.99 4.99 0 0 1-2.016-.398 4.484 4.484 0 0 1-1.579-1.137c-.442-.492-.786-1.093-1.033-1.804-.247-.709-.371-1.511-.371-2.406v-.514c0-.889.121-1.689.366-2.4.244-.711.585-1.318 1.024-1.815a4.448 4.448 0 0 1 1.574-1.145 5.019 5.019 0 0 1 2.015-.399c.734 0 1.406.132 2.016.399.61.263 1.134.645 1.574 1.145.439.497.78 1.104 1.024 1.815.244.711.365 1.513.365 2.4v.514h.006Zm-2.442-.53c0-1.225-.219-2.159-.659-2.796-.439-.637-1.065-.956-1.878-.956s-1.439.319-1.879.956c-.439.637-.659 1.568-.659 2.796v.53c0 .61.058 1.151.173 1.617.116.47.28.863.497 1.181.217.319.484.561.8.723.315.162.675.244 1.084.244.813 0 1.437-.321 1.871-.964.433-.643.65-1.576.65-2.804v-.527ZM281.246 413.08h-2.409l-4.69-7.692v7.692h-2.409v-11.693h2.409l4.699 7.708v-7.708h2.4v11.693ZM290.096 410.672h-4.224l-.802 2.408h-2.562l4.353-11.693h2.232l4.378 11.693h-2.562l-.813-2.408Zm-3.573-1.953h2.922l-1.469-4.377-1.453 4.377ZM302.399 403.339h-3.581v9.741h-2.409v-9.741h-3.534v-1.952h9.524v1.952ZM310.807 408.018h-4.625v3.134h5.429v1.936h-7.838v-11.693h7.822v1.952h-5.413v2.788h4.625v1.883Z" fill="#F1A34F"/></svg>