<svg width="1440" height="637" fill="none" xmlns="http://www.w3.org/2000/svg"><path d="M-126 633.016s16.976-34.11 57.57-30.337c0 0 58.907-56.863 121.743-7.584 0 0 66.805-12.222 116.241 10.571 32.97 15.208 43.856 31.123 43.856 31.123L-126 633.016ZM1101 33.802s9.7-19.873 32.91-17.675c0 0 33.67-33.13 69.58-4.42 0 0 38.19-7.12 66.44 6.16C1288.78 26.727 1295 36 1295 36l-194-2.198ZM1289 392.016s16.98-34.11 57.57-30.337c0 0 58.91-56.863 121.74-7.584 0 0 66.81-12.222 116.24 10.571 32.97 15.208 43.86 31.123 43.86 31.123L1289 392.016ZM497 518.802s10.053-19.873 34.093-17.675c0 0 34.885-33.13 72.097-4.419 0 0 39.562-7.121 68.838 6.159C691.554 511.727 698 521 698 521l-201-2.198ZM345 82.933s13.792-27.606 46.811-24.538c0 0 47.947-46.009 98.977-6.135 0 0 54.275-9.847 94.515 8.556C612.157 73.086 621 86 621 86l-276-3.067ZM102 355.546s11.093-22.084 37.653-19.63c0 0 38.566-36.807 79.612-4.908 0 0 43.656-7.878 76.022 6.845C316.887 347.668 324 358 324 358l-222-2.454Z" fill="#D9E3F6"/></svg>