<svg width="387" height="555" fill="none" xmlns="http://www.w3.org/2000/svg"><path d="M387.001 343.822H150.948v212.311h236.053V343.822Z" fill="#D3DFFF"/><path d="m146.212 480.432 10.444 75.052H63.441l43.007-35.353-.519-37.493 40.283-2.206Z" fill="#102048"/><path d="M83.42 267.991s-99.119 0 15.243 234.432h43.851L83.419 267.991Z" fill="#1F3C88"/><path d="m178.123 480.432 10.508 75.052h-93.28l43.073-35.353-.584-37.493 40.283-2.206Z" fill="#1F3C88"/><path d="M293.656 248.985s49.3 132.785-134.925 94.707l33.277 159.315-68.305-.584S14.141 310.61 83.42 268.056l210.236-19.071Z" fill="#3A6BEA"/><path d="M134.729 482.573c-13.816 0-22.768-.194-22.963-.194-.713 0-1.297-.649-1.297-1.362 0-.714.648-1.298 1.362-1.298.389 0 36.326.844 76.09-.843.713-.065 1.362.519 1.362 1.232 0 .714-.519 1.363-1.232 1.363-20.174.908-39.31 1.102-53.322 1.102ZM147.962 460.777c-20.758 0-42.553-1.038-44.11-1.168-.714-.065-1.298-.649-1.233-1.362.065-.714.649-1.297 1.362-1.232.195 0 17.709.908 36.262 1.102 30.812.389 40.736-1.297 43.591-2.724a1.299 1.299 0 0 1 1.751.584 1.3 1.3 0 0 1-.584 1.751c-4.735 2.335-20.563 3.049-37.039 3.049ZM153.474 535.181c-.324 0-.648-.13-.908-.324l-15.049-13.752c-.519-.519-.584-1.298-.065-1.882.519-.519 1.297-.583 1.881-.064l15.049 13.752c.519.518.584 1.297.065 1.881a1.32 1.32 0 0 1-.973.389Z" fill="#fff"/><path d="M200.96 94.6s-81.409-14.465-96.783 164.505l197.782-9.536s30.488-122.6-64.803-153.736L200.96 94.6Z" fill="#FBC343"/><path d="M173.652 262.411H81.54v14.855h92.112v-14.855Z" fill="#E5ECFF"/><path d="M180.591 239.451s-46.381-8.563-62.273-.454c-13.817 7.07-10.639 14.141-5.384 12.844l-.39 1.881c-.778 3.697 2.076 7.135 5.838 7.071 2.79-.065 5.579.324 8.239 1.037 12.908 3.438 53.256 13.687 62.856 11.287l7.136-10.184-16.022-23.482Z" fill="#E28B6D"/><path d="M189.477 273.117s87.636 23.482 112.415-23.482l-41.32-29.19s-29.84 20.952-80.047 19.071l8.952 33.601Z" fill="#FBC343"/><path d="M137.779 277.202H31.461L0 171.922h106.383l31.396 105.28Z" fill="#102048"/><path d="M180.595 241.203c-.844 0-1.622-.648-1.752-1.492-.13-.973.519-1.816 1.492-2.011.778-.129 76.22-11.416 93.928-17.644a1.708 1.708 0 0 1 2.206 1.038 1.71 1.71 0 0 1-1.038 2.206c-18.033 6.422-91.463 17.384-94.577 17.838-.065.065-.13.065-.259.065ZM144.136 235.949a1.763 1.763 0 0 1-1.751-1.621c0-.195-1.492-18.617-1.168-42.229.324-21.86 2.335-52.673 9.99-75.766.324-.908 1.297-1.427 2.205-1.102.908.324 1.427 1.297 1.103 2.205-14.401 43.397-8.757 115.854-8.692 116.632.064.973-.649 1.817-1.622 1.881h-.065ZM202.063 124.959c-6.357 0-10.833-2.011-10.898-2.011-.908-.389-1.297-1.427-.843-2.335.389-.908 1.427-1.233 2.335-.843.584.259 14.466 6.292 26.985-5.385.714-.648 1.817-.648 2.465.065.649.714.649 1.817-.065 2.465-6.941 6.357-14.206 8.044-19.979 8.044Z" fill="#E49B31"/><path d="M256.81 227.516h-.26a1.703 1.703 0 0 1-1.491-1.946c5.124-39.18-15.374-77.322-15.569-77.711-.454-.844-.13-1.881.714-2.4.843-.454 1.881-.13 2.4.713.194.389 21.212 39.505 15.957 79.852-.129.844-.908 1.492-1.751 1.492Z" fill="#E49B31"/><path d="M220.935 91.683c0 6.876-4.476 13.233-11.416 15.244-8.563 2.529-17.45-2.401-19.915-10.833-.13-.26-.194-.584-.259-.844l-4.476-19.59-.26-1.102 18.358-18.099 11.806 5.903 5.708 25.883c.325 1.102.454 2.27.454 3.438Z" fill="#E28B6D"/><path d="M200.83 75.591s-1.297 8.887-11.222 20.499c-.13-.26-.195-.584-.259-.844l-4.476-19.59h15.957v-.065Z" fill="#102048"/><path d="M155.163 30.64s-3.049 79.01 45.602 44.954l11.547-21.406-17.904-29.256-39.245 5.709Z" fill="#E28B6D"/><path d="M155.939 32.716s4.736 8.887 35.288 6.292c0 0 3.049 31.655 21.99 37.753l14.531-2.92c6.681-66.359-20.109-83.29-52.673-69.278-35.807-13.946-50.661 24.26-19.33 41.58 0-4.994-.26-8.432.194-13.427ZM213.282 76.763s-8.433 59.938 14.27 55.916c22.704-4.086 27.634-37.234.26-58.835l-14.53 2.92Z" fill="#102048"/><path d="M221.061 79.331c6.747-1.944 11.791-4.998 11.265-6.823-.526-1.824-6.421-1.728-13.169.216-6.747 1.944-11.791 4.998-11.265 6.823.526 1.824 6.421 1.728 13.169-.216Z" fill="#FBC343"/><path d="M161.513 53.602a1.946 1.946 0 1 0 0-3.891 1.946 1.946 0 0 0 0 3.892ZM173.642 51.788a2.206 2.206 0 1 0 0-4.412 2.206 2.206 0 0 0 0 4.412ZM166.379 63.465c-.455 0-.779-.065-1.103-.065-1.038-.13-1.881-.649-2.4-1.362-.454-.649-.584-1.362-.39-2.14.455-2.206 3.439-4.152 4.022-4.477.39-.26.973-.13 1.233.26.259.389.13.973-.26 1.232-1.362.844-2.983 2.27-3.243 3.373-.065.325 0 .584.13.779.194.324.648.584 1.232.649.779.13 1.557.064 2.011-.13a.88.88 0 0 1 1.168.454.88.88 0 0 1-.454 1.167c-.649.195-1.363.26-1.946.26ZM168.975 70.857c-.908 0-1.881-.13-2.919-.519a.819.819 0 0 1-.519-1.102.82.82 0 0 1 1.103-.52c4.93 1.752 8.433-2.53 8.562-2.724.325-.39.844-.454 1.233-.13.389.325.454.844.13 1.233 0 0-2.984 3.762-7.59 3.762ZM169.944 44.392c1.168 1.492 2.465.779 5.968.65.844 0 5.255.129 4.995-.909-.13-.778-2.789-2.14-5.773-2.27-1.622-.065-2.984.13-4.411.648-.324.13-.649.26-.908.52-.325.388-.26.843.129 1.361ZM164.498 44.65c-.454 1.558-1.686 1.233-4.476 2.012-.648.194-4.021 1.362-4.216.389-.13-.714 1.492-2.53 3.762-3.373 1.233-.454 2.4-.584 3.633-.52.324 0 .584.066.843.195.454.325.584.779.454 1.298Z" fill="#102048"/><path opacity=".4" d="M186.357 63.334a5.319 5.319 0 1 0 0-10.638 5.319 5.319 0 0 0 0 10.638Z" fill="#EB5D60"/></svg>