<svg aria-hidden="true" style="width:0;height:0;position:absolute;overflow:hidden" xmlns="http://www.w3.org/2000/svg"><defs><symbol id="icon-facebook" viewBox="0 0 32 32"><path fill="#fff" style="fill:var(--color1,#fff)" d="M16 2.667c-7.333 0-13.333 6-13.333 13.333 0 6.667 4.933 12.133 11.2 13.2v-9.333h-3.333V16h3.333v-2.933c0-3.333 2-5.2 5.067-5.2 1.467 0 2.933.267 2.933.267v3.333h-1.733c-1.6 0-2.133 1.067-2.133 2.133V16h3.733l-.533 3.867h-3.067V29.2c6.267-1.067 11.2-6.533 11.2-13.2 0-7.333-6-13.333-13.333-13.333z"/></symbol><symbol id="icon-twitter" viewBox="0 0 32 32"><path fill="#fff" style="fill:var(--color1,#fff)" d="M29.64 7.899c-.981.435-2.036.729-3.143.861a5.485 5.485 0 0 0 2.405-3.027 10.942 10.942 0 0 1-3.475 1.328 5.471 5.471 0 0 0-9.463 3.743c0 .429.048.847.141 1.247A15.528 15.528 0 0 1 4.829 6.335a5.446 5.446 0 0 0-.741 2.751c0 1.899.965 3.572 2.433 4.553a5.461 5.461 0 0 1-2.479-.684v.069a5.471 5.471 0 0 0 4.389 5.364 5.482 5.482 0 0 1-2.47.093 5.479 5.479 0 0 0 5.111 3.8 10.98 10.98 0 0 1-6.795 2.341c-.441 0-.877-.025-1.305-.076a15.487 15.487 0 0 0 8.387 2.457c10.063 0 15.567-8.336 15.567-15.567 0-.237-.005-.473-.016-.708a11.049 11.049 0 0 0 2.729-2.831z"/></symbol><symbol id="icon-youtube" viewBox="0 0 32 32"><path fill="#fff" style="fill:var(--color1,#fff)" d="M29.067 10.668s-.26-1.837-1.06-2.647c-1.013-1.063-2.151-1.068-2.672-1.129-3.732-.269-9.329-.269-9.329-.269h-.012s-5.597 0-9.329.269c-.52.063-1.656.068-2.671 1.129-.8.809-1.06 2.647-1.06 2.647s-.267 2.159-.267 4.316v2.023c0 2.157.267 4.316.267 4.316s.26 1.837 1.06 2.647c1.015 1.063 2.347 1.028 2.94 1.14 2.133.204 9.067.268 9.067.268s5.604-.008 9.335-.279c.521-.063 1.657-.068 2.672-1.129.8-.809 1.06-2.647 1.06-2.647s.267-2.157.267-4.316v-2.023c0-2.157-.267-4.316-.267-4.316zm-15.82 8.791-.001-7.493 7.205 3.76-7.204 3.733z"/></symbol><symbol id="icon-instagram" viewBox="0 0 32 32"><path fill="#fff" style="fill:var(--color1,#fff)" d="M16 6.163c3.204 0 3.584.012 4.849.069 1.169.053 1.805.249 2.228.413.56.217.96.477 1.38.897s.68.82.897 1.38c.164.423.36 1.059.413 2.228.057 1.265.069 1.645.069 4.849s-.012 3.584-.069 4.849c-.053 1.169-.249 1.805-.413 2.228-.217.56-.477.96-.897 1.38s-.82.68-1.38.897c-.423.164-1.059.36-2.228.413-1.265.057-1.644.069-4.849.069s-3.584-.012-4.849-.069c-1.169-.053-1.805-.249-2.228-.413-.56-.217-.96-.477-1.38-.897s-.68-.82-.897-1.38c-.164-.423-.36-1.059-.413-2.228-.057-1.265-.069-1.645-.069-4.849s.012-3.584.069-4.849c.053-1.169.249-1.805.413-2.228.217-.56.477-.96.897-1.38s.82-.68 1.38-.897c.423-.164 1.059-.36 2.228-.413 1.265-.057 1.645-.069 4.849-.069zM16 4c-3.259 0-3.668.013-4.948.072-1.277.059-2.149.261-2.912.557a5.868 5.868 0 0 0-2.125 1.385 5.886 5.886 0 0 0-1.384 2.125c-.297.763-.5 1.635-.559 2.912C4.013 12.331 4 12.74 4 15.999s.013 3.668.072 4.948c.059 1.277.261 2.149.557 2.913.307.789.717 1.459 1.384 2.125s1.336 1.077 2.125 1.384c.763.296 1.636.5 2.913.557 1.28.059 1.689.072 4.948.072s3.668-.013 4.948-.072c1.277-.059 2.149-.261 2.913-.557.789-.307 1.459-.717 2.125-1.384s1.077-1.336 1.384-2.125c.296-.763.5-1.636.557-2.913.059-1.28.072-1.689.072-4.948s-.013-3.668-.072-4.948c-.059-1.277-.261-2.149-.557-2.913-.307-.789-.717-1.459-1.384-2.125s-1.336-1.077-2.125-1.384c-.763-.296-1.636-.5-2.913-.557C19.667 4.013 19.258 4 15.999 4zm0 5.837a6.163 6.163 0 1 0 0 12.327 6.163 6.163 0 0 0 0-12.327zM16 20a4 4 0 1 1 0-8 4 4 0 0 1 0 8zm6.405-11.845a1.44 1.44 0 1 0 0 2.88 1.44 1.44 0 0 0 0-2.88z"/></symbol></defs></svg>