<svg aria-hidden="true" style="width:0;height:0;position:absolute;overflow:hidden" xmlns="http://www.w3.org/2000/svg"><defs><symbol id="icon-entity" viewBox="0 0 32 32"><path fill="#edb485" style="fill:var(--color1,#edb485)" d="M19.176 19.147c-.459.328-1.148 1.213-1.148 1.213l-1.279.918-1.902.459-1.41-.131-2.361 3.213c1.213-.393 6.229-1.574 6.229-1.574l2-2s.984-1.246 1.049-1.803c-.033-.295-.426-.82-1.18-.295z"/><path fill="#edb485" style="fill:var(--color1,#edb485)" d="M18.882 18.36c.033-.262-.393-.82-1.148-.295-.459.328-1.148 1.213-1.148 1.213l-1.279.918-.098.033.459-.459s.852-1.082.918-1.574c.033-.23-.328-.721-.984-.262-.393.295-.984 1.049-.984 1.049l-1.115.787-1.639.393s-.131 0-.328-.033c-1.148.361-2.918-.033-3.836-.131-.557-.066-1.18-.164-1.738-.164l-1.016 4.066 6.131.885 1.148-1.475a521.019 521.019 0 0 1 3.639-1.148l2-2c-.033 0 .951-1.246 1.016-1.803z"/><path fill="#edb485" style="fill:var(--color1,#edb485)" d="M11.931 20.196c.295.131.623.262.918.393l.328-.23s.885-.852.984-1.246c.033-.197-.197-.656-.82-.328-.393.197-1.836 1.213-1.836 1.213.131.066.295.131.426.197z"/><path fill="#edb485" style="fill:var(--color1,#edb485)" d="M14.55 20.065c-.426-.295-.852-.197-1.377-.164-.721.066-1.443.098-2.164.033-1.311-.164-2.787-1.213-4.131-1.312-2.328-.197-4.066 1.148-5.836 2.59 0 .066.033.098.033.164.098.23.197.426.328.557.098-.033.23 0 .295.066.918-.459 1.77-1.115 2.721-1.541 1.049-.459 2.262-.393 3.377-.197 1.213.197 2.361.754 3.607.852.557.033 1.115-.033 1.672-.066.525-.033 1.016 0 1.443-.295a.432.432 0 0 0 .033-.689z"/><path fill="#ffc89f" style="fill:var(--color2,#ffc89f)" d="M15.766 21.967c.164.426-.098 1.049-.852 1.377-.557.229-1.541.59-1.541.59l-2.295.885c-.459-.098-7.803-1.148-7.803-1.148l-4.131 1.148-1.049-4.23c.098.033 6.197-1.803 7.869-1.41 1.77.426 5.311 3.115 5.311 3.115s1.574-.393 2.066-.59c1.639-.59 2.229-.229 2.426.262z"/><path fill="#edf0f2" style="fill:var(--color3,#edf0f2)" opacity=".5" d="M14.686 23.18s1.246-.426.918-1.18c-.262-.557-1.41-.361-1.41-.295-.033.033.492 1.475.492 1.475z"/><path fill="#fbbf8d" style="fill:var(--color4,#fbbf8d)" d="m18.719 11.572 1.213-3.902 11.443 3.541 1.148 6.098-6.098-2.033-1.344.426-2.361.066-2.59-3.803-1.41-.393z"/><path fill="#fbbf8d" style="fill:var(--color4,#fbbf8d)" d="m18.719 11.572 1.246-3.902 6.951 2.754c-.295.262-.361.59-.557.951-.328.656-.656 1.312-.885 2.033a27.597 27.597 0 0 1-.852 2.295l-1.902.066-2.59-3.77-1.41-.426z"/><path fill="#fbbf8d" style="fill:var(--color4,#fbbf8d)" d="M19.242 7.77c-.131.066-4.754 1.016-4.754 1.016l-2.393 2.033s-.852 1.705-.984 2.295c-.066.295.361.951 1.213.426.557-.295 1.016-1.639 1.016-1.639l1.508-.852 2.131-.295 1.705.852 2.164-3.18c.033-.033-.689-1.148-1.607-.656zM18.553 17.18s-2.754.131-3.246.131c-1.082.033-1.279-.885-.623-1.377.295-.229 2.623-.557 2.623-.557l1.967-.951s.59-1.672.066-2.197a43.922 43.922 0 0 1-.623-.656l4.426-1.279 2.688 3.082-.754 2.328-6.525 1.475z"/><path fill="#fec111" style="fill:var(--color5,#fec111)" d="M12.78 17.311a1.87 1.87 0 1 0 0-3.739 1.87 1.87 0 0 0 0 3.739z"/></symbol><symbol id="icon-fund" viewBox="0 0 32 32"><path fill="#edb485" style="fill:var(--color1,#edb485)" d="M3.637 12.459c.098.59-.066 1.803-.066 1.803l.262 1.672 1.082 1.803 1.18 1.016-.721 4.262c-.623-1.213-2.918-4.459-3.344-6.164-.197-.754-.066-2.918-.066-2.918s.23-1.738.59-2.164c.197-.197.951-.295 1.082.689z"/><path fill="#edb485" style="fill:var(--color1,#edb485)" d="M4.458 12.098c.197-.23.918-.328 1.082.656.098.59-.066 1.803-.066 1.803l.262 1.672.066.098v-.721s.197-1.508.525-1.869c.164-.197.82-.262.951.59.098.525-.066 1.574-.066 1.574l.229 1.443.951 1.574.262.262c.59 1.18 2.23 2.262 3.016 2.885.459.361 1.016.787 1.443 1.246L10.72 27.18l-5.344-4.098.295-2.033c-.557-1.148-1.869-3.705-1.869-3.705l.066-3.082s.23-1.705.59-2.164z"/><path fill="#edb485" style="fill:var(--color1,#edb485)" d="M8.325 18.885c-.328-.131-.656-.295-.984-.393l-.066-.426s0-1.311.229-1.705c.131-.197.656-.328.885.393.131.459.426 2.361.426 2.361-.197-.098-.361-.164-.492-.23z"/><path fill="#edb485" style="fill:var(--color1,#edb485)" d="M13.769 24.852c.098.262 1.377-.328 1.344-.492-.328-1.049-.885-2-1.77-2.787-1.115-.951-3.016-1.311-4.131-2.197-.623-.492-1.115-1.082-1.639-1.705-.361-.426-.623-.82-1.18-.918-.262-.066-.557.197-.492.459.098.59.492.918.852 1.377.393.459.754.951 1.213 1.344 1.016.885 2.328 1.344 3.41 2.164.984.721 1.967 1.574 2.393 2.754z"/><path fill="#ffc89f" style="fill:var(--color2,#ffc89f)" d="M9.996 33.639h5.344v-7.705s0-1.18-.295-1.738c-.23-.459-.689-.984-1.443-1.475-1.672-1.049-6.426-1.803-6.426-1.803s-.885-1.541-1.115-2.033c-.754-1.672-1.508-1.869-2.033-1.639-.459.197-.754.885-.426 1.705.229.59.689 1.639.689 1.639l1.049 2.459c1.213 1.672 2.852 2.328 4.557 3.475.098.033.098 5.541.098 7.115z"/><path fill="#edf0f2" style="fill:var(--color3,#edf0f2)" opacity=".5" d="M3.897 19.017s-.623-1.279.23-1.607c.623-.23 1.311.82 1.311.852-.033.033-1.541.754-1.541.754z"/><path fill="#edb485" style="fill:var(--color1,#edb485)" d="M28.36 12.459c-.098.59.066 1.803.066 1.803l-.262 1.672-1.082 1.803-1.18 1.016.721 4.262c.623-1.213 2.918-4.459 3.344-6.164.197-.754.066-2.918.066-2.918s-.23-1.738-.59-2.164c-.197-.197-.918-.295-1.082.689z"/><path fill="#edb485" style="fill:var(--color1,#edb485)" d="M27.541 12.098c-.197-.23-.918-.328-1.082.656-.098.59.066 1.803.066 1.803l-.262 1.672-.066.098v-.721s-.197-1.508-.525-1.869c-.164-.197-.82-.262-.951.59-.098.525.066 1.574.066 1.574l-.23 1.443-.951 1.574-.262.262c-.59 1.18-2.23 2.262-3.016 2.885-.459.361-1.016.787-1.443 1.246l2.393 3.869 5.344-4.098-.295-2.033c.557-1.148 1.869-3.705 1.869-3.705l-.066-3.082s-.23-1.705-.59-2.164z"/><path fill="#edb485" style="fill:var(--color1,#edb485)" d="M23.674 18.885c.328-.131.656-.295.984-.393l.066-.426s0-1.311-.229-1.705c-.131-.197-.656-.328-.885.393-.131.459-.426 2.361-.426 2.361.197-.098.361-.164.492-.23z"/><path fill="#edb485" style="fill:var(--color1,#edb485)" d="M18.23 24.852c-.098.262-1.377-.328-1.344-.492.328-1.049.885-2 1.77-2.787 1.115-.951 3.016-1.311 4.131-2.197.623-.492 1.115-1.082 1.639-1.705.361-.426.623-.82 1.18-.918.262-.066.557.197.492.459-.098.59-.492.918-.852 1.377-.393.459-.754.951-1.213 1.344-1.016.885-2.328 1.344-3.41 2.164-.984.721-1.967 1.574-2.393 2.754z"/><path fill="#ffc89f" style="fill:var(--color2,#ffc89f)" d="M22.001 33.639h-5.344v-7.705s0-1.18.295-1.738c.23-.459.689-.984 1.443-1.475 1.672-1.049 6.426-1.803 6.426-1.803s.885-1.541 1.115-2.033c.754-1.672 1.508-1.869 2.033-1.639.459.197.754.885.426 1.705-.229.59-.689 1.639-.689 1.639l-1.049 2.459c-1.213 1.672-2.852 2.328-4.557 3.475-.098.033-.098 5.541-.098 7.115z"/><path fill="#edf0f2" style="fill:var(--color3,#edf0f2)" opacity=".5" d="M28.098 19.017s.623-1.279-.229-1.607c-.623-.23-1.312.82-1.312.852.033.033 1.541.754 1.541.754z"/><path fill="#393c41" style="fill:var(--color6,#393c41)" d="M18.033 19.869c-.066-.098-.197-.066-.229.033s-.066.23-.098.361c-.131.131-.262.23-.459.262-.033 0-.066.098 0 .098a.36.36 0 0 0 .262 0c-.033.066-.066.098-.131.164-.033.033 0 .066.033.066a.81.81 0 0 0 .361-.295c0 .098 0 .164-.033.262 0 .033.033.066.066.033.131-.164.164-.361.131-.59.066-.098.131-.262.098-.393z"/><path fill="#dcdcdc" style="fill:var(--color7,#dcdcdc)" d="M19.312 10.951c-.23-1.246-.82-2.262-1.639-3.082-.295-.328-1.475-1.213-1.705-1.41-.82-.656-2.23-1.246-3.311-1.377-.098 0-.098.164-.131.197-.164.59-.098 1.246.033 1.869-.033.426.066.885.164 1.246.033.131.131.426.262.623-1.902 2.426-.295 5.344.82 6.164 1.639 1.246 2.229.984 3.016.787 1.836-.557 2.885-2.623 2.492-5.016z"/><path fill="#231f20" style="fill:var(--color8,#231f20)" d="m22.854 11.377 1.279.557-1.279.557v-1.115z"/><path fill="#fff" style="fill:var(--color9,#fff)" d="M21.901 10.262c-.689.033-1.246.393-2.197 1.77s-2.525 2-3.475 2.525c-.918.557-4.689 2.328-3.738 3.771 1.443 2.229 4.164 2.229 5.607 1.738 2.557-.885 3.311-2.689 3.607-5.016.262-1.934.754-1.836 1.18-2.098.918-.557.951-2.787-.984-2.689z"/><path fill="#231f20" style="fill:var(--color8,#231f20)" d="M22.69 11.442a.303.303 0 1 0-.361.23c.164.066.328-.066.361-.23z"/><path fill="#fff" style="fill:var(--color9,#fff)" d="M22.656 11.349a.099.099 0 1 0-.192-.044.099.099 0 0 0 .192.044zM14.46 18.59c0-.131 0-.23-.033-.361-.066-.361-.492-.787-.885-.852-.098-.066-.197-.164-.295-.229 0-.033 0-.033-.033-.033h-.033c-.033-.033-.098-.066-.131-.098-.066-.066-.164 0-.131.098-.131 0-1.738.426-2.984 1.344a14.83 14.83 0 0 0-1.311 1.148c-.656.689-1.016 1.311-1.344 2.197-.262.721.033 1.443.754 1.639.098.033.656.098.787.098.066.328.23.689.59.918.295.197.852.197 1.148.033-.098.852 1.41 1.213 1.869.754 1.607-1.77 1.311-4.721 1.443-5.148.131-.361.295-.689.492-1.016.066-.098.098-.23.131-.328l.033-.033c-.033-.098-.033-.098-.066-.131z"/><path fill="#fafbfd" style="fill:var(--color10,#fafbfd)" d="M16.722 10.591c-.951-1.148-2.262-1.902-3.738-2.229-.525-.164-2.557-.361-2.951-.393-1.443-.164-3.475.131-4.689.754-.098.066 0 .23.033.295.328.754.918 1.377 1.574 1.934.295.426.721.82 1.082 1.115.131.098.426.328.721.426-.197 3.049 3.049 4.492 4.492 4.623 2.131.164 2.623-.262 3.311-.754 1.607-1.377 1.836-3.705.164-5.771z"/><path fill="#393c41" style="fill:var(--color6,#393c41)" d="M16.917 20.033a2.136 2.136 0 0 0-.098.262s-.197.131-.295.164-.164.033-.262.066c-.033 0-.033.033 0 .066.098.033.197.066.328.033-.098.066-.197.131-.295.098-.033 0-.033.066 0 .066.164.066.361-.033.492-.131 0 .066-.066.131-.066.197 0 .033 0 .066.033.066.197.033.262-.262.229-.426a.787.787 0 0 0 .197-.361c.033-.197-.197-.262-.262-.098z"/></symbol><symbol id="icon-organization" viewBox="0 0 32 32"><path fill="#8db90a" style="fill:var(--color11,#8db90a)" d="M23.219 12.194c.117-4-3.03-7.339-7.03-7.457s-7.338 3.028-7.456 7.029c-.117 4 3.03 7.339 7.03 7.457s7.338-3.028 7.456-7.029z"/><path fill="#fff4de" style="fill:var(--color12,#fff4de)" d="M13.311 18.493c-.033-.164-.164-.066-.197-.197-.066-.131.098-.066.131-.131l.033-.197-.066-.033c.033-.066.066.033.066.033.033.033 0-.066-.066-.098 0 0-.131-.131-.098-.164.033 0 .23.131.262 0 0-.033-.066-.164-.066-.197 0 0 .393.066.393-.098 0-.033.098-.164.033-.197l-.164-.197.262.066c.098.033.328-.197.295-.328 0 0 .033-.197.066-.164 0 0-.066.131-.033.131.098 0 .197-.459.197-.492-.066-.23.23-.23.262-.295.066-.098.098-.098.262-.098.066 0 .229-.295.229-.361s0-.59.066-.656c.131-.197.59-.623.295-.885-.033-.033-.131 0-.164-.033-.098-.066-.164-.197-.262-.23s-.361 0-.426-.033c0 0 0-.164-.033-.164l-.033.033c0-.262-.328-.033-.393.066 0-.066.197-.328-.033-.295 0 0-.066-.426-.131-.426-.033 0-.098-.131-.164-.131s-.131-.066-.229-.066c-.066 0-.23-.098-.262-.066.066-.197-.131-.164-.23-.23 0 .033.033-.197-.066-.131-.033.033-.066-.033-.098-.066 0 0 .098 0 .098-.033s-.557.098-.623-.033c.066-.066-.262-.197-.164-.066-.066.033-.098 0-.098 0s-.033.033-.033.066c0-.033.098-.23 0-.164-.066 0-.164.098-.229.098s-.262.361-.262.361c-.066-.033-.066-.164-.197-.164-.033 0-.164.066-.229.066-.131 0-.295-.262-.197-.361.066-.098.098-.328 0-.328-.033 0-.098-.098-.197-.033-.033.033-.164 0-.229-.033.066-.098.098-.197.164-.295.098-.098.131-.262.033-.295-.131-.033-.393.164-.393.295 0 .033-.295 0-.295.033s-.131-.197-.164-.23c-.066-.098-.033-.23 0-.328.033-.328.197-.492.426-.623 0 0 .23.033.262 0 .033.098.164.066.164.033.033 0 .033.066.066.066.098.033 0-.066 0-.066.033-.033.131-.066.197-.098 0 .033-.033.033-.033.066 0 0 .131-.033.164 0 .098.033.033.131.164.066.164-.131.098.262.098.23 0 .033.033 0 .033-.033v.131s-.033 0 0 .033c0 0 .098.197.131.164.066-.098.131-.262.098-.393-.066-.262.262-.59.525-.59.033 0 .197-.164.098-.164.066-.098 0-.066 0-.131 0-.033.098-.23.131-.23 0 0-.098.197-.066.164-.033 0-.066.066-.033.066.033.033.131-.23.131-.23l.033.066c.066 0 .131-.164.164-.197 0 0 .197 0 .197-.033h-.033c.033 0 .098 0 .098-.066 0 0 .033.033.066.033 0 0-.033 0-.033.033s.197-.098.098-.098l-.033.033c0-.033-.033-.033-.033-.066.033-.066.197-.164.295-.197 0 0-.066.066-.033.066s.262-.098.295-.131c0 .066.098-.033.131-.033l-.066.033c0 .033.066 0 .098 0-.033.033-.131.066-.197.066s-.033.197.033.131c.066-.033.098-.098.131-.131 0 0 .033.033 0 .033.098 0 .426-.197.361-.197 0 0 .066-.066 0-.066s-.098.098-.131.131c-.033 0-.131 0-.164-.066-.066-.098.066-.164.033-.197h-.164c.033 0 .197 0 .23-.066.131-.23-.623.131-.623.131.164-.098.328-.23.459-.295.164-.066.59.098.721-.098.066-.033.164-.033.262-.066.131-.066.066-.23-.033-.262.033 0 .066 0 .066-.033l-.033-.066h-.131c-.033-.033 0-.098-.066-.131 0 0 .098-.066.066-.066h-.033c.033-.033-.033-.328-.033-.328s-.328.197-.361.23c0-.033-.131-.262-.033-.295-.033 0-.131-.033-.131-.033s.033 0 .066-.033c0-.098-.557-.131-.459 0-.033.033-.164.164-.164.197-.033.098-.098 0-.033.131s-.164.23-.23.262c-.131.066-.164.033-.197.164 0 .098-.066.131-.098.23 0-.066-.066 0-.131 0 .033-.033 0-.066-.033-.098.033 0 .262-.459-.098-.328.066-.098-.361-.197-.426-.197 0 0 .098-.164.066-.164-.066-.066-.164 0 0-.131.033-.033.164-.164.229-.164 0 0 .164-.098.197-.066.23.066-.033-.098-.066-.131.098.033.197.098.262 0 .033.098.328-.066.295-.098.033-.033.098-.033.131-.066-.098.066-.164.164-.262.229.164 0 .033 0 .098.033.098.066.23-.197.23-.033.131.066.23.033.098-.066.066-.033-.098-.197-.098-.197s0 .066-.033.066c.033-.033.033-.066 0-.098.033 0 .164.098.164.066s-.033-.066-.033-.066c.033 0 .066.033.066-.033.033.066.295-.066.262-.098 0 0 .098-.131.066-.164.033.066.262 0 .295-.066.033.033.033.033.066.033l-.033.033.098.033v.033c-.033 0-.098-.033-.098.033 0 .033.066 0 .098 0-.066.066.033.033.066 0v.033s-.066 0-.066.033.131.033.066-.033v-.033s.098.098.033.131c-.098 0-.197.066-.197.131-.066.033-.361-.066-.393.066-.033.098.295 0 .295 0 .033 0 .033.098.066.131.033.066.23.197.393.197.066 0-.098-.164-.098-.197.033 0 .197.066.197.098.033.131.066-.098.066-.098.033.098.033-.033.033-.066 0 0 0 .033.033.033s-.098-.164-.131-.164c0-.164.262.197.295.033.066.066.164-.066.229-.098-.033 0-.361-.197-.361-.197 0-.033.164-.033.164-.066l-.066-.033s.033.033.066 0c.033-.066-.066-.033-.098-.033 0 0 .066-.033.033-.066s-.262-.131-.295-.066c-.033-.098-.098-.066-.098-.131 0-.131-.033 0-.164-.098-.066-.033-.033.066-.033.066-.033.066.131.033.164.033 0 .033-.262.033-.262.066 0-.033.098-.066.098-.131 0-.033-.426.033-.459.131 0 .033.066.033.066.033-.262 0 .164-.197.164-.197-.033-.098-.525.066-.557.197 0 0 .131 0 .164.033-.459.033.23.098.23.098 0 .033-.131 0-.131 0-.098 0-.066.066-.066.066s-.164.098-.197.098l.033-.033c-.033 0-.098.066-.066.066-.098.098-.164-.066-.066-.066.098.033.033-.066-.033-.098 0-.066-.131-.033-.131-.033.164-.098.066-.033.066-.197.098-.033.426-.066.459-.131-.033-.098-.426 0-.459.066s-.229.229-.229.229-.098 0-.098.033c-.033.066.131.066.131.098l-.131.033h.033c-.033 0-.262.098-.23.098h-.033c0-.033.098-.066.098-.066s-.066 0-.098-.033l.229-.066c.033-.066-.361-.033-.361.033 0 .033.066 0 .098 0-.131.066-.262.131-.492.033.098-.033 0-.033 0-.066 0 0-.23-.033-.262.033 0 .033.033.033.066.033 0 0-.098.098-.066.098h-.033c0-.033 0-.066-.066-.066l.066-.033h-.131a7.35 7.35 0 0 0-2.656 4.131s0 .033.033.033c.033.033-.066.066-.033.098s.066.033.098.098c0 .066.066.131.098.197.098.131 0 .23 0 .328.033.197.426.361.59.426.131.066.164.033.328.033.098.033.229.23.262.197.098 0 .262.098.361.098s.131.426.197.426c0-.033.033-.033.033-.066.098 0 .098.23.164.23 0 0 .066-.098.131-.033 0 .033-.033.033-.033.033s0 .033.033.033c0 0 .262 0 .131-.098.033-.033.131-.131.164-.066 0 .033.098.229.098.229-.066.098 0 .262 0 .295.033.066-.262.197-.164.262-.131.066-.066.098-.164.197-.066.066-.033.295.033.197-.033.164-.164.164-.098.328.066.131-.098-.066.098.164.033.033.098.131.098.197.033.098.066.229.131.295.131.197.164.393.393.525.197.131.361.197.361.459v.459c0 .131-.033.328-.033.459 0 .098.033.426.098.492 0 .033-.033.393-.033.393h-.066l.164.492s-.033-.033-.033 0c-.033.033.098.262.098.164 0 0-.066-.164 0-.164.033 0 .098.295.066.328-.033 0-.033-.066-.066-.066.033 0 0 .229 0 .295h.033v-.033c.033.033.131.033.131-.033.033.033.033.098.033.131 0 0-.033-.033-.066-.033.197.098.426.197.656.295-.262.066-.197-.197-.164-.098zm.984-10.787c.033-.033.066-.033.098-.033-.033.033-.098.033-.098.033zm-1.574 1.246h-.033c0 .033 0 0 .033 0zM14 6.722c.033-.033-.066.033 0 0zm-.951-.557c0 .033-.033.033-.033.098 0-.033 0-.098.033-.098zm-.131.36c-.066 0-.131-.066-.164-.066.098 0 .131.033.164.066zm-.459-.262c.066.033-.033.033 0 0zm-1.705 3.803c.066-.066 0 .033 0 0zm.131 2.033s-.066-.033-.098 0v-.066s.131.033.098.066zm1.279.23c-.033 0-.033 0 0 0-.098.131-.033-.098-.033-.131-.033.033.066.098.033.131zm.36 5.803c.033-.033-.033.066 0 0zm.033.065v.033-.033zM16.752 6.952s-.033.066-.033.098c0 0 .033-.066.066-.033 0 .033-.098.066-.098.098.033.033.066-.033.066-.033 0 .033-.033.066-.033.066 0 .033.066-.066.066-.066.033.033-.066.131.098.066 0 .033-.033.066.033.066 0 .131-.164.033-.164.098h.033c0 .033-.033 0-.033.066 0 0 .033-.033.033 0s-.098.066-.098.098.131.033.164.033c0 0-.262.098-.23.131 0 0 .59-.066.59-.098l-.066-.033c.033-.066.164-.197-.033-.131.066-.033-.098-.262-.131-.262-.066-.033-.066-.066-.033-.098.131-.131-.066-.033-.131-.098 0 0 .164-.131.131-.164h-.098s0 .033.033.033c0 .033-.164.066-.164.098-.033 0-.033 0-.033.033-.033-.033-.033 0-.098 0v.098c.131 0 .164-.066.164-.066z"/><path fill="#fff4de" style="fill:var(--color12,#fff4de)" d="M16.689 7.378c0-.033.033-.131 0-.131.197-.164-.164-.197-.197-.066h.033c-.066.033-.164.131-.098.131-.262.197.197.23.262.066zM19.312 5.607l.066.033c-.098 0-.098 0-.164.033.033-.164-.098.033-.131.066-.033-.066-.066-.033-.066 0 0-.033-.033-.033-.033 0v-.033h-.066c.033 0-.197.131-.164.098v.033c0 .033.131-.033.164-.033 0 .131-.295.262-.328.295-.033.098-.197.098-.23.131s.033.033 0 .066c-.033-.033-.131.033-.197.033-.098 0 .066.328.066.328-.131.131.295.131.361 0 0 .033.197.328.131.328-.131 0-.066.098-.066.131-.033 0-.033 0-.033.033 0 .066.197 0 .098-.033.066-.066.131-.033.197-.066-.033 0 .295-.131.164-.131l-.033.033c0-.131.23-.295.164-.328s-.197-.098-.098-.197c.033 0 .262-.164.262-.197.033-.066 0-.131.131-.131.033 0 .197.066.164.066-.164 0-.426.459-.197.459.131 0 .393.033.59.066-.098.033-.59.033-.623.164l.033.066c.033-.033.098-.033.098-.066.033 0 .066.066.098.033-.066.229-.262-.066-.262.295 0 .164-.557.033-.557.131 0-.164-.197.033-.262 0 .066-.033 0 0 .033-.066-.197-.033 0-.328-.033-.328-.262 0-.164.295-.164.328v.066c0-.066-.393.164-.426.23s-.262.164-.328.197c-.098.066-.098-.033-.164-.033-.033.033.098.131-.033.131-.033 0-.197-.033-.23 0 0 .033.23.164.262.23.066.033 0 .328-.066.295-.098 0-.197-.033-.295-.033-.23 0-.262-.066-.328.131l-.098.393c.033.066.066.098 0 .197.197-.098.23.131.361.066.131-.098.426-.033.492-.229 0 0-.033-.033-.033-.066-.033-.066.131-.098.098-.164 0 0 .164-.098.197-.098s0-.131.066-.164c.033-.033.131.033.197.033.197 0 .361-.229.328.033 0 .066.066 0 .066 0 .066 0 .492.361.492.459-.033.131-.295.033-.328.066-.066.066.098.131.131.131.164 0 0 0 .131-.098.033.066.131-.066.131-.098.033-.066-.066-.098-.033-.131.066-.131.066.033.131.033.131 0-.23-.23-.197-.197-.066.033-.262-.295-.295-.361-.033-.131.164.033.197.033.098.066.098.197.23.197.098 0 .262.262.23.328 0 0-.033-.033-.033 0 0 .098.426.262.426.262l-.033-.066s.066.066.066 0c0 0-.262-.262-.197-.262.033 0 .361-.098.361 0 0 .131-.131.131.033.098 0 .033-.066.164-.098.164.033.033.033-.033.033-.033.033.033.033.033.098.066v.033s-.033-.033-.033 0c-.033.033.066.066.066.066-.033 0-.066.066-.066.098.066-.033.066-.033.098-.066 0 0-.033.033-.066.033.033.033.033 0 .066 0 0 .033-.066.066-.033.098.033 0 .066-.098.066-.098 0 .033.033.033.033 0 0 .131.197.033.262.033s.361.066.361-.033h.033l-.033.295c-.098.164-.033.23-.229.295l-.262-.033c-.098 0-.262.033-.393-.033-.066-.033-.328-.164-.361-.164-.23.033-.164.361-.361.229-.23-.033-.459-.328-.689-.328-.098 0 .098-.295.033-.361-.033-.033-.492-.033-.557.033-.131-.066-.492-.033-.59.098-.033.033-.23.033-.295.033-.262-.066-.066.066-.328.164-.229.098-.164.262-.262.426-.098.131-.295.131-.328.262 0 .033-.459.689-.393.721.033.033.131.262.033.393-.033.066-.131.229-.066.328v.229c.098.066.164.164.262.262.066.098.098.361.262.393.098 0 .197.262.295.262.131 0 .229-.098.393-.098.23.066.328 0 .492-.066.098-.033.164-.033.262-.033.066 0 .164.295.229.23.066-.098.262.033.295.033.033.131-.033.295-.033.393-.033.23.066.295.197.525.098.197.295.754.066.951-.131.098-.066.361-.098.492-.033.098.295.525.229.59-.033.033.033.459.066.525.131.197.23.393.164.59 0 0 .098.164.066.164.033 0 .098.066.164.066a.608.608 0 0 1 .229-.066c.197.098.426-.033.557-.164.098-.098.361-.328.393-.459.033-.098.033-.295.131-.328.295-.066.197-.361.164-.59.066.033.689-.525.623-.59s0-.262 0-.328c0-.098-.066-.164-.066-.23s0-.262-.033-.295c-.131-.197.229-.557.361-.689.295-.328.787-.721.852-1.148.033-.23-.131-.164-.295-.131-.098.033-.229.033-.295.066-.098.066-.164-.098-.262-.098.23-.033-.328-.525-.328-.59 0-.131-.164-.197-.164-.262s0-.197-.033-.262c-.066-.131-.131-.164-.131-.295.033-.164-.361-.459-.328-.656.033.066.098.23.164.23.033 0 .033-.131.066-.164l-.033.131c.033.066.197.295.262.393l.229.459c.033.098.197.328.262.393.098.098 0 .393.131.459s.623-.23.787-.262c.098-.033.098-.164.262-.164.033 0 .164-.197.197-.197.164-.066 0-.131.098-.197 0 0 .197-.098.164-.197 0 .033-.393-.361-.393-.426-.066.066-.361.361-.393.197l-.033-.131c-.033-.033-.033-.033-.033-.066l-.066.066c.033 0-.197-.295-.197-.295-.098-.23-.033-.098.066-.262.098.131.361.557.557.393v.033a.071.071 0 0 0 .066-.066c.033 0 .066.033.066.066.033.131.066.066.164.131.033 0 .066.033.098.033a7.257 7.257 0 0 0-3.639-4.852c.164-.066.098-.066.098-.066zM22.198 14.558c0-.033-.033-.328-.066-.328-.066 0-.033.098-.033.098-.033.098-.033 0-.066 0s0 .033 0 .066c-.033-.033-.066.098-.033.098-.033 0-.033 0-.033.033 0-.033-.131.066-.131.098h-.197c-.066.098.033.361-.033.459-.066.131-.164.393-.033.492.23.328.623-.984.557-.984.033 0 0 .033.033.033.033.033.033-.066.033-.066 0-.033 0-.033 0 0z"/><path fill="#f0b687" style="fill:var(--color13,#f0b687)" d="M3.638 11.279c.098.623-.066 1.803-.066 1.803l.262 1.672 1.082 1.803 1.18 1.016-.721 4.295c-.623-1.213-2.918-4.492-3.377-6.164-.197-.754-.066-2.951-.066-2.951s.229-1.738.623-2.164c.197-.23.918-.295 1.082.689z"/><path fill="#f0b687" style="fill:var(--color13,#f0b687)" d="M4.456 10.918c.197-.23.918-.328 1.082.656.098.59-.066 1.803-.066 1.803l.262 1.672.066.098.033-.721s.197-1.508.525-1.902c.164-.197.82-.262.951.59.098.525-.066 1.574-.066 1.574l.229 1.443.951 1.574.262.262c.59 1.18 2.23 2.262 3.016 2.885.459.361 1.016.787 1.443 1.246l-2.393 3.869-5.344-4.098.295-2.033c-.557-1.148-1.869-3.705-1.869-3.705l.066-3.082c-.033.033.197-1.672.557-2.131z"/><path fill="#f0b687" style="fill:var(--color13,#f0b687)" d="M8.325 17.705c-.328-.131-.656-.295-.984-.393l-.066-.426s0-1.311.229-1.705c.131-.197.656-.328.885.393.131.459.426 2.361.426 2.361-.197-.098-.361-.164-.492-.23z"/><path fill="#f0b687" style="fill:var(--color13,#f0b687)" d="M13.771 23.705c.098.262 1.377-.328 1.344-.492-.328-1.049-.885-2-1.77-2.787-1.115-.951-3.016-1.311-4.131-2.197-.623-.492-1.115-1.082-1.639-1.705-.361-.426-.623-.82-1.18-.918-.262-.066-.557.197-.492.459.098.59.492.918.852 1.377.393.459.754.951 1.213 1.377 1.016.885 2.328 1.344 3.41 2.164.984.656 1.967 1.541 2.393 2.721z"/><path fill="#ffc89f" style="fill:var(--color2,#ffc89f)" d="M9.998 33.311h5.344v-8.557s0-1.18-.295-1.738c-.229-.459-.689-.984-1.443-1.475-1.672-1.049-6.459-1.803-6.459-1.803s-.885-1.541-1.115-2.033C5.276 16 4.522 15.836 3.997 16.066c-.459.197-.754.885-.426 1.705.229.623.689 1.639.689 1.639l1.049 2.459c1.213 1.672 2.852 2.328 4.557 3.475.131.066.131 6.393.131 7.967z"/><path fill="#edf0f2" style="fill:var(--color3,#edf0f2)" opacity=".5" d="M3.902 17.836s-.623-1.312.23-1.607c.623-.229 1.344.82 1.311.852-.033.066-1.541.754-1.541.754z"/><path fill="#f0b687" style="fill:var(--color13,#f0b687)" d="M28.391 11.279c-.098.623.066 1.803.066 1.803l-.262 1.672-1.082 1.803-1.18 1.016.721 4.295c.623-1.213 2.918-4.492 3.377-6.164.197-.754.066-2.951.066-2.951s-.229-1.738-.623-2.164c-.197-.23-.951-.295-1.082.689z"/><path fill="#f0b687" style="fill:var(--color13,#f0b687)" d="M27.572 10.918c-.197-.23-.918-.328-1.082.656-.098.59.066 1.803.066 1.803l-.262 1.672-.066.098v-.721s-.197-1.508-.525-1.902c-.164-.197-.82-.262-.951.59-.098.525.066 1.574.066 1.574l-.23 1.443-.951 1.574-.262.262c-.59 1.18-2.229 2.262-3.016 2.885-.459.361-1.016.787-1.443 1.246l2.393 3.869 5.344-4.098-.295-2.033c.557-1.148 1.869-3.705 1.869-3.705l-.066-3.082c0 .033-.23-1.672-.59-2.131z"/><path fill="#f0b687" style="fill:var(--color13,#f0b687)" d="M23.705 17.705c.328-.131.656-.295.984-.393l.066-.426s0-1.311-.23-1.705c-.131-.197-.656-.328-.885.393-.131.459-.426 2.361-.426 2.361.197-.098.361-.164.492-.23z"/><path fill="#f0b687" style="fill:var(--color13,#f0b687)" d="M18.228 23.705c-.098.262-1.377-.328-1.344-.492.328-1.049.885-2 1.771-2.787 1.115-.951 3.016-1.311 4.131-2.197.623-.492 1.115-1.082 1.639-1.705.361-.426.623-.82 1.18-.918.262-.066.557.197.492.459-.098.59-.492.918-.852 1.377-.393.459-.754.951-1.213 1.377-1.016.885-2.328 1.344-3.41 2.164-.951.656-1.967 1.541-2.393 2.721z"/><path fill="#ffc89f" style="fill:var(--color2,#ffc89f)" d="M22.032 33.311h-5.344v-8.557s0-1.18.295-1.738c.229-.459.689-.984 1.443-1.475 1.672-1.049 6.459-1.803 6.459-1.803s.885-1.541 1.115-2.033c.754-1.705 1.508-1.869 2.033-1.639.459.197.754.885.426 1.705-.23.623-.689 1.639-.689 1.639l-1.049 2.459c-1.213 1.672-2.852 2.328-4.557 3.475-.131.066-.164 6.393-.131 7.967z"/><path fill="#edf0f2" style="fill:var(--color3,#edf0f2)" opacity=".5" d="M28.131 17.836s.623-1.312-.23-1.607c-.623-.229-1.344.82-1.311.852 0 .066 1.541.754 1.541.754z"/></symbol><symbol id="icon-llc" viewBox="0 0 32 32"><path fill="#edb485" style="fill:var(--color1,#edb485)" d="M24.031 14.492c-.459.557-1.049 1.869-1.049 1.869l-1.311 1.541-2.229 1.148-1.836.295-1.967 4.787c1.377-.852 7.279-3.934 7.279-3.934l1.836-3.148s.852-1.902.754-2.59c-.033-.328-.721-.885-1.475.033z"/><path fill="#edb485" style="fill:var(--color1,#edb485)" d="M23.412 13.607c-.066-.361-.754-.885-1.508 0-.459.557-1.049 1.869-1.049 1.869l-1.311 1.541-.098.066.426-.721s.721-1.639.656-2.23c-.033-.295-.656-.787-1.311 0-.426.492-.918 1.639-.918 1.639l-1.148 1.344-1.934 1.016s-.164.033-.426.098c-1.344.82-3.672.885-4.82 1.049-.721.066-1.508.164-2.229.361v5.41l7.967-.82.984-2.23c1.279-.82 4.197-2.59 4.197-2.59l1.836-3.148c-.066-.098.787-1.967.689-2.656z"/><path fill="#edb485" style="fill:var(--color1,#edb485)" d="M15.276 18.066c.426.066.852.131 1.246.197l.328-.393s.82-1.344.82-1.869c0-.262-.459-.754-1.148-.164-.426.361-1.902 2.098-1.902 2.098.262.066.492.098.656.131z"/><path fill="#edb485" style="fill:var(--color1,#edb485)" d="M18.558 17.115c-.623-.23-1.148 0-1.771.23-.885.295-1.77.59-2.721.721-1.705.197-3.836-.623-5.574-.361-2.951.492-4.721 2.754-6.459 5.082a.75.75 0 0 0 .098.164c.164.262.361.459.59.59a.544.544 0 0 1 .393-.033c1.016-.852 1.869-1.967 2.918-2.787 1.148-.918 2.721-1.18 4.164-1.311 1.607-.131 3.18.23 4.787-.066.721-.131 1.41-.393 2.098-.623.656-.229 1.279-.295 1.705-.852.197-.229.066-.656-.229-.754z"/><path fill="#ffc89f" style="fill:var(--color2,#ffc89f)" d="M20.656 19.082c.361.492.23 1.344-.623 2-.623.459-1.738 1.213-1.738 1.213l-2.59 1.836c-.623 0-10.098 1.049-10.098 1.049l-3.18 1.869-2.426-4.59c.033 0 1.344-.688 1.541-.82 1.049-.721 4.164-2.918 6.033-2.951 2.328-.033 7.639 2.197 7.639 2.197s1.836-1.016 2.393-1.377c1.771-1.246 2.656-.984 3.049-.426z"/><path fill="#edf0f2" style="fill:var(--color3,#edf0f2)" opacity=".5" d="M19.672 20.951s1.443-.918.754-1.771c-.492-.623-1.869 0-1.869.066 0 .033 1.115 1.705 1.115 1.705z"/><path fill="#d99e6e" style="fill:var(--color14,#d99e6e)" d="M12.52 13.279c.393-.328.984-1.213.984-1.213l1.148-.918 1.738-.525 1.344.033 2-3.148c-1.115.426-5.705 1.836-5.705 1.836l-1.705 2s-.852 1.246-.852 1.738c-.033.262.393.754 1.049.197z"/><path fill="#d99e6e" style="fill:var(--color14,#d99e6e)" d="M12.849 14c0 .262.426.721 1.082.197.393-.328.984-1.213.984-1.213l1.148-.918.098-.033-.393.459s-.721 1.082-.754 1.508c0 .23.361.623.918.164.361-.295.852-1.049.852-1.049l.984-.787 1.508-.459h.328c1.049-.426 2.721-.164 3.574-.098.525.033 1.082.066 1.639.033l.688-3.836-5.77-.459-.984 1.475-3.311 1.279-1.705 2c-.033 0-.852 1.213-.885 1.738z"/><path fill="#d99e6e" style="fill:var(--color14,#d99e6e)" d="M19.21 11.868c-.295-.098-.59-.197-.852-.295l-.295.229s-.754.852-.82 1.213c-.033.197.229.59.787.262.328-.197 1.639-1.246 1.639-1.246-.197-.066-.328-.131-.459-.164z"/><path fill="#d99e6e" style="fill:var(--color14,#d99e6e)" d="M16.748 12.13c.426.262.82.131 1.279.066.689-.098 1.344-.197 2.033-.164 1.246.066 2.656.951 3.902.984 2.164.033 3.705-1.344 5.279-2.787 0-.033-.033-.098-.033-.131a1.827 1.827 0 0 0-.328-.492c-.098.033-.197 0-.295-.033-.852.492-1.574 1.148-2.426 1.607-.951.492-2.098.492-3.115.393-1.148-.098-2.23-.557-3.41-.59-.525 0-1.049.098-1.574.164-.492.066-.951.066-1.344.361-.197.197-.164.492.033.623z"/><path fill="#fbbf8d" style="fill:var(--color4,#fbbf8d)" d="M15.536 10.426c-.197-.393.033-.984.721-1.344.492-.262 1.377-.656 1.377-.656l2.066-.951c.459.066 7.311.557 7.311.557l2.721-.82 1.475 3.279c-.098 0-4.852 2.197-6.426 1.934-1.672-.295-5.148-2.557-5.148-2.557s-1.443.492-1.869.656c-1.443.689-2.033.361-2.229-.098z"/><path fill="#d7e1e8" style="fill:var(--color15,#d7e1e8)" opacity=".5" d="M16.456 9.245s-1.148.492-.754 1.148c.262.492 1.311.229 1.344.197-.033-.033-.59-1.344-.59-1.344z"/></symbol></defs></svg>