<svg aria-hidden="true" style="width:0;height:0;position:absolute;overflow:hidden" xmlns="http://www.w3.org/2000/svg"><defs><symbol id="icon-leaves" viewBox="0 0 32 32"><path fill="#fff4d9" style="fill:var(--color1,#fff4d9)" d="M16 32c8.837 0 16-7.163 16-16S24.837 0 16 0 0 7.163 0 16s7.163 16 16 16z"/><path fill="#d7fbe9" style="fill:var(--color2,#d7fbe9)" d="M16 32c8.837 0 16-7.163 16-16S24.837 0 16 0 0 7.163 0 16s7.163 16 16 16z"/><path fill="#e8b182" style="fill:var(--color3,#e8b182)" d="M25.935 16.262c-.525.59-1.148 2.033-1.148 2.033l-1.41 1.672-2.426 1.246-1.967.328-2.098 5.18c1.508-.918 7.902-4.262 7.902-4.262l2-3.41s.918-2.033.82-2.787c-.066-.393-.82-.984-1.672 0z"/><path fill="#e8b182" style="fill:var(--color3,#e8b182)" d="M25.278 15.279c-.066-.393-.82-.984-1.639 0-.525.59-1.148 2.033-1.148 2.033l-1.41 1.672-.131.066.459-.787s.787-1.771.689-2.426c-.066-.328-.689-.852-1.41 0-.459.525-.984 1.771-.984 1.771l-1.246 1.443-2.098 1.082s-.164.033-.459.098c-1.443.885-3.967.984-5.246 1.115-.787.098-1.639.197-2.426.393v5.869l8.623-.885 1.049-2.426c1.41-.885 4.557-2.787 4.557-2.787l2-3.41c.033 0 .951-2.066.82-2.82z"/><path fill="#e8b182" style="fill:var(--color3,#e8b182)" d="M16.458 20.131c.459.098.918.131 1.344.229l.361-.426s.885-1.443.885-2.033c0-.295-.492-.82-1.246-.164-.459.393-2.066 2.295-2.066 2.295.328.033.557.066.721.098z"/><path fill="#e8b182" style="fill:var(--color3,#e8b182)" d="M20.032 19.115c-.689-.262-1.246 0-1.902.23-.984.328-1.902.656-2.951.787-1.836.23-4.164-.689-6.033-.361-3.213.525-5.115 2.984-7.016 5.508l.098.197c.197.262.393.492.623.656a.635.635 0 0 1 .426-.033c1.115-.918 2.033-2.131 3.148-3.016 1.246-1.016 2.951-1.279 4.525-1.443 1.738-.164 3.443.23 5.18-.066.787-.131 1.508-.426 2.262-.656.688-.229 1.377-.328 1.869-.918.23-.328.066-.787-.229-.885z"/><path fill="#ffc89f" style="fill:var(--color4,#ffc89f)" d="M22.294 21.246c.393.525.229 1.475-.689 2.164a224.93 224.93 0 0 1-1.869 1.311l-2.82 1.967c-.689 0-10.951 1.115-10.951 1.115l-2.623 1.213-2.164-4.82c.131 0 4.492-3.41 6.885-3.443 2.525-.033 8.262 2.393 8.262 2.393s2-1.082 2.59-1.508c2-1.311 2.951-.984 3.377-.393z"/><path fill="#edf0f2" style="fill:var(--color5,#edf0f2)" opacity=".5" d="M21.243 23.246s1.541-1.016.82-1.934c-.525-.689-2 0-2 .066-.033.098 1.18 1.869 1.18 1.869z"/><path fill="#009f43" style="fill:var(--color6,#009f43)" d="M10.294 9.279c-.361-.262-.623-.623-.852-1.016a5.6 5.6 0 0 1-.098.984c-.328 1.377-.525 2.787-.393 4.197.098 1.246.459 2.557 1.377 3.475 1.016 1.016 2.525 1.213 3.77.426.066-.066.164-.098.23-.164.361.426.754.754 1.082.689 0 0 .262-.328.23-.426 0 0-.492.033-1.049-.459.918-.852 1.475-2.131 1.18-3.41-.295-1.246-1.148-2.295-2.295-2.885-1.016-.525-2.23-.721-3.18-1.41z"/><path fill="#009f43" style="fill:var(--color6,#009f43)" opacity=".2" d="M9.474 8.262v.197c.131.754.098 1.41.393 2.131.164.361.23.721.393 1.049 1.213 2.59 2.721 4.885 5.246 6.066.066-.098.131-.197.098-.262 0 0-.492.033-1.049-.459.918-.852 1.475-2.131 1.18-3.41-.295-1.246-1.148-2.295-2.295-2.885-1.016-.557-2.23-.721-3.18-1.41-.328-.262-.59-.623-.787-1.016z"/><path fill="#008738" style="fill:var(--color7,#008738)" d="M9.638 8.853c-.164.525.033 1.049.164 1.574.131.656.393 1.246.689 1.803a4.074 4.074 0 0 1-1.213-.393s-.033 0 0 .033c.459.164.754.492 1.246.459.131.262.295.525.426.787.295.492.59 1.016.951 1.541-.787.131-1.672-.098-2.328-.525 0 0-.033 0 0 .033.59.492 1.607.82 2.361.59.393.59.852 1.18 1.377 1.639 0 .033.033.033.066.066.066.066.131.098.197.164-.885.328-2.164.23-2.951-.295-.033 0-.033 0-.033.033.82.59 2.131.754 3.082.361.229.164.426.328.656.459.066.033.131-.066.066-.098a4.806 4.806 0 0 1-.918-.688c.426-.918.82-1.902.787-2.951 0-.033-.033-.033-.033 0-.131 1.016-.426 1.934-.852 2.852-.623-.623-1.148-1.377-1.639-2.098.361-.852.393-1.738.459-2.656 0 0-.033-.033-.033 0-.098.852-.197 1.738-.525 2.525-.131-.197-.262-.426-.393-.623-.492-.754-1.016-1.672-1.311-2.59l.033-.033c.164-.328.197-.689.262-1.049-.098.328-.164.656-.295.951-.197-.59-.295-1.18-.23-1.771-.033-.131-.066-.131-.066-.098z"/><path fill="#00b64d" style="fill:var(--color8,#00b64d)" d="M22.488 6.295c.098-.623.393-1.148.721-1.639a4.152 4.152 0 0 1-1.279.459c-1.869.459-3.738 1.049-5.41 2.066-1.443.885-2.852 2.131-3.443 3.803-.656 1.869.066 3.836 1.77 4.885.098.066.23.131.361.197-.328.721-.492 1.377-.164 1.738 0 0 .557.131.656.033 0 0-.328-.59-.066-1.574 1.607.623 3.541.492 4.885-.623 1.377-1.115 2.098-2.82 2.131-4.557.098-1.607-.426-3.18-.164-4.787z"/><path fill="#00b64d" style="fill:var(--color8,#00b64d)" opacity=".2" d="M23.241 4.656c-.066.033-.164.066-.229.131-.852.623-1.705.984-2.393 1.803-.328.393-.721.721-1.049 1.115-2.426 3.049-4.328 6.295-4.229 10.164.164.033.328.033.393-.033 0 0-.328-.59-.066-1.574 1.607.623 3.541.492 4.885-.623 1.377-1.115 2.098-2.82 2.131-4.557.033-1.607-.459-3.148-.197-4.754.131-.656.426-1.18.754-1.672z"/><path fill="#009e42" style="fill:var(--color9,#009e42)" d="M22.653 5.213c-.754.131-1.246.689-1.836 1.148-.721.557-1.279 1.213-1.803 1.934a4.472 4.472 0 0 1-.23-1.738c0-.033-.033-.033-.033 0 .066.656-.131 1.213.197 1.803-.23.328-.459.656-.689 1.016-.426.656-.885 1.344-1.311 2.098-.623-.885-.918-2.131-.754-3.18 0-.033-.033-.033-.033 0-.23 1.016 0 2.459.754 3.279-.492.852-.918 1.77-1.18 2.689-.033.033-.033.066-.033.098-.033.098-.066.23-.098.328-.951-.885-1.607-2.525-1.443-3.803 0-.033-.033-.033-.033 0-.23 1.377.393 3.082 1.41 4-.066.361-.131.721-.131 1.082 0 .098.164.098.164 0a8.797 8.797 0 0 1 .262-1.574c1.41-.033 2.852-.164 4.098-.82.033 0 0-.066-.033-.033-1.311.459-2.623.656-4.033.689.361-1.148.984-2.262 1.607-3.279 1.279-.066 2.393-.557 3.541-1.082.033 0 0-.033 0-.033-1.115.393-2.262.82-3.443.918.164-.295.361-.59.525-.852.623-1.049 1.41-2.262 2.393-3.213h.033c.525 0 .951-.164 1.443-.328v-.033c-.459.066-.885.229-1.377.229.623-.59 1.279-1.082 2.033-1.344.066.033.066 0 .033 0z"/></symbol></defs></svg>