<svg aria-hidden="true" style="width:0;height:0;position:absolute;overflow:hidden" xmlns="http://www.w3.org/2000/svg"><defs><symbol id="icon-attention" viewBox="0 0 32 32"><path fill="#6cdea7" style="fill:var(--color1,#6cdea7)" opacity=".4" d="M13.739 5.633c1.163-2.041 4.173-2.041 5.335 0l10.072 17.679c1.13 1.983-.341 4.421-2.668 4.421H6.334c-2.327 0-3.798-2.438-2.668-4.421L13.738 5.633z"/><path fill="#f77d48" style="fill:var(--color2,#f77d48)" d="M17.719 22.481a1.313 1.313 0 1 1-2.626 0 1.313 1.313 0 0 1 2.626 0zM16.408 10.994c.544 0 .985.441.985.985v6.564a.985.985 0 0 1-1.97 0v-6.564c0-.544.441-.985.985-.985z"/></symbol></defs></svg>