<svg width="64" height="64" viewBox="0 0 64 64" fill="none" xmlns="http://www.w3.org/2000/svg">
<path d="M32 64C49.6731 64 64 49.6731 64 32C64 14.3269 49.6731 0 32 0C14.3269 0 0 14.3269 0 32C0 49.6731 14.3269 64 32 64Z" fill="#D7FBE9"/>
<mask id="mask0_313_1046" style="mask-type:luminance" maskUnits="userSpaceOnUse" x="0" y="0" width="64" height="64">
<path d="M32 64C49.6731 64 64 49.6731 64 32C64 14.3269 49.6731 0 32 0C14.3269 0 0 14.3269 0 32C0 49.6731 14.3269 64 32 64Z" fill="white"/>
</mask>
<g mask="url(#mask0_313_1046)">
<path d="M23.0997 33.0924C21.7639 31.8269 20.6741 30.3855 19.2679 29.1903C18.6 28.6279 16.5611 26.7999 15.8229 28.2763C14.7331 30.4207 20.7093 32.4948 18.8812 34.8853C17.7212 36.3969 15.2956 34.4634 14.5573 33.4791C13.2215 31.6862 13.0105 29.1903 13.0809 27.0108C13.1863 24.4094 13.0809 22.1595 12.3075 19.6636C11.8505 18.0817 11.1825 19.2418 11.1122 20.2261C11.0068 21.6674 10.3037 24.3742 10.3037 24.3742C10.3037 24.3742 9.74124 27.6435 9.46001 29.2606C9.24908 30.5613 8.96785 32.0026 9.003 33.3385C9.003 34.2173 9.07331 35.6938 9.46001 36.4672C9.88185 37.346 10.7255 37.9788 11.4638 38.5764C13.8191 40.4396 16.315 41.9512 19.057 43.1816C22.8888 44.9393 25.6308 47.8922 25.1738 52.2864C25.9823 51.97 27.037 51.513 27.6697 50.8803C28.5837 49.9663 29.2517 48.9117 29.6383 47.6813C30.482 45.0447 29.779 42.5488 28.5134 40.1583C27.0721 37.4515 25.0683 34.9907 23.0997 33.0924ZM34.4896 40.1232C33.224 42.5136 32.521 45.0096 33.3647 47.6461C33.7514 48.8765 34.4193 49.9311 35.3333 50.8451C35.966 51.4779 37.0207 51.9349 37.8292 52.2513C37.337 47.8219 40.1142 44.869 43.946 43.1464C46.688 41.8809 49.1488 40.4044 51.5392 38.5413C52.3126 37.9436 53.1212 37.346 53.543 36.432C53.9297 35.6235 53.9648 34.1822 54 33.3033C54 31.9675 53.7539 30.5262 53.543 29.2255C53.2618 27.6084 52.6993 24.3391 52.6993 24.3391C52.6993 24.3391 51.9962 21.6322 51.8908 20.1909C51.8205 19.2066 51.1877 18.0817 50.6955 19.6285C49.9573 22.1595 49.8518 24.3742 49.9221 26.9756C49.9925 29.12 49.7815 31.6511 48.4457 33.4439C47.7075 34.4283 45.2818 36.3969 44.1217 34.8501C42.2937 32.4596 48.2699 30.4207 47.1801 28.2412C46.4419 26.7999 44.4381 28.5927 43.7351 29.1552C42.3289 30.3504 41.204 31.7917 39.9033 33.0572C37.9347 34.9907 35.9309 37.4515 34.4896 40.1232Z" fill="#6CDEA7"/>
<path d="M40.2547 16.5349C40.2547 14.0389 38.2157 12 35.7198 12C33.5403 12 31.7123 13.5468 31.2904 15.6209C30.8686 13.5468 29.0406 12 26.861 12C24.3651 12 22.3262 14.0389 22.3262 16.5349C22.3262 21.4564 31.7826 29.9636 31.7826 29.9636C31.7826 29.9636 40.2547 21.4564 40.2547 16.5349Z" fill="#0FBF6B"/>
</g>
</svg>
