<svg width="64" height="64" viewBox="0 0 64 64" fill="none" xmlns="http://www.w3.org/2000/svg">
<path d="M32 64C49.6731 64 64 49.6731 64 32C64 14.3269 49.6731 0 32 0C14.3269 0 0 14.3269 0 32C0 49.6731 14.3269 64 32 64Z" fill="#D7FBE9"/>
<path d="M40.1628 48.43C34.5821 45.2503 29.3908 40.2861 27.1845 36.3278C26.4383 34.9975 25.3351 33.9268 24.5888 32.5641C24.4266 32.2721 24.3293 32.0125 24.3942 31.6881C24.524 30.9742 25.108 31.0716 25.7244 31.1689C26.568 31.3311 27.3467 31.5907 28.1254 31.9152C29.3908 32.4667 30.4291 33.0832 31.3051 34.089C32.0514 34.9326 32.7976 35.8735 34.0305 36.1007C35.1661 36.3278 36.7884 35.9709 37.2427 34.8353C37.6644 33.7646 36.4315 32.2721 35.6528 31.5583C34.1928 30.228 32.5056 29.1248 30.7211 28.2813C28.8392 27.4377 26.9574 27.243 24.9782 26.7563C24.4915 26.6265 24.1022 26.4319 23.6479 26.2047C22.8043 25.7505 21.9283 25.0691 21.4092 24.2904C21.831 24.258 22.1879 24.3229 22.5772 24.3553C22.999 24.3878 23.3559 24.2904 23.7777 24.2904C24.2644 24.2904 24.7186 24.3553 25.2378 24.3553C25.7569 24.3553 26.276 24.3878 26.7951 24.4851C27.2494 24.55 27.7685 24.3553 28.1903 24.4851C28.1903 24.4851 32.1811 25.2314 32.3758 25.2638C32.6029 25.3287 33.1221 25.4585 33.1545 25.4585C33.3167 25.4909 33.6736 25.5558 34.0305 25.5883H34.063C34.0954 25.5883 32.4083 24.7447 32.1162 24.5825C30.5913 23.674 29.1637 22.9277 27.4765 22.2788C26.568 21.9219 25.8218 21.3703 25.0755 20.7863C24.6537 20.4294 24.3942 19.9752 24.1022 19.5534C23.7128 18.9045 23.2586 17.8338 23.583 17.0875C23.5506 17.0875 23.5506 17.0551 23.5506 17.0226C23.9724 17.0875 24.2319 17.3146 24.5888 17.5093C24.9458 17.704 25.4649 17.8338 25.8867 17.996C26.5031 18.2231 26.9249 18.6773 27.509 18.9369C27.8983 19.0991 28.2228 19.1965 28.6446 19.2614C28.969 19.2938 29.1637 19.456 29.4557 19.5858C30.5588 20.105 31.7593 20.5916 32.9274 20.981C34.0954 21.3703 35.2635 22.0517 35.3608 22.1166C35.6204 22.2464 35.8799 22.4086 36.1395 22.5059H36.172C36.172 22.5059 36.1719 22.5059 36.2044 22.5059C35.9124 22.4086 35.4581 21.3703 35.1661 21.0783C34.5172 20.4619 33.6736 20.0076 32.9274 19.456C32.0838 18.8396 31.4673 18.0609 30.8833 17.2497C30.3317 16.471 29.6828 15.6923 29.7153 14.6865C29.7153 14.2972 29.4557 13.486 29.845 13.2265C30.2993 12.9345 30.6886 13.194 31.0131 13.4536C33.5438 15.5626 35.9448 17.7689 38.6054 19.7481C38.8 19.9103 38.9947 20.0401 39.2218 20.2023C39.6436 20.5267 40.0654 20.9161 40.4223 21.3703C40.5846 21.565 40.7468 21.6948 40.9415 21.857C41.0064 21.9219 41.0712 21.9544 41.1361 22.0192C39.741 19.8129 39.2218 17.5417 40.2601 15.011C40.7468 15.0434 41.1686 16.1141 41.3308 16.5359C41.7201 17.4769 42.0122 18.4178 42.5962 19.2614C43.2127 20.1374 43.8616 20.981 44.478 21.8246C45.711 23.5442 46.8466 25.426 47.0088 27.5675C47.4306 33.2454 45.9381 48.1704 52.0379 51.0905C48.2742 52.5182 43.4722 50.3119 40.1628 48.43Z" fill="url(#paint0_radial_313_1057)"/>
<path d="M29.4558 30.7278C29.4558 35.5297 25.5623 39.4556 20.7279 39.4556C15.9259 39.4556 12 35.5622 12 30.7278C12 25.9258 15.8935 21.9999 20.7279 21.9999C25.5298 22.0323 29.4558 25.9258 29.4558 30.7278ZM19.5274 33.4856C19.3327 33.2261 19.1705 32.9016 19.1056 32.5123L17.2562 32.7069C17.386 33.6479 17.7104 34.3617 18.2296 34.8808C18.7487 35.3999 19.3976 35.6919 20.2087 35.7893V37.0871H21.247V35.7568C22.1555 35.6271 22.9017 35.2702 23.3884 34.6861C23.9075 34.1021 24.1671 33.3883 24.1671 32.5123C24.1671 31.7336 23.9724 31.1171 23.5506 30.6304C23.1289 30.1437 22.3826 29.7544 21.247 29.4299V26.6721C21.7013 26.8667 21.9933 27.2561 22.0906 27.8077L23.8751 27.5805C23.7453 26.8667 23.4533 26.3151 23.0315 25.8934C22.5773 25.4716 21.9933 25.212 21.247 25.1147V24.4009H20.2087V25.1147C19.3976 25.1796 18.7487 25.504 18.262 26.0231C17.7753 26.5423 17.5158 27.1912 17.5158 27.9699C17.5158 28.7486 17.7429 29.3975 18.1647 29.9166C18.5865 30.4682 19.2678 30.8575 20.2087 31.1171V34.0697C19.9816 33.9723 19.7545 33.7777 19.5274 33.4856ZM20.2412 29.1055C19.9492 28.9757 19.7221 28.8135 19.5598 28.5863C19.3976 28.3592 19.3327 28.1321 19.3327 27.8725C19.3327 27.613 19.43 27.3534 19.5923 27.1263C19.7545 26.8992 19.9816 26.7369 20.2412 26.6396V29.1055ZM21.2794 31.4416C21.7012 31.5713 22.0257 31.7336 22.1879 31.9607C22.3826 32.1878 22.4799 32.4474 22.4799 32.7718C22.4799 33.1287 22.3826 33.4207 22.1555 33.6803C21.9284 33.9399 21.6364 34.1021 21.2794 34.167V31.4416Z" fill="#0FBF6B"/>
<path d="M26.6012 24.3877C27.0554 24.4526 27.5745 24.2579 27.9963 24.3877C27.9963 24.3877 31.9871 25.134 32.1818 25.1664C32.4089 25.2313 32.9281 25.3611 32.9605 25.3611C33.1227 25.3935 33.4796 25.4584 33.8365 25.4909H33.869C33.9014 25.4909 32.2142 24.6473 31.9222 24.485C30.3973 23.5766 28.9697 22.8303 27.2825 22.1814C26.374 21.8245 25.6278 21.2729 24.8815 20.6889C24.4597 20.332 24.2002 19.8778 23.9082 19.456C23.5188 18.8071 23.0646 17.7363 23.389 16.9901C23.3566 16.9901 23.3566 16.9576 23.3566 16.9252C23.7784 16.9901 24.038 17.2172 24.3949 17.4119C24.7518 17.6066 25.2709 17.7363 25.6927 17.8986C26.3092 18.1257 26.7309 18.5799 27.315 18.8395C27.7043 19.0017 28.0288 19.0991 28.4506 19.164C28.775 19.1964 28.9697 19.3586 29.2617 19.4884C30.3649 20.0075 31.5653 20.4942 32.7334 20.8836C33.9014 21.2729 35.0695 21.9543 35.1668 22.0192C35.4264 22.149 35.6859 22.3112 35.9455 22.4085H35.9779C35.9779 22.4085 35.978 22.4085 36.0104 22.4085C35.7184 22.3112 35.2641 21.2729 34.9721 20.9809C34.3232 20.3644 33.4796 19.9102 32.7334 19.3586C31.8898 18.7422 31.2733 17.9635 30.6893 17.1523C30.1377 16.3736 29.4888 15.5949 29.5213 14.5891C29.5213 14.1998 29.2617 13.3886 29.651 13.1291C30.1053 12.8371 30.4946 13.0966 30.8191 13.3562C33.3499 15.4651 35.7508 17.6715 38.4114 19.6506C38.606 19.8129 38.8007 19.9426 38.9954 20.1049C39.4172 20.4293 39.839 20.8187 40.1959 21.2729C40.3581 21.4676 40.5203 21.5974 40.715 21.7596C40.7799 21.8245 40.8448 21.8569 40.9097 21.9218C39.5145 19.7155 38.9954 17.4443 40.0336 14.9136C40.5203 14.946 40.9421 16.0167 41.1044 16.4385C41.4937 17.3794 41.7857 18.3204 42.3697 19.164C42.9862 20.04 43.6351 20.8836 44.2516 21.7272C45.4845 23.4468 46.6201 25.3286 46.7824 27.47C47.2042 33.148 45.7117 48.073 51.8114 50.9931C48.0153 52.291 43.2133 50.0847 39.9039 48.2028C34.3232 45.0231 29.1319 40.059 26.9256 36.1006C26.1794 34.7703 25.0762 33.6996 24.33 32.3369C24.1677 32.0449 24.0704 31.7853 24.1353 31.4609C24.2651 30.747 24.8491 30.8444 25.4656 30.9417C26.3091 31.104 27.0878 31.3635 27.8665 31.688C29.1319 32.2396 30.1702 32.856 31.0462 33.8618C31.7925 34.7054 32.5387 35.6463 33.7716 35.8735C34.9072 36.1006 36.5295 35.7437 36.9838 34.6081C37.4056 33.5374 36.1726 32.0449 35.3939 31.3311C33.9339 30.0008 32.2467 28.8976 30.4622 28.0541" fill="#6CDEA7"/>
<defs>
<radialGradient id="paint0_radial_313_1057" cx="0" cy="0" r="1" gradientUnits="userSpaceOnUse" gradientTransform="translate(36.7161 32.3848) scale(17.3835 17.3835)">
<stop stop-color="#87B6DC"/>
<stop offset="1" stop-color="#1C75BC"/>
</radialGradient>
</defs>
</svg>
