<svg width="64" height="64" viewBox="0 0 64 64" fill="none" xmlns="http://www.w3.org/2000/svg">
<path d="M32 64C49.6731 64 64 49.6731 64 32C64 14.3269 49.6731 0 32 0C14.3269 0 0 14.3269 0 32C0 49.6731 14.3269 64 32 64Z" fill="#D7FBE9"/>
<path d="M30.657 26.9425L33.1537 24.5963L33.3342 25.8295L33.9358 25.8596C34.2065 25.8596 34.4772 25.8596 34.7179 25.8596C35.4398 25.8596 36.3121 25.8295 37.1544 25.4987C37.395 25.4084 37.6056 25.258 37.8161 25.0775C38.2072 24.7166 38.2974 24.2353 38.0568 23.7239C37.6657 23.002 37.2446 22.1598 36.7934 21.3476C36.7332 21.2273 36.7332 21.1972 36.7332 21.1972C36.7332 21.1972 36.7633 21.1671 36.7934 21.137C37.3348 20.8061 37.8763 20.4753 38.4478 20.1444L38.8689 19.9037C38.9291 20.0241 39.1096 20.3549 39.1096 20.3549C39.3201 20.746 39.5006 21.1069 39.7112 21.4679C39.8014 21.6183 39.8616 21.7687 39.9518 21.9191C40.1624 22.3102 40.373 22.6711 40.4933 23.0622C41.125 24.9873 40.4331 26.7019 38.6584 27.7246C38.1169 28.0555 37.6056 28.2059 37.0641 28.2059C36.5528 28.2059 36.0113 28.266 35.5 28.2961C35.139 28.3262 34.778 28.3262 34.4171 28.3563C34.387 28.3563 34.3569 28.3563 34.3268 28.3563C34.2667 28.3563 34.1764 28.3563 34.1163 28.3563L33.4545 28.2961L33.274 29.4692L30.657 26.9425ZM26.8068 28.236C26.1751 28.236 25.5133 28.2059 24.8816 27.9352C23.2272 27.2734 22.4151 25.9499 22.4451 24.0548C22.4451 23.5134 22.5955 23.002 22.8362 22.5207C23.0167 22.1598 23.1971 21.7988 23.3776 21.4679C23.528 21.137 23.7085 20.8061 23.8589 20.4753C23.9492 20.2948 24.0695 20.1444 24.1597 19.9639L24.5207 19.4225L23.528 18.6103L27.1677 17.6778L27.9498 20.9866L26.8068 20.5354L26.4759 21.0468C25.9044 21.9492 25.3028 22.9418 25.1524 24.115C25.0922 24.5963 25.1524 24.9572 25.3629 25.2279C25.5735 25.4987 25.9344 25.6491 26.4157 25.6791C27.2279 25.7393 28.0701 25.7694 28.8522 25.7995H28.9124C28.9725 25.7995 29.0026 25.7995 29.0327 25.8295C29.0327 26.4913 29.0327 27.123 29.0327 27.7547V28.2059C29.0327 28.2059 27.1377 28.2059 26.8068 28.2059V28.236ZM33.9358 18.0388L34.8984 17.2868L34.6276 16.7453C34.1163 15.7828 33.5447 14.7901 32.6423 14.0381C32.4919 13.9178 32.3115 13.8275 32.1009 13.7373C31.9505 13.6771 31.8001 13.6471 31.6798 13.6471C31.3188 13.6471 30.9879 13.8275 30.7473 14.1885L30.5367 14.5194C30.1457 15.121 29.7246 15.7828 29.3335 16.4445C29.3034 16.5047 29.2433 16.5648 29.2433 16.5648C29.2132 16.5648 29.1831 16.5348 29.153 16.5348C28.5815 16.234 28.0401 15.9031 27.4685 15.5722L27.0775 15.3616C27.258 15.0909 27.4084 14.8202 27.5588 14.5495C28.01 13.8275 28.401 13.1658 28.8823 12.504C29.6042 11.5414 30.657 11 31.8001 11C32.4619 11 33.1236 11.1805 33.7553 11.5114C34.2366 11.7821 34.8081 12.113 35.1992 12.7446C35.4699 13.1959 35.7406 13.617 36.0113 14.008C36.1918 14.2787 36.4024 14.5795 36.5828 14.8803C36.643 15.0007 36.7032 15.0909 36.7633 15.2112L37.034 15.8429L38.2373 15.3616L37.2145 18.9713L33.9358 18.0388Z" fill="#0FBF6B"/>
<path d="M23.0775 33.8911C21.754 32.6278 20.641 31.1839 19.2574 29.9807C18.5655 29.4092 16.5501 27.6044 15.8282 29.0482C14.7152 31.214 20.7012 33.2594 18.8663 35.6358C17.6932 37.1699 15.2868 35.2147 14.5348 34.222C13.2112 32.4172 13.0007 29.9205 13.0608 27.7848C13.1511 25.1679 13.0307 22.972 12.3088 20.4453C11.8576 18.8811 11.1959 20.0241 11.1357 20.9867C11.0154 22.4306 10.3235 25.1378 10.3235 25.1378C10.3235 25.1378 9.75201 28.4165 9.48129 30.0108C9.24064 31.3042 9 32.7481 9 34.0716C9 34.974 9.06016 36.4179 9.4512 37.2C9.87233 38.1024 10.6845 38.704 11.4666 39.3056C13.8429 41.1705 16.3095 42.6746 19.0167 43.9078C22.8369 45.6525 25.6043 48.6003 25.123 53.0221C25.9051 52.6913 26.988 52.2401 27.6196 51.6084C28.5221 50.706 29.1838 49.6231 29.6049 48.3898C30.4472 45.7427 29.7553 43.2461 28.492 40.8697C27.0481 38.2227 25.0628 35.7561 23.0775 33.8911ZM34.4779 40.8697C33.2146 43.2461 32.4926 45.7427 33.365 48.3898C33.756 49.6231 34.4178 50.6759 35.3503 51.6084C35.982 52.2401 37.0648 52.6913 37.8469 53.0221C37.3656 48.6003 40.133 45.6525 43.9532 43.9078C46.6905 42.6746 49.1571 41.1705 51.5334 39.3056C52.2854 38.704 53.1277 38.1024 53.5488 37.2C53.9398 36.3878 54 34.9439 54 34.0716C54 32.7481 53.7594 31.3042 53.5187 30.0108C53.248 28.3864 52.6765 25.1378 52.6765 25.1378C52.6765 25.1378 51.9545 22.4306 51.8643 20.9867C51.8041 19.9941 51.1424 18.851 50.6912 20.4453C49.9392 22.972 49.8489 25.1679 49.9392 27.7848C50.0294 29.9506 49.8189 32.4473 48.4652 34.222C47.7132 35.2147 45.3068 37.1699 44.1337 35.6358C42.2988 33.2594 48.2848 31.214 47.1718 29.0482C46.4198 27.6044 44.4345 29.4092 43.7426 29.9807C42.359 31.1538 41.246 32.6278 39.9225 33.8911C37.9071 35.7561 35.9218 38.2227 34.4779 40.8697Z" fill="#6CDEA7"/>
</svg>
