<svg width="64" height="64" viewBox="0 0 64 64" fill="none" xmlns="http://www.w3.org/2000/svg">
<path d="M32 64C49.6731 64 64 49.6731 64 32C64 14.3269 49.6731 0 32 0C14.3269 0 0 14.3269 0 32C0 49.6731 14.3269 64 32 64Z" fill="#D7FBE9"/>
<path d="M10.1191 41.9739C10.0119 41.706 9.95833 41.4113 10.0387 41.1167C10.253 40.1255 11.3245 39.8844 12.2085 40.0184C13.0657 40.1523 13.8961 40.313 14.7533 40.5006C15.3962 40.6345 16.0927 40.9827 16.7356 41.0363C17.8071 41.1435 19.4947 40.8756 19.9233 39.6969C20.2715 38.7326 19.3072 37.3664 18.9053 36.5628C18.4767 35.6788 17.9946 34.8216 17.5392 33.9644C15.8516 30.8303 14.03 27.8033 12.3692 24.6692C11.9942 23.9459 11.2977 22.9815 11.3781 22.1511C11.4049 21.6957 11.5656 21.3743 12.0478 21.535C12.5567 21.7225 13.0389 22.3386 13.4139 22.7137C14.1104 23.4101 19.1464 28.8212 20.1644 29.9999C20.2179 30.0534 20.7537 30.7767 20.8608 30.7231C21.5841 30.2945 18.5839 24.9906 18.2089 24.2138C17.6999 23.1691 17.3517 21.9636 16.9231 20.8653C16.682 20.2224 15.3694 16.0704 16.8159 16.0972C17.6463 17.2222 23.7539 29.3034 24.6111 28.9552C25.3611 28.6605 22.4145 20.7046 22.2538 19.8742C21.9323 18.3473 21.2626 16.8204 21.2626 15.24C21.2894 12.963 22.7092 14.3024 23.4324 15.4543C24.1021 16.5525 28.7631 27.8569 29.6739 27.4818C30.1293 27.3211 29.2721 24.5888 29.1917 24.2941C28.7096 22.5797 28.0667 20.8921 27.8256 19.0974C27.772 18.5884 27.7184 17.3562 28.5488 17.6508C29.6203 18.0526 30.4508 20.3832 30.9597 21.2939C32.1919 23.5441 33.0491 25.9817 33.8796 28.4194C34.6832 30.7767 35.7547 33.1072 36.2636 35.5449C36.8262 38.17 36.5315 40.9024 36.9601 43.5543C37.3084 45.5902 38.7281 48.2421 41.1925 47.8939C40.121 48.0546 39.2103 48.4297 38.1923 48.7779C36.6654 49.2869 35.0582 49.7155 33.451 49.8494C30.3972 50.1441 27.2363 49.6619 24.4771 48.2689C21.1555 46.5813 18.7982 44.733 14.9408 44.4383C13.7889 44.358 12.6103 44.0901 11.6192 43.4472C11.0566 43.1525 10.3869 42.6168 10.1191 41.9739Z" fill="#0FBF6B"/>
<path d="M53.4337 43.5008C52.4426 44.1437 51.264 44.3848 50.1121 44.4919C46.2547 44.7866 43.9242 46.6349 40.5758 48.3225C37.8166 49.7155 34.6557 50.1976 31.6019 49.903C29.9947 49.7423 28.3874 49.3404 26.8606 48.8315C25.8426 48.4832 24.9319 48.1082 23.8604 47.9475C26.3248 48.2957 27.7445 45.6438 28.0928 43.6079C28.5482 40.956 28.2535 38.2236 28.7893 35.5985C29.2982 33.1608 30.3697 30.8303 31.1733 28.473C32.0038 26.0353 32.861 23.5977 34.0932 21.3475C34.6021 20.41 35.4593 18.0794 36.504 17.7044C37.3077 17.4098 37.2809 18.642 37.2005 19.1509C36.9594 20.9457 36.3165 22.6065 35.8344 24.3477C35.754 24.6424 34.8968 27.3479 35.3522 27.5354C36.263 27.8837 40.924 16.5793 41.5937 15.5078C42.3169 14.356 43.7367 13.0166 43.7635 15.2935C43.7902 16.874 43.0938 18.4009 42.7723 19.9278C42.5848 20.7582 39.665 28.7141 40.415 29.0087C41.2722 29.3302 47.4066 17.2758 48.2102 16.1507C49.6567 16.0972 48.3441 20.276 48.0762 20.9189C47.6476 22.0172 47.2994 23.1959 46.7904 24.2674C46.4154 25.0442 43.4152 30.3481 44.1385 30.7767C44.2188 30.8303 44.7814 30.107 44.835 30.0535C45.8529 28.848 50.8889 23.4369 51.5854 22.7673C51.9604 22.419 52.4426 21.7761 52.9516 21.5886C53.4337 21.4279 53.5677 21.7493 53.6213 22.2047C53.7016 23.0351 53.0051 23.9995 52.6301 24.7227C50.9693 27.8569 49.1477 30.8839 47.4601 34.018C47.0047 34.8752 46.5226 35.7324 46.094 36.6164C45.6922 37.4468 44.7278 38.7862 45.076 39.7505C45.5046 40.9292 47.1923 41.197 48.2638 41.0899C48.9067 41.0363 49.6031 40.6881 50.246 40.5541C51.0764 40.3666 51.9336 40.1791 52.7908 40.072C53.648 39.938 54.7195 40.1791 54.9606 41.1703C55.041 41.4649 54.9874 41.7596 54.8803 42.0275C54.6392 42.6168 53.9695 43.1525 53.4337 43.5008Z" fill="#6CDEA7"/>
<path d="M39.83 39.4762C39.83 37.5684 39.0785 35.8361 37.8553 34.5593M39.83 39.4762C39.83 41.384 39.0785 43.1163 37.8553 44.3931M39.83 39.4762H25.6123M32.7211 46.585C34.7394 46.585 36.5613 45.7439 37.8553 44.3931M32.7211 46.585C30.7028 46.585 28.881 45.7439 27.587 44.3931M32.7211 46.585V32.3674M25.6123 39.4762C25.6123 37.5684 26.3638 35.8361 27.587 34.5593M25.6123 39.4762C25.6123 41.384 26.3638 43.1163 27.587 44.3931M32.7211 32.3674C34.7394 32.3674 36.5613 33.2085 37.8553 34.5593M32.7211 32.3674C30.7028 32.3674 28.881 33.2085 27.587 34.5593M37.8553 34.5593C36.6322 35.8361 35.8806 37.5684 35.8806 39.4762C35.8806 41.384 36.6322 43.1163 37.8553 44.3931M27.587 34.5593C28.8101 35.8361 29.5617 37.5684 29.5617 39.4762C29.5617 41.384 28.8101 43.1163 27.587 44.3931" stroke="white" stroke-width="0.5" stroke-linecap="round"/>
</svg>
