<svg width="48" height="48" viewBox="0 0 48 48" fill="none" xmlns="http://www.w3.org/2000/svg">
<g clip-path="url(#clip0_691_11325)">
<path d="M24 48C37.2548 48 48 37.2548 48 24C48 10.7452 37.2548 0 24 0C10.7452 0 0 10.7452 0 24C0 37.2548 10.7452 48 24 48Z" fill="#D7FBE9"/>
<path d="M7.99609 11.2007C7.99609 9.43342 9.42878 8.00073 11.1961 8.00073H23.9961C25.7634 8.00073 27.1961 9.43342 27.1961 11.2007V17.6007C27.1961 19.368 25.7634 20.8007 23.9961 20.8007H11.1961C9.42878 20.8007 7.99609 19.368 7.99609 17.6007V11.2007Z" fill="#ACEFCF"/>
<path d="M20.7969 30.4007C20.7969 28.6334 22.2296 27.2007 23.9969 27.2007H36.7969C38.5642 27.2007 39.9969 28.6334 39.9969 30.4007V36.8007C39.9969 38.568 38.5642 40.0007 36.7969 40.0007H23.9969C22.2296 40.0007 20.7969 38.568 20.7969 36.8007V30.4007Z" fill="#ACEFCF"/>
<path fill-rule="evenodd" clip-rule="evenodd" d="M37.761 15.6007L36.6095 16.7522C36.1409 17.2208 36.1409 17.9806 36.6095 18.4493C37.0782 18.9179 37.838 18.9179 38.3066 18.4493L40.3752 16.3806C41.4687 15.2872 41.4687 13.5143 40.3752 12.4208L38.3066 10.3522C37.838 9.88358 37.0782 9.88358 36.6095 10.3522C36.1409 10.8208 36.1409 11.5806 36.6095 12.0493L37.761 13.2007L30.3953 13.2007C29.7326 13.2007 29.1953 13.738 29.1953 14.4007C29.1953 15.0635 29.7326 15.6007 30.3953 15.6007L37.761 15.6007Z" fill="#0FBF6B"/>
<path fill-rule="evenodd" clip-rule="evenodd" d="M10.2312 34.8007L11.3827 35.9522C11.8513 36.4208 11.8513 37.1806 11.3827 37.6492C10.914 38.1178 10.1542 38.1178 9.68561 37.6492L7.61698 35.5806C6.52351 34.4871 6.52351 32.7143 7.61698 31.6208L9.68561 29.5522C10.1542 29.0835 10.914 29.0835 11.3827 29.5522C11.8513 30.0208 11.8513 30.7806 11.3827 31.2492L10.2312 32.4007L17.5969 32.4007C18.2596 32.4007 18.7969 32.9379 18.7969 33.6007C18.7969 34.2634 18.2596 34.8007 17.5969 34.8007L10.2312 34.8007Z" fill="#0FBF6B"/>
</g>
<defs>
<clipPath id="clip0_691_11325">
<rect width="48" height="48" fill="white"/>
</clipPath>
</defs>
</svg>
