<svg width="48" height="48" viewBox="0 0 48 48" fill="none" xmlns="http://www.w3.org/2000/svg">
<g clip-path="url(#clip0_691_11349)">
<path d="M24 48C37.2548 48 48 37.2548 48 24C48 10.7452 37.2548 0 24 0C10.7452 0 0 10.7452 0 24C0 37.2548 10.7452 48 24 48Z" fill="#D7FBE9"/>
<path d="M35.2016 8.00073H12.8016C11.0343 8.00073 9.60156 9.43342 9.60156 11.2007V35.4477C9.60156 37.664 11.8001 39.2092 13.8855 38.4585L16.3843 37.5589C17.1651 37.2779 18.0246 37.3111 18.7814 37.6516L22.6884 39.4098C23.5235 39.7856 24.4796 39.7856 25.3147 39.4098L29.2218 37.6516C29.9785 37.3111 30.838 37.2779 31.6188 37.5589L34.1177 38.4585C36.203 39.2092 38.4016 37.664 38.4016 35.4477V11.2007C38.4016 9.43342 36.9689 8.00073 35.2016 8.00073Z" fill="#ACEFCF"/>
<path fill-rule="evenodd" clip-rule="evenodd" d="M33.2031 16.0007C33.2031 16.6634 32.6659 17.2007 32.0031 17.2007L16.0031 17.2007C15.3404 17.2007 14.8031 16.6634 14.8031 16.0007C14.8031 15.3379 15.3404 14.8007 16.0031 14.8007L32.0031 14.8007C32.6659 14.8007 33.2031 15.3379 33.2031 16.0007Z" fill="#0FBF6B"/>
<path fill-rule="evenodd" clip-rule="evenodd" d="M33.2031 22.4008C33.2031 23.0636 32.6659 23.6008 32.0031 23.6008L16.0031 23.6008C15.3404 23.6008 14.8031 23.0636 14.8031 22.4008C14.8031 21.7381 15.3404 21.2008 16.0031 21.2008L32.0031 21.2008C32.6659 21.2008 33.2031 21.7381 33.2031 22.4008Z" fill="#0FBF6B"/>
<path fill-rule="evenodd" clip-rule="evenodd" d="M25.2031 28.8007C25.2031 29.4635 24.6659 30.0007 24.0031 30.0007L16.0031 30.0007C15.3404 30.0007 14.8031 29.4635 14.8031 28.8007C14.8031 28.138 15.3404 27.6007 16.0031 27.6007L24.0031 27.6007C24.6659 27.6007 25.2031 28.138 25.2031 28.8007Z" fill="#0FBF6B"/>
</g>
<defs>
<clipPath id="clip0_691_11349">
<rect width="48" height="48" fill="white"/>
</clipPath>
</defs>
</svg>
