<svg width="48" height="48" viewBox="0 0 48 48" fill="none" xmlns="http://www.w3.org/2000/svg">
<g clip-path="url(#clip0_691_11301)">
<path d="M24 48C37.2548 48 48 37.2548 48 24C48 10.7452 37.2548 0 24 0C10.7452 0 0 10.7452 0 24C0 37.2548 10.7452 48 24 48Z" fill="#D7FBE9"/>
<path d="M9.64878 20.7998L38.3434 20.7998C39.9756 20.7998 40.6165 18.6375 39.2585 17.7128L25.8262 8.56582C24.718 7.81115 23.2742 7.81115 22.166 8.56582L8.73372 17.7128C7.37567 18.6375 8.01661 20.7998 9.64878 20.7998Z" fill="#ACEFCF"/>
<rect x="14.3945" y="20.7998" width="6.4" height="12.8" fill="#0FBF6B"/>
<rect x="27.1953" y="20.7998" width="6.4" height="12.8" fill="#0FBF6B"/>
<path d="M35.8057 33.5998C36.4118 33.5998 36.9658 33.9422 37.2368 34.4843L38.8368 37.6843C39.3688 38.7481 38.5952 39.9998 37.4057 39.9998L10.5835 39.9998C9.39404 39.9998 8.62045 38.7481 9.15237 37.6843L10.7524 34.4843C11.0234 33.9422 11.5774 33.5998 12.1835 33.5998L35.8057 33.5998Z" fill="#ACEFCF"/>
</g>
<defs>
<clipPath id="clip0_691_11301">
<rect width="48" height="48" fill="white"/>
</clipPath>
</defs>
</svg>
