<svg width="48" height="48" viewBox="0 0 48 48" fill="none" xmlns="http://www.w3.org/2000/svg">
<g clip-path="url(#clip0_691_11338)">
<path d="M24 48C37.2548 48 48 37.2548 48 24C48 10.7452 37.2548 0 24 0C10.7452 0 0 10.7452 0 24C0 37.2548 10.7452 48 24 48Z" fill="#D7FBE9"/>
<path d="M33.5961 11.1998H11.1961C9.42878 11.1998 7.99609 12.6325 7.99609 14.3998V30.3998C7.99609 32.1671 9.42878 33.5998 11.1961 33.5998H33.5961C35.3634 33.5998 36.7961 32.1671 36.7961 30.3998V14.3998C36.7961 12.6325 35.3634 11.1998 33.5961 11.1998Z" fill="#ACEFCF"/>
<rect x="23.9961" y="30.3998" width="16" height="6.4" rx="2" fill="#0FBF6B"/>
<rect x="23.9961" y="23.9999" width="16" height="6.4" rx="2" fill="#0FBF6B"/>
</g>
<defs>
<clipPath id="clip0_691_11338">
<rect width="48" height="48" fill="white"/>
</clipPath>
</defs>
</svg>
