<svg width="48" height="48" viewBox="0 0 48 48" fill="none" xmlns="http://www.w3.org/2000/svg">
<g clip-path="url(#clip0_691_11313)">
<path d="M24 48C37.2548 48 48 37.2548 48 24C48 10.7452 37.2548 0 24 0C10.7452 0 0 10.7452 0 24C0 37.2548 10.7452 48 24 48Z" fill="#D7FBE9"/>
<path fill-rule="evenodd" clip-rule="evenodd" d="M17.0031 25.7497C17.583 25.7497 18.0531 26.2198 18.0531 26.7997V30.9997C18.0531 31.5796 17.583 32.0497 17.0031 32.0497C16.4232 32.0497 15.9531 31.5796 15.9531 30.9997V26.7997C15.9531 26.2198 16.4232 25.7497 17.0031 25.7497Z" fill="#ACEFCF"/>
<path fill-rule="evenodd" clip-rule="evenodd" d="M22.6047 22.9497C23.1846 22.9497 23.6547 23.4198 23.6547 23.9997V30.9997C23.6547 31.5796 23.1846 32.0497 22.6047 32.0497C22.0248 32.0497 21.5547 31.5796 21.5547 30.9997V23.9997C21.5547 23.4198 22.0248 22.9497 22.6047 22.9497Z" fill="#ACEFCF"/>
<path fill-rule="evenodd" clip-rule="evenodd" d="M28.2023 25.7497C28.7822 25.7497 29.2523 26.2198 29.2523 26.7997V30.9997C29.2523 31.5796 28.7822 32.0497 28.2023 32.0497C27.6224 32.0497 27.1523 31.5796 27.1523 30.9997V26.7997C27.1523 26.2198 27.6224 25.7497 28.2023 25.7497Z" fill="#ACEFCF"/>
<path fill-rule="evenodd" clip-rule="evenodd" d="M33.8039 22.9497C34.3838 22.9497 34.8539 23.4198 34.8539 23.9997V30.9997C34.8539 31.5796 34.3838 32.0497 33.8039 32.0497C33.224 32.0497 32.7539 31.5796 32.7539 30.9997V23.9997C32.7539 23.4198 33.224 22.9497 33.8039 22.9497Z" fill="#ACEFCF"/>
<path fill-rule="evenodd" clip-rule="evenodd" d="M10.0031 8.94971C10.583 8.94971 11.0531 9.41981 11.0531 9.99971V32.3997C11.0531 34.9126 13.0902 36.9497 15.6031 36.9497H38.0031C38.583 36.9497 39.0531 37.4198 39.0531 37.9997C39.0531 38.5796 38.583 39.0497 38.0031 39.0497H15.6031C11.9304 39.0497 8.95312 36.0724 8.95312 32.3997V9.99971C8.95312 9.41981 9.42323 8.94971 10.0031 8.94971Z" fill="#0FBF6B"/>
<path fill-rule="evenodd" clip-rule="evenodd" d="M34.5456 14.8572C34.9556 15.2673 34.9556 15.9321 34.5456 16.3421L30.9255 19.9622C29.422 21.4658 26.9843 21.4658 25.4808 19.9622L23.8406 18.322C23.1571 17.6386 22.0491 17.6386 21.3657 18.322L17.7456 21.9421C17.3355 22.3522 16.6707 22.3522 16.2607 21.9421C15.8506 21.5321 15.8506 20.8673 16.2607 20.4572L19.8808 16.8371C21.3843 15.3336 23.822 15.3336 25.3255 16.8371L26.9657 18.4773C27.6491 19.1607 28.7571 19.1607 29.4406 18.4773L33.0607 14.8572C33.4707 14.4472 34.1355 14.4472 34.5456 14.8572Z" fill="#0FBF6B"/>
</g>
<defs>
<clipPath id="clip0_691_11313">
<rect width="48" height="48" fill="white"/>
</clipPath>
</defs>
</svg>
