<svg aria-hidden="true" style="position: absolute; width: 0; height: 0; overflow: hidden;" version="1.1" xmlns="http://www.w3.org/2000/svg" xmlns:xlink="http://www.w3.org/1999/xlink">
<defs>
<symbol id="icon-entity" viewBox="0 0 32 32">
<path fill="#edb485" style="fill: var(--color1, #edb485)" d="M19.176 19.147c-0.459 0.328-1.148 1.213-1.148 1.213l-1.279 0.918-1.902 0.459-1.41-0.131-2.361 3.213c1.213-0.393 6.229-1.574 6.229-1.574l2-2c0 0 0.984-1.246 1.049-1.803-0.033-0.295-0.426-0.82-1.18-0.295z"></path>
<path fill="#edb485" style="fill: var(--color1, #edb485)" d="M18.882 18.36c0.033-0.262-0.393-0.82-1.148-0.295-0.459 0.328-1.148 1.213-1.148 1.213l-1.279 0.918-0.098 0.033 0.459-0.459c0 0 0.852-1.082 0.918-1.574 0.033-0.23-0.328-0.721-0.984-0.262-0.393 0.295-0.984 1.049-0.984 1.049l-1.115 0.787-1.639 0.393c0 0-0.131 0-0.328-0.033-1.148 0.361-2.918-0.033-3.836-0.131-0.557-0.066-1.18-0.164-1.738-0.164l-1.016 4.066 6.131 0.885 1.148-1.475c1.115-0.361 3.639-1.148 3.639-1.148l2-2c-0.033 0 0.951-1.246 1.016-1.803z"></path>
<path fill="#edb485" style="fill: var(--color1, #edb485)" d="M11.931 20.196c0.295 0.131 0.623 0.262 0.918 0.393l0.328-0.23c0 0 0.885-0.852 0.984-1.246 0.033-0.197-0.197-0.656-0.82-0.328-0.393 0.197-1.836 1.213-1.836 1.213 0.131 0.066 0.295 0.131 0.426 0.197z"></path>
<path fill="#edb485" style="fill: var(--color1, #edb485)" d="M14.55 20.065c-0.426-0.295-0.852-0.197-1.377-0.164-0.721 0.066-1.443 0.098-2.164 0.033-1.311-0.164-2.787-1.213-4.131-1.312-2.328-0.197-4.066 1.148-5.836 2.59 0 0.066 0.033 0.098 0.033 0.164 0.098 0.23 0.197 0.426 0.328 0.557 0.098-0.033 0.23 0 0.295 0.066 0.918-0.459 1.77-1.115 2.721-1.541 1.049-0.459 2.262-0.393 3.377-0.197 1.213 0.197 2.361 0.754 3.607 0.852 0.557 0.033 1.115-0.033 1.672-0.066 0.525-0.033 1.016 0 1.443-0.295 0.262-0.197 0.23-0.525 0.033-0.689z"></path>
<path fill="#ffc89f" style="fill: var(--color2, #ffc89f)" d="M15.766 21.967c0.164 0.426-0.098 1.049-0.852 1.377-0.557 0.229-1.541 0.59-1.541 0.59l-2.295 0.885c-0.459-0.098-7.803-1.148-7.803-1.148l-4.131 1.148-1.049-4.23c0.098 0.033 6.197-1.803 7.869-1.41 1.77 0.426 5.311 3.115 5.311 3.115s1.574-0.393 2.066-0.59c1.639-0.59 2.229-0.229 2.426 0.262z"></path>
<path fill="#edf0f2" style="fill: var(--color3, #edf0f2)" opacity="0.5" d="M14.686 23.18c0 0 1.246-0.426 0.918-1.18-0.262-0.557-1.41-0.361-1.41-0.295-0.033 0.033 0.492 1.475 0.492 1.475z"></path>
<path fill="#fbbf8d" style="fill: var(--color4, #fbbf8d)" d="M18.719 11.572l1.213-3.902 11.443 3.541 1.148 6.098-6.098-2.033-1.344 0.426-2.361 0.066-2.59-3.803-1.41-0.393z"></path>
<path fill="#fbbf8d" style="fill: var(--color4, #fbbf8d)" d="M18.719 11.572l1.246-3.902 6.951 2.754c-0.295 0.262-0.361 0.59-0.557 0.951-0.328 0.656-0.656 1.312-0.885 2.033-0.262 0.787-0.525 1.541-0.852 2.295l-1.902 0.066-2.59-3.77-1.41-0.426z"></path>
<path fill="#fbbf8d" style="fill: var(--color4, #fbbf8d)" d="M19.242 7.77c-0.131 0.066-4.754 1.016-4.754 1.016l-2.393 2.033c0 0-0.852 1.705-0.984 2.295-0.066 0.295 0.361 0.951 1.213 0.426 0.557-0.295 1.016-1.639 1.016-1.639l1.508-0.852 2.131-0.295 1.705 0.852 2.164-3.18c0.033-0.033-0.689-1.148-1.607-0.656z"></path>
<path fill="#fbbf8d" style="fill: var(--color4, #fbbf8d)" d="M18.553 17.18c0 0-2.754 0.131-3.246 0.131-1.082 0.033-1.279-0.885-0.623-1.377 0.295-0.229 2.623-0.557 2.623-0.557l1.967-0.951c0 0 0.59-1.672 0.066-2.197-0.164-0.164-0.623-0.656-0.623-0.656l4.426-1.279 2.688 3.082-0.754 2.328-6.525 1.475z"></path>
<path fill="#fec111" style="fill: var(--color5, #fec111)" d="M12.78 17.311c1.032 0 1.869-0.837 1.869-1.869s-0.837-1.869-1.869-1.869c-1.032 0-1.869 0.837-1.869 1.869s0.837 1.869 1.869 1.869z"></path>
</symbol>
<symbol id="icon-fund" viewBox="0 0 32 32">
<path fill="#edb485" style="fill: var(--color1, #edb485)" d="M3.637 12.459c0.098 0.59-0.066 1.803-0.066 1.803l0.262 1.672 1.082 1.803 1.18 1.016-0.721 4.262c-0.623-1.213-2.918-4.459-3.344-6.164-0.197-0.754-0.066-2.918-0.066-2.918s0.23-1.738 0.59-2.164c0.197-0.197 0.951-0.295 1.082 0.689z"></path>
<path fill="#edb485" style="fill: var(--color1, #edb485)" d="M4.458 12.098c0.197-0.23 0.918-0.328 1.082 0.656 0.098 0.59-0.066 1.803-0.066 1.803l0.262 1.672 0.066 0.098v-0.721c0 0 0.197-1.508 0.525-1.869 0.164-0.197 0.82-0.262 0.951 0.59 0.098 0.525-0.066 1.574-0.066 1.574l0.229 1.443 0.951 1.574c0 0 0.098 0.098 0.262 0.262 0.59 1.18 2.23 2.262 3.016 2.885 0.459 0.361 1.016 0.787 1.443 1.246l-2.393 3.869-5.344-4.098 0.295-2.033c-0.557-1.148-1.869-3.705-1.869-3.705l0.066-3.082c0 0 0.23-1.705 0.59-2.164z"></path>
<path fill="#edb485" style="fill: var(--color1, #edb485)" d="M8.325 18.885c-0.328-0.131-0.656-0.295-0.984-0.393l-0.066-0.426c0 0 0-1.311 0.229-1.705 0.131-0.197 0.656-0.328 0.885 0.393 0.131 0.459 0.426 2.361 0.426 2.361-0.197-0.098-0.361-0.164-0.492-0.23z"></path>
<path fill="#edb485" style="fill: var(--color1, #edb485)" d="M13.769 24.852c0.098 0.262 1.377-0.328 1.344-0.492-0.328-1.049-0.885-2-1.77-2.787-1.115-0.951-3.016-1.311-4.131-2.197-0.623-0.492-1.115-1.082-1.639-1.705-0.361-0.426-0.623-0.82-1.18-0.918-0.262-0.066-0.557 0.197-0.492 0.459 0.098 0.59 0.492 0.918 0.852 1.377 0.393 0.459 0.754 0.951 1.213 1.344 1.016 0.885 2.328 1.344 3.41 2.164 0.984 0.721 1.967 1.574 2.393 2.754z"></path>
<path fill="#ffc89f" style="fill: var(--color2, #ffc89f)" d="M9.996 33.639h5.344v-7.705c0 0 0-1.18-0.295-1.738-0.23-0.459-0.689-0.984-1.443-1.475-1.672-1.049-6.426-1.803-6.426-1.803s-0.885-1.541-1.115-2.033c-0.754-1.672-1.508-1.869-2.033-1.639-0.459 0.197-0.754 0.885-0.426 1.705 0.229 0.59 0.689 1.639 0.689 1.639l1.049 2.459c1.213 1.672 2.852 2.328 4.557 3.475 0.098 0.033 0.098 5.541 0.098 7.115z"></path>
<path fill="#edf0f2" style="fill: var(--color3, #edf0f2)" opacity="0.5" d="M3.897 19.017c0 0-0.623-1.279 0.23-1.607 0.623-0.23 1.311 0.82 1.311 0.852-0.033 0.033-1.541 0.754-1.541 0.754z"></path>
<path fill="#edb485" style="fill: var(--color1, #edb485)" d="M28.36 12.459c-0.098 0.59 0.066 1.803 0.066 1.803l-0.262 1.672-1.082 1.803-1.18 1.016 0.721 4.262c0.623-1.213 2.918-4.459 3.344-6.164 0.197-0.754 0.066-2.918 0.066-2.918s-0.23-1.738-0.59-2.164c-0.197-0.197-0.918-0.295-1.082 0.689z"></path>
<path fill="#edb485" style="fill: var(--color1, #edb485)" d="M27.541 12.098c-0.197-0.23-0.918-0.328-1.082 0.656-0.098 0.59 0.066 1.803 0.066 1.803l-0.262 1.672-0.066 0.098v-0.721c0 0-0.197-1.508-0.525-1.869-0.164-0.197-0.82-0.262-0.951 0.59-0.098 0.525 0.066 1.574 0.066 1.574l-0.23 1.443-0.951 1.574c0 0-0.098 0.098-0.262 0.262-0.59 1.18-2.23 2.262-3.016 2.885-0.459 0.361-1.016 0.787-1.443 1.246l2.393 3.869 5.344-4.098-0.295-2.033c0.557-1.148 1.869-3.705 1.869-3.705l-0.066-3.082c0 0-0.23-1.705-0.59-2.164z"></path>
<path fill="#edb485" style="fill: var(--color1, #edb485)" d="M23.674 18.885c0.328-0.131 0.656-0.295 0.984-0.393l0.066-0.426c0 0 0-1.311-0.229-1.705-0.131-0.197-0.656-0.328-0.885 0.393-0.131 0.459-0.426 2.361-0.426 2.361 0.197-0.098 0.361-0.164 0.492-0.23z"></path>
<path fill="#edb485" style="fill: var(--color1, #edb485)" d="M18.23 24.852c-0.098 0.262-1.377-0.328-1.344-0.492 0.328-1.049 0.885-2 1.77-2.787 1.115-0.951 3.016-1.311 4.131-2.197 0.623-0.492 1.115-1.082 1.639-1.705 0.361-0.426 0.623-0.82 1.18-0.918 0.262-0.066 0.557 0.197 0.492 0.459-0.098 0.59-0.492 0.918-0.852 1.377-0.393 0.459-0.754 0.951-1.213 1.344-1.016 0.885-2.328 1.344-3.41 2.164-0.984 0.721-1.967 1.574-2.393 2.754z"></path>
<path fill="#ffc89f" style="fill: var(--color2, #ffc89f)" d="M22.001 33.639h-5.344v-7.705c0 0 0-1.18 0.295-1.738 0.23-0.459 0.689-0.984 1.443-1.475 1.672-1.049 6.426-1.803 6.426-1.803s0.885-1.541 1.115-2.033c0.754-1.672 1.508-1.869 2.033-1.639 0.459 0.197 0.754 0.885 0.426 1.705-0.229 0.59-0.689 1.639-0.689 1.639l-1.049 2.459c-1.213 1.672-2.852 2.328-4.557 3.475-0.098 0.033-0.098 5.541-0.098 7.115z"></path>
<path fill="#edf0f2" style="fill: var(--color3, #edf0f2)" opacity="0.5" d="M28.098 19.017c0 0 0.623-1.279-0.229-1.607-0.623-0.23-1.312 0.82-1.312 0.852 0.033 0.033 1.541 0.754 1.541 0.754z"></path>
<path fill="#393c41" style="fill: var(--color6, #393c41)" d="M18.033 19.869c-0.066-0.098-0.197-0.066-0.229 0.033s-0.066 0.23-0.098 0.361c-0.131 0.131-0.262 0.23-0.459 0.262-0.033 0-0.066 0.098 0 0.098 0.098 0.033 0.164 0.033 0.262 0-0.033 0.066-0.066 0.098-0.131 0.164-0.033 0.033 0 0.066 0.033 0.066 0.164-0.066 0.262-0.164 0.361-0.295 0 0.098 0 0.164-0.033 0.262 0 0.033 0.033 0.066 0.066 0.033 0.131-0.164 0.164-0.361 0.131-0.59 0.066-0.098 0.131-0.262 0.098-0.393z"></path>
<path fill="#dcdcdc" style="fill: var(--color7, #dcdcdc)" d="M19.312 10.951c-0.23-1.246-0.82-2.262-1.639-3.082-0.295-0.328-1.475-1.213-1.705-1.41-0.82-0.656-2.23-1.246-3.311-1.377-0.098 0-0.098 0.164-0.131 0.197-0.164 0.59-0.098 1.246 0.033 1.869-0.033 0.426 0.066 0.885 0.164 1.246 0.033 0.131 0.131 0.426 0.262 0.623-1.902 2.426-0.295 5.344 0.82 6.164 1.639 1.246 2.229 0.984 3.016 0.787 1.836-0.557 2.885-2.623 2.492-5.016z"></path>
<path fill="#231f20" style="fill: var(--color8, #231f20)" d="M22.854 11.377l1.279 0.557-1.279 0.557v-1.115z"></path>
<path fill="#fff" style="fill: var(--color9, #fff)" d="M21.901 10.262c-0.689 0.033-1.246 0.393-2.197 1.77s-2.525 2-3.475 2.525c-0.918 0.557-4.689 2.328-3.738 3.771 1.443 2.229 4.164 2.229 5.607 1.738 2.557-0.885 3.311-2.689 3.607-5.016 0.262-1.934 0.754-1.836 1.18-2.098 0.918-0.557 0.951-2.787-0.984-2.689z"></path>
<path fill="#231f20" style="fill: var(--color8, #231f20)" d="M22.69 11.442c0.033-0.164-0.066-0.328-0.23-0.361s-0.328 0.066-0.361 0.23c-0.033 0.164 0.066 0.328 0.23 0.361 0.164 0.066 0.328-0.066 0.361-0.23z"></path>
<path fill="#fff" style="fill: var(--color9, #fff)" d="M22.656 11.349c0.012-0.053-0.021-0.106-0.074-0.118s-0.106 0.021-0.118 0.074c-0.012 0.053 0.021 0.106 0.074 0.118s0.106-0.021 0.118-0.074z"></path>
<path fill="#fff" style="fill: var(--color9, #fff)" d="M14.46 18.59c0-0.131 0-0.23-0.033-0.361-0.066-0.361-0.492-0.787-0.885-0.852-0.098-0.066-0.197-0.164-0.295-0.229 0-0.033 0-0.033-0.033-0.033h-0.033c-0.033-0.033-0.098-0.066-0.131-0.098-0.066-0.066-0.164 0-0.131 0.098-0.131 0-1.738 0.426-2.984 1.344-0.459 0.361-0.918 0.754-1.311 1.148-0.656 0.689-1.016 1.311-1.344 2.197-0.262 0.721 0.033 1.443 0.754 1.639 0.098 0.033 0.656 0.098 0.787 0.098 0.066 0.328 0.23 0.689 0.59 0.918 0.295 0.197 0.852 0.197 1.148 0.033-0.098 0.852 1.41 1.213 1.869 0.754 1.607-1.77 1.311-4.721 1.443-5.148 0.131-0.361 0.295-0.689 0.492-1.016 0.066-0.098 0.098-0.23 0.131-0.328l0.033-0.033c-0.033-0.098-0.033-0.098-0.066-0.131z"></path>
<path fill="#fafbfd" style="fill: var(--color10, #fafbfd)" d="M16.722 10.591c-0.951-1.148-2.262-1.902-3.738-2.229-0.525-0.164-2.557-0.361-2.951-0.393-1.443-0.164-3.475 0.131-4.689 0.754-0.098 0.066 0 0.23 0.033 0.295 0.328 0.754 0.918 1.377 1.574 1.934 0.295 0.426 0.721 0.82 1.082 1.115 0.131 0.098 0.426 0.328 0.721 0.426-0.197 3.049 3.049 4.492 4.492 4.623 2.131 0.164 2.623-0.262 3.311-0.754 1.607-1.377 1.836-3.705 0.164-5.771z"></path>
<path fill="#393c41" style="fill: var(--color6, #393c41)" d="M16.917 20.033c-0.033 0.066-0.066 0.164-0.098 0.262 0 0-0.197 0.131-0.295 0.164s-0.164 0.033-0.262 0.066c-0.033 0-0.033 0.033 0 0.066 0.098 0.033 0.197 0.066 0.328 0.033-0.098 0.066-0.197 0.131-0.295 0.098-0.033 0-0.033 0.066 0 0.066 0.164 0.066 0.361-0.033 0.492-0.131 0 0.066-0.066 0.131-0.066 0.197 0 0.033 0 0.066 0.033 0.066 0.197 0.033 0.262-0.262 0.229-0.426 0.098-0.098 0.164-0.23 0.197-0.361 0.033-0.197-0.197-0.262-0.262-0.098z"></path>
</symbol>
<symbol id="icon-organization" viewBox="0 0 32 32">
<path fill="#8db90a" style="fill: var(--color11, #8db90a)" d="M23.219 12.194c0.117-4-3.030-7.339-7.030-7.457s-7.338 3.028-7.456 7.029c-0.117 4 3.030 7.339 7.030 7.457s7.338-3.028 7.456-7.029z"></path>
<path fill="#fff4de" style="fill: var(--color12, #fff4de)" d="M13.311 18.493c-0.033-0.164-0.164-0.066-0.197-0.197-0.066-0.131 0.098-0.066 0.131-0.131l0.033-0.197-0.066-0.033c0.033-0.066 0.066 0.033 0.066 0.033 0.033 0.033 0-0.066-0.066-0.098 0 0-0.131-0.131-0.098-0.164 0.033 0 0.23 0.131 0.262 0 0-0.033-0.066-0.164-0.066-0.197 0 0 0.393 0.066 0.393-0.098 0-0.033 0.098-0.164 0.033-0.197l-0.164-0.197 0.262 0.066c0.098 0.033 0.328-0.197 0.295-0.328 0 0 0.033-0.197 0.066-0.164 0 0-0.066 0.131-0.033 0.131 0.098 0 0.197-0.459 0.197-0.492-0.066-0.23 0.23-0.23 0.262-0.295 0.066-0.098 0.098-0.098 0.262-0.098 0.066 0 0.229-0.295 0.229-0.361s0-0.59 0.066-0.656c0.131-0.197 0.59-0.623 0.295-0.885-0.033-0.033-0.131 0-0.164-0.033-0.098-0.066-0.164-0.197-0.262-0.23s-0.361 0-0.426-0.033c0 0 0-0.164-0.033-0.164l-0.033 0.033c0-0.262-0.328-0.033-0.393 0.066 0-0.066 0.197-0.328-0.033-0.295 0 0-0.066-0.426-0.131-0.426-0.033 0-0.098-0.131-0.164-0.131s-0.131-0.066-0.229-0.066c-0.066 0-0.23-0.098-0.262-0.066 0.066-0.197-0.131-0.164-0.23-0.23 0 0.033 0.033-0.197-0.066-0.131-0.033 0.033-0.066-0.033-0.098-0.066 0 0 0.098 0 0.098-0.033s-0.557 0.098-0.623-0.033c0.066-0.066-0.262-0.197-0.164-0.066-0.066 0.033-0.098 0-0.098 0s-0.033 0.033-0.033 0.066c0-0.033 0.098-0.23 0-0.164-0.066 0-0.164 0.098-0.229 0.098s-0.262 0.361-0.262 0.361c-0.066-0.033-0.066-0.164-0.197-0.164-0.033 0-0.164 0.066-0.229 0.066-0.131 0-0.295-0.262-0.197-0.361 0.066-0.098 0.098-0.328 0-0.328-0.033 0-0.098-0.098-0.197-0.033-0.033 0.033-0.164 0-0.229-0.033 0.066-0.098 0.098-0.197 0.164-0.295 0.098-0.098 0.131-0.262 0.033-0.295-0.131-0.033-0.393 0.164-0.393 0.295 0 0.033-0.295 0-0.295 0.033s-0.131-0.197-0.164-0.23c-0.066-0.098-0.033-0.23 0-0.328 0.033-0.328 0.197-0.492 0.426-0.623 0 0 0.23 0.033 0.262 0 0.033 0.098 0.164 0.066 0.164 0.033 0.033 0 0.033 0.066 0.066 0.066 0.098 0.033 0-0.066 0-0.066 0.033-0.033 0.131-0.066 0.197-0.098 0 0.033-0.033 0.033-0.033 0.066 0 0 0.131-0.033 0.164 0 0.098 0.033 0.033 0.131 0.164 0.066 0.164-0.131 0.098 0.262 0.098 0.23 0 0.033 0.033 0 0.033-0.033v0.131c0 0-0.033 0 0 0.033 0 0 0.098 0.197 0.131 0.164 0.066-0.098 0.131-0.262 0.098-0.393-0.066-0.262 0.262-0.59 0.525-0.59 0.033 0 0.197-0.164 0.098-0.164 0.066-0.098 0-0.066 0-0.131 0-0.033 0.098-0.23 0.131-0.23 0 0-0.098 0.197-0.066 0.164-0.033 0-0.066 0.066-0.033 0.066 0.033 0.033 0.131-0.23 0.131-0.23l0.033 0.066c0.066 0 0.131-0.164 0.164-0.197 0 0 0.197 0 0.197-0.033 0 0 0 0-0.033 0 0.033 0 0.098 0 0.098-0.066 0 0 0.033 0.033 0.066 0.033 0 0-0.033-0-0.033 0.033s0.197-0.098 0.098-0.098l-0.033 0.033c0-0.033-0.033-0.033-0.033-0.066 0.033-0.066 0.197-0.164 0.295-0.197 0 0-0.066 0.066-0.033 0.066s0.262-0.098 0.295-0.131c0 0.066 0.098-0.033 0.131-0.033l-0.066 0.033c0 0.033 0.066 0 0.098 0-0.033 0.033-0.131 0.066-0.197 0.066s-0.033 0.197 0.033 0.131c0.066-0.033 0.098-0.098 0.131-0.131 0 0 0.033 0.033 0 0.033 0.098 0 0.426-0.197 0.361-0.197 0 0 0.066-0.066 0-0.066s-0.098 0.098-0.131 0.131c-0.033 0-0.131 0-0.164-0.066-0.066-0.098 0.066-0.164 0.033-0.197h-0.164c0.033 0 0.197 0 0.23-0.066 0.131-0.23-0.623 0.131-0.623 0.131 0.164-0.098 0.328-0.23 0.459-0.295 0.164-0.066 0.59 0.098 0.721-0.098 0.066-0.033 0.164-0.033 0.262-0.066 0.131-0.066 0.066-0.23-0.033-0.262 0.033 0 0.066 0 0.066-0.033l-0.033-0.066h-0.131c-0.033-0.033 0-0.098-0.066-0.131 0 0 0.098-0.066 0.066-0.066h-0.033c0.033-0.033-0.033-0.328-0.033-0.328s-0.328 0.197-0.361 0.23c0-0.033-0.131-0.262-0.033-0.295-0.033 0-0.131-0.033-0.131-0.033s0.033 0 0.066-0.033c0-0.098-0.557-0.131-0.459 0-0.033 0.033-0.164 0.164-0.164 0.197-0.033 0.098-0.098 0-0.033 0.131s-0.164 0.23-0.23 0.262c-0.131 0.066-0.164 0.033-0.197 0.164 0 0.098-0.066 0.131-0.098 0.23 0-0.066-0.066 0-0.131 0 0.033-0.033 0-0.066-0.033-0.098 0.033 0 0.262-0.459-0.098-0.328 0.066-0.098-0.361-0.197-0.426-0.197 0 0 0.098-0.164 0.066-0.164-0.066-0.066-0.164 0 0-0.131 0.033-0.033 0.164-0.164 0.229-0.164 0 0 0.164-0.098 0.197-0.066 0.23 0.066-0.033-0.098-0.066-0.131 0.098 0.033 0.197 0.098 0.262 0 0.033 0.098 0.328-0.066 0.295-0.098 0.033-0.033 0.098-0.033 0.131-0.066-0.098 0.066-0.164 0.164-0.262 0.229 0.164 0 0.033 0 0.098 0.033 0.098 0.066 0.23-0.197 0.23-0.033 0.131 0.066 0.23 0.033 0.098-0.066 0.066-0.033-0.098-0.197-0.098-0.197s0 0.066-0.033 0.066c0.033-0.033 0.033-0.066 0-0.098 0.033 0 0.164 0.098 0.164 0.066s-0.033-0.066-0.033-0.066c0.033 0 0.066 0.033 0.066-0.033 0.033 0.066 0.295-0.066 0.262-0.098 0 0 0.098-0.131 0.066-0.164 0.033 0.066 0.262 0 0.295-0.066 0.033 0.033 0.033 0.033 0.066 0.033l-0.033 0.033 0.098 0.033c0 0 0 0 0 0.033-0.033 0-0.098-0.033-0.098 0.033 0 0.033 0.066 0 0.098 0-0.066 0.066 0.033 0.033 0.066 0v0.033c0 0-0.066 0-0.066 0.033s0.131 0.033 0.066-0.033c0 0 0 0 0-0.033 0 0 0.098 0.098 0.033 0.131-0.098 0-0.197 0.066-0.197 0.131-0.066 0.033-0.361-0.066-0.393 0.066-0.033 0.098 0.295 0 0.295 0 0.033 0 0.033 0.098 0.066 0.131 0.033 0.066 0.23 0.197 0.393 0.197 0.066 0-0.098-0.164-0.098-0.197 0.033 0 0.197 0.066 0.197 0.098 0.033 0.131 0.066-0.098 0.066-0.098 0.033 0.098 0.033-0.033 0.033-0.066 0 0 0 0.033 0.033 0.033s-0.098-0.164-0.131-0.164c0-0.164 0.262 0.197 0.295 0.033 0.066 0.066 0.164-0.066 0.229-0.098-0.033 0-0.361-0.197-0.361-0.197 0-0.033 0.164-0.033 0.164-0.066l-0.066-0.033c0 0 0.033 0.033 0.066 0 0.033-0.066-0.066-0.033-0.098-0.033 0 0 0.066-0.033 0.033-0.066s-0.262-0.131-0.295-0.066c-0.033-0.098-0.098-0.066-0.098-0.131 0-0.131-0.033 0-0.164-0.098-0.066-0.033-0.033 0.066-0.033 0.066-0.033 0.066 0.131 0.033 0.164 0.033 0 0.033-0.262 0.033-0.262 0.066 0-0.033 0.098-0.066 0.098-0.131 0-0.033-0.426 0.033-0.459 0.131 0 0.033 0.066 0.033 0.066 0.033-0.262 0 0.164-0.197 0.164-0.197-0.033-0.098-0.525 0.066-0.557 0.197 0 0 0.131 0 0.164 0.033-0.459 0.033 0.23 0.098 0.23 0.098 0 0.033-0.131 0-0.131 0-0.098 0-0.066 0.066-0.066 0.066s-0.164 0.098-0.197 0.098l0.033-0.033c-0.033 0-0.098 0.066-0.066 0.066-0.098 0.098-0.164-0.066-0.066-0.066 0.098 0.033 0.033-0.066-0.033-0.098 0-0.066-0.131-0.033-0.131-0.033 0.164-0.098 0.066-0.033 0.066-0.197 0.098-0.033 0.426-0.066 0.459-0.131-0.033-0.098-0.426 0-0.459 0.066s-0.229 0.229-0.229 0.229c0 0-0.098 0-0.098 0.033-0.033 0.066 0.131 0.066 0.131 0.098l-0.131 0.033h0.033c-0.033 0-0.262 0.098-0.23 0.098 0 0 0 0-0.033 0 0-0.033 0.098-0.066 0.098-0.066s-0.066 0-0.098-0.033l0.229-0.066c0.033-0.066-0.361-0.033-0.361 0.033 0 0.033 0.066 0 0.098 0-0.131 0.066-0.262 0.131-0.492 0.033 0.098-0.033 0-0.033 0-0.066 0 0-0.23-0.033-0.262 0.033 0 0.033 0.033 0.033 0.066 0.033 0 0-0.098 0.098-0.066 0.098h-0.033c0-0.033 0-0.066-0.066-0.066l0.066-0.033c0 0-0.066 0-0.131 0-1.311 1.016-2.262 2.459-2.656 4.131 0 0 0 0.033 0.033 0.033 0.033 0.033-0.066 0.066-0.033 0.098s0.066 0.033 0.098 0.098c0 0.066 0.066 0.131 0.098 0.197 0.098 0.131 0 0.23 0 0.328 0.033 0.197 0.426 0.361 0.59 0.426 0.131 0.066 0.164 0.033 0.328 0.033 0.098 0.033 0.229 0.23 0.262 0.197 0.098 0 0.262 0.098 0.361 0.098s0.131 0.426 0.197 0.426c0-0.033 0.033-0.033 0.033-0.066 0.098 0 0.098 0.23 0.164 0.23 0 0 0.066-0.098 0.131-0.033 0 0.033-0.033 0.033-0.033 0.033s0 0.033 0.033 0.033c0 0 0.262 0 0.131-0.098 0.033-0.033 0.131-0.131 0.164-0.066 0 0.033 0.098 0.229 0.098 0.229-0.066 0.098 0 0.262 0 0.295 0.033 0.066-0.262 0.197-0.164 0.262-0.131 0.066-0.066 0.098-0.164 0.197-0.066 0.066-0.033 0.295 0.033 0.197-0.033 0.164-0.164 0.164-0.098 0.328 0.066 0.131-0.098-0.066 0.098 0.164 0.033 0.033 0.098 0.131 0.098 0.197 0.033 0.098 0.066 0.229 0.131 0.295 0.131 0.197 0.164 0.393 0.393 0.525 0.197 0.131 0.361 0.197 0.361 0.459 0 0.164 0 0.295 0 0.459 0 0.131-0.033 0.328-0.033 0.459 0 0.098 0.033 0.426 0.098 0.492 0 0.033-0.033 0.393-0.033 0.393s-0.033 0-0.066 0l0.164 0.492c0 0-0.033-0.033-0.033 0-0.033 0.033 0.098 0.262 0.098 0.164 0 0-0.066-0.164 0-0.164 0.033 0 0.098 0.295 0.066 0.328-0.033 0-0.033-0.066-0.066-0.066 0.033 0 0 0.229 0 0.295 0 0 0 0 0.033 0 0 0 0 0 0-0.033 0.033 0.033 0.131 0.033 0.131-0.033 0.033 0.033 0.033 0.098 0.033 0.131 0 0-0.033-0.033-0.066-0.033 0.197 0.098 0.426 0.197 0.656 0.295-0.262 0.066-0.197-0.197-0.164-0.098zM14.295 7.706c0.033-0.033 0.066-0.033 0.098-0.033-0.033 0.033-0.098 0.033-0.098 0.033zM12.721 8.952c-0.033 0-0.033 0-0.033 0 0 0.033 0 0 0.033 0zM14 6.722c0.033-0.033-0.066 0.033 0 0zM13.049 6.165c0 0.033-0.033 0.033-0.033 0.098 0-0.033 0-0.098 0.033-0.098zM12.918 6.525c-0.066 0-0.131-0.066-0.164-0.066 0.098 0 0.131 0.033 0.164 0.066zM12.459 6.263c0.066 0.033-0.033 0.033 0 0zM10.754 10.066c0.066-0.066 0 0.033 0 0zM10.885 12.099c0 0-0.066-0.033-0.098 0v-0.066c0 0 0.131 0.033 0.098 0.066zM12.164 12.329c-0.033 0-0.033 0 0 0-0.098 0.131-0.033-0.098-0.033-0.131-0.033 0.033 0.066 0.098 0.033 0.131zM12.524 18.132c0.033-0.033-0.033 0.066 0 0zM12.557 18.197v0.033c0 0 0 0 0-0.033z"></path>
<path fill="#fff4de" style="fill: var(--color12, #fff4de)" d="M16.752 6.952c0 0-0.033 0.066-0.033 0.098 0 0 0.033-0.066 0.066-0.033 0 0.033-0.098 0.066-0.098 0.098 0.033 0.033 0.066-0.033 0.066-0.033 0 0.033-0.033 0.066-0.033 0.066 0 0.033 0.066-0.066 0.066-0.066 0.033 0.033-0.066 0.131 0.098 0.066 0 0.033-0.033 0.066 0.033 0.066 0 0.131-0.164 0.033-0.164 0.098h0.033c0 0.033-0.033 0-0.033 0.066 0 0 0.033-0.033 0.033 0s-0.098 0.066-0.098 0.098 0.131 0.033 0.164 0.033c0 0-0.262 0.098-0.23 0.131 0 0 0.59-0.066 0.59-0.098l-0.066-0.033c0.033-0.066 0.164-0.197-0.033-0.131 0.066-0.033-0.098-0.262-0.131-0.262-0.066-0.033-0.066-0.066-0.033-0.098 0.131-0.131-0.066-0.033-0.131-0.098 0 0 0.164-0.131 0.131-0.164 0 0-0.066 0-0.098 0 0 0 0 0.033 0.033 0.033 0 0.033-0.164 0.066-0.164 0.098-0.033 0-0.033 0-0.033 0.033-0.033-0.033-0.033 0-0.098 0v0.098c0.131 0 0.164-0.066 0.164-0.066z"></path>
<path fill="#fff4de" style="fill: var(--color12, #fff4de)" d="M16.689 7.378c0-0.033 0.033-0.131 0-0.131 0.197-0.164-0.164-0.197-0.197-0.066 0 0 0 0 0.033 0-0.066 0.033-0.164 0.131-0.098 0.131-0.262 0.197 0.197 0.23 0.262 0.066z"></path>
<path fill="#fff4de" style="fill: var(--color12, #fff4de)" d="M19.312 5.607l0.066 0.033c-0.098 0-0.098 0-0.164 0.033 0.033-0.164-0.098 0.033-0.131 0.066-0.033-0.066-0.066-0.033-0.066 0 0-0.033-0.033-0.033-0.033 0v-0.033h-0.066c0.033 0-0.197 0.131-0.164 0.098v0.033c0 0.033 0.131-0.033 0.164-0.033 0 0.131-0.295 0.262-0.328 0.295-0.033 0.098-0.197 0.098-0.23 0.131s0.033 0.033 0 0.066c-0.033-0.033-0.131 0.033-0.197 0.033-0.098 0 0.066 0.328 0.066 0.328-0.131 0.131 0.295 0.131 0.361 0 0 0.033 0.197 0.328 0.131 0.328-0.131 0-0.066 0.098-0.066 0.131-0.033 0-0.033 0-0.033 0.033 0 0.066 0.197 0 0.098-0.033 0.066-0.066 0.131-0.033 0.197-0.066-0.033 0 0.295-0.131 0.164-0.131l-0.033 0.033c0-0.131 0.23-0.295 0.164-0.328s-0.197-0.098-0.098-0.197c0.033 0 0.262-0.164 0.262-0.197 0.033-0.066 0-0.131 0.131-0.131 0.033 0 0.197 0.066 0.164 0.066-0.164 0-0.426 0.459-0.197 0.459 0.131 0 0.393 0.033 0.59 0.066-0.098 0.033-0.59 0.033-0.623 0.164l0.033 0.066c0.033-0.033 0.098-0.033 0.098-0.066 0.033 0 0.066 0.066 0.098 0.033-0.066 0.229-0.262-0.066-0.262 0.295 0 0.164-0.557 0.033-0.557 0.131 0-0.164-0.197 0.033-0.262 0 0.066-0.033 0 0 0.033-0.066-0.197-0.033 0-0.328-0.033-0.328-0.262 0-0.164 0.295-0.164 0.328s0 0.033 0 0.066c0-0.066-0.393 0.164-0.426 0.23s-0.262 0.164-0.328 0.197c-0.098 0.066-0.098-0.033-0.164-0.033-0.033 0.033 0.098 0.131-0.033 0.131-0.033 0-0.197-0.033-0.23 0 0 0.033 0.23 0.164 0.262 0.23 0.066 0.033 0 0.328-0.066 0.295-0.098 0-0.197-0.033-0.295-0.033-0.23 0-0.262-0.066-0.328 0.131-0.033 0.131-0.066 0.262-0.098 0.393 0.033 0.066 0.066 0.098 0 0.197 0.197-0.098 0.23 0.131 0.361 0.066 0.131-0.098 0.426-0.033 0.492-0.229 0 0-0.033-0.033-0.033-0.066-0.033-0.066 0.131-0.098 0.098-0.164 0 0 0.164-0.098 0.197-0.098s0-0.131 0.066-0.164c0.033-0.033 0.131 0.033 0.197 0.033 0.197 0 0.361-0.229 0.328 0.033 0 0.066 0.066 0 0.066 0 0.066 0 0.492 0.361 0.492 0.459-0.033 0.131-0.295 0.033-0.328 0.066-0.066 0.066 0.098 0.131 0.131 0.131 0.164 0 0 0 0.131-0.098 0.033 0.066 0.131-0.066 0.131-0.098 0.033-0.066-0.066-0.098-0.033-0.131 0.066-0.131 0.066 0.033 0.131 0.033 0.131 0-0.23-0.23-0.197-0.197-0.066 0.033-0.262-0.295-0.295-0.361-0.033-0.131 0.164 0.033 0.197 0.033 0.098 0.066 0.098 0.197 0.23 0.197 0.098 0 0.262 0.262 0.23 0.328 0 0-0.033-0.033-0.033 0 0 0.098 0.426 0.262 0.426 0.262l-0.033-0.066c0 0 0.066 0.066 0.066 0 0 0-0.262-0.262-0.197-0.262 0.033 0 0.361-0.098 0.361 0 0 0.131-0.131 0.131 0.033 0.098 0 0.033-0.066 0.164-0.098 0.164 0.033 0.033 0.033-0.033 0.033-0.033 0.033 0.033 0.033 0.033 0.098 0.066 0 0 0 0 0 0.033 0 0-0.033-0.033-0.033 0-0.033 0.033 0.066 0.066 0.066 0.066-0.033 0-0.066 0.066-0.066 0.098 0.066-0.033 0.066-0.033 0.098-0.066 0 0-0.033 0.033-0.066 0.033 0.033 0.033 0.033 0 0.066 0 0 0.033-0.066 0.066-0.033 0.098 0.033 0 0.066-0.098 0.066-0.098 0 0.033 0.033 0.033 0.033 0 0 0.131 0.197 0.033 0.262 0.033s0.361 0.066 0.361-0.033c0 0 0 0 0.033 0l-0.033 0.295c-0.098 0.164-0.033 0.23-0.229 0.295l-0.262-0.033c-0.098 0-0.262 0.033-0.393-0.033-0.066-0.033-0.328-0.164-0.361-0.164-0.23 0.033-0.164 0.361-0.361 0.229-0.23-0.033-0.459-0.328-0.689-0.328-0.098 0 0.098-0.295 0.033-0.361-0.033-0.033-0.492-0.033-0.557 0.033-0.131-0.066-0.492-0.033-0.59 0.098-0.033 0.033-0.23 0.033-0.295 0.033-0.262-0.066-0.066 0.066-0.328 0.164-0.229 0.098-0.164 0.262-0.262 0.426-0.098 0.131-0.295 0.131-0.328 0.262 0 0.033-0.459 0.689-0.393 0.721 0.033 0.033 0.131 0.262 0.033 0.393-0.033 0.066-0.131 0.229-0.066 0.328 0 0 0 0.262 0 0.229 0.098 0.066 0.164 0.164 0.262 0.262 0.066 0.098 0.098 0.361 0.262 0.393 0.098 0 0.197 0.262 0.295 0.262 0.131 0 0.229-0.098 0.393-0.098 0.23 0.066 0.328 0 0.492-0.066 0.098-0.033 0.164-0.033 0.262-0.033 0.066 0 0.164 0.295 0.229 0.23 0.066-0.098 0.262 0.033 0.295 0.033 0.033 0.131-0.033 0.295-0.033 0.393-0.033 0.23 0.066 0.295 0.197 0.525 0.098 0.197 0.295 0.754 0.066 0.951-0.131 0.098-0.066 0.361-0.098 0.492-0.033 0.098 0.295 0.525 0.229 0.59-0.033 0.033 0.033 0.459 0.066 0.525 0.131 0.197 0.23 0.393 0.164 0.59 0 0 0.098 0.164 0.066 0.164 0.033 0 0.098 0.066 0.164 0.066 0.066-0.033 0.164-0.066 0.229-0.066 0.197 0.098 0.426-0.033 0.557-0.164 0.098-0.098 0.361-0.328 0.393-0.459 0.033-0.098 0.033-0.295 0.131-0.328 0.295-0.066 0.197-0.361 0.164-0.59 0.066 0.033 0.689-0.525 0.623-0.59s0-0.262 0-0.328c0-0.098-0.066-0.164-0.066-0.23s0-0.262-0.033-0.295c-0.131-0.197 0.229-0.557 0.361-0.689 0.295-0.328 0.787-0.721 0.852-1.148 0.033-0.23-0.131-0.164-0.295-0.131-0.098 0.033-0.229 0.033-0.295 0.066-0.098 0.066-0.164-0.098-0.262-0.098 0.23-0.033-0.328-0.525-0.328-0.59 0-0.131-0.164-0.197-0.164-0.262s0-0.197-0.033-0.262c-0.066-0.131-0.131-0.164-0.131-0.295 0.033-0.164-0.361-0.459-0.328-0.656 0.033 0.066 0.098 0.23 0.164 0.23 0.033 0 0.033-0.131 0.066-0.164l-0.033 0.131c0.033 0.066 0.197 0.295 0.262 0.393 0.066 0.131 0.164 0.328 0.229 0.459 0.033 0.098 0.197 0.328 0.262 0.393 0.098 0.098 0 0.393 0.131 0.459s0.623-0.23 0.787-0.262c0.098-0.033 0.098-0.164 0.262-0.164 0.033 0 0.164-0.197 0.197-0.197 0.164-0.066 0-0.131 0.098-0.197 0 0 0.197-0.098 0.164-0.197 0 0.033-0.393-0.361-0.393-0.426-0.066 0.066-0.361 0.361-0.393 0.197l-0.033-0.131c-0.033-0.033-0.033-0.033-0.033-0.066 0 0-0.033 0.033-0.066 0.066 0.033 0-0.197-0.295-0.197-0.295-0.098-0.23-0.033-0.098 0.066-0.262 0.098 0.131 0.361 0.557 0.557 0.393v0.033c0.033 0 0.066-0.033 0.066-0.066 0.033 0 0.066 0.033 0.066 0.066 0.033 0.131 0.066 0.066 0.164 0.131 0.033 0 0.066 0.033 0.098 0.033-0.459-2.098-1.803-3.869-3.639-4.852 0.164-0.066 0.098-0.066 0.098-0.066z"></path>
<path fill="#fff4de" style="fill: var(--color12, #fff4de)" d="M22.198 14.558c0-0.033-0.033-0.328-0.066-0.328-0.066 0-0.033 0.098-0.033 0.098-0.033 0.098-0.033 0-0.066 0s0 0.033 0 0.066c-0.033-0.033-0.066 0.098-0.033 0.098-0.033 0-0.033 0-0.033 0.033 0-0.033-0.131 0.066-0.131 0.098-0.033 0-0.197 0-0.197 0-0.066 0.098 0.033 0.361-0.033 0.459-0.066 0.131-0.164 0.393-0.033 0.492 0.23 0.328 0.623-0.984 0.557-0.984 0.033 0 0 0.033 0.033 0.033 0.033 0.033 0.033-0.066 0.033-0.066 0-0.033 0-0.033 0 0z"></path>
<path fill="#f0b687" style="fill: var(--color13, #f0b687)" d="M3.638 11.279c0.098 0.623-0.066 1.803-0.066 1.803l0.262 1.672 1.082 1.803 1.18 1.016-0.721 4.295c-0.623-1.213-2.918-4.492-3.377-6.164-0.197-0.754-0.066-2.951-0.066-2.951s0.229-1.738 0.623-2.164c0.197-0.23 0.918-0.295 1.082 0.689z"></path>
<path fill="#f0b687" style="fill: var(--color13, #f0b687)" d="M4.456 10.918c0.197-0.23 0.918-0.328 1.082 0.656 0.098 0.59-0.066 1.803-0.066 1.803l0.262 1.672 0.066 0.098 0.033-0.721c0 0 0.197-1.508 0.525-1.902 0.164-0.197 0.82-0.262 0.951 0.59 0.098 0.525-0.066 1.574-0.066 1.574l0.229 1.443 0.951 1.574c0 0 0.098 0.098 0.262 0.262 0.59 1.18 2.23 2.262 3.016 2.885 0.459 0.361 1.016 0.787 1.443 1.246l-2.393 3.869-5.344-4.098 0.295-2.033c-0.557-1.148-1.869-3.705-1.869-3.705l0.066-3.082c-0.033 0.033 0.197-1.672 0.557-2.131z"></path>
<path fill="#f0b687" style="fill: var(--color13, #f0b687)" d="M8.325 17.705c-0.328-0.131-0.656-0.295-0.984-0.393l-0.066-0.426c0 0 0-1.311 0.229-1.705 0.131-0.197 0.656-0.328 0.885 0.393 0.131 0.459 0.426 2.361 0.426 2.361-0.197-0.098-0.361-0.164-0.492-0.23z"></path>
<path fill="#f0b687" style="fill: var(--color13, #f0b687)" d="M13.771 23.705c0.098 0.262 1.377-0.328 1.344-0.492-0.328-1.049-0.885-2-1.77-2.787-1.115-0.951-3.016-1.311-4.131-2.197-0.623-0.492-1.115-1.082-1.639-1.705-0.361-0.426-0.623-0.82-1.18-0.918-0.262-0.066-0.557 0.197-0.492 0.459 0.098 0.59 0.492 0.918 0.852 1.377 0.393 0.459 0.754 0.951 1.213 1.377 1.016 0.885 2.328 1.344 3.41 2.164 0.984 0.656 1.967 1.541 2.393 2.721z"></path>
<path fill="#ffc89f" style="fill: var(--color2, #ffc89f)" d="M9.998 33.311h5.344v-8.557c0 0 0-1.18-0.295-1.738-0.229-0.459-0.689-0.984-1.443-1.475-1.672-1.049-6.459-1.803-6.459-1.803s-0.885-1.541-1.115-2.033c-0.754-1.705-1.508-1.869-2.033-1.639-0.459 0.197-0.754 0.885-0.426 1.705 0.229 0.623 0.689 1.639 0.689 1.639l1.049 2.459c1.213 1.672 2.852 2.328 4.557 3.475 0.131 0.066 0.131 6.393 0.131 7.967z"></path>
<path fill="#edf0f2" style="fill: var(--color3, #edf0f2)" opacity="0.5" d="M3.902 17.836c0 0-0.623-1.312 0.23-1.607 0.623-0.229 1.344 0.82 1.311 0.852-0.033 0.066-1.541 0.754-1.541 0.754z"></path>
<path fill="#f0b687" style="fill: var(--color13, #f0b687)" d="M28.391 11.279c-0.098 0.623 0.066 1.803 0.066 1.803l-0.262 1.672-1.082 1.803-1.18 1.016 0.721 4.295c0.623-1.213 2.918-4.492 3.377-6.164 0.197-0.754 0.066-2.951 0.066-2.951s-0.229-1.738-0.623-2.164c-0.197-0.23-0.951-0.295-1.082 0.689z"></path>
<path fill="#f0b687" style="fill: var(--color13, #f0b687)" d="M27.572 10.918c-0.197-0.23-0.918-0.328-1.082 0.656-0.098 0.59 0.066 1.803 0.066 1.803l-0.262 1.672-0.066 0.098v-0.721c0 0-0.197-1.508-0.525-1.902-0.164-0.197-0.82-0.262-0.951 0.59-0.098 0.525 0.066 1.574 0.066 1.574l-0.23 1.443-0.951 1.574c0 0-0.098 0.098-0.262 0.262-0.59 1.18-2.229 2.262-3.016 2.885-0.459 0.361-1.016 0.787-1.443 1.246l2.393 3.869 5.344-4.098-0.295-2.033c0.557-1.148 1.869-3.705 1.869-3.705l-0.066-3.082c0 0.033-0.23-1.672-0.59-2.131z"></path>
<path fill="#f0b687" style="fill: var(--color13, #f0b687)" d="M23.705 17.705c0.328-0.131 0.656-0.295 0.984-0.393l0.066-0.426c0 0 0-1.311-0.23-1.705-0.131-0.197-0.656-0.328-0.885 0.393-0.131 0.459-0.426 2.361-0.426 2.361 0.197-0.098 0.361-0.164 0.492-0.23z"></path>
<path fill="#f0b687" style="fill: var(--color13, #f0b687)" d="M18.228 23.705c-0.098 0.262-1.377-0.328-1.344-0.492 0.328-1.049 0.885-2 1.771-2.787 1.115-0.951 3.016-1.311 4.131-2.197 0.623-0.492 1.115-1.082 1.639-1.705 0.361-0.426 0.623-0.82 1.18-0.918 0.262-0.066 0.557 0.197 0.492 0.459-0.098 0.59-0.492 0.918-0.852 1.377-0.393 0.459-0.754 0.951-1.213 1.377-1.016 0.885-2.328 1.344-3.41 2.164-0.951 0.656-1.967 1.541-2.393 2.721z"></path>
<path fill="#ffc89f" style="fill: var(--color2, #ffc89f)" d="M22.032 33.311h-5.344v-8.557c0 0 0-1.18 0.295-1.738 0.229-0.459 0.689-0.984 1.443-1.475 1.672-1.049 6.459-1.803 6.459-1.803s0.885-1.541 1.115-2.033c0.754-1.705 1.508-1.869 2.033-1.639 0.459 0.197 0.754 0.885 0.426 1.705-0.23 0.623-0.689 1.639-0.689 1.639l-1.049 2.459c-1.213 1.672-2.852 2.328-4.557 3.475-0.131 0.066-0.164 6.393-0.131 7.967z"></path>
<path fill="#edf0f2" style="fill: var(--color3, #edf0f2)" opacity="0.5" d="M28.131 17.836c0 0 0.623-1.312-0.23-1.607-0.623-0.229-1.344 0.82-1.311 0.852 0 0.066 1.541 0.754 1.541 0.754z"></path>
</symbol>
<symbol id="icon-llc" viewBox="0 0 32 32">
<path fill="#edb485" style="fill: var(--color1, #edb485)" d="M24.031 14.492c-0.459 0.557-1.049 1.869-1.049 1.869l-1.311 1.541-2.229 1.148-1.836 0.295-1.967 4.787c1.377-0.852 7.279-3.934 7.279-3.934l1.836-3.148c0 0 0.852-1.902 0.754-2.59-0.033-0.328-0.721-0.885-1.475 0.033z"></path>
<path fill="#edb485" style="fill: var(--color1, #edb485)" d="M23.412 13.607c-0.066-0.361-0.754-0.885-1.508 0-0.459 0.557-1.049 1.869-1.049 1.869l-1.311 1.541-0.098 0.066 0.426-0.721c0 0 0.721-1.639 0.656-2.23-0.033-0.295-0.656-0.787-1.311 0-0.426 0.492-0.918 1.639-0.918 1.639l-1.148 1.344-1.934 1.016c0 0-0.164 0.033-0.426 0.098-1.344 0.82-3.672 0.885-4.82 1.049-0.721 0.066-1.508 0.164-2.229 0.361v5.41l7.967-0.82 0.984-2.23c1.279-0.82 4.197-2.59 4.197-2.59l1.836-3.148c-0.066-0.098 0.787-1.967 0.689-2.656z"></path>
<path fill="#edb485" style="fill: var(--color1, #edb485)" d="M15.276 18.066c0.426 0.066 0.852 0.131 1.246 0.197l0.328-0.393c0 0 0.82-1.344 0.82-1.869 0-0.262-0.459-0.754-1.148-0.164-0.426 0.361-1.902 2.098-1.902 2.098 0.262 0.066 0.492 0.098 0.656 0.131z"></path>
<path fill="#edb485" style="fill: var(--color1, #edb485)" d="M18.558 17.115c-0.623-0.23-1.148 0-1.771 0.23-0.885 0.295-1.77 0.59-2.721 0.721-1.705 0.197-3.836-0.623-5.574-0.361-2.951 0.492-4.721 2.754-6.459 5.082 0.033 0.066 0.066 0.131 0.098 0.164 0.164 0.262 0.361 0.459 0.59 0.59 0.131-0.066 0.262-0.066 0.393-0.033 1.016-0.852 1.869-1.967 2.918-2.787 1.148-0.918 2.721-1.18 4.164-1.311 1.607-0.131 3.18 0.23 4.787-0.066 0.721-0.131 1.41-0.393 2.098-0.623 0.656-0.229 1.279-0.295 1.705-0.852 0.197-0.229 0.066-0.656-0.229-0.754z"></path>
<path fill="#ffc89f" style="fill: var(--color2, #ffc89f)" d="M20.656 19.082c0.361 0.492 0.23 1.344-0.623 2-0.623 0.459-1.738 1.213-1.738 1.213l-2.59 1.836c-0.623 0-10.098 1.049-10.098 1.049l-3.18 1.869-2.426-4.59c0.033 0 1.344-0.688 1.541-0.82 1.049-0.721 4.164-2.918 6.033-2.951 2.328-0.033 7.639 2.197 7.639 2.197s1.836-1.016 2.393-1.377c1.771-1.246 2.656-0.984 3.049-0.426z"></path>
<path fill="#edf0f2" style="fill: var(--color3, #edf0f2)" opacity="0.5" d="M19.672 20.951c0 0 1.443-0.918 0.754-1.771-0.492-0.623-1.869 0-1.869 0.066 0 0.033 1.115 1.705 1.115 1.705z"></path>
<path fill="#d99e6e" style="fill: var(--color14, #d99e6e)" d="M12.52 13.279c0.393-0.328 0.984-1.213 0.984-1.213l1.148-0.918 1.738-0.525 1.344 0.033 2-3.148c-1.115 0.426-5.705 1.836-5.705 1.836l-1.705 2c0 0-0.852 1.246-0.852 1.738-0.033 0.262 0.393 0.754 1.049 0.197z"></path>
<path fill="#d99e6e" style="fill: var(--color14, #d99e6e)" d="M12.849 14c0 0.262 0.426 0.721 1.082 0.197 0.393-0.328 0.984-1.213 0.984-1.213l1.148-0.918 0.098-0.033-0.393 0.459c0 0-0.721 1.082-0.754 1.508 0 0.23 0.361 0.623 0.918 0.164 0.361-0.295 0.852-1.049 0.852-1.049l0.984-0.787 1.508-0.459c0 0 0.131 0 0.328 0 1.049-0.426 2.721-0.164 3.574-0.098 0.525 0.033 1.082 0.066 1.639 0.033l0.688-3.836-5.77-0.459-0.984 1.475c-1.016 0.393-3.311 1.279-3.311 1.279l-1.705 2c-0.033 0-0.852 1.213-0.885 1.738z"></path>
<path fill="#d99e6e" style="fill: var(--color14, #d99e6e)" d="M19.21 11.868c-0.295-0.098-0.59-0.197-0.852-0.295l-0.295 0.229c0 0-0.754 0.852-0.82 1.213-0.033 0.197 0.229 0.59 0.787 0.262 0.328-0.197 1.639-1.246 1.639-1.246-0.197-0.066-0.328-0.131-0.459-0.164z"></path>
<path fill="#d99e6e" style="fill: var(--color14, #d99e6e)" d="M16.748 12.13c0.426 0.262 0.82 0.131 1.279 0.066 0.689-0.098 1.344-0.197 2.033-0.164 1.246 0.066 2.656 0.951 3.902 0.984 2.164 0.033 3.705-1.344 5.279-2.787 0-0.033-0.033-0.098-0.033-0.131-0.098-0.197-0.197-0.361-0.328-0.492-0.098 0.033-0.197 0-0.295-0.033-0.852 0.492-1.574 1.148-2.426 1.607-0.951 0.492-2.098 0.492-3.115 0.393-1.148-0.098-2.23-0.557-3.41-0.59-0.525 0-1.049 0.098-1.574 0.164-0.492 0.066-0.951 0.066-1.344 0.361-0.197 0.197-0.164 0.492 0.033 0.623z"></path>
<path fill="#fbbf8d" style="fill: var(--color4, #fbbf8d)" d="M15.536 10.426c-0.197-0.393 0.033-0.984 0.721-1.344 0.492-0.262 1.377-0.656 1.377-0.656l2.066-0.951c0.459 0.066 7.311 0.557 7.311 0.557l2.721-0.82 1.475 3.279c-0.098 0-4.852 2.197-6.426 1.934-1.672-0.295-5.148-2.557-5.148-2.557s-1.443 0.492-1.869 0.656c-1.443 0.689-2.033 0.361-2.229-0.098z"></path>
<path fill="#d7e1e8" style="fill: var(--color15, #d7e1e8)" opacity="0.5" d="M16.456 9.245c0 0-1.148 0.492-0.754 1.148 0.262 0.492 1.311 0.229 1.344 0.197-0.033-0.033-0.59-1.344-0.59-1.344z"></path>
</symbol>
</defs>
</svg>
