<svg width="320" height="217" viewBox="0 0 320 217" fill="none" xmlns="http://www.w3.org/2000/svg">
<g clip-path="url(#clip0_874_4105)">
<path d="M306.415 216.994C299.796 216.994 263.299 217.007 217.538 216.994C205.729 216.994 193.286 216.994 180.594 216.982C178.359 216.982 176.111 216.982 173.864 216.982C164.774 216.982 155.584 216.97 146.42 216.97C143.948 216.97 141.49 216.97 139.031 216.97C124.142 216.957 109.414 216.945 95.3936 216.932C40.7912 216.87 24.7221 216.423 24.7221 216.398C24.6103 216.137 -25.4719 190.592 14.4275 137.139C34.4952 110.227 11.6334 80.9649 28.7456 55.3079C52.9485 18.9977 93.0218 40.2916 120.515 28.7807C125.371 26.7545 130.251 23.4852 135.132 18.4632C137.876 15.6414 140.894 13.1801 144.11 11.0421C144.607 10.7189 145.103 10.3957 145.612 10.0849C147.537 8.89154 149.537 7.82249 151.598 6.8529C152.976 6.2065 154.392 5.59739 155.833 5.05044C158.118 4.18029 160.452 3.42201 162.849 2.77561C166.239 1.86817 169.741 1.18448 173.305 0.736974C174.857 0.538082 176.422 0.376482 178.011 0.264606C208.734 -2.03508 243.293 10.8929 261.138 29.7876C264.727 33.5914 281.057 53.2817 268.192 80.331C260.058 97.4108 294.121 113.732 306.216 133.236C336.976 182.835 306.688 216.348 306.415 216.994Z" fill="#D9E3F6"/>
<path d="M100.813 64.2759C104.484 58.3672 114.736 63.642 114.736 63.642C114.736 63.642 118.729 77.1246 120.79 78.0378C122.851 78.951 119.631 65.8444 119.631 65.8444C123.903 66.6931 132.963 74.9653 132.963 74.9653C132.963 74.9653 128.347 87.9 130.569 88.276C132.791 88.652 134.069 76.609 134.069 76.609C137.729 79.0262 140.069 84.8489 140.069 84.8489C142.463 93.9054 130.73 96.516 130.73 96.516C130.73 96.516 129.227 101.039 130.473 107.109C130.473 107.109 130.816 108.269 130.966 110.095L129.872 109.762C129.872 109.44 129.861 109.128 129.829 108.817C129.829 108.817 129.829 108.817 129.829 108.806V108.795C129.807 108.602 129.764 108.333 129.721 108C129.582 107.248 129.507 106.69 129.464 106.303C129.077 103.939 128.444 100.824 127.639 99.9752C127.639 99.9752 127.81 99.8463 128.025 99.5455C127.907 99.6852 127.778 99.8248 127.639 99.9752C124.558 103.435 114.972 101.286 110.077 98.6431C105.171 96.0003 107.898 95.2053 111.43 93.6583C114.961 92.1113 120.672 94.5177 122.69 94.0988C124.719 93.6798 122.454 91.9824 118.89 91.1981C115.326 90.4139 112.535 93.379 106.749 92.2295C100.963 91.0692 99.8578 79.1873 99.8578 79.1873C103.379 81.5615 110.99 81.5078 111.666 80.2509C112.331 78.9939 101.983 76.0181 100.491 75.1372C98.9883 74.2455 97.142 70.1846 100.813 64.2759Z" fill="#DFEBFD"/>
<path d="M178.926 80.6806C176.296 76.4478 168.965 80.2186 168.965 80.2186C168.965 80.2186 166.109 89.866 164.639 90.5105C163.157 91.1659 165.465 81.7871 165.465 81.7871C162.406 82.3887 155.933 88.3189 155.933 88.3189C155.933 88.3189 159.239 97.5795 157.64 97.8481C156.051 98.1167 155.139 89.5007 155.139 89.5007C152.519 91.2303 150.845 95.3879 150.845 95.3879C149.127 101.866 157.532 103.735 157.532 103.735C157.532 103.735 158.606 106.969 157.715 111.32C157.715 111.32 157.468 112.147 157.361 113.458L158.144 113.221C158.144 112.996 158.155 112.77 158.176 112.545V112.534C158.198 112.394 158.219 112.201 158.252 111.965C158.348 111.427 158.413 111.03 158.434 110.751C158.713 109.064 159.164 106.829 159.733 106.217C159.733 106.217 159.615 106.12 159.454 105.905C159.54 106.002 159.636 106.11 159.733 106.217C161.933 108.688 168.793 107.152 172.303 105.261C175.813 103.37 173.86 102.801 171.337 101.694C168.814 100.588 164.724 102.306 163.275 102.006C161.826 101.705 163.447 100.491 166.002 99.9322C168.557 99.3736 170.543 101.49 174.686 100.663C178.83 99.8356 179.624 91.3378 179.624 91.3378C177.101 93.0352 171.659 93.0029 171.176 92.1005C170.693 91.1981 178.11 89.071 179.173 88.4371C180.225 87.8248 181.545 84.9134 178.926 80.6806Z" fill="#CDE0FB"/>
<path d="M144.107 187.134C144.107 187.134 140.382 180.828 135.723 178.679C135.723 178.679 136.367 192.806 133.727 192.763C131.097 192.721 134.145 176.96 134.145 176.96C134.145 176.96 122.23 169 117.142 168.774C117.142 168.774 123.175 183.342 120.63 182.643C118.086 181.956 111.109 167.087 111.109 167.087C111.109 167.087 98.3455 162.801 95.1359 170.278C91.937 177.755 94.7817 182.117 96.6602 182.88C98.5388 183.643 111.012 185.243 110.465 186.812C109.907 188.391 101.126 189.788 96.6388 187.661C96.6388 187.661 100.009 201.186 106.901 201.508C113.793 201.82 116.487 197.909 120.738 198.178C124.989 198.447 127.908 200.015 125.643 200.853C123.378 201.691 116.369 199.918 112.558 202.325C108.747 204.731 105.752 206.128 111.871 208.32C118 210.511 129.443 211.306 132.395 206.762C133.469 207.61 134.746 211.091 135.616 213.756C135.734 214.207 135.916 214.83 136.217 215.679C136.281 215.883 136.335 216.065 136.378 216.226H137.569C137.473 215.915 137.376 215.636 137.29 215.399C137.076 214.819 136.925 214.497 136.925 214.497C134.424 207.696 135.358 202.217 135.358 202.217C135.358 202.217 148.465 197.168 144.107 187.134ZM132.417 206.783C132.546 206.59 132.664 206.407 132.782 206.225C132.61 206.558 132.449 206.74 132.417 206.783Z" fill="#AFCDFB"/>
<path d="M153.102 162.446V216.259H148.551H148.379V162.446H153.102Z" fill="#94B0ED"/>
<path d="M101.777 162.446H155.579V131.539C155.579 116.67 143.535 104.616 128.678 104.616C113.821 104.616 101.777 116.67 101.777 131.539V162.446Z" fill="#AFCDFB"/>
<path d="M170.89 104.616H127.039V139.671H165.533L170.89 104.616Z" fill="#AFCDFB"/>
<path d="M143.984 162.446H197.786V131.539C197.786 116.67 185.742 104.616 170.885 104.616C156.029 104.616 143.984 116.67 143.984 131.539V162.446Z" fill="#628AD3"/>
<path d="M146.875 159.342H194.891V131.753C194.891 118.486 184.145 107.732 170.888 107.732C157.631 107.732 146.886 118.486 146.886 131.753V159.342H146.875Z" fill="#233862"/>
<path d="M240.514 162.446H143.174C142.315 162.446 141.617 161.748 141.617 160.889C141.617 160.029 142.315 159.331 143.174 159.331H240.514C241.373 159.331 242.071 160.029 242.071 160.889C242.071 161.748 241.373 162.446 240.514 162.446Z" fill="#628AD3"/>
<path d="M139.714 165.304H162.514C163.319 165.304 163.974 164.649 163.974 163.843V162.382H138.168V163.757C138.168 164.606 138.855 165.304 139.714 165.304Z" fill="#94B0ED"/>
<path d="M264.71 108.752C264.71 108.752 266.771 112.147 262.896 114.285C262.896 114.285 265.869 115.359 266.9 114.951C266.9 114.951 266.642 115.22 266.449 115.316C266.449 115.316 269.24 116.208 270.635 115.725C272.031 115.241 275.026 101.705 266.782 100.985C266.782 100.985 260.277 98.6538 258.902 105.916C257.528 113.178 255.027 112.48 255.027 112.48C255.027 112.48 255.639 112.996 255.972 113.093C255.972 113.093 256.509 113.06 256.68 112.835C256.68 112.835 256.477 113.2 256.315 113.297C256.315 113.297 258.956 114.296 260.566 113.737C262.177 113.146 264.678 110.321 264.71 108.752Z" fill="#163560"/>
<path d="M256.43 215.625H266.95C266.95 215.625 267.196 214.024 266.649 212.799C266.123 211.628 265.307 210.909 265.232 210.017C264.566 210.705 263.74 211.145 262.216 210.941C262.033 211.242 261.013 212.864 260.391 213.304C259.704 213.809 256.634 213.627 256.43 215.625Z" fill="#233862"/>
<path d="M265.117 211.607C265.117 211.607 264.216 211.897 263.282 211.983C261.629 212.133 261.382 211.639 261.382 211.639C261.382 211.639 259.739 196.964 254.404 168.925C253.631 164.874 253.331 162.629 253.052 159.03C252.966 157.956 252.891 156.753 252.794 155.345C252.558 151.564 253.127 145.204 255.961 143.539C257.249 142.776 259.009 142.991 261.36 144.849C261.543 145 261.736 145.15 261.929 145.322C268.832 151.306 266.008 168.473 266.287 176.552C266.33 177.895 266.47 178.98 266.738 179.721C267.093 180.688 267.855 182.02 268.037 183.277C269.497 193.741 265.117 211.607 265.117 211.607Z" fill="#2B478B"/>
<path d="M266.295 176.541L253.06 159.03C252.974 157.956 252.899 156.753 252.802 155.345C252.566 151.564 253.135 145.204 255.969 143.539L261.368 144.849C261.551 145 261.744 145.15 261.937 145.322C268.85 151.295 266.016 168.463 266.295 176.541Z" fill="#233862"/>
<path d="M303.73 193.462L299.35 183.89C299.35 183.89 297.783 184.33 296.914 185.34C296.076 186.307 295.464 186.135 293.543 184.803C294.262 185.92 294.359 186.575 294.81 188.047C295.164 188.09 297.171 190.035 299.222 190.572C300.037 190.776 301.83 194.106 303.73 193.462Z" fill="#233862"/>
<path d="M257.817 147.728C257.817 147.728 267.242 180.527 270.699 182.633C274.155 184.738 292.318 187.65 296 189.229C296 189.229 296.451 188.584 296.182 187.209C296.129 186.909 295.603 185.802 295.603 185.802C295.603 185.802 284.321 177.315 276.903 176.466C275.057 176.251 280.65 148.104 268.208 146.976C256.851 145.956 257.817 147.728 257.817 147.728Z" fill="#2B478B"/>
<path d="M243.851 93.9591C243.851 93.9591 244.066 92.9063 244.302 92.1005C244.409 91.746 243.679 89.4147 243.164 89.1247C242.659 88.8346 241.339 90.4031 241.715 91.6171C241.908 92.2402 242.219 94.2492 242.219 94.2492L243.851 93.9591Z" fill="#FFB27D"/>
<path d="M243.852 93.9591C243.852 93.9591 244.131 93.3467 244.378 93.25C244.624 93.1534 244.893 92.1542 245.075 91.7567C245.075 91.7567 244.904 91.4989 244.592 91.8319C244.399 92.0361 243.98 92.6269 243.98 92.6269L243.852 93.9591Z" fill="#FFB27D"/>
<path d="M287.38 98.063C287.445 98.1919 287.531 98.439 287.617 98.6538C287.617 98.5894 287.617 98.5356 287.617 98.4712C287.617 98.0307 289.28 95.6028 289.968 95.4524C290.655 95.302 291.621 97.5688 290.762 98.8257C290.322 99.4703 289.001 101.769 289.001 101.769L287.531 100.878C287.531 100.878 287.52 100.255 287.123 99.7604C286.919 99.5025 286.919 98.3208 286.844 97.7944C286.844 97.8159 287.144 97.5795 287.38 98.063Z" fill="#FFB27D"/>
<path d="M259.707 117.433C259.686 117.444 261.596 118.829 263.228 118.636C264.752 118.453 265.998 116.692 265.976 116.681C265.375 116.466 265.321 115.585 265.88 111.911L265.59 111.922L260.716 112.158C260.716 112.158 260.598 113.662 260.394 115.069C260.233 116.24 259.997 117.347 259.707 117.433Z" fill="#FFB27D"/>
<path d="M260.728 112.147C260.728 112.147 260.61 113.651 260.406 115.059C263.068 115.381 264.818 113.168 265.591 111.911L260.728 112.147Z" fill="#ED975D"/>
<path d="M266.157 111.481C266.157 111.481 267.874 109.494 268.486 107.667C268.926 106.367 268.98 101.297 263.892 101.275C263.892 101.275 262.421 101.2 260.929 101.92C259.738 102.489 257.945 103.832 259.04 108.43L259.276 109.956L266.157 111.481Z" fill="#163560"/>
<path d="M253.598 146.471C253.598 146.471 258.375 149.49 266.329 147.546C266.425 147.524 270.848 146.815 270.848 146.815C270.741 146.514 266.082 138.812 265.975 138.532C264.568 134.89 267.832 117.487 265.674 116.509C265.127 117.111 263.549 117.519 262.207 117.401C260.661 117.261 260.135 116.595 260.264 115.875C258.546 116.692 257.226 117.444 257.226 117.444C255.669 119.796 253.598 146.471 253.598 146.471Z" fill="#FFB27D"/>
<path d="M259.642 113.35C259.642 113.35 265.889 114.382 266.469 110.482C267.049 106.582 268.251 104.079 264.29 103.252C260.329 102.425 259.331 103.8 258.815 105.057C258.311 106.314 258.032 112.974 259.642 113.35Z" fill="#FFB27D"/>
<path d="M261.457 102.736C261.457 102.736 262.488 107.571 265.021 108.645C267.554 109.719 268.799 109.182 268.799 109.182C268.799 109.182 267.018 107.281 267.018 104.412C267.018 104.401 263.078 100.749 261.457 102.736Z" fill="#163560"/>
<path d="M261.82 103.177C261.82 103.177 260.392 104.004 259.93 104.96C259.469 105.905 259.029 107.936 258.438 107.775C258.438 107.775 257.612 104.466 259.319 102.919C261.143 101.275 261.82 103.177 261.82 103.177Z" fill="#163560"/>
<path d="M289.27 101.802C289.27 101.802 285.244 114.059 284.171 115.95C283.527 117.089 276.27 121.612 272.052 124.598C272.009 124.631 271.955 124.695 271.891 124.792C271.891 124.792 271.891 124.792 271.891 124.803C270.839 126.425 267.575 136.502 268.348 138.307C271.633 145.902 273.887 148.846 274.703 150.973C275.111 152.036 274.563 153.229 273.49 153.605C272.137 154.088 270.152 154.69 267.801 155.098C267.35 155.173 266.888 155.249 266.416 155.302C259.943 156.13 255.563 154.604 253.331 153.476C252.279 152.95 251.645 151.843 251.71 150.661C251.838 148.255 253.041 145.881 253.588 140.101C253.996 135.718 250.218 129.035 250.379 126.704C250.443 125.78 251.162 124.674 251.559 123.965C252.257 122.697 252.633 121.558 252.171 120.914C249.09 116.681 242.435 110.847 242.167 109.386C241.77 107.248 241.952 94.0128 241.952 94.0128C242.21 93.9269 242.585 93.712 243.068 93.669C243.508 93.6261 244.045 93.7657 244.045 93.7657C244.045 93.7657 245.806 104.734 245.935 105.315C246.063 105.895 253.492 114.274 255.499 114.242C257.302 114.21 259.857 115.606 260.254 115.875C260.254 115.875 258.633 118.754 258.226 122.643C257.946 125.361 259.761 124.158 260.898 122.289C262.444 119.764 265.546 116.176 265.546 116.176C265.546 116.176 268.08 115.521 269.958 116.197C271.837 116.885 281.584 111.374 281.895 110.869C282.206 110.364 287.423 100.631 287.423 100.631C287.423 100.631 287.853 100.383 288.551 100.738C289.259 101.103 289.27 101.802 289.27 101.802Z" fill="#F99746"/>
<path d="M261.454 111.234C261.454 111.234 261.185 111.771 260.831 111.782C260.477 111.793 259.554 111.707 259.5 111.61C259.435 111.513 259.285 110.955 259.285 110.955C259.285 110.955 260.788 110.89 261.454 111.234Z" fill="white"/>
<path d="M273.491 153.605C272.138 154.088 270.153 154.69 267.802 155.098C265.569 152.015 261.79 148.137 262.757 141.003C263.766 133.633 271.001 125.866 271.87 124.803C270.818 126.425 267.555 136.502 268.328 138.307C271.612 145.902 273.867 148.846 274.683 150.973C275.112 152.036 274.564 153.218 273.491 153.605Z" fill="#ED7D2B"/>
<path d="M251.568 123.965C252.266 122.697 252.642 121.558 252.18 120.914C249.1 116.681 242.444 110.847 242.176 109.386C242.831 110.965 250.892 115.703 253.157 117.734C255.401 119.743 251.665 123.857 251.568 123.965Z" fill="#ED7D2B"/>
<path d="M190.155 80.541C190.155 80.541 189.833 77.0065 193.772 77.0065C193.772 77.0065 192.581 77.3288 191.958 77.9841C191.958 77.9841 194.47 76.5123 197.207 78.7791C199.945 81.0459 198.238 86.7397 199.075 87.814C199.902 88.8991 203.144 89.114 202.746 92.6055C202.349 96.097 192.463 100.469 193.107 103.359C193.107 103.359 189.232 97.6655 192.001 95.0656C192.001 95.0656 190.649 96.3333 190.509 97.8481C190.509 97.8481 190.144 94.8938 192.023 93.9484C193.686 93.1104 195.05 90.0594 194.899 89.5115C194.76 88.9743 190.155 80.541 190.155 80.541Z" fill="#2C3A64"/>
<path d="M195.716 95.3665C195.716 95.3665 190.113 109.526 188.9 108.999C187.687 108.473 180.57 106.217 180.57 106.217L180.098 107.947C180.098 107.947 186.871 113.168 190.36 113.404C193.849 113.63 198.572 103.349 198.572 103.349L195.716 95.3665Z" fill="#FFB27D"/>
<path d="M195.78 105.519L201.309 124.856C201.395 125.146 201.416 125.426 201.395 125.705C201.33 126.726 200.632 127.628 199.602 127.929L166.046 137.533C165.004 137.834 163.931 137.415 163.341 136.588C163.18 136.362 163.051 136.104 162.976 135.825L157.447 116.498C157.072 115.177 157.834 113.802 159.154 113.426L192.71 103.821C194.02 103.445 195.394 104.208 195.78 105.519Z" fill="#ED8537"/>
<path d="M201.394 125.705C201.329 126.726 200.632 127.628 199.601 127.929L166.045 137.533C165.004 137.834 163.93 137.415 163.34 136.588L180.429 121.01L201.394 125.705Z" fill="#DD6D22"/>
<path d="M195.781 105.519L180.764 124.19L157.738 117.497L157.459 116.509C157.083 115.187 157.846 113.812 159.166 113.436L192.722 103.832C194.021 103.445 195.395 104.208 195.781 105.519Z" fill="#F99746"/>
<path d="M183.061 106.572C183.061 106.572 179.991 105.272 179.561 106.915C179.336 107.786 178.81 108.935 179.755 108.849C180.699 108.763 181.655 108.129 181.762 107.614C181.869 107.087 183.061 106.572 183.061 106.572Z" fill="#FFB27D"/>
<path d="M221.705 118.905C221.684 118.948 221.651 119.001 221.619 119.044C220.975 120.162 219.494 122.912 217.873 125.92C217.1 127.349 216.295 128.831 215.533 130.228C214.212 132.634 213.021 134.783 212.312 135.922C211.604 137.071 211.078 137.888 210.863 138.21C210.799 138.307 210.788 138.425 210.799 138.543C210.874 139.564 210.853 140.573 210.756 141.562C209.779 151.338 203.188 156.57 203.188 156.57L201.234 156.86C201.234 156.86 204.004 146.59 204.82 140.778C204.959 139.789 205.013 138.994 204.97 138.479C204.83 136.964 205.099 134.74 205.603 132.194C206.505 127.66 208.169 122.095 209.607 117.648C209.704 117.368 212.452 107.399 212.452 107.399C214.76 109.418 223.197 110.256 223.197 110.256C223.197 110.256 224.614 113.716 221.705 118.905Z" fill="#2B478B"/>
<path d="M197.121 159.331H205.29C205.29 159.331 205.483 158.085 205.054 157.139C204.646 156.237 204.066 156.205 204.979 154.776C204.464 155.313 202.789 155.528 201.608 155.377C201.469 155.614 200.674 157.193 200.191 157.537C199.665 157.924 197.282 157.784 197.121 159.331Z" fill="#233862"/>
<path d="M221.703 118.905C221.681 118.948 221.649 119.001 221.617 119.044C220.973 120.162 217.484 126.607 215.863 129.605C217.753 121.838 216.432 114.07 216.432 114.07L221.703 118.905Z" fill="#233862"/>
<path d="M191.272 80.0468C191.219 79.8319 195.942 82.1847 196.178 82.4532C198.389 84.9134 197.756 88.1149 196.489 88.1471C195.673 88.1686 195.834 89.5222 195.834 89.5222L186.785 85.6869C186.785 85.6869 187.88 79.327 191.272 80.0468Z" fill="#2C3A64"/>
<path d="M194.319 95.6565C194.319 95.6565 193.117 96.9027 193.117 100.641C193.117 100.641 194.781 103.263 199.086 103.929C199.075 103.939 195.371 95.6565 194.319 95.6565Z" fill="#F9DDBF"/>
<path d="M215.325 110.847L215.293 109.322C218.342 109.708 225.791 105.68 225.791 105.68C225.791 105.68 228.979 107.796 229.409 113.855C229.624 116.81 230.965 129.315 231.116 133.043C231.169 134.396 231.191 135.363 231.191 135.75C231.191 135.868 231.244 135.975 231.32 136.061C231.953 136.867 232.5 137.716 232.973 138.597C237.621 147.245 235.195 159.009 235.195 159.009L234.111 158.729C234.111 158.729 230.182 146.536 227.616 141.272C227.176 140.38 226.779 139.682 226.457 139.284C225.491 138.113 224.471 136.115 223.473 133.719C221.583 129.175 215.325 110.847 215.325 110.847Z" fill="#2B478B"/>
<path d="M228.715 159.331H236.884C236.884 159.331 237.077 158.085 236.648 157.139C236.24 156.237 235.596 155.818 235.757 154.722C235.241 155.259 234.393 155.861 233.213 155.7C233.073 155.936 232.279 157.193 231.796 157.537C231.259 157.924 228.876 157.784 228.715 159.331Z" fill="#233862"/>
<path d="M199.637 105.691C200.732 105.873 199.454 106.754 200.968 106.915C203.115 107.152 205.337 107.313 206.496 107.775C206.915 107.947 207.205 108.151 207.291 108.419C207.795 109.934 210.983 112.545 210.983 112.545C225.217 111.9 225.808 105.669 225.808 105.669C216.576 96.6879 208.074 91.4022 201.591 90.6932C200.485 90.575 199.079 91.2733 198.08 91.7245C195.805 92.7344 194.312 95.6565 194.312 95.6565C194.312 95.6565 195.461 104.982 199.637 105.691Z" fill="#F9DDBF"/>
<path d="M200.965 106.915C203.112 107.152 205.334 107.313 206.493 107.775C206.965 100.674 203.616 95.3235 203.616 95.3235C203.616 95.3235 201.437 104.23 200.965 106.915Z" fill="#F2CCAA"/>
<path d="M199.107 94.131C199.107 94.131 204.507 93.8302 205.473 97.2358C206.428 100.631 203.669 114.188 203.079 115.585C201.995 118.131 196.724 125.404 196.724 125.404L194.781 124.813C194.781 124.813 198.302 113.705 199.086 112.609C200.31 110.869 197.486 95.6028 199.107 94.131Z" fill="#FFB27D"/>
<path d="M194.783 124.803C194.783 124.803 194.686 125.662 194.321 126.113C193.956 126.554 192.904 127.628 192.883 128.262C192.883 128.262 192.936 128.541 193.162 128.487C193.387 128.434 194.182 127.66 194.579 127.714C194.579 127.714 194.364 128.971 194.149 129.336C193.935 129.691 194.107 131.195 194.235 131.506C194.364 131.818 195.942 129.863 196.586 128.992C197.23 128.122 196.597 124.577 196.597 124.577L194.783 124.803Z" fill="#FFB27D"/>
<path d="M206.537 101.769C206.526 101.845 201.427 102.704 198.229 101.093C198.229 101.093 195.566 92.7344 199.377 93.1426C203.188 93.5401 205.442 94.7433 205.539 96.5696C205.635 98.3852 206.537 101.769 206.537 101.769Z" fill="#F9DDBF"/>
<path d="M198.076 91.7246C198.076 91.7246 196.573 97.3325 194.308 95.6565C194.372 95.388 193.975 94.593 193.514 93.798C192.923 92.7774 192.215 91.7353 192.215 91.7353L195.274 89.0495L195.457 88.8884C196.391 90.5321 197.314 91.1659 198.076 91.7246Z" fill="#FFB27D"/>
<path d="M192.215 91.7353C192.215 91.7353 192.923 92.7774 193.514 93.798C195.414 92.627 195.414 90.2742 195.274 89.0495L192.215 91.7353Z" fill="#ED985F"/>
<path d="M192.133 93.0781C192.133 93.0781 196.749 90.5105 195.106 87.6529C193.464 84.7952 192.949 82.5499 189.932 84.0647C186.916 85.5902 186.98 86.9975 187.291 88.0826C187.613 89.1784 190.898 93.669 192.133 93.0781Z" fill="#FFB27D"/>
<path d="M186.516 86.4282C186.73 85.1605 187.374 85.0423 187.815 85.1282C189.521 82.3028 192.302 83.4093 192.302 83.4093C193.794 85.2786 195.941 85.6009 195.941 85.6009C195.941 85.6009 195.404 86.6 193.193 87.2124C192.516 87.4058 191.754 87.2876 191.013 87.0405C192.549 87.9 194.148 88.2223 194.148 88.2223C191.239 88.4908 188.469 85.8265 188.19 85.5472C188.051 85.9555 187.825 86.8257 187.965 87.4595C188.158 88.3189 188.92 89.866 188.448 90.0701C188.459 90.0593 186.194 88.3297 186.516 86.4282Z" fill="#2C3A64"/>
<path d="M130.031 128.026C130.32 128.359 130.353 128.724 130.213 129.121C129.945 129.852 129.086 130.658 128.077 131.474C127.948 131.581 127.83 131.678 127.733 131.764C127.712 131.786 127.68 131.807 127.658 131.829C127.637 131.85 127.615 131.861 127.594 131.882C126.649 132.752 127.003 132.946 125.318 134.708C123.386 136.717 122.066 136.749 121.69 136.566C121.368 136.405 122.023 135.342 122.742 134.149C122.774 134.095 122.806 134.031 122.849 133.977C122.946 133.816 123.042 133.655 123.139 133.494C123.976 132.054 123.762 131.377 123.568 129.239C123.407 127.499 120.863 119.506 120.863 119.506L124.556 118.872C124.556 118.872 125.672 125.232 126.896 126.21C127.551 126.736 128.281 126.736 128.914 127.123C128.957 127.155 129 127.177 129.043 127.209C129.376 127.456 129.741 127.703 130.031 128.026Z" fill="#FFB27D"/>
<path d="M130.033 128.026C130.323 128.359 130.355 128.724 130.216 129.121C129.894 129.852 129.046 130.658 128.069 131.463C127.94 131.571 127.833 131.667 127.725 131.753C127.704 131.775 127.672 131.796 127.65 131.818C127.629 131.839 127.607 131.85 127.586 131.872C126.641 132.742 126.996 132.935 125.31 134.697C123.378 136.706 122.058 136.738 121.682 136.556C121.36 136.394 122.015 135.331 122.734 134.138C123.11 133.999 124.849 133.29 126.169 131.603C127.328 130.12 128.101 128.219 128.896 127.112C128.938 127.145 128.981 127.166 129.024 127.198C129.379 127.456 129.744 127.703 130.033 128.026Z" fill="#233862"/>
<path d="M100.244 125.716C100.019 126.855 98.3872 126.661 96.5731 126.221C94.7589 125.78 95.1883 126.307 92.6013 126.017C90.0143 125.727 89.2306 124.77 89.1555 124.384C89.0804 124.04 90.3578 123.922 91.7318 123.761C91.9035 123.739 92.0753 123.718 92.247 123.696C93.7928 123.503 94.9307 122.504 96.3262 121.687C97.6572 120.914 99.6431 117.744 99.6431 117.744L103.186 118.024C103.186 118.024 101.328 120.849 100.609 122.085C100.191 122.804 100.212 123.761 100.266 124.502C100.298 124.91 100.33 125.318 100.244 125.716Z" fill="#FFB27D"/>
<path d="M96.5731 126.231C94.7589 125.791 95.1883 126.317 92.6013 126.027C90.0143 125.737 89.2306 124.781 89.1555 124.394C89.0804 124.051 90.3578 123.932 91.7318 123.771L91.7425 123.793C91.7425 123.793 93.2883 124.889 95.4459 124.942C97.1957 124.985 99.0527 124.48 100.266 124.502C100.298 124.899 100.319 125.318 100.234 125.716C100.019 126.865 98.3979 126.672 96.5731 126.231Z" fill="#233862"/>
<path d="M113.824 103.037L117.141 111.954L121.467 123.599C121.467 123.599 122.637 123.718 123.764 123.385C124.795 123.084 125.986 122.299 125.986 122.299C125.986 122.299 124.784 109.794 122.541 102.607C121.972 100.76 121.328 99.277 120.608 98.439C117.141 94.3459 113.824 103.037 113.824 103.037Z" fill="#233862"/>
<path d="M117.195 88.8669C119.363 88.1686 125.557 89.071 131.772 90.285L133.071 88.1364L146.5 87.0836C146.5 87.0836 150.934 96.9243 148.508 103.187C148.153 104.111 147.445 104.702 146.232 104.724H146.039C146.039 104.724 138.041 104.724 135.444 104.724C128.767 104.724 121.306 100.126 120.34 99.9323C118.762 99.6208 118.129 102.779 116.551 106.099C114.973 109.418 101.705 120.795 101.705 120.795C101.705 120.795 99.6655 120.817 98.8282 120.495C97.9265 120.151 97.5938 119.71 97.5938 119.71C97.5938 119.71 112.3 90.4569 117.195 88.8669Z" fill="#2B478B"/>
<path d="M129.336 69.4541C133.576 72.9026 143.774 78.8758 143.838 78.8543C143.838 78.8543 147.112 80.8095 149.334 79.8534C153.048 78.2527 155.904 72.634 150.762 66.4245C148.196 63.3305 146.071 62.3099 146.564 58.1953C147.101 53.7369 145.094 48.129 139.963 47.8926C139.533 47.8711 136.936 47.5274 135.079 48.1075C130.366 49.5793 122.465 67.1658 129.336 69.4541Z" fill="#A9453D"/>
<path d="M143.227 64.2436C143.248 64.2436 142.196 66.5427 140.661 67.1013C139.029 67.6922 136.711 66.7253 136.732 66.7146C137.011 66.5534 137.205 65.5113 137.097 64.2544C137.086 64.1899 137.086 64.1362 137.076 64.0717C136.936 62.6644 136.528 61.1174 136.496 61.0207L141.466 59.6026L141.756 59.5167C142.089 63.4379 142.55 64.1577 143.227 64.2436Z" fill="#FFB27D"/>
<path d="M141.474 59.5919C140.991 61.0422 139.767 63.6528 137.084 64.0718C136.944 62.6644 136.536 61.1174 136.504 61.0208L141.474 59.5919Z" fill="#ED975D"/>
<path d="M135.678 62.514C135.678 62.514 142.376 62.0628 142.033 57.8944C141.689 53.7261 142.323 50.8577 138.029 50.9651C133.735 51.0726 133.037 52.7378 132.812 54.1558C132.597 55.5739 133.928 62.5247 135.678 62.514Z" fill="#FFB27D"/>
<path d="M134.477 50.89C134.477 50.89 136.14 55.7781 140.091 56.3475C142.978 56.7665 144.116 55.9822 144.116 55.9822C144.116 55.9822 142.506 54.4567 141.636 52.0932C141.379 51.3949 140.767 50.89 140.037 50.7825C137.997 50.471 135.346 49.1066 134.477 50.89Z" fill="#A9453D"/>
<path d="M135.892 51.7601C135.892 51.7601 134.7 52.2436 133.863 54.0269C133.412 55.0046 133.08 57.3251 133.359 58.292C133.359 58.292 131.437 53.8336 132.822 51.8246C134.314 49.6867 135.892 51.7601 135.892 51.7601Z" fill="#A9453D"/>
<path d="M148.807 79.6385C148.689 80.1434 148.582 80.6161 148.507 81.0459C148.367 81.7442 148.281 82.335 148.206 82.8615C148.002 84.5052 148.067 85.4828 147.927 86.5463C147.852 87.1372 147.712 87.7711 147.423 88.5553C147.143 89.3181 139.887 90.0056 135.754 89.7263C134.444 89.6404 133.446 89.4577 133.092 89.1462C131.621 87.8677 131.761 90.6824 131.568 77.1998C131.471 70.625 137.139 64.77 137.139 64.77C137.139 64.77 137.59 67.574 143.215 64.2329C143.419 64.1147 145.63 67.4021 147.766 71.4415C150.117 75.9107 149.473 76.8561 148.807 79.6385Z" fill="#AEC3FF"/>
<path d="M117.141 111.965L121.467 123.61C121.467 123.61 122.637 123.728 123.764 123.395C124.794 123.094 125.986 122.31 125.986 122.31C125.986 122.31 124.784 109.805 122.54 102.618L117.141 111.965Z" fill="#2B478B"/>
<path d="M137.136 64.7593C137.136 64.7593 131.35 65.737 130.663 68.2401C129.987 70.7325 125.285 84.6878 125.285 84.6878C125.285 84.6878 128.924 85.934 130.287 84.5696C131.651 83.2053 135.021 71.9465 135.021 71.9465L137.136 64.7593Z" fill="#AEC3FF"/>
<path d="M136.808 59.839C136.808 59.839 136.647 60.5587 135.917 60.6877C135.187 60.8058 134.972 60.7306 134.811 60.6017C134.65 60.4728 134.457 60.1935 134.457 60.1935C134.457 60.1935 135.616 59.7423 136.808 59.839Z" fill="white"/>
<path d="M148.204 82.8507C148 84.4944 148.064 85.4721 147.925 86.5356C142.665 86.5571 135.645 82.4747 135.645 82.4747L148.204 82.8507Z" fill="#94B0ED"/>
<path d="M135.637 79.0262C135.637 79.0262 143.827 78.7791 145.201 74.1273C146.715 69.0136 148.411 76.233 148.411 76.233L147.509 80.8418H138.524L135.637 79.0262Z" fill="#94B0ED"/>
<path d="M137.301 86.7505L124.602 86.8687L118.344 72.1721L131.053 72.0539L137.301 86.7505Z" fill="#F9DDBF"/>
<path d="M135.647 80.1113L134.713 78.9618C134.713 78.9618 134.08 78.4031 133.629 78.3064C133.167 78.2098 132.201 77.6511 132.115 77.8123C132.019 77.9734 132.856 79.0907 132.856 79.0907L132.899 79.1014C131.943 79.8212 129.517 79.1874 129.217 79.4774C128.852 79.832 129.711 80.6055 130.183 81.0352C130.645 81.4649 131.965 82.1955 132.995 81.8732C133.747 81.6368 134.938 81.4005 134.938 81.4005L135.647 80.1113Z" fill="#FFB27D"/>
<path d="M143.214 64.2329C143.214 64.2329 148.528 64.5767 149.859 66.6609C151.19 68.7343 152.833 79.2733 152.146 82.8937C151.459 86.5141 134.434 82.2061 134.434 82.2061L134.981 79.0692C134.981 79.0692 144.803 79.1229 145.361 77.8444C146.102 76.1255 143.214 64.2329 143.214 64.2329Z" fill="#AEC3FF"/>
<path d="M119.296 74.7504C119.296 74.7504 120.09 73.8373 120.605 74.2777C121.11 74.7182 120.477 76.8561 119.994 76.6412C119.511 76.4263 119.017 75.019 119.296 74.7504Z" fill="#FFB27D"/>
<path d="M59.6249 126.65C59.3458 125.802 69.1143 124.448 68.0193 132.248C68.0193 132.248 85.5488 134.6 78.7646 123.535C76.4137 119.7 77.1544 116.96 77.6589 114.382C78.1635 111.803 77.4765 103.961 70.8962 103.682C70.8962 103.682 69.3182 102.725 67.0318 103.477C61.8148 105.207 47.2158 127.607 59.6249 126.65Z" fill="#163560"/>
<path d="M73.8516 137.179C73.8516 137.179 74.4742 138.414 75.612 139.843C76.9753 141.562 84.1567 137.49 83.5448 137.179C82.9222 136.867 79.3154 126.468 78.4567 125.157C77.5979 123.846 74.6674 123.17 74.6674 123.17L73.8516 137.179Z" fill="#F9DDBF"/>
<path d="M49.622 207.32C49.622 207.32 47.6361 209.125 48.0225 210.414C48.409 211.704 50.2016 212.552 50.4378 214.132C50.6847 215.7 51.6508 216.56 52.5203 216.56C53.3898 216.56 56.6638 216.56 56.6638 216.56C56.6638 216.56 57.3079 215.453 55.7621 215.12C54.2164 214.787 53.6367 212.939 53.7333 211.231C53.8299 209.512 53.583 207.235 53.583 207.235L50.2983 206.472L49.622 207.32Z" fill="#233862"/>
<path d="M66.3893 208.094C66.3893 208.094 65.6808 215.765 66.5503 216.184L77.682 216.162C77.682 216.162 77.682 214.873 75.8893 214.594C74.0967 214.303 70.9622 213.261 70.4255 210.93C69.8995 208.588 66.3893 208.094 66.3893 208.094Z" fill="#233862"/>
<path d="M58.4567 153.089C60.7431 147.943 62.1494 146.471 61.881 144.881C61.677 143.689 62.4821 122.74 62.4821 122.74C62.7505 122.654 63.298 122.579 63.5985 122.514C64.5432 122.31 65.316 121.644 65.6381 120.742C66.0245 119.646 66.3358 118.034 66.3358 116.015L66.6257 116.068L71.5635 117.046C71.5635 117.046 71.4562 118.604 71.4455 120.065C71.4455 120.076 71.4455 120.086 71.4455 120.097C71.4347 121.365 72.272 122.493 73.4957 122.847C74.1184 123.03 74.6658 123.18 74.6658 123.18C74.6658 123.18 76.4799 128.359 76.8235 133.676C77.167 138.994 73.528 141.304 76.8557 151.929C80.237 162.779 57.19 155.936 58.4567 153.089Z" fill="#FFB27D"/>
<path d="M71.5629 117.046C71.5629 117.046 71.4555 118.604 71.4448 120.065C68.686 119.99 67.2261 117.465 66.625 116.068L71.5629 117.046Z" fill="#E8945B"/>
<path d="M71.8661 119.109C71.8661 119.109 65.3932 118.185 66.0373 114.167C66.6706 110.149 66.2627 107.313 70.4277 107.732C74.5819 108.151 75.1401 109.816 75.2582 111.202C75.3655 112.598 73.5622 119.238 71.8661 119.109Z" fill="#FFB27D"/>
<path d="M73.3655 108.097C73.3655 108.097 70.8536 112.534 68.0304 112.802C65.2073 113.071 64.1445 112.158 64.1445 112.158C64.1445 112.158 66.4847 110.836 67.3756 108.022C67.3864 108.011 72.3994 105.637 73.3655 108.097Z" fill="#163560"/>
<path d="M72.875 108.409C72.875 108.409 74.1095 109.107 74.4959 110.149C74.8716 111.17 75.1292 112.48 74.775 113.984C74.775 113.984 76.6213 110.987 75.4083 108.935C74.1309 106.765 72.875 108.409 72.875 108.409Z" fill="#163560"/>
<path d="M57.8333 132.011C57.8333 132.011 57.6723 134.353 57.8333 137.157C57.9406 139.016 59.8299 141.508 60.0875 142.131C60.7531 143.678 61.5152 143.925 61.5152 143.925L67.3548 145.354L69.4051 145.859L75.8888 143.925C75.8888 143.925 78.8407 135.675 77.6599 131.034C76.4791 126.403 74.665 123.18 74.665 123.18C74.665 123.18 69.3729 128.359 62.4921 122.74L57.8333 132.011Z" fill="#F9DDBF"/>
<path d="M57.2773 137.222C57.3847 139.08 59.8214 141.508 60.0898 142.131C60.7553 143.678 61.5175 143.925 61.5175 143.925L67.3571 145.354L68.9136 143.152C68.9136 143.152 59.4565 140.52 61.2384 132.172L57.2773 137.222Z" fill="#F2CCAA"/>
<path d="M75.4823 145.182C75.4823 145.182 78.6919 155.184 78.8959 158.579C79.0999 161.984 72.7665 206.934 72.5089 208.502C72.2727 209.985 70.4371 210.919 70.4371 210.919C70.4371 210.919 69.5891 211.414 68.3868 211.081C66.7122 210.608 66.1862 210.038 66.1862 210.038C66.1862 210.038 63.6851 177.981 65.2308 166.529C66.7766 155.077 66.7981 145.172 66.7981 145.172H75.4823V145.182Z" fill="#ED7D2B"/>
<path d="M61.8794 144.881C61.8794 144.881 56.9845 151.456 56.5229 155.904C56.0613 160.352 55.8037 175.961 54.8376 180.291C53.8607 184.62 50.2969 192.957 50.2969 206.472C50.2969 206.472 50.6726 207.245 51.8104 207.654C52.1754 207.782 52.6692 207.911 53.1415 208.019C54.0862 208.234 55.0523 207.772 55.4924 206.901C57.9077 202.035 65.6043 186.339 65.9907 183.084C66.2698 180.774 68.6959 165.519 73.9987 156.559C75.2761 154.411 73.2151 145.859 73.2151 145.859L61.8794 144.881Z" fill="#F99746"/>
<path d="M70.9805 116.52C70.9805 116.52 71.0127 117.014 72.2042 117.121C72.2042 117.121 73.2025 117.218 73.2562 116.691C73.2562 116.691 72.3545 116.176 70.9805 116.52Z" fill="white"/>
<path d="M75.9955 143.635C75.9955 143.635 74.7074 144.656 72.1526 144.71C69.0933 144.774 61.5254 143.925 61.5254 143.925C61.5254 143.925 61.1926 144.871 61.2034 145.859C61.2034 145.859 70.4565 148.19 75.8131 146.203C75.8023 146.203 76.4893 144.903 75.9955 143.635Z" fill="#233862"/>
<path d="M71.4883 145.762C71.4883 144.892 72.1109 144.183 72.8838 144.183C73.6567 144.183 74.2793 144.892 74.2793 145.762C74.2793 146.633 73.6567 147.342 72.8838 147.342C72.1109 147.342 71.4883 146.633 71.4883 145.762ZM71.9499 145.762C71.9499 146.375 72.3685 146.88 72.8838 146.88C73.399 146.88 73.8177 146.375 73.8177 145.762C73.8177 145.15 73.399 144.645 72.8838 144.645C72.3685 144.645 71.9499 145.15 71.9499 145.762Z" fill="white"/>
<path d="M66.1953 150.221L80.0965 150.35L86.9451 134.257L73.0332 134.128L66.1953 150.221Z" fill="#C5D9EA"/>
<path d="M68.0117 142.948L69.0315 141.691C69.0315 141.691 69.7185 141.078 70.223 140.971C70.7276 140.864 71.7795 140.251 71.8869 140.423C71.9942 140.595 71.0711 141.82 71.0711 141.82L71.0281 141.83C72.0801 142.625 74.7315 141.927 75.0536 142.249C75.4507 142.636 74.5061 143.485 74.0016 143.958C73.4971 144.43 72.0479 145.225 70.9208 144.871C70.0942 144.613 68.7953 144.355 68.7953 144.355L68.0117 142.948Z" fill="#FFB27D"/>
<path d="M85.8934 137.082C85.8934 137.082 85.0239 136.083 84.4657 136.566C83.9075 137.039 84.616 139.392 85.142 139.155C85.668 138.919 86.2047 137.372 85.8934 137.082Z" fill="#FFB27D"/>
<path d="M62.4928 122.74C62.4928 122.74 57.8555 123.062 56.0735 127.392C54.2916 131.721 50.9961 140.939 50.9961 142.153C50.9961 143.367 54.6351 147.868 68.8691 144.398C68.8691 144.398 69.3521 143.034 68.4075 142.335C68.4075 142.335 58.4781 139.145 58.4995 138.511C58.5317 137.308 59.8413 136.276 65.3804 130.722C66.8939 129.207 62.4928 122.74 62.4928 122.74Z" fill="#F9DDBF"/>
<g opacity="0.7">
<path d="M221.93 83.1299L235.82 87.6743L227.49 79.5525L226.653 81.54L223.078 81.5614L221.93 83.1299Z" fill="#9EC3F6"/>
<path d="M235.818 87.6743L225.03 79.4665L213.512 76.8345L235.818 87.6743Z" fill="white"/>
<path d="M227.488 79.5525L235.818 87.6743L230.269 76.3081L227.488 79.5525Z" fill="white"/>
</g>
<g opacity="0.7">
<path d="M177.598 59.71L162.945 61.805L172.671 55.1765L173.165 57.3036L176.728 57.9482L177.598 59.71Z" fill="#9EC3F6"/>
<path d="M162.945 61.8049L175.14 55.5095L187.098 54.9078L162.945 61.8049Z" fill="white"/>
<path d="M172.671 55.1764L162.945 61.8049L170.481 51.4378L172.671 55.1764Z" fill="white"/>
</g>
<path d="M102.285 216.259H101.426C96.9603 215.389 81.1806 211.972 81.3094 207.138C81.4597 201.917 99.6761 214.443 102.285 216.259Z" fill="#CDE0FB"/>
<path d="M109.166 216.259H105.925C97.7234 210.898 85.4431 201.702 86.4092 195.181C87.8369 185.469 96.0917 198.006 98.7861 202.927C100.45 205.988 105.549 212.09 109.166 216.259Z" fill="#CDE0FB"/>
<path d="M40.3871 133.601L35.5673 140.079C35.4922 140.176 35.4063 140.251 35.3204 140.316C34.9769 140.541 34.5153 140.541 34.1718 140.283L22.9328 131.904C22.5893 131.646 22.4497 131.206 22.5786 130.808C22.6108 130.701 22.6644 130.604 22.7288 130.507L27.5486 124.029C27.8814 123.589 28.504 123.492 28.9441 123.825L40.1832 132.205C40.6233 132.538 40.7199 133.161 40.3871 133.601Z" fill="#CDE0FB"/>
<path d="M35.3204 140.316C34.9769 140.541 34.5153 140.541 34.1718 140.283L22.9328 131.904C22.5893 131.646 22.4497 131.205 22.5786 130.808L31.7136 132.473L35.3204 140.316Z" fill="#BED7FB"/>
<path d="M40.3862 133.601L30.768 133.354L27.3008 124.362L27.5477 124.029C27.8804 123.589 28.503 123.492 28.9432 123.825L40.1822 132.205C40.6223 132.538 40.7189 133.161 40.3862 133.601Z" fill="#DFEBFD"/>
<path d="M212.999 170.783L218.559 201.422C218.645 201.874 218.634 202.325 218.57 202.755C218.312 204.312 217.099 205.612 215.457 205.902L162.278 215.56C160.636 215.861 159.036 215.055 158.253 213.68C158.038 213.304 157.888 212.896 157.802 212.456L152.241 181.827C151.865 179.732 153.25 177.723 155.333 177.347L208.512 167.689C210.616 167.313 212.612 168.688 212.999 170.783Z" fill="#ED8537"/>
<path d="M218.567 202.744C218.31 204.302 217.097 205.602 215.454 205.892L162.275 215.55C160.633 215.85 159.034 215.045 158.25 213.67L186.965 192.28L218.567 202.744Z" fill="#DD6D22"/>
<path d="M212.997 170.783L186.998 197.243L152.54 183.396L152.261 181.827C151.885 179.732 153.27 177.723 155.352 177.347L208.531 167.689C210.614 167.313 212.61 168.688 212.997 170.783Z" fill="#F99746"/>
<path d="M249.947 208.008C251.236 207.321 252.953 203.99 250.108 198.866C247.264 193.752 238.44 197.759 238.44 197.759C238.44 197.759 234.533 208.921 232.761 209.598C230.99 210.275 234.243 199.403 234.243 199.403C230.614 199.94 222.671 206.515 222.671 206.515C222.671 206.515 224.689 213.186 224.711 216.27H242.626L249.067 216.291C249.98 213.788 250.312 211.424 250.312 211.424C247.253 213.272 240.866 212.918 240.351 211.833C239.835 210.758 248.659 208.696 249.947 208.008ZM216.284 214.54C216.091 215.152 215.973 215.732 215.93 216.28H222.918C221.973 213.487 221.662 207.868 221.662 207.868C218.495 209.748 216.284 214.54 216.284 214.54Z" fill="#CDE0FB"/>
<path d="M309.002 217H27.2958C27.0637 217 26.8633 216.818 26.8633 216.585V216.108C26.8633 215.885 27.0532 215.693 27.2958 215.693H309.002C309.234 215.693 309.434 215.875 309.434 216.108V216.585C309.434 216.818 309.244 217 309.002 217Z" fill="#2E3552"/>
<path d="M183.544 192.205C183.813 191.217 184.253 190.561 185.176 190.55C186.561 190.54 187.055 191.324 187.28 192.226C187.591 193.44 186.335 193.881 185.412 193.978C184.103 194.106 183.297 193.097 183.544 192.205Z" fill="#2B478B"/>
</g>
<defs>
<clipPath id="clip0_874_4105">
<rect width="321" height="217" fill="white" transform="translate(-1)"/>
</clipPath>
</defs>
</svg>
