<svg width="738" height="498" viewBox="0 0 738 498" fill="none" xmlns="http://www.w3.org/2000/svg">
<g clip-path="url(#clip0_766_2777)">
<path d="M706.06 497.987C690.858 497.987 607.034 498.016 501.932 497.987C474.808 497.987 446.229 497.987 417.08 497.959C411.946 497.959 406.784 497.959 401.621 497.959C380.744 497.959 359.638 497.93 338.589 497.93C332.913 497.93 327.266 497.93 321.618 497.93C287.421 497.902 253.595 497.873 221.394 497.845C95.9846 497.702 59.0777 496.675 59.0777 496.618C58.821 496.019 -56.2063 437.395 35.4334 314.725C81.5242 252.963 29.016 185.809 68.3187 126.928C123.907 43.5985 215.946 92.4664 279.093 66.0497C290.245 61.3997 301.454 53.897 312.663 42.3718C318.966 35.896 325.897 30.2475 333.284 25.3407C334.425 24.599 335.566 23.8573 336.735 23.1441C341.156 20.4055 345.748 17.9521 350.482 15.7269C353.648 14.2435 356.9 12.8456 360.208 11.5904C365.456 9.59347 370.818 7.85328 376.323 6.36984C384.109 4.28732 392.152 2.7183 400.338 1.6913C403.903 1.23486 407.497 0.864001 411.148 0.607252C481.71 -4.67037 561.085 24.9984 602.071 68.3605C610.314 77.09 647.819 122.278 618.271 184.354C599.589 223.551 677.824 261.008 705.604 305.768C776.252 419.593 706.688 496.504 706.06 497.987Z" fill="#D9E3F6"/>
<path d="M233.84 147.509C242.272 133.949 265.817 146.054 265.817 146.054C265.817 146.054 274.989 176.996 279.722 179.091C284.456 181.187 277.06 151.108 277.06 151.108C286.872 153.056 307.681 172.04 307.681 172.04C307.681 172.04 297.079 201.724 302.183 202.587C307.286 203.45 310.22 175.812 310.22 175.812C318.627 181.36 324.002 194.722 324.002 194.722C329.5 215.506 302.553 221.497 302.553 221.497C302.553 221.497 299.101 231.877 301.961 245.807C301.961 245.807 302.75 248.47 303.095 252.661L300.58 251.897C300.58 251.157 300.556 250.442 300.482 249.727C300.482 249.727 300.482 249.727 300.482 249.702V249.678C300.432 249.234 300.334 248.618 300.235 247.853C299.915 246.127 299.742 244.845 299.643 243.958C298.756 238.534 297.301 231.384 295.452 229.436C295.452 229.436 295.847 229.14 296.34 228.45C296.068 228.771 295.773 229.091 295.452 229.436C288.376 237.375 266.36 232.444 255.117 226.379C243.85 220.314 250.112 218.49 258.223 214.939C266.335 211.389 279.451 216.912 284.086 215.95C288.746 214.989 283.544 211.093 275.358 209.293C267.173 207.494 260.763 214.298 247.474 211.66C234.185 208.997 231.646 181.729 231.646 181.729C239.732 187.178 257.213 187.055 258.766 184.17C260.294 181.286 236.527 174.456 233.1 172.435C229.649 170.388 225.408 161.069 233.84 147.509Z" fill="#DFEBFD"/>
<path d="M413.251 185.156C407.211 175.442 390.371 184.096 390.371 184.096C390.371 184.096 383.813 206.236 380.436 207.715C377.033 209.219 382.334 187.696 382.334 187.696C375.307 189.076 360.441 202.686 360.441 202.686C360.441 202.686 368.034 223.938 364.361 224.555C360.712 225.171 358.616 205.398 358.616 205.398C352.6 209.367 348.754 218.909 348.754 218.909C344.809 233.775 364.114 238.065 364.114 238.065C364.114 238.065 366.58 245.486 364.533 255.472C364.533 255.472 363.966 257.37 363.72 260.378L365.519 259.835C365.519 259.318 365.544 258.8 365.593 258.282V258.258C365.643 257.937 365.692 257.493 365.766 256.951C365.988 255.718 366.136 254.806 366.185 254.165C366.826 250.294 367.862 245.166 369.168 243.761C369.168 243.761 368.897 243.539 368.527 243.046C368.725 243.268 368.946 243.514 369.168 243.761C374.223 249.431 389.977 245.906 398.039 241.566C406.101 237.227 401.614 235.92 395.82 233.381C390.026 230.842 380.633 234.786 377.304 234.096C373.976 233.406 377.699 230.62 383.567 229.338C389.434 228.056 393.996 232.913 403.512 231.014C413.029 229.116 414.854 209.614 414.854 209.614C409.06 213.509 396.56 213.435 395.45 211.364C394.341 209.293 411.377 204.412 413.818 202.957C416.234 201.552 419.267 194.87 413.251 185.156Z" fill="#CDE0FB"/>
<path d="M333.273 429.46C333.273 429.46 324.718 414.988 314.018 410.057C314.018 410.057 315.497 442.478 309.432 442.379C303.391 442.28 310.393 406.112 310.393 406.112C310.393 406.112 283.027 387.843 271.34 387.325C271.34 387.325 285.196 420.757 279.353 419.154C273.51 417.576 257.484 383.454 257.484 383.454C257.484 383.454 228.17 373.617 220.798 390.777C213.451 407.936 219.985 417.946 224.299 419.697C228.614 421.447 257.263 425.121 256.005 428.72C254.723 432.344 234.556 435.55 224.25 430.668C224.25 430.668 231.991 461.708 247.82 462.448C263.648 463.163 269.836 454.189 279.6 454.805C289.363 455.421 296.069 459.021 290.867 460.944C285.665 462.867 269.565 458.799 260.813 464.322C252.06 469.844 245.182 473.049 259.235 478.079C273.313 483.109 299.595 484.933 306.375 474.504C308.84 476.452 311.774 484.44 313.771 490.554C314.042 491.59 314.461 493.02 315.152 494.967C315.3 495.436 315.423 495.855 315.522 496.225H318.258C318.036 495.51 317.814 494.869 317.617 494.326C317.124 492.995 316.779 492.255 316.779 492.255C311.034 476.649 313.179 464.075 313.179 464.075C313.179 464.075 343.283 452.487 333.273 429.46ZM306.424 474.553C306.72 474.11 306.991 473.69 307.262 473.271C306.868 474.036 306.498 474.455 306.424 474.553Z" fill="#AFCDFB"/>
<path d="M353.934 372.803V496.299H343.48H343.086V372.803H353.934Z" fill="#94B0ED"/>
<path d="M236.059 372.803H359.628V301.872C359.628 267.75 331.965 240.087 297.843 240.087C263.721 240.087 236.059 267.75 236.059 301.872V372.803Z" fill="#AFCDFB"/>
<path d="M394.789 240.087H294.074V320.535H382.486L394.789 240.087Z" fill="#AFCDFB"/>
<path d="M333 372.803H456.569V301.872C456.569 267.75 428.907 240.087 394.785 240.087C360.663 240.087 333 267.75 333 301.872V372.803Z" fill="#628AD3"/>
<path d="M339.633 365.678H449.913V302.365C449.913 271.916 425.234 247.237 394.785 247.237C364.337 247.237 339.657 271.916 339.657 302.365V365.678H339.633Z" fill="#233862"/>
<path d="M554.699 372.803H331.13C329.157 372.803 327.555 371.201 327.555 369.228C327.555 367.256 329.157 365.654 331.13 365.654H554.699C556.671 365.654 558.273 367.256 558.273 369.228C558.273 371.201 556.671 372.803 554.699 372.803Z" fill="#628AD3"/>
<path d="M323.191 379.361H375.558C377.407 379.361 378.911 377.858 378.911 376.008V372.655H319.641V375.811C319.641 377.759 321.219 379.361 323.191 379.361Z" fill="#94B0ED"/>
<path d="M610.27 249.579C610.27 249.579 615.004 257.37 606.103 262.276C606.103 262.276 612.932 264.742 615.299 263.805C615.299 263.805 614.708 264.421 614.264 264.643C614.264 264.643 620.674 266.689 623.879 265.58C627.084 264.47 633.963 233.406 615.028 231.754C615.028 231.754 600.087 226.404 596.932 243.07C593.776 259.737 588.031 258.134 588.031 258.134C588.031 258.134 589.437 259.318 590.201 259.54C590.201 259.54 591.434 259.466 591.828 258.948C591.828 258.948 591.36 259.786 590.99 260.008C590.99 260.008 597.055 262.301 600.753 261.019C604.451 259.663 610.196 253.179 610.27 249.579Z" fill="#163560"/>
<path d="M591.258 494.844H615.419C615.419 494.844 615.987 491.171 614.729 488.36C613.521 485.673 611.647 484.021 611.475 481.974C609.946 483.552 608.048 484.563 604.547 484.095C604.128 484.785 601.785 488.508 600.355 489.519C598.778 490.678 591.726 490.258 591.258 494.844Z" fill="#233862"/>
<path d="M611.207 485.623C611.207 485.623 609.136 486.289 606.991 486.486C603.194 486.831 602.627 485.697 602.627 485.697C602.627 485.697 598.855 452.019 586.602 387.67C584.826 378.375 584.136 373.222 583.495 364.963C583.298 362.498 583.125 359.736 582.903 356.507C582.361 347.828 583.668 333.233 590.177 329.411C593.135 327.661 597.178 328.154 602.578 332.419C602.997 332.764 603.441 333.109 603.885 333.504C619.738 347.236 613.253 386.635 613.894 405.175C613.993 408.257 614.313 410.747 614.93 412.448C615.743 414.667 617.494 417.724 617.913 420.609C621.266 444.623 611.207 485.623 611.207 485.623Z" fill="#2B478B"/>
<path d="M613.914 405.15L583.515 364.963C583.317 362.498 583.145 359.736 582.923 356.507C582.381 347.828 583.687 333.233 590.196 329.411L602.597 332.419C603.016 332.764 603.46 333.109 603.904 333.504C619.782 347.212 613.273 386.61 613.914 405.15Z" fill="#233862"/>
<path d="M699.889 443.981L689.83 422.014C689.83 422.014 686.231 423.025 684.234 425.342C682.311 427.561 680.905 427.167 676.492 424.11C678.144 426.674 678.366 428.178 679.401 431.555C680.215 431.654 684.825 436.117 689.535 437.349C691.408 437.818 695.526 445.461 699.889 443.981Z" fill="#233862"/>
<path d="M594.438 339.026C594.438 339.026 616.084 414.297 624.023 419.13C631.962 423.962 673.678 430.643 682.134 434.268C682.134 434.268 683.17 432.788 682.553 429.632C682.43 428.942 681.222 426.403 681.222 426.403C681.222 426.403 655.31 406.925 638.274 404.978C634.033 404.485 646.878 339.889 618.303 337.301C592.219 334.958 594.438 339.026 594.438 339.026Z" fill="#2B478B"/>
<path d="M562.363 215.63C562.363 215.63 562.856 213.213 563.399 211.364C563.645 210.551 561.969 205.201 560.785 204.535C559.627 203.869 556.594 207.469 557.457 210.255C557.901 211.685 558.616 216.295 558.616 216.295L562.363 215.63Z" fill="#FFB27D"/>
<path d="M562.367 215.63C562.367 215.63 563.008 214.224 563.575 214.002C564.142 213.78 564.759 211.488 565.178 210.575C565.178 210.575 564.783 209.984 564.068 210.748C563.625 211.216 562.663 212.572 562.663 212.572L562.367 215.63Z" fill="#FFB27D"/>
<path d="M662.338 225.048C662.486 225.344 662.683 225.911 662.881 226.404C662.881 226.256 662.881 226.132 662.881 225.985C662.881 224.974 666.702 219.402 668.28 219.057C669.858 218.711 672.077 223.914 670.104 226.798C669.094 228.277 666.061 233.554 666.061 233.554L662.683 231.507C662.683 231.507 662.659 230.077 661.747 228.943C661.278 228.351 661.278 225.639 661.105 224.431C661.105 224.481 661.796 223.938 662.338 225.048Z" fill="#FFB27D"/>
<path d="M598.778 269.5C598.728 269.525 603.117 272.705 606.865 272.261C610.365 271.842 613.225 267.799 613.176 267.774C611.795 267.281 611.672 265.259 612.954 256.828L612.289 256.852L601.095 257.395C601.095 257.395 600.824 260.846 600.356 264.076C599.986 266.763 599.443 269.303 598.778 269.5Z" fill="#FFB27D"/>
<path d="M601.122 257.37C601.122 257.37 600.851 260.822 600.383 264.051C606.497 264.791 610.516 259.712 612.291 256.828L601.122 257.37Z" fill="#ED975D"/>
<path d="M613.597 255.841C613.597 255.841 617.542 251.28 618.947 247.089C619.958 244.106 620.081 232.469 608.395 232.419C608.395 232.419 605.017 232.247 601.59 233.899C598.853 235.205 594.736 238.287 597.251 248.839L597.793 252.34L613.597 255.841Z" fill="#163560"/>
<path d="M584.75 336.142C584.75 336.142 595.721 343.07 613.991 338.607C614.212 338.558 624.37 336.931 624.37 336.931C624.124 336.24 613.423 318.563 613.177 317.922C609.947 309.564 617.442 269.623 612.487 267.38C611.229 268.76 607.605 269.697 604.523 269.426C600.973 269.106 599.765 267.577 600.061 265.925C596.116 267.799 593.083 269.525 593.083 269.525C589.508 274.924 584.75 336.142 584.75 336.142Z" fill="#FFB27D"/>
<path d="M598.63 260.131C598.63 260.131 612.979 262.498 614.311 253.548C615.642 244.599 618.403 238.854 609.306 236.956C600.208 235.057 597.915 238.213 596.732 241.098C595.573 243.982 594.932 259.268 598.63 260.131Z" fill="#FFB27D"/>
<path d="M602.797 235.772C602.797 235.772 605.164 246.867 610.982 249.333C616.801 251.798 619.661 250.565 619.661 250.565C619.661 250.565 615.568 246.201 615.568 239.619C615.568 239.594 606.52 231.211 602.797 235.772Z" fill="#163560"/>
<path d="M603.636 236.783C603.636 236.783 600.357 238.682 599.297 240.876C598.237 243.046 597.226 247.705 595.87 247.335C595.87 247.335 593.971 239.742 597.891 236.192C602.083 232.419 603.636 236.783 603.636 236.783Z" fill="#163560"/>
<path d="M666.676 233.627C666.676 233.627 657.431 261.758 654.965 266.098C653.486 268.711 636.82 279.091 627.13 285.945C627.032 286.019 626.908 286.167 626.76 286.389C626.76 286.389 626.76 286.389 626.76 286.413C624.344 290.136 616.849 313.262 618.624 317.404C626.169 334.835 631.346 341.59 633.22 346.472C634.157 348.913 632.899 351.65 630.434 352.512C627.328 353.622 622.766 355.003 617.367 355.939C616.332 356.112 615.271 356.285 614.187 356.408C599.32 358.306 589.261 354.805 584.132 352.217C581.716 351.009 580.262 348.469 580.41 345.757C580.705 340.234 583.467 334.786 584.724 321.522C585.661 311.462 576.983 296.127 577.352 290.777C577.5 288.657 579.152 286.117 580.064 284.49C581.667 281.581 582.53 278.967 581.47 277.488C574.394 267.774 559.108 254.387 558.492 251.034C557.579 246.127 557.998 215.753 557.998 215.753C558.59 215.556 559.453 215.062 560.563 214.964C561.573 214.865 562.806 215.186 562.806 215.186C562.806 215.186 566.85 240.358 567.145 241.69C567.441 243.021 584.502 262.252 589.113 262.178C593.255 262.104 599.123 265.309 600.035 265.925C600.035 265.925 596.312 272.533 595.375 281.458C594.734 287.695 598.901 284.934 601.514 280.644C605.064 274.85 612.19 266.615 612.19 266.615C612.19 266.615 618.008 265.112 622.323 266.665C626.637 268.243 649.024 255.595 649.739 254.436C650.454 253.277 662.436 230.94 662.436 230.94C662.436 230.94 663.422 230.373 665.025 231.187C666.652 232.025 666.676 233.627 666.676 233.627Z" fill="#F99746"/>
<path d="M602.797 255.274C602.797 255.274 602.18 256.507 601.367 256.532C600.553 256.556 598.433 256.359 598.31 256.137C598.162 255.915 597.816 254.633 597.816 254.633C597.816 254.633 601.268 254.485 602.797 255.274Z" fill="white"/>
<path d="M630.436 352.512C627.33 353.622 622.769 355.003 617.369 355.939C612.241 348.864 603.563 339.963 605.782 323.593C608.099 306.679 624.716 288.854 626.714 286.413C624.297 290.136 616.802 313.262 618.577 317.404C626.122 334.835 631.299 341.59 633.173 346.472C634.159 348.913 632.902 351.625 630.436 352.512Z" fill="#ED7D2B"/>
<path d="M580.088 284.49C581.691 281.581 582.554 278.968 581.494 277.488C574.418 267.774 559.132 254.387 558.516 251.034C560.02 254.658 578.535 265.531 583.737 270.19C588.89 274.801 580.31 284.244 580.088 284.49Z" fill="#ED7D2B"/>
<path d="M439.042 184.836C439.042 184.836 438.302 176.724 447.351 176.724C447.351 176.724 444.614 177.464 443.184 178.968C443.184 178.968 448.953 175.59 455.24 180.792C461.527 185.995 457.607 199.062 459.53 201.527C461.428 204.017 468.874 204.51 467.962 212.523C467.05 220.536 444.343 230.57 445.822 237.202C445.822 237.202 436.922 224.135 443.283 218.169C443.283 218.169 440.176 221.078 439.856 224.555C439.856 224.555 439.017 217.775 443.332 215.605C447.153 213.682 450.284 206.68 449.939 205.423C449.619 204.19 439.042 184.836 439.042 184.836Z" fill="#2C3A64"/>
<path d="M451.814 218.859C451.814 218.859 438.944 251.354 436.158 250.146C433.372 248.938 417.026 243.761 417.026 243.761L415.941 247.73C415.941 247.73 431.499 259.712 439.511 260.255C447.524 260.772 458.372 237.178 458.372 237.178L451.814 218.859Z" fill="#FFB27D"/>
<path d="M451.961 242.158L464.658 286.537C464.856 287.202 464.905 287.843 464.856 288.484C464.708 290.826 463.105 292.897 460.738 293.588L383.668 315.629C381.276 316.319 378.811 315.358 377.455 313.46C377.085 312.942 376.789 312.35 376.616 311.709L363.919 267.355C363.056 264.323 364.807 261.167 367.839 260.304L444.91 238.263C447.918 237.4 451.074 239.15 451.961 242.158Z" fill="#ED8537"/>
<path d="M464.854 288.484C464.706 290.827 463.104 292.898 460.737 293.588L383.666 315.629C381.275 316.32 378.809 315.358 377.453 313.46L416.703 277.71L464.854 288.484Z" fill="#DD6D22"/>
<path d="M451.96 242.158L417.468 285.008L364.584 269.648L363.943 267.38C363.08 264.347 364.83 261.192 367.863 260.329L444.933 238.287C447.917 237.4 451.072 239.15 451.96 242.158Z" fill="#F99746"/>
<path d="M422.749 244.574C422.749 244.574 415.697 241.591 414.711 245.363C414.193 247.36 412.985 249.998 415.155 249.801C417.325 249.604 419.519 248.149 419.765 246.966C420.012 245.758 422.749 244.574 422.749 244.574Z" fill="#FFB27D"/>
<path d="M511.501 272.878C511.452 272.976 511.378 273.1 511.304 273.198C509.824 275.762 506.422 282.074 502.699 288.977C500.924 292.256 499.075 295.659 497.324 298.864C494.292 304.387 491.555 309.317 489.928 311.931C488.301 314.569 487.093 316.443 486.6 317.182C486.452 317.404 486.427 317.675 486.452 317.947C486.624 320.289 486.575 322.606 486.353 324.875C484.11 347.31 468.972 359.317 468.972 359.317L464.484 359.983C464.484 359.983 470.845 336.413 472.719 323.075C473.04 320.807 473.163 318.982 473.064 317.799C472.744 314.322 473.36 309.219 474.519 303.376C476.59 292.971 480.411 280.2 483.715 269.993C483.937 269.352 490.249 246.473 490.249 246.473C495.549 251.108 514.928 253.031 514.928 253.031C514.928 253.031 518.182 260.97 511.501 272.878Z" fill="#2B478B"/>
<path d="M455.043 365.653H473.805C473.805 365.653 474.249 362.794 473.263 360.624C472.326 358.553 470.995 358.479 473.09 355.2C471.907 356.433 468.061 356.926 465.349 356.581C465.028 357.123 463.204 360.747 462.094 361.536C460.886 362.424 455.413 362.103 455.043 365.653Z" fill="#233862"/>
<path d="M511.502 272.878C511.453 272.976 511.379 273.1 511.305 273.198C509.826 275.762 501.813 290.555 498.09 297.434C502.429 279.609 499.397 261.783 499.397 261.783L511.502 272.878Z" fill="#233862"/>
<path d="M441.606 183.702C441.483 183.209 452.331 188.608 452.874 189.224C457.953 194.87 456.498 202.217 453.589 202.291C451.715 202.341 452.085 205.447 452.085 205.447L431.301 196.645C431.301 196.645 433.816 182.05 441.606 183.702Z" fill="#2C3A64"/>
<path d="M448.609 219.525C448.609 219.525 445.848 222.385 445.848 230.965C445.848 230.965 449.669 236.981 459.556 238.509C459.531 238.534 451.025 219.525 448.609 219.525Z" fill="#F9DDBF"/>
<path d="M496.855 254.387L496.781 250.886C503.783 251.773 520.894 242.528 520.894 242.528C520.894 242.528 528.216 247.385 529.202 261.29C529.695 268.07 532.777 296.768 533.122 305.323C533.246 308.43 533.295 310.649 533.295 311.536C533.295 311.808 533.418 312.054 533.591 312.251C535.045 314.1 536.303 316.048 537.388 318.07C548.063 337.917 542.491 364.914 542.491 364.914L540.001 364.273C540.001 364.273 530.977 336.29 525.085 324.209C524.074 322.163 523.162 320.56 522.422 319.648C520.203 316.96 517.861 312.375 515.568 306.877C511.229 296.448 496.855 254.387 496.855 254.387Z" fill="#2B478B"/>
<path d="M527.602 365.653H546.364C546.364 365.653 546.808 362.794 545.821 360.624C544.885 358.553 543.405 357.591 543.775 355.077C542.592 356.309 540.644 357.69 537.932 357.32C537.611 357.863 535.787 360.747 534.677 361.536C533.445 362.424 527.971 362.103 527.602 365.653Z" fill="#233862"/>
<path d="M460.815 242.552C463.329 242.972 460.396 244.993 463.872 245.363C468.803 245.906 473.906 246.275 476.569 247.335C477.531 247.73 478.196 248.198 478.393 248.815C479.552 252.291 486.875 258.282 486.875 258.282C519.567 256.803 520.923 242.503 520.923 242.503C499.72 221.892 480.193 209.762 465.302 208.135C462.762 207.863 459.533 209.466 457.24 210.501C452.013 212.819 448.586 219.525 448.586 219.525C448.586 219.525 451.224 240.925 460.815 242.552Z" fill="#F9DDBF"/>
<path d="M463.871 245.363C468.802 245.906 473.906 246.275 476.568 247.335C477.653 231.039 469.961 218.761 469.961 218.761C469.961 218.761 464.956 239.199 463.871 245.363Z" fill="#F2CCAA"/>
<path d="M459.604 216.024C459.604 216.024 472.005 215.334 474.224 223.149C476.418 230.94 470.082 262.054 468.726 265.26C466.236 271.103 454.13 287.794 454.13 287.794L449.668 286.438C449.668 286.438 457.755 260.945 459.555 258.43C462.365 254.436 455.881 219.402 459.604 216.024Z" fill="#FFB27D"/>
<path d="M449.669 286.413C449.669 286.413 449.447 288.386 448.608 289.421C447.77 290.432 445.354 292.897 445.305 294.352C445.305 294.352 445.428 294.993 445.946 294.87C446.463 294.746 448.288 292.971 449.2 293.095C449.2 293.095 448.707 295.979 448.214 296.817C447.721 297.631 448.115 301.083 448.411 301.798C448.707 302.513 452.331 298.026 453.811 296.029C455.29 294.031 453.835 285.895 453.835 285.895L449.669 286.413Z" fill="#FFB27D"/>
<path d="M476.664 233.553C476.639 233.726 464.928 235.698 457.581 232C457.581 232 451.467 212.819 460.219 213.756C468.971 214.668 474.149 217.429 474.371 221.621C474.593 225.787 476.664 233.553 476.664 233.553Z" fill="#F9DDBF"/>
<path d="M457.235 210.501C457.235 210.501 453.783 223.371 448.581 219.525C448.729 218.909 447.817 217.084 446.757 215.26C445.401 212.918 443.773 210.526 443.773 210.526L450.8 204.362L451.219 203.993C453.364 207.765 455.484 209.219 457.235 210.501Z" fill="#FFB27D"/>
<path d="M443.773 210.526C443.773 210.526 445.401 212.917 446.757 215.26C451.121 212.572 451.121 207.173 450.8 204.362L443.773 210.526Z" fill="#ED985F"/>
<path d="M443.581 213.608C443.581 213.608 454.182 207.715 450.41 201.157C446.638 194.599 445.454 189.446 438.526 192.923C431.598 196.424 431.746 199.653 432.461 202.143C433.201 204.658 440.745 214.964 443.581 213.608Z" fill="#FFB27D"/>
<path d="M430.681 198.347C431.174 195.437 432.654 195.166 433.665 195.363C437.585 188.879 443.97 191.419 443.97 191.419C447.397 195.709 452.328 196.448 452.328 196.448C452.328 196.448 451.096 198.741 446.017 200.146C444.463 200.59 442.713 200.319 441.012 199.752C444.537 201.724 448.211 202.464 448.211 202.464C441.529 203.08 435.169 196.966 434.528 196.325C434.207 197.262 433.689 199.259 434.01 200.713C434.454 202.686 436.204 206.236 435.119 206.705C435.144 206.68 429.942 202.71 430.681 198.347Z" fill="#2C3A64"/>
<path d="M300.95 293.81C301.615 294.574 301.689 295.412 301.369 296.324C300.752 298.001 298.78 299.85 296.462 301.724C296.167 301.97 295.895 302.192 295.674 302.39C295.624 302.439 295.55 302.488 295.501 302.537C295.452 302.587 295.402 302.611 295.353 302.661C293.183 304.658 293.997 305.102 290.126 309.145C285.688 313.755 282.656 313.829 281.793 313.41C281.053 313.04 282.557 310.6 284.209 307.863C284.283 307.74 284.357 307.592 284.456 307.468C284.678 307.099 284.899 306.729 285.121 306.359C287.044 303.055 286.551 301.502 286.108 296.596C285.738 292.602 279.895 274.259 279.895 274.259L288.376 272.804C288.376 272.804 290.94 287.399 293.75 289.643C295.254 290.851 296.931 290.851 298.386 291.739C298.484 291.813 298.583 291.862 298.681 291.936C299.446 292.503 300.284 293.07 300.95 293.81Z" fill="#FFB27D"/>
<path d="M300.949 293.81C301.615 294.574 301.689 295.412 301.368 296.324C300.629 298.001 298.681 299.85 296.437 301.699C296.141 301.946 295.895 302.168 295.648 302.365C295.599 302.414 295.525 302.464 295.476 302.513C295.426 302.562 295.377 302.587 295.328 302.636C293.158 304.633 293.972 305.077 290.101 309.12C285.663 313.731 282.631 313.805 281.768 313.386C281.028 313.016 282.532 310.575 284.184 307.838C285.047 307.518 289.041 305.891 292.073 302.02C294.736 298.617 296.511 294.253 298.336 291.714C298.434 291.788 298.533 291.837 298.632 291.911C299.445 292.503 300.283 293.07 300.949 293.81Z" fill="#233862"/>
<path d="M232.534 288.509C232.016 291.122 228.269 290.679 224.102 289.668C219.936 288.657 220.922 289.865 214.98 289.199C209.038 288.534 207.238 286.339 207.066 285.452C206.893 284.663 209.827 284.392 212.983 284.022C213.377 283.973 213.772 283.923 214.166 283.874C217.717 283.43 220.33 281.137 223.535 279.263C226.592 277.488 231.154 270.215 231.154 270.215L239.29 270.856C239.29 270.856 235.024 277.34 233.372 280.176C232.411 281.828 232.46 284.022 232.583 285.723C232.657 286.66 232.731 287.597 232.534 288.509Z" fill="#FFB27D"/>
<path d="M224.102 289.692C219.936 288.682 220.922 289.89 214.98 289.224C209.038 288.558 207.238 286.364 207.066 285.476C206.893 284.687 209.827 284.416 212.983 284.046L213.008 284.096C213.008 284.096 216.558 286.611 221.514 286.734C225.532 286.832 229.797 285.674 232.583 285.723C232.657 286.635 232.707 287.597 232.51 288.509C232.016 291.147 228.294 290.703 224.102 289.692Z" fill="#233862"/>
<path d="M263.723 236.463L271.341 256.926L281.277 283.652C281.277 283.652 283.964 283.923 286.553 283.159C288.92 282.469 291.656 280.669 291.656 280.669C291.656 280.669 288.895 251.971 283.742 235.477C282.436 231.236 280.956 227.834 279.304 225.911C271.341 216.517 263.723 236.463 263.723 236.463Z" fill="#233862"/>
<path d="M271.465 203.943C276.445 202.341 290.671 204.412 304.946 207.198L307.929 202.267L338.772 199.851C338.772 199.851 348.955 222.434 343.383 236.808C342.569 238.928 340.942 240.284 338.156 240.334H337.712C337.712 240.334 319.344 240.334 313.378 240.334C298.043 240.334 280.908 229.781 278.689 229.338C275.064 228.623 273.61 235.871 269.986 243.489C266.361 251.108 235.888 277.217 235.888 277.217C235.888 277.217 231.204 277.266 229.281 276.527C227.21 275.738 226.445 274.727 226.445 274.727C226.445 274.727 260.222 207.592 271.465 203.943Z" fill="#2B478B"/>
<path d="M299.349 159.392C309.087 167.306 332.509 181.014 332.657 180.965C332.657 180.965 340.177 185.452 345.28 183.258C353.811 179.584 360.369 166.69 348.559 152.44C342.667 145.339 337.785 142.997 338.919 133.554C340.152 123.322 335.542 110.453 323.757 109.91C322.771 109.861 316.804 109.072 312.539 110.403C301.716 113.781 283.57 154.141 299.349 159.392Z" fill="#A9453D"/>
<path d="M331.251 147.435C331.301 147.435 328.885 152.711 325.359 153.993C321.611 155.349 316.286 153.13 316.335 153.105C316.976 152.735 317.42 150.344 317.174 147.459C317.149 147.311 317.149 147.188 317.124 147.04C316.804 143.81 315.867 140.26 315.793 140.038L327.208 136.784L327.874 136.587C328.638 145.586 329.698 147.237 331.251 147.435Z" fill="#FFB27D"/>
<path d="M327.232 136.759C326.122 140.088 323.311 146.079 317.148 147.04C316.827 143.811 315.89 140.26 315.816 140.038L327.232 136.759Z" fill="#ED975D"/>
<path d="M313.92 143.465C313.92 143.465 329.305 142.43 328.516 132.864C327.727 123.298 329.181 116.715 319.32 116.961C309.458 117.208 307.855 121.03 307.337 124.284C306.844 127.538 309.901 143.49 313.92 143.465Z" fill="#FFB27D"/>
<path d="M311.16 116.789C311.16 116.789 314.982 128.007 324.055 129.313C330.687 130.275 333.3 128.475 333.3 128.475C333.3 128.475 329.602 124.974 327.605 119.55C327.013 117.948 325.608 116.789 323.931 116.542C319.247 115.827 313.157 112.696 311.16 116.789Z" fill="#A9453D"/>
<path d="M314.41 118.786C314.41 118.786 311.674 119.895 309.751 123.988C308.715 126.232 307.951 131.557 308.592 133.776C308.592 133.776 304.179 123.544 307.359 118.934C310.786 114.028 314.41 118.786 314.41 118.786Z" fill="#A9453D"/>
<path d="M344.071 182.765C343.8 183.924 343.553 185.008 343.381 185.995C343.06 187.597 342.863 188.953 342.69 190.161C342.222 193.933 342.37 196.177 342.049 198.618C341.877 199.974 341.556 201.429 340.89 203.228C340.249 204.979 323.583 206.557 314.091 205.916C311.083 205.718 308.79 205.299 307.976 204.584C304.599 201.65 304.919 208.11 304.475 177.168C304.254 162.08 317.271 148.643 317.271 148.643C317.271 148.643 318.307 155.078 331.226 147.41C331.694 147.139 336.773 154.683 341.679 163.953C347.079 174.21 345.6 176.379 344.071 182.765Z" fill="#AEC3FF"/>
<path d="M271.34 256.951L281.276 283.677C281.276 283.677 283.963 283.948 286.552 283.183C288.919 282.493 291.655 280.693 291.655 280.693C291.655 280.693 288.894 251.995 283.741 235.501L271.34 256.951Z" fill="#2B478B"/>
<path d="M317.27 148.618C317.27 148.618 303.981 150.862 302.403 156.606C300.85 162.326 290.051 194.353 290.051 194.353C290.051 194.353 298.409 197.213 301.54 194.081C304.671 190.95 312.413 165.112 312.413 165.112L317.27 148.618Z" fill="#AEC3FF"/>
<path d="M316.509 137.326C316.509 137.326 316.139 138.978 314.462 139.274C312.786 139.545 312.293 139.373 311.923 139.077C311.553 138.781 311.109 138.14 311.109 138.14C311.109 138.14 313.772 137.104 316.509 137.326Z" fill="white"/>
<path d="M342.69 190.137C342.221 193.909 342.369 196.152 342.049 198.593C329.968 198.643 313.844 189.274 313.844 189.274L342.69 190.137Z" fill="#94B0ED"/>
<path d="M313.82 181.36C313.82 181.36 332.632 180.793 335.788 170.117C339.264 158.381 343.159 174.949 343.159 174.949L341.088 185.526H320.452L313.82 181.36Z" fill="#94B0ED"/>
<path d="M317.642 199.086L288.475 199.358L274.102 165.63L303.293 165.359L317.642 199.086Z" fill="#F9DDBF"/>
<path d="M313.845 183.85L311.7 181.212C311.7 181.212 310.246 179.93 309.21 179.708C308.15 179.486 305.931 178.204 305.734 178.574C305.512 178.944 307.435 181.508 307.435 181.508L307.534 181.532C305.339 183.184 299.767 181.729 299.077 182.395C298.239 183.209 300.211 184.984 301.296 185.97C302.356 186.956 305.389 188.633 307.755 187.893C309.481 187.351 312.218 186.808 312.218 186.808L313.845 183.85Z" fill="#FFB27D"/>
<path d="M331.226 147.41C331.226 147.41 343.43 148.199 346.487 152.982C349.545 157.74 353.317 181.927 351.739 190.235C350.161 198.544 311.059 188.657 311.059 188.657L312.316 181.458C312.316 181.458 334.875 181.581 336.157 178.648C337.858 174.703 331.226 147.41 331.226 147.41Z" fill="#AEC3FF"/>
<path d="M276.295 171.547C276.295 171.547 278.12 169.451 279.303 170.462C280.462 171.473 279.007 176.379 277.898 175.886C276.788 175.393 275.654 172.163 276.295 171.547Z" fill="#FFB27D"/>
<path d="M139.242 290.654C138.601 288.706 161.037 285.6 158.522 303.499C158.522 303.499 198.783 308.898 183.202 283.504C177.802 274.702 179.503 268.415 180.662 262.498C181.821 256.581 180.243 238.583 165.13 237.942C165.13 237.942 161.506 235.748 156.254 237.474C144.272 241.443 110.741 292.848 139.242 290.654Z" fill="#163560"/>
<path d="M171.91 314.815C171.91 314.815 173.34 317.651 175.954 320.93C179.085 324.875 195.579 315.53 194.173 314.815C192.743 314.1 184.459 290.235 182.487 287.227C180.515 284.219 173.784 282.666 173.784 282.666L171.91 314.815Z" fill="#F9DDBF"/>
<path d="M116.265 475.786C116.265 475.786 111.704 479.928 112.591 482.887C113.479 485.845 117.596 487.793 118.138 491.417C118.705 495.017 120.924 496.989 122.921 496.989C124.918 496.989 132.438 496.989 132.438 496.989C132.438 496.989 133.917 494.45 130.367 493.685C126.817 492.921 125.486 488.68 125.707 484.76C125.929 480.816 125.362 475.589 125.362 475.589L117.818 473.838L116.265 475.786Z" fill="#233862"/>
<path d="M154.777 477.561C154.777 477.561 153.15 495.165 155.147 496.126L180.714 496.077C180.714 496.077 180.714 493.118 176.597 492.477C172.479 491.812 165.28 489.42 164.047 484.07C162.839 478.695 154.777 477.561 154.777 477.561Z" fill="#233862"/>
<path d="M136.553 351.329C141.805 339.52 145.035 336.142 144.418 332.493C143.95 329.756 145.799 281.68 145.799 281.68C146.415 281.482 147.673 281.31 148.363 281.162C150.533 280.693 152.308 279.165 153.047 277.094C153.935 274.579 154.65 270.881 154.65 266.246L155.316 266.369L166.657 268.613C166.657 268.613 166.41 272.188 166.386 275.541C166.386 275.565 166.386 275.59 166.386 275.615C166.361 278.524 168.284 281.113 171.095 281.926C172.525 282.345 173.782 282.69 173.782 282.69C173.782 282.69 177.949 294.574 178.738 306.778C179.526 318.982 171.169 324.283 178.812 348.666C186.578 373.568 133.644 357.863 136.553 351.329Z" fill="#FFB27D"/>
<path d="M166.658 268.612C166.658 268.612 166.411 272.187 166.386 275.54C160.05 275.368 156.697 269.574 155.316 266.369L166.658 268.612Z" fill="#E8945B"/>
<path d="M167.35 273.346C167.35 273.346 152.484 271.226 153.963 262.005C155.418 252.784 154.481 246.275 164.047 247.237C173.588 248.198 174.87 252.02 175.141 255.2C175.388 258.406 171.246 273.642 167.35 273.346Z" fill="#FFB27D"/>
<path d="M170.799 248.075C170.799 248.075 165.03 258.257 158.546 258.874C152.062 259.49 149.621 257.395 149.621 257.395C149.621 257.395 154.996 254.362 157.042 247.903C157.067 247.878 168.581 242.429 170.799 248.075Z" fill="#163560"/>
<path d="M169.668 248.79C169.668 248.79 172.503 250.393 173.391 252.784C174.254 255.126 174.845 258.134 174.032 261.586C174.032 261.586 178.272 254.707 175.486 249.998C172.553 245.018 169.668 248.79 169.668 248.79Z" fill="#163560"/>
<path d="M135.125 302.957C135.125 302.957 134.755 308.331 135.125 314.766C135.372 319.031 139.711 324.751 140.303 326.181C141.831 329.732 143.582 330.299 143.582 330.299L156.994 333.578L161.703 334.736L176.595 330.299C176.595 330.299 183.375 311.364 180.663 300.713C177.951 290.087 173.784 282.69 173.784 282.69C173.784 282.69 161.629 294.574 145.825 281.68L135.125 302.957Z" fill="#F9DDBF"/>
<path d="M133.844 314.914C134.09 319.179 139.687 324.751 140.303 326.181C141.832 329.732 143.582 330.299 143.582 330.299L156.995 333.578L160.569 328.524C160.569 328.524 138.849 322.483 142.941 303.326L133.844 314.914Z" fill="#F2CCAA"/>
<path d="M175.657 333.183C175.657 333.183 183.028 356.137 183.497 363.928C183.965 371.743 169.419 474.898 168.827 478.498C168.285 481.9 164.069 484.045 164.069 484.045C164.069 484.045 162.121 485.18 159.36 484.415C155.514 483.33 154.306 482.024 154.306 482.024C154.306 482.024 148.561 408.454 152.111 382.172C155.662 355.89 155.711 333.159 155.711 333.159H175.657V333.183Z" fill="#ED7D2B"/>
<path d="M144.419 332.493C144.419 332.493 133.176 347.582 132.116 357.789C131.056 367.996 130.464 403.819 128.245 413.755C126.002 423.691 117.816 442.823 117.816 473.838C117.816 473.838 118.679 475.613 121.293 476.55C122.131 476.846 123.265 477.142 124.35 477.389C126.52 477.882 128.738 476.822 129.749 474.825C135.297 463.656 152.974 427.635 153.862 420.165C154.503 414.864 160.075 379.855 172.254 359.293C175.188 354.362 170.454 334.736 170.454 334.736L144.419 332.493Z" fill="#F99746"/>
<path d="M165.324 267.404C165.324 267.404 165.398 268.539 168.135 268.785C168.135 268.785 170.428 269.007 170.551 267.799C170.551 267.799 168.48 266.615 165.324 267.404Z" fill="white"/>
<path d="M176.842 329.633C176.842 329.633 173.883 331.975 168.016 332.098C160.989 332.246 143.607 330.299 143.607 330.299C143.607 330.299 142.843 332.468 142.868 334.736C142.868 334.736 164.12 340.087 176.423 335.525C176.398 335.525 177.976 332.542 176.842 329.633Z" fill="#233862"/>
<path d="M166.484 334.515C166.484 332.518 167.914 330.89 169.689 330.89C171.465 330.89 172.895 332.518 172.895 334.515C172.895 336.512 171.465 338.139 169.689 338.139C167.914 338.139 166.484 336.512 166.484 334.515ZM167.545 334.515C167.545 335.92 168.506 337.079 169.689 337.079C170.873 337.079 171.834 335.92 171.834 334.515C171.834 333.109 170.873 331.951 169.689 331.951C168.506 331.951 167.545 333.109 167.545 334.515Z" fill="white"/>
<path d="M154.332 344.746L186.26 345.042L201.99 308.109L170.037 307.814L154.332 344.746Z" fill="#C5D9EA"/>
<path d="M158.5 328.055L160.842 325.17C160.842 325.17 162.42 323.765 163.579 323.519C164.738 323.272 167.154 321.867 167.4 322.261C167.647 322.656 165.527 325.466 165.527 325.466L165.428 325.491C167.844 327.315 173.934 325.713 174.673 326.453C175.586 327.34 173.416 329.288 172.257 330.373C171.099 331.457 167.77 333.282 165.181 332.468C163.283 331.877 160.3 331.285 160.3 331.285L158.5 328.055Z" fill="#FFB27D"/>
<path d="M199.572 314.594C199.572 314.594 197.575 312.301 196.293 313.41C195.011 314.495 196.638 319.894 197.846 319.352C199.054 318.81 200.287 315.259 199.572 314.594Z" fill="#FFB27D"/>
<path d="M145.823 281.68C145.823 281.68 135.172 282.419 131.08 292.355C126.987 302.291 119.418 323.445 119.418 326.231C119.418 329.017 127.776 339.347 160.468 331.383C160.468 331.383 161.578 328.252 159.408 326.65C159.408 326.65 136.602 319.327 136.652 317.873C136.726 315.111 139.733 312.744 152.455 299.998C155.932 296.522 145.823 281.68 145.823 281.68Z" fill="#F9DDBF"/>
<g opacity="0.7">
<path d="M512.02 190.778L543.923 201.206L524.791 182.568L522.868 187.129L514.658 187.178L512.02 190.778Z" fill="#9EC3F6"/>
<path d="M543.92 201.207L519.142 182.37L492.688 176.33L543.92 201.207Z" fill="white"/>
<path d="M524.789 182.568L543.921 201.207L531.175 175.122L524.789 182.568Z" fill="white"/>
</g>
<g opacity="0.7">
<path d="M410.201 137.03L376.547 141.838L398.884 126.626L400.018 131.508L408.204 132.987L410.201 137.03Z" fill="#9EC3F6"/>
<path d="M376.547 141.838L404.555 127.39L432.02 126.01L376.547 141.838Z" fill="white"/>
<path d="M398.884 126.626L376.547 141.838L393.854 118.046L398.884 126.626Z" fill="white"/>
</g>
<path d="M237.22 496.299H235.248C224.991 494.302 188.749 486.462 189.045 475.367C189.39 463.385 231.229 492.132 237.22 496.299Z" fill="#CDE0FB"/>
<path d="M253.024 496.299H245.578C226.742 483.996 198.537 462.892 200.756 447.926C204.035 425.639 222.995 454.411 229.183 465.702C233.005 472.729 244.716 486.733 253.024 496.299Z" fill="#CDE0FB"/>
<path d="M95.0577 306.605L83.9877 321.472C83.8151 321.694 83.6179 321.867 83.4207 322.015C82.6317 322.532 81.5716 322.532 80.7826 321.941L54.9691 302.71C54.1802 302.118 53.8597 301.107 54.1555 300.195C54.2295 299.949 54.3528 299.727 54.5007 299.505L65.5707 284.638C66.335 283.627 67.7649 283.405 68.7758 284.17L94.5892 303.4C95.6001 304.165 95.822 305.595 95.0577 306.605Z" fill="#CDE0FB"/>
<path d="M83.4207 322.015C82.6317 322.532 81.5716 322.532 80.7826 321.941L54.9691 302.71C54.1802 302.118 53.8597 301.107 54.1555 300.195L75.1367 304.017L83.4207 322.015Z" fill="#BED7FB"/>
<path d="M95.058 306.605L72.9674 306.038L65.0039 285.402L65.571 284.638C66.3353 283.627 67.7652 283.405 68.7761 284.17L94.5896 303.4C95.6004 304.165 95.8223 305.595 95.058 306.605Z" fill="#DFEBFD"/>
<path d="M491.507 391.935L504.278 462.251C504.476 463.286 504.451 464.322 504.303 465.308C503.711 468.883 500.925 471.866 497.153 472.532L375.014 494.696C371.242 495.387 367.568 493.537 365.768 490.382C365.275 489.519 364.93 488.582 364.733 487.571L351.962 417.28C351.099 412.473 354.279 407.862 359.062 406.999L481.202 384.835C486.034 383.972 490.62 387.128 491.507 391.935Z" fill="#ED8537"/>
<path d="M504.3 465.283C503.709 468.858 500.923 471.841 497.151 472.507L375.011 494.672C371.239 495.362 367.565 493.513 365.766 490.357L431.717 441.269L504.3 465.283Z" fill="#DD6D22"/>
<path d="M491.505 391.935L431.791 452.66L352.649 420.88L352.008 417.28C351.146 412.473 354.326 407.862 359.109 406.999L481.248 384.835C486.031 383.972 490.617 387.128 491.505 391.935Z" fill="#F99746"/>
<path d="M576.369 477.364C579.328 475.786 583.272 468.143 576.739 456.383C570.205 444.647 549.939 453.843 549.939 453.843C549.939 453.843 540.965 479.46 536.897 481.013C532.829 482.566 540.299 457.616 540.299 457.616C531.966 458.848 513.721 473.937 513.721 473.937C513.721 473.937 518.356 489.248 518.406 496.324H559.555L574.347 496.373C576.443 490.628 577.207 485.204 577.207 485.204C570.181 489.445 555.511 488.631 554.328 486.141C553.144 483.676 573.41 478.942 576.369 477.364ZM499.052 492.354C498.608 493.759 498.337 495.091 498.238 496.348H514.288C512.119 489.938 511.404 477.044 511.404 477.044C504.131 481.358 499.052 492.354 499.052 492.354Z" fill="#CDE0FB"/>
<path d="M712.007 498H64.9935C64.4604 498 64 497.581 64 497.046V495.953C64 495.442 64.4362 495 64.9935 495H712.007C712.54 495 713 495.419 713 495.953V497.046C713 497.581 712.564 498 712.007 498Z" fill="#2E3552"/>
<path d="M423.856 441.097C424.472 438.829 425.483 437.325 427.603 437.3C430.784 437.275 431.918 439.075 432.436 441.146C433.151 443.932 430.266 444.943 428.146 445.165C425.138 445.461 423.289 443.143 423.856 441.097Z" fill="#2B478B"/>
</g>
<defs>
<clipPath id="clip0_766_2777">
<rect width="737.263" height="498" fill="white"/>
</clipPath>
</defs>
</svg>
