<svg width="48" height="48" viewBox="0 0 48 48" fill="none" xmlns="http://www.w3.org/2000/svg">
<g clip-path="url(#clip0_691_14822)">
<path d="M24 48C37.2548 48 48 37.2548 48 24C48 10.7452 37.2548 0 24 0C10.7452 0 0 10.7452 0 24C0 37.2548 10.7452 48 24 48Z" fill="#D7FBE9"/>
<g filter="url(#filter0_i_691_14822)">
<path d="M16.4091 35V32.9545L24.0909 24.5455C24.9924 23.5606 25.7348 22.7045 26.3182 21.9773C26.9015 21.2424 27.3333 20.553 27.6136 19.9091C27.9015 19.2576 28.0455 18.5758 28.0455 17.8636C28.0455 17.0455 27.8485 16.3371 27.4545 15.7386C27.0682 15.1402 26.5379 14.678 25.8636 14.3523C25.1894 14.0265 24.4318 13.8636 23.5909 13.8636C22.697 13.8636 21.9167 14.0492 21.25 14.4205C20.5909 14.7841 20.0795 15.2955 19.7159 15.9545C19.3598 16.6136 19.1818 17.3864 19.1818 18.2727H16.5C16.5 16.9091 16.8144 15.7121 17.4432 14.6818C18.072 13.6515 18.928 12.8485 20.0114 12.2727C21.1023 11.697 22.3258 11.4091 23.6818 11.4091C25.0455 11.4091 26.2538 11.697 27.3068 12.2727C28.3598 12.8485 29.1856 13.625 29.7841 14.6023C30.3826 15.5795 30.6818 16.6667 30.6818 17.8636C30.6818 18.7197 30.5265 19.5568 30.2159 20.375C29.9129 21.1856 29.3826 22.0909 28.625 23.0909C27.875 24.0833 26.8333 25.2955 25.5 26.7273L20.2727 32.3182V32.5H31.0909V35H16.4091Z" fill="#1AD079"/>
</g>
</g>
<defs>
<filter id="filter0_i_691_14822" x="16.4102" y="11.4092" width="14.6797" height="26.5908" filterUnits="userSpaceOnUse" color-interpolation-filters="sRGB">
<feFlood flood-opacity="0" result="BackgroundImageFix"/>
<feBlend mode="normal" in="SourceGraphic" in2="BackgroundImageFix" result="shape"/>
<feColorMatrix in="SourceAlpha" type="matrix" values="0 0 0 0 0 0 0 0 0 0 0 0 0 0 0 0 0 0 127 0" result="hardAlpha"/>
<feOffset dy="3"/>
<feGaussianBlur stdDeviation="2"/>
<feComposite in2="hardAlpha" operator="arithmetic" k2="-1" k3="1"/>
<feColorMatrix type="matrix" values="0 0 0 0 0.0395695 0 0 0 0 0.616667 0 0 0 0 0.374286 0 0 0 0.59 0"/>
<feBlend mode="normal" in2="shape" result="effect1_innerShadow_691_14822"/>
</filter>
<clipPath id="clip0_691_14822">
<rect width="48" height="48" fill="white"/>
</clipPath>
</defs>
</svg>
