<svg width="48" height="48" viewBox="0 0 48 48" fill="none" xmlns="http://www.w3.org/2000/svg">
<g clip-path="url(#clip0_691_14831)">
<path d="M24 48C37.2548 48 48 37.2548 48 24C48 10.7452 37.2548 0 24 0C10.7452 0 0 10.7452 0 24C0 37.2548 10.7452 48 24 48Z" fill="#D7FBE9"/>
<g filter="url(#filter0_i_691_14831)">
<path d="M23.2727 36.3182C21.7727 36.3182 20.4356 36.0606 19.2614 35.5455C18.0947 35.0303 17.1667 34.3144 16.4773 33.3977C15.7955 32.4735 15.4242 31.4015 15.3636 30.1818H18.2273C18.2879 30.9318 18.5455 31.5795 19 32.125C19.4545 32.6629 20.0492 33.0795 20.7841 33.375C21.5189 33.6705 22.3333 33.8182 23.2273 33.8182C24.2273 33.8182 25.1136 33.6439 25.8864 33.2955C26.6591 32.947 27.2652 32.4621 27.7045 31.8409C28.1439 31.2197 28.3636 30.5 28.3636 29.6818C28.3636 28.8258 28.1515 28.072 27.7273 27.4205C27.303 26.7614 26.6818 26.2462 25.8636 25.875C25.0455 25.5038 24.0455 25.3182 22.8636 25.3182H21V22.8182H22.8636C23.7879 22.8182 24.5985 22.6515 25.2955 22.3182C26 21.9848 26.5492 21.5152 26.9432 20.9091C27.3447 20.303 27.5455 19.5909 27.5455 18.7727C27.5455 17.9848 27.3712 17.2992 27.0227 16.7159C26.6742 16.1326 26.1818 15.678 25.5455 15.3523C24.9167 15.0265 24.1742 14.8636 23.3182 14.8636C22.5152 14.8636 21.7576 15.0114 21.0455 15.3068C20.3409 15.5947 19.7652 16.0152 19.3182 16.5682C18.8712 17.1136 18.6288 17.7727 18.5909 18.5455H15.8636C15.9091 17.3258 16.2765 16.2576 16.9659 15.3409C17.6553 14.4167 18.5568 13.697 19.6705 13.1818C20.7917 12.6667 22.0227 12.4091 23.3636 12.4091C24.803 12.4091 26.0379 12.7008 27.0682 13.2841C28.0985 13.8598 28.8902 14.6212 29.4432 15.5682C29.9962 16.5152 30.2727 17.5379 30.2727 18.6364C30.2727 19.947 29.928 21.0644 29.2386 21.9886C28.5568 22.9129 27.6288 23.553 26.4545 23.9091V24.0909C27.9242 24.3333 29.072 24.9583 29.8977 25.9659C30.7235 26.9659 31.1364 28.2045 31.1364 29.6818C31.1364 30.947 30.7917 32.0833 30.1023 33.0909C29.4205 34.0909 28.4886 34.8788 27.3068 35.4545C26.125 36.0303 24.7803 36.3182 23.2727 36.3182Z" fill="#1AD079"/>
</g>
</g>
<defs>
<filter id="filter0_i_691_14831" x="15.3633" y="12.4092" width="15.7734" height="26.9089" filterUnits="userSpaceOnUse" color-interpolation-filters="sRGB">
<feFlood flood-opacity="0" result="BackgroundImageFix"/>
<feBlend mode="normal" in="SourceGraphic" in2="BackgroundImageFix" result="shape"/>
<feColorMatrix in="SourceAlpha" type="matrix" values="0 0 0 0 0 0 0 0 0 0 0 0 0 0 0 0 0 0 127 0" result="hardAlpha"/>
<feOffset dy="3"/>
<feGaussianBlur stdDeviation="2"/>
<feComposite in2="hardAlpha" operator="arithmetic" k2="-1" k3="1"/>
<feColorMatrix type="matrix" values="0 0 0 0 0.0395695 0 0 0 0 0.616667 0 0 0 0 0.374286 0 0 0 0.59 0"/>
<feBlend mode="normal" in2="shape" result="effect1_innerShadow_691_14831"/>
</filter>
<clipPath id="clip0_691_14831">
<rect width="48" height="48" fill="white"/>
</clipPath>
</defs>
</svg>
