<svg width="48" height="48" viewBox="0 0 48 48" fill="none" xmlns="http://www.w3.org/2000/svg">
<g clip-path="url(#clip0_691_14852)">
<path d="M24 48C37.2548 48 48 37.2548 48 24C48 10.7452 37.2548 0 24 0C10.7452 0 0 10.7452 0 24C0 37.2548 10.7452 48 24 48Z" fill="#D7FBE9"/>
<g filter="url(#filter0_i_691_14852)">
<path d="M23.6818 36.3182C22.3485 36.3182 21.1477 36.053 20.0795 35.5227C19.0114 34.9924 18.1553 34.2652 17.5114 33.3409C16.8674 32.4167 16.5152 31.3636 16.4545 30.1818H19.1818C19.2879 31.2348 19.7652 32.1061 20.6136 32.7955C21.4697 33.4773 22.4924 33.8182 23.6818 33.8182C24.6364 33.8182 25.4848 33.5947 26.2273 33.1477C26.9773 32.7008 27.5644 32.0871 27.9886 31.3068C28.4205 30.5189 28.6364 29.6288 28.6364 28.6364C28.6364 27.6212 28.4129 26.7159 27.9659 25.9205C27.5265 25.1174 26.9205 24.4848 26.1477 24.0227C25.375 23.5606 24.4924 23.3258 23.5 23.3182C22.7879 23.3106 22.0568 23.4205 21.3068 23.6477C20.5568 23.8674 19.9394 24.1515 19.4545 24.5L16.8182 24.1818L18.2273 12.7273H30.3182V15.2273H20.5909L19.7727 22.0909H19.9091C20.3864 21.7121 20.9848 21.3977 21.7045 21.1477C22.4242 20.8977 23.1742 20.7727 23.9545 20.7727C25.3788 20.7727 26.6477 21.1136 27.7614 21.7955C28.8826 22.4697 29.7614 23.3939 30.3977 24.5682C31.0417 25.7424 31.3636 27.0833 31.3636 28.5909C31.3636 30.0758 31.0303 31.4015 30.3636 32.5682C29.7045 33.7273 28.7955 34.6439 27.6364 35.3182C26.4773 35.9848 25.1591 36.3182 23.6818 36.3182Z" fill="#1AD079"/>
</g>
</g>
<defs>
<filter id="filter0_i_691_14852" x="16.4531" y="12.7273" width="14.9102" height="26.5908" filterUnits="userSpaceOnUse" color-interpolation-filters="sRGB">
<feFlood flood-opacity="0" result="BackgroundImageFix"/>
<feBlend mode="normal" in="SourceGraphic" in2="BackgroundImageFix" result="shape"/>
<feColorMatrix in="SourceAlpha" type="matrix" values="0 0 0 0 0 0 0 0 0 0 0 0 0 0 0 0 0 0 127 0" result="hardAlpha"/>
<feOffset dy="3"/>
<feGaussianBlur stdDeviation="2"/>
<feComposite in2="hardAlpha" operator="arithmetic" k2="-1" k3="1"/>
<feColorMatrix type="matrix" values="0 0 0 0 0.0395695 0 0 0 0 0.616667 0 0 0 0 0.374286 0 0 0 0.59 0"/>
<feBlend mode="normal" in2="shape" result="effect1_innerShadow_691_14852"/>
</filter>
<clipPath id="clip0_691_14852">
<rect width="48" height="48" fill="white"/>
</clipPath>
</defs>
</svg>
