<svg width="272" height="203" viewBox="0 0 272 203" fill="none" xmlns="http://www.w3.org/2000/svg">
<g clip-path="url(#clip0_691_14901)">
<path opacity="0.7" d="M36.9543 56.4598C36.9543 56.4598 21.7876 91.0797 43.1015 125.94C64.4154 160.8 108.316 179.216 143.453 194.963C178.59 210.711 215.076 203.041 232.414 177.249C249.751 151.458 225.973 133.047 225.94 96.2679C225.907 59.4891 232.169 49.7522 209.62 18.6809C187.071 -12.3904 131.795 -19.2711 89.9943 3.77514C48.1933 26.8214 36.9543 56.4598 36.9543 56.4598Z" fill="white"/>
<path d="M124.17 0.794066C191.626 -4.49508 191.762 29.1295 222.161 60.4797C252.559 91.8299 259.071 106.038 247.609 142.178C236.147 178.317 197.528 206.643 149.749 190.593C101.969 174.543 74.6008 189.953 44.4632 175.687C14.3256 161.421 3.11917 133.893 25.2001 101.442C47.2811 68.9904 40.9707 7.34299 124.17 0.794066Z" fill="#D9E3F6"/>
<path opacity="0.7" d="M124.17 0.794066C191.626 -4.49508 191.762 29.1295 222.161 60.4797C252.559 91.8299 259.071 106.038 247.609 142.178C236.147 178.317 197.528 206.643 149.749 190.593C101.969 174.543 74.6008 189.953 44.4632 175.687C14.3256 161.421 3.11917 133.893 25.2001 101.442C47.2811 68.9904 40.9707 7.34299 124.17 0.794066Z" fill="white"/>
<path d="M139.484 3.00417L128.385 5.06972C126.889 5.34821 125.931 6.64622 126.246 7.9689L128.583 17.7791C128.898 19.1018 130.367 19.9483 131.863 19.6698L142.962 17.6043C144.459 17.3258 145.416 16.0278 145.101 14.7051L142.764 4.89484C142.449 3.57216 140.981 2.72568 139.484 3.00417Z" stroke="#263238" stroke-linecap="round" stroke-linejoin="round"/>
<path d="M134.969 8.35742L136.383 14.3101" stroke="#263238" stroke-linecap="round" stroke-linejoin="round"/>
<path d="M139.043 10.7036L132.309 11.9586" stroke="#263238" stroke-linecap="round" stroke-linejoin="round"/>
<path d="M251.371 107.895L240.272 109.96C238.776 110.239 237.818 111.537 238.133 112.859L240.47 122.67C240.785 123.992 242.254 124.839 243.75 124.56L254.849 122.495C256.345 122.216 257.303 120.918 256.988 119.595L254.651 109.785C254.336 108.463 252.868 107.616 251.371 107.895Z" stroke="#263238" stroke-linecap="round" stroke-linejoin="round"/>
<path d="M249.447 113.669L245.688 118.766" stroke="#263238" stroke-linecap="round" stroke-linejoin="round"/>
<path d="M250.446 117.881L244.68 114.554" stroke="#263238" stroke-linecap="round" stroke-linejoin="round"/>
<path d="M101.514 171.754L90.1713 171.153C88.642 171.072 87.328 172.102 87.2362 173.453L86.5557 183.479C86.4639 184.83 87.6292 185.992 89.1585 186.073L100.501 186.674C102.03 186.756 103.344 185.726 103.436 184.374L104.117 174.349C104.208 172.997 103.043 171.835 101.514 171.754Z" stroke="#263238" stroke-width="1.0018" stroke-linecap="round" stroke-linejoin="round"/>
<path d="M99.1613 178.552L92.2852 178.201" stroke="#263238" stroke-linecap="round" stroke-linejoin="round"/>
<path d="M33.8407 101.971L23.0738 98.8178C21.6221 98.3927 20.0554 99.0882 19.5745 100.371L16.0074 109.888C15.5265 111.171 16.3134 112.556 17.7651 112.981L28.532 116.134C29.9837 116.559 31.5503 115.863 32.0313 114.58L35.5983 105.064C36.0793 103.78 35.2923 102.396 33.8407 101.971Z" stroke="#263238" stroke-linecap="round" stroke-linejoin="round"/>
<path d="M30.1076 105.567L21.4961 109.389" stroke="#263238" stroke-linecap="round" stroke-linejoin="round"/>
<path d="M25.1706 104.018C25.2739 104.206 25.3121 104.417 25.2804 104.624C25.2487 104.832 25.1486 105.026 24.9925 105.183C24.8365 105.34 24.6314 105.453 24.4031 105.508C24.1747 105.562 23.9332 105.556 23.7088 105.49C23.4844 105.424 23.287 105.301 23.1414 105.136C22.9958 104.971 22.9084 104.772 22.8903 104.564C22.8721 104.355 22.9239 104.147 23.0392 103.964C23.1546 103.782 23.3283 103.633 23.5386 103.537C23.6809 103.472 23.8367 103.432 23.9967 103.421C24.1567 103.41 24.3176 103.427 24.4699 103.472C24.6221 103.517 24.7626 103.588 24.883 103.682C25.0034 103.776 25.1012 103.89 25.1706 104.018Z" stroke="#263238" stroke-linecap="round" stroke-linejoin="round"/>
<path d="M28.5846 110.01C28.6879 110.198 28.7261 110.409 28.6944 110.616C28.6628 110.823 28.5626 111.018 28.4066 111.175C28.2505 111.332 28.0455 111.445 27.8171 111.5C27.5888 111.554 27.3473 111.548 27.1228 111.482C26.8984 111.416 26.701 111.293 26.5555 111.128C26.4099 110.963 26.3225 110.764 26.3043 110.555C26.2862 110.347 26.338 110.138 26.4533 109.956C26.5686 109.773 26.7423 109.625 26.9526 109.529C27.095 109.464 27.2508 109.424 27.4108 109.413C27.5708 109.402 27.7317 109.419 27.884 109.464C28.0362 109.509 28.1767 109.58 28.2971 109.674C28.4175 109.768 28.5152 109.882 28.5846 110.01Z" stroke="#263238" stroke-linecap="round" stroke-linejoin="round"/>
<path d="M140.192 168.83C139.066 170.271 137.482 171.385 135.64 172.031C133.798 172.676 131.78 172.825 129.843 172.457C127.905 172.089 126.135 171.222 124.755 169.965C123.375 168.708 122.448 167.118 122.09 165.395C121.733 163.672 121.961 161.894 122.747 160.286C123.532 158.678 124.84 157.312 126.503 156.361C128.167 155.41 130.113 154.916 132.094 154.941C134.076 154.967 136.004 155.512 137.635 156.506C139.823 157.841 141.321 159.889 141.8 162.2C142.28 164.511 141.701 166.896 140.192 168.83Z" fill="#D9E3F6"/>
<mask id="mask0_691_14901" style="mask-type:luminance" maskUnits="userSpaceOnUse" x="121" y="154" width="21" height="19">
<path d="M140.192 168.83C139.066 170.271 137.482 171.385 135.64 172.031C133.798 172.676 131.78 172.825 129.843 172.457C127.905 172.089 126.135 171.222 124.755 169.965C123.375 168.708 122.448 167.118 122.09 165.395C121.733 163.672 121.961 161.894 122.747 160.286C123.532 158.678 124.84 157.312 126.503 156.361C128.167 155.41 130.113 154.916 132.094 154.941C134.076 154.967 136.004 155.512 137.635 156.506C139.823 157.841 141.321 159.889 141.8 162.2C142.28 164.511 141.701 166.896 140.192 168.83Z" fill="white"/>
</mask>
<g mask="url(#mask0_691_14901)">
<path opacity="0.3" d="M138.887 168.032C137.938 169.244 136.605 170.18 135.054 170.723C133.504 171.265 131.806 171.389 130.176 171.078C128.546 170.768 127.056 170.037 125.896 168.979C124.736 167.921 123.956 166.582 123.657 165.132C123.357 163.682 123.551 162.186 124.213 160.834C124.875 159.481 125.976 158.332 127.376 157.532C128.777 156.733 130.415 156.318 132.082 156.341C133.749 156.364 135.371 156.823 136.743 157.66C138.583 158.785 139.842 160.509 140.244 162.454C140.646 164.399 140.158 166.405 138.887 168.032Z" fill="black" fill-opacity="0.7"/>
<path d="M138.887 168.032C137.938 169.244 136.605 170.18 135.054 170.723C133.504 171.265 131.806 171.389 130.176 171.078C128.546 170.768 127.056 170.037 125.896 168.979C124.736 167.921 123.956 166.582 123.657 165.132C123.357 163.682 123.551 162.186 124.213 160.834C124.875 159.481 125.976 158.332 127.376 157.532C128.777 156.733 130.415 156.318 132.082 156.341C133.749 156.364 135.371 156.823 136.743 157.66C138.583 158.785 139.842 160.509 140.244 162.454C140.646 164.399 140.158 166.405 138.887 168.032Z" stroke="#263238" stroke-linecap="round" stroke-linejoin="round"/>
<path d="M134.11 160.069L134.518 159.555L135.529 160.17L135.121 160.689C135.878 161.387 135.861 162.257 135.121 163.199L134.947 163.421L133.778 162.704L134.006 162.416C134.393 161.935 134.316 161.593 133.925 161.353C133.533 161.113 133.158 161.161 132.766 161.661C132.374 162.161 132.331 162.622 132.706 163.738C133.158 165.075 133.076 165.834 132.456 166.623C131.716 167.585 130.78 167.892 129.779 167.517L129.382 168.022L128.387 167.411L128.784 166.902C128.017 166.2 128.044 165.32 128.784 164.373L129.154 163.892L130.323 164.608L129.899 165.152C129.507 165.632 129.616 165.979 130.008 166.224C130.4 166.469 130.791 166.435 131.183 165.935C131.575 165.435 131.624 164.945 131.243 163.858C130.78 162.536 130.867 161.767 131.493 160.973C132.195 160.04 133.114 159.709 134.11 160.069Z" fill="#D9E3F6" stroke="#263238" stroke-linecap="round" stroke-linejoin="round"/>
<path opacity="0.2" d="M129.154 156.612C129.155 158.683 128.547 160.718 127.389 162.518C126.231 164.317 124.564 165.82 122.55 166.878C122.072 165.742 121.863 164.531 121.936 163.321C122.009 162.111 122.363 160.927 122.975 159.842C123.587 158.757 124.444 157.795 125.494 157.016C126.544 156.236 127.764 155.655 129.078 155.309C129.131 155.742 129.156 156.177 129.154 156.612Z" fill="black" fill-opacity="0.7"/>
</g>
<path d="M140.192 168.83C139.066 170.271 137.482 171.385 135.64 172.031C133.798 172.676 131.78 172.825 129.843 172.457C127.905 172.089 126.135 171.222 124.755 169.965C123.375 168.708 122.448 167.118 122.09 165.395C121.733 163.672 121.961 161.894 122.747 160.286C123.532 158.678 124.84 157.312 126.503 156.361C128.167 155.41 130.113 154.916 132.094 154.941C134.076 154.967 136.004 155.512 137.635 156.506C139.823 157.841 141.321 159.889 141.8 162.2C142.28 164.511 141.701 166.896 140.192 168.83Z" stroke="#263238" stroke-linecap="round" stroke-linejoin="round"/>
<path d="M117.635 165.2C123.172 165.2 127.661 161.232 127.661 156.338C127.661 151.444 123.172 147.477 117.635 147.477C112.098 147.477 107.609 151.444 107.609 156.338C107.609 161.232 112.098 165.2 117.635 165.2Z" fill="#D9E3F6" stroke="#263238" stroke-linecap="round" stroke-linejoin="round"/>
<path opacity="0.3" d="M117.635 163.791C122.292 163.791 126.067 160.454 126.067 156.338C126.067 152.222 122.292 148.885 117.635 148.885C112.978 148.885 109.203 152.222 109.203 156.338C109.203 160.454 112.978 163.791 117.635 163.791Z" fill="black" fill-opacity="0.7"/>
<path d="M117.635 163.791C122.292 163.791 126.067 160.454 126.067 156.338C126.067 152.222 122.292 148.885 117.635 148.885C112.978 148.885 109.203 152.222 109.203 156.338C109.203 160.454 112.978 163.791 117.635 163.791Z" stroke="#263238" stroke-linecap="round" stroke-linejoin="round"/>
<path d="M117.022 152.189V151.563H118.251V152.189C119.339 152.386 119.883 153.107 119.883 154.256V154.506H118.458V154.155C118.458 153.549 118.186 153.319 117.707 153.319C117.229 153.319 116.957 153.549 116.957 154.155C116.957 154.761 117.229 155.179 118.24 155.896C119.47 156.766 119.872 157.43 119.872 158.396C119.872 159.545 119.328 160.286 118.24 160.478V161.094H117.011V160.478C115.923 160.286 115.379 159.545 115.379 158.396V157.819H116.799V158.483C116.799 159.088 117.098 159.305 117.577 159.305C118.055 159.305 118.36 159.088 118.36 158.483C118.36 157.877 118.088 157.444 117.071 156.742C115.841 155.881 115.439 155.208 115.439 154.237C115.433 153.121 115.966 152.395 117.022 152.189Z" fill="#D9E3F6" stroke="#263238" stroke-linecap="round" stroke-linejoin="round"/>
<path d="M173.902 163.781C176.889 159.66 175.531 154.179 170.869 151.539C166.207 148.898 160.006 150.098 157.018 154.219C154.031 158.34 155.389 163.821 160.051 166.462C164.713 169.102 170.914 167.902 173.902 163.781Z" fill="#D9E3F6" stroke="#263238" stroke-linecap="round" stroke-linejoin="round"/>
<path opacity="0.3" d="M171.637 153.933C172.772 155.013 173.519 156.367 173.784 157.822C174.049 159.277 173.82 160.77 173.125 162.11C172.431 163.45 171.302 164.578 169.882 165.352C168.462 166.125 166.814 166.508 165.148 166.454C163.481 166.399 161.87 165.909 160.518 165.045C159.167 164.182 158.136 162.983 157.555 161.601C156.974 160.219 156.87 158.716 157.256 157.282C157.642 155.848 158.501 154.547 159.723 153.544C160.534 152.877 161.485 152.358 162.523 152.017C163.561 151.675 164.665 151.518 165.771 151.554C166.878 151.591 167.965 151.819 168.972 152.228C169.978 152.636 170.884 153.215 171.637 153.933Z" fill="black" fill-opacity="0.7"/>
<path d="M171.637 153.933C172.772 155.013 173.519 156.367 173.784 157.822C174.049 159.277 173.82 160.77 173.125 162.11C172.431 163.45 171.302 164.578 169.882 165.352C168.462 166.125 166.814 166.508 165.148 166.454C163.481 166.399 161.87 165.909 160.518 165.045C159.167 164.182 158.136 162.983 157.555 161.601C156.974 160.219 156.87 158.716 157.256 157.282C157.642 155.848 158.501 154.547 159.723 153.544C160.534 152.877 161.485 152.358 162.523 152.017C163.561 151.675 164.665 151.518 165.771 151.554C166.878 151.591 167.965 151.819 168.972 152.228C169.978 152.636 170.884 153.215 171.637 153.933Z" stroke="#263238" stroke-linecap="round" stroke-linejoin="round"/>
<path d="M161.82 156.338L161.336 155.857L162.234 155.116L162.718 155.597C163.653 155.116 164.611 155.299 165.492 156.14L165.699 156.333L164.66 157.189L164.388 156.934C163.92 156.491 163.545 156.487 163.196 156.775C162.848 157.064 162.821 157.395 163.283 157.838C163.746 158.28 164.279 158.424 165.568 158.343C167.14 158.237 167.962 158.468 168.707 159.179C169.588 160.021 169.746 160.896 169.115 161.68L169.588 162.132L168.685 162.872L168.212 162.42C167.271 162.93 166.303 162.718 165.421 161.877L164.97 161.454L166.014 160.598L166.526 161.079C166.994 161.521 167.38 161.502 167.733 161.213C168.087 160.925 168.136 160.583 167.668 160.141C167.2 159.699 166.667 159.545 165.389 159.66C163.822 159.771 162.99 159.53 162.25 158.819C161.374 157.972 161.205 157.121 161.82 156.338Z" fill="#D9E3F6" stroke="#263238" stroke-linecap="round" stroke-linejoin="round"/>
<path opacity="0.2" d="M161.336 120.487C161.336 120.487 161.292 138.874 161.336 139.946C161.379 141.018 162.968 147.476 162.968 147.476L157.914 155.708L162.266 158.804L170.725 151.457C170.725 151.457 177.928 155.386 179.244 161.011C180.561 166.637 188.4 170.734 196.533 186.313C204.665 201.892 213.941 151.457 213.941 151.457L188.846 123.53L161.336 120.487Z" fill="black" fill-opacity="0.7"/>
<path d="M238.051 21.7051L230.364 88.0022L225.637 128.786L159.574 122.805L146.719 121.641L138.488 120.896L145.783 57.955L150.902 13.8147L238.051 21.7051Z" fill="white"/>
<mask id="mask1_691_14901" style="mask-type:luminance" maskUnits="userSpaceOnUse" x="138" y="13" width="101" height="116">
<path d="M238.051 21.7051L230.364 88.0022L225.637 128.786L159.574 122.805L146.719 121.641L138.488 120.896L145.783 57.955L150.902 13.8147L238.051 21.7051Z" fill="white"/>
</mask>
<g mask="url(#mask1_691_14901)">
<path d="M212.74 24.2006L175.123 20.7915C174.955 20.7764 174.785 20.7906 174.623 20.8334C174.462 20.8762 174.311 20.9467 174.18 21.0409C174.05 21.1351 173.941 21.2512 173.861 21.3824C173.781 21.5137 173.731 21.6577 173.714 21.8061C173.697 21.9545 173.713 22.1044 173.761 22.2473C173.809 22.3902 173.889 22.5232 173.996 22.6389C174.102 22.7545 174.234 22.8505 174.382 22.9213C174.531 22.992 174.694 23.0363 174.862 23.0514L212.479 26.4605C212.818 26.4911 213.157 26.4014 213.421 26.2112C213.686 26.0209 213.853 25.7456 213.888 25.446C213.923 25.1463 213.821 24.8467 213.606 24.6132C213.391 24.3796 213.079 24.2312 212.74 24.2006Z" fill="#263238"/>
<path d="M202.798 27.9753L183.992 26.2684C183.821 26.2536 183.652 26.2989 183.519 26.3944C183.387 26.4898 183.302 26.6278 183.284 26.7781C183.276 26.8523 183.284 26.9272 183.309 26.9985C183.333 27.0699 183.374 27.1362 183.427 27.1938C183.481 27.2514 183.547 27.2991 183.621 27.3342C183.695 27.3693 183.777 27.3911 183.861 27.3983L202.667 29.1053C202.837 29.1201 203.007 29.0748 203.14 28.9793C203.272 28.8838 203.356 28.7459 203.374 28.5956C203.383 28.5213 203.375 28.4461 203.351 28.3745C203.327 28.3029 203.287 28.2363 203.233 28.1785C203.179 28.1208 203.113 28.0731 203.039 28.0382C202.964 28.0033 202.882 27.9819 202.798 27.9753Z" fill="#263238"/>
<path d="M223.492 76.9047L162.433 71.3752C162.268 71.3586 162.101 71.3995 161.969 71.4892C161.837 71.579 161.75 71.7105 161.726 71.856C161.709 72.0064 161.76 72.1565 161.868 72.2736C161.976 72.3907 162.132 72.4653 162.302 72.4811L223.361 78.0539C223.445 78.0612 223.53 78.0538 223.61 78.0322C223.691 78.0105 223.766 77.975 223.831 77.9276C223.897 77.8803 223.951 77.8221 223.99 77.7563C224.03 77.6905 224.055 77.6185 224.063 77.5442C224.075 77.4688 224.07 77.392 224.047 77.3184C224.025 77.2449 223.986 77.1761 223.932 77.1163C223.879 77.0565 223.812 77.0069 223.736 76.9705C223.661 76.9342 223.577 76.9118 223.492 76.9047Z" fill="#263238"/>
<path d="M223.041 80.9676L152.022 74.5389C151.939 74.5309 151.854 74.5377 151.773 74.5588C151.693 74.5799 151.617 74.615 151.552 74.6619C151.487 74.7089 151.433 74.7668 151.393 74.8323C151.353 74.8979 151.329 74.9697 151.32 75.0438C151.302 75.19 151.348 75.3369 151.45 75.4535C151.551 75.5701 151.7 75.6473 151.864 75.6688L222.862 82.0976C222.946 82.1051 223.031 82.098 223.112 82.0766C223.192 82.0552 223.268 82.02 223.333 81.9729C223.398 81.9258 223.453 81.8677 223.493 81.8021C223.533 81.7364 223.558 81.6645 223.566 81.5903C223.575 81.5161 223.567 81.4411 223.543 81.3697C223.519 81.2982 223.479 81.2317 223.425 81.1739C223.372 81.1161 223.306 81.0681 223.232 81.0327C223.158 80.9973 223.076 80.9752 222.992 80.9676H223.041Z" fill="#263238"/>
<path d="M202.671 83.232L151.535 78.6016C151.365 78.5856 151.196 78.6299 151.063 78.7246C150.93 78.8192 150.846 78.9566 150.828 79.1065C150.81 79.2563 150.86 79.4063 150.967 79.5236C151.074 79.6408 151.229 79.7156 151.399 79.7315L202.535 84.3619C202.619 84.3692 202.704 84.3618 202.784 84.3402C202.865 84.3185 202.94 84.283 203.005 84.2357C203.071 84.1883 203.125 84.1301 203.164 84.0643C203.204 83.9985 203.229 83.9265 203.237 83.8523C203.246 83.7787 203.238 83.7042 203.215 83.6332C203.191 83.5622 203.152 83.496 203.1 83.4383C203.047 83.3807 202.982 83.3328 202.909 83.2974C202.835 83.262 202.754 83.2398 202.671 83.232Z" fill="#263238"/>
<path d="M150.753 82.9837L148.676 100.902L220.251 107.384L222.328 89.4656L150.753 82.9837Z" fill="#BFBFBF" stroke="#263238" stroke-miterlimit="10"/>
<path d="M183.574 62.2493C190.335 57.2705 191.249 48.39 185.616 42.4141C179.983 36.4383 169.936 35.6301 163.175 40.609C156.414 45.5879 155.5 54.4684 161.133 60.4442C166.766 66.42 176.813 67.2282 183.574 62.2493Z" fill="#D9E3F6"/>
<mask id="mask2_691_14901" style="mask-type:luminance" maskUnits="userSpaceOnUse" x="157" y="37" width="33" height="29">
<path d="M183.574 62.2496C190.335 57.2707 191.249 48.3902 185.616 42.4144C179.983 36.4386 169.936 35.6304 163.175 40.6092C156.414 45.5881 155.5 54.4686 161.133 60.4444C166.766 66.4202 176.813 67.2284 183.574 62.2496Z" fill="white"/>
</mask>
<g mask="url(#mask2_691_14901)">
<path opacity="0.5" d="M183.574 62.2496C190.335 57.2707 191.249 48.3902 185.616 42.4144C179.983 36.4386 169.936 35.6304 163.175 40.6092C156.414 45.5881 155.5 54.4686 161.133 60.4444C166.766 66.4202 176.813 67.2284 183.574 62.2496Z" fill="white"/>
</g>
<path d="M183.574 62.2493C190.335 57.2705 191.249 48.39 185.616 42.4141C179.983 36.4383 169.936 35.6301 163.175 40.609C156.414 45.5879 155.5 54.4684 161.133 60.4442C166.766 66.42 176.813 67.2282 183.574 62.2493Z" stroke="#263238" stroke-miterlimit="10"/>
<path d="M173.832 51.3967L187.084 57.2869C188.32 55.0173 188.812 52.4867 188.502 49.9826C188.192 47.4785 187.094 45.1014 185.332 43.1216L173.832 51.3967Z" fill="white"/>
<path d="M173.918 50.7616L185.016 42.7798C183.358 41.0348 181.226 39.6911 178.819 38.8755L176.801 43.7319L173.918 50.7616Z" fill="#D9E3F6"/>
<path d="M175.17 38.0872L173.832 49.6848L178.347 38.717C177.317 38.4066 176.252 38.1955 175.17 38.0872Z" fill="#757575"/>
<path d="M173.139 51.2904L174.679 38.0387C172.056 37.844 169.421 38.2534 167.03 39.2269C164.639 40.2004 162.575 41.7049 161.038 43.5936C159.501 45.4823 158.544 47.6908 158.261 50.0038C157.977 52.3167 158.376 54.6552 159.419 56.7911L173.139 51.2904Z" fill="#999999"/>
<path d="M171.823 64.8214C174.849 65.0934 177.897 64.5588 180.576 63.2862C183.255 62.0137 185.441 60.0615 186.854 57.681L173.368 51.6851L159.621 57.205C160.744 59.2939 162.456 61.092 164.593 62.426C166.73 63.7601 169.22 64.585 171.823 64.8214Z" fill="#BFBFBF"/>
<path d="M198.939 42.2912L197.126 42.1271C196.938 42.11 196.77 42.2311 196.75 42.3975L196.564 43.9999C196.545 44.1664 196.682 44.3151 196.87 44.3322L198.683 44.4963C198.872 44.5134 199.04 44.3923 199.059 44.2259L199.245 42.6235C199.264 42.457 199.127 42.3083 198.939 42.2912Z" fill="#D9E3F6" stroke="#263238" stroke-miterlimit="10"/>
<path d="M224.202 45.3957L200.778 43.2753C200.722 43.2529 200.677 43.2159 200.647 43.1693C200.617 43.1227 200.604 43.069 200.611 43.0158C200.618 42.9625 200.643 42.9125 200.684 42.8728C200.724 42.8331 200.778 42.8056 200.837 42.7944L224.262 44.8764C224.333 44.8887 224.396 44.9239 224.438 44.9751C224.481 45.0263 224.501 45.0898 224.493 45.153C224.486 45.2163 224.452 45.2749 224.398 45.3171C224.344 45.3593 224.274 45.3822 224.202 45.3813V45.3957Z" fill="#263238"/>
<path d="M221.781 46.2903L200.652 44.367C200.576 44.3597 200.507 44.3264 200.459 44.2741C200.411 44.2219 200.388 44.155 200.396 44.0881C200.399 44.0548 200.41 44.0224 200.428 43.9928C200.446 43.9633 200.47 43.9372 200.5 43.9161C200.529 43.895 200.563 43.8794 200.599 43.8701C200.636 43.8609 200.674 43.8581 200.712 43.8621L221.84 45.7855C221.911 45.7977 221.974 45.8329 222.017 45.8841C222.06 45.9353 222.079 45.9988 222.072 46.0621C222.064 46.1254 222.03 46.1839 221.976 46.2261C221.922 46.2684 221.853 46.2913 221.781 46.2903Z" fill="#263238"/>
<path d="M198.369 47.2295L196.556 47.0653C196.367 47.0482 196.199 47.1693 196.18 47.3358L195.994 48.9382C195.975 49.1046 196.112 49.2533 196.3 49.2704L198.113 49.4346C198.301 49.4516 198.47 49.3305 198.489 49.1641L198.675 47.5617C198.694 47.3953 198.557 47.2465 198.369 47.2295Z" fill="#757575" stroke="#263238" stroke-linecap="round" stroke-linejoin="round"/>
<path d="M223.629 50.3339L200.194 48.2134C200.123 48.2011 200.06 48.1659 200.017 48.1148C199.975 48.0636 199.955 48.0001 199.963 47.9368C199.97 47.8735 200.004 47.815 200.058 47.7727C200.112 47.7305 200.182 47.7076 200.253 47.7085L223.673 49.829C223.749 49.8363 223.819 49.8695 223.867 49.9216C223.916 49.9737 223.94 50.0405 223.934 50.1079C223.926 50.1729 223.889 50.2327 223.833 50.2747C223.776 50.3168 223.703 50.338 223.629 50.3339Z" fill="#263238"/>
<path d="M221.202 51.2325L200.079 49.3092C200.002 49.3028 199.932 49.2698 199.883 49.2175C199.834 49.1652 199.81 49.0979 199.818 49.0303C199.825 48.9627 199.862 48.9004 199.921 48.8571C199.981 48.8138 200.057 48.7931 200.133 48.7995L221.262 50.7228C221.3 50.7263 221.337 50.7363 221.37 50.7523C221.404 50.7683 221.433 50.79 221.457 50.8161C221.481 50.8423 221.499 50.8723 221.51 50.9045C221.521 50.9368 221.524 50.9706 221.521 51.0041C221.517 51.0375 221.505 51.07 221.487 51.0996C221.469 51.1292 221.445 51.1553 221.415 51.1765C221.385 51.1977 221.351 51.2136 221.315 51.2232C221.278 51.2328 221.24 51.236 221.202 51.2325Z" fill="#263238"/>
<path d="M197.798 52.1723L195.985 52.0082C195.797 51.9911 195.629 52.1122 195.61 52.2786L195.424 53.881C195.405 54.0475 195.542 54.1962 195.73 54.2133L197.543 54.3774C197.731 54.3945 197.899 54.2734 197.919 54.107L198.104 52.5046C198.124 52.3381 197.987 52.1894 197.798 52.1723Z" fill="#999999" stroke="#263238" stroke-linecap="round" stroke-linejoin="round"/>
<path d="M223.043 55.277L199.651 53.1517C199.611 53.1512 199.572 53.1433 199.535 53.1286C199.499 53.1138 199.466 53.0925 199.44 53.0661C199.413 53.0396 199.393 53.0085 199.381 52.9748C199.369 52.9412 199.365 52.9056 199.369 52.8704C199.373 52.8352 199.385 52.8011 199.405 52.7704C199.425 52.7397 199.452 52.713 199.484 52.6919C199.516 52.6709 199.553 52.6561 199.592 52.6483C199.631 52.6405 199.672 52.64 199.711 52.6469L223.13 54.7673C223.168 54.7708 223.205 54.7808 223.238 54.7969C223.272 54.8129 223.301 54.8346 223.325 54.8607C223.349 54.8868 223.367 54.9168 223.378 54.9491C223.389 54.9813 223.393 55.0152 223.389 55.0486C223.385 55.0821 223.373 55.1145 223.355 55.1441C223.337 55.1737 223.313 55.1999 223.283 55.2211C223.254 55.2423 223.22 55.2581 223.183 55.2677C223.147 55.2773 223.108 55.2805 223.07 55.277H223.043Z" fill="#263238"/>
<path d="M220.632 56.1711L199.503 54.2478C199.428 54.2405 199.358 54.2072 199.31 54.1549C199.263 54.1027 199.24 54.0358 199.248 53.9689C199.256 53.9017 199.293 53.84 199.352 53.7969C199.411 53.7538 199.487 53.7327 199.563 53.7381L220.692 55.6615C220.768 55.6685 220.839 55.7021 220.887 55.7548C220.936 55.8076 220.958 55.8752 220.95 55.9428C220.942 56.0103 220.905 56.0724 220.845 56.1152C220.785 56.158 220.709 56.1782 220.632 56.1711Z" fill="#263238"/>
<path d="M197.228 57.1145L195.415 56.9503C195.227 56.9333 195.059 57.0543 195.039 57.2208L194.854 58.8232C194.834 58.9896 194.971 59.1383 195.16 59.1554L196.972 59.3196C197.161 59.3366 197.329 59.2155 197.348 59.0491L197.534 57.4467C197.553 57.2803 197.416 57.1315 197.228 57.1145Z" fill="#BFBFBF" stroke="#263238" stroke-miterlimit="10"/>
<path d="M222.498 60.2152L199.079 58.0947C199.041 58.0917 199.004 58.0821 198.97 58.0664C198.937 58.0508 198.907 58.0293 198.883 58.0034C198.858 57.9775 198.84 57.9475 198.829 57.9154C198.818 57.8832 198.814 57.8494 198.818 57.8159C198.826 57.7487 198.864 57.6869 198.923 57.6438C198.981 57.6008 199.057 57.5797 199.133 57.5851L222.558 59.7103C222.598 59.7109 222.637 59.7187 222.674 59.7335C222.71 59.7482 222.743 59.7695 222.769 59.796C222.796 59.8225 222.816 59.8535 222.828 59.8872C222.84 59.9209 222.845 59.9565 222.84 59.9917C222.836 60.0269 222.824 60.0609 222.804 60.0917C222.784 60.1224 222.757 60.1491 222.725 60.1701C222.693 60.1912 222.656 60.206 222.617 60.2138C222.578 60.2215 222.537 60.222 222.498 60.2152Z" fill="#263238"/>
<path d="M220.061 61.1091L198.932 59.1858C198.861 59.1735 198.798 59.1383 198.756 59.0872C198.713 59.036 198.693 58.9725 198.701 58.9092C198.708 58.8459 198.742 58.7874 198.796 58.7451C198.85 58.7029 198.92 58.68 198.992 58.6809L220.121 60.6043C220.165 60.5958 220.212 60.5969 220.256 60.6073C220.3 60.6177 220.341 60.6373 220.374 60.6644C220.408 60.6914 220.434 60.7252 220.451 60.7629C220.467 60.8006 220.473 60.8412 220.468 60.8813C220.463 60.9214 220.447 60.9599 220.422 60.9936C220.397 61.0273 220.363 61.0553 220.323 61.0752C220.284 61.0951 220.239 61.1063 220.193 61.1081C220.148 61.1098 220.102 61.1019 220.061 61.0851V61.1091Z" fill="#263238"/>
<path d="M196.654 62.0525L194.841 61.8883C194.653 61.8712 194.484 61.9923 194.465 62.1588L194.279 63.7612C194.26 63.9276 194.397 64.0763 194.585 64.0934L196.398 64.2576C196.587 64.2746 196.755 64.1535 196.774 63.9871L196.96 62.3847C196.979 62.2183 196.842 62.0695 196.654 62.0525Z" fill="white" stroke="#263238" stroke-linecap="round" stroke-linejoin="round"/>
<path d="M221.913 65.1531L198.488 63.0326C198.433 63.0103 198.388 62.9732 198.358 62.9266C198.328 62.88 198.315 62.8263 198.322 62.7731C198.329 62.7199 198.354 62.6698 198.395 62.6301C198.435 62.5904 198.489 62.563 198.548 62.5518L221.957 64.6482C222.001 64.6397 222.048 64.6408 222.092 64.6512C222.136 64.6617 222.176 64.6812 222.21 64.7083C222.244 64.7353 222.27 64.7691 222.286 64.8068C222.303 64.8445 222.309 64.8851 222.304 64.9252C222.299 64.9654 222.283 65.0038 222.258 65.0375C222.233 65.0712 222.199 65.0992 222.159 65.1191C222.119 65.139 222.075 65.1503 222.029 65.152C221.984 65.1537 221.938 65.1458 221.897 65.129L221.913 65.1531Z" fill="#263238"/>
<path d="M219.491 66.0326L198.362 64.1093C198.322 64.1087 198.283 64.1009 198.246 64.0861C198.21 64.0714 198.177 64.0501 198.151 64.0236C198.124 63.9971 198.104 63.9661 198.092 63.9324C198.08 63.8987 198.076 63.8631 198.08 63.8279C198.084 63.7927 198.096 63.7587 198.116 63.7279C198.136 63.6972 198.163 63.6705 198.195 63.6495C198.227 63.6284 198.264 63.6136 198.303 63.6058C198.342 63.5981 198.383 63.5976 198.422 63.6044L219.546 65.5277C219.586 65.5276 219.626 65.5349 219.663 65.5491C219.699 65.5634 219.733 65.5844 219.76 65.6107C219.787 65.637 219.808 65.668 219.82 65.7018C219.833 65.7355 219.838 65.7713 219.834 65.8067C219.83 65.8422 219.818 65.8765 219.798 65.9075C219.778 65.9386 219.752 65.9656 219.719 65.9869C219.687 66.0081 219.65 66.0232 219.611 66.0311C219.571 66.039 219.531 66.0395 219.491 66.0326Z" fill="#263238"/>
<path d="M211.488 101.342L212.824 101.463L213.608 94.7044L212.271 94.5833L211.488 101.342Z" fill="#757575" stroke="#263238" stroke-linecap="round" stroke-linejoin="round"/>
<path d="M211.613 100.32L212.949 100.441L213.318 97.26L211.981 97.139L211.613 100.32Z" fill="#D9E3F6" stroke="#263238" stroke-miterlimit="10"/>
<path d="M214.702 99.9063L216.039 100.027L216.823 93.2686L215.486 93.1475L214.702 99.9063Z" fill="#757575" stroke="#263238" stroke-linecap="round" stroke-linejoin="round"/>
<path d="M215.271 94.9331L214.902 98.114L216.239 98.2351L216.608 95.0542L215.271 94.9331Z" fill="#D9E3F6" stroke="#263238" stroke-miterlimit="10"/>
<path d="M217.558 101.47L218.895 101.591L219.678 94.8321L218.341 94.711L217.558 101.47Z" fill="#757575" stroke="#263238" stroke-linecap="round" stroke-linejoin="round"/>
<path d="M217.851 98.9329L219.188 99.054L219.556 95.8731L218.22 95.752L217.851 98.9329Z" fill="#D9E3F6" stroke="#263238" stroke-miterlimit="10"/>
<path d="M208.636 99.7354L209.973 99.8564L210.756 93.0977L209.419 92.9766L208.636 99.7354Z" fill="#757575" stroke="#263238" stroke-linecap="round" stroke-linejoin="round"/>
<path d="M208.753 98.7083L210.09 98.8293L210.459 95.6485L209.122 95.5274L208.753 98.7083Z" fill="#D9E3F6" stroke="#263238" stroke-miterlimit="10"/>
<path d="M205.394 101.455L206.73 101.576L207.514 94.8172L206.177 94.6961L205.394 101.455Z" fill="#757575" stroke="#263238" stroke-linecap="round" stroke-linejoin="round"/>
<path d="M205.476 100.697L206.812 100.818L207.181 97.6372L205.845 97.5162L205.476 100.697Z" fill="#D9E3F6" stroke="#263238" stroke-miterlimit="10"/>
<path d="M202.585 99.4375L203.922 99.5586L204.705 92.7998L203.369 92.6788L202.585 99.4375Z" fill="#757575" stroke="#263238" stroke-linecap="round" stroke-linejoin="round"/>
<path d="M202.616 99.1919L203.953 99.313L204.322 96.1321L202.985 96.0111L202.616 99.1919Z" fill="#D9E3F6" stroke="#263238" stroke-miterlimit="10"/>
<path d="M199.163 102.7L200.5 102.822L201.283 96.0628L199.947 95.9417L199.163 102.7Z" fill="#757575" stroke="#263238" stroke-linecap="round" stroke-linejoin="round"/>
<path d="M199.187 102.45L200.523 102.571L200.892 99.3902L199.555 99.2691L199.187 102.45Z" fill="#D9E3F6" stroke="#263238" stroke-miterlimit="10"/>
<path d="M196.644 98.167L197.98 98.2881L198.764 91.5293L197.427 91.4083L196.644 98.167Z" fill="#757575" stroke="#263238" stroke-linecap="round" stroke-linejoin="round"/>
<path d="M196.769 97.1502L198.105 97.2712L198.474 94.0904L197.138 93.9693L196.769 97.1502Z" fill="#D9E3F6" stroke="#263238" stroke-miterlimit="10"/>
<path d="M193.675 97.5071L195.012 97.6282L195.795 90.8694L194.459 90.7484L193.675 97.5071Z" fill="#757575" stroke="#263238" stroke-linecap="round" stroke-linejoin="round"/>
<path d="M193.98 94.9517L195.316 95.0728L195.685 91.8919L194.348 91.7708L193.98 94.9517Z" fill="#D9E3F6" stroke="#263238" stroke-miterlimit="10"/>
<path d="M190.183 101.474L191.52 101.595L192.303 94.8367L190.966 94.7156L190.183 101.474Z" fill="#757575" stroke="#263238" stroke-linecap="round" stroke-linejoin="round"/>
<path d="M190.507 98.6695L191.844 98.7905L192.212 95.6096L190.876 95.4886L190.507 98.6695Z" fill="#D9E3F6" stroke="#263238" stroke-miterlimit="10"/>
<path d="M187.515 98.2254L188.852 98.3464L189.635 91.5877L188.298 91.4666L187.515 98.2254Z" fill="#757575" stroke="#263238" stroke-linecap="round" stroke-linejoin="round"/>
<path d="M187.663 96.9544L189 97.0754L189.369 93.8946L188.032 93.7735L187.663 96.9544Z" fill="#D9E3F6" stroke="#263238" stroke-miterlimit="10"/>
<path d="M184.292 99.7251L185.629 99.8462L186.412 93.0874L185.076 92.9664L184.292 99.7251Z" fill="#757575" stroke="#263238" stroke-linecap="round" stroke-linejoin="round"/>
<path d="M184.421 98.699L185.758 98.8201L186.127 95.6392L184.79 95.5181L184.421 98.699Z" fill="#D9E3F6" stroke="#263238" stroke-miterlimit="10"/>
<path d="M180.933 102.485L182.27 102.606L183.053 95.8472L181.716 95.7261L180.933 102.485Z" fill="#757575" stroke="#263238" stroke-linecap="round" stroke-linejoin="round"/>
<path d="M180.945 102.48L182.281 102.601L182.65 99.4197L181.313 99.2987L180.945 102.48Z" fill="#D9E3F6" stroke="#263238" stroke-miterlimit="10"/>
<path d="M178.421 97.9278L179.758 98.0488L180.541 91.2901L179.205 91.169L178.421 97.9278Z" fill="#757575" stroke="#263238" stroke-linecap="round" stroke-linejoin="round"/>
<path d="M178.511 97.1597L179.848 97.2808L180.216 94.0999L178.88 93.9788L178.511 97.1597Z" fill="#D9E3F6" stroke="#263238" stroke-miterlimit="10"/>
<path d="M175.749 94.689L177.086 94.8101L177.869 88.0513L176.533 87.9302L175.749 94.689Z" fill="#757575" stroke="#263238" stroke-linecap="round" stroke-linejoin="round"/>
<path d="M175.847 93.9217L177.184 94.0427L177.552 90.8619L176.216 90.7408L175.847 93.9217Z" fill="#D9E3F6" stroke="#263238" stroke-miterlimit="10"/>
<path d="M172.331 97.9915L173.668 98.1125L174.451 91.3538L173.115 91.2327L172.331 97.9915Z" fill="#757575" stroke="#263238" stroke-linecap="round" stroke-linejoin="round"/>
<path d="M172.624 95.45L173.961 95.571L174.33 92.3902L172.993 92.2691L172.624 95.45Z" fill="#D9E3F6" stroke="#263238" stroke-miterlimit="10"/>
<path d="M168.882 101.537L170.219 101.658L171.002 94.8994L169.666 94.7784L168.882 101.537Z" fill="#757575" stroke="#263238" stroke-linecap="round" stroke-linejoin="round"/>
<path d="M169.234 98.479L170.57 98.6001L170.939 95.4192L169.602 95.2982L169.234 98.479Z" fill="#D9E3F6" stroke="#263238" stroke-miterlimit="10"/>
<path d="M166.312 97.4441L167.648 97.5652L168.432 90.8064L167.095 90.6854L166.312 97.4441Z" fill="#757575" stroke="#263238" stroke-linecap="round" stroke-linejoin="round"/>
<path d="M166.425 96.4322L167.762 96.5532L168.13 93.3723L166.794 93.2513L166.425 96.4322Z" fill="#D9E3F6" stroke="#263238" stroke-miterlimit="10"/>
<path d="M163.429 96.0518L164.766 96.1729L165.549 89.4141L164.212 89.293L163.429 96.0518Z" fill="#757575" stroke="#263238" stroke-linecap="round" stroke-linejoin="round"/>
<path d="M163.757 93.2469L165.094 93.3679L165.462 90.187L164.126 90.066L163.757 93.2469Z" fill="#D9E3F6" stroke="#263238" stroke-miterlimit="10"/>
<path d="M160.171 97.889L161.508 98.01L162.291 91.2512L160.955 91.1302L160.171 97.889Z" fill="#757575" stroke="#263238" stroke-linecap="round" stroke-linejoin="round"/>
<path d="M160.175 97.8826L161.512 98.0037L161.88 94.8228L160.544 94.7017L160.175 97.8826Z" fill="#D9E3F6" stroke="#263238" stroke-miterlimit="10"/>
<path d="M157.406 95.4998L158.742 95.6208L159.526 88.8621L158.189 88.741L157.406 95.4998Z" fill="#757575" stroke="#263238" stroke-linecap="round" stroke-linejoin="round"/>
<path d="M157.464 94.9961L158.801 95.1172L159.17 91.9363L157.833 91.8153L157.464 94.9961Z" fill="#D9E3F6" stroke="#263238" stroke-miterlimit="10"/>
<path d="M154.292 96.1397L155.629 96.2607L156.412 89.502L155.076 89.3809L154.292 96.1397Z" fill="#757575" stroke="#263238" stroke-linecap="round" stroke-linejoin="round"/>
<path d="M154.323 95.8846L155.66 96.0056L156.029 92.8247L154.692 92.7037L154.323 95.8846Z" fill="#D9E3F6" stroke="#263238" stroke-miterlimit="10"/>
<path d="M151.382 94.9969L152.719 95.1179L153.502 88.3592L152.166 88.2381L151.382 94.9969Z" fill="#757575" stroke="#263238" stroke-linecap="round" stroke-linejoin="round"/>
<path d="M151.773 91.6936L153.109 91.8147L153.478 88.6338L152.141 88.5128L151.773 91.6936Z" fill="#D9E3F6" stroke="#263238" stroke-miterlimit="10"/>
<path d="M219.698 109.635L158.644 104.101C158.474 104.086 158.304 104.131 158.172 104.227C158.04 104.322 157.955 104.46 157.937 104.61C157.928 104.684 157.936 104.759 157.96 104.83C157.984 104.902 158.023 104.968 158.076 105.026C158.13 105.083 158.195 105.131 158.269 105.166C158.343 105.202 158.425 105.223 158.508 105.231L219.567 110.751C219.737 110.765 219.907 110.72 220.039 110.625C220.172 110.529 220.256 110.391 220.274 110.241C220.286 110.093 220.233 109.948 220.125 109.834C220.018 109.721 219.864 109.65 219.698 109.635Z" fill="#263238"/>
<path d="M219.233 113.698L148.23 107.264C148.06 107.249 147.89 107.294 147.758 107.39C147.625 107.485 147.541 107.623 147.523 107.774C147.514 107.848 147.522 107.923 147.546 107.995C147.57 108.066 147.611 108.133 147.664 108.191C147.718 108.248 147.784 108.296 147.859 108.331C147.934 108.366 148.016 108.387 148.1 108.394L219.097 114.827C219.266 114.841 219.435 114.795 219.566 114.7C219.698 114.604 219.781 114.467 219.799 114.318C219.808 114.244 219.801 114.17 219.777 114.099C219.753 114.028 219.714 113.961 219.662 113.904C219.609 113.846 219.544 113.798 219.471 113.763C219.397 113.728 219.317 113.705 219.233 113.698Z" fill="#263238"/>
<path d="M188.933 115.077L147.757 111.346C147.587 111.331 147.417 111.377 147.285 111.472C147.152 111.567 147.068 111.705 147.05 111.856C147.042 111.93 147.05 112.005 147.075 112.076C147.099 112.147 147.139 112.214 147.193 112.271C147.246 112.329 147.312 112.377 147.387 112.412C147.461 112.447 147.543 112.469 147.627 112.476L188.802 116.207C188.886 116.215 188.971 116.208 189.052 116.186C189.132 116.165 189.208 116.13 189.273 116.083C189.338 116.035 189.393 115.977 189.433 115.912C189.473 115.846 189.498 115.774 189.506 115.7C189.515 115.626 189.507 115.551 189.483 115.479C189.459 115.408 189.419 115.341 189.365 115.284C189.312 115.226 189.246 115.178 189.172 115.142C189.098 115.107 189.016 115.085 188.933 115.077Z" fill="#263238"/>
<path opacity="0.2" d="M226.431 78.7703C224.326 78.6212 223.597 81.5879 223.597 81.5879C223.597 81.5879 220.268 77.7413 220.795 68.6632C220.795 68.6632 219.163 64.6434 214.811 67.0716C210.459 69.4998 205.939 78.0538 207.016 87.382L198.562 62.5278C195.635 63.0759 189.69 66.5523 191.256 83.3382L182.008 74.6832C182.008 74.6832 179.506 73.9716 178.091 75.9286C176.677 77.8855 177.352 91.9018 178.521 97.1428C179.691 102.384 176.71 112.914 176.71 112.914C176.71 112.914 173.522 100.989 167.755 97.9699L145.794 57.9551L138.488 120.896L146.719 121.641L159.938 115.953C159.862 118.583 159.791 121.002 159.574 122.805L225.637 128.786L230.364 88.0022C228.76 82.9198 227.226 78.8232 226.431 78.7703Z" fill="black" fill-opacity="0.7"/>
</g>
<path d="M238.051 21.7051L230.364 88.0022L225.637 128.786L159.574 122.805L146.719 121.641L138.488 120.896L145.783 57.955L150.902 13.8147L238.051 21.7051Z" stroke="#263238" stroke-linecap="round" stroke-linejoin="round"/>
<path d="M236.959 192.381L198.335 198.189C198.335 198.189 191.611 166.623 187.601 161.646C183.592 156.67 184.337 154.626 182.379 151.275C181.204 149.25 175.307 145.476 170.689 141.749C170.286 141.427 169.894 141.105 169.519 140.788C169.356 140.658 169.203 140.518 169.051 140.389C168.436 139.85 167.865 139.326 167.359 138.812C167.174 138.629 166.993 138.446 166.815 138.263C165.958 137.419 165.319 136.42 164.944 135.335C164.927 135.287 164.916 135.237 164.911 135.186C164.895 135.128 164.885 135.068 164.879 135.008C164.775 134.263 164.666 133.412 164.558 132.489C164.558 132.306 164.514 132.114 164.487 131.921L164.454 131.69C164.362 130.921 164.258 130.104 164.139 129.262C164.019 128.421 163.889 127.469 163.736 126.55C163.687 126.233 163.638 125.916 163.578 125.589C163.519 125.233 163.453 124.877 163.388 124.516L163.198 123.588C163.198 123.536 163.17 123.487 163.165 123.444L162.937 122.377C162.922 122.338 162.913 122.297 162.909 122.257C162.833 121.944 162.762 121.636 162.681 121.324C162.512 120.626 162.322 119.944 162.137 119.28C161.762 118.031 161.28 116.81 160.695 115.626C157.91 110.13 161.533 112.116 159.352 97.9745C159.352 97.9745 160.956 94.6952 165.531 97.3158C165.885 97.5196 166.226 97.7395 166.554 97.9745C167.481 98.6373 168.3 99.4108 168.986 100.273C169.916 101.447 170.625 102.746 171.086 104.12C171.833 106.348 172.045 108.69 171.706 110.995C171.706 110.995 175.144 121.41 176.955 123.781C178.767 126.151 186.258 112.534 185.774 110.947C185.604 110.236 185.475 109.517 185.387 108.793C185.355 108.558 185.322 108.312 185.284 108.043C185.246 107.774 185.213 107.505 185.181 107.221C185.181 107.086 185.143 106.942 185.121 106.803C185.121 106.745 185.121 106.687 185.121 106.634C185.056 106.091 184.979 105.514 184.909 104.918C184.909 104.749 184.871 104.591 184.849 104.437C184.816 104.153 184.784 103.86 184.751 103.571C184.748 103.523 184.748 103.475 184.751 103.427C184.751 103.264 184.707 103.095 184.691 102.946C184.648 102.61 184.609 102.268 184.571 101.927C184.533 101.586 184.506 101.34 184.473 101.047C184.408 100.494 184.348 99.9411 184.289 99.4074C184.245 99.0083 184.201 98.614 184.163 98.2294C184.163 98.1428 184.163 98.0563 184.136 97.9745C183.908 95.8589 183.728 94.1279 183.663 93.3778C183.663 93.3778 178.223 86.2519 177.679 82.8957C177.135 79.5394 177.168 76.0053 179.447 74.5677C184.843 71.173 183.255 76.6448 185.681 78.8951C188.107 81.1454 191.801 84.8719 193.901 86.0307C195.838 87.1173 197.568 91.3198 197.812 91.9545C197.535 91.0313 194.766 81.9532 194.706 80.1261C194.635 78.2027 192.971 68.0283 195.794 64.3788C198.617 60.7293 202.382 63.5614 202.73 64.2827C203.078 65.0039 203.182 74.861 204.177 77.6017C205.173 80.3424 209.34 91.7718 209.34 91.7718C209.34 91.7718 209.514 80.655 210.428 75.6784C211.342 70.7018 213.811 66.8118 216.205 66.5907C218.599 66.3695 220.813 68.7015 220.813 68.7015C220.813 68.7015 219.866 76.6352 220.138 78.4672C220.41 80.2992 219.746 86.9154 220.883 90.488C220.883 90.488 220.753 81.0108 222.417 79.7991C224.082 78.5874 225.513 78.0056 226.449 78.8374C227.384 79.6693 227.585 85.2661 228.537 88.6416C229.489 92.017 229.37 96.6041 229.995 101.869C230.621 107.134 233.085 114.443 232.596 118.621C232.106 122.8 230.599 133.162 229.386 139.244C228.173 145.327 225.078 153.669 225.078 153.669C225.078 153.669 226.487 158.117 226.215 162.084C225.943 166.051 236.959 192.381 236.959 192.381Z" fill="white"/>
<path opacity="0.4" d="M204.135 77.573C204.874 79.6021 207.35 86.3915 208.579 89.7813C208.579 89.7813 203.183 93.2866 203.313 96.5466C203.444 99.8067 202.329 106.389 199.902 106.197C197.476 106.005 197.726 92.3249 196.905 90.0217C197.4 91.0122 197.715 91.8152 197.781 91.9739C197.601 91.3825 194.718 81.963 194.658 80.0974C194.658 79.6598 194.544 78.7847 194.43 77.6547C194.43 77.6547 199.799 73.1109 203.738 75.8901C203.827 76.4584 203.959 77.0206 204.135 77.573Z" fill="#D9E3F6"/>
<path opacity="0.4" d="M220.177 81.4775C217.664 83.5835 213.872 87.3052 213.393 90.897C213.393 90.897 214.791 100.927 214.193 105.322L209.297 91.7576C209.297 91.7576 209.471 80.6408 210.385 75.6642C210.385 75.5296 210.439 75.3901 210.466 75.2555C213.522 73.8809 216.895 73.1456 220.324 73.1062C220.113 74.874 220.043 76.6525 220.112 78.429C220.194 79.4434 220.216 80.461 220.177 81.4775Z" fill="#D9E3F6"/>
<path opacity="0.4" d="M222.403 79.7466C222.343 79.7803 222.197 79.8861 221.984 80.0448C222.11 79.8286 222.252 79.6198 222.409 79.4197L222.403 79.7466Z" fill="#D9E3F6"/>
<path opacity="0.4" d="M223.679 107.476C223.679 107.476 220.448 96.7629 220.415 88.1368C220.388 84.9441 220.807 82.0351 221.977 80.0685C222.103 79.8523 222.244 79.6435 222.401 79.4434V79.7511C222.986 79.305 223.633 78.9269 224.327 78.626C223.418 79.8761 222.374 82.3236 223.581 86.3193C225.48 92.5268 223.826 100.138 223.679 107.476Z" fill="#D9E3F6"/>
<path opacity="0.4" d="M179.108 127.892C179.108 127.892 179.973 138.1 170.692 141.754C170.29 141.432 169.898 141.11 169.523 140.793C169.36 140.663 169.207 140.524 169.055 140.394C168.44 139.855 167.869 139.331 167.363 138.817C167.173 138.629 167.004 138.446 166.819 138.268C165.961 137.424 165.323 136.425 164.948 135.34C164.931 135.292 164.92 135.242 164.915 135.191C164.899 135.133 164.888 135.073 164.882 135.013C164.779 134.268 164.67 133.417 164.561 132.494C164.561 132.311 164.518 132.119 164.491 131.926L164.458 131.695C164.366 130.926 164.262 130.109 164.143 129.267C164.023 128.426 163.892 127.474 163.74 126.555C163.686 126.238 163.637 125.916 163.582 125.594C163.522 125.238 163.457 124.882 163.392 124.521L163.201 123.589C163.201 123.536 163.174 123.488 163.169 123.444L162.94 122.377C162.925 122.338 162.916 122.298 162.913 122.257C162.837 121.944 162.766 121.636 162.685 121.324C162.511 120.632 162.32 119.949 162.141 119.28C165.813 116.16 174.288 118.117 170.186 110.88C170.186 110.88 172.254 104.687 166.558 97.9747C170.453 100.749 172.449 105.63 171.71 110.957C171.71 110.957 175.148 121.372 176.959 123.742C178.771 126.113 186.262 112.496 185.777 110.909C185.607 110.197 185.479 109.478 185.391 108.755C185.359 108.519 185.326 108.274 185.288 108.005C185.25 107.736 185.217 107.466 185.184 107.183C185.184 107.048 185.146 106.904 185.125 106.764C185.125 106.707 185.125 106.649 185.125 106.596C185.059 106.048 184.989 105.476 184.912 104.879C184.912 104.711 184.874 104.553 184.853 104.399C184.82 104.115 184.787 103.822 184.755 103.533C184.751 103.485 184.751 103.437 184.755 103.389C184.755 103.225 184.711 103.057 184.695 102.908C184.651 102.571 184.613 102.23 184.575 101.889C184.537 101.547 184.51 101.302 184.477 101.009C184.412 100.456 184.352 99.9029 184.292 99.3691C184.249 98.9701 184.211 98.571 184.167 98.1911C184.167 98.1046 184.167 98.018 184.14 97.9363C184.287 98.5662 187.045 110.173 188.623 112.876C190.206 115.645 183.329 130.296 179.108 127.892Z" fill="#D9E3F6"/>
<path opacity="0.4" d="M229.37 139.178C228.157 145.265 225.061 153.602 225.061 153.602C225.061 153.602 226.47 158.05 226.198 162.017C226.122 163.084 226.873 165.782 227.994 169.148C227.667 168.407 224.186 160.464 224.256 157.694C224.327 154.785 223.391 153.982 221.536 150.41C219.681 146.837 216.907 147.231 216.907 147.231C216.907 147.231 215.819 156.141 213.295 150.285C210.77 144.428 210.275 137.615 216.657 113.958C216.657 113.958 217.619 116.925 216.814 125.738C216.009 134.552 218.392 137.221 218.392 137.221C221.973 131.704 224.819 125.838 226.873 119.742C226.873 119.742 226.046 130.027 225.312 134.711C224.577 139.394 227.928 129.282 230.267 123.036C232.443 117.175 232.547 114.944 231.709 110.77C232.329 113.708 232.797 116.54 232.558 118.564C232.09 122.723 230.583 133.095 229.37 139.178Z" fill="#D9E3F6"/>
<path opacity="0.4" d="M185.723 159.007C187.605 161.651 192.213 165.147 194.971 174.817C197.729 184.486 195.988 195.069 195.988 195.069L185.723 159.007Z" fill="#D9E3F6"/>
<path opacity="0.2" d="M171.091 104.1C171.091 104.1 161.457 108.427 160.695 115.64C157.91 110.144 161.533 112.13 159.352 97.9886C159.352 97.9886 160.956 94.7093 165.531 97.3299C165.885 97.5337 166.226 97.7536 166.554 97.9886C167.481 98.6514 168.3 99.4249 168.986 100.287L171.091 104.1Z" fill="black" fill-opacity="0.7"/>
<path d="M198.34 198.189C198.34 198.189 191.616 166.623 187.607 161.646C183.598 156.67 184.343 154.626 182.385 151.275C180.426 147.923 165.559 139.768 164.9 135.003C164.242 130.238 163.486 121.122 160.701 115.621C157.915 110.12 161.538 112.111 159.352 97.9697C159.352 97.9697 160.984 94.6905 165.537 97.311C170.09 99.9315 172.516 105.173 171.717 110.976C171.717 110.976 175.155 121.381 176.972 123.757C178.789 126.132 186.263 112.51 185.779 110.919C185.295 109.327 183.859 95.7916 183.636 93.3201C183.636 93.3201 178.196 86.1894 177.652 82.8332C177.108 79.477 177.14 75.9428 179.42 74.51C184.816 71.1153 183.228 76.5872 185.654 78.8375C188.08 81.0877 191.774 84.8094 193.868 85.973C195.963 87.1366 197.791 91.9978 197.791 91.9978C197.791 91.9978 194.717 82.0254 194.657 80.0972C194.597 78.1691 192.922 67.9995 195.745 64.3548C198.569 60.7101 202.338 63.5326 202.687 64.2538C203.035 64.9751 203.138 74.8321 204.139 77.5729L209.291 91.743C209.291 91.743 209.47 80.6261 210.411 75.6495C211.353 70.6729 213.795 66.783 216.189 66.5618C218.582 66.3406 220.796 68.6727 220.796 68.6727C220.796 68.6727 219.85 76.6064 220.116 78.4384C220.383 80.2703 219.73 86.8818 220.867 90.4591C220.867 90.4591 220.737 80.982 222.401 79.7703C224.066 78.5586 225.497 77.9768 226.432 78.8086C227.368 79.6404 227.569 85.2373 228.521 88.6128C229.473 91.9882 229.353 96.5753 229.979 101.84C230.605 107.106 233.069 114.414 232.579 118.588C232.09 122.761 230.583 133.133 229.364 139.22C228.146 145.308 225.067 153.645 225.067 153.645C225.067 153.645 226.47 158.093 226.198 162.06C225.926 166.027 236.959 192.434 236.959 192.434" stroke="#263238" stroke-linecap="round" stroke-linejoin="round"/>
<path d="M209.289 91.7332C210.415 94.07 213.195 103.937 214.185 105.302C214.689 106.059 215.425 106.676 216.307 107.081" stroke="#263238" stroke-linecap="round" stroke-linejoin="round"/>
<path d="M220.862 90.4348C220.862 90.4348 220.623 92.4591 221.858 98.9023C223.093 105.345 223.697 108.091 224.388 109.529" stroke="#263238" stroke-linecap="round" stroke-linejoin="round"/>
<path d="M197.793 91.9976C199.3 95.926 200.154 102.186 201.013 104.071C201.873 105.956 202.645 106.346 202.645 106.346" stroke="#263238" stroke-linecap="round" stroke-linejoin="round"/>
<path d="M200.234 101.413C201.142 102.022 201.86 102.825 202.323 103.745" stroke="#263238" stroke-linecap="round" stroke-linejoin="round"/>
<path d="M176.973 123.761C176.973 123.761 177.794 128.969 181.488 128.57" stroke="#263238" stroke-linecap="round" stroke-linejoin="round"/>
<path d="M185.777 110.923C185.777 110.923 186.735 117.116 185.168 119.742" stroke="#263238" stroke-linecap="round" stroke-linejoin="round"/>
<path d="M215.285 110.981C215.285 110.981 217.766 112.323 216.106 116.27C214.447 120.218 211.559 136.095 211.559 136.095" stroke="#263238" stroke-linecap="round" stroke-linejoin="round"/>
<path d="M226.085 115.135C227.124 118.693 227.216 118.785 225.541 123.156C223.865 127.526 221.129 138.234 221.129 138.234" stroke="#263238" stroke-linecap="round" stroke-linejoin="round"/>
<path d="M225.067 153.592C225.067 153.592 223.435 150.707 224.784 148.303" stroke="#263238" stroke-linecap="round" stroke-linejoin="round"/>
<path d="M187.605 161.651C187.605 161.651 191.707 166.743 193.492 172.441" stroke="#263238" stroke-linecap="round" stroke-linejoin="round"/>
<path d="M217.789 72.3941L218.899 71.4277L219.399 71.2979L219.367 71.7787L218.349 72.9279L217.789 72.3941Z" fill="#757575" stroke="#263238" stroke-linecap="round" stroke-linejoin="round"/>
<path d="M218.69 72.933L216.884 76.5488L168.359 133.739L162.957 130.69L170.274 122.555L213.859 74.2312L217.705 72.0723C217.941 72.126 218.156 72.234 218.329 72.3852C218.502 72.5364 218.626 72.7254 218.69 72.933Z" fill="#D9E3F6"/>
<mask id="mask3_691_14901" style="mask-type:luminance" maskUnits="userSpaceOnUse" x="162" y="72" width="57" height="62">
<path d="M218.69 72.933L216.884 76.5488L168.359 133.739L162.957 130.69L170.274 122.555L213.859 74.2312L217.705 72.0723C217.941 72.126 218.156 72.234 218.329 72.3852C218.502 72.5364 218.626 72.7254 218.69 72.933Z" fill="white"/>
</mask>
<g mask="url(#mask3_691_14901)">
<path opacity="0.3" d="M218.69 72.9326L216.884 76.5484L168.359 133.738L162.957 130.69L170.274 122.554C173.647 122.247 174.212 123.997 174.212 123.997L216.019 75.7695C215.605 74.4712 213.843 74.2212 213.843 74.2212L217.689 72.0623C217.929 72.1146 218.148 72.223 218.324 72.3761C218.5 72.5292 218.627 72.7214 218.69 72.9326Z" fill="black" fill-opacity="0.7"/>
</g>
<path d="M218.69 72.933L216.884 76.5488L168.359 133.739L162.957 130.69L170.274 122.555L213.859 74.2312L217.705 72.0723C217.941 72.126 218.156 72.234 218.329 72.3852C218.502 72.5364 218.626 72.7254 218.69 72.933Z" stroke="#263238" stroke-linecap="round" stroke-linejoin="round"/>
<path d="M184.184 116.804C184.184 116.804 178.744 126.305 173.554 133.027L169.833 133.878C169.833 133.878 161.293 141.379 156.081 145.125C155.135 144.605 154.278 143.969 153.535 143.235C153.535 143.235 160.934 130.676 169.121 122.728C170.08 123.029 170.984 123.453 171.803 123.988C172.865 124.654 173.811 125.454 174.61 126.363L183.733 116.217L184.184 116.804Z" fill="#D9E3F6"/>
<mask id="mask4_691_14901" style="mask-type:luminance" maskUnits="userSpaceOnUse" x="153" y="116" width="32" height="30">
<path d="M184.184 116.804C184.184 116.804 178.744 126.305 173.554 133.027L169.833 133.878C169.833 133.878 161.293 141.379 156.081 145.125C155.135 144.605 154.278 143.969 153.535 143.235C153.535 143.235 160.934 130.676 169.121 122.728C170.08 123.029 170.984 123.453 171.803 123.988C172.865 124.654 173.811 125.454 174.61 126.363L183.733 116.217L184.184 116.804Z" fill="white"/>
</mask>
<g mask="url(#mask4_691_14901)">
<path opacity="0.3" d="M184.185 116.804C184.185 116.804 178.745 126.305 173.555 133.027L169.834 133.878C169.834 133.878 161.294 141.379 156.082 145.125L156.223 143.086C161.876 135.455 169.056 127.132 171.804 123.987C172.866 124.653 173.812 125.454 174.611 126.363L169.541 132.344L172.446 131.863L183.734 116.198L184.185 116.804Z" fill="black" fill-opacity="0.7"/>
</g>
<path d="M184.184 116.804C184.184 116.804 178.744 126.305 173.554 133.027L169.833 133.878C169.833 133.878 161.293 141.379 156.081 145.125C155.135 144.605 154.278 143.969 153.535 143.235C153.535 143.235 160.934 130.676 169.121 122.728C170.08 123.029 170.984 123.453 171.803 123.988C172.865 124.654 173.811 125.454 174.61 126.363L183.733 116.217L184.184 116.804Z" stroke="#263238" stroke-linecap="round" stroke-linejoin="round"/>
<path d="M202.633 106.337L187.477 119.319L185.056 121.396C186.715 117.627 185.91 111.78 185.807 111.092C185.807 111.054 185.807 111.03 185.807 111.03C185.807 111.03 185.807 110.953 185.807 110.929C185.637 110.217 185.508 109.498 185.421 108.774C185.388 108.539 185.355 108.294 185.317 108.024C185.279 107.755 185.247 107.486 185.214 107.202C185.214 107.067 185.176 106.923 185.154 106.784C185.154 106.726 185.154 106.668 185.154 106.615C185.089 106.072 185.013 105.495 184.942 104.899C184.942 104.731 184.904 104.572 184.882 104.418C184.85 104.134 184.817 103.841 184.784 103.553C184.781 103.505 184.781 103.456 184.784 103.408C184.784 103.245 184.741 103.077 184.724 102.928C184.681 102.591 184.643 102.25 184.605 101.908C184.567 101.567 184.539 101.322 184.507 101.028C184.442 100.475 184.382 99.9223 184.322 99.3886C184.278 98.9895 184.235 98.5952 184.197 98.2105C184.197 98.124 184.197 98.0374 184.17 97.9557C183.941 95.84 183.762 94.1091 183.696 93.359C183.696 93.359 178.256 86.233 177.712 82.8768C177.168 79.5206 177.201 75.9865 179.48 74.5488C184.877 71.1542 183.288 76.626 185.714 78.8763C188.141 81.1266 191.834 84.853 193.934 86.0119C196.034 87.1707 197.791 91.9982 197.791 91.9982C199.298 95.9218 200.152 102.182 201.012 104.067C201.871 105.952 202.633 106.337 202.633 106.337Z" fill="white"/>
<path d="M200.234 101.413C201.142 102.022 201.86 102.825 202.323 103.745" stroke="#263238" stroke-linecap="round" stroke-linejoin="round"/>
<path opacity="0.4" d="M185.634 78.857C188.039 81.1266 191.732 84.8097 193.832 85.983C193.538 85.8531 189.671 84.1895 187.511 86.0407C185.264 87.964 183.638 93.3253 183.638 93.3253C183.638 93.3253 178.198 86.1993 177.654 82.8431C177.11 79.4869 177.142 75.9528 179.422 74.5151C184.796 71.1205 183.219 76.6116 185.634 78.857Z" fill="#D9E3F6"/>
<path opacity="0.4" d="M187.475 119.328L185.055 121.405C186.714 117.636 185.909 111.789 185.805 111.101C185.812 111.047 185.812 110.992 185.805 110.938C185.635 110.226 185.506 109.507 185.419 108.784C185.387 108.548 185.354 108.303 185.316 108.033C185.278 107.764 185.245 107.495 185.212 107.211C185.212 107.077 185.174 106.932 185.153 106.793C185.153 106.735 185.153 106.678 185.153 106.625C185.087 106.076 185.017 105.504 184.94 104.908C184.94 104.74 184.902 104.581 184.881 104.427C184.848 104.144 184.815 103.85 184.783 103.562C184.779 103.514 184.779 103.466 184.783 103.417C184.783 103.254 184.739 103.086 184.723 102.937C184.679 102.6 184.641 102.259 184.603 101.917C184.565 101.576 184.538 101.331 184.505 101.037C184.44 100.484 184.38 99.9314 184.32 99.3977C184.277 98.9986 184.239 98.5995 184.195 98.2197C184.195 98.1331 184.195 98.0466 184.168 97.9648C184.315 98.5947 187.073 110.202 188.651 112.904C189.184 113.885 188.629 116.52 187.475 119.328Z" fill="#D9E3F6"/>
<path d="M202.635 106.336C202.635 106.336 201.868 105.947 201.003 104.062C200.138 102.177 199.289 95.9164 197.782 91.988C197.782 91.988 195.938 87.1797 193.838 85.9968C191.739 84.814 188.039 81.1308 185.624 78.8613C183.209 76.5918 184.786 71.1199 179.39 74.5338C177.11 75.9763 177.062 79.5056 177.622 82.857C178.182 86.2084 183.606 93.3439 183.606 93.3439C183.829 95.8154 185.265 109.356 185.749 110.942" stroke="#263238" stroke-linecap="round" stroke-linejoin="round"/>
<path d="M185.777 110.923C185.777 110.923 186.735 117.116 185.168 119.742" stroke="#263238" stroke-linecap="round" stroke-linejoin="round"/>
<path opacity="0.2" d="M92.7386 118.497C92.7386 118.497 96.1821 132.633 88.7239 142.914C81.2657 153.194 75.521 155.939 72.9479 159.007C70.3748 162.075 60.2618 179.226 60.2618 179.226L48.457 148.323L60.2618 110.092L92.7386 118.497Z" fill="black" fill-opacity="0.7"/>
<path d="M162.315 107.693L89.1144 134.922L81.5691 137.73L67.3489 107.866L34.3281 38.5153L115.074 8.47778L162.315 107.693Z" fill="white"/>
<mask id="mask5_691_14901" style="mask-type:luminance" maskUnits="userSpaceOnUse" x="34" y="8" width="129" height="130">
<path d="M162.315 107.693L89.1144 134.922L81.5691 137.73L67.3489 107.866L34.3281 38.5153L115.074 8.47778L162.315 107.693Z" fill="white"/>
</mask>
<g mask="url(#mask5_691_14901)">
<path d="M94.2089 21.388L59.3548 34.3705C59.0403 34.4871 58.7911 34.7095 58.662 34.9886C58.533 35.2677 58.5346 35.5806 58.6666 35.8586C58.7986 36.1366 59.0502 36.3569 59.3659 36.471C59.6817 36.585 60.0358 36.5836 60.3503 36.4669L95.199 23.4796C95.3573 23.4237 95.5014 23.3404 95.6229 23.2346C95.7444 23.1289 95.8409 23.0028 95.9066 22.8638C95.9724 22.7247 96.0062 22.5755 96.006 22.4248C96.0058 22.2741 95.9717 22.1249 95.9056 21.986C95.8394 21.8471 95.7427 21.7212 95.6209 21.6157C95.4991 21.5102 95.3548 21.4272 95.1964 21.3715C95.0379 21.3158 94.8685 21.2886 94.698 21.2915C94.5275 21.2943 94.3594 21.3271 94.2034 21.388H94.2089Z" fill="#263238"/>
<path d="M87.5474 28.9319L70.1394 35.4135C69.9822 35.4722 69.8577 35.5836 69.7935 35.7234C69.7292 35.8632 69.7304 36.0198 69.7967 36.1588C69.8631 36.2978 69.9892 36.4078 70.1473 36.4646C70.3055 36.5214 70.4827 36.5204 70.6399 36.4617L88.0479 29.9753C88.1297 29.9489 88.2045 29.9081 88.2679 29.8553C88.3312 29.8026 88.3817 29.739 88.4164 29.6684C88.4511 29.5979 88.4692 29.5218 88.4695 29.4449C88.4699 29.3679 88.4526 29.2917 88.4186 29.2209C88.3847 29.1501 88.3348 29.0861 88.2719 29.0329C88.2091 28.9796 88.1347 28.9382 88.0532 28.9112C87.9717 28.8842 87.8849 28.872 87.7979 28.8756C87.711 28.8792 87.6258 28.8983 87.5474 28.9319Z" fill="#263238"/>
<path d="M116.224 68.4373C116.224 68.4373 116.958 73.5389 114.809 74.3371C112.846 75.0679 110.262 72.332 108.004 73.1686C105.746 74.0053 107.525 81.2466 105.349 82.0544C103.173 82.8622 100.551 79.8907 98.6689 80.6119C96.7867 81.3332 97.9291 85.0356 95.9925 85.7568C94.3931 86.3482 92.1083 83.3911 90.2805 82.742C90.1122 82.6695 89.929 82.6279 89.742 82.6196C89.555 82.6113 89.3681 82.6366 89.1925 82.6939C87.2776 83.4055 88.2296 91.1806 86.5758 91.7912C86.1132 91.9674 85.6092 92.0416 85.107 92.0076C84.4917 91.905 83.8672 91.8519 83.2411 91.8489C83.0013 91.8705 82.7665 91.924 82.5448 92.0076C81.1358 92.5317 81.3262 96.6236 80.0369 97.1044C78.7477 97.5853 77.4747 96.989 76.0984 97.4987C74.7221 98.0084 74.7438 100.138 72.6875 100.903L73.5579 102.725L123.666 84.0883" fill="#BFBFBF"/>
<path d="M116.224 68.4373C116.224 68.4373 116.958 73.5389 114.809 74.3371C112.846 75.0679 110.262 72.332 108.004 73.1686C105.746 74.0053 107.525 81.2466 105.349 82.0544C103.173 82.8622 100.551 79.8907 98.6689 80.6119C96.7867 81.3332 97.9291 85.0356 95.9925 85.7568C94.3931 86.3482 92.1083 83.3911 90.2805 82.742C90.1122 82.6695 89.929 82.6279 89.742 82.6196C89.555 82.6113 89.3681 82.6366 89.1925 82.6939C87.2776 83.4055 88.2296 91.1806 86.5758 91.7912C86.1132 91.9674 85.6092 92.0416 85.107 92.0076C84.4917 91.905 83.8672 91.8519 83.2411 91.8489C83.0013 91.8705 82.7665 91.924 82.5448 92.0076C81.1358 92.5317 81.3262 96.6236 80.0369 97.1044C78.7477 97.5853 77.4747 96.989 76.0984 97.4987C74.7221 98.0084 74.7438 100.138 72.6875 100.903L73.5579 102.725L123.666 84.0883" stroke="#263238" stroke-miterlimit="10"/>
<path d="M63.4102 81.3811L73.5558 102.687L126.019 83.1746" stroke="#263238" stroke-linecap="round" stroke-linejoin="round"/>
<path d="M120.255 76.8904C120.255 76.8904 120.005 76.6212 119.635 76.299C118.987 75.7461 117.959 75.0441 117.176 75.3374C116.392 75.6307 116.343 76.7414 116.36 77.9435C116.36 79.386 116.523 80.9727 115.691 81.2804C114.983 81.5449 114.352 81.1506 113.7 80.7179C112.954 80.237 112.193 79.6889 111.273 80.0303C109.728 80.6073 110.185 82.3863 109.641 83.9106C109.494 84.3491 109.232 84.7512 108.878 85.0851C108.524 85.4189 108.087 85.6753 107.601 85.8339C106.269 86.3147 104.914 85.8339 103.636 85.0742C101.46 83.776 99.5448 81.6699 98.2936 82.1363C96.2971 82.8816 98.4949 87.6514 96.3515 88.4496C95.1547 88.8968 92.6741 85.5646 90.2641 82.6796C88.3601 80.4053 86.4997 78.4243 85.3681 78.833C82.7841 79.7947 87.0437 91.2048 85.1669 91.902L85.107 91.926C84.805 92.0362 84.477 92.0793 84.1517 92.0517C83.8265 92.024 83.5138 91.9264 83.2411 91.7674C82.5665 91.4308 82.0117 90.9451 81.2664 91.224C79.8792 91.7433 80.6897 96.2151 79.1665 96.7824C77.6433 97.3498 76.724 96.5276 75.0049 97.1671C73.5525 97.7104 72.6875 100.821 72.6875 100.821L73.5579 102.644L123.666 84.0067" fill="#757575"/>
<path d="M120.255 76.8904C120.255 76.8904 120.005 76.6212 119.635 76.299C118.987 75.7461 117.959 75.0441 117.176 75.3374C116.392 75.6307 116.343 76.7414 116.36 77.9435C116.36 79.386 116.523 80.9727 115.691 81.2804C114.983 81.5449 114.352 81.1506 113.7 80.7179C112.954 80.237 112.193 79.6889 111.273 80.0303C109.728 80.6073 110.185 82.3863 109.641 83.9106C109.494 84.3491 109.232 84.7512 108.878 85.0851C108.524 85.4189 108.087 85.6753 107.601 85.8339C106.269 86.3147 104.914 85.8339 103.636 85.0742C101.46 83.776 99.5448 81.6699 98.2936 82.1363C96.2971 82.8816 98.4949 87.6514 96.3515 88.4496C95.1547 88.8968 92.6741 85.5646 90.2641 82.6796C88.3601 80.4053 86.4997 78.4243 85.3681 78.833C82.7841 79.7947 87.0437 91.2048 85.1669 91.902L85.107 91.926C84.805 92.0362 84.477 92.0793 84.1517 92.0517C83.8265 92.024 83.5138 91.9264 83.2411 91.7674C82.5665 91.4308 82.0117 90.9451 81.2664 91.224C79.8792 91.7433 80.6897 96.2151 79.1665 96.7824C77.6433 97.3498 76.724 96.5276 75.0049 97.1671C73.5525 97.7104 72.6875 100.821 72.6875 100.821L73.5579 102.644L123.666 84.0067" stroke="#263238" stroke-linecap="round" stroke-linejoin="round"/>
<path d="M109.641 92.0992L92.2332 98.5808C92.0759 98.6395 91.9515 98.7509 91.8872 98.8907C91.8229 99.0305 91.8241 99.1871 91.8905 99.3261C91.9569 99.4651 92.083 99.5751 92.2411 99.6319C92.3992 99.6887 92.5764 99.6877 92.7337 99.629L110.142 93.1474C110.299 93.0888 110.423 92.9773 110.488 92.8375C110.552 92.6977 110.551 92.5411 110.484 92.4021C110.418 92.2631 110.292 92.1531 110.134 92.0963C109.976 92.0395 109.798 92.0405 109.641 92.0992Z" fill="#263238"/>
<path d="M123.445 66.5818L121.765 67.2065C121.591 67.2714 121.509 67.449 121.582 67.6032L122.289 69.0879C122.362 69.2421 122.563 69.3145 122.738 69.2496L124.418 68.6249C124.592 68.56 124.674 68.3824 124.6 68.2282L123.894 66.7435C123.82 66.5893 123.619 66.5169 123.445 66.5818Z" fill="#BFBFBF" stroke="#263238" stroke-miterlimit="10"/>
<path d="M132.557 64.062L125.594 66.6536C125.523 66.678 125.443 66.6771 125.372 66.6511C125.301 66.6252 125.245 66.5762 125.213 66.5142C125.184 66.4523 125.184 66.3828 125.213 66.3207C125.241 66.2586 125.296 66.2089 125.366 66.1824L132.334 63.5908C132.404 63.5651 132.483 63.5648 132.553 63.59C132.624 63.6152 132.68 63.6638 132.71 63.7254C132.725 63.7563 132.733 63.7896 132.734 63.8233C132.734 63.857 132.727 63.8905 132.713 63.9218C132.699 63.9531 132.678 63.9816 132.651 64.0057C132.624 64.0297 132.593 64.0489 132.557 64.062Z" fill="#263238"/>
<path d="M130.917 65.8747L126.075 67.673C126.005 67.6987 125.926 67.699 125.856 67.6738C125.786 67.6486 125.73 67.6 125.7 67.5384C125.685 67.5075 125.676 67.4742 125.676 67.4405C125.675 67.4068 125.682 67.3733 125.696 67.342C125.711 67.3107 125.732 67.2822 125.758 67.2581C125.785 67.234 125.817 67.2149 125.852 67.2018L130.694 65.4035C130.764 65.3778 130.842 65.3775 130.913 65.4027C130.983 65.4279 131.039 65.4766 131.069 65.5381C131.098 65.6007 131.099 65.6709 131.07 65.7338C131.042 65.7967 130.987 65.8473 130.917 65.8747Z" fill="#263238"/>
<path d="M125.625 71.1592L123.945 71.7839C123.77 71.8488 123.688 72.0264 123.762 72.1806L124.469 73.6653C124.542 73.8195 124.743 73.8919 124.917 73.827L126.597 73.2023C126.772 73.1374 126.854 72.9598 126.78 72.8056L126.073 71.3209C126 71.1667 125.799 71.0943 125.625 71.1592Z" fill="#757575" stroke="#263238" stroke-linecap="round" stroke-linejoin="round"/>
<path d="M134.732 68.6388L127.769 71.2257C127.733 71.2387 127.695 71.2453 127.656 71.2451C127.618 71.245 127.579 71.2382 127.544 71.225C127.508 71.2118 127.476 71.1926 127.449 71.1684C127.421 71.1442 127.4 71.1155 127.385 71.0839C127.371 71.0523 127.363 71.0185 127.363 70.9844C127.363 70.9502 127.371 70.9165 127.386 70.885C127.401 70.8535 127.423 70.825 127.45 70.8009C127.478 70.7769 127.51 70.7578 127.546 70.7449L134.509 68.1532C134.545 68.1403 134.583 68.1337 134.622 68.1338C134.66 68.1339 134.698 68.1408 134.734 68.1539C134.77 68.1671 134.802 68.1863 134.829 68.2106C134.856 68.2348 134.878 68.2635 134.892 68.2951C134.907 68.3266 134.915 68.3604 134.914 68.3946C134.914 68.4287 134.907 68.4624 134.892 68.4939C134.877 68.5254 134.855 68.554 134.828 68.578C134.8 68.6021 134.768 68.6211 134.732 68.634V68.6388Z" fill="#263238"/>
<path d="M133.097 70.4471L128.261 72.2502C128.189 72.277 128.107 72.2774 128.035 72.2512C127.963 72.2251 127.905 72.1745 127.875 72.1108C127.844 72.047 127.844 71.9752 127.873 71.9112C127.903 71.8472 127.96 71.7962 128.032 71.7694L132.874 69.9711C132.91 69.9581 132.948 69.9515 132.987 69.9517C133.025 69.9518 133.063 69.9586 133.099 69.9718C133.135 69.985 133.167 70.0042 133.194 70.0284C133.221 70.0526 133.243 70.0814 133.257 70.1129C133.272 70.1445 133.28 70.1783 133.279 70.2124C133.279 70.2466 133.272 70.2803 133.257 70.3118C133.242 70.3433 133.22 70.3718 133.193 70.3959C133.165 70.4199 133.133 70.439 133.097 70.4519V70.4471Z" fill="#263238"/>
<path d="M143.891 87.5073L87.3152 108.549C87.158 108.607 87.0335 108.719 86.9692 108.858C86.905 108.998 86.9062 109.155 86.9725 109.294C87.0389 109.433 87.165 109.543 87.3231 109.6C87.4813 109.656 87.6584 109.655 87.8157 109.597L144.392 88.5507C144.473 88.5243 144.548 88.4835 144.612 88.4308C144.675 88.378 144.726 88.3144 144.76 88.2439C144.795 88.1733 144.813 88.0972 144.813 88.0203C144.814 87.9434 144.796 87.8672 144.762 87.7964C144.728 87.7255 144.679 87.6615 144.616 87.6083C144.553 87.5551 144.478 87.5137 144.397 87.4866C144.316 87.4596 144.229 87.4475 144.142 87.451C144.055 87.4546 143.97 87.4738 143.891 87.5073Z" fill="#263238"/>
<path d="M145.692 91.2717L79.906 115.741C79.8243 115.768 79.7494 115.808 79.6861 115.861C79.6227 115.914 79.5722 115.978 79.5375 116.048C79.5028 116.119 79.4848 116.195 79.4844 116.272C79.484 116.349 79.5013 116.425 79.5353 116.496C79.5693 116.566 79.6192 116.63 79.682 116.684C79.7448 116.737 79.8192 116.778 79.9007 116.805C79.9822 116.832 80.0691 116.844 80.156 116.841C80.243 116.837 80.3282 116.818 80.4065 116.785L146.187 92.3151C146.271 92.2905 146.348 92.2508 146.414 92.1985C146.48 92.1463 146.533 92.0825 146.569 92.0114C146.606 91.9402 146.625 91.8631 146.627 91.785C146.628 91.7068 146.611 91.6293 146.577 91.5572C146.543 91.4851 146.492 91.42 146.428 91.3661C146.364 91.3121 146.288 91.2704 146.205 91.2436C146.122 91.2168 146.033 91.2055 145.945 91.2103C145.857 91.2151 145.771 91.236 145.692 91.2717Z" fill="#263238"/>
<path d="M147.479 95.0369L81.699 119.506C81.6172 119.533 81.5424 119.574 81.479 119.626C81.4157 119.679 81.3652 119.743 81.3305 119.813C81.2958 119.884 81.2777 119.96 81.2773 120.037C81.277 120.114 81.2943 120.19 81.3283 120.261C81.3622 120.332 81.4121 120.396 81.475 120.449C81.5378 120.502 81.6122 120.543 81.6937 120.571C81.7752 120.598 81.862 120.61 81.949 120.606C82.0359 120.603 82.1211 120.583 82.1995 120.55L147.969 96.0803C148.051 96.0539 148.126 96.0131 148.189 95.9603C148.252 95.9076 148.303 95.844 148.338 95.7734C148.372 95.7028 148.39 95.6268 148.391 95.5498C148.391 95.4729 148.374 95.3967 148.34 95.3259C148.306 95.2551 148.256 95.1911 148.193 95.1378C148.13 95.0846 148.056 95.0432 147.974 95.0162C147.893 94.9891 147.806 94.977 147.719 94.9806C147.632 94.9842 147.547 95.0033 147.469 95.0369H147.479Z" fill="#263238"/>
<path d="M149.275 98.8017L83.4944 123.252C83.4104 123.277 83.3332 123.316 83.2674 123.369C83.2017 123.421 83.1488 123.484 83.1122 123.556C83.0756 123.627 83.0561 123.704 83.0548 123.782C83.0535 123.86 83.0704 123.938 83.1046 124.01C83.1388 124.082 83.1895 124.147 83.2535 124.201C83.3175 124.255 83.3934 124.297 83.4765 124.323C83.5596 124.35 83.648 124.362 83.7363 124.357C83.8245 124.352 83.9107 124.331 83.9894 124.295L149.77 99.8258C149.854 99.8012 149.931 99.7615 149.997 99.7093C150.063 99.657 150.115 99.5933 150.152 99.5221C150.189 99.451 150.208 99.3739 150.21 99.2957C150.211 99.2176 150.194 99.14 150.16 99.0679C150.125 98.9958 150.075 98.9308 150.011 98.8768C149.947 98.8229 149.871 98.7812 149.788 98.7544C149.705 98.7276 149.616 98.7162 149.528 98.7211C149.44 98.7259 149.354 98.7468 149.275 98.7824V98.8017Z" fill="#263238"/>
<path d="M123.436 112.842L85.2849 127.037C85.2032 127.063 85.1283 127.104 85.065 127.156C85.0016 127.209 84.9511 127.273 84.9164 127.343C84.8817 127.414 84.8637 127.49 84.8633 127.567C84.8629 127.644 84.8802 127.72 84.9142 127.791C84.9482 127.862 84.9981 127.926 85.0609 127.979C85.1237 128.032 85.1981 128.074 85.2796 128.101C85.3611 128.128 85.448 128.14 85.5349 128.136C85.6219 128.133 85.7071 128.113 85.7854 128.08L123.936 113.891C124.014 113.862 124.085 113.819 124.144 113.766C124.203 113.713 124.25 113.65 124.282 113.581C124.314 113.511 124.33 113.437 124.329 113.363C124.329 113.288 124.312 113.214 124.279 113.145C124.246 113.076 124.198 113.014 124.138 112.962C124.078 112.909 124.006 112.868 123.928 112.839C123.85 112.811 123.766 112.797 123.682 112.798C123.597 112.798 123.513 112.813 123.436 112.842Z" fill="#263238"/>
<path d="M102.423 39.4434C102.423 39.4434 103.157 44.5498 101.009 45.348C99.0448 46.0788 96.4554 43.3429 94.2032 44.1796C91.951 45.0162 93.7245 52.2527 91.5485 53.0653C89.3725 53.8779 86.745 50.9016 84.8682 51.5988C82.9914 52.296 84.1283 56.0224 82.1917 56.7389C80.5923 57.3351 78.3075 54.378 76.4797 53.7289C76.3114 53.6564 76.1282 53.6147 75.9412 53.6065C75.7543 53.5982 75.5673 53.6235 75.3917 53.6808C73.4768 54.3924 74.4288 62.1626 72.775 62.7781C72.3129 62.9553 71.8081 63.028 71.3062 62.9897C70.6904 62.8915 70.0661 62.84 69.4403 62.8358C69.2004 62.8568 68.9655 62.9103 68.744 62.9945C67.335 63.5186 67.5254 67.6105 66.2362 68.0865C64.9469 68.5625 63.6739 67.9759 62.2976 68.4856C60.9213 68.9953 60.943 71.1253 58.8867 71.8899L59.7571 73.7122L109.887 55.0752" fill="#BFBFBF"/>
<path d="M102.423 39.4434C102.423 39.4434 103.157 44.5498 101.009 45.348C99.0448 46.0788 96.4554 43.3429 94.2032 44.1796C91.951 45.0162 93.7245 52.2527 91.5485 53.0653C89.3725 53.8779 86.745 50.9016 84.8682 51.5988C82.9914 52.296 84.1283 56.0224 82.1917 56.7389C80.5923 57.3351 78.3075 54.378 76.4797 53.7289C76.3114 53.6564 76.1282 53.6147 75.9412 53.6065C75.7543 53.5982 75.5673 53.6235 75.3917 53.6808C73.4768 54.3924 74.4288 62.1626 72.775 62.7781C72.3129 62.9553 71.8081 63.028 71.3062 62.9897C70.6904 62.8915 70.0661 62.84 69.4403 62.8358C69.2004 62.8568 68.9655 62.9103 68.744 62.9945C67.335 63.5186 67.5254 67.6105 66.2362 68.0865C64.9469 68.5625 63.6739 67.9759 62.2976 68.4856C60.9213 68.9953 60.943 71.1253 58.8867 71.8899L59.7571 73.7122L109.887 55.0752" stroke="#263238" stroke-miterlimit="10"/>
<path d="M105.662 46.2473C105.662 46.2473 106.119 48.7188 105.014 49.1323C104.095 49.4737 103.529 48.9977 102.561 48.9688C102.088 48.9561 101.618 49.0366 101.185 49.2044C100.298 49.5314 100.097 50.5892 99.9281 51.724C99.7322 53.1232 99.6343 54.6426 98.4756 55.0898C97.665 55.3927 96.7892 55.2148 95.8861 54.9359C94.4445 54.4936 92.9322 53.7916 91.4689 54.3349C90.7617 54.5994 90.2666 55.2966 89.8804 56.1188C88.9719 58.1046 88.689 60.98 87.7044 61.3454C86.3063 61.8695 83.7441 59.7442 82.5038 60.2058C81.2634 60.6674 81.7694 62.5715 80.763 62.9466C79.7566 63.3216 79.1799 62.2157 77.4065 62.8745C75.633 63.5332 76.498 65.8508 73.9956 66.7836C71.4932 67.7164 70.3943 65.9999 67.9789 66.899C65.5636 67.7982 65.9988 69.4234 64.2906 70.0581C62.5825 70.6928 61.8644 69.5772 60.6458 70.0581C59.4273 70.5389 59.1335 72.217 59.1172 72.3228L59.7863 73.7268L109.889 55.0754" fill="#D9E3F6"/>
<path d="M105.662 46.2473C105.662 46.2473 106.119 48.7188 105.014 49.1323C104.095 49.4737 103.529 48.9977 102.561 48.9688C102.088 48.9561 101.618 49.0366 101.185 49.2044C100.298 49.5314 100.097 50.5892 99.9281 51.724C99.7322 53.1232 99.6343 54.6426 98.4756 55.0898C97.665 55.3927 96.7892 55.2148 95.8861 54.9359C94.4445 54.4936 92.9322 53.7916 91.4689 54.3349C90.7617 54.5994 90.2666 55.2966 89.8804 56.1188C88.9719 58.1046 88.689 60.98 87.7044 61.3454C86.3063 61.8695 83.7441 59.7442 82.5038 60.2058C81.2634 60.6674 81.7694 62.5715 80.763 62.9466C79.7566 63.3216 79.1799 62.2157 77.4065 62.8745C75.633 63.5332 76.498 65.8508 73.9956 66.7836C71.4932 67.7164 70.3943 65.9999 67.9789 66.899C65.5636 67.7982 65.9988 69.4234 64.2906 70.0581C62.5825 70.6928 61.8644 69.5772 60.6458 70.0581C59.4273 70.5389 59.1335 72.217 59.1172 72.3228L59.7863 73.7268L109.889 55.0754" stroke="#263238" stroke-miterlimit="10"/>
<path d="M49.6133 52.4067L59.7589 73.7124L112.217 54.1954" stroke="#263238" stroke-linecap="round" stroke-linejoin="round"/>
<path d="M95.6897 62.7928L78.2817 69.2744C78.1245 69.3324 77.9997 69.4433 77.935 69.5826C77.8702 69.7219 77.8707 69.8783 77.9363 70.0173C78.002 70.1563 78.1274 70.2666 78.285 70.3238C78.4426 70.3811 78.6195 70.3807 78.7768 70.3226L96.1848 63.841C96.2626 63.812 96.3333 63.7697 96.3926 63.7165C96.452 63.6633 96.499 63.6003 96.5308 63.5311C96.5626 63.4619 96.5787 63.3878 96.5781 63.3131C96.5776 63.2384 96.5604 63.1646 96.5275 63.0957C96.4946 63.0269 96.4468 62.9645 96.3866 62.912C96.3264 62.8595 96.2552 62.818 96.1769 62.7899C96.0986 62.7618 96.0148 62.7476 95.9303 62.7481C95.8458 62.7486 95.7622 62.7638 95.6843 62.7928H95.6897Z" fill="#263238"/>
<path d="M108.765 35.7568L107.085 36.3815C106.911 36.4464 106.829 36.624 106.902 36.7782L107.609 38.2629C107.683 38.4171 107.884 38.4896 108.058 38.4247L109.738 37.7999C109.912 37.7351 109.994 37.5575 109.921 37.4033L109.214 35.9185C109.141 35.7643 108.94 35.6919 108.765 35.7568Z" fill="#BFBFBF" stroke="#263238" stroke-miterlimit="10"/>
<path d="M117.881 33.2358L110.918 35.8275C110.846 35.8518 110.767 35.8509 110.696 35.825C110.625 35.799 110.568 35.75 110.537 35.6881C110.508 35.6256 110.509 35.5555 110.538 35.4934C110.568 35.4312 110.624 35.3819 110.695 35.3563L117.658 32.7646C117.729 32.7392 117.808 32.7396 117.878 32.7658C117.948 32.7919 118.004 32.8416 118.033 32.9041C118.048 32.9346 118.056 32.9676 118.057 33.0009C118.057 33.0343 118.05 33.0674 118.036 33.0983C118.022 33.1292 118.001 33.1573 117.974 33.181C117.948 33.2046 117.916 33.2232 117.881 33.2358Z" fill="#263238"/>
<path d="M116.243 35.0481L111.402 36.8464C111.329 36.8725 111.249 36.8723 111.177 36.8457C111.105 36.8191 111.048 36.7683 111.018 36.7045C110.988 36.6408 110.989 36.5692 111.019 36.5057C111.049 36.4421 111.106 36.3917 111.179 36.3656L116.02 34.5624C116.09 34.5367 116.169 34.5365 116.239 34.5617C116.309 34.5869 116.366 34.6355 116.396 34.6971C116.413 34.7288 116.422 34.7633 116.424 34.7984C116.425 34.8336 116.419 34.8686 116.404 34.9014C116.39 34.9342 116.369 34.9642 116.341 34.9894C116.313 35.0146 116.28 35.0345 116.243 35.0481Z" fill="#263238"/>
<path d="M110.953 40.3342L109.273 40.9589C109.098 41.0238 109.017 41.2014 109.09 41.3556L109.797 42.8403C109.87 42.9945 110.071 43.0669 110.246 43.0021L111.925 42.3773C112.1 42.3125 112.182 42.1348 112.108 41.9806L111.401 40.4959C111.328 40.3417 111.127 40.2693 110.953 40.3342Z" fill="#D9E3F6" stroke="#263238" stroke-miterlimit="10"/>
<path d="M120.054 37.8131L113.091 40.4048C113.02 40.4302 112.941 40.4298 112.87 40.4037C112.8 40.3775 112.744 40.3278 112.715 40.2654C112.7 40.2348 112.692 40.2019 112.691 40.1685C112.691 40.1352 112.698 40.102 112.712 40.0711C112.726 40.0402 112.747 40.0121 112.774 39.9885C112.801 39.9649 112.833 39.9462 112.867 39.9336L119.831 37.3419C119.866 37.329 119.905 37.3224 119.943 37.3225C119.982 37.3226 120.02 37.3295 120.056 37.3426C120.091 37.3558 120.124 37.3751 120.151 37.3993C120.178 37.4235 120.2 37.4522 120.214 37.4838C120.229 37.5153 120.236 37.5492 120.236 37.5833C120.236 37.6174 120.228 37.6512 120.213 37.6826C120.198 37.7141 120.177 37.7427 120.149 37.7667C120.122 37.7908 120.089 37.8098 120.054 37.8228V37.8131Z" fill="#263238"/>
<path d="M118.421 39.6262L113.585 41.4245C113.513 41.4513 113.432 41.4517 113.359 41.4255C113.287 41.3994 113.229 41.3489 113.199 41.2851C113.168 41.2213 113.168 41.1495 113.198 41.0855C113.227 41.0215 113.284 40.9705 113.357 40.9437L118.198 39.1454C118.234 39.1325 118.272 39.1259 118.311 39.126C118.349 39.1261 118.388 39.1329 118.423 39.1461C118.459 39.1593 118.491 39.1785 118.518 39.2027C118.545 39.227 118.567 39.2557 118.582 39.2872C118.596 39.3188 118.604 39.3526 118.604 39.3867C118.604 39.4209 118.596 39.4546 118.581 39.4861C118.566 39.5176 118.544 39.5462 118.517 39.5702C118.489 39.5942 118.457 39.6133 118.421 39.6262Z" fill="#263238"/>
<path opacity="0.2" d="M89.117 134.922L81.5717 137.73L67.3516 107.865C68.6218 106.751 69.4549 105.307 69.7288 103.744C70.5775 99.7439 69.9791 86.8817 81.3106 85.5546C92.6421 84.2275 83.084 106.75 83.6063 111.039C84.085 114.953 90.5423 126.315 89.117 134.922Z" fill="black" fill-opacity="0.7"/>
</g>
<path d="M162.315 107.693L89.1144 134.922L81.5691 137.73L67.3489 107.866L34.3281 38.5153L115.074 8.47778L162.315 107.693Z" stroke="#263238" stroke-linecap="round" stroke-linejoin="round"/>
<path d="M84.5546 112.674C85.8275 108.827 90.7888 96.5083 90.136 91.0605C90.0829 90.607 89.966 90.1612 89.7879 89.7334C88.0471 85.6655 80.9315 86.0598 78.1952 89.4305C75.1978 93.1377 72.7552 99.8116 72.5376 103.855C72.3452 105.884 71.5985 107.841 70.3616 109.558C69.9343 110.192 69.4523 110.797 68.92 111.366L52.6979 77.3472C51.0591 78.5533 49.6278 79.9642 48.4493 81.5352C47.7867 82.4114 47.3588 83.4096 47.1981 84.4539C46.8663 87.8101 42.5687 101.615 40.8007 107.385C40.7626 107.51 40.7245 107.63 40.6919 107.745C38.9728 113.333 43.5098 134.085 42.2096 140.115C40.9095 146.145 40.1098 146.005 39.9194 150.289C39.7834 153.415 34.7242 162.916 29.0394 172.672C25.7754 178.264 22.3373 183.928 19.4922 188.539L61.0103 187.015C61.7283 182.558 62.4682 177.851 63.1427 173.292C63.4359 171.396 63.85 169.516 64.3831 167.662C65.297 164.392 66.4122 161.435 67.1031 159.704C67.9853 157.162 68.7117 154.579 69.2791 151.967C74.1098 147.448 80.4419 140.346 82.2752 135.537V135.504C82.7242 134.516 82.8669 133.441 82.6887 132.388C82.4864 131.524 82.3753 130.645 82.3568 129.763C82.1447 124.541 83.4883 115.871 84.5546 112.674Z" fill="white"/>
<path opacity="0.4" d="M70.3741 109.592C69.0848 111.876 67.5344 114.093 66.5661 116.651C65.5978 119.209 64.5152 119.574 61.6103 121.579C58.7053 123.584 56.5837 120.281 56.5837 120.281C56.5837 120.281 60.4298 116.752 59.1514 114.785C57.873 112.819 53.0858 107.929 53.3687 105.231C53.6515 102.534 50.4691 96.4848 50.4691 96.4848C50.4691 96.4848 57.7207 92.7199 56.3117 88.3106C55.5447 85.9065 51.7475 83.3436 48.4727 81.5213C49.6512 79.9503 51.0824 78.5394 52.7213 77.3333L68.9543 111.386C69.4784 110.821 69.953 110.221 70.3741 109.592Z" fill="#D9E3F6"/>
<path opacity="0.4" d="M44.066 130.465C44.1639 130.753 46.5249 137.643 44.5339 140.514C42.5428 143.385 40.4974 147.193 41.4711 151.092C42.2436 154.208 35.7156 165.459 29.0625 172.682C34.731 162.925 39.7902 153.424 39.9425 150.299C40.1329 146.015 40.9326 146.144 42.2327 140.124C43.5329 134.104 38.9687 113.342 40.715 107.755C40.7476 107.64 40.7857 107.519 40.8238 107.394C42.0913 113.727 45.0398 126.339 45.8503 130.392C46.8459 135.566 44.1531 130.681 44.066 130.465Z" fill="#D9E3F6"/>
<path opacity="0.4" d="M58.9922 172.057C63.8175 153.694 80.0559 139.615 82.2536 135.538C80.4203 140.346 74.0936 147.448 69.2575 151.968C68.6901 154.579 67.9637 157.162 67.0815 159.704C66.4015 161.435 65.2863 164.393 64.3615 167.662C59.6667 172.581 58.9922 172.057 58.9922 172.057Z" fill="#D9E3F6"/>
<path opacity="0.4" d="M84.5521 112.674C83.4641 115.871 82.1422 124.541 82.3489 129.748C81.4948 126.479 79.8519 122.324 79.5799 116.54C79.1175 106.731 85.4062 110.27 83.2302 105.418C81.0542 100.567 74.7873 106.779 77.8663 96.5516C80.113 89.0843 86.5159 89.1516 89.8017 89.7334C89.9798 90.1612 90.0967 90.6071 90.1498 91.0605C90.7863 96.5083 85.825 108.827 84.5521 112.674Z" fill="#D9E3F6"/>
<path d="M25.8086 178.418C31.0092 170.009 36.0739 161.358 39.7132 152.03C40.1484 150.689 39.5664 148.939 40.007 147.597C44.9356 135.485 39.3433 122.873 40.2627 110.462C41.0406 105.572 42.8086 100.654 44.6092 95.7154C45.4416 92.1524 45.7516 88.1615 47.0844 84.5745C48.4553 81.8723 49.8044 78.7324 52.7257 77.3621C58.2745 88.5991 63.8016 99.889 68.9587 111.415C71.2924 110.222 71.6787 107.568 72.0595 105.332C73.3107 99.9804 74.5782 95.0759 76.8684 90.5705C79.1968 86.9498 85.1264 85.4064 88.7657 88.3635C89.8093 89.2879 90.4061 90.5342 90.4304 91.8399C89.7232 98.0522 87.5145 104.342 85.2896 110.15C84.4137 112.833 83.5216 115.078 83.1462 117.742C83.1843 118.627 83.206 119.065 83.2496 119.949C81.9603 124.416 83.1462 128.349 82.8524 132.783C81.7264 140.779 74.4857 146.347 69.2524 152.285C67.9577 156.752 66.6684 161.219 64.9004 165.705C62.7244 172.437 62.0281 179.072 61.2828 185.54" stroke="#263238" stroke-linecap="round" stroke-linejoin="round"/>
<path d="M68.9366 111.4C67.9519 113.079 67.1504 114.837 66.543 116.65C65.863 119.006 62.4195 118.67 60.6406 120.132" stroke="#263238" stroke-linecap="round" stroke-linejoin="round"/>
<path d="M55.9414 107.25C55.9414 107.25 60.6252 108.692 63.3561 110.592C66.087 112.491 68.0998 112.933 68.0998 112.933" stroke="#263238" stroke-linecap="round" stroke-linejoin="round"/>
<path d="M52.957 96.9847C52.957 96.9847 56.765 97.9223 59.5394 96.7443C59.666 95.5445 59.9044 94.356 60.2521 93.1909" stroke="#263238" stroke-linecap="round" stroke-linejoin="round"/>
<path d="M60.4453 97.2297C60.4453 97.2297 60.4834 97.7106 62.4092 97.7106" stroke="#263238" stroke-linecap="round" stroke-linejoin="round"/>
<path d="M69.2569 151.968C66.6174 154.323 64.5903 157.158 63.3164 160.277" stroke="#263238" stroke-linecap="round" stroke-linejoin="round"/>
<path d="M40.4511 108.789C40.277 111.674 44.1067 121.906 45.2655 126.993C46.4242 132.081 46.8648 135.677 46.8648 135.677" stroke="#263238" stroke-linecap="round" stroke-linejoin="round"/>
</g>
<defs>
<clipPath id="clip0_691_14901">
<rect width="272" height="203" fill="white"/>
</clipPath>
</defs>
</svg>
