<svg width="48" height="48" viewBox="0 0 48 48" fill="none" xmlns="http://www.w3.org/2000/svg">
<g clip-path="url(#clip0_691_14760)">
<path d="M24 48C37.2548 48 48 37.2548 48 24C48 10.7452 37.2548 0 24 0C10.7452 0 0 10.7452 0 24C0 37.2548 10.7452 48 24 48Z" fill="#D7FBE9"/>
<path d="M7.99609 17.6C7.99609 14.0654 10.8615 11.2 14.3961 11.2H33.5961C37.1307 11.2 39.9961 14.0654 39.9961 17.6V30.4C39.9961 33.9347 37.1307 36.8 33.5961 36.8H14.3961C10.8615 36.8 7.99609 33.9347 7.99609 30.4V17.6Z" fill="#ACEFCF"/>
<ellipse cx="1.6" cy="1.6" rx="1.6" ry="1.6" transform="matrix(1 0 0 -1 12.7969 19.2)" fill="#0FBF6B"/>
<circle cx="3.2" cy="3.2" r="3.2" transform="matrix(1 0 0 -1 20.7969 27.2)" fill="#0FBF6B"/>
<path fill-rule="evenodd" clip-rule="evenodd" d="M40.7856 29.497C41.2843 29.9334 41.3349 30.6915 40.8984 31.1903L36.3066 36.4381C35.3199 37.5658 33.6203 37.7168 32.4502 36.7807L29.6457 34.5371C29.1282 34.1231 29.0443 33.3679 29.4583 32.8504C29.8723 32.3329 30.6275 32.249 31.145 32.663L33.9495 34.9066C34.1167 35.0403 34.3595 35.0188 34.5004 34.8577L39.0923 29.6099C39.5287 29.1111 40.2868 29.0605 40.7856 29.497Z" fill="#0FBF6B"/>
</g>
<defs>
<clipPath id="clip0_691_14760">
<rect width="48" height="48" fill="white"/>
</clipPath>
</defs>
</svg>
