<svg width="48" height="48" viewBox="0 0 48 48" fill="none" xmlns="http://www.w3.org/2000/svg">
<g clip-path="url(#clip0_691_14885)">
<path d="M24 48C37.2548 48 48 37.2548 48 24C48 10.7452 37.2548 0 24 0C10.7452 0 0 10.7452 0 24C0 37.2548 10.7452 48 24 48Z" fill="#D7FBE9"/>
<path d="M33.5961 9.59961C37.1307 9.59961 39.9961 12.465 39.9961 15.9996L39.9961 31.9996C39.9961 35.5342 37.1307 38.3996 33.5961 38.3996L14.3961 38.3996C10.8615 38.3996 7.99609 35.5342 7.99609 31.9996L7.99609 15.9996C7.99609 12.465 10.8615 9.59961 14.3961 9.59961L33.5961 9.59961Z" fill="#ACEFCF"/>
<circle cx="14.3969" cy="31.9994" r="1.6" fill="#0FBF6B"/>
<path d="M7.99609 15.9995L39.9961 15.9995L39.9961 22.3995L7.99609 22.3995L7.99609 15.9995Z" fill="#0FBF6B"/>
<path fill-rule="evenodd" clip-rule="evenodd" d="M40.7856 31.0967C41.2843 31.5331 41.3349 32.2913 40.8984 32.79L36.3066 38.0379C35.3199 39.1655 33.6203 39.3165 32.4502 38.3805L29.6457 36.1369C29.1282 35.7229 29.0443 34.9677 29.4583 34.4502C29.8723 33.9327 30.6275 33.8488 31.145 34.2628L33.9495 36.5064C34.1167 36.6401 34.3595 36.6185 34.5004 36.4574L39.0923 31.2096C39.5287 30.7109 40.2868 30.6603 40.7856 31.0967Z" fill="#0FBF6B"/>
</g>
<defs>
<clipPath id="clip0_691_14885">
<rect width="48" height="48" fill="white"/>
</clipPath>
</defs>
</svg>
