<svg width="48" height="48" viewBox="0 0 48 48" fill="none" xmlns="http://www.w3.org/2000/svg">
<g clip-path="url(#clip0_691_14870)">
<path d="M24 48C37.2548 48 48 37.2548 48 24C48 10.7452 37.2548 0 24 0C10.7452 0 0 10.7452 0 24C0 37.2548 10.7452 48 24 48Z" fill="#D7FBE9"/>
<path d="M9.59766 22.3996C9.59766 19.7486 11.7467 17.5996 14.3977 17.5996H33.5977C36.2486 17.5996 38.3977 19.7486 38.3977 22.3996V35.1996C38.3977 37.8506 36.2486 39.9996 33.5977 39.9996H14.3977C11.7467 39.9996 9.59766 37.8506 9.59766 35.1996V22.3996Z" fill="#ACEFCF"/>
<circle cx="1.6" cy="1.6" r="1.6" transform="matrix(1 0 0 -1 31.9961 36.7998)" fill="#0FBF6B"/>
<circle cx="1.6" cy="1.6" r="1.6" transform="matrix(1 0 0 -1 12.7969 24)" fill="#0FBF6B"/>
<ellipse cx="3.2" cy="3.2" rx="3.2" ry="3.2" transform="matrix(1 0 0 -1 20.7969 32)" fill="#0FBF6B"/>
<path fill-rule="evenodd" clip-rule="evenodd" d="M22.7984 11.3655L21.647 10.214C21.1783 9.74539 20.4185 9.74539 19.9499 10.214C19.4813 10.6826 19.4813 11.4424 19.9499 11.9111L22.0185 13.9797C23.112 15.0732 24.8849 15.0732 25.9783 13.9797L28.047 11.9111C28.5156 11.4424 28.5156 10.6826 28.047 10.214C27.5783 9.74539 26.8185 9.74539 26.3499 10.214L25.1984 11.3655V7.9998C25.1984 7.33706 24.6612 6.7998 23.9984 6.7998C23.3357 6.7998 22.7984 7.33706 22.7984 7.9998V11.3655Z" fill="#0FBF6B"/>
</g>
<defs>
<clipPath id="clip0_691_14870">
<rect width="48" height="48" fill="white"/>
</clipPath>
</defs>
</svg>
