<svg width="48" height="48" viewBox="0 0 48 48" fill="none" xmlns="http://www.w3.org/2000/svg">
<g clip-path="url(#clip0_691_14780)">
<path d="M24 48C37.2548 48 48 37.2548 48 24C48 10.7452 37.2548 0 24 0C10.7452 0 0 10.7452 0 24C0 37.2548 10.7452 48 24 48Z" fill="#D7FBE9"/>
<mask id="mask0_691_14780" style="mask-type:luminance" maskUnits="userSpaceOnUse" x="0" y="0" width="48" height="48">
<path d="M24 48C37.2548 48 48 37.2548 48 24C48 10.7452 37.2548 0 24 0C10.7452 0 0 10.7452 0 24C0 37.2548 10.7452 48 24 48Z" fill="white"/>
</mask>
<g mask="url(#mask0_691_14780)">
</g>
<path fill-rule="evenodd" clip-rule="evenodd" d="M22.9196 13.5887C19.5571 11.2325 14.8381 10.1647 11.3257 9.76785C9.58731 9.57142 8.16797 11.023 8.16797 12.814V30.6499C8.16797 32.4409 9.58731 33.8931 11.3257 34.0895C14.8381 34.4864 19.5571 35.5542 22.9196 37.9104C23.2427 38.1368 23.622 38.25 24.0013 38.25V13.9283C23.622 13.9283 23.2427 13.8151 22.9196 13.5887ZM11.7446 17.8883C11.845 17.2402 12.4518 16.7961 13.0999 16.8965C15.1626 17.216 17.4856 17.7499 19.6798 18.5984C20.2915 18.8349 20.5956 19.5226 20.359 20.1343C20.1225 20.746 19.4349 21.0501 18.8232 20.8135C16.8303 20.0429 14.682 19.5448 12.7364 19.2435C12.0883 19.1432 11.6443 18.5364 11.7446 17.8883ZM13.0999 23.2298C12.4518 23.1295 11.845 23.5735 11.7446 24.2216C11.6443 24.8697 12.0883 25.4765 12.7364 25.5769C13.7169 25.7287 14.7518 25.931 15.7943 26.194C16.4302 26.3544 17.0758 25.969 17.2362 25.3331C17.3967 24.6972 17.0112 24.0516 16.3753 23.8911C15.2527 23.6079 14.1445 23.3916 13.0999 23.2298Z" fill="#0FBF6B"/>
<path d="M25.0817 13.5887C28.4442 11.2325 33.1632 10.1647 36.6756 9.76785C38.414 9.57141 39.8333 11.023 39.8333 12.814V30.6499C39.8333 32.4409 38.414 33.8931 36.6756 34.0895C33.1632 34.4864 28.4442 35.5542 25.0817 37.9104C24.7586 38.1368 24.3793 38.25 24 38.25V13.9283C24.3793 13.9283 24.7586 13.8151 25.0817 13.5887Z" fill="#ACEFCF"/>
<path fill-rule="evenodd" clip-rule="evenodd" d="M39.032 31.023C39.5256 31.4549 39.5756 32.2051 39.1437 32.6987L34.5997 37.8918C33.6233 39.0078 31.9414 39.1572 30.7835 38.2309L28.0082 36.0107C27.4961 35.601 27.4131 34.8537 27.8228 34.3415C28.2325 33.8294 28.9797 33.7464 29.4919 34.1561L32.2672 36.3763C32.4326 36.5087 32.6729 36.4873 32.8123 36.3279L37.3564 31.1347C37.7882 30.6412 38.5385 30.5911 39.032 31.023Z" fill="#0FBF6B"/>
</g>
<defs>
<clipPath id="clip0_691_14780">
<rect width="48" height="48" fill="white"/>
</clipPath>
</defs>
</svg>
