<svg width="272" height="150" viewBox="0 0 272 150" fill="none" xmlns="http://www.w3.org/2000/svg">
<g clip-path="url(#clip0_691_15120)">
<path d="M246.729 80.522C229.902 64.2107 200.9 65.0997 180.986 76.2316C154.994 90.7553 123.448 87.3152 95.8249 76.0867C76.5128 68.2306 54.0355 66.1047 36.6847 87.7114C23.9848 103.53 17.1396 124.702 25.1693 143.042C25.6354 144.105 26.1888 145.139 26.8102 146.135H252.195C263.196 123.6 262.749 96.0506 246.729 80.522Z" fill="#F6F5F5"/>
<path d="M24.9346 143.129C19.6915 129.852 17.5651 117.802 18.6235 107.308C19.5459 98.0414 22.9053 90.166 28.5853 83.8946C34.0129 77.9035 41.3921 73.6324 49.9461 71.5452C57.8107 69.6222 66.2288 69.6899 73.6565 71.7384C84.8515 74.8306 92.2986 81.875 94.0852 91.055L93.5706 91.1516C91.8132 82.1746 84.5117 75.2751 73.5109 72.2409C66.1705 70.2117 57.8496 70.144 50.0723 72.0477C41.6251 74.1156 34.3333 78.3287 28.9737 84.2425C23.3617 90.4365 20.0605 98.2153 19.1478 107.366C18.1089 117.773 20.2158 129.746 25.4298 142.946L24.9346 143.129Z" fill="#DADADA"/>
<path d="M257.416 138.849L256.892 138.791C257.708 131.109 257.416 123.688 256.018 116.711C254.698 110.13 252.397 103.946 249.183 98.3123C243.114 87.6926 233.949 79.276 222.686 73.9806C217.171 71.3909 211.316 69.6322 205.277 68.7529C199.169 67.8639 193.004 67.8929 186.955 68.8398C174.08 70.8498 162.293 76.9568 152.885 86.4943L152.516 86.1271C162.011 76.5123 173.896 70.3473 186.877 68.318C192.975 67.3614 199.189 67.3324 205.354 68.2311C211.442 69.1201 217.355 70.8981 222.909 73.5071C234.269 78.8411 243.512 87.335 249.639 98.0514C252.882 103.733 255.203 109.976 256.533 116.605C257.941 123.639 258.242 131.119 257.416 138.849Z" fill="#DADADA"/>
<path d="M172.172 27.4244H168.57V23.8394H167.036V27.4244H163.434V28.9415H167.036V32.5265H168.57V28.9415H172.172V27.4244Z" fill="#86A7FF"/>
<path d="M128.091 34.1884H125.12V31.2314H123.858V34.1884H120.887V35.4446H123.858V38.4015H125.12V35.4446H128.091V34.1884Z" fill="#86A7FF"/>
<path d="M139.749 2.58971H137.147V0H136.049V2.58971H133.457V3.68164H136.049V6.26169H137.147V3.68164H139.749V2.58971Z" fill="#86A7FF"/>
<path d="M147.162 52.0938C153.099 52.0938 157.911 47.3046 157.911 41.3968C157.911 35.4889 153.099 30.6997 147.162 30.6997C141.226 30.6997 136.414 35.4889 136.414 41.3968C136.414 47.3046 141.226 52.0938 147.162 52.0938Z" fill="#86A7FF"/>
<path d="M148.382 46.7012V48.3439H146.285V46.7785C144.799 46.6915 143.362 46.2856 142.469 45.7445L143.595 43.2031C144.576 43.7829 145.886 44.1501 147.022 44.1501C148.023 44.1501 148.372 43.9472 148.372 43.5896C148.372 42.2851 142.624 43.3384 142.624 39.4828C142.624 37.8111 143.838 36.41 146.275 36.0717V34.458H148.372V36.0428C149.469 36.1491 150.537 36.4293 151.392 36.9028L150.333 39.4345C149.304 38.9127 148.343 38.6615 147.44 38.6615C146.411 38.6615 146.09 38.961 146.09 39.3089C146.09 40.5554 151.838 39.5118 151.838 43.3287C151.838 44.9135 150.683 46.2953 148.382 46.7012Z" fill="white"/>
<path d="M129.45 24.9875C132.523 24.9875 135.014 22.5085 135.014 19.4505C135.014 16.3926 132.523 13.9136 129.45 13.9136C126.378 13.9136 123.887 16.3926 123.887 19.4505C123.887 22.5085 126.378 24.9875 129.45 24.9875Z" fill="#86A7FF"/>
<path d="M130.078 22.2041V23.0545H128.991V22.2428C128.223 22.1945 127.476 21.9915 127.02 21.7113L127.602 20.3971C128.107 20.6967 128.787 20.8899 129.379 20.8899C129.894 20.8899 130.078 20.7837 130.078 20.6001C130.078 19.9236 127.107 20.4744 127.107 18.4742C127.107 17.6142 127.738 16.8798 129 16.7058V15.8555H130.088V16.6768C130.661 16.7348 131.214 16.8798 131.651 17.1213L131.107 18.4259C130.573 18.1553 130.078 18.0297 129.612 18.0297C129.078 18.0297 128.913 18.1843 128.913 18.3679C128.913 19.0153 131.884 18.4742 131.884 20.4454C131.874 21.2765 131.272 21.9915 130.078 22.2041Z" fill="white"/>
<path d="M152.519 23.2411C156.315 23.2411 159.393 20.178 159.393 16.3996C159.393 12.6211 156.315 9.55811 152.519 9.55811C148.722 9.55811 145.645 12.6211 145.645 16.3996C145.645 20.178 148.722 23.2411 152.519 23.2411Z" fill="#86A7FF"/>
<path d="M153.297 19.8007V20.854H151.957V19.8491C151.005 19.7911 150.083 19.5398 149.52 19.192L150.238 17.5686C150.869 17.9358 151.704 18.1773 152.432 18.1773C153.073 18.1773 153.297 18.0421 153.297 17.8198C153.297 16.9888 149.626 17.6555 149.626 15.1914C149.626 14.1188 150.403 13.2298 151.966 13.0076V11.9736H153.306V12.9883C154.005 13.0559 154.695 13.2298 155.238 13.5391L154.568 15.1528C153.908 14.8243 153.297 14.66 152.714 14.66C152.054 14.66 151.85 14.8532 151.85 15.0755C151.85 15.8679 155.52 15.2108 155.52 17.6459C155.51 18.6508 154.772 19.5398 153.297 19.8007Z" fill="white"/>
<path d="M20.7437 145.323C19.8989 146.318 7.86895 115.425 13.2383 114.623C18.559 113.831 22.6273 143.11 20.7437 145.323Z" fill="#86A7FF"/>
<path d="M21.2456 145.014C21.2456 145.014 11.5556 120.818 7.56504 125.804C4.31238 129.862 17.5269 145.14 21.2456 145.014Z" fill="#3A6BEA"/>
<path d="M20.6227 145.12C20.6227 145.12 19.4382 121.793 22.6617 121.764C29.2932 121.696 23.7297 144.066 20.6227 145.12Z" fill="#3A6BEA"/>
<path d="M23.0061 144.569C23.0061 144.569 20.1127 144.357 19.132 143.458C16.6464 141.168 11.112 137.138 9.81095 139.515C8.005 142.849 13.1316 149.082 23.0061 144.569Z" fill="#1F3C88"/>
<path d="M18.2891 145.922C18.2891 145.922 20.5805 144.888 20.9689 144.077C22.3864 141.091 26.076 135.592 28.5034 136.298C32.3677 137.419 29.4064 147.401 18.2891 145.922Z" fill="#1F3C88"/>
<path d="M256.716 145.623C257.746 146.415 264.163 117.764 258.493 117.609C252.871 117.465 254.425 143.854 256.716 145.623Z" fill="#86A7FF"/>
<path d="M256.637 146.048C256.637 146.048 261.21 122.905 266.113 126.886C270.104 130.142 260.501 145.767 256.637 146.048Z" fill="#3A6BEA"/>
<path d="M256.971 146.126C256.971 146.126 253.214 124.587 249.874 124.896C243.019 125.524 251.903 146.271 256.971 146.126Z" fill="#1F3C88"/>
<path d="M57.6361 96.312H47.4023V146.125H57.6361V96.312Z" fill="#86A7FF"/>
<path d="M92.9693 96.312H57.6367V146.125H92.9693V96.312Z" fill="#D3DFFF"/>
<path d="M57.8639 96.312H57.3984V146.125H57.8639V96.312Z" fill="#3A6BEA"/>
<path d="M129.156 58.5776H118.922V145.961H129.156V58.5776Z" fill="#86A7FF"/>
<path d="M164.489 58.5776H129.156V145.971H164.489V58.5776Z" fill="#D3DFFF"/>
<path d="M129.383 58.5776H128.918V145.961H129.383V58.5776Z" fill="#3A6BEA"/>
<path d="M196.48 114.594H186.246V146.222H196.48V114.594Z" fill="#86A7FF"/>
<path d="M231.801 114.594H196.469V146.222H231.801V114.594Z" fill="#D3DFFF"/>
<path d="M195.764 134.947L197.327 146.127H183.375L189.812 140.861L189.735 135.275L195.764 134.947Z" fill="#102048"/>
<path d="M186.365 103.299C186.365 103.299 171.529 103.299 188.647 138.222H195.21L186.365 103.299Z" fill="#1F3C88"/>
<path d="M200.542 134.947L202.114 146.127H188.152L194.599 140.861L194.512 135.275L200.542 134.947Z" fill="#1F3C88"/>
<path d="M217.835 100.469C217.835 100.469 225.214 120.249 197.64 114.577L202.621 138.309L192.397 138.222C192.397 138.222 175.997 109.649 186.367 103.31L217.835 100.469Z" fill="#3A6BEA"/>
<path d="M194.045 135.266C191.977 135.266 190.637 135.237 190.608 135.237C190.501 135.237 190.414 135.14 190.414 135.034C190.414 134.928 190.511 134.841 190.618 134.841C190.676 134.841 196.055 134.966 202.007 134.715C202.114 134.705 202.211 134.792 202.211 134.899C202.211 135.005 202.133 135.102 202.027 135.102C199.007 135.237 196.143 135.266 194.045 135.266Z" fill="white"/>
<path d="M196.03 132.018C192.923 132.018 189.66 131.864 189.427 131.844C189.321 131.835 189.233 131.748 189.243 131.641C189.253 131.535 189.34 131.448 189.447 131.458C189.476 131.458 192.098 131.593 194.874 131.622C199.486 131.68 200.972 131.429 201.399 131.216C201.496 131.168 201.613 131.206 201.661 131.303C201.71 131.4 201.671 131.516 201.574 131.564C200.865 131.912 198.496 132.018 196.03 132.018Z" fill="white"/>
<path d="M196.85 143.102C196.802 143.102 196.753 143.083 196.714 143.054L194.462 141.005C194.384 140.928 194.374 140.812 194.452 140.725C194.53 140.648 194.646 140.638 194.734 140.715L196.986 142.764C197.064 142.841 197.074 142.957 196.996 143.044C196.957 143.083 196.909 143.102 196.85 143.102Z" fill="white"/>
<path d="M203.959 77.4704C203.959 77.4704 191.774 75.3156 189.473 101.976L219.077 100.556C219.077 100.556 223.64 82.2923 209.377 77.654L203.959 77.4704Z" fill="#FBC343"/>
<path d="M199.873 102.469H186.086V104.682H199.873V102.469Z" fill="#E5ECFF"/>
<path d="M200.911 99.0479C200.911 99.0479 193.969 97.7724 191.59 98.9803C189.522 100.034 189.998 101.087 190.784 100.894L190.726 101.174C190.61 101.725 191.037 102.237 191.6 102.227C192.018 102.217 192.435 102.275 192.833 102.382C194.765 102.894 200.805 104.421 202.242 104.063L203.31 102.546L200.911 99.0479Z" fill="#E28B6D"/>
<path d="M202.234 104.063C202.234 104.063 215.352 107.561 219.061 100.565L212.876 96.2168C212.876 96.2168 208.41 99.338 200.895 99.0578L202.234 104.063Z" fill="#FBC343"/>
<path d="M194.502 104.672H178.588L173.879 88.9888H189.802L194.502 104.672Z" fill="#102048"/>
<path d="M200.913 99.3093C200.787 99.3093 200.67 99.2127 200.651 99.087C200.631 98.9421 200.729 98.8165 200.874 98.7875C200.991 98.7682 212.283 97.0868 214.933 96.1591C215.069 96.1108 215.215 96.1784 215.264 96.3137C215.312 96.449 215.244 96.594 215.108 96.6423C212.409 97.5989 201.418 99.232 200.952 99.2996C200.942 99.3093 200.932 99.3093 200.913 99.3093Z" fill="#E49B31"/>
<path d="M195.452 98.5268C195.316 98.5268 195.199 98.4205 195.189 98.2852C195.189 98.2562 194.966 95.5119 195.015 91.9945C195.063 88.7381 195.364 84.1481 196.51 80.708C196.559 80.5727 196.704 80.4954 196.84 80.5438C196.976 80.5921 197.054 80.737 197.005 80.8723C194.85 87.3369 195.694 98.1306 195.704 98.2466C195.714 98.3915 195.607 98.5171 195.461 98.5268C195.471 98.5268 195.461 98.5268 195.452 98.5268Z" fill="#E49B31"/>
<path d="M204.122 81.9931C203.17 81.9931 202.5 81.6935 202.491 81.6935C202.355 81.6355 202.296 81.4809 202.364 81.3456C202.423 81.2104 202.578 81.1621 202.714 81.22C202.801 81.2587 204.879 82.1573 206.753 80.418C206.86 80.3214 207.025 80.3214 207.122 80.4277C207.219 80.5339 207.219 80.6982 207.112 80.7949C206.073 81.7418 204.986 81.9931 204.122 81.9931Z" fill="#E49B31"/>
<path d="M212.319 97.2706C212.309 97.2706 212.299 97.2706 212.28 97.2706C212.134 97.2512 212.037 97.1256 212.056 96.9807C212.823 91.1442 209.755 85.4623 209.726 85.4043C209.658 85.2787 209.707 85.124 209.833 85.0467C209.959 84.9791 210.114 85.0274 210.192 85.153C210.221 85.211 213.367 91.0379 212.581 97.0483C212.561 97.1739 212.445 97.2706 212.319 97.2706Z" fill="#E49B31"/>
<path d="M206.949 77.0356C206.949 78.0599 206.279 79.0069 205.24 79.3065C203.958 79.6833 202.628 78.9489 202.259 77.6927C202.24 77.6541 202.23 77.6058 202.221 77.5671L201.551 74.6489L201.512 74.4846L204.259 71.7886L206.027 72.6679L206.881 76.5235C206.93 76.6878 206.949 76.8617 206.949 77.0356Z" fill="#E28B6D"/>
<path d="M203.939 74.6396C203.939 74.6396 203.745 75.9635 202.26 77.6932C202.24 77.6545 202.23 77.6062 202.221 77.5676L201.551 74.6493H203.939V74.6396Z" fill="#102048"/>
<path d="M197.107 67.9436C197.107 67.9436 196.651 79.7133 203.933 74.6401L205.661 71.4513L202.981 67.0933L197.107 67.9436Z" fill="#E28B6D"/>
<path d="M197.221 68.252C197.221 68.252 197.929 69.5758 202.503 69.1893C202.503 69.1893 202.959 73.9049 205.794 74.8132L207.969 74.3784C208.969 64.493 204.959 61.971 200.085 64.0582C194.725 61.9806 192.502 67.6722 197.192 70.2522C197.192 69.5082 197.153 68.996 197.221 68.252Z" fill="#102048"/>
<path d="M205.807 74.8128C205.807 74.8128 204.545 83.7415 207.944 83.1424C211.342 82.5336 212.08 77.5957 207.982 74.3779L205.807 74.8128Z" fill="#102048"/>
<path d="M206.965 75.1967C207.975 74.9071 208.73 74.452 208.651 74.1801C208.573 73.9082 207.69 73.9225 206.68 74.2121C205.67 74.5016 204.915 74.9567 204.994 75.2286C205.073 75.5005 205.955 75.4862 206.965 75.1967Z" fill="#FBC343"/>
<path d="M198.057 71.3632C198.218 71.3632 198.348 71.2334 198.348 71.0732C198.348 70.913 198.218 70.7832 198.057 70.7832C197.896 70.7832 197.766 70.913 197.766 71.0732C197.766 71.2334 197.896 71.3632 198.057 71.3632Z" fill="#102048"/>
<path d="M199.873 71.0934C200.055 71.0934 200.203 70.9462 200.203 70.7647C200.203 70.5832 200.055 70.436 199.873 70.436C199.691 70.436 199.543 70.5832 199.543 70.7647C199.543 70.9462 199.691 71.0934 199.873 71.0934Z" fill="#102048"/>
<path d="M198.783 72.8326C198.715 72.8326 198.667 72.8229 198.618 72.8229C198.463 72.8036 198.337 72.7263 198.259 72.62C198.191 72.5234 198.171 72.4171 198.201 72.3011C198.269 71.9726 198.715 71.6827 198.803 71.6344C198.861 71.5957 198.948 71.615 198.987 71.673C199.026 71.731 199.007 71.818 198.948 71.8566C198.744 71.9822 198.502 72.1948 198.463 72.3591C198.453 72.4074 198.463 72.4461 198.482 72.4751C198.511 72.5234 198.579 72.562 198.667 72.5717C198.783 72.591 198.9 72.5814 198.968 72.5524C199.036 72.5234 199.113 72.5524 199.142 72.62C199.172 72.6877 199.142 72.7649 199.074 72.7939C198.977 72.8229 198.871 72.8326 198.783 72.8326Z" fill="#102048"/>
<path d="M199.177 73.9345C199.041 73.9345 198.895 73.9152 198.74 73.8572C198.672 73.8378 198.633 73.7605 198.662 73.6928C198.682 73.6252 198.759 73.5865 198.827 73.6155C199.565 73.8765 200.089 73.2385 200.109 73.2095C200.157 73.1515 200.235 73.1418 200.293 73.1901C200.352 73.2385 200.361 73.3158 200.313 73.3738C200.313 73.3738 199.866 73.9345 199.177 73.9345Z" fill="#102048"/>
<path d="M199.324 69.9916C199.499 70.214 199.693 70.1076 200.217 70.0883C200.343 70.0883 201.004 70.1076 200.965 69.9529C200.945 69.8369 200.547 69.6339 200.101 69.6146C199.858 69.6049 199.654 69.6339 199.44 69.7113C199.392 69.7306 199.343 69.7499 199.305 69.7886C199.256 69.8466 199.266 69.9143 199.324 69.9916Z" fill="#102048"/>
<path d="M198.505 70.0299C198.437 70.2619 198.253 70.2135 197.835 70.3295C197.738 70.3585 197.233 70.5326 197.204 70.3875C197.185 70.2812 197.428 70.0105 197.767 69.8848C197.952 69.8172 198.127 69.7978 198.311 69.8075C198.36 69.8075 198.398 69.8172 198.437 69.8365C198.505 69.8848 198.525 69.9525 198.505 70.0299Z" fill="#102048"/>
<path opacity="0.4" d="M201.777 72.8128C202.216 72.8128 202.573 72.458 202.573 72.0204C202.573 71.5828 202.216 71.228 201.777 71.228C201.337 71.228 200.98 71.5828 200.98 72.0204C200.98 72.458 201.337 72.8128 201.777 72.8128Z" fill="#EB5D60"/>
<path d="M229.151 40.5391C222.48 40.5391 217.082 45.9214 217.082 52.5503C217.082 54.6665 217.635 56.6475 218.597 58.3771L216.062 64.5036L221.995 62.2134C223.995 63.6822 226.461 64.5615 229.141 64.5615C235.812 64.5615 241.21 59.1792 241.21 52.5503C241.22 45.9214 235.811 40.5391 229.151 40.5391Z" fill="white"/>
<path d="M215.598 64.9666L218.316 58.3957C217.345 56.608 216.821 54.5884 216.821 52.5495C216.821 45.7853 222.355 40.2773 229.152 40.2773C235.949 40.2773 241.483 45.7853 241.483 52.5495C241.483 59.3137 235.949 64.8216 229.152 64.8216C226.56 64.8216 224.074 64.0196 221.967 62.5025L215.598 64.9666ZM222.035 61.9227L222.152 62.0097C224.2 63.5171 226.618 64.3095 229.142 64.3095C235.657 64.3095 240.949 59.0334 240.949 52.5591C240.949 46.0849 235.648 40.8088 229.142 40.8088C222.637 40.8088 217.336 46.0849 217.336 52.5591C217.336 54.5497 217.85 56.521 218.821 58.2604L218.879 58.3667L216.53 64.0486L222.035 61.9227Z" fill="#86A7FF"/>
<path d="M223.59 50.4144C223.59 48.7137 224.629 47.6411 226.105 47.6411C227.58 47.6411 228.6 48.704 228.6 50.4144C228.6 52.1248 227.571 53.1877 226.105 53.1877C224.629 53.1877 223.59 52.1055 223.59 50.4144ZM227.153 50.4144C227.153 49.3322 226.736 48.82 226.095 48.82C225.473 48.82 225.037 49.3515 225.037 50.4144C225.037 51.4774 225.473 52.0088 226.095 52.0088C226.736 52.0088 227.153 51.487 227.153 50.4144ZM232.124 47.7474H233.843L226.94 57.8164H225.221L232.124 47.7474ZM230.464 55.159C230.464 53.4583 231.503 52.3857 232.959 52.3857C234.435 52.3857 235.474 53.468 235.474 55.159C235.474 56.8597 234.435 57.9323 232.959 57.9323C231.503 57.9323 230.464 56.85 230.464 55.159ZM234.018 55.159C234.018 54.0961 233.6 53.5646 232.959 53.5646C232.338 53.5646 231.901 54.0864 231.901 55.159C231.901 56.2413 232.338 56.7534 232.959 56.7534C233.6 56.7534 234.018 56.2219 234.018 55.159Z" fill="#86A7FF"/>
<path d="M87.3867 131.64L88.8431 146.192L103.097 146.038L96.6204 139.418L95.1348 131.359L87.3867 131.64Z" fill="#102048"/>
<path d="M99.3038 143.032C98.1192 143.032 97.2745 142.713 96.7696 142.066C95.9249 140.984 96.4103 139.428 96.4298 139.36C96.4589 139.254 96.5754 139.196 96.6725 139.235C96.7793 139.264 96.8376 139.38 96.7987 139.476C96.7987 139.486 96.3521 140.906 97.0706 141.824C97.5464 142.433 98.4299 142.704 99.7018 142.626C99.8086 142.617 99.9057 142.704 99.9057 142.81C99.9154 142.916 99.8281 143.013 99.7213 143.013C99.5853 143.023 99.4397 143.032 99.3038 143.032Z" fill="white"/>
<path d="M64.0449 131.398L61.7923 138.878L55.5977 150L68.4627 145.7L71.2784 131.582L64.0449 131.398Z" fill="#102048"/>
<path d="M59.1034 144.144C59.0063 144.144 58.9287 144.076 58.9092 143.98C58.8898 143.873 58.9675 143.777 59.0743 143.757C60.9676 143.439 62.1036 142.801 62.4435 141.863C62.9289 140.54 61.657 139.023 61.6473 139.003C61.5793 138.916 61.589 138.8 61.6667 138.723C61.7541 138.655 61.8706 138.665 61.9483 138.742C62.0065 138.81 63.3756 140.453 62.8124 141.989C62.4143 143.062 61.1812 143.786 59.1423 144.134C59.1228 144.144 59.1131 144.144 59.1034 144.144Z" fill="white"/>
<path d="M95.8506 80.425L97.7439 132.702C97.8119 134.461 96.4331 135.949 94.6563 136.027L88.0927 136.307C86.3256 136.384 84.8206 135.022 84.7333 133.263L81.8398 77.2266L95.8506 80.425Z" fill="#3A6BEA"/>
<path d="M89.8804 77.4971L89.4046 79.1495L88.492 82.3093L73.2967 134.751C72.9472 135.959 71.8014 136.761 70.5489 136.684L62.4124 136.181C60.7327 136.075 59.5579 134.471 59.9754 132.847L71.8694 86.5707L73.4326 80.483L85.2781 78.3378L89.8804 77.4971Z" fill="#3A6BEA"/>
<g opacity="0.8">
<path d="M92.1172 80.2795C92.1463 80.6853 95.3698 120.903 93.5153 135.823L93.9037 135.871C95.7582 120.903 92.5347 80.6563 92.5056 80.2505L92.1172 80.2795Z" fill="white"/>
<path d="M77.6304 79.9702C76.9896 81.9995 61.9691 129.851 62.6682 135.871L63.0566 135.823C62.3672 129.89 77.844 80.5886 78.0091 80.0862L77.6304 79.9702Z" fill="white"/>
</g>
<path opacity="0.6" d="M95.8514 80.4251L88.4916 82.3094L71.8594 86.5709L73.4226 80.4831L85.2681 78.3379L89.4043 79.1496L95.8514 80.4251Z" fill="#1F3C88"/>
<path d="M82.125 104.4C82.1056 104.4 82.0764 104.4 82.057 104.39C81.9211 104.351 81.8337 104.206 81.8725 104.071L84.7757 93.4224L88.9119 90.5042C89.0284 90.4172 89.1935 90.4462 89.2808 90.5622C89.3682 90.6781 89.3391 90.8424 89.2226 90.9294L85.2417 93.7413L82.3774 104.206C82.3483 104.322 82.2415 104.4 82.125 104.4Z" fill="#1F3C88"/>
<path d="M83.8477 52.6733L90.4695 65.7862C92.6638 64.0855 94.9844 62.7906 96.4408 62.0562C91.6832 52.6927 83.8477 52.6733 83.8477 52.6733Z" fill="#1F3C88"/>
<path d="M107.631 57.6686C107.631 57.6686 108.262 55.4944 107.699 54.934C107.136 54.3735 105.301 57.8039 105.301 57.8039L98.4654 65.3025C97.7857 64.1042 97.1061 63.0316 96.4361 62.046C94.9894 62.7804 92.6592 64.0753 90.4648 65.776L94.1544 73.0909C95.0671 74.8979 97.1061 75.8449 99.0771 75.3907C100.213 75.1298 101.194 74.4244 101.805 73.4485L109.155 61.7368C109.719 60.0554 109.02 58.7605 107.631 57.6686Z" fill="#F9B384"/>
<path d="M73.5199 74.4051C73.1801 75.671 73.015 76.4344 73.015 76.4344L73.1801 80.5992C73.1801 80.5992 66.0631 80.7344 63.9658 78.1544C62.558 76.4247 62.723 73.5644 65.1407 68.3077C65.7718 66.9452 66.1893 65.9885 66.7816 64.9546C68.7137 65.0899 71.3644 65.4088 74.0831 66.1142L70.3546 73.6707L73.5199 74.4051Z" fill="#F9B384"/>
<path d="M83.8524 52.6727C83.8524 52.6727 73.4731 52.1026 66.793 64.9545C69.1524 65.1285 72.5604 65.5633 75.8713 66.6359C77.7938 61.099 80.5707 54.8663 83.8524 52.6727Z" fill="#1F3C88"/>
<path d="M95.8512 80.4254L73.1797 80.5993C73.0243 78.1159 73.3544 73.7385 73.7817 69.5351C73.8108 69.2935 73.8302 69.0616 73.8593 68.82C74.0438 66.9937 74.2477 65.2253 74.4419 63.6889C74.5002 63.1961 74.5584 62.7226 74.607 62.2877C74.8885 60.1039 75.0827 58.6641 75.0827 58.6641L83.86 52.6826C87.9866 53.9775 93.919 61.6983 93.919 61.6983L95.8512 80.4254Z" fill="#1F3C88"/>
<path d="M108.594 55.2056L105.652 61.6702L106.39 62.0374L109.847 55.824L108.594 55.2056Z" fill="#1F3C88"/>
<path d="M110.633 54.4127L109.274 53.7363C109.255 54.0649 109.177 54.3644 109.051 54.6253L110.07 55.1375C110.196 54.8669 110.381 54.635 110.633 54.4127Z" fill="#102048"/>
<path d="M109.04 54.6152C108.934 54.8375 108.788 55.0307 108.594 55.195L109.837 55.8135C109.866 55.5622 109.943 55.3303 110.05 55.1177L109.04 54.6152Z" fill="#1F3C88"/>
<path d="M115.925 52.2982C117.049 50.0711 116.147 47.3585 113.909 46.2395C111.671 45.1204 108.945 46.0187 107.821 48.2458C106.697 50.4729 107.599 53.1855 109.837 54.3045C112.075 55.4235 114.8 54.5253 115.925 52.2982Z" fill="#1F3C88"/>
<path d="M115.032 51.8514C115.909 50.1155 115.205 48.0012 113.461 47.129C111.717 46.2568 109.592 46.9569 108.716 48.6928C107.839 50.4287 108.543 52.543 110.287 53.4152C112.031 54.2875 114.156 53.5873 115.032 51.8514Z" fill="#E5ECFF"/>
<path d="M113.878 51.755C113.849 51.755 113.81 51.7454 113.781 51.7357C113.645 51.6874 113.577 51.5328 113.635 51.3975C114.111 50.1703 113.81 48.9817 112.907 48.5082C112.781 48.4406 112.732 48.286 112.8 48.1604C112.868 48.0347 113.024 47.9864 113.15 48.0541C114.305 48.6628 114.703 50.1123 114.121 51.5908C114.082 51.6971 113.985 51.755 113.878 51.755Z" fill="white"/>
<path d="M109.394 58.9337C108.88 59.3203 108.278 59.5135 108.006 59.2236C107.744 58.9434 108.229 58.151 108.394 57.9191C108.627 57.6002 109.627 56.6629 110.045 57.1847C110.482 57.7259 110.006 58.4699 109.394 58.9337Z" fill="#E28B6D"/>
<path d="M109.812 60.2292C109.298 60.6157 108.696 60.8089 108.424 60.519C108.162 60.2388 108.647 59.4464 108.812 59.2145C109.045 58.8956 110.045 57.9583 110.463 58.4801C110.89 59.0213 110.424 59.7653 109.812 60.2292Z" fill="#E28B6D"/>
<path d="M109.929 61.5906C109.473 61.9385 108.929 62.1124 108.696 61.8515C108.463 61.6003 108.9 60.8949 109.046 60.692C109.249 60.4021 110.143 59.5711 110.521 60.0349C110.9 60.5084 110.473 61.1751 109.929 61.5906Z" fill="#E28B6D"/>
<path d="M71.0117 80.5312C71.0117 80.5312 76.7112 81.1013 76.818 80.5022C76.9248 79.903 75.5752 79.5938 75.5752 79.5938C75.5752 79.5938 78.3909 79.7194 78.3035 79.2073C78.2161 78.6952 77.0024 78.3473 77.0024 78.3473C77.0024 78.3473 78.9735 78.4053 78.7696 77.8351C78.5657 77.265 76.9053 76.8592 76.9053 76.8592C76.9053 76.8592 79.5269 76.3857 78.5268 75.8832C77.5267 75.3807 72.0798 74.1245 72.0798 74.1245L71.0117 80.5312Z" fill="#F9B384"/>
<path d="M73.3841 74.6466C73.3646 74.6466 73.3452 74.6466 73.3258 74.6369L68.1021 73.3517C67.9662 73.3131 67.8788 73.1778 67.9079 73.0328C67.9468 72.8975 68.0827 72.8106 68.2284 72.8396L73.452 74.1248C73.588 74.1634 73.6753 74.2987 73.6462 74.4436C73.6074 74.5596 73.5006 74.6466 73.3841 74.6466Z" fill="#E28B6D"/>
<path d="M96.7926 67.2931C96.7246 67.2931 96.6664 67.2738 96.6178 67.2255C96.511 67.1288 96.5013 66.9646 96.5984 66.8583L101.181 61.9011C101.278 61.7948 101.443 61.7851 101.55 61.8818C101.657 61.9784 101.667 62.1427 101.57 62.249L96.9868 67.2061C96.9382 67.2641 96.8605 67.2931 96.7926 67.2931Z" fill="#E28B6D"/>
<path d="M83.1611 58.7307C81.5688 58.7307 80.4522 57.7258 80.4328 57.7064C80.326 57.6098 80.3163 57.4455 80.4231 57.3392C80.5202 57.2329 80.6852 57.2233 80.792 57.3296C80.8988 57.4262 83.3942 59.6487 86.1905 56.6918C86.2876 56.5855 86.4526 56.5855 86.5594 56.6821C86.6662 56.7788 86.6662 56.9431 86.5691 57.0493C85.3555 58.3345 84.1612 58.7307 83.1611 58.7307Z" fill="#3A6BEA"/>
<path d="M74.1657 65.9792C74.0589 66.8875 73.9618 67.8441 73.855 68.8105C73.8259 69.052 73.8065 69.284 73.7773 69.5255C75.6221 67.0518 75.5639 63.9113 75.5639 63.7856C74.8162 64.8196 74.3308 65.67 74.1657 65.9792Z" fill="#102048"/>
<path d="M86.2954 46.855V53.4162C86.2954 54.972 85.0332 56.2282 83.47 56.2282C81.9068 56.2282 80.6445 54.972 80.6445 53.4162V46.855H86.2954Z" fill="#F9B384"/>
<path d="M86.2974 48.6245V53.0985C83.7244 51.8037 82.6758 49.4652 82.6758 49.4652L86.2974 48.6245Z" fill="#102048"/>
<path d="M87.9466 42.5263C87.9466 42.5263 90.238 53.1074 82.6743 49.4547L80.0625 45.8891L81.7908 40.6903L85.7328 40.4487L87.9466 42.5263Z" fill="#F9B384"/>
<path d="M87.9471 42.5263C87.9471 42.5263 82.5972 38.2359 80.665 45.7345L78.9756 45.4156C78.9756 45.4156 77.5483 39.6757 82.6748 38.6031C87.1023 37.6851 87.9471 42.5263 87.9471 42.5263Z" fill="#EB5D60"/>
<path d="M81.2602 47.2313C81.791 46.703 81.705 45.7608 81.0679 45.1268C80.4309 44.4928 79.4842 44.4072 78.9534 44.9355C78.4225 45.4638 78.5086 46.406 79.1456 47.04C79.7826 47.674 80.7293 47.7596 81.2602 47.2313Z" fill="#F9B384"/>
<path d="M80.7159 46.6339C80.6673 46.6339 80.6188 46.6049 80.5993 46.5663C80.5993 46.5566 80.1721 45.7542 79.5022 45.8219C79.4245 45.8316 79.3662 45.7736 79.3565 45.7059C79.3468 45.6382 79.4051 45.5705 79.473 45.5609C80.3275 45.4739 80.8129 46.4116 80.8324 46.4503C80.8615 46.5179 80.8421 46.5953 80.7741 46.6243C80.7547 46.6243 80.7353 46.6339 80.7159 46.6339Z" fill="#102048"/>
<path d="M87.2557 45.4256C87.4594 45.4256 87.6246 45.2612 87.6246 45.0583C87.6246 44.8554 87.4594 44.6909 87.2557 44.6909C87.0519 44.6909 86.8867 44.8554 86.8867 45.0583C86.8867 45.2612 87.0519 45.4256 87.2557 45.4256Z" fill="#102048"/>
<path d="M84.9276 45.4539C85.1313 45.4539 85.2965 45.2895 85.2965 45.0866C85.2965 44.8837 85.1313 44.7192 84.9276 44.7192C84.7238 44.7192 84.5586 44.8837 84.5586 45.0866C84.5586 45.2895 84.7238 45.4539 84.9276 45.4539Z" fill="#102048"/>
<path d="M86.5969 47.1935C86.4999 47.1935 86.3833 47.1838 86.2862 47.1355C86.2183 47.1065 86.1891 47.0292 86.2183 46.9615C86.2474 46.8939 86.3251 46.8649 86.3931 46.8939C86.4707 46.9326 86.5969 46.9422 86.7426 46.9132C86.8397 46.9036 86.9174 46.8553 86.9562 46.7973C86.9853 46.749 86.995 46.7103 86.9853 46.6523C86.9465 46.4687 86.6746 46.2271 86.4416 46.0822C86.3833 46.0436 86.3639 45.9662 86.4028 45.8986C86.4416 45.8406 86.5193 45.8213 86.5872 45.86C86.6843 45.9179 87.1698 46.2368 87.2475 46.5943C87.2766 46.72 87.2475 46.8359 87.1795 46.9422C87.1018 47.0582 86.9562 47.1451 86.7911 47.1645C86.7329 47.1838 86.6649 47.1935 86.5969 47.1935Z" fill="#102048"/>
<path d="M85.9378 48.2956C85.1805 48.2956 84.6853 47.6769 84.6756 47.6673C84.6271 47.6093 84.6368 47.5319 84.695 47.4836C84.7533 47.4352 84.831 47.4449 84.8795 47.5029C84.9086 47.5319 85.4912 48.2473 86.3262 47.9573C86.3942 47.9379 86.4719 47.9669 86.4913 48.0346C86.5107 48.1023 86.4816 48.1796 86.4136 48.199C86.2485 48.2666 86.0932 48.2956 85.9378 48.2956Z" fill="#102048"/>
<path d="M85.6375 43.9954C85.5501 44.2178 85.3171 44.1694 84.7637 44.2661C84.6374 44.2854 83.9772 44.4498 83.9384 44.3144C83.9189 44.2178 84.2296 43.9664 84.6763 43.8504C84.919 43.7924 85.1423 43.7731 85.3851 43.7924C85.4433 43.7924 85.5016 43.8021 85.5501 43.8214C85.6375 43.8601 85.6666 43.9181 85.6375 43.9954Z" fill="#102048"/>
<path d="M86.6558 43.9857C86.7237 44.208 86.9471 44.1597 87.4325 44.2563C87.549 44.2757 88.1413 44.44 88.1705 44.3047C88.1899 44.208 87.9083 43.9566 87.5199 43.8406C87.2966 43.7826 87.1024 43.7633 86.8791 43.7826C86.8208 43.7826 86.7723 43.7923 86.7237 43.8116C86.6558 43.8406 86.6267 43.9083 86.6558 43.9857Z" fill="#102048"/>
<path opacity="0.4" d="M83.0437 47.0482C83.5317 47.0482 83.9273 46.6545 83.9273 46.1689C83.9273 45.6832 83.5317 45.2896 83.0437 45.2896C82.5557 45.2896 82.1602 45.6832 82.1602 46.1689C82.1602 46.6545 82.5557 47.0482 83.0437 47.0482Z" fill="#EB5D60"/>
<path d="M43.5646 32.3237C50.633 32.3237 56.3616 38.025 56.3616 45.0597C56.3616 47.3015 55.779 49.4081 54.7498 51.2344L57.4296 57.728L51.1379 55.3026C49.0115 56.8583 46.3997 57.7957 43.5548 57.7957C36.4864 57.7957 30.7578 52.0944 30.7578 45.0597C30.7578 38.025 36.4961 32.3237 43.5646 32.3237Z" fill="white"/>
<path d="M57.9058 58.2007L51.1772 55.6013C48.9343 57.2054 46.303 58.0558 43.5553 58.0558C36.3509 58.0558 30.4961 52.2289 30.4961 45.0589C30.4961 37.8889 36.3509 32.062 43.5553 32.062C50.7597 32.062 56.6145 37.8889 56.6145 45.0589C56.6145 47.2138 56.0707 49.359 55.0318 51.2529L57.9058 58.2007ZM43.565 32.5838C36.6519 32.5838 31.0301 38.1788 31.0301 45.0589C31.0301 51.939 36.6519 57.5339 43.565 57.5339C46.2448 57.5339 48.8178 56.6933 50.9927 55.0892L51.1092 55.0022L56.964 57.2634L54.459 51.2239L54.5172 51.1177C55.5464 49.272 56.0902 47.1751 56.0902 45.0685C56.0999 38.1884 50.4684 32.5838 43.565 32.5838Z" fill="#86A7FF"/>
<path d="M41.8633 49.7554C41.8633 48.8567 42.5721 48.1899 43.5527 48.1899C44.5431 48.1899 45.2422 48.8567 45.2422 49.7554C45.2422 50.6347 44.5334 51.3498 43.5527 51.3498C42.5721 51.3498 41.8633 50.625 41.8633 49.7554Z" fill="#86A7FF"/>
<path d="M41.9141 38.9326H45.1958L44.6521 46.9433H42.4675L41.9141 38.9326Z" fill="#86A7FF"/>
<path d="M195.284 32.2846C191.653 30.7385 187.293 31.7725 184.788 35.0386C181.827 38.9038 182.574 44.4215 186.458 47.3687C189.4 49.6009 193.303 49.7168 196.313 47.9485L191.818 40.3726L195.284 32.2846Z" fill="#86A7FF"/>
<path d="M195.176 41.4165L199.671 48.9924C200.623 48.4319 201.487 47.6878 202.205 46.7505C204.312 43.9965 204.536 40.4115 203.089 37.5029L195.176 41.4165Z" fill="#D3DFFF"/>
<path d="M202.788 35.3283C202.206 34.159 201.351 33.0961 200.235 32.2457C199.642 31.7916 199.002 31.434 198.351 31.1538L194.875 39.2418L202.788 35.3283Z" fill="#E5ECFF"/>
<path d="M101.465 27.2795H78.5312V15.3745H79.0556V26.7576H101.465V27.2795Z" fill="#86A7FF"/>
<path d="M81.0365 25.3854L80.5898 25.1149L82.7065 21.7328L84.1629 24.1002L87.2117 17.6163L90.3284 23.4818L98.7853 15.4614L99.1446 15.8383L90.1925 24.3322L87.2408 18.7855L84.2212 25.1922L82.7065 22.7281L81.0365 25.3854Z" fill="#86A7FF"/>
<path d="M272 145.865H0V146.387H272V145.865Z" fill="#102048"/>
</g>
<defs>
<clipPath id="clip0_691_15120">
<rect width="272" height="150" fill="white"/>
</clipPath>
</defs>
</svg>
