<svg width="48" height="48" viewBox="0 0 48 48" fill="none" xmlns="http://www.w3.org/2000/svg">
<g clip-path="url(#clip0_691_14799)">
<path d="M24 48C37.2548 48 48 37.2548 48 24C48 10.7452 37.2548 0 24 0C10.7452 0 0 10.7452 0 24C0 37.2548 10.7452 48 24 48Z" fill="#D7FBE9"/>
<path opacity="0.4" d="M20.7449 10.8655C22.1619 8.37818 25.8303 8.37817 27.2473 10.8655L39.5227 32.4119C40.8999 34.8292 39.1074 37.8 36.2715 37.8H11.7207C8.88483 37.8 7.09226 34.8292 8.46949 32.4119L20.7449 10.8655Z" fill="#6CDEA7"/>
<path d="M25.5945 31.4C25.5945 32.2837 24.8782 33 23.9945 33C23.1109 33 22.3945 32.2837 22.3945 31.4C22.3945 30.5164 23.1109 29.8 23.9945 29.8C24.8782 29.8 25.5945 30.5164 25.5945 31.4Z" fill="#F77D48"/>
<path fill-rule="evenodd" clip-rule="evenodd" d="M23.9969 17.4C24.6596 17.4 25.1969 17.9373 25.1969 18.6V26.6C25.1969 27.2628 24.6596 27.8 23.9969 27.8C23.3341 27.8 22.7969 27.2628 22.7969 26.6V18.6C22.7969 17.9373 23.3341 17.4 23.9969 17.4Z" fill="#F77D48"/>
</g>
<defs>
<clipPath id="clip0_691_14799">
<rect width="48" height="48" fill="white"/>
</clipPath>
</defs>
</svg>
