<svg aria-hidden="true" style="position: absolute; width: 0; height: 0; overflow: hidden;" version="1.1" xmlns="http://www.w3.org/2000/svg" xmlns:xlink="http://www.w3.org/1999/xlink">
<defs>
<symbol id="icon-leaves" viewBox="0 0 32 32">
<path fill="#fff4d9" style="fill: var(--color1, #fff4d9)" d="M16 32c8.837 0 16-7.163 16-16s-7.163-16-16-16c-8.837 0-16 7.163-16 16s7.163 16 16 16z"></path>
<path fill="#d7fbe9" style="fill: var(--color2, #d7fbe9)" d="M16 32c8.837 0 16-7.163 16-16s-7.163-16-16-16c-8.837 0-16 7.163-16 16s7.163 16 16 16z"></path>
<path fill="#e8b182" style="fill: var(--color3, #e8b182)" d="M25.935 16.262c-0.525 0.59-1.148 2.033-1.148 2.033l-1.41 1.672-2.426 1.246-1.967 0.328-2.098 5.18c1.508-0.918 7.902-4.262 7.902-4.262l2-3.41c0 0 0.918-2.033 0.82-2.787-0.066-0.393-0.82-0.984-1.672 0z"></path>
<path fill="#e8b182" style="fill: var(--color3, #e8b182)" d="M25.278 15.279c-0.066-0.393-0.82-0.984-1.639 0-0.525 0.59-1.148 2.033-1.148 2.033l-1.41 1.672-0.131 0.066 0.459-0.787c0 0 0.787-1.771 0.689-2.426-0.066-0.328-0.689-0.852-1.41 0-0.459 0.525-0.984 1.771-0.984 1.771l-1.246 1.443-2.098 1.082c0 0-0.164 0.033-0.459 0.098-1.443 0.885-3.967 0.984-5.246 1.115-0.787 0.098-1.639 0.197-2.426 0.393v5.869l8.623-0.885 1.049-2.426c1.41-0.885 4.557-2.787 4.557-2.787l2-3.41c0.033 0 0.951-2.066 0.82-2.82z"></path>
<path fill="#e8b182" style="fill: var(--color3, #e8b182)" d="M16.458 20.131c0.459 0.098 0.918 0.131 1.344 0.229l0.361-0.426c0 0 0.885-1.443 0.885-2.033 0-0.295-0.492-0.82-1.246-0.164-0.459 0.393-2.066 2.295-2.066 2.295 0.328 0.033 0.557 0.066 0.721 0.098z"></path>
<path fill="#e8b182" style="fill: var(--color3, #e8b182)" d="M20.032 19.115c-0.689-0.262-1.246 0-1.902 0.23-0.984 0.328-1.902 0.656-2.951 0.787-1.836 0.23-4.164-0.689-6.033-0.361-3.213 0.525-5.115 2.984-7.016 5.508 0.033 0.066 0.066 0.131 0.098 0.197 0.197 0.262 0.393 0.492 0.623 0.656 0.131-0.066 0.295-0.066 0.426-0.033 1.115-0.918 2.033-2.131 3.148-3.016 1.246-1.016 2.951-1.279 4.525-1.443 1.738-0.164 3.443 0.23 5.18-0.066 0.787-0.131 1.508-0.426 2.262-0.656 0.688-0.229 1.377-0.328 1.869-0.918 0.23-0.328 0.066-0.787-0.229-0.885z"></path>
<path fill="#ffc89f" style="fill: var(--color4, #ffc89f)" d="M22.294 21.246c0.393 0.525 0.229 1.475-0.689 2.164-0.689 0.492-1.869 1.311-1.869 1.311l-2.82 1.967c-0.689 0-10.951 1.115-10.951 1.115l-2.623 1.213-2.164-4.82c0.131 0 4.492-3.41 6.885-3.443 2.525-0.033 8.262 2.393 8.262 2.393s2-1.082 2.59-1.508c2-1.311 2.951-0.984 3.377-0.393z"></path>
<path fill="#edf0f2" style="fill: var(--color5, #edf0f2)" opacity="0.5" d="M21.243 23.246c0 0 1.541-1.016 0.82-1.934-0.525-0.689-2 0-2 0.066-0.033 0.098 1.18 1.869 1.18 1.869z"></path>
<path fill="#009f43" style="fill: var(--color6, #009f43)" d="M10.294 9.279c-0.361-0.262-0.623-0.623-0.852-1.016 0 0.295-0.033 0.623-0.098 0.984-0.328 1.377-0.525 2.787-0.393 4.197 0.098 1.246 0.459 2.557 1.377 3.475 1.016 1.016 2.525 1.213 3.77 0.426 0.066-0.066 0.164-0.098 0.23-0.164 0.361 0.426 0.754 0.754 1.082 0.689 0 0 0.262-0.328 0.23-0.426 0 0-0.492 0.033-1.049-0.459 0.918-0.852 1.475-2.131 1.18-3.41-0.295-1.246-1.148-2.295-2.295-2.885-1.016-0.525-2.23-0.721-3.18-1.41z"></path>
<path fill="#009f43" style="fill: var(--color6, #009f43)" opacity="0.2" d="M9.474 8.262c0 0.066 0 0.131 0 0.197 0.131 0.754 0.098 1.41 0.393 2.131 0.164 0.361 0.23 0.721 0.393 1.049 1.213 2.59 2.721 4.885 5.246 6.066 0.066-0.098 0.131-0.197 0.098-0.262 0 0-0.492 0.033-1.049-0.459 0.918-0.852 1.475-2.131 1.18-3.41-0.295-1.246-1.148-2.295-2.295-2.885-1.016-0.557-2.23-0.721-3.18-1.41-0.328-0.262-0.59-0.623-0.787-1.016z"></path>
<path fill="#008738" style="fill: var(--color7, #008738)" d="M9.638 8.853c-0.164 0.525 0.033 1.049 0.164 1.574 0.131 0.656 0.393 1.246 0.689 1.803-0.426-0.066-0.82-0.197-1.213-0.393 0 0-0.033 0 0 0.033 0.459 0.164 0.754 0.492 1.246 0.459 0.131 0.262 0.295 0.525 0.426 0.787 0.295 0.492 0.59 1.016 0.951 1.541-0.787 0.131-1.672-0.098-2.328-0.525 0 0-0.033 0 0 0.033 0.59 0.492 1.607 0.82 2.361 0.59 0.393 0.59 0.852 1.18 1.377 1.639 0 0.033 0.033 0.033 0.066 0.066 0.066 0.066 0.131 0.098 0.197 0.164-0.885 0.328-2.164 0.23-2.951-0.295-0.033 0-0.033 0-0.033 0.033 0.82 0.59 2.131 0.754 3.082 0.361 0.229 0.164 0.426 0.328 0.656 0.459 0.066 0.033 0.131-0.066 0.066-0.098-0.328-0.197-0.656-0.426-0.918-0.688 0.426-0.918 0.82-1.902 0.787-2.951 0-0.033-0.033-0.033-0.033 0-0.131 1.016-0.426 1.934-0.852 2.852-0.623-0.623-1.148-1.377-1.639-2.098 0.361-0.852 0.393-1.738 0.459-2.656 0 0-0.033-0.033-0.033 0-0.098 0.852-0.197 1.738-0.525 2.525-0.131-0.197-0.262-0.426-0.393-0.623-0.492-0.754-1.016-1.672-1.311-2.59 0 0 0 0 0.033-0.033 0.164-0.328 0.197-0.689 0.262-1.049-0.098 0.328-0.164 0.656-0.295 0.951-0.197-0.59-0.295-1.18-0.23-1.771-0.033-0.131-0.066-0.131-0.066-0.098z"></path>
<path fill="#00b64d" style="fill: var(--color8, #00b64d)" d="M22.488 6.295c0.098-0.623 0.393-1.148 0.721-1.639-0.361 0.197-0.754 0.361-1.279 0.459-1.869 0.459-3.738 1.049-5.41 2.066-1.443 0.885-2.852 2.131-3.443 3.803-0.656 1.869 0.066 3.836 1.77 4.885 0.098 0.066 0.23 0.131 0.361 0.197-0.328 0.721-0.492 1.377-0.164 1.738 0 0 0.557 0.131 0.656 0.033 0 0-0.328-0.59-0.066-1.574 1.607 0.623 3.541 0.492 4.885-0.623 1.377-1.115 2.098-2.82 2.131-4.557 0.098-1.607-0.426-3.18-0.164-4.787z"></path>
<path fill="#00b64d" style="fill: var(--color8, #00b64d)" opacity="0.2" d="M23.241 4.656c-0.066 0.033-0.164 0.066-0.229 0.131-0.852 0.623-1.705 0.984-2.393 1.803-0.328 0.393-0.721 0.721-1.049 1.115-2.426 3.049-4.328 6.295-4.229 10.164 0.164 0.033 0.328 0.033 0.393-0.033 0 0-0.328-0.59-0.066-1.574 1.607 0.623 3.541 0.492 4.885-0.623 1.377-1.115 2.098-2.82 2.131-4.557 0.033-1.607-0.459-3.148-0.197-4.754 0.131-0.656 0.426-1.18 0.754-1.672z"></path>
<path fill="#009e42" style="fill: var(--color9, #009e42)" d="M22.653 5.213c-0.754 0.131-1.246 0.689-1.836 1.148-0.721 0.557-1.279 1.213-1.803 1.934-0.197-0.557-0.262-1.148-0.23-1.738 0-0.033-0.033-0.033-0.033 0 0.066 0.656-0.131 1.213 0.197 1.803-0.23 0.328-0.459 0.656-0.689 1.016-0.426 0.656-0.885 1.344-1.311 2.098-0.623-0.885-0.918-2.131-0.754-3.18 0-0.033-0.033-0.033-0.033 0-0.23 1.016 0 2.459 0.754 3.279-0.492 0.852-0.918 1.77-1.18 2.689-0.033 0.033-0.033 0.066-0.033 0.098-0.033 0.098-0.066 0.23-0.098 0.328-0.951-0.885-1.607-2.525-1.443-3.803 0-0.033-0.033-0.033-0.033 0-0.23 1.377 0.393 3.082 1.41 4-0.066 0.361-0.131 0.721-0.131 1.082 0 0.098 0.164 0.098 0.164 0 0.033-0.525 0.131-1.049 0.262-1.574 1.41-0.033 2.852-0.164 4.098-0.82 0.033 0 0-0.066-0.033-0.033-1.311 0.459-2.623 0.656-4.033 0.689 0.361-1.148 0.984-2.262 1.607-3.279 1.279-0.066 2.393-0.557 3.541-1.082 0.033 0 0-0.033 0-0.033-1.115 0.393-2.262 0.82-3.443 0.918 0.164-0.295 0.361-0.59 0.525-0.852 0.623-1.049 1.41-2.262 2.393-3.213h0.033c0.525 0 0.951-0.164 1.443-0.328v-0.033c-0.459 0.066-0.885 0.229-1.377 0.229 0.623-0.59 1.279-1.082 2.033-1.344 0.066 0.033 0.066 0 0.033 0z"></path>
</symbol>
</defs>
</svg>
