<svg width="48" height="48" viewBox="0 0 48 48" fill="none" xmlns="http://www.w3.org/2000/svg">
<g clip-path="url(#clip0_874_6065)">
<circle cx="24" cy="24" r="24" fill="#FAAA10"/>
<path d="M16.0682 36V32.9545L24.1477 25.0341C24.9205 24.2538 25.5644 23.5606 26.0795 22.9545C26.5947 22.3485 26.9811 21.7614 27.2386 21.1932C27.4962 20.625 27.625 20.0189 27.625 19.375C27.625 18.6402 27.4583 18.0114 27.125 17.4886C26.7917 16.9583 26.3333 16.5492 25.75 16.2614C25.1667 15.9735 24.5038 15.8295 23.7614 15.8295C22.9962 15.8295 22.3258 15.9886 21.75 16.3068C21.1742 16.6174 20.7273 17.0606 20.4091 17.6364C20.0985 18.2121 19.9432 18.8977 19.9432 19.6932H15.9318C15.9318 18.2159 16.2689 16.9318 16.9432 15.8409C17.6174 14.75 18.5455 13.9053 19.7273 13.3068C20.9167 12.7083 22.2803 12.4091 23.8182 12.4091C25.3788 12.4091 26.75 12.7008 27.9318 13.2841C29.1136 13.8674 30.0303 14.6667 30.6818 15.6818C31.3409 16.697 31.6705 17.8561 31.6705 19.1591C31.6705 20.0303 31.5038 20.8864 31.1705 21.7273C30.8371 22.5682 30.25 23.5 29.4091 24.5227C28.5758 25.5455 27.4053 26.7841 25.8977 28.2386L21.8864 32.3182V32.4773H32.0227V36H16.0682Z" fill="white"/>
</g>
<defs>
<clipPath id="clip0_874_6065">
<rect width="48" height="48" fill="white"/>
</clipPath>
</defs>
</svg>
