<svg width="48" height="48" viewBox="0 0 48 48" fill="none" xmlns="http://www.w3.org/2000/svg">
<g clip-path="url(#clip0_874_6072)">
<circle cx="24" cy="24" r="24" fill="#FAAA10"/>
<path d="M23.4205 36.3182C21.7841 36.3182 20.3295 36.0379 19.0568 35.4773C17.7917 34.9167 16.7917 34.1364 16.0568 33.1364C15.322 32.1364 14.9318 30.9811 14.8864 29.6705H19.1591C19.197 30.2992 19.4053 30.8485 19.7841 31.3182C20.1629 31.7803 20.6667 32.1402 21.2955 32.3977C21.9242 32.6553 22.6288 32.7841 23.4091 32.7841C24.2424 32.7841 24.9811 32.6402 25.625 32.3523C26.2689 32.0568 26.7727 31.6477 27.1364 31.125C27.5 30.6023 27.678 30 27.6705 29.3182C27.678 28.6136 27.4962 27.9924 27.125 27.4545C26.7538 26.9167 26.2159 26.4962 25.5114 26.1932C24.8144 25.8902 23.9735 25.7386 22.9886 25.7386H20.9318V22.4886H22.9886C23.7992 22.4886 24.5076 22.3485 25.1136 22.0682C25.7273 21.7879 26.2083 21.3939 26.5568 20.8864C26.9053 20.3712 27.0758 19.7765 27.0682 19.1023C27.0758 18.4432 26.928 17.8712 26.625 17.3864C26.3295 16.8939 25.9091 16.5114 25.3636 16.2386C24.8258 15.9659 24.1932 15.8295 23.4659 15.8295C22.7538 15.8295 22.0947 15.9583 21.4886 16.2159C20.8826 16.4735 20.3939 16.8409 20.0227 17.3182C19.6515 17.7879 19.4545 18.3485 19.4318 19H15.375C15.4053 17.697 15.7803 16.553 16.5 15.5682C17.2273 14.5758 18.197 13.803 19.4091 13.25C20.6212 12.6894 21.9811 12.4091 23.4886 12.4091C25.0417 12.4091 26.3902 12.7008 27.5341 13.2841C28.6856 13.8598 29.5758 14.6364 30.2045 15.6136C30.8333 16.5909 31.1477 17.6705 31.1477 18.8523C31.1553 20.1629 30.7689 21.2614 29.9886 22.1477C29.2159 23.0341 28.2008 23.6136 26.9432 23.8864V24.0682C28.5795 24.2955 29.8333 24.9015 30.7045 25.8864C31.5833 26.8636 32.0189 28.0795 32.0114 29.5341C32.0114 30.8371 31.6402 32.0038 30.8977 33.0341C30.1629 34.0568 29.1477 34.8598 27.8523 35.4432C26.5644 36.0265 25.0871 36.3182 23.4205 36.3182Z" fill="white"/>
</g>
<defs>
<clipPath id="clip0_874_6072">
<rect width="48" height="48" fill="white"/>
</clipPath>
</defs>
</svg>
