<svg aria-hidden="true" style="position: absolute; width: 0; height: 0; overflow: hidden;" version="1.1" xmlns="http://www.w3.org/2000/svg" xmlns:xlink="http://www.w3.org/1999/xlink">
<defs> 
<symbol id="icon-facebook" viewBox="0 0 32 32">
<path fill="#fff" style="fill: var(--color1, #fff)" d="M16 2.667c-7.333 0-13.333 6-13.333 13.333 0 6.667 4.933 12.133 11.2 13.2v-9.333h-3.333v-3.867h3.333v-2.933c0-3.333 2-5.2 5.067-5.2 1.467 0 2.933 0.267 2.933 0.267v3.333h-1.733c-1.6 0-2.133 1.067-2.133 2.133v2.4h3.733l-0.533 3.867h-3.067v9.333c6.267-1.067 11.2-6.533 11.2-13.2 0-7.333-6-13.333-13.333-13.333z"></path>
</symbol>
<symbol id="icon-twitter" viewBox="0 0 32 32">
<path fill="#fff" style="fill: var(--color1, #fff)" d="M29.64 7.899c-0.981 0.435-2.036 0.729-3.143 0.861 1.129-0.677 1.997-1.749 2.405-3.027-1.057 0.627-2.228 1.083-3.475 1.328-0.996-1.064-2.419-1.728-3.992-1.728-3.021 0-5.471 2.449-5.471 5.471 0 0.429 0.048 0.847 0.141 1.247-4.547-0.228-8.577-2.405-11.276-5.716-0.471 0.808-0.741 1.748-0.741 2.751 0 1.899 0.965 3.572 2.433 4.553-0.897-0.028-1.74-0.275-2.479-0.684 0 0.023 0 0.045 0 0.069 0 2.651 1.885 4.863 4.389 5.364-0.459 0.125-0.943 0.192-1.441 0.192-0.352 0-0.695-0.035-1.029-0.099 0.696 2.173 2.717 3.755 5.111 3.8-1.872 1.467-4.232 2.341-6.795 2.341-0.441 0-0.877-0.025-1.305-0.076 2.421 1.552 5.297 2.457 8.387 2.457 10.063 0 15.567-8.336 15.567-15.567 0-0.237-0.005-0.473-0.016-0.708 1.069-0.769 1.996-1.733 2.729-2.831z"></path>
</symbol>
<symbol id="icon-youtube" viewBox="0 0 32 32">
<path fill="#fff" style="fill: var(--color1, #fff)" d="M29.067 10.668c0 0-0.26-1.837-1.060-2.647-1.013-1.063-2.151-1.068-2.672-1.129-3.732-0.269-9.329-0.269-9.329-0.269h-0.012c0 0-5.597 0-9.329 0.269-0.52 0.063-1.656 0.068-2.671 1.129-0.8 0.809-1.060 2.647-1.060 2.647s-0.267 2.159-0.267 4.316v2.023c0 2.157 0.267 4.316 0.267 4.316s0.26 1.837 1.060 2.647c1.015 1.063 2.347 1.028 2.94 1.14 2.133 0.204 9.067 0.268 9.067 0.268s5.604-0.008 9.335-0.279c0.521-0.063 1.657-0.068 2.672-1.129 0.8-0.809 1.060-2.647 1.060-2.647s0.267-2.157 0.267-4.316v-2.023c0-2.157-0.267-4.316-0.267-4.316zM13.247 19.459l-0.001-7.493 7.205 3.76-7.204 3.733z"></path>
</symbol>
<symbol id="icon-instagram" viewBox="0 0 32 32">
<path fill="#fff" style="fill: var(--color1, #fff)" d="M16 6.163c3.204 0 3.584 0.012 4.849 0.069 1.169 0.053 1.805 0.249 2.228 0.413 0.56 0.217 0.96 0.477 1.38 0.897s0.68 0.82 0.897 1.38c0.164 0.423 0.36 1.059 0.413 2.228 0.057 1.265 0.069 1.645 0.069 4.849s-0.012 3.584-0.069 4.849c-0.053 1.169-0.249 1.805-0.413 2.228-0.217 0.56-0.477 0.96-0.897 1.38s-0.82 0.68-1.38 0.897c-0.423 0.164-1.059 0.36-2.228 0.413-1.265 0.057-1.644 0.069-4.849 0.069s-3.584-0.012-4.849-0.069c-1.169-0.053-1.805-0.249-2.228-0.413-0.56-0.217-0.96-0.477-1.38-0.897s-0.68-0.82-0.897-1.38c-0.164-0.423-0.36-1.059-0.413-2.228-0.057-1.265-0.069-1.645-0.069-4.849s0.012-3.584 0.069-4.849c0.053-1.169 0.249-1.805 0.413-2.228 0.217-0.56 0.477-0.96 0.897-1.38s0.82-0.68 1.38-0.897c0.423-0.164 1.059-0.36 2.228-0.413 1.265-0.057 1.645-0.069 4.849-0.069zM16 4c-3.259 0-3.668 0.013-4.948 0.072-1.277 0.059-2.149 0.261-2.912 0.557-0.789 0.307-1.459 0.717-2.125 1.385-0.667 0.667-1.077 1.336-1.384 2.125-0.297 0.763-0.5 1.635-0.559 2.912-0.059 1.28-0.072 1.689-0.072 4.948s0.013 3.668 0.072 4.948c0.059 1.277 0.261 2.149 0.557 2.913 0.307 0.789 0.717 1.459 1.384 2.125s1.336 1.077 2.125 1.384c0.763 0.296 1.636 0.5 2.913 0.557 1.28 0.059 1.689 0.072 4.948 0.072s3.668-0.013 4.948-0.072c1.277-0.059 2.149-0.261 2.913-0.557 0.789-0.307 1.459-0.717 2.125-1.384s1.077-1.336 1.384-2.125c0.296-0.763 0.5-1.636 0.557-2.913 0.059-1.28 0.072-1.689 0.072-4.948s-0.013-3.668-0.072-4.948c-0.059-1.277-0.261-2.149-0.557-2.913-0.307-0.789-0.717-1.459-1.384-2.125s-1.336-1.077-2.125-1.384c-0.763-0.296-1.636-0.5-2.913-0.557-1.28-0.059-1.689-0.072-4.948-0.072v0zM16 9.837c-3.403 0-6.163 2.759-6.163 6.163s2.76 6.163 6.163 6.163 6.163-2.759 6.163-6.163-2.76-6.163-6.163-6.163zM16 20c-2.209 0-4-1.791-4-4s1.791-4 4-4 4 1.791 4 4-1.791 4-4 4zM22.405 8.155c-0.795 0-1.44 0.645-1.44 1.44s0.645 1.44 1.44 1.44c0.795 0 1.44-0.645 1.44-1.44s-0.644-1.44-1.44-1.44z"></path>
</symbol>
</defs>
</svg>