<svg width="320" height="273" viewBox="0 0 320 273" fill="none" xmlns="http://www.w3.org/2000/svg">
<g clip-path="url(#clip0_991_7165)">
<path d="M164.669 20.6841C164.669 20.6841 127.636 19.0823 106.722 52.5109C85.8087 85.9395 70.523 71.2449 47.1081 96.8734C23.6932 122.432 28.5568 176.057 31.2665 197.925C33.9763 219.793 43.4256 244.238 43.4256 244.238H292.374C292.374 244.238 317.804 139.495 295.987 100.634C274.17 61.7734 226.993 59.8234 214 40.2538C200.938 20.6841 164.669 20.6841 164.669 20.6841Z" fill="#E5E5EC"/>
<path d="M5.63117 242.775C5.63117 242.775 76.7792 236.995 311.832 244.446C317.251 244.586 332.19 259.977 304.675 264.503C277.161 269.03 253.677 264.503 213.864 270.911C174.052 277.318 134.101 265.687 96.1643 265.687C58.2279 265.687 56.2825 263.737 38.3565 261.787C9.45259 258.653 -10.9052 245.839 5.63117 242.775Z" fill="#DAD7EB"/>
<path d="M246.933 233.373C242.903 232.816 239.499 243.123 239.499 243.123C239.499 243.123 239.499 243.123 239.429 243.054C238.804 241.173 238.317 238.806 237.97 236.298C238.734 235.741 242.834 232.607 243.806 231.284C244.918 229.891 244.849 226.409 242.764 226.2C240.749 225.991 237.831 234.488 237.831 234.488C237.831 234.488 237.762 234.418 237.692 234.348C237.484 232.329 237.345 230.24 237.206 228.29C238.248 227.175 240.68 224.459 241.236 223.136C241.93 221.465 242 219.723 240.471 219.723C239.36 219.723 237.762 223.136 237.067 224.738C236.997 223.136 236.997 221.673 236.997 220.629C237.623 219.306 238.873 216.45 239.082 215.057C239.429 213.177 239.429 210.252 238.109 209.904C236.858 209.556 235.399 211.227 234.913 214.291C234.565 216.59 235.677 219.445 236.302 220.698C236.302 221.743 236.302 223.136 236.372 224.668C235.677 222.718 233.94 218.191 231.925 217.495C230.744 217.147 229.493 218.4 230.049 220.698C230.605 222.997 235.747 227.454 235.747 227.454L236.58 228.568C236.65 230.031 236.789 231.563 236.928 233.095C235.677 231.284 233.245 228.081 230.675 226.618C228.938 225.643 224.491 227.663 227.062 230.936C229.215 233.722 235.399 235.672 237.206 236.159C237.484 238.248 237.831 240.198 238.317 241.87C236.233 239.711 231.3 235.045 227.965 235.672C223.657 236.507 222.823 240.686 226.645 242.427C230.397 244.168 239.36 244.307 239.36 244.307C239.36 244.307 244.779 241.87 246.794 240.268C248.948 238.806 251.032 233.931 246.933 233.373Z" fill="#A7A3D1"/>
<path d="M8.76707 195.07C8.76707 195.07 7.09954 201.826 11.7547 212.829C16.4099 223.833 34.4054 235.811 34.4054 235.811C34.4054 235.811 35.5171 223.067 29.2638 210.113C23.0801 197.229 8.76707 195.07 8.76707 195.07Z" fill="url(#paint0_linear_991_7165)"/>
<path d="M34.5365 200.015C34.5365 200.015 30.8541 203.497 29.256 212.063C27.658 220.629 33.8417 235.184 33.8417 235.184C33.8417 235.184 39.6086 227.872 40.9982 217.495C42.4573 207.118 34.5365 200.015 34.5365 200.015Z" fill="url(#paint1_linear_991_7165)"/>
<path d="M0.5625 224.738C0.5625 224.738 2.85536 229.265 10.6372 233.095C18.419 236.925 34.1216 234.975 34.1216 234.975C34.1216 234.975 28.6326 227.384 19.0443 223.206C9.45601 219.027 0.5625 224.738 0.5625 224.738Z" fill="url(#paint2_linear_991_7165)"/>
<path d="M18.9061 242.776H61.845C61.845 242.776 61.2197 237.413 55.8002 233.861C50.3808 230.309 44.197 233.861 44.197 233.861C44.197 233.861 41.2093 226.34 30.2314 226.34C19.2535 226.34 17.586 234.558 17.586 234.558C17.586 234.558 7.30284 232.12 5.84375 242.776H18.9061Z" fill="url(#paint3_linear_991_7165)"/>
<path d="M173.43 244.237H216.368C216.368 244.237 215.743 238.875 210.324 235.323C204.904 231.771 198.72 235.323 198.72 235.323C198.72 235.323 195.733 227.802 184.755 227.802C173.777 227.802 172.109 236.02 172.109 236.02C172.109 236.02 161.826 233.582 160.367 244.237H173.43Z" fill="url(#paint4_linear_991_7165)"/>
<path d="M283.966 235.254C283.966 235.254 282.785 229.891 282.993 225.922C283.271 221.952 287.857 221.395 287.996 218.191C288.135 214.988 286.954 210.879 290.845 208.65C294.666 206.422 291.678 204.263 294.041 200.432C296.403 196.602 299.113 197.786 300.503 199.248C301.892 200.711 298.557 207.397 300.225 210.879C301.892 214.361 296.542 220.768 297.167 222.161C297.793 223.623 299.877 226.2 299.599 230.448C299.321 234.697 296.264 236.995 296.264 236.995L283.966 235.254Z" fill="url(#paint5_linear_991_7165)"/>
<path d="M288.141 233.443C288.141 233.443 288.766 228.011 290.364 224.32C291.962 220.629 296.478 221.673 297.659 218.748C298.841 215.754 299.119 211.505 303.496 210.739C307.873 209.904 305.789 206.909 309.263 204.054C312.737 201.198 314.891 203.288 315.794 205.098C316.628 206.909 311.278 212.132 311.625 215.963C311.972 219.793 304.885 224.041 304.955 225.573C305.024 227.105 306.136 230.309 304.469 234.209C302.801 238.109 299.119 239.223 299.119 239.223L288.141 233.443Z" fill="url(#paint6_linear_991_7165)"/>
<path d="M265.14 244.517H308.079C308.079 244.517 307.454 239.154 302.035 235.602C296.615 232.051 290.431 235.602 290.431 235.602C290.431 235.602 287.444 228.081 276.466 228.081C265.488 228.081 263.82 236.299 263.82 236.299C263.82 236.299 253.537 233.861 252.078 244.517H265.14Z" fill="url(#paint7_linear_991_7165)"/>
<path d="M119.858 223.275C119.858 223.275 121.734 223.554 126.181 227.872C130.627 232.19 130.488 237.204 130.488 237.204C130.488 237.204 132.017 226.897 137.575 223.275C137.575 223.275 140.563 230.449 137.575 238.875C137.575 238.875 142.578 231.702 151.888 230.24C151.888 230.24 151.194 239.084 144.037 244.516H123.193C123.262 244.447 114.716 235.741 119.858 223.275Z" fill="#A7A3D1"/>
<path d="M93.7299 230.031C89.7 229.474 86.2955 239.781 86.2955 239.781C86.2955 239.781 86.2955 239.781 86.226 239.711C85.6007 237.831 85.1143 235.463 84.7669 232.956C85.5312 232.399 89.6305 229.265 90.6032 227.941C91.7149 226.549 91.6455 223.066 89.561 222.857C87.5461 222.649 84.6279 231.145 84.6279 231.145C84.6279 231.145 84.5584 231.075 84.489 231.006C84.2805 228.986 84.1416 226.897 84.0026 224.947C85.0448 223.832 87.4766 221.116 88.0325 219.793C88.7273 218.122 88.7968 216.381 87.2682 216.381C86.1565 216.381 84.5584 219.793 83.8636 221.395C83.7942 219.793 83.7942 218.331 83.7942 217.286C84.4195 215.963 85.6701 213.107 85.8786 211.715C86.226 209.834 86.226 206.909 84.9058 206.561C83.6552 206.213 82.1961 207.884 81.7097 210.949C81.3623 213.247 82.474 216.102 83.0994 217.356C83.0994 218.4 83.0993 219.793 83.1688 221.325C82.474 219.375 80.737 214.849 78.7221 214.152C77.5409 213.804 76.2903 215.057 76.8461 217.356C77.402 219.654 82.5435 224.111 82.5435 224.111L83.3773 225.225C83.4468 226.688 83.5857 228.22 83.7247 229.752C82.474 227.941 80.0422 224.738 77.4714 223.275C75.7344 222.3 71.2877 224.32 73.8584 227.593C76.0123 230.379 82.1961 232.329 84.0026 232.816C84.2805 234.906 84.6279 236.856 85.1143 238.527C83.0299 236.368 78.0968 231.702 74.7617 232.329C70.4539 233.165 69.6201 237.343 73.4416 239.084C77.1935 240.825 86.1565 240.965 86.1565 240.965C86.1565 240.965 91.576 238.527 93.5909 236.925C95.7448 235.463 97.8292 230.588 93.7299 230.031Z" fill="#E7B142"/>
<path d="M95.8125 44.9897C95.8125 43.8058 105.957 0.348633 158.553 0.348633C193.919 0.348633 225.533 23.5397 225.533 56.829C225.533 80.0201 208.301 94.1576 185.72 103.838C177.73 107.39 177.452 114.006 177.452 121.806V135.038H138.543V109.27C138.543 98.8933 139.029 90.3968 149.59 83.5022C163.973 74.3093 177.383 73.5433 177.383 56.829C177.383 45.4772 168.906 37.4683 158.275 37.4683C141.322 37.4683 133.054 51.6754 130.483 61.7736L95.8125 44.9897ZM184.956 175.431C184.956 190.334 172.936 202.383 157.859 202.383C142.99 202.383 130.97 190.334 130.97 175.431C130.97 160.318 142.99 148.27 157.859 148.27C172.936 148.2 184.956 160.249 184.956 175.431Z" fill="url(#paint8_linear_991_7165)"/>
<path opacity="0.47" d="M95.1875 52.65C95.1875 51.5357 105.679 4.66602 154.871 4.66602C187.944 4.66602 217.473 26.3249 217.473 57.4553C217.473 79.1142 201.354 92.3464 180.232 101.4C172.728 104.743 172.519 110.871 172.519 118.184V130.58H136.181V106.554C136.181 96.8035 136.598 88.8642 146.534 82.4571C160.013 73.8214 172.519 73.1946 172.519 57.4553C172.519 46.8696 164.599 39.3482 154.663 39.3482C138.821 39.3482 130.067 58.8482 127.635 68.3196L95.1875 52.65ZM185.929 172.366C185.929 186.295 174.673 197.577 160.569 197.577C146.673 197.577 135.417 186.295 135.417 172.366C135.417 158.229 146.673 146.946 160.569 146.946C174.673 146.946 185.929 158.229 185.929 172.366Z" stroke="white" stroke-miterlimit="10"/>
<path d="M50.8584 60.7288C50.7889 60.4502 49.6773 50.561 60.7941 46.661C68.2286 44.0145 76.6357 46.5217 79.0675 53.5556C80.8045 58.4306 78.2337 62.6788 74.1344 66.4395C72.6753 67.7627 73.1617 69.2252 73.7175 70.827L74.6902 73.6127L66.4915 76.5377L64.6156 71.1056C63.8513 68.9467 63.2954 67.0663 65.0324 64.8377C67.3948 61.8431 70.174 60.6592 68.9234 57.1074C68.0896 54.7395 65.7273 53.6252 63.4344 54.461C59.8909 55.7145 59.1961 59.336 59.4045 61.6342L50.8584 60.7288ZM79.3454 81.6217C80.4571 84.7556 78.7896 88.1681 75.5935 89.2824C72.4669 90.3967 69.0623 88.7252 67.9506 85.5913C66.8389 82.3877 68.437 78.9752 71.6331 77.861C74.7597 76.7467 78.2337 78.4181 79.3454 81.6217Z" fill="url(#paint9_linear_991_7165)"/>
<path d="M240.263 66.0221C240.333 65.7435 245.822 57.456 256.869 61.565C264.304 64.281 269.098 71.5935 266.527 78.6275C264.72 83.5025 260.065 85.1043 254.507 85.3828C252.561 85.5221 252.005 86.8453 251.38 88.5168L250.338 91.3025L242.209 88.3078L244.224 82.8757C245.057 80.7167 245.752 78.9757 248.531 78.3489C252.283 77.5132 255.132 78.4185 256.452 74.9364C257.355 72.5685 256.174 70.2007 253.951 69.365C250.407 68.0418 247.559 70.34 246.239 72.29L240.263 66.0221ZM248.879 100.286C247.698 103.42 244.293 105.022 241.097 103.838C237.97 102.654 236.372 99.2417 237.554 96.1078C238.735 92.9043 242.209 91.3721 245.266 92.4864C248.462 93.6703 249.991 97.1525 248.879 100.286Z" fill="url(#paint10_linear_991_7165)"/>
<path d="M104.361 78.7671C104.431 78.6278 107.349 74.1706 113.324 76.3296C117.354 77.7921 119.925 81.7617 118.535 85.5224C117.562 88.1688 115.061 89.0046 112.074 89.1438C111.031 89.2135 110.684 89.9796 110.406 90.8153L109.85 92.2778L105.473 90.676L106.515 87.751C106.932 86.5671 107.349 85.6617 108.877 85.3135C110.892 84.8956 112.421 85.3831 113.116 83.4331C113.602 82.1796 112.977 80.8563 111.796 80.4385C109.85 79.7421 108.322 80.9956 107.627 82.0403L104.361 78.7671ZM109.016 97.2224C108.391 98.8938 106.515 99.7296 104.848 99.1028C103.18 98.476 102.277 96.5956 102.902 94.9242C103.527 93.1831 105.403 92.3474 107.071 92.9742C108.808 93.6706 109.642 95.551 109.016 97.2224Z" fill="#B6B6CE"/>
<path d="M231.852 24.3759C231.852 24.2366 232.477 17.8991 239.911 16.9241C244.914 16.2973 249.778 18.9437 250.403 23.6794C250.82 26.9527 248.666 29.2509 245.609 31.0616C244.566 31.6884 244.636 32.6634 244.775 33.7777L244.983 35.658L239.494 36.3544L239.008 32.733C238.8 31.2705 238.73 30.0169 240.12 28.9027C241.996 27.3009 243.872 26.9527 243.594 24.5848C243.385 22.983 242.065 22.008 240.537 22.2169C238.105 22.4955 237.202 24.6544 237.063 26.1866L231.852 24.3759ZM246.859 41.2294C247.137 43.3187 245.678 45.2687 243.524 45.5473C241.44 45.8259 239.494 44.3634 239.216 42.2044C238.939 40.0455 240.398 38.1652 242.552 37.8866C244.705 37.608 246.581 39.0705 246.859 41.2294Z" fill="#E5E5EC"/>
<path d="M206.852 209.903L221.859 241.521L221.442 246.117C223.596 247.301 229.016 239.71 229.016 239.71L227.418 237.76C227.418 237.76 222.763 213.385 218.872 209.833H206.852V209.903Z" fill="#D36762"/>
<path d="M221.516 245.072C221.516 245.072 220.474 246.744 219.154 248.415C217.903 250.087 216.514 251.967 217.139 252.872C217.695 253.778 223.74 249.599 228.048 246.604C232.425 243.61 231.8 243.54 231.73 243.053C231.661 242.565 228.812 239.292 228.812 239.292C228.812 239.292 225.546 243.54 223.67 244.794C221.794 246.047 221.516 245.072 221.516 245.072Z" fill="#282E4E"/>
<path d="M220.4 209.903L208.172 206.699L211.715 246.883L208.172 250.365H219.428L218.872 247.231C219.15 243.54 221.026 217.006 220.4 209.903Z" fill="#FF897F"/>
<path d="M221.161 151.403C221.161 151.403 226.094 162.755 226.858 167.7C227.623 172.644 220.258 179.957 220.258 179.957L221.161 151.403Z" fill="#FF897F"/>
<path d="M206.366 126.68L205.601 129.048C205.601 129.048 203.725 129.048 203.517 129.675C203.308 130.302 204.49 131.277 204.49 131.277C204.49 131.277 203.239 136.291 204.629 138.659C206.018 140.957 214.564 139.703 214.564 139.703C214.564 139.703 218.038 139.355 219.984 135.455C221.929 131.555 223.319 128.56 222.624 124.66C222.207 122.362 218.108 120.83 214.147 120.9C210.604 120.969 207.547 123.337 206.366 126.68Z" fill="#FF897F"/>
<path d="M209.556 139.216L209 144.369L217.616 143.185L218.31 137.684L209.556 139.216Z" fill="#FF897F"/>
<path d="M214.566 142.488C214.566 142.488 207.757 142.488 204.978 148.826C201.226 157.462 204.839 170.136 204.839 170.136L204.144 176.961C204.144 176.961 205.325 179.956 223.529 176.753L221.167 170.206C221.167 170.206 223.321 154.954 222.765 150.149C222.07 143.672 214.566 142.488 214.566 142.488Z" fill="#BDBED1"/>
<path d="M209.838 122.223C209.838 122.223 209.699 125.357 211.506 128.142C213.382 130.858 214.424 131.276 214.424 131.276C214.424 131.276 214.007 132.878 214.216 133.296C214.494 133.714 215.536 131.694 216.856 131.973C218.176 132.251 218.246 134.828 216.995 136.36C215.744 137.823 214.007 137.544 214.007 137.544C214.007 137.544 213.451 141.514 215.675 144.717C217.898 147.921 222.067 149.174 225.819 147.573C229.571 145.971 230.891 142.419 230.266 139.076C229.64 135.733 225.333 133.226 225.333 133.226C225.333 133.226 227 125.844 224.151 122.223C221.303 118.601 213.243 118.601 210.186 119.924C210.186 119.924 207.268 118.81 205.392 120.83C203.516 122.78 204.002 126.123 206.156 127.516C206.086 127.516 207.615 123.476 209.838 122.223Z" fill="#282E4E"/>
<path d="M209.904 147.503L199.273 160.039L203.859 164.984L216.922 154.746C219.214 152.936 219.492 149.593 217.547 147.364C215.462 145.136 211.849 145.205 209.904 147.503Z" fill="#D3D5E2"/>
<path d="M194.273 141.792C194.273 141.792 195.246 157.392 195.594 160.526C195.871 163.66 197.261 166.167 199.971 166.376C202.194 166.515 203.792 165.053 203.792 165.053L199.346 141.374L194.273 141.792Z" fill="#FF897F"/>
<path d="M196.568 135.176C196.568 135.176 196.082 135.455 195.734 136.082C195.734 136.082 194.97 136.291 194.484 137.196C194.484 137.196 194.206 137.544 193.789 138.38C193.372 139.216 194.484 142.489 194.484 142.489L199.486 142.071C199.486 142.071 200.39 140.121 200.598 139.146C200.806 138.171 200.181 137.057 199.973 136.708C199.764 136.36 199.417 136.43 199.278 136.778C199.139 137.126 199.417 138.449 199.417 138.449L199.069 138.937C199.069 138.937 198.514 138.31 198.583 137.335C198.652 136.36 200.042 133.923 199.556 133.226C199.069 132.53 197.888 134.689 197.888 134.689C197.888 134.689 197.193 134.898 196.568 135.176Z" fill="#FF897F"/>
<path d="M204.211 176.962L205.531 209.903H220.469C220.469 209.903 224.986 182.603 223.665 176.753C223.596 176.823 211.228 178.633 204.211 176.962Z" fill="url(#paint11_linear_991_7165)"/>
<path d="M209.694 248.903C209.694 248.903 207.888 249.739 205.873 250.435C203.858 251.132 201.773 251.967 201.773 253.012C201.773 254.057 209.069 253.848 214.349 253.778C219.63 253.708 219.838 253.5 219.977 253.082C220.186 252.664 218.935 248.067 218.935 248.067C218.935 248.067 213.933 249.808 211.64 249.808C209.416 249.808 209.694 248.903 209.694 248.903Z" fill="#282E4E"/>
<path d="M212.548 139.007C212.548 139.007 211.298 139.773 209.422 139.982" stroke="#BA6561" stroke-miterlimit="10" stroke-linecap="round" stroke-linejoin="round"/>
<path d="M194.758 142.001L197.745 141.583" stroke="#BA6561" stroke-miterlimit="10" stroke-linecap="round" stroke-linejoin="round"/>
<path d="M114.719 250.436H105.617V255.798H114.719V250.436Z" fill="#FF897F"/>
<path d="M105.616 255.171C105.616 255.171 105.477 260.951 105.616 261.926C105.616 261.926 110.133 262.205 112.426 262.205C114.718 262.205 121.18 262.483 123.264 261.926C125.279 261.439 124.515 260.603 124.029 259.767C123.542 258.932 114.579 255.171 114.579 255.171C114.579 255.171 109.368 255.937 105.616 255.171Z" fill="#282E4E"/>
<path d="M101.1 178.146C101.1 178.146 100.822 186.016 101.1 197.089C101.378 208.093 104.157 252.177 104.157 252.177L115.969 252.734L120.346 178.146H101.1Z" fill="url(#paint12_linear_991_7165)"/>
<path d="M113.606 116.721L114.371 119.089C114.371 119.089 116.247 119.089 116.455 119.716C116.663 120.343 115.482 121.318 115.482 121.318C115.482 121.318 116.733 126.332 115.343 128.63C113.954 130.929 105.477 129.675 105.477 129.675C105.477 129.675 102.003 129.327 100.058 125.427C98.1121 121.527 96.7225 118.602 97.4868 114.702C97.9037 112.404 102.003 110.871 105.894 111.011C109.368 111.011 112.495 113.379 113.606 116.721Z" fill="#FF897F"/>
<path d="M110.412 129.187L110.967 134.341L102.421 133.157L101.727 127.725L110.412 129.187Z" fill="#FF897F"/>
<path d="M110.545 112.543C110.545 112.543 109.225 114.702 106.307 115.886C106.307 115.886 107.349 119.995 106.515 120.412C105.751 120.9 105.751 119.786 104.153 119.646C102.555 119.507 102.416 121.527 102.902 123.407C103.388 125.218 105.334 125.705 106.029 125.566C106.723 125.427 106.932 126.262 105.542 127.516C104.153 128.77 101.929 130.023 101.929 130.023C101.929 130.023 95.6761 124.243 94.5644 121.318C93.4527 118.393 94.5644 116.721 94.5644 116.721C94.5644 116.721 93.8001 112.891 96.9267 110.941C100.053 108.991 106.376 108.573 108.947 108.782C111.518 109.061 111.309 110.453 111.309 110.453C111.309 110.453 112.421 110.523 112.907 111.916C113.394 113.309 112.351 114.423 112.351 114.423C112.351 114.423 111.309 113.03 110.545 112.543Z" fill="#282E4E"/>
<path d="M102.278 132.321C102.278 132.321 98.8038 137.336 97.2058 142.559C95.6077 147.782 101.097 178.216 101.097 178.216H120.273C120.273 178.216 119.717 148.687 118.258 143.534C116.452 136.987 110.893 133.784 110.893 133.784L102.278 132.321Z" fill="url(#paint13_linear_991_7165)"/>
<path d="M108.05 178.634L107.633 250.087" stroke="#F96786" stroke-miterlimit="10" stroke-linecap="round" stroke-linejoin="round"/>
<path d="M104.016 250.087H116.314" stroke="#F96786" stroke-miterlimit="10" stroke-linecap="round" stroke-linejoin="round"/>
<path d="M98.3883 141.236C95.6786 146.18 90.6065 156.278 87.7578 166.934L95.8175 170.207L108.671 146.668C109.575 145.066 109.644 143.116 108.88 141.445C108.88 141.375 108.81 141.375 108.81 141.305C106.726 137.196 100.681 137.127 98.3883 141.236Z" fill="url(#paint14_linear_991_7165)"/>
<path d="M111.313 182.882C111.313 182.882 113.328 183.3 113.328 182.882C113.328 182.465 112.286 181.977 111.174 181.977C110.896 181.977 110.549 181.977 110.271 181.977V181.768L111.105 181.629C111.105 181.629 112.981 182.325 113.05 181.977C113.189 181.629 111.799 180.584 110.966 180.654C110.479 180.654 109.854 180.793 109.368 180.932L108.464 181.002C109.159 180.584 109.785 180.306 109.646 180.027C109.437 179.679 109.09 179.749 107.909 180.236C107.144 180.515 106.449 181.002 106.102 181.211H105.755L95.68 170.277L87.6202 167.004C87.6202 167.004 85.3274 172.227 88.8709 176.475C92.4144 180.724 104.573 186.365 104.573 186.365C105.894 186.922 109.785 185.39 109.785 185.39L110.549 185.25C110.549 185.25 112.564 185.668 112.564 185.25C112.564 184.832 111.522 184.345 110.41 184.345C110.201 184.345 110.062 184.345 109.854 184.345V184.275L110.966 184.066C110.966 184.066 112.981 184.484 112.981 184.066C112.981 183.649 111.938 183.161 110.827 183.161C110.549 183.161 110.201 183.161 109.923 183.161V183.091L111.313 182.882Z" fill="#FF897F"/>
<path d="M106.867 128.561C106.867 128.561 108.813 130.023 110.55 129.953" stroke="#BA6561" stroke-miterlimit="10" stroke-linecap="round" stroke-linejoin="round"/>
<path d="M105.828 181.211C105.828 181.211 106.87 183.509 106.731 184.484" stroke="#BA6561" stroke-miterlimit="10" stroke-linecap="round" stroke-linejoin="round"/>
<path d="M263.12 138.938C263.12 138.938 257.701 148.757 253.88 156.557L243.527 148.061L242.902 147.295C242.763 146.807 242.485 146.25 242.137 145.762C241.373 144.787 241.165 142.698 240.678 143.743C240.4 144.3 240.609 145.345 240.887 146.18L238.733 146.041C238.246 145.902 236.301 145.275 235.12 145.345C233.73 145.414 234.078 145.971 234.147 146.111C234.217 146.18 236.023 146.389 237.274 146.877L237.204 146.946C236.37 146.738 235.12 146.389 234.286 146.459C232.896 146.529 233.244 147.086 233.313 147.225C233.383 147.295 235.467 147.573 236.718 148.13V148.2C235.884 147.991 234.842 147.782 234.078 147.782C232.688 147.852 233.035 148.409 233.105 148.548C233.174 148.618 234.842 148.827 236.092 149.314C235.467 149.245 234.772 149.175 234.217 149.245C232.827 149.454 233.244 149.941 233.313 150.011C233.383 150.08 234.633 150.15 235.815 150.429L240.678 152.1C242.207 154.886 247.696 164.079 252.837 166.446C254.435 167.143 256.52 166.307 257.631 164.984L263.676 157.463L263.12 138.938Z" fill="#FF897F"/>
<path d="M265.899 232.188L267.497 249.947L264.648 253.221C264.648 253.221 265.552 255.937 274.167 252.803L273.264 248.903C273.264 248.903 274.445 236.506 274.167 232.676L265.899 232.188Z" fill="#FF897F"/>
<path d="M286.539 232.188L290.499 249.947L290.916 253.36C290.916 253.36 294.46 257.469 299.74 254.753L296.058 248.903L294.529 232.188H286.539Z" fill="#FF897F"/>
<path d="M265.001 252.664C265.001 252.664 259.373 256.912 259.303 257.818C259.234 258.654 259.72 258.932 261.11 259.071C262.499 259.211 269.656 258.166 272.157 257.678C274.659 257.191 274.797 256.704 274.797 256.704C274.797 256.704 275.075 254.684 273.964 251.968C273.964 251.968 271.879 253.918 266.529 253.639C265.418 253.57 265.001 252.664 265.001 252.664Z" fill="#464F96"/>
<path d="M290.633 251.201C290.633 251.201 290.702 256.703 291.467 258.235C292.231 259.767 295.844 260.812 297.65 261.369C299.457 261.926 303.834 262.205 304.529 260.673C305.224 259.14 299.665 254.753 299.665 254.753C299.665 254.753 296.261 255.31 294.454 255.101C292.648 254.892 290.633 251.201 290.633 251.201Z" fill="#464F96"/>
<path d="M290.079 186.434C289.106 181.42 287.508 176.684 284.798 172.436L283.27 164.984C284.659 161.154 289.106 148.27 289.037 139.843L278.337 136.709L272.431 136.5C272.431 136.5 268.887 137.196 263.051 138.938C263.051 138.938 260.411 149.384 260.758 154.398C261.036 157.95 262.009 161.711 262.565 163.661L262.426 172.714L261.036 245.909L275.905 247.093L275.349 194.512L276.53 195L285.493 248.346L299.667 246.536C299.737 246.466 291.052 191.657 290.079 186.434Z" fill="url(#paint15_linear_991_7165)"/>
<path d="M270.343 137.266C270.343 137.266 268.676 138.728 269.648 139.982C270.552 141.236 272.914 139.703 272.914 139.703C272.914 139.703 274.998 141.584 277.569 140.818C280.14 140.121 280.696 137.196 280.696 137.196" stroke="#F96786" stroke-miterlimit="10" stroke-linecap="round" stroke-linejoin="round"/>
<path d="M289.246 139.843C289.246 139.843 284.73 144.787 284.522 149.802C284.313 153.911 292.651 162.477 295.499 166.098L284.73 175.848L284.383 175.918C284.174 175.778 283.827 175.639 283.132 175.43C282.09 175.152 280.7 175.291 280.561 175.43C280.422 175.57 280.561 175.778 281.048 175.848C281.534 175.918 282.02 175.918 282.02 175.918L282.437 176.196L280.631 176.475C280.005 176.475 278.824 176.545 278.129 176.753C277.087 177.032 276.045 177.798 276.253 178.216C276.462 178.564 277.712 178.007 278.268 177.729H280.144L280.214 177.798C279.658 177.868 278.963 177.937 278.546 178.007C277.504 178.286 276.462 179.052 276.67 179.47C276.879 179.818 278.129 179.261 278.685 178.982H280.978V179.052C280.492 179.121 279.936 179.191 279.588 179.261C278.546 179.539 277.504 180.305 277.712 180.723C277.921 181.071 279.172 180.514 279.727 180.236H281.742C281.534 180.236 281.325 180.305 281.117 180.375C280.075 180.653 279.033 181.42 279.241 181.837C279.449 182.186 280.7 181.628 281.256 181.35H282.437C282.437 181.35 285.911 181.768 287.37 179.47C289.872 178.286 301.405 171.112 302.725 168.605C304.671 164.775 289.246 139.843 289.246 139.843Z" fill="#FF897F"/>
<path d="M265.972 126.68C265.972 126.68 264.444 131.555 264.652 134.828C264.861 138.031 267.918 137.405 268.752 137.126C269.516 136.848 270.697 138.24 271.67 137.753C272.643 137.335 271.322 134.828 271.322 134.828L265.972 126.68Z" fill="#282E4E"/>
<path d="M271.109 133.226L271.318 139.354C271.318 139.354 271.943 139.842 273.68 139.842C275.417 139.842 277.988 138.171 277.988 138.171L277.641 132.042L271.109 133.226Z" fill="#FF897F"/>
<path d="M281.249 124.312C280.693 124.243 280.276 124.382 279.929 124.521C280.276 121.527 280.207 118.95 280.207 118.95L266.102 118.114C266.102 118.114 265.199 125.357 265.963 129.536C266.311 131.555 267.631 133.087 268.881 134.132C270.48 135.455 272.564 135.734 274.44 134.829C275.969 134.132 277.775 132.879 278.609 130.789C278.609 130.72 278.678 130.58 278.678 130.511C279.373 130.302 280.554 129.745 281.527 128.839C283.264 127.237 283.472 124.452 281.249 124.312Z" fill="#FF897F"/>
<path d="M270.974 121.526C273.684 122.71 277.297 122.083 277.297 122.083C277.297 122.083 276.741 123.894 277.158 125.357C277.575 126.819 278.478 126.958 278.478 126.958C278.478 126.958 279.52 124.591 280.91 124.8C282.3 125.008 281.813 127.725 280.771 128.908C279.729 130.023 278.617 130.023 278.617 130.023C278.617 130.023 277.158 131.764 277.644 133.505C277.644 133.505 277.922 137.266 277.992 138.171C277.992 138.171 278.548 138.798 279.937 138.101C281.327 137.335 283.133 138.798 285.635 137.266C288.136 135.664 287.789 133.366 286.468 130.162C285.148 126.958 284.662 122.989 284.662 122.989C284.662 122.989 284.592 118.323 283.272 115.955C281.952 113.587 279.659 112.682 276.95 112.125C274.24 111.567 272.225 112.612 272.225 112.612C272.225 112.612 266.528 113.308 264.652 116.651C261.317 122.71 265.694 125.078 265.694 125.078C265.694 125.078 267.57 122.78 268.056 118.741C267.987 118.601 269.098 120.691 270.974 121.526Z" fill="#282E4E"/>
<path d="M263.672 157.393C263.672 157.393 267.563 156.069 269.925 156.069C272.287 156.069 278.541 158.159 278.541 158.159" stroke="#F96786" stroke-miterlimit="10"/>
<path d="M272.843 139.772C272.843 139.772 272.009 143.742 272.148 146.528" stroke="#F96786" stroke-miterlimit="10" stroke-linecap="round" stroke-linejoin="round"/>
<path d="M269.516 190.751C269.516 190.751 274.935 192.144 276.603 194.999" stroke="#F96786" stroke-miterlimit="10" stroke-linecap="round" stroke-linejoin="round"/>
<path d="M285.008 245.282L299.251 243.61" stroke="#F96786" stroke-miterlimit="10" stroke-linecap="round" stroke-linejoin="round"/>
<path d="M261.18 242.983L275.979 244.516" stroke="#F96786" stroke-miterlimit="10" stroke-linecap="round" stroke-linejoin="round"/>
<path d="M295.5 166.098C295.5 166.098 298.557 166.655 299.738 167.282" stroke="#BA6561" stroke-miterlimit="10" stroke-linecap="round" stroke-linejoin="round"/>
<path d="M253.812 156.486C253.812 156.486 254.16 159.551 253.812 161.71" stroke="#BA6561" stroke-miterlimit="10" stroke-linecap="round" stroke-linejoin="round"/>
<path d="M271.32 135.316C271.32 135.316 274.1 135.873 277.157 132.948" stroke="#BA6561" stroke-miterlimit="10" stroke-linecap="round" stroke-linejoin="round"/>
<path d="M39.3255 231.701L41.0625 248.207L39.3255 256.773C39.3255 256.773 38.9086 257.399 42.7995 258.026C46.6904 258.653 48.7748 257.051 48.7748 257.051L47.3852 247.928L48.0105 233.164L39.3255 231.701Z" fill="#FF897F"/>
<path d="M62.1172 232.328L65.5912 247.301L66.6334 254.405L81.2243 254.753L72.8172 247.301L70.038 231.005L62.1172 232.328Z" fill="#FF897F"/>
<path d="M40.4362 251.62C40.4362 251.62 41.131 254.058 43.6323 254.336C47.4538 254.754 47.9401 251.759 47.9401 251.759C47.9401 251.759 49.2603 257.122 49.3297 258.375C49.3992 259.629 46.62 261.231 43.9103 261.231C40.8531 261.231 39.3245 259.629 38.6297 258.584C37.9349 257.47 40.4362 251.62 40.4362 251.62Z" fill="#464F96"/>
<path d="M65.8657 249.321C65.8657 249.321 65.5878 252.455 65.8657 253.778C66.1436 255.101 66.4215 255.937 66.769 256.006C67.0469 256.076 72.1884 256.355 73.4391 256.355C74.6897 256.424 80.3871 256.633 82.1241 256.355C83.8612 256.076 84.1391 256.006 84.417 255.24C84.6949 254.474 76.7047 250.714 76.7047 250.714C76.7047 250.714 74.8287 251.48 71.9105 251.549C68.9923 251.758 67.1164 249.251 65.8657 249.321Z" fill="#464F96"/>
<path d="M48.7065 124.173V130.023L41.6195 129.535L40.5078 121.317L48.7065 124.173Z" fill="#FF897F"/>
<path d="M86.8526 130.997C85.9494 130.719 84.7682 130.788 83.9345 130.928V130.579C85.1851 130.37 87.6169 129.953 86.3663 129.604C84.9072 129.187 82.6143 129.813 82.6143 129.813L80.4604 129.256C81.0858 128.351 81.5721 126.54 81.0858 126.749C80.5994 126.958 78.7929 129.535 78.2371 130.162L68.7877 140.399L55.1695 128.142C53.7104 129.674 53.2936 137.195 55.4475 140.817C57.6014 144.369 68.9962 148.617 68.9962 148.617C73.5124 148.478 79.1403 137.892 80.8078 134.619L83.1007 134.549C83.1007 134.549 83.726 134.549 84.2124 134.479C85.5325 134.34 87.2695 134.131 86.1578 133.713C85.5325 133.504 84.8377 133.435 84.1429 133.435V133.156C85.3936 132.947 87.9643 132.669 86.7137 132.251C85.9494 131.972 84.9072 132.042 84.0734 132.112V131.903C85.1156 131.763 88.2423 131.485 86.8526 130.997Z" fill="#FF897F"/>
<path d="M50.9258 107.528C50.9258 107.528 53.4271 116.303 53.6355 120.134C53.844 124.034 51.3427 126.262 48.1466 126.262C44.9505 126.262 42.1018 124.312 42.1018 124.312L38.0719 116.861C36.5433 114.075 37.4466 110.593 40.0868 108.852C41.1985 108.155 42.3797 107.459 43.6998 106.971C48.0076 105.3 50.9258 107.528 50.9258 107.528Z" fill="#FF897F"/>
<path d="M39.3329 117.209C39.3329 117.209 37.1095 116.443 36.3452 117.836C35.5809 119.229 37.3874 121.457 38.916 122.224C40.4446 122.99 42.7374 122.224 42.7374 122.224L39.3329 117.209Z" fill="#FF897F"/>
<path d="M63.5087 166.934C63.5087 166.934 60.0347 169.023 52.6003 169.441C49.4737 169.65 46.1386 169.51 43.2204 169.371C39.1906 169.162 36.2029 168.814 36.2029 168.814L37.3146 154.537L31.6172 131.137C34.1185 129.118 41.3445 127.446 41.3445 127.446C41.3445 127.446 44.61 129.953 47.8062 129.675C48.9178 129.535 48.7094 127.168 48.7094 127.168C48.7094 127.168 52.8087 126.889 54.6152 127.655C54.8932 127.725 55.1016 127.864 55.31 128.073C59.8958 132.669 58.7146 153.91 58.7146 153.91L63.5087 166.934Z" fill="url(#paint16_linear_991_7165)"/>
<path d="M49.888 107.25C49.888 107.25 49.5406 109.269 47.4562 111.428C45.3023 113.587 43.3568 113.726 43.3568 113.726C43.3568 113.726 42.801 114.91 41.9672 115.468C41.1334 116.025 41.1334 116.025 41.1334 116.025C41.1334 116.025 41.8282 117.905 41.4808 119.298C41.4808 119.298 39.7438 116.791 38.1458 117C36.5477 117.209 35.8529 119.019 36.9646 120.482C38.0068 121.944 40.1607 122.501 40.6471 122.501L41.2029 126.401C41.2029 126.401 40.0912 126.75 38.4237 126.193H38.3542C37.5899 125.844 36.6867 126.959 35.0192 127.028C33.3516 127.098 33.0737 126.053 31.6841 126.471C30.2945 126.889 27.6542 127.376 26.751 124.591C25.8477 121.805 28.0711 120.969 27.3068 119.298C26.612 117.626 27.5153 116.373 28.9743 115.607C30.4334 114.841 28.9743 110.662 31.1282 109.06C33.2821 107.389 33.838 107.25 34.3243 106.205C34.8107 105.16 36.8256 104.185 38.6321 104.255C40.925 104.325 40.3692 102.096 43.5653 102.375C47.3172 102.723 48.0815 104.325 48.0815 104.325C48.0815 104.325 49.8185 104.255 51.6945 105.926C54.8211 108.643 54.1958 112.264 52.7367 114.771C52.8062 114.771 50.8607 108.225 49.888 107.25Z" fill="#282E4E"/>
<path d="M31.8925 130.649L19.386 144.021L9.0334 134.619C8.47756 133.992 6.39314 131.624 5.90678 131.415C5.35094 131.207 6.04574 133.017 6.74055 133.853L4.65613 134.619C4.65613 134.619 2.29379 134.201 0.904182 134.758C-0.276986 135.246 2.15483 135.385 3.47496 135.524V135.873C2.6412 135.803 1.46003 135.803 0.55678 136.221C-0.76335 136.848 2.43275 136.848 3.47496 136.917V137.126C2.71068 137.126 1.59899 137.126 0.904182 137.474C-0.276986 138.032 2.29379 138.101 3.54444 138.171V138.449C2.84964 138.519 2.08535 138.589 1.52951 138.867C0.4873 139.355 2.22431 139.424 3.54444 139.424C3.96133 139.424 4.65613 139.424 4.65613 139.424L6.94899 139.285C8.89444 142.489 15.3561 152.517 19.8724 152.239C19.8724 152.239 33.1431 145.205 34.9496 141.444C36.8256 137.683 33.4905 132.112 31.8925 130.649Z" fill="#FF897F"/>
<path d="M73.5849 232.189L70.1109 232.746L61.5648 234.139L52.5323 186.642L51.2817 185.041V234.139H37.3856C37.3856 234.139 33.7031 199.596 33.7031 189.15C33.7031 178.703 36.4129 166.237 36.4129 166.237C50.1005 170.485 62.8849 165.192 62.8849 165.192C63.0239 165.541 63.1629 165.889 63.3018 166.237C68.2349 180.862 73.5849 232.189 73.5849 232.189Z" fill="url(#paint17_linear_991_7165)"/>
<path d="M19.3906 144.021C19.3906 144.021 21.475 146.25 22.3783 147.713" stroke="#BA6561" stroke-miterlimit="10" stroke-linecap="round" stroke-linejoin="round"/>
<path d="M68.7857 140.4C68.7857 140.4 68.1604 142.559 68.7857 144.44" stroke="#BA6561" stroke-miterlimit="10" stroke-linecap="round" stroke-linejoin="round"/>
<path d="M48.7025 126.263C48.7025 126.263 43.7694 126.959 41.4766 123.129" stroke="#BA6561" stroke-miterlimit="10" stroke-linecap="round" stroke-linejoin="round"/>
<path d="M37.9375 154.259L40.5083 155.095" stroke="#F96786" stroke-miterlimit="10" stroke-linecap="round" stroke-linejoin="round"/>
<path d="M34.8125 175.361C34.8125 175.361 39.3982 174.386 40.093 169.093" stroke="#7954B3" stroke-miterlimit="10"/>
<path d="M35.9922 168.118C35.9922 168.118 50.5831 172.853 63.5065 166.934" stroke="#7954B3" stroke-miterlimit="10"/>
<path d="M51.3516 185.04C51.3516 185.04 52.3938 181.837 55.1035 180.374" stroke="#7954B3" stroke-miterlimit="10"/>
<path d="M60.7266 168.048C60.7266 168.048 62.3246 172.853 65.2428 173.898" stroke="#7954B3" stroke-miterlimit="10"/>
<path d="M36.9688 230.1C36.9688 230.1 42.0408 230.866 51.3512 230.1" stroke="#7954B3" stroke-miterlimit="10"/>
<path d="M73.1644 227.871C73.1644 227.871 66.7027 229.473 60.7969 229.751" stroke="#7954B3" stroke-miterlimit="10"/>
<path d="M39.4609 127.934C39.4609 127.934 42.5181 130.859 46.9648 130.859C51.4116 130.859 49.9525 127.028 49.9525 127.028" stroke="#F96786" stroke-miterlimit="10" stroke-linecap="round" stroke-linejoin="round"/>
<path d="M43.1484 145.554C43.1484 145.554 49.6796 144.23 55.377 144.021" stroke="#F96786" stroke-miterlimit="10" stroke-linecap="round" stroke-linejoin="round"/>
</g>
<defs>
<linearGradient id="paint0_linear_991_7165" x1="10.3307" y1="196.833" x2="22.9519" y2="215.069" gradientUnits="userSpaceOnUse">
<stop stop-color="#DC911B"/>
<stop offset="1" stop-color="#E7B142"/>
</linearGradient>
<linearGradient id="paint1_linear_991_7165" x1="28.9672" y1="217.596" x2="41.1814" y2="217.596" gradientUnits="userSpaceOnUse">
<stop stop-color="#DC911B"/>
<stop offset="1" stop-color="#E7B142"/>
</linearGradient>
<linearGradient id="paint2_linear_991_7165" x1="19.8934" y1="216.178" x2="16.2617" y2="235.308" gradientUnits="userSpaceOnUse">
<stop stop-color="#DC911B"/>
<stop offset="1" stop-color="#E7B142"/>
</linearGradient>
<linearGradient id="paint3_linear_991_7165" x1="31.8413" y1="206.952" x2="33.7786" y2="240.194" gradientUnits="userSpaceOnUse">
<stop stop-color="#FFE9EC"/>
<stop offset="1" stop-color="#A7A3D1"/>
</linearGradient>
<linearGradient id="paint4_linear_991_7165" x1="189.096" y1="253.929" x2="187.643" y2="233.057" gradientUnits="userSpaceOnUse">
<stop stop-color="#DC911B"/>
<stop offset="1" stop-color="#E7B142"/>
</linearGradient>
<linearGradient id="paint5_linear_991_7165" x1="290.024" y1="177.238" x2="293.233" y2="238.512" gradientUnits="userSpaceOnUse">
<stop stop-color="#FFE9EC"/>
<stop offset="1" stop-color="#A7A3D1"/>
</linearGradient>
<linearGradient id="paint6_linear_991_7165" x1="293.542" y1="212.084" x2="303.249" y2="219.889" gradientUnits="userSpaceOnUse">
<stop stop-color="#FFE9EC"/>
<stop offset="1" stop-color="#A7A3D1"/>
</linearGradient>
<linearGradient id="paint7_linear_991_7165" x1="252.194" y1="236.28" x2="308.124" y2="236.28" gradientUnits="userSpaceOnUse">
<stop stop-color="#DC911B"/>
<stop offset="1" stop-color="#E7B142"/>
</linearGradient>
<linearGradient id="paint8_linear_991_7165" x1="108.478" y1="123.847" x2="232.493" y2="60.1672" gradientUnits="userSpaceOnUse">
<stop stop-color="#7954B3"/>
<stop offset="0.0487664" stop-color="#7153AE"/>
<stop offset="0.2128" stop-color="#5951A1"/>
<stop offset="0.366" stop-color="#4B4F99"/>
<stop offset="0.4969" stop-color="#464F96"/>
<stop offset="0.6394" stop-color="#4A4F98"/>
<stop offset="0.7788" stop-color="#56519F"/>
<stop offset="0.9165" stop-color="#6952AA"/>
<stop offset="1" stop-color="#7954B3"/>
</linearGradient>
<linearGradient id="paint9_linear_991_7165" x1="75.029" y1="95.797" x2="64.9584" y2="57.1545" gradientUnits="userSpaceOnUse">
<stop stop-color="#DC911B"/>
<stop offset="1" stop-color="#E7B142"/>
</linearGradient>
<linearGradient id="paint10_linear_991_7165" x1="237.161" y1="82.3395" x2="267.229" y2="82.3395" gradientUnits="userSpaceOnUse">
<stop stop-color="#DC911B"/>
<stop offset="1" stop-color="#E7B142"/>
</linearGradient>
<linearGradient id="paint11_linear_991_7165" x1="219.287" y1="202.761" x2="207.675" y2="179.977" gradientUnits="userSpaceOnUse">
<stop offset="0.15" stop-color="#464F96"/>
<stop offset="0.3962" stop-color="#4A4F98"/>
<stop offset="0.6269" stop-color="#55509F"/>
<stop offset="0.8507" stop-color="#6852A9"/>
<stop offset="1" stop-color="#7954B3"/>
</linearGradient>
<linearGradient id="paint12_linear_991_7165" x1="135.987" y1="193.656" x2="95.0357" y2="226.032" gradientUnits="userSpaceOnUse">
<stop stop-color="#CD536C"/>
<stop offset="1" stop-color="#8B1F5A"/>
</linearGradient>
<linearGradient id="paint13_linear_991_7165" x1="118.402" y1="196.948" x2="104.457" y2="139.272" gradientUnits="userSpaceOnUse">
<stop offset="0.15" stop-color="#464F96"/>
<stop offset="0.3962" stop-color="#4A4F98"/>
<stop offset="0.6269" stop-color="#55509F"/>
<stop offset="0.8507" stop-color="#6852A9"/>
<stop offset="1" stop-color="#7954B3"/>
</linearGradient>
<linearGradient id="paint14_linear_991_7165" x1="96.1539" y1="158.49" x2="105.913" y2="139.183" gradientUnits="userSpaceOnUse">
<stop stop-color="#464F96"/>
<stop offset="0.2789" stop-color="#4A4F98"/>
<stop offset="0.5606" stop-color="#56519F"/>
<stop offset="0.8426" stop-color="#6A53AB"/>
<stop offset="1" stop-color="#7954B3"/>
</linearGradient>
<linearGradient id="paint15_linear_991_7165" x1="260.784" y1="192.409" x2="299.714" y2="192.409" gradientUnits="userSpaceOnUse">
<stop stop-color="#CD536C"/>
<stop offset="1" stop-color="#8B1F5A"/>
</linearGradient>
<linearGradient id="paint16_linear_991_7165" x1="41.165" y1="129.283" x2="53.5594" y2="176.04" gradientUnits="userSpaceOnUse">
<stop stop-color="#CD536C"/>
<stop offset="1" stop-color="#8B1F5A"/>
</linearGradient>
<linearGradient id="paint17_linear_991_7165" x1="41.0734" y1="164.971" x2="59.8517" y2="235.811" gradientUnits="userSpaceOnUse">
<stop stop-color="#464F96"/>
<stop offset="0.2789" stop-color="#4A4F98"/>
<stop offset="0.5606" stop-color="#56519F"/>
<stop offset="0.8426" stop-color="#6A53AB"/>
<stop offset="1" stop-color="#7954B3"/>
</linearGradient>
<clipPath id="clip0_991_7165">
<rect width="321" height="273" fill="white"/>
</clipPath>
</defs>
</svg>
