<svg width="589" height="500" viewBox="0 0 589 500" fill="none" xmlns="http://www.w3.org/2000/svg">
<g clip-path="url(#clip0_986_4166)">
<path d="M302.15 37.8828C302.15 37.8828 234.199 34.9491 195.824 96.1736C157.45 157.398 129.403 130.485 86.4387 177.424C43.4749 224.235 52.3991 322.449 57.3712 362.5C62.3433 402.551 79.6818 447.322 79.6818 447.322H536.475C536.475 447.322 583.137 255.485 543.105 184.311C503.073 113.138 416.508 109.566 392.668 73.7246C368.7 37.8828 302.15 37.8828 302.15 37.8828Z" fill="#E5E5EC"/>
<path d="M10.3304 444.643C10.3304 444.643 140.879 434.056 572.175 447.704C582.119 447.959 609.53 476.148 559.044 484.439C508.558 492.73 465.467 484.439 392.415 496.173C319.364 507.908 246.058 486.607 176.449 486.607C106.84 486.607 103.27 483.036 70.3778 479.464C17.3423 473.724 -20.012 450.255 10.3304 444.643Z" fill="#DAD7EB"/>
<path d="M453.097 427.423C445.703 426.403 439.456 445.281 439.456 445.281C439.456 445.281 439.456 445.281 439.329 445.153C438.181 441.709 437.289 437.372 436.651 432.781C438.054 431.76 445.576 426.02 447.36 423.597C449.4 421.046 449.273 414.668 445.448 414.286C441.751 413.903 436.396 429.464 436.396 429.464C436.396 429.464 436.269 429.337 436.141 429.209C435.759 425.51 435.504 421.684 435.249 418.112C437.161 416.071 441.623 411.097 442.643 408.673C443.918 405.612 444.046 402.423 441.241 402.423C439.201 402.423 436.269 408.673 434.994 411.607C434.867 408.673 434.866 405.995 434.866 404.082C436.014 401.658 438.309 396.428 438.691 393.877C439.329 390.434 439.329 385.076 436.906 384.439C434.612 383.801 431.934 386.862 431.042 392.474C430.404 396.684 432.444 401.913 433.592 404.209C433.592 406.122 433.592 408.673 433.719 411.48C432.444 407.908 429.257 399.617 425.56 398.342C423.392 397.704 421.098 400 422.118 404.209C423.137 408.418 432.572 416.582 432.572 416.582L434.102 418.622C434.229 421.301 434.484 424.107 434.739 426.913C432.444 423.597 427.982 417.73 423.265 415.051C420.078 413.265 411.918 416.964 416.636 422.959C420.588 428.061 431.934 431.633 435.249 432.525C435.759 436.352 436.396 439.923 437.289 442.985C433.464 439.031 424.412 430.485 418.293 431.633C410.389 433.163 408.859 440.816 415.871 444.005C422.755 447.194 439.201 447.449 439.201 447.449C439.201 447.449 449.145 442.985 452.842 440.051C456.795 437.372 460.619 428.444 453.097 427.423Z" fill="#A7A3D1"/>
<path d="M16.0721 357.271C16.0721 357.271 13.0124 369.644 21.5542 389.797C30.0959 409.95 63.1156 431.889 63.1156 431.889C63.1156 431.889 65.1554 408.547 53.6814 384.823C42.3349 361.226 16.0721 357.271 16.0721 357.271Z" fill="url(#paint0_linear_986_4166)"/>
<path d="M63.3686 366.327C63.3686 366.327 56.6117 372.705 53.6794 388.393C50.7472 404.082 62.0937 430.74 62.0937 430.74C62.0937 430.74 72.6753 417.348 75.2251 398.342C77.9024 379.337 63.3686 366.327 63.3686 366.327Z" fill="url(#paint1_linear_986_4166)"/>
<path d="M1.02344 411.607C1.02344 411.607 5.23058 419.898 19.5094 426.914C33.7882 433.929 62.6007 430.357 62.6007 430.357C62.6007 430.357 52.5291 416.454 34.9356 408.801C17.3421 401.148 1.02344 411.607 1.02344 411.607Z" fill="url(#paint2_linear_986_4166)"/>
<path d="M34.6789 444.644H113.467C113.467 444.644 112.32 434.823 102.376 428.317C92.4315 421.812 81.085 428.317 81.085 428.317C81.085 428.317 75.6029 414.542 55.4596 414.542C35.3163 414.542 32.2566 429.593 32.2566 429.593C32.2566 429.593 13.3882 425.129 10.7109 444.644H34.6789Z" fill="url(#paint3_linear_986_4166)"/>
<path d="M318.218 447.322H397.006C397.006 447.322 395.859 437.5 385.915 430.995C375.971 424.49 364.624 430.995 364.624 430.995C364.624 430.995 359.142 417.22 338.999 417.22C318.855 417.22 315.796 432.271 315.796 432.271C315.796 432.271 296.927 427.806 294.25 447.322H318.218Z" fill="url(#paint4_linear_986_4166)"/>
<path d="M521.049 430.868C521.049 430.868 518.882 421.047 519.264 413.776C519.774 406.506 528.188 405.485 528.443 399.618C528.698 393.751 526.531 386.225 533.67 382.143C540.682 378.062 535.2 374.108 539.535 367.092C543.869 360.077 548.842 362.246 551.391 364.924C553.941 367.603 547.822 379.848 550.881 386.225C553.941 392.603 544.124 404.337 545.272 406.888C546.419 409.567 550.244 414.286 549.734 422.067C549.224 429.848 543.614 434.057 543.614 434.057L521.049 430.868Z" fill="url(#paint5_linear_986_4166)"/>
<path d="M528.703 427.552C528.703 427.552 529.851 417.603 532.783 410.842C535.715 404.082 544.002 405.995 546.169 400.638C548.336 395.154 548.846 387.373 556.878 385.97C564.91 384.439 561.085 378.955 567.46 373.725C573.834 368.495 577.786 372.322 579.444 375.638C580.974 378.955 571.157 388.521 571.794 395.536C572.432 402.552 559.428 410.332 559.555 413.138C559.683 415.944 561.723 421.812 558.663 428.955C555.603 436.097 548.846 438.138 548.846 438.138L528.703 427.552Z" fill="url(#paint6_linear_986_4166)"/>
<path d="M486.507 447.833H565.295C565.295 447.833 564.148 438.011 554.204 431.506C544.26 425.001 532.913 431.506 532.913 431.506C532.913 431.506 527.431 417.73 507.288 417.73C487.144 417.73 484.085 432.781 484.085 432.781C484.085 432.781 465.216 428.317 462.539 447.833H486.507Z" fill="url(#paint7_linear_986_4166)"/>
<path d="M219.92 408.93C219.92 408.93 223.362 409.44 231.522 417.348C239.681 425.256 239.426 434.44 239.426 434.44C239.426 434.44 242.231 415.562 252.43 408.93C252.43 408.93 257.912 422.067 252.43 437.501C252.43 437.501 261.609 424.363 278.693 421.685C278.693 421.685 277.418 437.884 264.286 447.833H226.04C226.167 447.705 210.486 431.761 219.92 408.93Z" fill="#A7A3D1"/>
<path d="M171.988 421.301C164.594 420.281 158.347 439.158 158.347 439.158C158.347 439.158 158.347 439.158 158.219 439.031C157.072 435.587 156.179 431.25 155.542 426.658C156.944 425.638 164.466 419.898 166.251 417.475C168.291 414.924 168.163 408.546 164.339 408.164C160.642 407.781 155.287 423.342 155.287 423.342C155.287 423.342 155.16 423.215 155.032 423.087C154.65 419.388 154.395 415.562 154.14 411.99C156.052 409.949 160.514 404.975 161.534 402.551C162.809 399.49 162.936 396.301 160.132 396.301C158.092 396.301 155.16 402.551 153.885 405.485C153.757 402.551 153.757 399.873 153.757 397.959C154.905 395.536 157.199 390.306 157.582 387.755C158.219 384.312 158.219 378.954 155.797 378.317C153.502 377.679 150.825 380.74 149.932 386.352C149.295 390.561 151.335 395.791 152.482 398.087C152.482 400 152.482 402.551 152.61 405.357C151.335 401.786 148.148 393.495 144.45 392.22C142.283 391.582 139.988 393.878 141.008 398.087C142.028 402.296 151.462 410.459 151.462 410.459L152.992 412.5C153.12 415.179 153.375 417.985 153.63 420.791C151.335 417.475 146.873 411.607 142.156 408.929C138.968 407.143 130.809 410.842 135.526 416.837C139.478 421.939 150.825 425.51 154.14 426.403C154.65 430.23 155.287 433.801 156.179 436.863C152.355 432.908 143.303 424.363 137.184 425.51C129.279 427.041 127.749 434.694 134.761 437.883C141.646 441.072 158.092 441.327 158.092 441.327C158.092 441.327 168.036 436.863 171.733 433.929C175.685 431.25 179.51 422.322 171.988 421.301Z" fill="#E7B142"/>
<path d="M175.805 82.3979C175.805 80.2295 194.418 0.637695 290.927 0.637695C355.819 0.637695 413.827 43.1122 413.827 104.082C413.827 146.556 382.21 172.449 340.776 190.179C326.114 196.684 325.604 208.801 325.604 223.087V247.321H254.211V200.127C254.211 181.122 255.103 165.561 274.481 152.934C300.872 136.097 325.477 134.694 325.477 104.082C325.477 83.2908 309.923 68.6224 290.417 68.6224C259.31 68.6224 244.139 94.6428 239.422 113.138L175.805 82.3979ZM339.373 321.301C339.373 348.597 317.318 370.663 289.653 370.663C262.37 370.663 240.314 348.597 240.314 321.301C240.314 293.622 262.37 271.556 289.653 271.556C317.318 271.428 339.373 293.495 339.373 321.301Z" fill="url(#paint8_linear_986_4166)"/>
<path opacity="0.47" d="M174.656 96.4286C174.656 94.3878 193.907 8.5459 284.169 8.5459C344.854 8.5459 399.037 48.2143 399.037 105.23C399.037 144.898 369.46 169.133 330.703 185.714C316.934 191.837 316.552 203.061 316.552 216.454V239.158H249.875V195.153C249.875 177.296 250.64 162.755 268.871 151.02C293.604 135.204 316.552 134.056 316.552 105.23C316.552 85.8418 302.018 72.0663 283.787 72.0663C254.719 72.0663 238.656 107.781 234.194 125.128L174.656 96.4286ZM341.157 315.689C341.157 341.199 320.504 361.862 294.624 361.862C269.126 361.862 248.472 341.199 248.472 315.689C248.472 289.796 269.126 269.133 294.624 269.133C320.504 269.133 341.157 289.796 341.157 315.689Z" stroke="white" stroke-miterlimit="10"/>
<path d="M93.3161 111.224C93.1886 110.714 91.1487 92.6018 111.547 85.4589C125.188 80.612 140.615 85.2038 145.077 98.0864C148.264 107.015 143.547 114.796 136.025 121.683C133.348 124.107 134.24 126.785 135.26 129.719L137.045 134.821L122.001 140.178L118.559 130.229C117.157 126.275 116.137 122.831 119.324 118.75C123.658 113.265 128.758 111.097 126.463 104.592C124.933 100.255 120.599 98.214 116.392 99.7446C109.89 102.041 108.615 108.673 108.997 112.882L93.3161 111.224ZM145.587 149.489C147.626 155.229 144.567 161.479 138.702 163.52C132.965 165.561 126.718 162.5 124.678 156.76C122.639 150.893 125.571 144.643 131.435 142.602C137.172 140.561 143.547 143.622 145.587 149.489Z" fill="url(#paint9_linear_986_4166)"/>
<path d="M440.851 120.918C440.978 120.408 451.05 105.23 471.321 112.755C484.962 117.73 493.759 131.122 489.042 144.005C485.727 152.934 477.185 155.867 466.986 156.377C463.416 156.633 462.396 159.056 461.249 162.117L459.337 167.219L444.42 161.735L448.118 151.786C449.648 147.832 450.922 144.643 456.022 143.495C462.906 141.964 468.133 143.622 470.556 137.245C472.213 132.908 470.046 128.571 465.966 127.041C459.464 124.617 454.237 128.826 451.815 132.398L440.851 120.918ZM456.659 183.673C454.492 189.413 448.245 192.347 442.381 190.179C436.644 188.01 433.711 181.76 435.879 176.02C438.046 170.153 444.42 167.347 450.03 169.388C455.894 171.556 458.699 177.934 456.659 183.673Z" fill="url(#paint10_linear_986_4166)"/>
<path d="M191.488 144.26C191.615 144.005 196.97 135.842 207.934 139.796C215.328 142.475 220.045 149.745 217.495 156.633C215.711 161.48 211.121 163.01 205.639 163.266C203.727 163.393 203.089 164.796 202.579 166.327L201.559 169.005L193.527 166.072L195.44 160.715C196.205 158.546 196.97 156.888 199.774 156.25C203.472 155.485 206.276 156.378 207.551 152.806C208.444 150.51 207.296 148.087 205.129 147.322C201.559 146.046 198.755 148.342 197.48 150.255L191.488 144.26ZM200.029 178.061C198.882 181.123 195.44 182.653 192.38 181.505C189.32 180.357 187.663 176.913 188.81 173.852C189.958 170.663 193.4 169.133 196.46 170.281C199.647 171.556 201.177 175 200.029 178.061Z" fill="#B6B6CE"/>
<path d="M425.422 44.6429C425.422 44.3878 426.569 32.7807 440.211 30.9949C449.39 29.847 458.314 34.6939 459.461 43.3674C460.226 49.3623 456.274 53.5715 450.665 56.8878C448.752 58.0358 448.88 59.8215 449.135 61.8623L449.517 65.3062L439.446 66.5817L438.553 59.949C438.171 57.2705 438.043 54.9745 440.593 52.9337C444.035 50 447.477 49.3623 446.968 45.0256C446.585 42.0919 444.163 40.3062 441.358 40.6888C436.896 41.199 435.239 45.1531 434.984 47.9592L425.422 44.6429ZM452.96 75.5102C453.469 79.3368 450.792 82.9082 446.84 83.4184C443.015 83.9286 439.446 81.25 438.936 77.296C438.426 73.3419 441.103 69.898 445.055 69.3878C449.007 68.8776 452.45 71.5562 452.96 75.5102Z" fill="#E5E5EC"/>
<path d="M379.539 384.438L407.077 442.346L406.312 450.765C410.264 452.933 420.208 439.03 420.208 439.03L417.276 435.459C417.276 435.459 408.734 390.816 401.595 384.311H379.539V384.438Z" fill="#D36762"/>
<path d="M406.441 448.85C406.441 448.85 404.529 451.912 402.106 454.973C399.811 458.034 397.262 461.478 398.409 463.136C399.429 464.794 410.521 457.141 418.425 451.657C426.457 446.172 425.309 446.044 425.182 445.151C425.054 444.259 419.827 438.264 419.827 438.264C419.827 438.264 413.835 446.044 410.393 448.34C406.951 450.636 406.441 448.85 406.441 448.85Z" fill="#282E4E"/>
<path d="M404.399 384.438L381.961 378.57L388.463 452.167L381.961 458.545H402.614L401.594 452.805C402.104 446.045 405.546 397.448 404.399 384.438Z" fill="#FF897F"/>
<path d="M405.798 277.296C405.798 277.296 414.85 298.087 416.252 307.143C417.654 316.199 404.141 329.592 404.141 329.592L405.798 277.296Z" fill="#FF897F"/>
<path d="M378.647 232.015L377.245 236.351C377.245 236.351 373.803 236.351 373.42 237.499C373.038 238.647 375.205 240.433 375.205 240.433C375.205 240.433 372.91 249.617 375.46 253.954C378.01 258.163 393.691 255.867 393.691 255.867C393.691 255.867 400.066 255.229 403.635 248.086C407.205 240.943 409.755 235.459 408.48 228.316C407.715 224.107 400.193 221.3 392.926 221.428C386.424 221.556 380.815 225.892 378.647 232.015Z" fill="#FF897F"/>
<path d="M384.504 254.974L383.484 264.413L399.293 262.244L400.568 252.168L384.504 254.974Z" fill="#FF897F"/>
<path d="M393.69 260.968C393.69 260.968 381.196 260.968 376.096 272.575C369.212 288.391 375.841 311.606 375.841 311.606L374.566 324.106C374.566 324.106 376.733 329.59 410.136 323.723L405.801 311.733C405.801 311.733 409.753 283.799 408.733 274.998C407.458 263.136 393.69 260.968 393.69 260.968Z" fill="#BDBED1"/>
<path d="M385.016 223.851C385.016 223.851 384.761 229.591 388.076 234.693C391.518 239.668 393.43 240.433 393.43 240.433C393.43 240.433 392.665 243.367 393.048 244.132C393.558 244.897 395.47 241.198 397.892 241.709C400.315 242.219 400.442 246.938 398.147 249.744C395.852 252.423 392.665 251.913 392.665 251.913C392.665 251.913 391.645 259.183 395.725 265.05C399.805 270.918 407.454 273.214 414.338 270.28C421.223 267.346 423.645 260.841 422.498 254.719C421.35 248.596 413.446 244.004 413.446 244.004C413.446 244.004 416.506 230.484 411.279 223.851C406.052 217.219 391.263 217.219 385.653 219.642C385.653 219.642 380.299 217.601 376.857 221.3C373.414 224.872 374.307 230.994 378.259 233.545C378.132 233.545 380.936 226.147 385.016 223.851Z" fill="#282E4E"/>
<path d="M385.146 270.153L365.641 293.112L374.055 302.169L398.023 283.419C402.23 280.102 402.74 273.98 399.17 269.898C395.346 265.817 388.716 265.944 385.146 270.153Z" fill="#D3D5E2"/>
<path d="M356.461 259.693C356.461 259.693 358.246 288.264 358.883 294.004C359.393 299.744 361.943 304.336 366.915 304.719C370.995 304.974 373.927 302.295 373.927 302.295L365.768 258.928L356.461 259.693Z" fill="#FF897F"/>
<path d="M360.67 247.576C360.67 247.576 359.777 248.086 359.14 249.234C359.14 249.234 357.737 249.617 356.845 251.275C356.845 251.275 356.335 251.913 355.57 253.443C354.805 254.974 356.845 260.969 356.845 260.969L366.024 260.203C366.024 260.203 367.682 256.632 368.064 254.846C368.447 253.061 367.299 251.02 366.917 250.382C366.534 249.744 365.897 249.872 365.642 250.509C365.387 251.147 365.897 253.571 365.897 253.571L365.259 254.464C365.259 254.464 364.239 253.316 364.367 251.53C364.494 249.744 367.044 245.28 366.152 244.004C365.259 242.729 363.092 246.683 363.092 246.683C363.092 246.683 361.817 247.066 360.67 247.576Z" fill="#FF897F"/>
<path d="M374.688 324.106L377.11 384.438H404.52C404.52 384.438 412.807 334.438 410.384 323.724C410.257 323.851 387.564 327.168 374.688 324.106Z" fill="url(#paint11_linear_986_4166)"/>
<path d="M384.76 455.867C384.76 455.867 381.446 457.397 377.748 458.673C374.051 459.948 370.227 461.479 370.227 463.392C370.227 465.305 383.613 464.923 393.302 464.795C402.991 464.668 403.374 464.285 403.629 463.52C404.011 462.754 401.716 454.336 401.716 454.336C401.716 454.336 392.537 457.525 388.33 457.525C384.25 457.525 384.76 455.867 384.76 455.867Z" fill="#282E4E"/>
<path d="M389.987 254.591C389.987 254.591 387.692 255.994 384.25 256.377" stroke="#BA6561" stroke-miterlimit="10" stroke-linecap="round" stroke-linejoin="round"/>
<path d="M357.352 260.076L362.834 259.311" stroke="#BA6561" stroke-miterlimit="10" stroke-linecap="round" stroke-linejoin="round"/>
<path d="M210.482 458.674H193.781V468.495H210.482V458.674Z" fill="#FF897F"/>
<path d="M193.777 467.348C193.777 467.348 193.522 477.934 193.777 479.72C193.777 479.72 202.064 480.23 206.271 480.23C210.478 480.23 222.335 480.741 226.16 479.72C229.857 478.827 228.454 477.297 227.562 475.766C226.67 474.235 210.223 467.348 210.223 467.348C210.223 467.348 200.662 468.751 193.777 467.348Z" fill="#282E4E"/>
<path d="M185.492 326.276C185.492 326.276 184.982 340.69 185.492 360.97C186.002 381.123 191.102 461.863 191.102 461.863L212.775 462.884L220.807 326.276H185.492Z" fill="url(#paint12_linear_986_4166)"/>
<path d="M208.446 213.776L209.848 218.113C209.848 218.113 213.29 218.113 213.673 219.261C214.055 220.409 211.888 222.194 211.888 222.194C211.888 222.194 214.183 231.378 211.633 235.587C209.083 239.796 193.529 237.501 193.529 237.501C193.529 237.501 187.155 236.863 183.585 229.72C180.015 222.577 177.466 217.22 178.868 210.077C179.633 205.868 187.155 203.062 194.294 203.317C200.669 203.317 206.406 207.654 208.446 213.776Z" fill="#FF897F"/>
<path d="M202.577 236.607L203.597 246.046L187.916 243.878L186.641 233.929L202.577 236.607Z" fill="#FF897F"/>
<path d="M202.831 206.123C202.831 206.123 200.408 210.077 195.054 212.246C195.054 212.246 196.966 219.771 195.436 220.537C194.034 221.429 194.034 219.389 191.102 219.134C188.169 218.878 187.914 222.577 188.807 226.021C189.699 229.338 193.269 230.23 194.544 229.975C195.819 229.72 196.201 231.251 193.651 233.547C191.102 235.843 187.022 238.139 187.022 238.139C187.022 238.139 175.548 227.552 173.508 222.195C171.468 216.838 173.508 213.776 173.508 213.776C173.508 213.776 172.106 206.761 177.843 203.19C183.58 199.618 195.181 198.853 199.898 199.236C204.616 199.746 204.233 202.297 204.233 202.297C204.233 202.297 206.273 202.424 207.165 204.975C208.058 207.526 206.145 209.567 206.145 209.567C206.145 209.567 204.233 207.016 202.831 206.123Z" fill="#282E4E"/>
<path d="M187.662 242.349C187.662 242.349 181.288 251.532 178.356 261.099C175.423 270.665 185.495 326.405 185.495 326.405H220.682C220.682 326.405 219.662 272.323 216.985 262.884C213.67 250.895 203.471 245.027 203.471 245.027L187.662 242.349Z" fill="url(#paint13_linear_986_4166)"/>
<path d="M198.242 327.17L197.477 458.037" stroke="#F96786" stroke-miterlimit="10" stroke-linecap="round" stroke-linejoin="round"/>
<path d="M190.844 458.036H213.409" stroke="#F96786" stroke-miterlimit="10" stroke-linecap="round" stroke-linejoin="round"/>
<path d="M180.521 258.675C175.549 267.731 166.243 286.226 161.016 305.741L175.804 311.736L199.39 268.624C201.047 265.69 201.175 262.118 199.772 259.057C199.772 258.93 199.645 258.93 199.645 258.802C195.82 251.277 184.729 251.149 180.521 258.675Z" fill="url(#paint14_linear_986_4166)"/>
<path d="M204.234 334.95C204.234 334.95 207.932 335.715 207.932 334.95C207.932 334.185 206.019 333.292 203.979 333.292C203.47 333.292 202.832 333.292 202.322 333.292V332.909L203.852 332.654C203.852 332.654 207.294 333.929 207.422 333.292C207.677 332.654 205.127 330.741 203.597 330.868C202.705 330.868 201.557 331.123 200.665 331.378L199.007 331.506C200.282 330.741 201.43 330.23 201.175 329.72C200.792 329.082 200.155 329.21 197.987 330.103C196.585 330.613 195.31 331.506 194.673 331.889H194.035L175.549 311.863L160.761 305.868C160.761 305.868 156.553 315.434 163.055 323.215C169.557 330.996 191.868 341.327 191.868 341.327C194.29 342.348 201.43 339.542 201.43 339.542L202.832 339.287C202.832 339.287 206.529 340.052 206.529 339.287C206.529 338.521 204.617 337.628 202.577 337.628C202.195 337.628 201.94 337.628 201.557 337.628V337.501L203.597 337.118C203.597 337.118 207.294 337.883 207.294 337.118C207.294 336.353 205.382 335.46 203.342 335.46C202.832 335.46 202.195 335.46 201.685 335.46V335.332L204.234 334.95Z" fill="#FF897F"/>
<path d="M196.078 235.46C196.078 235.46 199.648 238.139 202.835 238.011" stroke="#BA6561" stroke-miterlimit="10" stroke-linecap="round" stroke-linejoin="round"/>
<path d="M194.164 331.89C194.164 331.89 196.076 336.099 195.821 337.885" stroke="#BA6561" stroke-miterlimit="10" stroke-linecap="round" stroke-linejoin="round"/>
<path d="M482.794 254.465C482.794 254.465 472.85 272.45 465.838 286.735L446.842 271.174L445.694 269.771C445.439 268.878 444.929 267.858 444.292 266.965C442.89 265.179 442.507 261.353 441.615 263.266C441.105 264.286 441.487 266.2 441.997 267.73L438.045 267.475C437.153 267.22 433.583 266.072 431.416 266.2C428.866 266.327 429.503 267.347 429.631 267.603C429.758 267.73 433.073 268.113 435.368 269.006L435.24 269.133C433.71 268.751 431.416 268.113 429.886 268.24C427.336 268.368 427.973 269.388 428.101 269.643C428.228 269.771 432.053 270.281 434.348 271.302V271.429C432.818 271.046 430.906 270.664 429.503 270.664C426.953 270.791 427.591 271.812 427.718 272.067C427.846 272.194 430.906 272.577 433.2 273.47C432.053 273.342 430.778 273.215 429.758 273.342C427.208 273.725 427.973 274.618 428.101 274.745C428.228 274.873 430.523 275.001 432.69 275.511L441.615 278.572C444.419 283.674 454.491 300.511 463.925 304.847C466.858 306.123 470.682 304.592 472.722 302.169L483.814 288.393L482.794 254.465Z" fill="#FF897F"/>
<path d="M487.896 425.255L490.829 457.78L485.602 463.775C485.602 463.775 487.259 468.75 503.068 463.01L501.41 455.867C501.41 455.867 503.578 433.163 503.068 426.148L487.896 425.255Z" fill="#FF897F"/>
<path d="M525.758 425.255L533.025 457.78L533.79 464.03C533.79 464.03 540.292 471.556 549.981 466.581L543.224 455.867L540.419 425.255H525.758Z" fill="#FF897F"/>
<path d="M486.239 462.756C486.239 462.756 475.913 470.537 475.785 472.195C475.658 473.725 476.55 474.236 479.1 474.491C481.65 474.746 494.781 472.833 499.371 471.94C503.96 471.047 504.215 470.154 504.215 470.154C504.215 470.154 504.725 466.455 502.685 461.48C502.685 461.48 498.861 465.052 489.044 464.542C487.004 464.414 486.239 462.756 486.239 462.756Z" fill="#464F96"/>
<path d="M533.281 460.076C533.281 460.076 533.409 470.153 534.811 472.959C536.214 475.765 542.843 477.678 546.158 478.699C549.472 479.719 557.504 480.229 558.779 477.423C560.054 474.617 549.855 466.581 549.855 466.581C549.855 466.581 543.608 467.602 540.293 467.219C536.978 466.836 533.281 460.076 533.281 460.076Z" fill="#464F96"/>
<path d="M532.257 341.455C530.472 332.271 527.54 323.598 522.568 315.817L519.763 302.169C522.313 295.154 530.472 271.557 530.344 256.123L510.711 250.384L499.874 250.001C499.874 250.001 493.373 251.276 482.663 254.465C482.663 254.465 477.819 273.598 478.456 282.782C478.966 289.287 480.751 296.174 481.771 299.746L481.516 316.328L478.966 450.384L506.249 452.552L505.229 356.251L507.396 357.144L523.842 454.848L549.85 451.532C549.978 451.404 534.042 351.021 532.257 341.455Z" fill="url(#paint15_linear_986_4166)"/>
<path d="M496.053 251.404C496.053 251.404 492.993 254.082 494.778 256.378C496.435 258.674 500.77 255.868 500.77 255.868C500.77 255.868 504.594 259.312 509.312 257.909C514.029 256.634 515.049 251.276 515.049 251.276" stroke="#F96786" stroke-miterlimit="10" stroke-linecap="round" stroke-linejoin="round"/>
<path d="M530.726 256.123C530.726 256.123 522.439 265.179 522.056 274.363C521.674 281.888 536.973 297.577 542.2 304.21L522.439 322.067L521.801 322.194C521.419 321.939 520.781 321.684 519.507 321.302C517.594 320.791 515.044 321.047 514.789 321.302C514.534 321.557 514.789 321.939 515.682 322.067C516.574 322.194 517.467 322.194 517.467 322.194L518.232 322.705L514.917 323.215C513.77 323.215 511.602 323.342 510.327 323.725C508.415 324.235 506.503 325.638 506.885 326.404C507.268 327.041 509.562 326.021 510.582 325.511H514.025L514.152 325.638C513.132 325.766 511.857 325.893 511.092 326.021C509.18 326.531 507.268 327.934 507.65 328.7C508.033 329.337 510.327 328.317 511.347 327.807H515.554V327.934C514.662 328.062 513.642 328.189 513.005 328.317C511.092 328.827 509.18 330.23 509.562 330.996C509.945 331.633 512.24 330.613 513.26 330.103H516.957C516.574 330.103 516.192 330.23 515.809 330.358C513.897 330.868 511.985 332.271 512.367 333.036C512.75 333.674 515.044 332.654 516.064 332.143H518.232C518.232 332.143 524.606 332.909 527.283 328.7C531.873 326.531 553.036 313.393 555.459 308.802C559.028 301.786 530.726 256.123 530.726 256.123Z" fill="#FF897F"/>
<path d="M488.021 232.016C488.021 232.016 485.216 240.944 485.598 246.939C485.981 252.806 491.59 251.658 493.12 251.148C494.523 250.638 496.69 253.189 498.475 252.296C500.26 251.531 497.837 246.939 497.837 246.939L488.021 232.016Z" fill="#282E4E"/>
<path d="M497.453 244.005L497.836 255.23C497.836 255.23 498.983 256.123 502.17 256.123C505.357 256.123 510.075 253.061 510.075 253.061L509.437 241.837L497.453 244.005Z" fill="#FF897F"/>
<path d="M516.064 227.679C515.044 227.552 514.279 227.807 513.642 228.062C514.279 222.577 514.152 217.858 514.152 217.858L488.272 216.327C488.272 216.327 486.614 229.592 488.017 237.246C488.654 240.944 491.076 243.751 493.371 245.664C496.303 248.087 500.128 248.598 503.57 246.939C506.375 245.664 509.69 243.368 511.22 239.541C511.22 239.414 511.347 239.159 511.347 239.031C512.622 238.649 514.789 237.628 516.574 235.97C519.761 233.036 520.144 227.934 516.064 227.679Z" fill="#FF897F"/>
<path d="M497.206 222.577C502.178 224.745 508.807 223.597 508.807 223.597C508.807 223.597 507.787 226.913 508.552 229.592C509.317 232.271 510.974 232.526 510.974 232.526C510.974 232.526 512.887 228.189 515.437 228.572C517.986 228.954 517.094 233.929 515.182 236.097C513.269 238.138 511.229 238.138 511.229 238.138C511.229 238.138 508.552 241.327 509.445 244.515C509.445 244.515 509.954 251.403 510.082 253.061C510.082 253.061 511.102 254.209 513.652 252.934C516.201 251.531 519.516 254.209 524.106 251.403C528.695 248.469 528.058 244.26 525.636 238.393C523.213 232.526 522.321 225.255 522.321 225.255C522.321 225.255 522.193 216.709 519.771 212.373C517.349 208.036 513.142 206.378 508.17 205.357C503.198 204.337 499.5 206.25 499.5 206.25C499.5 206.25 489.046 207.526 485.604 213.648C479.485 224.745 487.516 229.082 487.516 229.082C487.516 229.082 490.959 224.873 491.851 217.475C491.724 217.219 493.763 221.046 497.206 222.577Z" fill="#282E4E"/>
<path d="M483.812 288.265C483.812 288.265 490.952 285.842 495.287 285.842C499.621 285.842 511.095 289.668 511.095 289.668" stroke="#F96786" stroke-miterlimit="10"/>
<path d="M500.639 255.994C500.639 255.994 499.11 263.265 499.365 268.367" stroke="#F96786" stroke-miterlimit="10" stroke-linecap="round" stroke-linejoin="round"/>
<path d="M494.523 349.362C494.523 349.362 504.468 351.913 507.527 357.143" stroke="#F96786" stroke-miterlimit="10" stroke-linecap="round" stroke-linejoin="round"/>
<path d="M522.953 449.235L549.088 446.174" stroke="#F96786" stroke-miterlimit="10" stroke-linecap="round" stroke-linejoin="round"/>
<path d="M479.227 445.025L506.382 447.832" stroke="#F96786" stroke-miterlimit="10" stroke-linecap="round" stroke-linejoin="round"/>
<path d="M542.203 304.21C542.203 304.21 547.813 305.23 549.98 306.378" stroke="#BA6561" stroke-miterlimit="10" stroke-linecap="round" stroke-linejoin="round"/>
<path d="M465.711 286.606C465.711 286.606 466.348 292.219 465.711 296.173" stroke="#BA6561" stroke-miterlimit="10" stroke-linecap="round" stroke-linejoin="round"/>
<path d="M497.836 247.832C497.836 247.832 502.935 248.852 508.545 243.495" stroke="#BA6561" stroke-miterlimit="10" stroke-linecap="round" stroke-linejoin="round"/>
<path d="M72.1566 424.362L75.3439 454.592L72.1566 470.281C72.1566 470.281 71.3917 471.429 78.5311 472.577C85.6705 473.725 89.4952 470.791 89.4952 470.791L86.9454 454.082L88.0928 427.041L72.1566 424.362Z" fill="#FF897F"/>
<path d="M113.969 425.51L120.343 452.934L122.256 465.944L149.028 466.582L133.602 452.934L128.503 423.087L113.969 425.51Z" fill="#FF897F"/>
<path d="M74.1947 460.843C74.1947 460.843 75.4696 465.307 80.0592 465.817C87.0711 466.583 87.9635 461.098 87.9635 461.098C87.9635 461.098 90.3858 470.919 90.5133 473.215C90.6408 475.511 85.5412 478.445 80.5692 478.445C74.9596 478.445 72.1549 475.511 70.88 473.598C69.6051 471.557 74.1947 460.843 74.1947 460.843Z" fill="#464F96"/>
<path d="M120.852 456.632C120.852 456.632 120.342 462.372 120.852 464.796C121.362 467.219 121.872 468.75 122.509 468.877C123.019 469.005 132.453 469.515 134.748 469.515C137.043 469.643 147.497 470.025 150.684 469.515C153.871 469.005 154.381 468.877 154.891 467.474C155.401 466.071 140.74 459.184 140.74 459.184C140.74 459.184 137.298 460.587 131.943 460.714C126.589 461.097 123.146 456.505 120.852 456.632Z" fill="#464F96"/>
<path d="M89.364 227.423V238.137L76.3601 237.244L74.3203 222.193L89.364 227.423Z" fill="#FF897F"/>
<path d="M159.359 239.923C157.702 239.413 155.535 239.541 154.005 239.796V239.158C156.299 238.775 160.762 238.01 158.467 237.372C155.79 236.607 151.582 237.755 151.582 237.755L147.63 236.735C148.778 235.076 149.67 231.76 148.778 232.143C147.885 232.525 144.57 237.245 143.551 238.393L126.212 257.143L101.224 234.694C98.5469 237.5 97.782 251.275 101.734 257.908C105.686 264.413 126.595 272.194 126.595 272.194C134.881 271.939 145.208 252.551 148.268 246.556L152.475 246.428C152.475 246.428 153.622 246.429 154.515 246.301C156.937 246.046 160.124 245.663 158.084 244.898C156.937 244.515 155.662 244.388 154.387 244.388V243.877C156.682 243.495 161.399 242.985 159.104 242.219C157.702 241.709 155.79 241.837 154.26 241.964V241.582C156.172 241.326 161.909 240.816 159.359 239.923Z" fill="#FF897F"/>
<path d="M93.4424 196.939C93.4424 196.939 98.032 213.011 98.4145 220.026C98.797 227.169 94.2074 231.25 88.3429 231.25C82.4784 231.25 77.2513 227.679 77.2513 227.679L69.8569 214.031C67.0522 208.929 68.7095 202.551 73.5541 199.363C75.594 198.087 77.7613 196.812 80.1836 195.919C88.0879 192.858 93.4424 196.939 93.4424 196.939Z" fill="#FF897F"/>
<path d="M72.1582 214.669C72.1582 214.669 68.0785 213.266 66.6762 215.817C65.2738 218.368 68.5885 222.45 71.3933 223.853C74.198 225.256 78.4052 223.853 78.4052 223.853L72.1582 214.669Z" fill="#FF897F"/>
<path d="M116.525 305.739C116.525 305.739 110.151 309.566 96.5095 310.331C90.7725 310.714 84.653 310.459 79.2985 310.204C71.9041 309.821 66.4221 309.183 66.4221 309.183L68.4619 283.035L58.0078 240.178C62.5974 236.479 75.8563 233.418 75.8563 233.418C75.8563 233.418 81.8483 238.01 87.7128 237.5C89.7526 237.245 89.3701 232.908 89.3701 232.908C89.3701 232.908 96.892 232.398 100.207 233.801C100.717 233.928 101.099 234.183 101.482 234.566C109.896 242.984 107.729 281.887 107.729 281.887L116.525 305.739Z" fill="url(#paint16_linear_986_4166)"/>
<path d="M91.5289 196.429C91.5289 196.429 90.8915 200.128 87.0668 204.082C83.1147 208.036 79.545 208.291 79.545 208.291C79.545 208.291 78.525 210.459 76.9952 211.48C75.4653 212.5 75.4653 212.5 75.4653 212.5C75.4653 212.5 76.7402 215.944 76.1027 218.495C76.1027 218.495 72.9155 213.903 69.9833 214.286C67.051 214.669 65.7761 217.985 67.8159 220.663C69.7283 223.342 73.6805 224.362 74.5729 224.362L75.5928 231.505C75.5928 231.505 73.553 232.143 70.4932 231.123H70.3657C68.9633 230.485 67.306 232.526 64.2463 232.653C61.1865 232.781 60.6766 230.868 58.1268 231.633C55.577 232.398 50.7324 233.291 49.075 228.189C47.4177 223.087 51.4973 221.556 50.0949 218.495C48.8201 215.434 50.4774 213.138 53.1547 211.735C55.832 210.332 53.1547 202.679 57.1069 199.745C61.059 196.684 62.0789 196.429 62.9714 194.516C63.8638 192.602 67.561 190.817 70.8757 190.944C75.0828 191.072 74.0629 186.99 79.9274 187.5C86.8118 188.138 88.2142 191.072 88.2142 191.072C88.2142 191.072 91.4015 190.944 94.8437 194.005C100.581 198.98 99.4333 205.612 96.756 210.204C96.8835 210.204 93.3138 198.215 91.5289 196.429Z" fill="#282E4E"/>
<path d="M58.5124 239.286L35.5643 263.776L16.5684 246.557C15.5485 245.409 11.7238 241.072 10.8314 240.689C9.8115 240.307 11.0864 243.623 12.3613 245.153L8.53661 246.557C8.53661 246.557 4.20197 245.791 1.65219 246.812C-0.515128 247.704 3.947 247.96 6.36929 248.215V248.852C4.83942 248.725 2.6721 248.725 1.01474 249.49C-1.40755 250.638 4.45695 250.638 6.36929 250.766V251.148C4.96691 251.148 2.92708 251.148 1.65219 251.786C-0.515128 252.807 4.20197 252.934 6.49678 253.062V253.572C5.22189 253.699 3.81951 253.827 2.79959 254.337C0.887255 255.23 4.07449 255.358 6.49678 255.358C7.26171 255.358 8.53661 255.358 8.53661 255.358L12.7437 255.102C16.3134 260.97 28.1699 279.337 36.4567 278.827C36.4567 278.827 60.8072 265.944 64.1219 259.057C67.5641 252.169 61.4446 241.965 58.5124 239.286Z" fill="#FF897F"/>
<path d="M135.007 425.255L128.632 426.275L112.951 428.826L96.3777 341.836L94.0829 338.903V428.826H68.5851C68.5851 428.826 61.8281 365.561 61.8281 346.428C61.8281 327.296 66.8002 304.464 66.8002 304.464C91.9156 312.245 115.374 302.551 115.374 302.551C115.629 303.189 115.884 303.826 116.139 304.464C125.19 331.25 135.007 425.255 135.007 425.255Z" fill="url(#paint17_linear_986_4166)"/>
<path d="M35.5703 263.776C35.5703 263.776 39.395 267.858 41.0523 270.537" stroke="#BA6561" stroke-miterlimit="10" stroke-linecap="round" stroke-linejoin="round"/>
<path d="M126.205 257.144C126.205 257.144 125.058 261.098 126.205 264.541" stroke="#BA6561" stroke-miterlimit="10" stroke-linecap="round" stroke-linejoin="round"/>
<path d="M89.3604 231.251C89.3604 231.251 80.3087 232.526 76.1016 225.511" stroke="#BA6561" stroke-miterlimit="10" stroke-linecap="round" stroke-linejoin="round"/>
<path d="M69.6016 282.525L74.3187 284.056" stroke="#F96786" stroke-miterlimit="10" stroke-linecap="round" stroke-linejoin="round"/>
<path d="M63.8672 321.174C63.8672 321.174 72.2815 319.388 73.5564 309.694" stroke="#7954B3" stroke-miterlimit="10"/>
<path d="M66.0312 307.908C66.0312 307.908 92.804 316.581 116.517 305.739" stroke="#7954B3" stroke-miterlimit="10"/>
<path d="M94.2109 338.902C94.2109 338.902 96.1233 333.035 101.095 330.356" stroke="#7954B3" stroke-miterlimit="10"/>
<path d="M111.422 307.781C111.422 307.781 114.354 316.582 119.709 318.496" stroke="#7954B3" stroke-miterlimit="10"/>
<path d="M67.8203 421.429C67.8203 421.429 77.127 422.832 94.2106 421.429" stroke="#7954B3" stroke-miterlimit="10"/>
<path d="M134.248 417.347C134.248 417.347 122.391 420.28 111.555 420.791" stroke="#7954B3" stroke-miterlimit="10"/>
<path d="M72.4062 234.311C72.4062 234.311 78.0158 239.669 86.1751 239.669C94.3344 239.669 91.6571 232.653 91.6571 232.653" stroke="#F96786" stroke-miterlimit="10" stroke-linecap="round" stroke-linejoin="round"/>
<path d="M79.1641 266.583C79.1641 266.583 91.148 264.159 101.602 263.776" stroke="#F96786" stroke-miterlimit="10" stroke-linecap="round" stroke-linejoin="round"/>
</g>
<defs>
<linearGradient id="paint0_linear_986_4166" x1="18.9413" y1="360.5" x2="42.0419" y2="393.94" gradientUnits="userSpaceOnUse">
<stop stop-color="#DC911B"/>
<stop offset="1" stop-color="#E7B142"/>
</linearGradient>
<linearGradient id="paint1_linear_986_4166" x1="53.1494" y1="398.527" x2="75.5613" y2="398.527" gradientUnits="userSpaceOnUse">
<stop stop-color="#DC911B"/>
<stop offset="1" stop-color="#E7B142"/>
</linearGradient>
<linearGradient id="paint2_linear_986_4166" x1="36.4935" y1="395.929" x2="29.8535" y2="430.971" gradientUnits="userSpaceOnUse">
<stop stop-color="#DC911B"/>
<stop offset="1" stop-color="#E7B142"/>
</linearGradient>
<linearGradient id="paint3_linear_986_4166" x1="58.4137" y1="379.033" x2="61.9552" y2="439.916" gradientUnits="userSpaceOnUse">
<stop stop-color="#FFE9EC"/>
<stop offset="1" stop-color="#A7A3D1"/>
</linearGradient>
<linearGradient id="paint4_linear_986_4166" x1="346.964" y1="465.072" x2="344.308" y2="426.843" gradientUnits="userSpaceOnUse">
<stop stop-color="#DC911B"/>
<stop offset="1" stop-color="#E7B142"/>
</linearGradient>
<linearGradient id="paint5_linear_986_4166" x1="532.164" y1="324.612" x2="538.03" y2="436.837" gradientUnits="userSpaceOnUse">
<stop stop-color="#FFE9EC"/>
<stop offset="1" stop-color="#A7A3D1"/>
</linearGradient>
<linearGradient id="paint6_linear_986_4166" x1="538.614" y1="388.432" x2="556.399" y2="402.76" gradientUnits="userSpaceOnUse">
<stop stop-color="#FFE9EC"/>
<stop offset="1" stop-color="#A7A3D1"/>
</linearGradient>
<linearGradient id="paint7_linear_986_4166" x1="462.752" y1="432.747" x2="565.376" y2="432.747" gradientUnits="userSpaceOnUse">
<stop stop-color="#DC911B"/>
<stop offset="1" stop-color="#E7B142"/>
</linearGradient>
<linearGradient id="paint8_linear_986_4166" x1="199.045" y1="226.826" x2="426.423" y2="109.854" gradientUnits="userSpaceOnUse">
<stop stop-color="#7954B3"/>
<stop offset="0.0487664" stop-color="#7153AE"/>
<stop offset="0.2128" stop-color="#5951A1"/>
<stop offset="0.366" stop-color="#4B4F99"/>
<stop offset="0.4969" stop-color="#464F96"/>
<stop offset="0.6394" stop-color="#4A4F98"/>
<stop offset="0.7788" stop-color="#56519F"/>
<stop offset="0.9165" stop-color="#6952AA"/>
<stop offset="1" stop-color="#7954B3"/>
</linearGradient>
<linearGradient id="paint9_linear_986_4166" x1="137.666" y1="175.452" x2="119.252" y2="104.661" gradientUnits="userSpaceOnUse">
<stop stop-color="#DC911B"/>
<stop offset="1" stop-color="#E7B142"/>
</linearGradient>
<linearGradient id="paint10_linear_986_4166" x1="435.158" y1="150.804" x2="490.329" y2="150.804" gradientUnits="userSpaceOnUse">
<stop stop-color="#DC911B"/>
<stop offset="1" stop-color="#E7B142"/>
</linearGradient>
<linearGradient id="paint11_linear_986_4166" x1="402.351" y1="371.357" x2="381.106" y2="329.596" gradientUnits="userSpaceOnUse">
<stop offset="0.15" stop-color="#464F96"/>
<stop offset="0.3962" stop-color="#4A4F98"/>
<stop offset="0.6269" stop-color="#55509F"/>
<stop offset="0.8507" stop-color="#6852A9"/>
<stop offset="1" stop-color="#7954B3"/>
</linearGradient>
<linearGradient id="paint12_linear_986_4166" x1="249.506" y1="354.681" x2="174.472" y2="414.114" gradientUnits="userSpaceOnUse">
<stop stop-color="#CD536C"/>
<stop offset="1" stop-color="#8B1F5A"/>
</linearGradient>
<linearGradient id="paint13_linear_986_4166" x1="217.248" y1="360.713" x2="191.75" y2="255.058" gradientUnits="userSpaceOnUse">
<stop offset="0.15" stop-color="#464F96"/>
<stop offset="0.3962" stop-color="#4A4F98"/>
<stop offset="0.6269" stop-color="#55509F"/>
<stop offset="0.8507" stop-color="#6852A9"/>
<stop offset="1" stop-color="#7954B3"/>
</linearGradient>
<linearGradient id="paint14_linear_986_4166" x1="176.422" y1="290.276" x2="194.277" y2="254.89" gradientUnits="userSpaceOnUse">
<stop stop-color="#464F96"/>
<stop offset="0.2789" stop-color="#4A4F98"/>
<stop offset="0.5606" stop-color="#56519F"/>
<stop offset="0.8426" stop-color="#6A53AB"/>
<stop offset="1" stop-color="#7954B3"/>
</linearGradient>
<linearGradient id="paint15_linear_986_4166" x1="478.504" y1="352.398" x2="549.936" y2="352.398" gradientUnits="userSpaceOnUse">
<stop stop-color="#CD536C"/>
<stop offset="1" stop-color="#8B1F5A"/>
</linearGradient>
<linearGradient id="paint16_linear_986_4166" x1="75.527" y1="236.782" x2="98.1909" y2="322.438" gradientUnits="userSpaceOnUse">
<stop stop-color="#CD536C"/>
<stop offset="1" stop-color="#8B1F5A"/>
</linearGradient>
<linearGradient id="paint17_linear_986_4166" x1="75.3518" y1="302.146" x2="109.689" y2="431.92" gradientUnits="userSpaceOnUse">
<stop stop-color="#464F96"/>
<stop offset="0.2789" stop-color="#4A4F98"/>
<stop offset="0.5606" stop-color="#56519F"/>
<stop offset="0.8426" stop-color="#6A53AB"/>
<stop offset="1" stop-color="#7954B3"/>
</linearGradient>
<clipPath id="clip0_986_4166">
<rect width="589" height="500" fill="white"/>
</clipPath>
</defs>
</svg>
