<svg width="939" height="686" viewBox="0 0 939 686" fill="none" xmlns="http://www.w3.org/2000/svg">
<path d="M899.26 685.982C879.898 685.982 773.136 686.022 639.275 685.982C604.729 685.982 568.331 685.982 531.206 685.943C524.667 685.943 518.092 685.943 511.517 685.943C484.927 685.943 458.046 685.904 431.237 685.904C424.008 685.904 416.816 685.904 409.623 685.904C366.068 685.865 322.986 685.825 281.974 685.786C122.249 685.59 75.2432 684.175 75.2432 684.096C74.9163 683.271 -71.5861 602.515 45.129 433.538C103.832 348.459 36.9557 255.954 87.0128 174.844C157.812 60.0573 275.036 127.373 355.461 90.9842C369.665 84.5788 383.941 74.2436 398.217 58.3675C406.245 49.4471 415.072 41.6662 424.48 34.9071C425.933 33.8854 427.386 32.8637 428.876 31.8813C434.506 28.1087 440.355 24.7292 446.385 21.664C450.417 19.6205 454.558 17.695 458.772 15.9659C465.456 13.2151 472.285 10.818 479.296 8.77452C489.213 5.90583 499.457 3.74449 509.883 2.32979C514.423 1.70103 519 1.19017 523.65 0.836496C613.52 -6.43348 714.615 34.4356 766.816 94.1673C777.314 106.192 825.082 168.439 787.449 253.95C763.655 307.944 863.297 359.541 898.679 421.198C988.658 577.994 900.059 683.939 899.26 685.982Z" fill="#D9E3F7"/>
<path d="M130.09 246.994C130.09 246.994 147.066 212.884 187.66 216.656C187.66 216.656 246.567 159.793 309.403 209.072C309.403 209.072 376.208 196.851 425.644 219.643C458.614 234.851 469.499 250.766 469.499 250.766L130.09 246.994Z" fill="#F8FCFF"/>
<g opacity="0.5">
<path opacity="0.5" d="M337.855 519.559C337.855 519.559 297.379 481.127 254.388 473.817C248.69 472.835 244.917 479.633 248.69 483.995C248.768 484.074 248.807 484.152 248.886 484.231C255.488 491.619 306.574 503.408 337.855 519.559Z" fill="#AEC3FF"/>
<path opacity="0.5" d="M350.626 529.58C350.626 529.58 284.607 494.37 227.823 501.679C224.365 502.111 221.732 505.177 222.046 508.674C222.242 510.953 223.657 513.547 227.705 516.14C238.472 523.057 306.142 520.149 350.626 529.58Z" fill="#AEC3FF"/>
</g>
<g opacity="0.5">
<path opacity="0.5" d="M592.421 463.482C592.421 463.482 624.684 432.87 658.912 427.054C663.47 426.268 666.457 431.651 663.431 435.149C663.392 435.188 663.313 435.267 663.274 435.306C658.008 441.24 617.296 450.593 592.421 463.482Z" fill="#AEC3FF"/>
<path opacity="0.5" d="M582.244 471.459C582.244 471.459 634.824 443.401 680.055 449.217C682.806 449.571 684.928 452.007 684.652 454.797C684.495 456.605 683.356 458.688 680.133 460.771C671.567 466.272 617.651 463.954 582.244 471.459Z" fill="#AEC3FF"/>
</g>
<path opacity="0.3" d="M321.861 557.52C321.861 557.52 329.956 591.905 323.433 593.005C316.909 594.106 317.184 554.062 317.184 554.062C317.184 554.062 284.253 539.993 271.678 541.801C271.678 541.801 293.174 574.771 286.611 574.26C280.048 573.75 256.077 540.465 256.077 540.465C256.077 540.465 222.753 535.828 218.352 555.634C213.911 575.439 222.91 584.871 227.862 585.853C232.813 586.836 264.212 585.028 263.583 589.154C262.954 593.28 242.009 600.747 230.023 597.603C230.023 597.603 244.524 629.237 261.579 626.84C278.634 624.443 283.467 613.597 294.038 612.3C304.609 611.003 312.469 613.518 307.321 616.623C302.133 619.727 284.096 618.588 275.883 626.251C267.631 633.914 260.871 638.904 276.944 641.262C320.957 647.746 331.803 615.523 331.803 615.523C331.803 615.523 361.629 597.014 346.303 574.418C346.303 574.418 334.239 560.664 321.861 557.52Z" fill="#AEC3FF"/>
<path opacity="0.5" d="M644.805 505.412C640.875 485.41 607.276 489.222 607.276 489.222C607.276 489.222 582.362 522.035 575.76 522.389C569.158 522.742 591.596 490.204 591.596 490.204C578.982 488.082 545.579 501.365 545.579 501.365C545.579 501.365 544.833 541.605 538.349 540.347C531.865 539.09 540.825 504.744 540.825 504.744C528.289 507.574 515.832 521.092 515.832 521.092C499.877 543.413 529.35 562.747 529.35 562.747C529.35 562.747 528.8 576.697 519.093 592.062C519.093 592.062 516.932 594.892 514.613 599.725L517.954 599.961C518.307 599.097 518.661 598.232 519.054 597.446V597.407C519.329 596.896 519.683 596.189 520.154 595.324C521.333 593.399 522.119 591.945 522.63 590.923C526.127 584.871 531.118 576.972 534.183 575.479C534.183 575.479 533.869 574.929 533.594 573.907C533.79 574.418 533.987 574.929 534.183 575.479C539.056 588.172 567.547 592.22 583.737 590.058C599.927 587.897 593.286 582.906 585.191 575.008C577.096 567.109 558.98 567.777 553.871 564.515C548.763 561.293 556.74 558.974 567.311 560.507C577.882 562.079 582.48 573.082 599.534 575.911C616.589 578.741 631.955 547.342 631.955 547.342C619.812 550.211 599.024 542.155 598.473 538.029C597.923 533.863 629.4 536.496 634.43 535.592C639.46 534.649 648.735 525.454 644.805 505.412Z" fill="#AEC3FF"/>
<path opacity="0.5" d="M425.723 634.935C427.57 639.101 451.698 641.066 463.409 634.385C463.409 634.385 457.082 671.796 438.416 674.075C419.789 676.355 411.654 666.295 400.14 667.945C388.666 669.556 381.042 674.429 387.369 676.237C393.696 678.044 412.362 671.757 423.208 677.534C428.199 680.166 432.678 682.249 434.486 684.45C429.731 684.45 424.937 684.45 420.182 684.45C400.848 684.45 381.278 684.45 361.786 684.411C361.551 682.839 361.315 681.974 361.315 681.974C361.315 681.974 324.69 670.892 334.436 642.795C334.436 642.795 343.238 624.915 355.42 618.116C355.42 618.116 356.599 656.588 363.751 655.92C370.903 655.252 359.35 613.165 359.35 613.165C359.35 613.165 390.041 589.076 403.795 587.425C403.795 587.425 390.434 628.176 397.232 625.779C403.992 623.382 419.868 581.609 419.868 581.609C419.868 581.609 453.624 567.344 463.88 586.954C474.137 606.563 467.299 619.02 462.387 621.457C457.475 623.854 423.915 630.809 425.723 634.935Z" fill="#AEC3FF"/>
<path d="M387.566 129.653C387.566 129.653 400.692 104.974 432.051 107.725C432.051 107.725 477.557 66.5806 526.128 102.223C526.128 102.223 577.725 93.3813 615.962 109.886C641.426 120.889 649.875 132.403 649.875 132.403L387.566 129.653Z" fill="#F8FCFF"/>
<path d="M590.731 89.2553C590.731 89.2553 597.412 75.8157 613.406 77.309C613.406 77.309 636.631 54.9096 661.348 74.3224C661.348 74.3224 687.638 69.5281 707.13 78.4879C720.137 84.4611 724.42 90.7486 724.42 90.7486L590.731 89.2553Z" fill="#F8FCFF"/>
<path d="M144.822 158.811C144.822 158.811 151.503 145.372 167.497 146.865C167.497 146.865 190.721 124.466 215.439 143.878C215.439 143.878 241.729 139.084 261.22 148.044C274.228 154.017 278.511 160.305 278.511 160.305L144.822 158.811Z" fill="#F8FCFF"/>
<path d="M591.164 647.982C593.797 649.043 603.268 648.179 603.582 647.432C603.897 646.685 597.688 639.455 595.055 638.394C592.422 637.333 589.396 638.59 588.335 641.262C587.235 643.895 588.532 646.882 591.164 647.982Z" fill="#A8D29F"/>
<path d="M615.017 652.462C613.524 654.898 612.856 664.369 613.563 664.801C614.271 665.234 622.366 660.282 623.859 657.846C625.352 655.409 624.566 652.226 622.13 650.733C619.694 649.24 616.511 650.026 615.017 652.462Z" fill="#A8D29F"/>
<path d="M602.286 671.01C604.997 671.875 614.35 670.303 614.625 669.517C614.861 668.731 608.141 662.011 605.43 661.147C602.718 660.282 599.81 661.776 598.945 664.487C598.081 667.199 599.574 670.146 602.286 671.01Z" fill="#A8D29F"/>
<path d="M616.039 680.167C616.039 679.97 614.978 658.514 603.268 647.471L603.503 647.196C615.332 658.357 616.393 679.931 616.393 680.167H616.039Z" fill="#A8D29F"/>
<path d="M655.219 648.414C653.568 649.515 647.045 650.222 646.73 649.75C646.416 649.279 649.638 643.542 651.25 642.441C652.9 641.341 655.101 641.812 656.201 643.463C657.301 645.113 656.869 647.314 655.219 648.414Z" fill="#A8D29F"/>
<path d="M639.657 654.781C640.993 656.235 642.761 662.561 642.368 662.954C641.936 663.347 635.766 661.107 634.43 659.653C633.094 658.199 633.173 655.92 634.627 654.584C636.081 653.248 638.281 653.327 639.657 654.781Z" fill="#A8D29F"/>
<path d="M650.857 665.626C649.128 666.609 642.565 666.805 642.29 666.334C642.015 665.862 645.631 660.361 647.36 659.378C649.089 658.396 651.25 659.025 652.232 660.754C653.215 662.443 652.586 664.644 650.857 665.626Z" fill="#A8D29F"/>
<path d="M642.761 673.722C642.722 673.565 640.482 658.867 646.926 649.751L646.73 649.593C640.246 658.828 642.525 673.604 642.525 673.761L642.761 673.722Z" fill="#A8D29F"/>
<path d="M631.17 678.909L630.423 678.791C627.476 640.752 615.883 613.44 615.687 613.086L616.355 612.811C616.551 613.165 628.222 640.634 631.17 678.909Z" fill="#A8D29F"/>
<path d="M607.827 609.274C609.242 610.886 615.962 613.518 616.433 613.086C616.905 612.693 615.137 605.698 613.722 604.087C612.307 602.476 609.831 602.319 608.181 603.734C606.53 605.148 606.373 607.624 607.827 609.274Z" fill="#CCDBFD"/>
<path d="M618.083 603.616C616.786 605.345 615.607 612.457 616.118 612.811C616.629 613.165 623.074 610.021 624.37 608.292C625.667 606.563 625.314 604.087 623.584 602.79C621.855 601.494 619.38 601.886 618.083 603.616Z" fill="#CCDBFD"/>
<path d="M625.825 611.161C623.743 610.611 616.708 612.104 616.551 612.693C616.394 613.283 621.699 618.156 623.782 618.745C625.865 619.295 628.026 618.077 628.576 615.994C629.126 613.872 627.908 611.711 625.825 611.161Z" fill="#CCDBFD"/>
<path d="M621.07 620.553C620.873 618.391 616.944 612.34 616.354 612.418C615.725 612.497 613.053 619.177 613.289 621.299C613.486 623.461 615.411 625.033 617.572 624.836C619.694 624.64 621.266 622.714 621.07 620.553Z" fill="#CCDBFD"/>
<path d="M610.381 620.12C612.307 619.099 616.433 613.204 616.158 612.654C615.883 612.104 608.691 612.143 606.766 613.165C604.84 614.187 604.094 616.544 605.115 618.47C606.137 620.396 608.456 621.103 610.381 620.12Z" fill="#CCDBFD"/>
<path d="M617.453 612.854C617.566 612.147 617.084 611.482 616.376 611.369C615.669 611.257 615.004 611.739 614.891 612.446C614.779 613.154 615.261 613.818 615.968 613.931C616.676 614.044 617.34 613.562 617.453 612.854Z" fill="#163560"/>
<path d="M630.935 640.044C628.812 642.677 626.494 653.641 627.241 654.27C627.987 654.898 638.283 650.379 640.405 647.786C642.527 645.153 642.134 641.302 639.501 639.18C636.947 637.018 633.096 637.411 630.935 640.044Z" fill="#A8D29F"/>
<path d="M588.808 682.799H588.297C582.992 657.806 572.892 640.712 572.774 640.476L573.207 640.24C573.325 640.476 583.503 657.688 588.808 682.799Z" fill="#A8D29F"/>
<path d="M567.194 638.629C568.294 639.572 572.97 640.712 573.245 640.398C573.52 640.083 571.752 635.603 570.652 634.66C569.551 633.717 567.901 633.835 566.958 634.935C565.975 636.036 566.093 637.686 567.194 638.629Z" fill="#CCDBFD"/>
<path d="M573.521 633.992C572.814 635.25 572.656 640.083 573.01 640.28C573.364 640.476 577.372 637.804 578.079 636.547C578.787 635.289 578.315 633.678 577.058 632.97C575.8 632.263 574.228 632.735 573.521 633.992Z" fill="#CCDBFD"/>
<path d="M579.297 638.315C577.843 638.119 573.324 639.73 573.284 640.162C573.245 640.555 577.175 643.345 578.629 643.541C580.083 643.738 581.38 642.716 581.576 641.302C581.733 639.848 580.712 638.511 579.297 638.315Z" fill="#CCDBFD"/>
<path d="M576.979 644.996C576.664 643.581 573.521 639.926 573.128 640.005C572.735 640.083 571.556 644.76 571.87 646.174C572.184 647.589 573.599 648.454 575.014 648.139C576.429 647.786 577.293 646.41 576.979 644.996Z" fill="#CCDBFD"/>
<path d="M569.826 645.624C571.005 644.799 573.245 640.516 573.009 640.162C572.773 639.808 567.979 640.476 566.8 641.341C565.621 642.166 565.346 643.817 566.171 644.995C566.997 646.174 568.647 646.449 569.826 645.624Z" fill="#CCDBFD"/>
<path d="M573.905 640.144C573.917 639.667 573.541 639.27 573.063 639.257C572.586 639.245 572.189 639.621 572.176 640.099C572.164 640.576 572.54 640.973 573.018 640.986C573.495 640.998 573.892 640.622 573.905 640.144Z" fill="#163560"/>
<path d="M585.231 657.02C584.052 658.946 583.502 666.452 584.052 666.766C584.602 667.12 591.047 663.229 592.226 661.304C593.405 659.378 592.816 656.863 590.89 655.684C588.925 654.505 586.41 655.095 585.231 657.02Z" fill="#A8D29F"/>
<path d="M669.483 679.498L670.151 679.38C672.784 645.506 683.119 621.181 683.277 620.867L682.687 620.592C682.53 620.946 672.116 645.428 669.483 679.498Z" fill="#A8D29F"/>
<path d="M690.272 617.487C689.015 618.941 683.042 621.26 682.61 620.906C682.217 620.553 683.749 614.344 685.046 612.89C686.343 611.436 688.543 611.318 689.958 612.575C691.412 613.833 691.569 616.033 690.272 617.487Z" fill="#CCDBFD"/>
<path d="M681.116 612.418C682.255 613.951 683.316 620.278 682.884 620.631C682.452 620.946 676.675 618.156 675.535 616.623C674.396 615.09 674.71 612.89 676.243 611.75C677.775 610.611 679.976 610.886 681.116 612.418Z" fill="#CCDBFD"/>
<path d="M674.278 619.177C676.125 618.667 682.413 620.003 682.57 620.553C682.727 621.103 678.012 625.426 676.125 625.937C674.278 626.447 672.353 625.347 671.842 623.5C671.292 621.575 672.392 619.649 674.278 619.177Z" fill="#CCDBFD"/>
<path d="M678.484 627.548C678.68 625.622 682.139 620.238 682.689 620.278C683.239 620.317 685.597 626.29 685.439 628.216C685.243 630.141 683.553 631.556 681.628 631.359C679.702 631.163 678.327 629.473 678.484 627.548Z" fill="#CCDBFD"/>
<path d="M687.993 627.115C686.304 626.211 682.61 620.985 682.885 620.474C683.16 620.002 689.565 620.042 691.255 620.946C692.945 621.849 693.613 623.971 692.709 625.661C691.805 627.351 689.722 628.019 687.993 627.115Z" fill="#CCDBFD"/>
<path d="M683.041 621.61C683.662 621.511 684.086 620.927 683.987 620.305C683.888 619.684 683.304 619.26 682.682 619.359C682.06 619.458 681.637 620.042 681.736 620.664C681.835 621.286 682.419 621.709 683.041 621.61Z" fill="#163560"/>
<path d="M667.952 653.955C669.838 656.274 671.881 666.059 671.213 666.609C670.545 667.159 661.389 663.151 659.503 660.832C657.616 658.514 657.97 655.056 660.289 653.169C662.607 651.244 666.065 651.597 667.952 653.955Z" fill="#A8D29F"/>
<path d="M562.006 685.432C562.006 685.432 565.778 675.569 579.414 674.94C593.051 674.311 602.443 682.367 613.721 678.673C624.999 674.94 643.665 666.53 661.31 672.15C678.954 677.73 681.941 685.471 681.941 685.471H562.006V685.432Z" fill="#A8D29F"/>
<path d="M129.98 685.354H153.559C154.816 684.293 152.694 681.856 150.454 681.699C149.472 681.62 148.253 681.817 146.839 682.131C146.524 677.809 144.677 658.474 137.682 659.221C129.823 660.085 137.682 667.748 139.883 672.268C141.534 675.608 143.263 680.441 144.049 682.721C143.42 682.878 142.752 682.996 142.084 683.114C141.062 679.931 137.172 669.163 132.259 669.792C126.483 670.539 128.801 674.822 132.888 677.376C135.875 679.263 139.569 681.935 141.337 683.231C139.844 683.467 138.311 683.624 136.739 683.585C132.731 683.546 130.727 684.725 129.98 685.354Z" fill="#A8D29F"/>
<path d="M756.292 684.528H732.713C731.456 683.467 733.578 681.031 735.818 680.874C736.8 680.795 738.018 680.992 739.433 681.306C739.748 676.983 741.594 657.649 748.589 658.396C756.449 659.26 748.589 666.923 746.389 671.443C744.738 674.783 743.009 679.616 742.223 681.896C742.852 682.053 743.52 682.171 744.188 682.289C745.21 679.105 749.1 668.338 754.012 668.967C759.789 669.713 757.471 673.997 753.384 676.551C750.397 678.437 746.703 681.11 744.935 682.406C746.428 682.642 747.961 682.799 749.533 682.76C753.541 682.682 755.506 683.9 756.292 684.528Z" fill="#A8D29F"/>
<path fill-rule="evenodd" clip-rule="evenodd" d="M465.691 203.924C465.691 203.924 556.31 101.437 620.168 189.069C639.796 216.017 632.129 249.658 612.092 283.333C612.092 283.333 560.582 298.916 526.704 298.658C505.079 298.494 488.848 291.043 472.844 283.696C455.516 275.741 438.454 267.908 415.1 269.579C379.76 272.106 358.776 279.207 329.163 298.658C300.93 255.935 286.327 211.742 312.354 180.07C381.202 96.2889 465.691 203.924 465.691 203.924Z" fill="url(#paint0_linear_308_896)"/>
<path d="M329.163 298.658C375.616 368.953 458.971 435.266 458.971 435.266C458.971 435.266 566.939 359.215 612.092 283.333C612.092 283.333 560.582 298.916 526.704 298.658C505.079 298.494 488.848 291.043 472.844 283.696C455.516 275.741 438.454 267.908 415.1 269.579C379.76 272.106 358.776 279.207 329.163 298.658Z" fill="url(#paint1_linear_308_896)"/>
<path d="M591.095 220.492C584.335 222.653 576.948 220.02 573.175 214.047C569.088 207.642 562.526 200.293 552.937 198.093C546.492 196.639 542.445 190.233 543.938 183.788C545.392 177.344 551.797 173.296 558.242 174.789C578.991 179.505 590.898 195.971 596.714 207.013C599.426 212.2 596.753 218.684 591.095 220.492Z" fill="white" fill-opacity="0.5"/>
<path d="M438.149 401.18C426.203 389.666 393.861 353.827 393.861 353.827C388.635 348.758 381.05 336.694 386.12 331.467C391.189 326.241 405.808 339.523 411.034 344.592C411.034 344.592 434.455 373.161 447.62 382.671C462.042 393.124 467.936 401.259 462.867 406.485C460.313 409.158 448.642 411.319 438.149 401.18Z" fill="white" fill-opacity="0.5"/>
<path d="M251.421 383.08C253.386 391.803 257.276 408.623 271.934 428.939C282.544 443.597 302.664 465.25 322.391 493.544C336.617 513.939 344.869 526.003 349.389 532.684C352.611 537.439 354.851 542.744 355.951 548.285L321.841 650.772L402.951 657.885C402.951 657.885 433.524 551.114 433.524 506.355V506.315C433.524 501.128 433.563 495.587 433.72 489.693C434.31 462.303 442.248 440.689 363.064 439.942C362.75 439.942 362.435 439.707 362.082 439.589C358.977 438.41 354.261 436.249 347.345 430.629C346.166 429.686 344.948 428.664 343.651 427.525C335.91 420.687 328.6 415.303 321.684 411.059C285.649 388.699 249.613 375.141 251.421 383.08Z" fill="#FFB27D"/>
<path d="M245.763 331.089C246.941 318.2 256.53 277.724 256.53 277.724C256.53 277.724 265.922 279.885 269.341 285.898C279.401 303.463 276.1 338.163 275.589 338.359C275.589 338.359 291.937 369.836 294.727 390.074C294.727 390.074 338.15 413.653 347.306 430.55C347.857 431.572 348.289 432.594 348.642 433.576C349.9 437.388 350.411 442.575 350.332 448.352C350.018 468.826 341.923 496.57 329.819 494.408C326.833 493.858 256.962 415.735 254.054 401.981C253.425 398.759 245.134 337.966 245.763 331.089Z" fill="#FFB27D"/>
<path d="M358.662 418.761C358.662 418.761 360.745 438.646 340.153 421.198L338.503 444.029L367.19 459.277L376.936 442.497L358.662 418.761Z" fill="#FFB27D"/>
<path d="M258.573 297.726C258.966 296.979 259.241 296.154 259.359 295.25C259.359 295.25 260.46 287.391 261.246 281.654C261.756 277.842 259.202 274.777 257.787 274.226C256.884 273.873 251.264 288.57 251.028 302.442C254.329 302.481 257.159 300.438 258.573 297.726Z" fill="#FFC69F"/>
<path d="M294.766 390.074C304.158 393.139 361.256 432.004 364.361 433.183C371.513 442.222 372.692 455.543 369.234 457.037C364.518 459.041 354.026 454.993 347.031 448.588C337.639 439.982 334.927 428.625 332.137 422.337C330.88 419.508 322.549 415.382 319.405 411.216C311.074 400.292 295.827 390.899 294.766 390.074Z" fill="#F6A56E"/>
<path d="M404.051 427.171C404.051 427.171 329.701 367.282 321.488 352.074C321.488 352.074 308.402 356.789 313.628 376.674C318.855 396.519 355.401 432.201 357.602 446.269C365.815 499.124 395.838 515.393 395.838 515.393C395.838 515.393 477.301 486.313 404.051 427.171Z" fill="#FFB27D"/>
<path d="M326.242 374.237C325.574 373.687 324.945 373.059 324.474 372.312C324.474 372.312 320.073 365.553 316.85 360.601C314.728 357.34 315.396 353.096 318.461 350.581C319.208 349.952 319.68 349.677 319.68 349.677C323.295 352.781 332.608 358.597 338.817 371.172C335.398 373.609 328.718 376.163 326.242 374.237Z" fill="#FFC69F"/>
<path d="M431.245 573.867C431.245 573.867 430.891 583.731 430.302 599.41C430.302 599.803 430.262 600.236 430.262 600.668C429.437 622.085 428.18 653.68 426.765 685.55C379.648 685.51 333.041 685.471 288.675 685.432C301.761 659.299 324.003 616.819 337.521 591.197C343.927 579.015 348.367 570.645 348.878 569.662C348.917 569.584 348.917 569.544 348.917 569.544C349.664 568.444 350.489 567.462 351.432 566.597C352.69 565.379 354.065 564.318 355.598 563.453C368.055 556.144 388.804 559.602 405.387 564.436C413.05 566.676 419.809 569.191 424.486 571.038C427.669 572.335 429.909 573.317 430.773 573.71C431.088 573.789 431.245 573.867 431.245 573.867Z" fill="#02CECB"/>
<path d="M430.262 600.668C430.262 600.668 397.449 609.549 378.468 609.824L371.474 596.777L365.343 607.781C365.343 607.781 341.372 600.511 336.499 593.398L353.2 563.335L430.969 564.907L430.262 600.668Z" fill="#069E9C"/>
<path d="M428.887 548.285C428.887 548.285 438.986 571.784 441.148 599.607C441.148 599.607 401.615 604.008 382.791 601.69L374.539 569.034L362.553 597.406C362.553 597.406 340.783 594.577 333.198 588.722C333.198 588.722 347.306 564.593 356.187 548.599C356.148 548.56 392.812 559.602 428.887 548.285Z" fill="#F3F8FF"/>
<path d="M404.955 593.28C405.937 591.472 405.191 589.272 403.265 588.328C401.34 587.385 399.021 588.093 398.039 589.9C397.056 591.708 397.803 593.909 399.728 594.852C401.654 595.795 404.012 595.088 404.955 593.28Z" fill="#02CECB"/>
<path d="M666.124 383.08C664.159 391.803 660.269 408.623 645.611 428.939C635.001 443.597 614.881 465.25 595.154 493.544C580.928 513.939 572.676 526.003 568.156 532.684C564.934 537.439 562.694 542.744 561.594 548.285L595.704 650.772L514.594 657.885C514.594 657.885 484.021 551.114 484.021 506.355V506.315C484.021 501.128 483.982 495.587 483.825 489.693C483.235 462.303 475.297 440.689 554.481 439.942C554.795 439.942 555.11 439.707 555.463 439.589C558.568 438.41 563.284 436.249 570.2 430.629C571.379 429.686 572.597 428.664 573.894 427.525C581.635 420.687 588.945 415.303 595.861 411.059C631.896 388.699 667.932 375.141 666.124 383.08Z" fill="#FFB27D"/>
<path d="M671.784 331.089C670.605 318.2 661.016 277.724 661.016 277.724C661.016 277.724 651.624 279.885 648.205 285.898C638.145 303.463 641.446 338.163 641.957 338.359C641.957 338.359 625.609 369.836 622.819 390.074C622.819 390.074 579.396 413.653 570.24 430.55C569.69 431.572 569.257 432.594 568.904 433.576C567.646 437.388 567.135 442.575 567.214 448.352C567.528 468.826 575.623 496.57 587.727 494.408C590.714 493.858 660.584 415.735 663.492 401.981C664.121 398.759 672.412 337.966 671.784 331.089Z" fill="#FFB27D"/>
<path d="M558.883 418.761C558.883 418.761 556.8 438.646 577.392 421.198L579.042 444.029L550.355 459.277L540.609 442.497L558.883 418.761Z" fill="#FFB27D"/>
<path d="M658.972 297.726C658.579 296.979 658.304 296.154 658.186 295.25C658.186 295.25 657.086 287.391 656.3 281.654C655.789 277.842 658.343 274.777 659.758 274.226C660.662 273.873 666.281 288.57 666.517 302.442C663.216 302.481 660.387 300.438 658.972 297.726Z" fill="#FFC69F"/>
<path d="M622.78 390.074C613.388 393.139 556.289 432.004 553.184 433.183C546.032 442.222 544.853 455.543 548.311 457.037C553.027 459.041 563.519 454.993 570.514 448.588C579.906 439.982 582.618 428.625 585.408 422.337C586.665 419.508 594.996 415.382 598.14 411.216C606.471 400.292 621.719 390.899 622.78 390.074Z" fill="#F6A56E"/>
<path d="M513.494 427.171C513.494 427.171 587.844 367.282 596.057 352.074C596.057 352.074 609.143 356.789 603.917 376.674C598.69 396.519 562.144 432.201 559.943 446.269C551.73 499.124 521.707 515.393 521.707 515.393C521.707 515.393 440.244 486.313 513.494 427.171Z" fill="#FFB27D"/>
<path d="M591.302 374.237C591.97 373.687 592.599 373.059 593.07 372.312C593.07 372.312 597.472 365.553 600.694 360.601C602.816 357.34 602.148 353.096 599.083 350.581C598.336 349.952 597.865 349.677 597.865 349.677C594.249 352.781 584.386 359.147 578.177 371.683C581.163 372.98 588.826 376.163 591.302 374.237Z" fill="#FFC69F"/>
<path d="M628.989 685.628C585.015 685.628 538.33 685.628 490.781 685.589C489.366 653.719 488.108 622.085 487.283 600.668C487.283 600.236 487.244 599.843 487.244 599.41C486.654 583.77 486.301 573.867 486.301 573.867C486.301 573.867 486.458 573.789 486.733 573.671C487.637 573.278 489.838 572.295 493.021 570.999C497.697 569.112 504.495 566.597 512.119 564.397C528.742 559.563 549.451 556.066 561.908 563.414C563.441 564.279 564.817 565.34 566.074 566.558C566.978 567.462 567.803 568.444 568.589 569.505C568.589 569.505 568.589 569.545 568.628 569.623C569.178 570.645 573.58 579.015 579.985 591.158C593.582 616.858 615.942 659.496 628.989 685.628Z" fill="#02CECB"/>
<path d="M487.323 600.668C487.323 600.668 520.136 609.549 539.116 609.824L546.111 596.777L552.242 607.781C552.242 607.781 576.213 600.511 581.086 593.398L564.384 563.335L486.615 564.907L487.323 600.668Z" fill="#069E9C"/>
<path d="M488.658 548.285C488.658 548.285 478.559 571.784 476.397 599.607C476.397 599.607 515.93 604.008 534.754 601.69L543.006 569.034L554.992 597.406C554.992 597.406 576.762 594.577 584.347 588.722C584.347 588.722 570.239 564.593 561.358 548.599C561.397 548.56 524.733 559.602 488.658 548.285Z" fill="#F3F8FF"/>
<path d="M512.59 593.28C511.608 591.472 512.355 589.272 514.28 588.328C516.206 587.385 518.524 588.093 519.507 589.9C520.489 591.708 519.743 593.909 517.817 594.852C515.891 595.795 513.573 595.088 512.59 593.28Z" fill="#02CECB"/>
<path d="M198.266 682.878L197.756 682.799C195.712 656.313 187.617 637.332 187.499 637.057L187.971 636.861C188.088 637.097 196.223 656.234 198.266 682.878Z" fill="#A8D29F"/>
<path d="M181.997 634.385C182.979 635.525 187.656 637.332 187.97 637.057C188.284 636.782 187.066 631.909 186.084 630.77C185.101 629.63 183.372 629.552 182.233 630.534C181.132 631.556 181.014 633.246 181.997 634.385Z" fill="#CCDBFD"/>
<path d="M189.189 630.456C188.285 631.674 187.46 636.625 187.813 636.861C188.167 637.136 192.647 634.935 193.551 633.717C194.454 632.499 194.219 630.809 193 629.905C191.782 629.002 190.053 629.237 189.189 630.456Z" fill="#CCDBFD"/>
<path d="M194.534 635.721C193.08 635.328 188.168 636.389 188.05 636.782C187.932 637.175 191.626 640.594 193.08 640.987C194.534 641.38 196.027 640.516 196.42 639.062C196.852 637.608 195.988 636.114 194.534 635.721Z" fill="#CCDBFD"/>
<path d="M191.232 642.245C191.075 640.751 188.364 636.547 187.931 636.586C187.499 636.625 185.652 641.262 185.77 642.795C185.927 644.288 187.263 645.388 188.757 645.231C190.25 645.074 191.39 643.777 191.232 642.245Z" fill="#CCDBFD"/>
<path d="M183.805 641.93C185.141 641.223 188.01 637.136 187.814 636.743C187.617 636.35 182.587 636.389 181.251 637.097C179.915 637.804 179.404 639.455 180.111 640.791C180.819 642.127 182.469 642.638 183.805 641.93Z" fill="#CCDBFD"/>
<path d="M188.667 636.904C188.745 636.411 188.409 635.948 187.916 635.87C187.423 635.791 186.96 636.127 186.882 636.62C186.803 637.113 187.139 637.576 187.632 637.655C188.125 637.733 188.588 637.397 188.667 636.904Z" fill="#233862"/>
<path d="M195.83 644.406C194.337 646.214 192.765 653.877 193.276 654.309C193.787 654.741 200.939 651.597 202.432 649.79C203.926 647.982 203.651 645.271 201.804 643.817C199.996 642.284 197.324 642.559 195.83 644.406Z" fill="#A8D29F"/>
<path d="M192.176 666.373C193.709 667.12 197.127 671.678 196.892 672.111C196.695 672.543 190.997 672.661 189.425 671.914C187.893 671.167 187.264 669.32 188.01 667.749C188.796 666.255 190.643 665.627 192.176 666.373Z" fill="#A8D29F"/>
<path d="M213.121 682.878L213.711 682.799C216.068 652.383 225.342 630.573 225.46 630.298L224.91 630.062C224.792 630.338 215.44 652.305 213.121 682.878Z" fill="#A8D29F"/>
<path d="M231.748 627.194C230.608 628.491 225.225 630.574 224.871 630.259C224.517 629.945 225.893 624.365 227.032 623.068C228.172 621.771 230.137 621.653 231.473 622.793C232.77 623.932 232.927 625.897 231.748 627.194Z" fill="#CCDBFD"/>
<path d="M223.535 622.675C224.557 624.05 225.5 629.748 225.107 630.023C224.714 630.338 219.527 627.783 218.505 626.408C217.483 625.033 217.758 623.068 219.134 622.007C220.548 621.024 222.513 621.299 223.535 622.675Z" fill="#CCDBFD"/>
<path d="M217.365 628.727C219.016 628.255 224.674 629.473 224.792 629.945C224.91 630.416 220.666 634.307 219.016 634.778C217.365 635.25 215.636 634.267 215.164 632.578C214.732 630.888 215.715 629.198 217.365 628.727Z" fill="#CCDBFD"/>
<path d="M221.177 636.232C221.335 634.503 224.478 629.67 224.95 629.709C225.461 629.748 227.583 635.093 227.426 636.822C227.268 638.551 225.736 639.808 224.007 639.651C222.278 639.494 221.02 637.961 221.177 636.232Z" fill="#CCDBFD"/>
<path d="M229.704 635.879C228.172 635.093 224.871 630.377 225.107 629.945C225.343 629.513 231.08 629.552 232.612 630.338C234.145 631.124 234.735 633.049 233.949 634.582C233.123 636.075 231.237 636.665 229.704 635.879Z" fill="#CCDBFD"/>
<path d="M225.282 630.934C225.84 630.845 226.22 630.321 226.131 629.764C226.042 629.207 225.519 628.827 224.961 628.916C224.404 629.004 224.024 629.528 224.113 630.085C224.201 630.643 224.725 631.022 225.282 630.934Z" fill="#233862"/>
<path d="M213.279 651.794C214.968 653.877 216.815 662.679 216.226 663.151C215.636 663.622 207.423 660.046 205.694 657.964C204.005 655.881 204.319 652.776 206.402 651.087C208.484 649.397 211.589 649.711 213.279 651.794Z" fill="#A8D29F"/>
<path d="M220.116 663.937C218.348 664.801 214.457 670.028 214.693 670.539C214.929 671.05 221.491 671.207 223.26 670.342C225.028 669.478 225.775 667.356 224.91 665.587C224.006 663.78 221.884 663.072 220.116 663.937Z" fill="#A8D29F"/>
<path d="M185.81 685.354C185.81 685.354 193.08 675.765 203.375 679.263C213.711 682.76 227.465 679.577 227.425 684.371L185.81 685.354Z" fill="#A8D29F"/>
<defs>
<linearGradient id="paint0_linear_308_896" x1="434.945" y1="291.585" x2="621.41" y2="148.15" gradientUnits="userSpaceOnUse">
<stop stop-color="#1E96FC"/>
<stop offset="0.555573" stop-color="#1E96FC" stop-opacity="0.7"/>
<stop offset="0.810423" stop-color="#1E96FC" stop-opacity="0.48"/>
<stop offset="1" stop-color="#1E96FC" stop-opacity="0.16"/>
</linearGradient>
<linearGradient id="paint1_linear_308_896" x1="575.629" y1="278.027" x2="379.732" y2="435.413" gradientUnits="userSpaceOnUse">
<stop stop-color="#FCF300"/>
<stop offset="0.431531" stop-color="#FCF300" stop-opacity="0.66"/>
<stop offset="0.765125" stop-color="#FCF300" stop-opacity="0.41"/>
<stop offset="1" stop-color="#FCF300" stop-opacity="0.13"/>
</linearGradient>
</defs>
</svg>
