<svg width="732" height="660" viewBox="0 0 732 660" fill="none" xmlns="http://www.w3.org/2000/svg">
<path d="M737.412 659.983C721.535 659.983 633.988 660.021 524.219 659.983C495.891 659.983 466.043 659.983 435.6 659.945C430.238 659.945 424.847 659.945 419.455 659.945C397.65 659.945 375.607 659.908 353.624 659.908C347.696 659.908 341.798 659.908 335.9 659.908C300.184 659.87 264.855 659.832 231.225 659.794C100.247 659.605 61.701 658.244 61.701 658.168C61.4329 657.374 -58.7021 579.68 37.0068 417.106C85.1442 335.252 30.3044 246.253 71.3523 168.218C129.409 57.7811 225.535 122.546 291.486 87.5358C303.133 81.3731 314.84 71.4297 326.546 56.1554C333.129 47.573 340.368 40.0871 348.083 33.5841C349.274 32.6011 350.466 31.6181 351.687 30.6729C356.304 27.0434 361.1 23.7919 366.045 20.8429C369.352 18.8769 372.747 17.0243 376.203 15.3608C381.684 12.7142 387.284 10.408 393.033 8.44196C401.165 5.68199 409.565 3.60257 418.115 2.24149C421.838 1.63656 425.591 1.14506 429.404 0.804792C503.1 -6.18964 586 33.1304 628.805 90.5982C637.414 102.167 676.585 162.055 645.725 244.325C626.214 296.272 707.922 345.914 736.936 405.234C810.721 556.087 738.068 658.017 737.412 659.983Z" fill="#D9E3F7"/>
<path d="M55.2646 237.633C55.2646 237.633 71.5976 204.815 110.653 208.445C110.653 208.445 167.327 153.737 227.781 201.148C227.781 201.148 292.055 189.39 339.617 211.318C371.338 225.95 381.81 241.262 381.81 241.262L55.2646 237.633Z" fill="#F8FCFF"/>
<g opacity="0.5">
<path opacity="0.5" d="M255.155 499.867C255.155 499.867 216.213 462.892 174.851 455.859C169.369 454.914 165.74 461.455 169.369 465.651C169.445 465.727 169.483 465.803 169.558 465.878C175.91 472.986 225.06 484.328 255.155 499.867Z" fill="#AEC3FF"/>
<path opacity="0.5" d="M267.441 509.509C267.441 509.509 203.924 475.633 149.292 482.665C145.965 483.081 143.432 486.03 143.734 489.395C143.923 491.588 145.284 494.083 149.178 496.578C159.538 503.232 224.643 500.435 267.441 509.509Z" fill="#AEC3FF"/>
</g>
<g opacity="0.5">
<path opacity="0.5" d="M500.074 445.916C500.074 445.916 531.114 416.463 564.045 410.868C568.43 410.112 571.304 415.291 568.392 418.656C568.355 418.694 568.279 418.77 568.241 418.808C563.175 424.517 524.006 433.515 500.074 445.916Z" fill="#AEC3FF"/>
<path opacity="0.5" d="M490.281 453.591C490.281 453.591 540.868 426.596 584.384 432.191C587.031 432.532 589.072 434.876 588.808 437.56C588.657 439.299 587.56 441.303 584.46 443.307C576.218 448.6 524.346 446.369 490.281 453.591Z" fill="#AEC3FF"/>
</g>
<path opacity="0.3" d="M239.767 536.389C239.767 536.389 247.555 569.471 241.279 570.53C235.003 571.588 235.268 533.062 235.268 533.062C235.268 533.062 203.585 519.527 191.486 521.266C191.486 521.266 212.167 552.987 205.853 552.496C199.539 552.004 176.477 519.981 176.477 519.981C176.477 519.981 144.416 515.52 140.181 534.575C135.909 553.63 144.567 562.704 149.331 563.649C154.094 564.594 184.303 562.855 183.698 566.825C183.093 570.795 162.941 577.978 151.41 574.953C151.41 574.953 165.361 605.389 181.77 603.082C198.178 600.776 202.829 590.341 212.999 589.093C223.169 587.846 230.731 590.265 225.778 593.252C220.787 596.239 203.433 595.143 195.532 602.515C187.592 609.888 181.089 614.689 196.552 616.958C238.897 623.196 249.332 592.194 249.332 592.194C249.332 592.194 278.028 574.386 263.283 552.647C263.283 552.647 251.676 539.414 239.767 536.389Z" fill="#AEC3FF"/>
<path opacity="0.5" d="M550.471 486.257C546.69 467.013 514.364 470.68 514.364 470.68C514.364 470.68 490.394 502.249 484.042 502.59C477.691 502.93 499.279 471.625 499.279 471.625C487.143 469.583 455.006 482.363 455.006 482.363C455.006 482.363 454.288 521.078 448.049 519.868C441.811 518.658 450.431 485.614 450.431 485.614C438.37 488.336 426.385 501.342 426.385 501.342C411.035 522.817 439.391 541.418 439.391 541.418C439.391 541.418 438.862 554.84 429.523 569.623C429.523 569.623 427.444 572.345 425.213 576.995L428.427 577.222C428.767 576.39 429.108 575.559 429.486 574.803V574.765C429.75 574.273 430.091 573.593 430.544 572.761C431.679 570.908 432.435 569.509 432.926 568.526C436.291 562.704 441.093 555.105 444.042 553.668C444.042 553.668 443.739 553.139 443.475 552.156C443.664 552.647 443.853 553.139 444.042 553.668C448.73 565.88 476.14 569.774 491.717 567.695C507.294 565.615 500.905 560.814 493.116 553.214C485.328 545.615 467.898 546.258 462.983 543.12C458.068 540.019 465.743 537.789 475.914 539.263C486.084 540.776 490.507 551.362 506.916 554.084C523.325 556.806 538.107 526.598 538.107 526.598C526.425 529.358 506.424 521.607 505.895 517.637C505.366 513.63 535.65 516.163 540.489 515.293C545.329 514.386 554.251 505.539 550.471 486.257Z" fill="#AEC3FF"/>
<path opacity="0.5" d="M339.692 610.871C341.469 614.878 364.683 616.769 375.949 610.342C375.949 610.342 369.862 646.335 351.904 648.527C333.983 650.72 326.157 641.041 315.079 642.629C304.039 644.18 296.704 648.868 302.791 650.607C308.878 652.346 326.837 646.297 337.272 651.854C342.074 654.388 346.384 656.391 348.123 658.509C343.548 658.509 338.936 658.509 334.361 658.509C315.759 658.509 296.931 658.509 278.178 658.471C277.952 656.959 277.725 656.127 277.725 656.127C277.725 656.127 242.488 645.465 251.864 618.432C251.864 618.432 260.333 601.23 272.054 594.689C272.054 594.689 273.188 631.703 280.069 631.06C286.95 630.417 275.834 589.925 275.834 589.925C275.834 589.925 305.362 566.749 318.595 565.161C318.595 565.161 305.74 604.368 312.281 602.062C318.784 599.755 334.058 559.566 334.058 559.566C334.058 559.566 366.535 545.841 376.403 564.708C386.271 583.574 379.692 595.559 374.966 597.903C370.24 600.209 337.953 606.901 339.692 610.871Z" fill="#AEC3FF"/>
<path d="M302.982 124.739C302.982 124.739 315.61 100.995 345.781 103.642C345.781 103.642 389.562 64.0572 436.293 98.3488C436.293 98.3488 485.934 89.8421 522.721 105.721C547.221 116.308 555.349 127.385 555.349 127.385L302.982 124.739Z" fill="#F8FCFF"/>
<path d="M498.446 85.8725C498.446 85.8725 504.874 72.9422 520.261 74.3789C520.261 74.3789 542.606 52.8285 566.387 71.5055C566.387 71.5055 591.68 66.893 610.433 75.5131C622.947 81.2599 627.068 87.3092 627.068 87.3092L498.446 85.8725Z" fill="#F8FCFF"/>
<path d="M69.4365 152.792C69.4365 152.792 75.8638 139.862 91.2516 141.299C91.2516 141.299 113.596 119.748 137.377 138.425C137.377 138.425 162.67 133.813 181.423 142.433C193.937 148.18 198.059 154.229 198.059 154.229L69.4365 152.792Z" fill="#F8FCFF"/>
<path d="M498.858 623.423C501.391 624.444 510.503 623.612 510.806 622.894C511.108 622.176 505.134 615.219 502.601 614.198C500.068 613.177 497.157 614.387 496.136 616.958C495.078 619.491 496.325 622.365 498.858 623.423Z" fill="#A8D29F"/>
<path d="M521.809 627.733C520.372 630.077 519.729 639.189 520.41 639.605C521.091 640.021 528.879 635.257 530.316 632.913C531.752 630.569 530.996 627.506 528.652 626.07C526.308 624.633 523.246 625.389 521.809 627.733Z" fill="#A8D29F"/>
<path d="M509.557 645.579C512.165 646.41 521.164 644.898 521.428 644.142C521.655 643.386 515.19 636.921 512.581 636.089C509.972 635.257 507.175 636.694 506.343 639.303C505.511 641.911 506.948 644.747 509.557 645.579Z" fill="#A8D29F"/>
<path d="M522.793 654.388C522.793 654.199 521.772 633.556 510.505 622.932L510.732 622.667C522.112 633.404 523.133 654.161 523.133 654.388H522.793Z" fill="#A8D29F"/>
<path d="M560.487 623.839C558.899 624.898 552.623 625.578 552.321 625.124C552.018 624.671 555.119 619.151 556.669 618.092C558.257 617.034 560.374 617.487 561.433 619.075C562.491 620.663 562.075 622.78 560.487 623.839Z" fill="#A8D29F"/>
<path d="M545.516 629.964C546.801 631.363 548.503 637.45 548.125 637.828C547.709 638.206 541.773 636.051 540.487 634.652C539.202 633.253 539.277 631.06 540.676 629.775C542.075 628.489 544.192 628.565 545.516 629.964Z" fill="#A8D29F"/>
<path d="M556.292 640.399C554.628 641.344 548.314 641.533 548.049 641.079C547.785 640.626 551.263 635.332 552.927 634.387C554.59 633.442 556.67 634.047 557.615 635.711C558.56 637.336 557.955 639.454 556.292 640.399Z" fill="#A8D29F"/>
<path d="M548.501 648.187C548.464 648.036 546.309 633.896 552.509 625.124L552.32 624.973C546.082 633.858 548.275 648.074 548.275 648.225L548.501 648.187Z" fill="#A8D29F"/>
<path d="M537.346 653.178L536.628 653.065C533.792 616.467 522.639 590.19 522.45 589.85L523.092 589.585C523.281 589.926 534.51 616.353 537.346 653.178Z" fill="#A8D29F"/>
<path d="M514.888 586.182C516.249 587.733 522.714 590.266 523.168 589.85C523.621 589.472 521.92 582.742 520.559 581.192C519.198 579.642 516.816 579.49 515.228 580.852C513.64 582.213 513.489 584.595 514.888 586.182Z" fill="#CCDBFD"/>
<path d="M524.756 580.738C523.508 582.402 522.374 589.245 522.865 589.585C523.357 589.925 529.557 586.901 530.805 585.237C532.053 583.574 531.712 581.192 530.049 579.944C528.385 578.696 526.003 579.075 524.756 580.738Z" fill="#CCDBFD"/>
<path d="M532.203 587.997C530.199 587.468 523.431 588.905 523.28 589.472C523.129 590.039 528.233 594.727 530.237 595.294C532.241 595.823 534.32 594.651 534.849 592.648C535.379 590.606 534.207 588.527 532.203 587.997Z" fill="#CCDBFD"/>
<path d="M527.628 597.033C527.439 594.954 523.658 589.132 523.091 589.207C522.486 589.283 519.915 595.71 520.142 597.752C520.331 599.831 522.184 601.344 524.263 601.154C526.305 600.965 527.817 599.113 527.628 597.033Z" fill="#CCDBFD"/>
<path d="M517.345 596.617C519.198 595.634 523.168 589.963 522.903 589.434C522.638 588.905 515.72 588.942 513.867 589.925C512.014 590.908 511.296 593.177 512.279 595.03C513.262 596.882 515.493 597.563 517.345 596.617Z" fill="#CCDBFD"/>
<path d="M524.15 589.627C524.258 588.946 523.794 588.307 523.114 588.198C522.433 588.09 521.794 588.554 521.686 589.234C521.577 589.915 522.041 590.554 522.721 590.663C523.402 590.771 524.041 590.307 524.15 589.627Z" fill="#163560"/>
<path d="M537.12 615.786C535.078 618.319 532.847 628.867 533.566 629.472C534.284 630.077 544.19 625.729 546.231 623.234C548.273 620.701 547.895 616.996 545.362 614.954C542.904 612.875 539.199 613.253 537.12 615.786Z" fill="#A8D29F"/>
<path d="M496.591 656.921H496.1C490.996 632.875 481.279 616.428 481.166 616.202L481.581 615.975C481.695 616.202 491.487 632.761 496.591 656.921Z" fill="#A8D29F"/>
<path d="M475.796 614.425C476.854 615.332 481.353 616.429 481.618 616.126C481.883 615.824 480.181 611.514 479.123 610.606C478.064 609.699 476.476 609.812 475.569 610.871C474.624 611.93 474.737 613.517 475.796 614.425Z" fill="#CCDBFD"/>
<path d="M481.883 609.963C481.202 611.173 481.051 615.824 481.391 616.013C481.732 616.202 485.588 613.631 486.269 612.421C486.949 611.211 486.495 609.661 485.286 608.98C484.076 608.3 482.563 608.754 481.883 609.963Z" fill="#CCDBFD"/>
<path d="M487.44 614.122C486.041 613.933 481.693 615.483 481.656 615.899C481.618 616.277 485.399 618.962 486.797 619.151C488.196 619.34 489.444 618.357 489.633 616.996C489.784 615.597 488.801 614.311 487.44 614.122Z" fill="#CCDBFD"/>
<path d="M485.21 620.55C484.908 619.189 481.883 615.673 481.505 615.748C481.127 615.824 479.993 620.323 480.295 621.684C480.598 623.045 481.959 623.877 483.32 623.574C484.681 623.234 485.513 621.911 485.21 620.55Z" fill="#CCDBFD"/>
<path d="M478.328 621.155C479.462 620.361 481.617 616.24 481.39 615.899C481.163 615.559 476.551 616.202 475.417 617.034C474.282 617.828 474.018 619.415 474.812 620.55C475.606 621.684 477.193 621.949 478.328 621.155Z" fill="#CCDBFD"/>
<path d="M482.252 615.882C482.265 615.423 481.902 615.041 481.443 615.029C480.984 615.017 480.602 615.379 480.589 615.838C480.577 616.298 480.94 616.68 481.399 616.692C481.858 616.704 482.24 616.342 482.252 615.882Z" fill="#163560"/>
<path d="M493.15 632.119C492.015 633.971 491.486 641.193 492.015 641.495C492.545 641.835 498.745 638.092 499.879 636.24C501.014 634.387 500.446 631.968 498.594 630.833C496.703 629.699 494.284 630.266 493.15 632.119Z" fill="#A8D29F"/>
<path d="M574.208 653.745L574.851 653.631C577.384 621.041 587.328 597.638 587.479 597.336L586.912 597.071C586.761 597.411 576.742 620.966 574.208 653.745Z" fill="#A8D29F"/>
<path d="M594.21 594.084C593 595.483 587.253 597.714 586.837 597.373C586.459 597.033 587.934 591.059 589.181 589.661C590.429 588.262 592.546 588.148 593.907 589.358C595.306 590.568 595.457 592.685 594.21 594.084Z" fill="#CCDBFD"/>
<path d="M585.398 589.207C586.494 590.682 587.515 596.769 587.099 597.109C586.683 597.411 581.125 594.727 580.029 593.252C578.933 591.778 579.235 589.661 580.71 588.564C582.184 587.468 584.301 587.733 585.398 589.207Z" fill="#CCDBFD"/>
<path d="M578.82 595.71C580.597 595.219 586.646 596.504 586.797 597.033C586.949 597.563 582.412 601.722 580.597 602.213C578.82 602.705 576.967 601.646 576.476 599.869C575.947 598.016 577.005 596.164 578.82 595.71Z" fill="#CCDBFD"/>
<path d="M582.867 603.763C583.056 601.91 586.383 596.731 586.913 596.769C587.442 596.806 589.71 602.553 589.559 604.406C589.37 606.258 587.744 607.619 585.892 607.43C584.039 607.241 582.716 605.616 582.867 603.763Z" fill="#CCDBFD"/>
<path d="M592.016 603.347C590.39 602.478 586.836 597.449 587.101 596.958C587.366 596.504 593.528 596.542 595.154 597.411C596.78 598.281 597.422 600.322 596.553 601.948C595.683 603.574 593.679 604.217 592.016 603.347Z" fill="#CCDBFD"/>
<path d="M587.252 598.051C587.85 597.955 588.257 597.393 588.162 596.795C588.066 596.197 587.504 595.79 586.906 595.885C586.308 595.98 585.901 596.542 585.996 597.14C586.092 597.738 586.654 598.146 587.252 598.051Z" fill="#163560"/>
<path d="M572.736 629.17C574.551 631.4 576.517 640.815 575.874 641.344C575.231 641.873 566.422 638.017 564.607 635.786C562.792 633.555 563.133 630.228 565.363 628.414C567.594 626.561 570.921 626.901 572.736 629.17Z" fill="#A8D29F"/>
<path d="M470.807 659.454C470.807 659.454 474.437 649.964 487.556 649.359C500.675 648.754 509.711 656.505 520.562 652.951C531.413 649.359 549.372 641.268 566.347 646.675C583.323 652.043 586.196 659.492 586.196 659.492H470.807V659.454Z" fill="#A8D29F"/>
<path d="M55.1575 659.378H77.8422C79.052 658.357 77.0104 656.013 74.8553 655.862C73.9101 655.786 72.7381 655.975 71.377 656.278C71.0746 652.119 69.2976 633.518 62.5678 634.236C55.0063 635.068 62.5678 642.44 64.6851 646.788C66.273 650.002 67.9365 654.652 68.6927 656.845C68.0878 656.996 67.445 657.11 66.8023 657.223C65.8193 654.161 62.0763 643.801 57.3503 644.406C51.7926 645.125 54.0233 649.246 57.9553 651.703C60.8287 653.518 64.3826 656.089 66.0839 657.336C64.6472 657.563 63.1727 657.715 61.6604 657.677C57.804 657.639 55.8758 658.773 55.1575 659.378Z" fill="#A8D29F"/>
<path d="M657.732 658.584H635.047C633.837 657.564 635.879 655.219 638.034 655.068C638.979 654.993 640.151 655.182 641.512 655.484C641.815 651.325 643.592 632.724 650.322 633.442C657.883 634.274 650.322 641.646 648.204 645.994C646.616 649.208 644.953 653.858 644.197 656.051C644.802 656.202 645.444 656.316 646.087 656.429C647.07 653.367 650.813 643.008 655.539 643.612C661.097 644.331 658.866 648.452 654.934 650.909C652.061 652.724 648.507 655.295 646.805 656.543C648.242 656.77 649.717 656.921 651.229 656.883C655.085 656.807 656.976 657.979 657.732 658.584Z" fill="#A8D29F"/>
<path fill-rule="evenodd" clip-rule="evenodd" d="M378.146 196.195C378.146 196.195 465.331 97.5923 526.768 181.904C545.652 207.83 538.276 240.196 518.998 272.594C518.998 272.594 469.44 287.587 436.846 287.339C416.041 287.181 400.425 280.012 385.028 272.944C368.357 265.29 351.941 257.754 329.472 259.361C295.472 261.793 275.282 268.625 246.792 287.339C219.629 246.235 205.58 203.716 230.62 173.246C296.859 92.6395 378.146 196.195 378.146 196.195Z" fill="url(#paint0_linear_653_3534)"/>
<path d="M246.792 287.339C291.485 354.97 371.681 418.769 371.681 418.769C371.681 418.769 475.557 345.601 518.998 272.594C518.998 272.594 469.44 287.587 436.846 287.339C416.041 287.181 400.425 280.012 385.028 272.944C368.357 265.29 351.941 257.754 329.472 259.361C295.472 261.793 275.282 268.625 246.792 287.339Z" fill="url(#paint1_linear_653_3534)"/>
<path d="M498.796 212.135C492.293 214.215 485.185 211.681 481.556 205.935C477.624 199.772 471.31 192.702 462.085 190.585C455.884 189.186 451.99 183.023 453.427 176.823C454.826 170.622 460.988 166.728 467.189 168.165C487.151 172.702 498.607 188.543 504.203 199.167C506.811 204.158 504.24 210.396 498.796 212.135Z" fill="white" fill-opacity="0.5"/>
<path d="M351.648 385.975C340.154 374.898 309.038 340.417 309.038 340.417C304.01 335.54 296.713 323.933 301.59 318.904C306.467 313.876 320.532 326.655 325.56 331.532C325.56 331.532 348.094 359.018 360.759 368.168C374.635 378.225 380.306 386.051 375.429 391.079C372.971 393.65 361.742 395.73 351.648 385.975Z" fill="white" fill-opacity="0.5"/>
<path d="M171.997 368.561C173.888 376.954 177.631 393.136 191.733 412.682C201.941 426.784 221.299 447.617 240.278 474.838C253.965 494.46 261.904 506.067 266.252 512.495C269.352 517.069 271.507 522.173 272.566 527.504L239.749 626.107L317.784 632.95C317.784 632.95 347.199 530.227 347.199 487.163V487.126C347.199 482.135 347.236 476.804 347.388 471.133C347.955 444.781 355.592 423.987 279.409 423.268C279.107 423.268 278.804 423.041 278.464 422.928C275.477 421.794 270.94 419.714 264.286 414.308C263.152 413.401 261.98 412.418 260.732 411.321C253.284 404.743 246.252 399.563 239.598 395.48C204.928 373.967 170.258 360.923 171.997 368.561Z" fill="#FFB27D"/>
<path d="M166.553 318.541C167.687 306.14 176.913 267.198 176.913 267.198C176.913 267.198 185.949 269.277 189.238 275.062C198.917 291.962 195.741 325.346 195.249 325.535C195.249 325.535 210.977 355.819 213.662 375.29C213.662 375.29 255.439 397.975 264.248 414.232C264.778 415.215 265.194 416.198 265.534 417.144C266.744 420.811 267.235 425.801 267.16 431.359C266.857 451.057 259.069 477.749 247.424 475.67C244.551 475.141 177.328 399.979 174.531 386.746C173.926 383.646 165.948 325.157 166.553 318.541Z" fill="#FFB27D"/>
<path d="M275.177 402.89C275.177 402.89 277.18 422.021 257.369 405.234L255.781 427.2L283.381 441.87L292.757 425.726L275.177 402.89Z" fill="#FFB27D"/>
<path d="M178.876 286.442C179.254 285.724 179.519 284.93 179.632 284.06C179.632 284.06 180.691 276.499 181.447 270.979C181.939 267.311 179.481 264.362 178.12 263.833C177.251 263.493 171.844 277.633 171.617 290.979C174.793 291.017 177.515 289.051 178.876 286.442Z" fill="#FFC69F"/>
<path d="M213.699 375.29C222.735 378.239 277.67 415.631 280.657 416.765C287.538 425.461 288.672 438.278 285.345 439.715C280.808 441.643 270.713 437.749 263.984 431.586C254.947 423.306 252.339 412.38 249.654 406.33C248.445 403.608 240.429 399.638 237.405 395.631C229.389 385.12 214.72 376.084 213.699 375.29Z" fill="#F6A56E"/>
<path d="M318.839 410.98C318.839 410.98 247.306 353.361 239.405 338.73C239.405 338.73 226.815 343.267 231.843 362.397C236.872 381.49 272.033 415.82 274.15 429.355C282.052 480.206 310.937 495.859 310.937 495.859C310.937 495.859 389.312 467.881 318.839 410.98Z" fill="#FFB27D"/>
<path d="M243.98 360.054C243.337 359.524 242.732 358.919 242.278 358.201C242.278 358.201 238.044 351.698 234.944 346.934C232.902 343.796 233.545 339.713 236.494 337.293C237.212 336.688 237.666 336.424 237.666 336.424C241.144 339.411 250.105 345.006 256.078 357.105C252.789 359.449 246.362 361.906 243.98 360.054Z" fill="#FFC69F"/>
<path d="M345.004 552.117C345.004 552.117 344.664 561.607 344.097 576.692C344.097 577.07 344.059 577.486 344.059 577.902C343.265 598.507 342.055 628.905 340.694 659.567C295.362 659.529 250.522 659.491 207.837 659.453C220.427 634.311 241.827 593.441 254.832 568.79C260.995 557.07 265.267 549.017 265.759 548.072C265.797 547.996 265.797 547.958 265.797 547.958C266.515 546.9 267.309 545.954 268.216 545.123C269.426 543.951 270.75 542.93 272.224 542.098C284.209 535.066 304.172 538.393 320.126 543.043C327.499 545.198 334.002 547.618 338.501 549.395C341.563 550.643 343.719 551.588 344.55 551.966C344.853 552.042 345.004 552.117 345.004 552.117Z" fill="#02CECB"/>
<path d="M344.058 577.902C344.058 577.902 312.489 586.447 294.227 586.711L287.498 574.159L281.6 584.745C281.6 584.745 258.537 577.751 253.849 570.908L269.917 541.985L344.739 543.497L344.058 577.902Z" fill="#069E9C"/>
<path d="M342.736 527.504C342.736 527.504 352.453 550.113 354.532 576.881C354.532 576.881 316.498 581.116 298.388 578.885L290.448 547.467L278.917 574.764C278.917 574.764 257.971 572.042 250.674 566.409C250.674 566.409 264.247 543.195 272.792 527.807C272.754 527.769 308.029 538.393 342.736 527.504Z" fill="#F3F8FF"/>
<path d="M319.712 570.794C320.657 569.055 319.938 566.938 318.086 566.03C316.233 565.123 314.003 565.803 313.057 567.543C312.112 569.282 312.831 571.399 314.683 572.306C316.536 573.214 318.804 572.533 319.712 570.794Z" fill="#02CECB"/>
<path d="M570.981 368.561C569.091 376.954 565.348 393.136 551.246 412.682C541.038 426.784 521.68 447.617 502.701 474.838C489.014 494.46 481.074 506.067 476.727 512.495C473.626 517.069 471.471 522.173 470.413 527.504L503.23 626.107L425.195 632.95C425.195 632.95 395.78 530.227 395.78 487.163V487.126C395.78 482.135 395.742 476.804 395.591 471.133C395.024 444.781 387.387 423.987 463.569 423.268C463.872 423.268 464.174 423.041 464.515 422.928C467.501 421.794 472.038 419.714 478.693 414.308C479.827 413.401 480.999 412.418 482.246 411.321C489.695 404.743 496.727 399.563 503.381 395.48C538.051 373.967 572.72 360.923 570.981 368.561Z" fill="#FFB27D"/>
<path d="M576.425 318.541C575.29 306.14 566.065 267.198 566.065 267.198C566.065 267.198 557.029 269.277 553.74 275.062C544.061 291.962 547.237 325.346 547.728 325.535C547.728 325.535 532 355.819 529.316 375.29C529.316 375.29 487.538 397.975 478.729 414.232C478.2 415.215 477.784 416.198 477.444 417.144C476.234 420.811 475.742 425.801 475.818 431.359C476.121 451.057 483.909 477.749 495.554 475.67C498.427 475.141 565.649 399.979 568.447 386.746C569.052 383.646 577.03 325.157 576.425 318.541Z" fill="#FFB27D"/>
<path d="M467.802 402.89C467.802 402.89 465.798 422.021 485.609 405.234L487.197 427.2L459.598 441.87L450.221 425.726L467.802 402.89Z" fill="#FFB27D"/>
<path d="M564.101 286.442C563.723 285.724 563.458 284.93 563.345 284.06C563.345 284.06 562.286 276.499 561.53 270.979C561.039 267.311 563.496 264.362 564.857 263.833C565.727 263.493 571.133 277.633 571.36 290.979C568.184 291.017 565.462 289.051 564.101 286.442Z" fill="#FFC69F"/>
<path d="M529.28 375.29C520.244 378.239 465.309 415.631 462.322 416.765C455.441 425.461 454.307 438.278 457.634 439.715C462.171 441.643 472.266 437.749 478.995 431.586C488.032 423.306 490.64 412.38 493.325 406.33C494.534 403.608 502.55 399.638 505.574 395.631C513.59 385.12 528.259 376.084 529.28 375.29Z" fill="#F6A56E"/>
<path d="M424.137 410.98C424.137 410.98 495.67 353.361 503.571 338.73C503.571 338.73 516.161 343.267 511.133 362.397C506.105 381.49 470.943 415.82 468.826 429.355C460.924 480.206 432.039 495.859 432.039 495.859C432.039 495.859 353.664 467.881 424.137 410.98Z" fill="#FFB27D"/>
<path d="M498.998 360.054C499.641 359.524 500.246 358.919 500.7 358.201C500.7 358.201 504.934 351.698 508.034 346.934C510.076 343.796 509.433 339.713 506.484 337.293C505.766 336.688 505.312 336.424 505.312 336.424C501.834 339.411 492.344 345.535 486.371 357.596C489.244 358.844 496.617 361.906 498.998 360.054Z" fill="#FFC69F"/>
<path d="M535.251 659.642C492.944 659.642 448.029 659.642 402.281 659.605C400.92 628.943 399.71 598.507 398.916 577.902C398.916 577.486 398.879 577.108 398.879 576.692C398.311 561.645 397.971 552.117 397.971 552.117C397.971 552.117 398.122 552.042 398.387 551.928C399.257 551.55 401.374 550.605 404.436 549.357C408.935 547.542 415.476 545.123 422.811 543.005C438.804 538.355 458.728 534.99 470.713 542.06C472.188 542.892 473.511 543.913 474.721 545.085C475.591 545.954 476.384 546.9 477.141 547.92C477.141 547.92 477.141 547.958 477.178 548.034C477.708 549.017 481.942 557.07 488.105 568.753C501.186 593.479 522.699 634.5 535.251 659.642Z" fill="#02CECB"/>
<path d="M398.954 577.902C398.954 577.902 430.524 586.447 448.785 586.711L455.515 574.159L461.413 584.745C461.413 584.745 484.476 577.751 489.164 570.908L473.096 541.985L398.274 543.497L398.954 577.902Z" fill="#069E9C"/>
<path d="M400.24 527.504C400.24 527.504 390.523 550.113 388.444 576.881C388.444 576.881 426.478 581.116 444.588 578.885L452.528 547.467L464.059 574.764C464.059 574.764 485.005 572.042 492.302 566.409C492.302 566.409 478.729 543.195 470.184 527.807C470.222 527.769 434.947 538.393 400.24 527.504Z" fill="#F3F8FF"/>
<path d="M423.267 570.794C422.322 569.055 423.04 566.938 424.893 566.03C426.745 565.123 428.976 565.803 429.921 567.543C430.866 569.282 430.148 571.399 428.295 572.306C426.443 573.214 424.212 572.533 423.267 570.794Z" fill="#02CECB"/>
<path d="M120.855 656.996L120.363 656.921C118.397 631.438 110.609 613.177 110.496 612.912L110.949 612.723C111.063 612.95 118.889 631.363 120.855 656.996Z" fill="#A8D29F"/>
<path d="M105.201 610.342C106.146 611.438 110.645 613.177 110.947 612.912C111.25 612.648 110.078 607.96 109.133 606.863C108.187 605.767 106.524 605.691 105.427 606.636C104.369 607.619 104.255 609.245 105.201 610.342Z" fill="#CCDBFD"/>
<path d="M112.119 606.561C111.249 607.733 110.455 612.497 110.795 612.723C111.136 612.988 115.446 610.871 116.315 609.699C117.185 608.527 116.958 606.901 115.786 606.031C114.614 605.162 112.95 605.389 112.119 606.561Z" fill="#CCDBFD"/>
<path d="M117.261 611.627C115.863 611.249 111.137 612.27 111.023 612.648C110.91 613.026 114.464 616.315 115.863 616.693C117.261 617.071 118.698 616.24 119.076 614.841C119.492 613.442 118.66 612.005 117.261 611.627Z" fill="#CCDBFD"/>
<path d="M114.084 617.903C113.933 616.466 111.324 612.421 110.908 612.459C110.492 612.497 108.716 616.958 108.829 618.432C108.98 619.869 110.266 620.928 111.702 620.776C113.139 620.625 114.235 619.378 114.084 617.903Z" fill="#CCDBFD"/>
<path d="M106.939 617.601C108.224 616.92 110.984 612.988 110.795 612.61C110.606 612.232 105.767 612.27 104.481 612.95C103.196 613.631 102.704 615.219 103.385 616.504C104.065 617.79 105.653 618.281 106.939 617.601Z" fill="#CCDBFD"/>
<path d="M111.616 612.765C111.692 612.291 111.369 611.845 110.895 611.77C110.42 611.694 109.975 612.017 109.899 612.492C109.823 612.966 110.147 613.412 110.621 613.487C111.095 613.563 111.541 613.24 111.616 612.765Z" fill="#233862"/>
<path d="M118.508 619.983C117.072 621.722 115.559 629.094 116.051 629.51C116.542 629.926 123.423 626.901 124.86 625.162C126.297 623.423 126.032 620.814 124.255 619.415C122.516 617.941 119.945 618.206 118.508 619.983Z" fill="#A8D29F"/>
<path d="M114.994 641.117C116.469 641.835 119.758 646.221 119.531 646.637C119.342 647.053 113.86 647.166 112.348 646.448C110.873 645.73 110.268 643.953 110.987 642.44C111.743 641.004 113.52 640.399 114.994 641.117Z" fill="#A8D29F"/>
<path d="M135.15 656.996L135.718 656.921C137.986 627.657 146.909 606.674 147.022 606.409L146.493 606.183C146.379 606.447 137.381 627.582 135.15 656.996Z" fill="#A8D29F"/>
<path d="M153.072 603.423C151.976 604.671 146.796 606.674 146.456 606.372C146.116 606.069 147.439 600.701 148.535 599.453C149.632 598.205 151.522 598.092 152.808 599.188C154.055 600.285 154.206 602.175 153.072 603.423Z" fill="#CCDBFD"/>
<path d="M145.172 599.075C146.155 600.398 147.062 605.88 146.684 606.145C146.306 606.447 141.315 603.99 140.332 602.667C139.349 601.343 139.614 599.453 140.937 598.432C142.298 597.487 144.189 597.752 145.172 599.075Z" fill="#CCDBFD"/>
<path d="M139.234 604.897C140.822 604.444 146.267 605.616 146.38 606.069C146.493 606.523 142.41 610.266 140.822 610.72C139.234 611.173 137.571 610.228 137.117 608.602C136.701 606.977 137.646 605.351 139.234 604.897Z" fill="#CCDBFD"/>
<path d="M142.9 612.119C143.052 610.455 146.076 605.805 146.53 605.842C147.021 605.88 149.063 611.022 148.912 612.686C148.761 614.349 147.286 615.559 145.623 615.408C143.959 615.257 142.749 613.782 142.9 612.119Z" fill="#CCDBFD"/>
<path d="M151.104 611.778C149.629 611.022 146.454 606.485 146.68 606.069C146.907 605.653 152.427 605.691 153.902 606.447C155.376 607.204 155.943 609.056 155.187 610.531C154.393 611.967 152.579 612.534 151.104 611.778Z" fill="#CCDBFD"/>
<path d="M146.852 607.021C147.388 606.935 147.753 606.432 147.668 605.895C147.583 605.359 147.079 604.994 146.543 605.079C146.006 605.165 145.641 605.668 145.726 606.205C145.812 606.741 146.315 607.106 146.852 607.021Z" fill="#233862"/>
<path d="M135.301 627.09C136.926 629.094 138.703 637.563 138.136 638.017C137.569 638.471 129.667 635.03 128.004 633.026C126.378 631.022 126.68 628.036 128.684 626.41C130.688 624.784 133.675 625.087 135.301 627.09Z" fill="#A8D29F"/>
<path d="M141.878 638.773C140.176 639.605 136.433 644.633 136.66 645.125C136.887 645.616 143.201 645.768 144.902 644.936C146.604 644.104 147.322 642.062 146.49 640.361C145.621 638.622 143.579 637.941 141.878 638.773Z" fill="#A8D29F"/>
<path d="M108.869 659.378C108.869 659.378 115.863 650.153 125.769 653.518C135.712 656.883 148.945 653.82 148.907 658.433L108.869 659.378Z" fill="#A8D29F"/>
<defs>
<linearGradient id="paint0_linear_653_3534" x1="348.565" y1="280.534" x2="527.963" y2="142.535" gradientUnits="userSpaceOnUse">
<stop stop-color="#1E96FC"/>
<stop offset="0.555573" stop-color="#1E96FC" stop-opacity="0.7"/>
<stop offset="0.810423" stop-color="#1E96FC" stop-opacity="0.48"/>
<stop offset="1" stop-color="#1E96FC" stop-opacity="0.16"/>
</linearGradient>
<linearGradient id="paint1_linear_653_3534" x1="483.917" y1="267.49" x2="295.445" y2="418.91" gradientUnits="userSpaceOnUse">
<stop stop-color="#FCF300"/>
<stop offset="0.431531" stop-color="#FCF300" stop-opacity="0.66"/>
<stop offset="0.765125" stop-color="#FCF300" stop-opacity="0.41"/>
<stop offset="1" stop-color="#FCF300" stop-opacity="0.13"/>
</linearGradient>
</defs>
</svg>
