<svg width="288" height="212" viewBox="0 0 288 212" fill="none" xmlns="http://www.w3.org/2000/svg">
<path d="M275.811 211.196C269.873 211.196 237.128 211.208 196.072 211.196C185.476 211.196 174.312 211.196 162.926 211.184C160.92 211.184 158.904 211.184 156.887 211.184C148.731 211.184 140.487 211.172 132.264 211.172C130.047 211.172 127.841 211.172 125.635 211.172C112.277 211.16 99.0627 211.148 86.484 211.136C37.4949 211.075 23.0778 210.642 23.0778 210.617C22.9775 210.364 -21.9561 185.596 13.8415 133.769C31.8461 107.674 11.3347 79.3022 26.6876 54.4252C48.4024 19.219 84.356 39.8654 109.023 28.7045C113.38 26.7399 117.758 23.57 122.137 18.7007C124.599 15.9647 127.306 13.5783 130.192 11.5052C130.638 11.1918 131.083 10.8784 131.54 10.5771C133.267 9.42004 135.061 8.38349 136.91 7.44338C138.147 6.81663 139.417 6.22604 140.71 5.69572C142.76 4.85202 144.854 4.1168 147.005 3.49006C150.046 2.6102 153.188 1.9473 156.386 1.5134C157.778 1.32055 159.182 1.16386 160.608 1.05539C188.172 -1.17438 219.179 11.3605 235.189 29.6808C238.409 33.369 253.06 52.4606 241.518 78.6875C234.22 95.2481 264.781 111.073 275.633 129.984C303.231 178.075 276.056 210.569 275.811 211.196Z" fill="#D9E3F7"/>
<path d="M39.9004 76.5541C39.9004 76.5541 45.1072 66.0923 57.5577 67.2493C57.5577 67.2493 75.6249 49.8089 94.8973 64.9231C94.8973 64.9231 115.387 61.1747 130.55 68.1653C140.662 72.8298 144 77.7112 144 77.7112L39.9004 76.5541Z" fill="#F8FCFF"/>
<g opacity="0.5">
<path opacity="0.5" d="M103.624 160.152C103.624 160.152 91.2095 148.365 78.0237 146.123C76.276 145.821 75.119 147.907 76.276 149.244C76.3001 149.268 76.3122 149.293 76.3363 149.317C78.3612 151.583 94.0298 155.198 103.624 160.152Z" fill="#AEC3FF"/>
<path opacity="0.5" d="M107.54 163.226C107.54 163.226 87.2916 152.426 69.8753 154.668C68.8146 154.801 68.0071 155.741 68.1035 156.814C68.1638 157.513 68.5977 158.308 69.8391 159.104C73.1416 161.225 93.8965 160.333 107.54 163.226Z" fill="#AEC3FF"/>
</g>
<g opacity="0.5">
<path opacity="0.5" d="M181.699 142.952C181.699 142.952 191.595 133.563 202.093 131.779C203.491 131.538 204.407 133.189 203.479 134.262C203.467 134.274 203.442 134.298 203.43 134.31C201.815 136.13 189.329 138.998 181.699 142.952Z" fill="#AEC3FF"/>
<path opacity="0.5" d="M178.578 145.399C178.578 145.399 194.705 136.793 208.578 138.577C209.421 138.685 210.072 139.432 209.988 140.288C209.94 140.843 209.59 141.481 208.602 142.12C205.974 143.808 189.438 143.096 178.578 145.399Z" fill="#AEC3FF"/>
</g>
<path opacity="0.3" d="M98.7173 171.796C98.7173 171.796 101.2 182.342 99.1994 182.679C97.1987 183.017 97.283 170.735 97.283 170.735C97.283 170.735 87.1828 166.42 83.3259 166.975C83.3259 166.975 89.9188 177.087 87.906 176.93C85.8931 176.773 78.5409 166.565 78.5409 166.565C78.5409 166.565 68.3201 165.142 66.9702 171.217C65.6083 177.292 68.3684 180.184 69.887 180.486C71.4057 180.787 81.0359 180.233 80.843 181.498C80.6502 182.764 74.226 185.054 70.5499 184.089C70.5499 184.089 74.9974 193.792 80.2283 193.057C85.4592 192.322 86.9417 188.995 90.1839 188.597C93.4261 188.199 95.8367 188.971 94.2578 189.923C92.6668 190.875 87.1346 190.526 84.6155 192.876C82.0844 195.226 80.0114 196.757 84.941 197.48C98.4401 199.469 101.767 189.586 101.767 189.586C101.767 189.586 110.915 183.909 106.214 176.978C106.214 176.978 102.514 172.76 98.7173 171.796Z" fill="#AEC3FF"/>
<path opacity="0.5" d="M197.768 155.813C196.562 149.678 186.257 150.848 186.257 150.848C186.257 150.848 178.616 160.912 176.591 161.02C174.566 161.129 181.448 151.149 181.448 151.149C177.579 150.498 167.334 154.572 167.334 154.572C167.334 154.572 167.105 166.914 165.117 166.528C163.128 166.143 165.876 155.608 165.876 155.608C162.031 156.476 158.21 160.622 158.21 160.622C153.317 167.468 162.356 173.398 162.356 173.398C162.356 173.398 162.188 177.677 159.211 182.39C159.211 182.39 158.548 183.258 157.837 184.74L158.861 184.812C158.97 184.547 159.078 184.282 159.199 184.041V184.029C159.283 183.872 159.392 183.655 159.536 183.39C159.898 182.8 160.139 182.354 160.295 182.04C161.368 180.184 162.899 177.761 163.839 177.303C163.839 177.303 163.743 177.135 163.658 176.821C163.718 176.978 163.779 177.135 163.839 177.303C165.334 181.196 174.072 182.438 179.038 181.775C184.003 181.112 181.966 179.581 179.484 177.159C177.001 174.736 171.444 174.941 169.877 173.941C168.311 172.952 170.757 172.241 174 172.711C177.242 173.193 178.652 176.568 183.883 177.436C189.114 178.304 193.826 168.674 193.826 168.674C190.102 169.553 183.726 167.083 183.557 165.817C183.389 164.54 193.043 165.347 194.586 165.07C196.128 164.781 198.973 161.96 197.768 155.813Z" fill="#AEC3FF"/>
<path opacity="0.5" d="M130.573 195.54C131.139 196.817 138.54 197.42 142.132 195.371C142.132 195.371 140.191 206.845 134.466 207.544C128.753 208.243 126.258 205.158 122.727 205.664C119.207 206.158 116.869 207.653 118.809 208.207C120.75 208.762 126.475 206.833 129.802 208.605C131.332 209.412 132.706 210.051 133.261 210.726C131.802 210.726 130.332 210.726 128.873 210.726C122.943 210.726 116.941 210.726 110.963 210.714C110.891 210.232 110.818 209.967 110.818 209.967C110.818 209.967 99.5851 206.568 102.574 197.95C102.574 197.95 105.274 192.466 109.01 190.381C109.01 190.381 109.372 202.181 111.566 201.976C113.759 201.771 110.216 188.862 110.216 188.862C110.216 188.862 119.629 181.474 123.847 180.968C123.847 180.968 119.749 193.467 121.835 192.731C123.908 191.996 128.777 179.184 128.777 179.184C128.777 179.184 139.13 174.809 142.276 180.823C145.422 186.837 143.325 190.658 141.818 191.405C140.312 192.141 130.018 194.274 130.573 195.54Z" fill="#AEC3FF"/>
<path d="M118.871 40.5648C118.871 40.5648 122.897 32.9956 132.515 33.8393C132.515 33.8393 146.472 21.22 161.369 32.1519C161.369 32.1519 177.195 29.44 188.922 34.5022C196.732 37.877 199.324 41.4085 199.324 41.4085L118.871 40.5648Z" fill="#F8FCFF"/>
<path d="M181.184 28.1739C181.184 28.1739 183.233 24.0519 188.138 24.5099C188.138 24.5099 195.261 17.6398 202.842 23.5939C202.842 23.5939 210.906 22.1234 216.884 24.8715C220.873 26.7035 222.187 28.6319 222.187 28.6319L181.184 28.1739Z" fill="#F8FCFF"/>
<path d="M44.418 49.5072C44.418 49.5072 46.4669 45.3851 51.3724 45.8431C51.3724 45.8431 58.4956 38.973 66.0769 44.9271C66.0769 44.9271 74.1402 43.4567 80.1184 46.2047C84.1078 48.0367 85.4216 49.9652 85.4216 49.9652L44.418 49.5072Z" fill="#F8FCFF"/>
<path d="M181.316 199.54C182.124 199.866 185.029 199.6 185.125 199.371C185.221 199.142 183.317 196.925 182.51 196.599C181.702 196.274 180.774 196.659 180.449 197.479C180.111 198.287 180.509 199.203 181.316 199.54Z" fill="#A8D29F"/>
<path d="M188.632 200.914C188.174 201.661 187.969 204.566 188.186 204.698C188.403 204.831 190.886 203.312 191.344 202.565C191.802 201.818 191.561 200.841 190.814 200.383C190.067 199.925 189.09 200.167 188.632 200.914Z" fill="#A8D29F"/>
<path d="M184.727 206.603C185.558 206.868 188.427 206.386 188.511 206.145C188.584 205.904 186.523 203.843 185.691 203.578C184.859 203.312 183.967 203.77 183.702 204.602C183.437 205.434 183.895 206.338 184.727 206.603Z" fill="#A8D29F"/>
<path d="M188.946 209.411C188.946 209.351 188.621 202.77 185.029 199.383L185.102 199.299C188.73 202.722 189.055 209.339 189.055 209.411H188.946Z" fill="#A8D29F"/>
<path d="M200.963 199.674C200.457 200.012 198.457 200.229 198.36 200.084C198.264 199.939 199.252 198.18 199.746 197.842C200.252 197.505 200.927 197.649 201.265 198.156C201.602 198.662 201.47 199.337 200.963 199.674Z" fill="#A8D29F"/>
<path d="M196.19 201.627C196.599 202.073 197.142 204.013 197.021 204.134C196.889 204.254 194.996 203.567 194.586 203.121C194.177 202.675 194.201 201.976 194.647 201.567C195.093 201.157 195.768 201.181 196.19 201.627Z" fill="#A8D29F"/>
<path d="M199.624 204.953C199.094 205.254 197.081 205.315 196.997 205.17C196.912 205.025 198.021 203.338 198.552 203.037C199.082 202.735 199.745 202.928 200.046 203.458C200.347 203.977 200.155 204.652 199.624 204.953Z" fill="#A8D29F"/>
<path d="M197.141 207.437C197.129 207.389 196.442 202.881 198.418 200.085L198.358 200.036C196.369 202.869 197.068 207.401 197.068 207.449L197.141 207.437Z" fill="#A8D29F"/>
<path d="M193.587 209.027L193.358 208.99C192.454 197.323 188.898 188.947 188.838 188.838L189.043 188.754C189.103 188.862 192.683 197.287 193.587 209.027Z" fill="#A8D29F"/>
<path d="M186.426 187.67C186.86 188.164 188.921 188.972 189.066 188.839C189.211 188.719 188.668 186.573 188.234 186.079C187.8 185.585 187.041 185.537 186.535 185.971C186.029 186.404 185.98 187.164 186.426 187.67Z" fill="#CCDBFD"/>
<path d="M189.572 185.934C189.174 186.465 188.812 188.646 188.969 188.755C189.126 188.863 191.102 187.899 191.5 187.369C191.898 186.838 191.789 186.079 191.259 185.681C190.729 185.283 189.969 185.404 189.572 185.934Z" fill="#CCDBFD"/>
<path d="M191.947 188.248C191.308 188.079 189.151 188.537 189.103 188.718C189.054 188.899 190.682 190.394 191.32 190.574C191.959 190.743 192.622 190.369 192.791 189.731C192.96 189.08 192.586 188.417 191.947 188.248Z" fill="#CCDBFD"/>
<path d="M190.489 191.129C190.428 190.466 189.223 188.61 189.042 188.634C188.849 188.658 188.03 190.707 188.102 191.358C188.162 192.021 188.753 192.503 189.416 192.443C190.067 192.383 190.549 191.792 190.489 191.129Z" fill="#CCDBFD"/>
<path d="M187.211 190.996C187.801 190.683 189.067 188.875 188.982 188.706C188.898 188.537 186.692 188.55 186.102 188.863C185.511 189.176 185.282 189.899 185.596 190.49C185.909 191.081 186.62 191.298 187.211 190.996Z" fill="#CCDBFD"/>
<path d="M189.379 188.768C189.414 188.551 189.266 188.347 189.049 188.312C188.832 188.278 188.628 188.426 188.594 188.643C188.559 188.86 188.707 189.063 188.924 189.098C189.141 189.133 189.345 188.985 189.379 188.768Z" fill="#163560"/>
<path d="M193.515 197.107C192.864 197.914 192.153 201.277 192.382 201.47C192.611 201.663 195.769 200.276 196.419 199.481C197.07 198.673 196.95 197.492 196.142 196.841C195.359 196.179 194.178 196.299 193.515 197.107Z" fill="#A8D29F"/>
<path d="M180.593 210.219H180.437C178.81 202.554 175.712 197.311 175.676 197.238L175.808 197.166C175.845 197.238 178.966 202.518 180.593 210.219Z" fill="#A8D29F"/>
<path d="M173.963 196.673C174.3 196.962 175.735 197.312 175.819 197.215C175.903 197.119 175.361 195.745 175.024 195.456C174.686 195.166 174.18 195.202 173.891 195.54C173.589 195.877 173.625 196.384 173.963 196.673Z" fill="#CCDBFD"/>
<path d="M175.904 195.251C175.687 195.636 175.639 197.119 175.747 197.179C175.856 197.239 177.085 196.42 177.302 196.034C177.519 195.648 177.374 195.154 176.989 194.937C176.603 194.72 176.121 194.865 175.904 195.251Z" fill="#CCDBFD"/>
<path d="M177.676 196.576C177.23 196.516 175.844 197.01 175.832 197.143C175.82 197.263 177.025 198.119 177.471 198.179C177.917 198.24 178.315 197.926 178.375 197.492C178.423 197.047 178.11 196.637 177.676 196.576Z" fill="#CCDBFD"/>
<path d="M176.964 198.626C176.867 198.192 175.903 197.071 175.783 197.096C175.662 197.12 175.301 198.554 175.397 198.988C175.493 199.422 175.927 199.687 176.361 199.59C176.795 199.482 177.06 199.06 176.964 198.626Z" fill="#CCDBFD"/>
<path d="M174.771 198.819C175.132 198.566 175.819 197.252 175.747 197.144C175.675 197.035 174.204 197.24 173.842 197.505C173.481 197.758 173.397 198.265 173.65 198.626C173.903 198.988 174.409 199.072 174.771 198.819Z" fill="#CCDBFD"/>
<path d="M176.022 197.138C176.025 196.992 175.91 196.87 175.763 196.866C175.617 196.862 175.495 196.978 175.491 197.124C175.488 197.271 175.603 197.392 175.749 197.396C175.896 197.4 176.018 197.285 176.022 197.138Z" fill="#163560"/>
<path d="M179.496 202.314C179.134 202.904 178.965 205.207 179.134 205.303C179.303 205.411 181.279 204.218 181.641 203.628C182.003 203.037 181.822 202.266 181.231 201.904C180.629 201.543 179.857 201.723 179.496 202.314Z" fill="#A8D29F"/>
<path d="M205.338 209.207L205.543 209.171C206.35 198.781 209.52 191.321 209.568 191.224L209.388 191.14C209.339 191.248 206.145 198.757 205.338 209.207Z" fill="#A8D29F"/>
<path d="M211.711 190.188C211.326 190.634 209.494 191.345 209.361 191.237C209.24 191.128 209.711 189.224 210.108 188.778C210.506 188.332 211.181 188.296 211.615 188.681C212.061 189.067 212.109 189.742 211.711 190.188Z" fill="#CCDBFD"/>
<path d="M208.904 188.633C209.253 189.103 209.579 191.044 209.446 191.152C209.314 191.249 207.542 190.393 207.192 189.923C206.843 189.453 206.939 188.778 207.409 188.428C207.879 188.079 208.554 188.163 208.904 188.633Z" fill="#CCDBFD"/>
<path d="M206.806 190.707C207.373 190.55 209.301 190.96 209.35 191.129C209.398 191.297 207.951 192.623 207.373 192.78C206.806 192.937 206.216 192.599 206.059 192.033C205.89 191.442 206.228 190.851 206.806 190.707Z" fill="#CCDBFD"/>
<path d="M208.096 193.273C208.156 192.683 209.216 191.031 209.385 191.043C209.554 191.056 210.277 192.888 210.229 193.478C210.169 194.069 209.65 194.503 209.06 194.442C208.469 194.382 208.047 193.864 208.096 193.273Z" fill="#CCDBFD"/>
<path d="M211.013 193.141C210.494 192.864 209.362 191.261 209.446 191.104C209.53 190.959 211.495 190.971 212.013 191.249C212.531 191.526 212.736 192.177 212.459 192.695C212.182 193.213 211.543 193.418 211.013 193.141Z" fill="#CCDBFD"/>
<path d="M209.494 191.452C209.685 191.422 209.815 191.243 209.784 191.052C209.754 190.861 209.575 190.731 209.384 190.762C209.194 190.792 209.064 190.971 209.094 191.162C209.124 191.353 209.304 191.483 209.494 191.452Z" fill="#163560"/>
<path d="M204.868 201.373C205.446 202.084 206.073 205.086 205.868 205.254C205.663 205.423 202.855 204.194 202.276 203.483C201.698 202.771 201.806 201.711 202.517 201.132C203.228 200.542 204.289 200.65 204.868 201.373Z" fill="#A8D29F"/>
<path d="M172.373 211.027C172.373 211.027 173.53 208.002 177.712 207.809C181.895 207.616 184.775 210.087 188.235 208.954C191.694 207.809 197.419 205.23 202.83 206.954C208.242 208.665 209.158 211.039 209.158 211.039H172.373V211.027Z" fill="#A8D29F"/>
<path d="M39.8655 211.003H47.0972C47.4829 210.678 46.832 209.93 46.145 209.882C45.8437 209.858 45.4701 209.918 45.0362 210.015C44.9397 208.689 44.3733 202.759 42.2279 202.988C39.8173 203.253 42.2279 205.603 42.9028 206.99C43.409 208.014 43.9394 209.497 44.1804 210.196C43.9876 210.244 43.7827 210.28 43.5778 210.316C43.2644 209.34 42.0712 206.037 40.5646 206.23C38.7928 206.459 39.5039 207.773 40.7574 208.556C41.6734 209.135 42.8064 209.955 43.3488 210.352C42.8908 210.425 42.4207 210.473 41.9386 210.461C40.7092 210.449 40.0945 210.81 39.8655 211.003Z" fill="#A8D29F"/>
<path d="M231.962 210.75H224.73C224.345 210.424 224.996 209.677 225.683 209.629C225.984 209.605 226.358 209.665 226.791 209.761C226.888 208.436 227.454 202.506 229.6 202.735C232.01 203 229.6 205.35 228.925 206.736C228.419 207.761 227.888 209.243 227.647 209.942C227.84 209.99 228.045 210.027 228.25 210.063C228.563 209.086 229.756 205.784 231.263 205.977C233.035 206.206 232.324 207.52 231.07 208.303C230.154 208.882 229.021 209.701 228.479 210.099C228.937 210.171 229.407 210.219 229.889 210.207C231.118 210.183 231.721 210.557 231.962 210.75Z" fill="#A8D29F"/>
<path fill-rule="evenodd" clip-rule="evenodd" d="M142.832 63.3433C142.832 63.3433 170.626 31.9095 190.211 58.7873C196.231 67.0523 193.88 77.3704 187.734 87.6986C187.734 87.6986 171.936 92.4782 161.545 92.3992C154.912 92.3489 149.934 90.0635 145.026 87.8101C139.711 85.3703 134.478 82.9679 127.315 83.4802C116.476 84.2553 110.04 86.4333 100.957 92.3992C92.2979 79.2957 87.8193 65.741 95.8017 56.0272C116.918 30.3306 142.832 63.3433 142.832 63.3433Z" fill="url(#paint0_linear_354_908)"/>
<path d="M100.957 92.3992C115.205 113.959 140.771 134.298 140.771 134.298C140.771 134.298 173.886 110.973 187.734 87.6986C187.734 87.6986 171.936 92.4782 161.545 92.3992C154.912 92.3489 149.934 90.0635 145.026 87.8101C139.711 85.3703 134.478 82.9679 127.315 83.4802C116.476 84.2553 110.04 86.4333 100.957 92.3992Z" fill="url(#paint1_linear_354_908)"/>
<path d="M181.295 68.4252C179.222 69.0881 176.956 68.2806 175.799 66.4486C174.545 64.484 172.532 62.2301 169.592 61.5551C167.615 61.1092 166.373 59.1446 166.831 57.1679C167.277 55.1913 169.242 53.9498 171.219 54.4078C177.583 55.8542 181.235 60.9043 183.018 64.2911C183.85 65.8821 183.03 67.8708 181.295 68.4252Z" fill="white" fill-opacity="0.5"/>
<path d="M134.385 123.843C130.721 120.312 120.801 109.32 120.801 109.32C119.198 107.765 116.872 104.065 118.427 102.461C119.982 100.858 124.465 104.932 126.069 106.487C126.069 106.487 133.252 115.25 137.29 118.166C141.713 121.372 143.521 123.867 141.966 125.47C141.183 126.29 137.603 126.953 134.385 123.843Z" fill="white" fill-opacity="0.5"/>
<path d="M77.1138 118.293C77.7164 120.969 78.9096 126.127 83.4053 132.359C86.6596 136.854 92.8306 143.495 98.8811 152.173C103.244 158.429 105.775 162.129 107.161 164.178C108.15 165.636 108.837 167.263 109.174 168.963L98.7124 200.397L123.589 202.578C123.589 202.578 132.966 169.831 132.966 156.103V156.091C132.966 154.5 132.979 152.8 133.027 150.992C133.208 142.591 135.642 135.962 111.356 135.733C111.259 135.733 111.163 135.661 111.054 135.625C110.102 135.263 108.656 134.6 106.535 132.877C106.173 132.588 105.799 132.274 105.402 131.925C103.027 129.827 100.785 128.176 98.6642 126.875C87.6118 120.016 76.5593 115.858 77.1138 118.293Z" fill="#FFB27D"/>
<path d="M75.3776 102.347C75.7392 98.3939 78.6801 85.9795 78.6801 85.9795C78.6801 85.9795 81.5607 86.6424 82.6093 88.4865C85.6948 93.8741 84.6824 104.517 84.5257 104.577C84.5257 104.577 89.5397 114.231 90.3954 120.439C90.3954 120.439 103.714 127.67 106.522 132.853C106.691 133.166 106.823 133.48 106.932 133.781C107.318 134.95 107.474 136.541 107.45 138.313C107.354 144.592 104.871 153.102 101.159 152.439C100.243 152.27 78.8127 128.309 77.9208 124.091C77.7279 123.102 75.1848 104.456 75.3776 102.347Z" fill="#FFB27D"/>
<path d="M110.005 129.236C110.005 129.236 110.644 135.335 104.328 129.984L103.822 136.986L112.621 141.663L115.61 136.516L110.005 129.236Z" fill="#FFB27D"/>
<path d="M79.3063 92.1137C79.4269 91.8847 79.5112 91.6316 79.5474 91.3544C79.5474 91.3544 79.8849 88.9438 80.1259 87.1841C80.2826 86.015 79.4992 85.0749 79.0653 84.9062C78.7881 84.7977 77.0645 89.3054 76.9922 93.5601C78.0046 93.5721 78.8724 92.9454 79.3063 92.1137Z" fill="#FFC69F"/>
<path d="M90.4082 120.438C93.2888 121.378 110.802 133.298 111.754 133.66C113.947 136.432 114.309 140.518 113.248 140.976C111.802 141.591 108.584 140.349 106.438 138.385C103.558 135.745 102.726 132.262 101.87 130.333C101.485 129.466 98.9295 128.2 97.9653 126.923C95.4101 123.572 90.7336 120.691 90.4082 120.438Z" fill="#F6A56E"/>
<path d="M123.926 131.816C123.926 131.816 101.122 113.447 98.6031 108.783C98.6031 108.783 94.5895 110.229 96.1925 116.328C97.7955 122.415 109.005 133.359 109.68 137.674C112.199 153.885 121.407 158.874 121.407 158.874C121.407 158.874 146.392 149.955 123.926 131.816Z" fill="#FFB27D"/>
<path d="M100.062 115.581C99.8566 115.412 99.6638 115.219 99.5192 114.99C99.5192 114.99 98.1692 112.917 97.1809 111.398C96.5301 110.398 96.7349 109.096 97.6751 108.325C97.9041 108.132 98.0487 108.048 98.0487 108.048C99.1576 109 102.014 110.784 103.918 114.641C102.87 115.388 100.821 116.171 100.062 115.581Z" fill="#FFC69F"/>
<path d="M132.267 176.81C132.267 176.81 132.158 179.836 131.977 184.645C131.977 184.765 131.965 184.898 131.965 185.03C131.712 191.599 131.327 201.29 130.893 211.064C116.441 211.052 102.147 211.04 88.5391 211.028C92.5526 203.013 99.3745 189.984 103.521 182.126C105.485 178.389 106.847 175.822 107.004 175.521C107.016 175.497 107.016 175.484 107.016 175.484C107.245 175.147 107.498 174.846 107.787 174.581C108.173 174.207 108.595 173.881 109.065 173.616C112.886 171.374 119.25 172.435 124.336 173.918C126.686 174.605 128.759 175.376 130.194 175.942C131.17 176.34 131.857 176.642 132.122 176.762C132.218 176.786 132.267 176.81 132.267 176.81Z" fill="#02CECB"/>
<path d="M131.965 185.03C131.965 185.03 121.901 187.754 116.079 187.838L113.934 183.837L112.054 187.212C112.054 187.212 104.702 184.982 103.207 182.8L108.329 173.58L132.182 174.062L131.965 185.03Z" fill="#069E9C"/>
<path d="M131.544 168.964C131.544 168.964 134.641 176.171 135.304 184.705C135.304 184.705 123.179 186.054 117.406 185.343L114.875 175.327L111.199 184.03C111.199 184.03 104.522 183.162 102.195 181.366C102.195 181.366 106.522 173.965 109.246 169.06C109.234 169.048 120.479 172.435 131.544 168.964Z" fill="#F3F8FF"/>
<path d="M124.203 182.764C124.504 182.209 124.275 181.534 123.685 181.245C123.094 180.956 122.383 181.173 122.082 181.727C121.78 182.282 122.009 182.957 122.6 183.246C123.191 183.535 123.914 183.318 124.203 182.764Z" fill="#02CECB"/>
<path d="M204.306 118.292C203.703 120.968 202.51 126.126 198.014 132.358C194.76 136.853 188.589 143.494 182.538 152.172C178.175 158.428 175.644 162.128 174.258 164.177C173.27 165.635 172.583 167.262 172.245 168.962L182.707 200.396L157.83 202.577C157.83 202.577 148.453 169.83 148.453 156.102V156.09C148.453 154.499 148.441 152.799 148.393 150.991C148.212 142.59 145.777 135.961 170.064 135.732C170.16 135.732 170.256 135.66 170.365 135.624C171.317 135.262 172.763 134.599 174.885 132.876C175.246 132.587 175.62 132.273 176.018 131.924C178.392 129.826 180.634 128.175 182.755 126.874C193.808 120.015 204.86 115.857 204.306 118.292Z" fill="#FFB27D"/>
<path d="M206.04 102.346C205.678 98.3929 202.737 85.9786 202.737 85.9786C202.737 85.9786 199.857 86.6415 198.808 88.4855C195.723 93.8731 196.735 104.516 196.892 104.576C196.892 104.576 191.878 114.23 191.022 120.438C191.022 120.438 177.704 127.669 174.895 132.852C174.727 133.165 174.594 133.479 174.486 133.78C174.1 134.949 173.943 136.54 173.967 138.312C174.064 144.591 176.547 153.101 180.259 152.438C181.175 152.269 202.605 128.308 203.497 124.09C203.689 123.101 206.233 104.455 206.04 102.346Z" fill="#FFB27D"/>
<path d="M171.413 129.236C171.413 129.236 170.774 135.335 177.09 129.984L177.596 136.986L168.798 141.663L165.809 136.516L171.413 129.236Z" fill="#FFB27D"/>
<path d="M202.111 92.1137C201.991 91.8847 201.907 91.6316 201.87 91.3544C201.87 91.3544 201.533 88.9438 201.292 87.1841C201.135 86.015 201.919 85.0749 202.353 84.9062C202.63 84.7977 204.353 89.3054 204.426 93.5601C203.413 93.5721 202.545 92.9454 202.111 92.1137Z" fill="#FFC69F"/>
<path d="M191.011 120.438C188.131 121.378 170.618 133.298 169.666 133.66C167.472 136.432 167.111 140.518 168.171 140.976C169.618 141.591 172.836 140.349 174.981 138.385C177.862 135.745 178.693 132.262 179.549 130.333C179.935 129.466 182.49 128.2 183.454 126.923C186.009 123.572 190.686 120.691 191.011 120.438Z" fill="#F6A56E"/>
<path d="M157.492 131.816C157.492 131.816 180.296 113.447 182.815 108.783C182.815 108.783 186.829 110.229 185.226 116.328C183.623 122.415 172.414 133.359 171.739 137.674C169.22 153.885 160.012 158.874 160.012 158.874C160.012 158.874 135.026 149.955 157.492 131.816Z" fill="#FFB27D"/>
<path d="M181.358 115.581C181.563 115.412 181.755 115.219 181.9 114.99C181.9 114.99 183.25 112.917 184.238 111.398C184.889 110.398 184.684 109.096 183.744 108.325C183.515 108.132 183.37 108.048 183.37 108.048C182.262 109 179.236 110.952 177.332 114.797C178.248 115.195 180.598 116.171 181.358 115.581Z" fill="#FFC69F"/>
<path d="M192.914 211.087C179.427 211.087 165.108 211.087 150.524 211.075C150.09 201.3 149.705 191.597 149.452 185.029C149.452 184.896 149.44 184.775 149.44 184.643C149.259 179.846 149.15 176.809 149.15 176.809C149.15 176.809 149.199 176.784 149.283 176.748C149.56 176.628 150.235 176.326 151.211 175.929C152.646 175.35 154.731 174.579 157.069 173.904C162.167 172.421 168.519 171.349 172.34 173.603C172.81 173.868 173.232 174.193 173.618 174.567C173.895 174.844 174.148 175.145 174.389 175.471C174.389 175.471 174.389 175.483 174.401 175.507C174.57 175.82 175.92 178.387 177.884 182.112C182.055 189.994 188.913 203.072 192.914 211.087Z" fill="#02CECB"/>
<path d="M149.463 185.029C149.463 185.029 159.527 187.753 165.349 187.837L167.494 183.836L169.374 187.211C169.374 187.211 176.726 184.981 178.221 182.799L173.099 173.579L149.246 174.061L149.463 185.029Z" fill="#069E9C"/>
<path d="M149.874 168.963C149.874 168.963 146.776 176.17 146.113 184.703C146.113 184.703 158.238 186.053 164.012 185.342L166.543 175.326L170.219 184.029C170.219 184.029 176.896 183.161 179.222 181.365C179.222 181.365 174.895 173.964 172.171 169.059C172.184 169.047 160.938 172.434 149.874 168.963Z" fill="#F3F8FF"/>
<path d="M157.213 182.763C156.911 182.208 157.14 181.533 157.731 181.244C158.322 180.955 159.033 181.172 159.334 181.726C159.635 182.281 159.406 182.956 158.816 183.245C158.225 183.534 157.514 183.317 157.213 182.763Z" fill="#02CECB"/>
<path d="M60.8103 210.244L60.6536 210.22C60.0268 202.096 57.544 196.275 57.5078 196.19L57.6524 196.13C57.6886 196.202 60.1835 202.072 60.8103 210.244Z" fill="#A8D29F"/>
<path d="M55.8223 195.371C56.1236 195.72 57.5579 196.275 57.6543 196.19C57.7508 196.106 57.3771 194.612 57.0758 194.262C56.7745 193.912 56.2441 193.888 55.8946 194.19C55.5571 194.503 55.521 195.021 55.8223 195.371Z" fill="#CCDBFD"/>
<path d="M58.0276 194.165C57.7504 194.539 57.4973 196.057 57.6058 196.13C57.7142 196.214 59.0883 195.539 59.3655 195.166C59.6427 194.792 59.5704 194.274 59.1967 193.996C58.8231 193.719 58.2928 193.791 58.0276 194.165Z" fill="#CCDBFD"/>
<path d="M59.6673 195.781C59.2213 195.66 57.7147 195.986 57.6786 196.106C57.6424 196.227 58.7754 197.275 59.2213 197.396C59.6673 197.516 60.1253 197.251 60.2458 196.805C60.3784 196.359 60.1132 195.901 59.6673 195.781Z" fill="#CCDBFD"/>
<path d="M58.6555 197.781C58.6073 197.323 57.7757 196.034 57.6431 196.046C57.5105 196.058 56.944 197.48 56.9802 197.95C57.0284 198.408 57.4382 198.745 57.8962 198.697C58.3542 198.649 58.7037 198.251 58.6555 197.781Z" fill="#CCDBFD"/>
<path d="M56.3771 197.685C56.7869 197.468 57.6668 196.215 57.6065 196.094C57.5462 195.974 56.0035 195.986 55.5937 196.203C55.1839 196.42 55.0272 196.926 55.2441 197.336C55.4611 197.745 55.9673 197.902 56.3771 197.685Z" fill="#CCDBFD"/>
<path d="M57.8665 196.143C57.8906 195.992 57.7876 195.85 57.6364 195.826C57.4852 195.801 57.3431 195.904 57.319 196.056C57.2949 196.207 57.398 196.349 57.5491 196.373C57.7003 196.397 57.8424 196.294 57.8665 196.143Z" fill="#233862"/>
<path d="M60.0636 198.444C59.6056 198.998 59.1235 201.348 59.2802 201.481C59.4369 201.614 61.6305 200.649 62.0885 200.095C62.5465 199.541 62.4621 198.709 61.8956 198.263C61.3412 197.793 60.5216 197.877 60.0636 198.444Z" fill="#A8D29F"/>
<path d="M58.9443 205.181C59.4143 205.41 60.4629 206.808 60.3906 206.94C60.3303 207.073 58.5827 207.109 58.1006 206.88C57.6305 206.651 57.4377 206.085 57.6667 205.602C57.9077 205.144 58.4742 204.952 58.9443 205.181Z" fill="#A8D29F"/>
<path d="M65.3672 210.242L65.548 210.218C66.2711 200.889 69.1156 194.2 69.1518 194.116L68.983 194.043C68.9469 194.128 66.0783 200.865 65.3672 210.242Z" fill="#A8D29F"/>
<path d="M71.0817 193.164C70.7321 193.561 69.0809 194.2 68.9724 194.104C68.864 194.007 69.2858 192.296 69.6353 191.898C69.9849 191.5 70.5875 191.464 70.9973 191.814C71.395 192.163 71.4433 192.766 71.0817 193.164Z" fill="#CCDBFD"/>
<path d="M68.5619 191.777C68.8752 192.199 69.1645 193.947 69.044 194.031C68.9235 194.128 67.3325 193.344 67.0191 192.922C66.7057 192.5 66.7901 191.898 67.212 191.572C67.6459 191.271 68.2485 191.355 68.5619 191.777Z" fill="#CCDBFD"/>
<path d="M66.6691 193.634C67.1753 193.489 68.9109 193.863 68.9471 194.007C68.9832 194.152 67.6815 195.345 67.1753 195.49C66.6691 195.635 66.1388 195.333 65.9941 194.815C65.8616 194.297 66.1629 193.778 66.6691 193.634Z" fill="#CCDBFD"/>
<path d="M67.8381 195.936C67.8863 195.406 68.8505 193.923 68.9951 193.935C69.1518 193.947 69.8027 195.586 69.7544 196.117C69.7062 196.647 69.2362 197.033 68.7059 196.984C68.1755 196.936 67.7898 196.466 67.8381 195.936Z" fill="#CCDBFD"/>
<path d="M70.4529 195.827C69.9829 195.586 68.9704 194.14 69.0427 194.007C69.1151 193.875 70.8748 193.887 71.3448 194.128C71.8149 194.369 71.9957 194.96 71.7546 195.43C71.5015 195.888 70.923 196.068 70.4529 195.827Z" fill="#CCDBFD"/>
<path d="M69.0975 194.311C69.2684 194.284 69.3849 194.123 69.3577 193.952C69.3305 193.781 69.1699 193.665 68.9989 193.692C68.828 193.719 68.7115 193.88 68.7387 194.051C68.7659 194.222 68.9265 194.338 69.0975 194.311Z" fill="#233862"/>
<path d="M65.4154 200.709C65.9337 201.347 66.5002 204.047 66.3194 204.192C66.1386 204.337 63.6195 203.24 63.0892 202.601C62.5709 201.962 62.6674 201.01 63.3062 200.492C63.945 199.973 64.8971 200.07 65.4154 200.709Z" fill="#A8D29F"/>
<path d="M67.5121 204.433C66.9698 204.698 65.7765 206.301 65.8488 206.458C65.9212 206.615 67.934 206.663 68.4764 206.398C69.0187 206.132 69.2477 205.482 68.9826 204.939C68.7054 204.385 68.0545 204.168 67.5121 204.433Z" fill="#A8D29F"/>
<path d="M56.9902 211.002C56.9902 211.002 59.22 208.062 62.3778 209.134C65.5477 210.207 69.7662 209.231 69.7541 210.701L56.9902 211.002Z" fill="#A8D29F"/>
<defs>
<linearGradient id="paint0_linear_354_908" x1="133.402" y1="90.2297" x2="190.592" y2="46.237" gradientUnits="userSpaceOnUse">
<stop stop-color="#1E96FC"/>
<stop offset="0.555573" stop-color="#1E96FC" stop-opacity="0.7"/>
<stop offset="0.810423" stop-color="#1E96FC" stop-opacity="0.48"/>
<stop offset="1" stop-color="#1E96FC" stop-opacity="0.16"/>
</linearGradient>
<linearGradient id="paint1_linear_354_908" x1="176.551" y1="86.0715" x2="116.467" y2="134.343" gradientUnits="userSpaceOnUse">
<stop stop-color="#FCF300"/>
<stop offset="0.431531" stop-color="#FCF300" stop-opacity="0.66"/>
<stop offset="0.765125" stop-color="#FCF300" stop-opacity="0.41"/>
<stop offset="1" stop-color="#FCF300" stop-opacity="0.13"/>
</linearGradient>
</defs>
</svg>
