<svg width="661" height="483" viewBox="0 0 661 483" fill="none" xmlns="http://www.w3.org/2000/svg">
<path d="M633.025 482.891C619.396 482.891 544.242 482.918 450.012 482.891C425.693 482.891 400.071 482.891 373.937 482.863C369.334 482.863 364.706 482.863 360.078 482.863C341.359 482.863 322.437 482.835 303.565 482.835C298.476 482.835 293.413 482.835 288.35 482.835C257.69 482.808 227.363 482.78 198.493 482.753C86.0559 482.614 52.9667 481.618 52.9667 481.563C52.7366 480.982 -50.3923 424.135 31.7681 305.185C73.0913 245.295 26.0146 180.176 61.2518 123.08C111.09 42.2768 193.609 89.6633 250.223 64.0475C260.222 59.5384 270.271 52.2631 280.321 41.0873C285.972 34.8078 292.186 29.3306 298.809 24.5725C299.832 23.8533 300.855 23.1341 301.903 22.4425C305.867 19.7869 309.984 17.4079 314.228 15.2502C317.067 13.8117 319.982 12.4562 322.948 11.239C327.653 9.30264 332.461 7.61521 337.396 6.17674C344.377 4.15735 351.588 2.6359 358.927 1.64003C362.123 1.19743 365.345 0.837809 368.618 0.588843C431.882 -4.52879 503.047 24.2406 539.792 66.2881C547.183 74.753 580.809 118.571 554.317 178.765C537.568 216.774 607.71 253.095 632.616 296.498C695.956 406.873 633.588 481.452 633.025 482.891Z" fill="#D9E3F7"/>
<path d="M91.5742 173.869C91.5742 173.869 103.525 149.858 132.1 152.513C132.1 152.513 173.567 112.485 217.8 147.174C217.8 147.174 264.827 138.571 299.627 154.616C322.836 165.321 330.498 176.525 330.498 176.525L91.5742 173.869Z" fill="#F8FCFF"/>
<g opacity="0.5">
<path opacity="0.5" d="M237.832 365.739C237.832 365.739 209.339 338.685 179.076 333.539C175.064 332.848 172.409 337.633 175.064 340.704C175.12 340.759 175.147 340.815 175.203 340.87C179.85 346.071 215.812 354.369 237.832 365.739Z" fill="#AEC3FF"/>
<path opacity="0.5" d="M246.82 372.793C246.82 372.793 200.346 348.007 160.373 353.152C157.939 353.457 156.086 355.614 156.307 358.076C156.445 359.681 157.441 361.507 160.29 363.332C167.87 368.201 215.506 366.154 246.82 372.793Z" fill="#AEC3FF"/>
</g>
<g opacity="0.5">
<path opacity="0.5" d="M417.027 326.264C417.027 326.264 439.739 304.714 463.833 300.62C467.042 300.067 469.144 303.857 467.014 306.319C466.986 306.347 466.931 306.402 466.903 306.43C463.197 310.607 434.538 317.19 417.027 326.264Z" fill="#AEC3FF"/>
<path opacity="0.5" d="M409.867 331.879C409.867 331.879 446.88 312.128 478.72 316.222C480.656 316.471 482.15 318.186 481.957 320.15C481.846 321.423 481.044 322.889 478.775 324.355C472.745 328.228 434.791 326.596 409.867 331.879Z" fill="#AEC3FF"/>
</g>
<path opacity="0.3" d="M226.573 392.461C226.573 392.461 232.271 416.666 227.679 417.44C223.087 418.215 223.281 390.026 223.281 390.026C223.281 390.026 200.099 380.123 191.247 381.395C191.247 381.395 206.379 404.605 201.759 404.245C197.14 403.885 180.265 380.455 180.265 380.455C180.265 380.455 156.807 377.191 153.709 391.133C150.583 405.075 156.918 411.714 160.403 412.406C163.889 413.097 185.991 411.825 185.549 414.729C185.106 417.634 170.362 422.89 161.925 420.677C161.925 420.677 172.132 442.945 184.138 441.258C196.144 439.57 199.546 431.935 206.988 431.023C214.429 430.11 219.961 431.88 216.338 434.066C212.686 436.251 199.989 435.449 194.207 440.843C188.398 446.237 183.64 449.75 194.954 451.41C225.937 455.975 233.572 433.291 233.572 433.291C233.572 433.291 254.568 420.262 243.779 404.356C243.779 404.356 235.287 394.674 226.573 392.461Z" fill="#AEC3FF"/>
<path opacity="0.5" d="M453.904 355.78C451.138 341.7 427.486 344.383 427.486 344.383C427.486 344.383 409.948 367.482 405.301 367.731C400.653 367.979 416.449 345.075 416.449 345.075C407.569 343.581 384.056 352.931 384.056 352.931C384.056 352.931 383.53 381.258 378.966 380.372C374.401 379.487 380.709 355.31 380.709 355.31C371.884 357.302 363.115 366.818 363.115 366.818C351.884 382.53 372.631 396.14 372.631 396.14C372.631 396.14 372.244 405.961 365.411 416.777C365.411 416.777 363.89 418.768 362.257 422.171L364.609 422.337C364.858 421.728 365.107 421.12 365.383 420.567V420.539C365.577 420.179 365.826 419.681 366.158 419.073C366.988 417.717 367.541 416.694 367.901 415.975C370.363 411.714 373.876 406.154 376.034 405.103C376.034 405.103 375.812 404.716 375.619 403.997C375.757 404.356 375.895 404.716 376.034 405.103C379.464 414.038 399.519 416.887 410.916 415.366C422.313 413.844 417.638 410.331 411.94 404.771C406.241 399.211 393.489 399.681 389.893 397.385C386.296 395.117 391.912 393.485 399.353 394.563C406.795 395.67 410.031 403.416 422.037 405.407C434.043 407.399 444.859 385.296 444.859 385.296C436.311 387.316 421.677 381.645 421.29 378.74C420.903 375.808 443.061 377.661 446.601 377.025C450.142 376.361 456.671 369.888 453.904 355.78Z" fill="#AEC3FF"/>
<path opacity="0.5" d="M299.684 446.957C300.984 449.889 317.969 451.272 326.212 446.569C326.212 446.569 321.759 472.905 308.619 474.509C295.507 476.113 289.78 469.032 281.675 470.194C273.598 471.328 268.231 474.758 272.685 476.03C277.138 477.303 290.278 472.877 297.913 476.943C301.426 478.797 304.58 480.263 305.852 481.812C302.505 481.812 299.13 481.812 295.783 481.812C282.173 481.812 268.397 481.812 254.676 481.784C254.51 480.678 254.344 480.069 254.344 480.069C254.344 480.069 228.562 472.268 235.423 452.489C235.423 452.489 241.619 439.903 250.195 435.117C250.195 435.117 251.025 462.199 256.059 461.729C261.094 461.258 252.961 431.632 252.961 431.632C252.961 431.632 274.566 414.674 284.248 413.512C284.248 413.512 274.842 442.199 279.628 440.511C284.386 438.824 295.562 409.418 295.562 409.418C295.562 409.418 319.324 399.377 326.544 413.18C333.764 426.984 328.951 435.753 325.493 437.468C322.035 439.156 298.411 444.052 299.684 446.957Z" fill="#AEC3FF"/>
<path d="M272.82 91.2678C272.82 91.2678 282.06 73.8956 304.135 75.832C304.135 75.832 336.168 46.8689 370.36 71.9592C370.36 71.9592 406.681 65.735 433.597 77.3534C451.522 85.099 457.47 93.2042 457.47 93.2042L272.82 91.2678Z" fill="#F8FCFF"/>
<path d="M415.836 62.8305C415.836 62.8305 420.539 53.3698 431.797 54.421C431.797 54.421 448.146 38.6531 465.546 52.3186C465.546 52.3186 484.053 48.9437 497.773 55.2508C506.93 59.4556 509.945 63.8817 509.945 63.8817L415.836 62.8305Z" fill="#F8FCFF"/>
<path d="M101.949 111.794C101.949 111.794 106.652 102.333 117.911 103.384C117.911 103.384 134.259 87.6163 151.659 101.282C151.659 101.282 170.166 97.9068 183.887 104.214C193.043 108.419 196.058 112.845 196.058 112.845L101.949 111.794Z" fill="#F8FCFF"/>
<path d="M416.147 456.14C418 456.887 424.667 456.279 424.889 455.753C425.11 455.228 420.739 450.138 418.886 449.391C417.032 448.644 414.902 449.529 414.155 451.41C413.381 453.264 414.294 455.366 416.147 456.14Z" fill="#A8D29F"/>
<path d="M432.938 459.294C431.886 461.009 431.416 467.676 431.914 467.98C432.412 468.284 438.111 464.799 439.162 463.084C440.213 461.369 439.66 459.128 437.945 458.077C436.229 457.026 433.989 457.579 432.938 459.294Z" fill="#A8D29F"/>
<path d="M423.973 472.351C425.882 472.959 432.466 471.853 432.659 471.3C432.825 470.746 428.095 466.016 426.186 465.407C424.278 464.799 422.23 465.85 421.622 467.759C421.013 469.668 422.064 471.742 423.973 472.351Z" fill="#A8D29F"/>
<path d="M433.658 478.796C433.658 478.658 432.911 463.554 424.668 455.781L424.834 455.587C433.16 463.443 433.907 478.63 433.907 478.796H433.658Z" fill="#A8D29F"/>
<path d="M461.236 456.445C460.075 457.22 455.482 457.718 455.261 457.386C455.04 457.054 457.308 453.015 458.442 452.241C459.604 451.466 461.153 451.798 461.928 452.96C462.702 454.122 462.398 455.671 461.236 456.445Z" fill="#A8D29F"/>
<path d="M450.282 460.927C451.222 461.95 452.467 466.404 452.191 466.681C451.886 466.957 447.543 465.38 446.603 464.357C445.662 463.333 445.718 461.729 446.741 460.788C447.765 459.848 449.314 459.903 450.282 460.927Z" fill="#A8D29F"/>
<path d="M458.166 468.562C456.949 469.253 452.329 469.391 452.135 469.06C451.942 468.728 454.487 464.855 455.704 464.163C456.921 463.472 458.443 463.914 459.134 465.131C459.826 466.321 459.383 467.87 458.166 468.562Z" fill="#A8D29F"/>
<path d="M452.467 474.26C452.439 474.149 450.862 463.804 455.399 457.386L455.261 457.275C450.696 463.776 452.301 474.177 452.301 474.288L452.467 474.26Z" fill="#A8D29F"/>
<path d="M444.309 477.911L443.784 477.828C441.709 451.051 433.548 431.825 433.41 431.576L433.88 431.382C434.019 431.631 442.235 450.968 444.309 477.911Z" fill="#A8D29F"/>
<path d="M427.88 428.893C428.876 430.027 433.606 431.88 433.938 431.576C434.27 431.299 433.026 426.375 432.03 425.241C431.034 424.107 429.291 423.996 428.129 424.992C426.967 425.988 426.857 427.731 427.88 428.893Z" fill="#CCDBFD"/>
<path d="M435.102 424.909C434.189 426.126 433.359 431.133 433.719 431.382C434.078 431.631 438.615 429.418 439.528 428.201C440.441 426.984 440.192 425.241 438.975 424.328C437.757 423.415 436.015 423.692 435.102 424.909Z" fill="#CCDBFD"/>
<path d="M440.55 430.221C439.084 429.833 434.133 430.884 434.022 431.299C433.911 431.714 437.646 435.145 439.112 435.559C440.578 435.947 442.099 435.089 442.487 433.623C442.874 432.129 442.016 430.608 440.55 430.221Z" fill="#CCDBFD"/>
<path d="M437.202 436.832C437.064 435.311 434.298 431.051 433.883 431.106C433.44 431.161 431.559 435.864 431.725 437.358C431.863 438.879 433.219 439.986 434.74 439.847C436.234 439.709 437.341 438.354 437.202 436.832Z" fill="#CCDBFD"/>
<path d="M429.678 436.528C431.033 435.808 433.938 431.659 433.744 431.272C433.551 430.884 428.488 430.912 427.133 431.631C425.777 432.351 425.252 434.01 425.971 435.366C426.69 436.721 428.322 437.219 429.678 436.528Z" fill="#CCDBFD"/>
<path d="M434.654 431.413C434.733 430.915 434.394 430.447 433.896 430.367C433.398 430.288 432.93 430.627 432.851 431.125C432.771 431.623 433.111 432.091 433.609 432.171C434.106 432.25 434.574 431.911 434.654 431.413Z" fill="#163560"/>
<path d="M444.146 450.553C442.652 452.406 441.02 460.124 441.546 460.567C442.072 461.009 449.319 457.828 450.813 456.002C452.307 454.149 452.03 451.438 450.177 449.944C448.379 448.423 445.668 448.699 444.146 450.553Z" fill="#A8D29F"/>
<path d="M414.49 480.65H414.13C410.395 463.056 403.286 451.023 403.203 450.857L403.507 450.691C403.59 450.857 410.755 462.973 414.49 480.65Z" fill="#A8D29F"/>
<path d="M399.281 449.557C400.056 450.221 403.348 451.023 403.541 450.802C403.735 450.581 402.49 447.427 401.716 446.763C400.941 446.099 399.779 446.182 399.115 446.957C398.424 447.731 398.507 448.893 399.281 449.557Z" fill="#CCDBFD"/>
<path d="M403.734 446.293C403.236 447.178 403.125 450.581 403.374 450.719C403.623 450.857 406.445 448.976 406.943 448.091C407.441 447.206 407.109 446.072 406.223 445.574C405.338 445.076 404.232 445.408 403.734 446.293Z" fill="#CCDBFD"/>
<path d="M407.795 449.336C406.772 449.197 403.59 450.332 403.563 450.636C403.535 450.912 406.301 452.877 407.325 453.015C408.348 453.153 409.261 452.434 409.4 451.438C409.51 450.415 408.791 449.474 407.795 449.336Z" fill="#CCDBFD"/>
<path d="M406.165 454.038C405.943 453.043 403.73 450.47 403.454 450.525C403.177 450.581 402.347 453.873 402.568 454.868C402.79 455.864 403.786 456.473 404.781 456.252C405.777 456.003 406.386 455.034 406.165 454.038Z" fill="#CCDBFD"/>
<path d="M401.13 454.481C401.96 453.9 403.536 450.885 403.37 450.636C403.204 450.387 399.83 450.857 399 451.466C398.17 452.047 397.976 453.209 398.557 454.038C399.138 454.868 400.3 455.062 401.13 454.481Z" fill="#CCDBFD"/>
<path d="M404.002 450.624C404.011 450.288 403.746 450.008 403.41 449.999C403.074 449.99 402.794 450.255 402.786 450.591C402.777 450.927 403.042 451.207 403.378 451.216C403.714 451.225 403.994 450.96 404.002 450.624Z" fill="#163560"/>
<path d="M411.973 462.503C411.143 463.859 410.756 469.142 411.143 469.364C411.53 469.612 416.067 466.874 416.897 465.518C417.727 464.163 417.312 462.392 415.956 461.563C414.573 460.733 412.803 461.148 411.973 462.503Z" fill="#A8D29F"/>
<path d="M471.285 478.326L471.755 478.243C473.609 454.398 480.884 437.275 480.995 437.053L480.58 436.86C480.469 437.109 473.139 454.343 471.285 478.326Z" fill="#A8D29F"/>
<path d="M485.915 434.674C485.03 435.698 480.825 437.33 480.521 437.081C480.244 436.832 481.323 432.461 482.236 431.437C483.149 430.414 484.698 430.331 485.694 431.216C486.717 432.101 486.828 433.651 485.915 434.674Z" fill="#CCDBFD"/>
<path d="M479.469 431.106C480.271 432.184 481.018 436.638 480.714 436.887C480.409 437.108 476.343 435.144 475.541 434.065C474.738 432.987 474.96 431.438 476.039 430.635C477.117 429.833 478.667 430.027 479.469 431.106Z" fill="#CCDBFD"/>
<path d="M474.655 435.864C475.955 435.504 480.381 436.445 480.492 436.832C480.602 437.219 477.283 440.262 475.955 440.622C474.655 440.981 473.299 440.207 472.94 438.907C472.552 437.551 473.327 436.196 474.655 435.864Z" fill="#CCDBFD"/>
<path d="M477.614 441.756C477.752 440.4 480.187 436.611 480.574 436.638C480.961 436.666 482.621 440.871 482.51 442.226C482.372 443.582 481.183 444.578 479.827 444.439C478.472 444.301 477.503 443.111 477.614 441.756Z" fill="#CCDBFD"/>
<path d="M484.313 441.451C483.124 440.815 480.524 437.136 480.717 436.776C480.911 436.444 485.42 436.472 486.609 437.108C487.799 437.745 488.269 439.238 487.633 440.428C486.997 441.617 485.531 442.088 484.313 441.451Z" fill="#CCDBFD"/>
<path d="M480.826 437.576C481.263 437.506 481.562 437.095 481.492 436.658C481.422 436.22 481.011 435.922 480.573 435.992C480.136 436.061 479.838 436.473 479.908 436.91C479.977 437.348 480.388 437.646 480.826 437.576Z" fill="#163560"/>
<path d="M470.204 460.345C471.531 461.977 472.97 468.865 472.5 469.253C472.029 469.64 465.584 466.818 464.256 465.186C462.928 463.554 463.177 461.12 464.809 459.792C466.441 458.436 468.876 458.685 470.204 460.345Z" fill="#A8D29F"/>
<path d="M395.621 482.503C395.621 482.503 398.277 475.56 407.876 475.117C417.475 474.675 424.086 480.345 432.025 477.745C439.965 475.117 453.104 469.197 465.525 473.153C477.946 477.081 480.048 482.531 480.048 482.531H395.621V482.503Z" fill="#A8D29F"/>
<path d="M91.5024 482.448H108.1C108.985 481.701 107.491 479.986 105.915 479.875C105.223 479.82 104.366 479.958 103.37 480.18C103.148 477.137 101.848 463.527 96.9243 464.052C91.3917 464.661 96.9243 470.055 98.4734 473.236C99.6352 475.588 100.852 478.99 101.406 480.595C100.963 480.705 100.493 480.788 100.023 480.871C99.3033 478.631 96.5647 471.051 93.1068 471.494C89.0404 472.019 90.6725 475.034 93.5494 476.833C95.6518 478.16 98.2521 480.041 99.4969 480.954C98.4457 481.12 97.3669 481.231 96.2604 481.203C93.4388 481.176 92.028 482.005 91.5024 482.448Z" fill="#A8D29F"/>
<path d="M532.382 481.867H515.784C514.899 481.12 516.392 479.405 517.969 479.295C518.661 479.239 519.518 479.378 520.514 479.599C520.735 476.556 522.036 462.946 526.96 463.471C532.492 464.08 526.96 469.474 525.41 472.655C524.249 475.007 523.031 478.409 522.478 480.014C522.921 480.124 523.391 480.207 523.861 480.29C524.581 478.05 527.319 470.47 530.777 470.913C534.843 471.438 533.211 474.454 530.334 476.252C528.232 477.579 525.632 479.46 524.387 480.373C525.438 480.539 526.517 480.65 527.624 480.622C530.445 480.567 531.828 481.425 532.382 481.867Z" fill="#A8D29F"/>
<path fill-rule="evenodd" clip-rule="evenodd" d="M327.823 143.551C327.823 143.551 391.614 71.4059 436.566 133.094C450.383 152.063 444.986 175.745 430.881 199.45C430.881 199.45 394.621 210.419 370.773 210.238C355.55 210.123 344.125 204.877 332.859 199.705C320.661 194.106 308.65 188.592 292.21 189.768C267.333 191.547 252.561 196.545 231.716 210.238C211.841 180.164 201.562 149.054 219.883 126.759C268.348 67.7821 327.823 143.551 327.823 143.551Z" fill="url(#paint0_linear_347_775)"/>
<path d="M231.716 210.238C264.416 259.721 323.093 306.402 323.093 306.402C323.093 306.402 399.096 252.867 430.881 199.45C430.881 199.45 394.621 210.419 370.773 210.238C355.55 210.123 344.125 204.877 332.859 199.705C320.661 194.106 308.65 188.592 292.21 189.768C267.333 191.547 252.561 196.545 231.716 210.238Z" fill="url(#paint1_linear_347_775)"/>
<path d="M416.101 155.214C411.343 156.735 406.143 154.882 403.487 150.677C400.61 146.168 395.99 140.995 389.241 139.446C384.704 138.422 381.855 133.913 382.906 129.376C383.929 124.84 388.438 121.991 392.975 123.042C407.581 126.361 415.963 137.952 420.057 145.725C421.966 149.377 420.085 153.941 416.101 155.214Z" fill="white" fill-opacity="0.5"/>
<path d="M308.436 282.408C300.026 274.302 277.26 249.074 277.26 249.074C273.581 245.505 268.242 237.013 271.81 233.334C275.379 229.654 285.669 239.005 289.348 242.573C289.348 242.573 305.835 262.684 315.103 269.378C325.255 276.737 329.404 282.463 325.836 286.142C324.038 288.023 315.822 289.545 308.436 282.408Z" fill="white" fill-opacity="0.5"/>
<path d="M176.98 269.665C178.363 275.806 181.101 287.646 191.42 301.948C198.889 312.266 213.052 327.508 226.939 347.425C236.953 361.782 242.762 370.275 245.943 374.978C248.211 378.325 249.788 382.059 250.563 385.96L226.551 458.105L283.648 463.112C283.648 463.112 305.169 387.952 305.169 356.444V356.416C305.169 352.764 305.197 348.864 305.308 344.714C305.723 325.433 311.31 310.219 255.57 309.693C255.348 309.693 255.127 309.527 254.878 309.444C252.693 308.614 249.373 307.093 244.505 303.137C243.675 302.473 242.817 301.754 241.904 300.952C236.455 296.139 231.309 292.349 226.441 289.361C201.074 273.621 175.707 264.077 176.98 269.665Z" fill="#FFB27D"/>
<path d="M172.997 233.067C173.826 223.994 180.576 195.501 180.576 195.501C180.576 195.501 187.188 197.023 189.594 201.255C196.676 213.62 194.352 238.047 193.993 238.185C193.993 238.185 205.5 260.343 207.465 274.589C207.465 274.589 238.032 291.187 244.477 303.082C244.865 303.801 245.169 304.521 245.418 305.212C246.303 307.895 246.663 311.547 246.607 315.613C246.386 330.026 240.688 349.556 232.167 348.034C230.065 347.647 180.88 292.653 178.833 282.971C178.391 280.703 172.554 237.908 172.997 233.067Z" fill="#FFB27D"/>
<path d="M252.468 294.783C252.468 294.783 253.935 308.781 239.439 296.498L238.277 312.57L258.471 323.303L265.332 311.491L252.468 294.783Z" fill="#FFB27D"/>
<path d="M182.018 209.582C182.295 209.056 182.489 208.475 182.572 207.839C182.572 207.839 183.346 202.306 183.899 198.267C184.259 195.584 182.461 193.426 181.465 193.039C180.829 192.79 176.873 203.136 176.707 212.901C179.031 212.929 181.022 211.49 182.018 209.582Z" fill="#FFC69F"/>
<path d="M207.492 274.589C214.104 276.747 254.298 304.105 256.483 304.935C261.518 311.298 262.348 320.675 259.913 321.727C256.594 323.137 249.208 320.288 244.284 315.779C237.672 309.721 235.764 301.726 233.8 297.3C232.914 295.308 227.05 292.404 224.837 289.472C218.972 281.781 208.239 275.17 207.492 274.589Z" fill="#F6A56E"/>
<path d="M284.418 300.703C284.418 300.703 232.08 258.545 226.299 247.839C226.299 247.839 217.087 251.159 220.766 265.156C224.445 279.126 250.172 304.244 251.721 314.147C257.502 351.354 278.637 362.806 278.637 362.806C278.637 362.806 335.982 342.336 284.418 300.703Z" fill="#FFB27D"/>
<path d="M229.647 263.441C229.177 263.054 228.734 262.611 228.403 262.086C228.403 262.086 225.304 257.328 223.036 253.842C221.542 251.546 222.012 248.559 224.17 246.788C224.696 246.346 225.028 246.152 225.028 246.152C227.573 248.337 234.129 252.431 238.499 261.284C236.093 262.999 231.39 264.797 229.647 263.441Z" fill="#FFC69F"/>
<path d="M303.564 403.969C303.564 403.969 303.315 410.912 302.9 421.949C302.9 422.226 302.872 422.53 302.872 422.835C302.291 437.911 301.406 460.152 300.41 482.586C267.243 482.559 234.434 482.531 203.203 482.503C212.415 464.108 228.072 434.204 237.588 416.168C242.097 407.592 245.223 401.7 245.583 401.009C245.61 400.953 245.61 400.926 245.61 400.926C246.136 400.151 246.717 399.46 247.381 398.851C248.266 397.993 249.234 397.247 250.313 396.638C259.082 391.493 273.688 393.927 285.362 397.33C290.756 398.906 295.514 400.677 298.806 401.977C301.047 402.89 302.623 403.581 303.232 403.858C303.453 403.913 303.564 403.969 303.564 403.969Z" fill="#02CECB"/>
<path d="M302.871 422.835C302.871 422.835 279.772 429.086 266.411 429.28L261.487 420.096L257.172 427.842C257.172 427.842 240.297 422.724 236.867 417.717L248.624 396.555L303.369 397.661L302.871 422.835Z" fill="#069E9C"/>
<path d="M301.902 385.96C301.902 385.96 309.011 402.502 310.533 422.088C310.533 422.088 282.704 425.186 269.454 423.554L263.644 400.566L255.207 420.539C255.207 420.539 239.882 418.547 234.543 414.425C234.543 414.425 244.474 397.44 250.726 386.181C250.698 386.154 276.508 393.927 301.902 385.96Z" fill="#F3F8FF"/>
<path d="M285.06 417.634C285.751 416.362 285.226 414.812 283.87 414.148C282.515 413.485 280.883 413.983 280.191 415.255C279.499 416.528 280.025 418.077 281.38 418.741C282.736 419.404 284.396 418.907 285.06 417.634Z" fill="#02CECB"/>
<path d="M468.911 269.665C467.528 275.806 464.789 287.646 454.471 301.948C447.002 312.266 432.838 327.508 418.952 347.426C408.938 361.783 403.129 370.275 399.947 374.978C397.679 378.325 396.102 382.059 395.328 385.96L419.339 458.105L362.243 463.112C362.243 463.112 340.721 387.952 340.721 356.444V356.416C340.721 352.764 340.693 348.864 340.583 344.715C340.168 325.434 334.58 310.219 390.321 309.693C390.542 309.693 390.763 309.527 391.012 309.444C393.198 308.615 396.517 307.093 401.386 303.137C402.216 302.473 403.073 301.754 403.986 300.952C409.436 296.139 414.581 292.349 419.45 289.361C444.816 273.621 470.183 264.077 468.911 269.665Z" fill="#FFB27D"/>
<path d="M472.894 233.067C472.064 223.994 465.314 195.501 465.314 195.501C465.314 195.501 458.703 197.023 456.296 201.255C449.214 213.62 451.538 238.047 451.898 238.185C451.898 238.185 440.39 260.343 438.426 274.589C438.426 274.589 407.858 291.187 401.413 303.082C401.026 303.801 400.721 304.521 400.472 305.212C399.587 307.895 399.228 311.547 399.283 315.613C399.504 330.026 405.203 349.556 413.723 348.034C415.825 347.647 465.01 292.653 467.057 282.971C467.499 280.703 473.336 237.908 472.894 233.067Z" fill="#FFB27D"/>
<path d="M393.414 294.783C393.414 294.783 391.948 308.781 406.443 296.498L407.605 312.57L387.411 323.304L380.551 311.492L393.414 294.783Z" fill="#FFB27D"/>
<path d="M463.873 209.582C463.597 209.056 463.403 208.475 463.32 207.839C463.32 207.839 462.545 202.306 461.992 198.267C461.633 195.584 463.431 193.426 464.426 193.039C465.063 192.79 469.019 203.136 469.184 212.901C466.861 212.929 464.869 211.49 463.873 209.582Z" fill="#FFC69F"/>
<path d="M438.398 274.589C431.786 276.747 391.592 304.105 389.407 304.935C384.372 311.298 383.542 320.675 385.977 321.727C389.296 323.137 396.682 320.288 401.606 315.779C408.217 309.721 410.126 301.726 412.09 297.3C412.975 295.308 418.84 292.404 421.053 289.472C426.918 281.781 437.651 275.17 438.398 274.589Z" fill="#F6A56E"/>
<path d="M361.466 300.703C361.466 300.703 413.804 258.545 419.585 247.839C419.585 247.839 428.797 251.159 425.118 265.156C421.439 279.126 395.712 304.244 394.163 314.147C388.382 351.354 367.247 362.806 367.247 362.806C367.247 362.806 309.902 342.336 361.466 300.703Z" fill="#FFB27D"/>
<path d="M416.239 263.441C416.71 263.054 417.152 262.611 417.484 262.086C417.484 262.086 420.582 257.328 422.851 253.842C424.345 251.546 423.874 248.559 421.717 246.788C421.191 246.346 420.859 246.152 420.859 246.152C418.314 248.337 411.371 252.819 407 261.643C409.102 262.556 414.497 264.797 416.239 263.441Z" fill="#FFC69F"/>
<path d="M442.764 482.642C411.809 482.642 378.946 482.642 345.474 482.614C344.478 460.18 343.593 437.911 343.012 422.835C343.012 422.53 342.984 422.254 342.984 421.95C342.569 410.94 342.32 403.969 342.32 403.969C342.32 403.969 342.431 403.913 342.625 403.83C343.261 403.554 344.81 402.862 347.051 401.949C350.343 400.621 355.128 398.851 360.495 397.302C372.196 393.899 386.774 391.437 395.544 396.61C396.622 397.219 397.591 397.966 398.476 398.823C399.112 399.46 399.693 400.151 400.246 400.898C400.246 400.898 400.246 400.926 400.274 400.981C400.661 401.7 403.759 407.593 408.269 416.14C417.84 434.232 433.58 464.246 442.764 482.642Z" fill="#02CECB"/>
<path d="M343.045 422.835C343.045 422.835 366.143 429.086 379.504 429.28L384.428 420.096L388.744 427.842C388.744 427.842 405.618 422.724 409.048 417.717L397.292 396.555L342.547 397.661L343.045 422.835Z" fill="#069E9C"/>
<path d="M343.982 385.96C343.982 385.96 336.873 402.502 335.352 422.088C335.352 422.088 363.18 425.186 376.431 423.554L382.24 400.566L390.677 420.539C390.677 420.539 406.003 418.547 411.341 414.425C411.341 414.425 401.41 397.44 395.159 386.181C395.186 386.154 369.377 393.927 343.982 385.96Z" fill="#F3F8FF"/>
<path d="M360.828 417.634C360.136 416.361 360.662 414.812 362.017 414.148C363.373 413.484 365.005 413.982 365.696 415.255C366.388 416.527 365.862 418.077 364.507 418.74C363.151 419.404 361.519 418.906 360.828 417.634Z" fill="#02CECB"/>
<path d="M139.568 480.706L139.208 480.65C137.77 462.005 132.071 448.644 131.988 448.451L132.32 448.312C132.403 448.478 138.129 461.95 139.568 480.706Z" fill="#A8D29F"/>
<path d="M128.111 446.57C128.803 447.372 132.095 448.644 132.316 448.451C132.537 448.257 131.68 444.827 130.988 444.025C130.297 443.223 129.08 443.167 128.277 443.859C127.503 444.578 127.42 445.768 128.111 446.57Z" fill="#CCDBFD"/>
<path d="M133.179 443.804C132.543 444.661 131.962 448.147 132.211 448.313C132.46 448.506 135.614 446.957 136.25 446.1C136.886 445.242 136.72 444.052 135.863 443.416C135.005 442.78 133.788 442.946 133.179 443.804Z" fill="#CCDBFD"/>
<path d="M136.941 447.51C135.918 447.234 132.46 447.981 132.377 448.257C132.294 448.534 134.894 450.941 135.918 451.217C136.941 451.494 137.992 450.885 138.269 449.862C138.573 448.838 137.965 447.787 136.941 447.51Z" fill="#CCDBFD"/>
<path d="M134.615 452.102C134.504 451.051 132.595 448.091 132.291 448.119C131.987 448.147 130.686 451.411 130.769 452.49C130.88 453.541 131.821 454.315 132.872 454.205C133.923 454.094 134.725 453.181 134.615 452.102Z" fill="#CCDBFD"/>
<path d="M129.387 451.881C130.327 451.383 132.347 448.506 132.209 448.23C132.07 447.953 128.529 447.981 127.589 448.479C126.648 448.976 126.289 450.138 126.787 451.079C127.285 452.019 128.446 452.379 129.387 451.881Z" fill="#CCDBFD"/>
<path d="M132.81 448.343C132.865 447.996 132.629 447.67 132.282 447.614C131.935 447.559 131.609 447.795 131.553 448.142C131.498 448.489 131.734 448.816 132.081 448.871C132.428 448.926 132.755 448.69 132.81 448.343Z" fill="#233862"/>
<path d="M137.848 453.624C136.797 454.896 135.69 460.29 136.05 460.595C136.409 460.899 141.444 458.686 142.495 457.414C143.546 456.141 143.353 454.232 142.053 453.209C140.78 452.13 138.899 452.324 137.848 453.624Z" fill="#A8D29F"/>
<path d="M135.282 469.087C136.361 469.613 138.768 472.821 138.602 473.126C138.464 473.43 134.452 473.513 133.346 472.987C132.267 472.462 131.824 471.162 132.35 470.055C132.903 469.004 134.203 468.561 135.282 469.087Z" fill="#A8D29F"/>
<path d="M150.031 480.705L150.446 480.65C152.106 459.239 158.634 443.886 158.717 443.692L158.33 443.526C158.247 443.72 151.663 459.184 150.031 480.705Z" fill="#A8D29F"/>
<path d="M163.139 441.507C162.336 442.42 158.547 443.886 158.298 443.665C158.049 443.443 159.017 439.515 159.819 438.602C160.621 437.689 162.004 437.606 162.945 438.409C163.858 439.211 163.969 440.594 163.139 441.507Z" fill="#CCDBFD"/>
<path d="M157.358 438.326C158.077 439.294 158.741 443.305 158.464 443.499C158.187 443.72 154.536 441.922 153.817 440.954C153.097 439.985 153.291 438.602 154.259 437.855C155.255 437.164 156.638 437.357 157.358 438.326Z" fill="#CCDBFD"/>
<path d="M153.019 442.586C154.181 442.254 158.165 443.111 158.248 443.443C158.331 443.775 155.343 446.514 154.181 446.846C153.019 447.178 151.802 446.486 151.47 445.297C151.166 444.107 151.857 442.918 153.019 442.586Z" fill="#CCDBFD"/>
<path d="M155.705 447.869C155.815 446.652 158.028 443.25 158.36 443.277C158.72 443.305 160.214 447.067 160.103 448.284C159.992 449.502 158.914 450.387 157.696 450.276C156.479 450.165 155.594 449.087 155.705 447.869Z" fill="#CCDBFD"/>
<path d="M161.702 447.62C160.623 447.067 158.299 443.748 158.465 443.443C158.631 443.139 162.67 443.167 163.749 443.72C164.828 444.273 165.243 445.629 164.69 446.708C164.109 447.759 162.781 448.174 161.702 447.62Z" fill="#CCDBFD"/>
<path d="M158.593 444.139C158.985 444.077 159.252 443.708 159.19 443.316C159.128 442.924 158.759 442.656 158.367 442.719C157.974 442.781 157.707 443.15 157.769 443.542C157.832 443.935 158.2 444.202 158.593 444.139Z" fill="#233862"/>
<path d="M150.139 458.824C151.329 460.29 152.629 466.487 152.214 466.819C151.799 467.15 146.017 464.633 144.8 463.167C143.611 461.701 143.832 459.516 145.298 458.326C146.764 457.137 148.95 457.358 150.139 458.824Z" fill="#A8D29F"/>
<path d="M154.954 467.372C153.709 467.98 150.97 471.66 151.136 472.019C151.302 472.379 155.922 472.489 157.167 471.881C158.411 471.272 158.937 469.778 158.328 468.534C157.692 467.261 156.198 466.763 154.954 467.372Z" fill="#A8D29F"/>
<path d="M130.801 482.448C130.801 482.448 135.918 475.698 143.166 478.16C150.441 480.622 160.123 478.382 160.096 481.756L130.801 482.448Z" fill="#A8D29F"/>
<defs>
<linearGradient id="paint0_linear_347_775" x1="306.18" y1="205.259" x2="437.44" y2="104.289" gradientUnits="userSpaceOnUse">
<stop stop-color="#1E96FC"/>
<stop offset="0.555573" stop-color="#1E96FC" stop-opacity="0.7"/>
<stop offset="0.810423" stop-color="#1E96FC" stop-opacity="0.48"/>
<stop offset="1" stop-color="#1E96FC" stop-opacity="0.16"/>
</linearGradient>
<linearGradient id="paint1_linear_347_775" x1="405.213" y1="195.715" x2="267.314" y2="306.505" gradientUnits="userSpaceOnUse">
<stop stop-color="#FCF300"/>
<stop offset="0.431531" stop-color="#FCF300" stop-opacity="0.66"/>
<stop offset="0.765125" stop-color="#FCF300" stop-opacity="0.41"/>
<stop offset="1" stop-color="#FCF300" stop-opacity="0.13"/>
</linearGradient>
</defs>
</svg>
