<svg width="48" height="48" viewBox="0 0 48 48" fill="none" xmlns="http://www.w3.org/2000/svg">
<g clip-path="url(#clip0_874_7810)">
<path d="M24 48C37.2548 48 48 37.2548 48 24C48 10.7452 37.2548 0 24 0C10.7452 0 0 10.7452 0 24C0 37.2548 10.7452 48 24 48Z" fill="#D7FBE9"/>
<path d="M8 20.8001C8 17.2655 10.8654 14.4001 14.4 14.4001H33.6C37.1346 14.4001 40 17.2655 40 20.8001V33.6001C40 37.1348 37.1346 40.0001 33.6 40.0001H14.4C10.8654 40.0001 8 37.1348 8 33.6001V20.8001Z" fill="#ACEFCF"/>
<path fill-rule="evenodd" clip-rule="evenodd" d="M22.3984 9.20005C20.4102 9.20005 18.7984 10.8118 18.7984 12.8V16C18.7984 16.6628 18.2612 17.2 17.5984 17.2C16.9357 17.2 16.3984 16.6628 16.3984 16V12.8C16.3984 9.48634 19.0847 6.80005 22.3984 6.80005H25.5984C28.9121 6.80005 31.5984 9.48634 31.5984 12.8V16C31.5984 16.6628 31.0612 17.2 30.3984 17.2C29.7357 17.2 29.1984 16.6628 29.1984 16V12.8C29.1984 10.8118 27.5867 9.20005 25.5984 9.20005H22.3984Z" fill="#ACEFCF"/>
<path d="M33.6 14.4001H14.4C10.8654 14.4001 8 17.2655 8 20.8001V22.4001C8 22.4001 17.7516 28.8001 24 28.8001C30.2484 28.8001 40 22.4001 40 22.4001V20.8001C40 17.2655 37.1346 14.4001 33.6 14.4001Z" fill="#0FBF6B"/>
<path d="M27.1969 28.8001C27.1969 30.5674 25.7642 32.0001 23.9969 32.0001C22.2296 32.0001 20.7969 30.5674 20.7969 28.8001C20.7969 27.0328 22.2296 25.6001 23.9969 25.6001C25.7642 25.6001 27.1969 27.0328 27.1969 28.8001Z" fill="#0FBF6B"/>
</g>
<defs>
<clipPath id="clip0_874_7810">
<rect width="48" height="48" fill="white"/>
</clipPath>
</defs>
</svg>
