<svg width="48" height="48" viewBox="0 0 48 48" fill="none" xmlns="http://www.w3.org/2000/svg">
<g clip-path="url(#clip0_874_7711)">
<path d="M24 48C37.2548 48 48 37.2548 48 24C48 10.7452 37.2548 0 24 0C10.7452 0 0 10.7452 0 24C0 37.2548 10.7452 48 24 48Z" fill="#D7FBE9"/>
<path d="M17.5938 33.6H30.3937V36C30.3937 38.2091 28.6029 40 26.3937 40H21.5938C19.3846 40 17.5938 38.2091 17.5938 36V33.6Z" fill="#0FBF6B"/>
<path d="M17.5969 33.6H30.3969V29.4359C30.3969 28.7821 30.7245 28.1788 31.2238 27.7567C33.6538 25.7022 35.1969 22.6313 35.1969 19.2C35.1969 13.0144 30.1825 8 23.9969 8C17.8113 8 12.7969 13.0144 12.7969 19.2C12.7969 22.6313 14.3399 25.7022 16.7699 27.7567C17.2692 28.1788 17.5969 28.7821 17.5969 29.4359V33.6Z" fill="#ACEFCF"/>
<path fill-rule="evenodd" clip-rule="evenodd" d="M19.9452 18.3515C20.4139 17.8828 21.1736 17.8828 21.6423 18.3515L23.9938 20.7029L26.3452 18.3515C26.8139 17.8828 27.5736 17.8828 28.0423 18.3515C28.5109 18.8201 28.5109 19.5799 28.0423 20.0485L25.1937 22.8971V35.2C25.1937 35.8627 24.6565 36.4 23.9938 36.4C23.331 36.4 22.7938 35.8627 22.7938 35.2V22.8971L19.9452 20.0485C19.4766 19.5799 19.4766 18.8201 19.9452 18.3515Z" fill="#0FBF6B"/>
</g>
<defs>
<clipPath id="clip0_874_7711">
<rect width="48" height="48" fill="white"/>
</clipPath>
</defs>
</svg>
