<svg width="48" height="48" viewBox="0 0 48 48" fill="none" xmlns="http://www.w3.org/2000/svg">
<g clip-path="url(#clip0_874_7766)">
<path d="M24 48C37.2548 48 48 37.2548 48 24C48 10.7452 37.2548 0 24 0C10.7452 0 0 10.7452 0 24C0 37.2548 10.7452 48 24 48Z" fill="#D7FBE9"/>
<path d="M33.5938 9.6001H23.9938C20.4591 9.6001 17.5938 12.4655 17.5938 16.0001V32.0001C17.5938 35.5347 20.4591 38.4001 23.9937 38.4001H33.5938C37.1284 38.4001 39.9937 35.5347 39.9937 32.0001V16.0001C39.9937 12.4655 37.1284 9.6001 33.5938 9.6001Z" fill="#ACEFCF"/>
<path d="M8 12.0001C8 10.6746 9.07452 9.6001 10.4 9.6001C11.7255 9.6001 12.8 10.6746 12.8 12.0001V33.8668C12.8 34.7322 12.5193 35.5744 12 36.2668L10.4 38.4001L8.8 36.2668C8.28071 35.5744 8 34.7322 8 33.8668V12.0001Z" fill="#ACEFCF"/>
<path d="M12.8 16.0001H8V11.6001C8 10.4955 8.89543 9.6001 10 9.6001H10.8C11.9046 9.6001 12.8 10.4955 12.8 11.6001V16.0001Z" fill="#0FBF6B"/>
<path fill-rule="evenodd" clip-rule="evenodd" d="M22.7969 16C22.7969 15.3373 23.3341 14.8 23.9969 14.8H33.5969C34.2596 14.8 34.7969 15.3373 34.7969 16C34.7969 16.6628 34.2596 17.2 33.5969 17.2H23.9969C23.3341 17.2 22.7969 16.6628 22.7969 16Z" fill="#0FBF6B"/>
<path fill-rule="evenodd" clip-rule="evenodd" d="M22.7969 22.4001C22.7969 21.7373 23.3341 21.2001 23.9969 21.2001H33.5969C34.2596 21.2001 34.7969 21.7373 34.7969 22.4001C34.7969 23.0628 34.2596 23.6001 33.5969 23.6001H23.9969C23.3341 23.6001 22.7969 23.0628 22.7969 22.4001Z" fill="#0FBF6B"/>
<path fill-rule="evenodd" clip-rule="evenodd" d="M22.7969 28.8001C22.7969 28.1374 23.3341 27.6001 23.9969 27.6001H28.7969C29.4596 27.6001 29.9969 28.1374 29.9969 28.8001C29.9969 29.4628 29.4596 30.0001 28.7969 30.0001H23.9969C23.3341 30.0001 22.7969 29.4628 22.7969 28.8001Z" fill="#0FBF6B"/>
<path fill-rule="evenodd" clip-rule="evenodd" d="M40.7856 31.097C41.2843 31.5334 41.3349 32.2915 40.8984 32.7903L36.3066 38.0381C35.3199 39.1658 33.6203 39.3168 32.4502 38.3807L29.6457 36.1371C29.1282 35.7231 29.0443 34.9679 29.4583 34.4504C29.8723 33.9329 30.6275 33.849 31.145 34.263L33.9495 36.5066C34.1167 36.6404 34.3595 36.6188 34.5004 36.4577L39.0923 31.2099C39.5287 30.7111 40.2868 30.6606 40.7856 31.097Z" fill="#0FBF6B"/>
</g>
<defs>
<clipPath id="clip0_874_7766">
<rect width="48" height="48" fill="white"/>
</clipPath>
</defs>
</svg>
