<svg width="48" height="48" viewBox="0 0 48 48" fill="none" xmlns="http://www.w3.org/2000/svg">
<g clip-path="url(#clip0_874_7755)">
<path d="M24 48C37.2548 48 48 37.2548 48 24C48 10.7452 37.2548 0 24 0C10.7452 0 0 10.7452 0 24C0 37.2548 10.7452 48 24 48Z" fill="#D7FBE9"/>
<path d="M9.59375 14.4C9.59375 10.8654 12.4591 8 15.9938 8H27.1938L38.3938 19.2V33.6C38.3938 37.1346 35.5284 40 31.9938 40H15.9938C12.4591 40 9.59375 37.1346 9.59375 33.6V14.4Z" fill="#ACEFCF"/>
<path d="M38.3953 19.2L27.1953 8V12.8C27.1953 16.3346 30.0607 19.2 33.5953 19.2H38.3953Z" fill="#0FBF6B"/>
<path fill-rule="evenodd" clip-rule="evenodd" d="M16.3984 22.4001C16.3984 21.7373 16.9357 21.2001 17.5984 21.2001L23.9984 21.2001C24.6612 21.2001 25.1984 21.7373 25.1984 22.4001C25.1984 23.0628 24.6612 23.6001 23.9984 23.6001H17.5984C16.9357 23.6001 16.3984 23.0628 16.3984 22.4001Z" fill="#0FBF6B"/>
<path fill-rule="evenodd" clip-rule="evenodd" d="M16.3984 30.4001C16.3984 29.7373 16.9357 29.2001 17.5984 29.2001H30.3984C31.0612 29.2001 31.5984 29.7373 31.5984 30.4001C31.5984 31.0628 31.0612 31.6001 30.3984 31.6001H17.5984C16.9357 31.6001 16.3984 31.0628 16.3984 30.4001Z" fill="#0FBF6B"/>
</g>
<defs>
<clipPath id="clip0_874_7755">
<rect width="48" height="48" fill="white"/>
</clipPath>
</defs>
</svg>
