<svg width="48" height="48" viewBox="0 0 48 48" fill="none" xmlns="http://www.w3.org/2000/svg">
<g clip-path="url(#clip0_874_7777)">
<path d="M24 48C37.2548 48 48 37.2548 48 24C48 10.7452 37.2548 0 24 0C10.7452 0 0 10.7452 0 24C0 37.2548 10.7452 48 24 48Z" fill="#D7FBE9"/>
<ellipse cx="14.3953" cy="11.2" rx="3.2" ry="3.2" fill="#0FBF6B"/>
<ellipse cx="14.3938" cy="17.6" rx="4.8" ry="3.2" fill="#ACEFCF"/>
<ellipse cx="33.5984" cy="30.4001" rx="3.2" ry="3.2" fill="#0FBF6B"/>
<path fill-rule="evenodd" clip-rule="evenodd" d="M22.7969 8.00005C22.7969 7.33731 23.3341 6.80005 23.9969 6.80005C33.4962 6.80005 41.1969 14.5008 41.1969 24C41.1969 24.6628 40.6596 25.2 39.9969 25.2C39.3341 25.2 38.7969 24.6628 38.7969 24C38.7969 15.8262 32.1707 9.20005 23.9969 9.20005C23.3341 9.20005 22.7969 8.66279 22.7969 8.00005ZM7.99688 22.8C8.65962 22.8 9.19688 23.3373 9.19688 24C9.19688 32.1739 15.8231 38.8 23.9969 38.8C24.6596 38.8 25.1969 39.3373 25.1969 40C25.1969 40.6628 24.6596 41.2001 23.9969 41.2001C14.4976 41.2001 6.79688 33.4993 6.79688 24C6.79688 23.3373 7.33413 22.8 7.99688 22.8Z" fill="#0FBF6B"/>
<ellipse cx="33.5969" cy="36.8001" rx="4.8" ry="3.2" fill="#ACEFCF"/>
</g>
<defs>
<clipPath id="clip0_874_7777">
<rect width="48" height="48" fill="white"/>
</clipPath>
</defs>
</svg>
