<svg width="48" height="48" viewBox="0 0 48 48" fill="none" xmlns="http://www.w3.org/2000/svg">
<g clip-path="url(#clip0_874_7742)">
<path d="M24 48C37.2548 48 48 37.2548 48 24C48 10.7452 37.2548 0 24 0C10.7452 0 0 10.7452 0 24C0 37.2548 10.7452 48 24 48Z" fill="#D7FBE9"/>
<circle cx="16.7969" cy="18.4" r="4" fill="#ACEFCF"/>
<circle cx="31.2031" cy="18.4" r="4" fill="#ACEFCF"/>
<ellipse cx="23.9984" cy="30.4" rx="9.6" ry="4.8" fill="#ACEFCF"/>
<path fill-rule="evenodd" clip-rule="evenodd" d="M31.1933 33.5798C32.6921 32.733 33.6018 31.6196 33.6018 30.4C33.6018 28.5008 31.3959 26.8593 28.1953 26.0809C29.3273 25.7742 30.6239 25.6 32.0018 25.6C36.4201 25.6 40.0018 27.3908 40.0018 29.6C40.0018 31.8091 36.4201 33.6 32.0018 33.6C31.7289 33.6 31.4592 33.5931 31.1933 33.5798Z" fill="#0FBF6B"/>
<path fill-rule="evenodd" clip-rule="evenodd" d="M16.8085 33.5798C16.5427 33.5931 16.2729 33.6 16 33.6C11.5817 33.6 8 31.8091 8 29.6C8 27.3908 11.5817 25.6 16 25.6C17.378 25.6 18.6746 25.7742 19.8065 26.0809C16.6059 26.8593 14.4 28.5008 14.4 30.4C14.4 31.6196 15.3098 32.733 16.8085 33.5798Z" fill="#0FBF6B"/>
<circle cx="24.0031" cy="17.6" r="4.8" fill="#0FBF6B"/>
</g>
<defs>
<clipPath id="clip0_874_7742">
<rect width="48" height="48" fill="white"/>
</clipPath>
</defs>
</svg>
