<svg width="48" height="48" viewBox="0 0 48 48" fill="none" xmlns="http://www.w3.org/2000/svg">
<g clip-path="url(#clip0_874_7799)">
<path d="M24 48C37.2548 48 48 37.2548 48 24C48 10.7452 37.2548 0 24 0C10.7452 0 0 10.7452 0 24C0 37.2548 10.7452 48 24 48Z" fill="#D7FBE9"/>
<path d="M21.3938 9.15537L13.3973 12.7094C11.0843 13.7374 9.55791 16.0395 9.7051 18.5664C10.2805 28.4451 13.1734 32.7942 20.6904 37.8833C22.6817 39.2314 25.3066 39.2347 27.2965 37.8844C34.8366 32.7676 37.626 28.3571 38.252 18.6006C38.4152 16.057 36.8863 13.7304 34.5572 12.6953L26.5924 9.15537C24.9376 8.41989 23.0486 8.41989 21.3938 9.15537Z" fill="#ACEFCF"/>
<path fill-rule="evenodd" clip-rule="evenodd" d="M29.5824 19.897C30.0812 20.3334 30.1317 21.0916 29.6953 21.5903L25.1035 26.8381C24.1168 27.9658 22.4172 28.1168 21.2471 27.1808L18.4426 24.9372C17.9251 24.5231 17.8412 23.768 18.2552 23.2505C18.6692 22.733 19.4244 22.6491 19.9419 23.0631L22.7464 25.3067C22.9135 25.4404 23.1563 25.4188 23.2973 25.2577L27.8891 20.0099C28.3256 19.5111 29.0837 19.4606 29.5824 19.897Z" fill="#0FBF6B"/>
</g>
<defs>
<clipPath id="clip0_874_7799">
<rect width="48" height="48" fill="white"/>
</clipPath>
</defs>
</svg>
