<svg width="738" height="498" viewBox="0 0 738 498" fill="none" xmlns="http://www.w3.org/2000/svg">
<path d="M706.06 497.987C690.858 497.987 607.034 498.016 501.932 497.987C474.808 497.987 446.229 497.987 417.08 497.959C411.946 497.959 406.784 497.959 401.621 497.959C380.744 497.959 359.638 497.93 338.589 497.93C332.913 497.93 327.266 497.93 321.618 497.93C287.421 497.902 253.595 497.873 221.394 497.845C95.9846 497.702 59.0777 496.675 59.0777 496.618C58.821 496.019 -56.2063 437.395 35.4334 314.725C81.5242 252.963 29.016 185.809 68.3187 126.928C123.907 43.5985 215.946 92.4664 279.093 66.0497C290.245 61.3997 301.454 53.897 312.663 42.3718C318.966 35.896 325.897 30.2475 333.284 25.3407C334.425 24.599 335.566 23.8573 336.735 23.1441C341.156 20.4055 345.748 17.9521 350.482 15.7269C353.648 14.2435 356.9 12.8456 360.208 11.5904C365.456 9.59347 370.818 7.85328 376.323 6.36984C384.109 4.28732 392.152 2.7183 400.338 1.6913C403.903 1.23486 407.497 0.864001 411.148 0.607252C481.71 -4.67037 561.085 24.9984 602.071 68.3605C610.314 77.09 647.819 122.278 618.271 184.354C599.589 223.551 677.824 261.008 705.604 305.768C776.252 419.593 706.688 496.504 706.06 497.987Z" fill="#D9E3F6"/>
<path d="M427.493 290.721C427.548 287.851 429.772 282.954 425.375 278.302C422.258 274.963 419.512 271.209 418.199 269.374C417.724 268.63 412.402 273.005 412.517 273.183C413.394 274.479 417.406 281.087 417.991 284.772C418.628 288.925 425.741 293.47 425.741 293.47C425.741 293.47 427.476 293.577 427.493 290.721Z" fill="#F4A671"/>
<path d="M420.951 273.072L412.512 273.182C412.512 273.182 399.314 252.327 398.91 245.711C398.52 239.392 385.835 211.743 400.684 194.48C401.354 193.697 402.082 192.937 402.87 192.201C402.895 192.171 402.925 192.146 402.955 192.121C402.955 192.121 402.98 192.162 403.029 192.242C403.332 192.744 404.51 194.878 405.894 199.588C408.058 206.954 410.735 220.627 411.367 244.242C411.364 244.242 417.238 264.457 420.951 273.072Z" fill="#F4A671"/>
<path d="M394.616 162.355C394.616 162.355 393.704 164.819 395.05 165.786C396.395 166.752 391.633 171.182 390.716 174.903C389.796 178.624 390.947 180.602 390.947 180.602C390.947 180.602 390.809 178.35 391.636 177.248C391.636 177.248 390.749 179.805 392.218 181.705C393.687 183.603 392.825 184.57 392.825 184.57C392.825 184.57 397.485 184.647 398.62 181.491C398.62 181.491 398.345 182.991 398.007 183.543C398.007 183.543 402.558 181.95 403.744 178.825C404.931 175.699 402.712 172.041 401.33 171.55C399.949 171.058 397.7 167.323 398.114 166.313C398.526 165.302 394.616 162.355 394.616 162.355Z" fill="#1A3151"/>
<path d="M395.688 427.67L390.226 429.705C390.226 429.705 366.503 396.802 363.581 367.854C363.06 362.685 363.233 357.679 364.361 353.054C364.361 353.054 364.131 351.731 363.724 349.388C363.538 348.295 363.304 346.98 363.043 345.472C362.272 341.053 361.211 335.006 359.998 328.121C357.207 312.278 353.591 292.025 350.781 277.134L352.253 276.662L368.176 271.524L371.466 261.072L383.321 257.949C383.321 257.949 385.969 263.131 388.339 287.606C388.776 290.816 389.174 294.356 389.47 298.195C390.393 309.914 390.462 324.449 388.342 341.07C387.798 345.324 387.111 349.715 386.26 354.23C385.637 357.539 385.543 362.046 385.804 367.222C387.001 390.895 395.688 427.67 395.688 427.67Z" fill="#B64C41"/>
<path d="M389.47 298.201L363.724 349.388C363.538 348.295 363.304 346.98 363.043 345.472C362.272 341.054 361.211 335.006 359.998 328.122C357.207 312.279 353.591 292.025 350.781 277.135L352.253 276.663L368.176 271.524L371.466 261.072L385.628 256.859C385.628 256.859 385.972 263.132 388.339 287.606C388.776 290.822 389.174 294.362 389.47 298.201Z" fill="#963333"/>
<path d="M406.486 146.92L380.773 167.736C380.773 167.736 380.023 163.219 377.376 163.914C373.248 164.993 366.915 153.928 371.787 143.918C372.108 143.265 376.066 133.356 388.729 132.109C405.011 133.359 406.486 146.92 406.486 146.92Z" fill="#1A3151"/>
<path d="M397.222 202.527C394.085 203.98 390.301 204.971 385.72 205.221C368.554 206.163 364.657 191.114 363.945 181.123C366.42 180.228 368.586 180.31 369.836 180.379C371.053 180.444 372.324 180.571 373.373 180.7C375.474 179.604 379.245 174.274 381.425 165.359L382.167 165.703L394.555 171.525C394.555 171.525 393.239 175.556 392.267 179.412C391.509 182.43 390.966 185.347 391.419 186.162C392.396 186.56 392.979 186.808 392.979 186.808C392.979 186.808 392.979 186.813 392.984 186.821C393.11 187.143 395.804 194.005 397.222 202.527Z" fill="#FFB27D"/>
<path d="M401.523 213.791C401.394 214.131 401.251 214.466 401.097 214.812C396.75 224.177 384.933 255.116 384.933 255.116C386.081 262.092 336.289 261.595 336.148 255.245C334.635 249.832 339.878 241.783 344.505 236.011C345.637 234.602 346.73 233.336 347.677 232.27C348.284 231.586 348.828 230.856 349.303 230.084C350.498 228.151 351.256 225.965 351.497 223.683C352.137 217.624 352.181 211.827 352.167 207.115C352.159 204.824 352.143 202.795 352.167 201.117C353.112 200.414 354.027 199.768 354.881 199.153C356.182 198.206 357.333 197.316 358.176 196.415C359.11 195.435 359.695 194.43 359.761 193.298C359.807 192.441 359.783 191.563 359.695 190.684C359.654 190.269 359.599 189.857 359.535 189.443C358.865 185.084 357.047 181.132 357.047 181.132C361.656 179.268 369.845 180.38 369.845 180.38C369.845 180.38 369.837 180.836 369.834 181.583C369.804 184.573 369.834 192.257 370.792 193.71C371.99 195.52 393.932 203.454 395.094 200.996C396.233 198.582 393.108 187.257 392.99 186.831C392.987 186.82 392.987 186.817 392.987 186.817C393.224 186.908 393.452 187.001 393.674 187.089C394.792 187.545 395.758 188.067 396.687 188.404C402.657 190.585 403.217 192.568 403.217 192.568C398.79 195.435 404.947 204.709 401.523 213.791Z" fill="#EBB044"/>
<path d="M394.552 171.532C394.552 171.532 393.234 175.558 392.265 179.419C385.023 177.398 382.826 169.788 382.164 165.707L394.552 171.532Z" fill="#ED985F"/>
<path d="M396.082 175.794C396.082 175.794 378.759 171.785 381.423 161.036C384.087 150.287 383.642 142.529 394.816 144.635C405.988 146.742 407.114 151.372 407.098 155.178C407.081 158.979 400.658 176.558 396.082 175.794Z" fill="#FFB27D"/>
<path d="M408.072 149.073C406.21 145.176 404.018 145.385 402.645 146.074C394.505 138.544 386.522 144.695 386.522 144.695C383.449 152.118 376.789 155.153 376.789 155.153C376.789 155.153 379.45 157.877 387.164 157.817C389.521 157.798 391.891 156.718 394.044 155.227C389.886 159.415 385.011 161.964 385.011 161.964C394.667 160.115 401.14 148.938 401.805 147.752C402.623 148.96 404.188 151.531 404.317 153.703C404.496 156.652 403.483 162.384 405.171 162.601C405.174 162.601 410.864 154.917 408.072 149.073Z" fill="#1A3151"/>
<path d="M412.778 437.7H385.269C385.269 437.7 384.239 433.312 386.046 430.327C387.644 427.685 387.512 426.078 386.329 423.892C387.576 424.403 388.704 424.969 390.481 424.867C391.852 424.787 393.373 423.821 394.644 423.082C395.828 424.433 400.826 430.524 402.411 431.661C404.207 432.955 412.223 432.493 412.778 437.7Z" fill="#233862"/>
<path d="M363.682 238.396C356.501 237.888 349.663 237.253 344.5 236.015C345.631 234.606 346.724 233.34 347.672 232.274C348.279 231.59 348.823 230.86 349.298 230.088C350.492 228.155 351.25 225.969 351.492 223.687C352.132 217.628 352.176 211.831 352.162 207.119C358.426 200.105 363.685 194.406 363.685 194.406C363.685 194.406 375.36 205.106 377.167 215.764C378.971 226.416 382.384 239.719 363.682 238.396Z" fill="#9B732A"/>
<path d="M366.574 180.102C366.574 180.102 375.052 190.145 373.234 205.219H376.746C376.746 205.219 378.735 194.679 369.837 180.379C369.837 180.379 368.675 180.214 368.299 180.181C367.862 180.145 366.574 180.102 366.574 180.102Z" fill="#963333"/>
<path d="M397.14 213.209L393.73 212.369C398.313 200.255 394.798 189.875 393.672 187.09C394.79 187.546 395.792 187.988 396.685 188.405C401.414 203.842 397.14 213.209 397.14 213.209Z" fill="#963333"/>
<path d="M398.624 207.118C398.624 207.118 381.71 202.713 376.94 201.488C372.167 200.263 371.791 203.081 371.791 203.081C371.791 203.081 371.126 212.264 371.052 213.209C369.951 227.624 349.296 230.088 349.296 230.088C349.296 230.088 343.96 236.736 339.385 243.272C331.539 254.48 332.506 273.412 332.506 273.412C332.338 275.703 332.314 278.193 332.481 280.893C333.102 290.843 334.233 333.118 335.417 345.627C335.845 350.161 336.219 353.388 336.373 354.676C336.375 354.682 336.375 354.685 336.375 354.69C336.422 355.083 336.285 355.454 336.084 355.797C334.343 358.752 332.901 361.828 331.718 364.977C320.109 395.911 333.506 434.007 333.506 434.007L336.982 432.606C336.982 432.606 344.606 390.21 350.799 371.481C351.85 368.303 352.858 365.807 353.781 364.316C356.475 359.968 358.974 352.867 361.243 344.419C365.529 328.45 368.981 307.672 371.277 291.636C371.593 291.65 374.111 270.1 382.386 260.186L385.626 256.869L395.9 231.625C395.9 231.625 398.737 214.846 399.594 212.028C400.456 209.208 398.624 207.118 398.624 207.118Z" fill="#B64C41"/>
<path d="M373.5 203.934C373.5 203.121 374.159 202.465 374.969 202.465C375.779 202.465 376.438 203.124 376.438 203.934C376.438 204.747 375.779 205.403 374.969 205.403C374.159 205.403 373.5 204.747 373.5 203.934Z" fill="#ED7D2B"/>
<path d="M373.766 203.934C373.766 203.121 374.425 202.465 375.235 202.465C376.048 202.465 376.704 203.124 376.704 203.934C376.704 204.747 376.045 205.403 375.235 205.403C374.425 205.406 373.766 204.747 373.766 203.934Z" fill="#F99746"/>
<path d="M374.366 203.656C374.401 203.544 374.522 203.481 374.635 203.519C374.747 203.555 374.808 203.676 374.772 203.788C374.736 203.901 374.616 203.964 374.503 203.926C374.39 203.89 374.33 203.769 374.366 203.656Z" fill="#2B478B"/>
<path d="M375.695 204.086C375.731 203.974 375.851 203.91 375.964 203.949C376.077 203.984 376.14 204.105 376.101 204.218C376.066 204.331 375.945 204.394 375.832 204.355C375.72 204.32 375.656 204.199 375.695 204.086Z" fill="#2B478B"/>
<path d="M394.688 208.708C394.688 207.895 395.347 207.238 396.157 207.238C396.97 207.238 397.626 207.897 397.626 208.708C397.626 209.52 396.967 210.177 396.157 210.177C395.347 210.177 394.688 209.52 394.688 208.708Z" fill="#ED7D2B"/>
<path d="M394.953 208.708C394.953 207.895 395.612 207.238 396.422 207.238C397.235 207.238 397.892 207.897 397.892 208.708C397.892 209.52 397.232 210.177 396.422 210.177C395.609 210.177 394.953 209.52 394.953 208.708Z" fill="#F99746"/>
<path d="M395.557 208.429C395.593 208.316 395.714 208.256 395.826 208.291C395.939 208.327 395.999 208.448 395.964 208.561C395.928 208.673 395.807 208.734 395.694 208.698C395.582 208.662 395.521 208.541 395.557 208.429Z" fill="#2B478B"/>
<path d="M396.885 208.858C396.921 208.746 397.042 208.685 397.154 208.721C397.267 208.757 397.327 208.878 397.292 208.99C397.256 209.103 397.135 209.163 397.023 209.128C396.91 209.089 396.85 208.968 396.885 208.858Z" fill="#2B478B"/>
<path d="M371.459 157.211C371.459 157.211 370.548 159.674 371.893 160.641C373.239 161.608 368.48 166.037 367.56 169.759C366.64 173.48 367.79 175.454 367.79 175.454C367.79 175.454 367.653 173.202 368.48 172.101C368.48 172.101 367.59 174.658 369.062 176.558C370.531 178.456 369.669 179.423 369.669 179.423C369.669 179.423 374.329 179.499 375.463 176.344C375.463 176.344 375.189 177.846 374.851 178.395C374.851 178.395 379.402 176.803 380.588 173.677C381.774 170.552 379.555 166.894 378.174 166.403C376.793 165.911 374.543 162.176 374.958 161.166C375.37 160.155 371.459 157.211 371.459 157.211Z" fill="#1A3151"/>
<path d="M405.893 199.59C401.963 200.167 400.373 202.498 400.373 202.498C400.373 202.498 400.035 197.555 400.686 194.482C400.911 193.408 401.26 192.562 401.782 192.241C402.021 192.093 402.399 192.093 402.872 192.205C402.924 192.216 402.976 192.23 403.031 192.247C403.333 192.746 404.511 194.878 405.893 199.59Z" fill="#EBB044"/>
<path d="M460.899 291.292C453.901 291.658 449.12 280.799 446.173 280.656C445.69 280.634 444.77 280.769 443.592 280.942C446.494 285.704 448.711 291.301 449.941 297.452C454.137 318.398 445.297 337.83 430.198 340.851C415.514 343.79 400.316 330.119 395.642 310.093C395.511 309.533 395.39 308.967 395.274 308.396C394.052 302.288 393.94 296.31 394.766 290.828C394.766 290.812 394.769 290.795 394.772 290.779C394.14 290.946 393.649 291.092 393.36 291.229C390.694 292.498 390.46 304.356 383.861 306.713C377.262 309.066 372.816 296.422 380.673 286.572C385.465 280.563 393.953 277.666 399.85 276.317C401.074 274.318 402.483 272.525 404.054 270.973C404.112 270.915 404.169 270.855 404.23 270.797C399.899 268.455 396.603 264.275 395.56 259.068C395.206 257.308 395.14 255.553 395.324 253.853C395.31 253.85 395.296 253.845 395.28 253.842C392.297 252.941 389.903 250.472 389.246 247.207C388.304 242.492 391.361 237.903 396.079 236.958C399.493 236.274 402.84 237.689 404.787 240.311C406.097 239.666 407.512 239.177 409.017 238.875C410.348 238.611 411.675 238.504 412.974 238.548C413.798 235.437 416.322 232.905 419.688 232.229C424.406 231.287 428.993 234.344 429.94 239.062C430.558 242.157 429.454 245.197 427.29 247.188C428.18 248.748 428.839 250.475 429.21 252.332C430.196 257.247 428.973 262.092 426.227 265.838C428.691 266.686 431.083 267.958 433.348 269.592C439.261 268.46 448.93 267.54 456.09 271.478C467.135 277.542 467.896 290.922 460.899 291.292Z" fill="#EBB044"/>
<path d="M395.638 310.087C395.507 309.527 395.386 308.962 395.27 308.39C394.048 302.283 393.936 296.304 394.762 290.823C395.63 289.812 396.784 289.062 398.091 289.683C400.98 291.053 400.524 304.894 404.934 308.088C408.205 310.453 400.027 310.48 395.638 310.087Z" fill="#9B732A"/>
<path d="M412.414 268.771C410.755 269.386 407.218 270.485 404.049 270.971C404.106 270.913 404.164 270.853 404.225 270.795C399.894 268.453 396.598 264.273 395.555 259.066C395.2 257.306 395.135 255.551 395.319 253.851C395.305 253.848 395.291 253.843 395.275 253.84C395.448 253.771 395.67 253.876 395.958 254.285C397.06 255.845 403.008 268.469 412.414 267.025C412.414 267.022 414.872 267.859 412.414 268.771Z" fill="#9B732A"/>
<path d="M416.875 239.644C416.875 239.644 419.08 235.539 422.351 236.601C425.622 237.667 426.078 242.382 423.949 243.673C423.947 243.676 420.777 240.743 416.875 239.644Z" fill="#9B732A"/>
<path d="M401.514 242.045C401.514 242.045 396.798 239.872 394.67 242.382C392.542 244.892 396.798 248.094 396.798 248.094C396.798 248.094 398.85 243.838 401.514 242.045Z" fill="#9B732A"/>
<path d="M403.433 265.108L401.914 270.732C401.914 270.732 396.578 268.788 393.826 267.747C393.003 267.428 392.536 267.219 392.536 267.219C390.339 266.36 387.724 265.259 384.871 264.072L384.83 264.064C379.966 261.925 374.537 259.434 370.03 256.938C366.867 255.15 364.167 253.359 362.401 251.739C362.22 251.58 362.08 251.429 361.904 251.228C357.771 246.911 353.954 235.723 351.529 224.027C351.191 222.412 350.892 220.803 350.587 219.237C349.538 213.418 348.881 207.755 348.741 202.944C348.631 200.068 348.681 197.473 348.972 195.383C349.063 194.645 349.148 193.947 349.307 193.302C351.521 181.52 357.669 180.952 357.669 180.952C357.798 180.933 357.928 180.913 358.098 180.902C359.144 180.924 360.078 181.806 360.932 183.347C362.014 185.263 362.986 188.254 363.895 191.819C365.265 197.484 366.479 204.718 367.537 211.883C368.13 215.813 368.682 219.734 369.283 223.37C369.599 225.57 369.94 227.646 370.266 229.555C370.909 233.199 371.549 236.17 372.249 238.104C372.694 239.359 374.279 241.284 376.437 243.522C380.183 247.433 385.805 252.354 390.737 256.438C392.78 258.151 394.722 259.719 396.336 261.018C398.945 263.128 403.433 265.108 403.433 265.108Z" fill="#FFB27D"/>
<path d="M364.596 191.892C356.767 188.212 349.297 193.281 349.297 193.281C351.563 181.324 358.019 180.797 358.019 180.797C360.675 180.253 362.797 184.924 364.596 191.892Z" fill="#EBB044"/>
<path d="M399.822 263.852C399.822 263.852 403.062 265.142 404.908 265.469C406.751 265.796 409.596 264.881 411.933 266.406C414.27 267.93 415.934 268.943 415.934 268.943C415.934 268.943 416.503 269.808 415.261 270.157C414.553 270.357 410.969 268.089 410.818 268.693C410.664 269.297 413.097 270.651 414.509 270.728C415.923 270.805 418.499 272.044 418.499 272.958C418.499 273.873 414.325 276.037 411.886 275.883C409.447 275.732 404.438 271.434 403.17 271.129C401.904 270.824 396.57 268.696 396.57 268.696L399.822 263.852Z" fill="#FFB27D"/>
<path d="M353.715 437.703H326.206C326.206 437.703 325.547 433.51 326.983 430.329C328.359 427.278 330.773 425.765 330.256 422.074C332.003 423.873 334.409 425.609 338.385 425.073C338.871 425.864 341.719 430.497 343.348 431.667C345.146 432.958 353.163 432.496 353.715 437.703Z" fill="#233862"/>
<path d="M638.209 412.493C638.209 412.493 643.536 417.431 642.498 420.941C641.458 424.45 636.649 426.79 636.001 431.077C635.35 435.367 632.752 437.707 630.412 437.707C628.072 437.707 619.26 437.707 619.26 437.707C619.26 437.707 617.538 434.688 621.696 433.779C625.853 432.87 627.422 427.828 627.163 423.151C626.905 418.475 627.553 412.235 627.553 412.235L636.391 410.156L638.209 412.493Z" fill="#1A3151"/>
<path d="M571.797 437.226C571.391 437.432 570.199 437.586 568.513 437.707H541.539C541.665 436.842 542.371 434.359 546.323 433.716C550.981 432.961 559.052 430.253 560.856 424.297C560.914 424.102 560.963 423.907 561.01 423.709C562.441 417.341 572.838 425.659 572.838 425.659C572.838 425.659 572.868 425.914 572.915 426.345C573.154 428.68 573.769 436.237 571.797 437.226Z" fill="#1A3151"/>
<path d="M547.559 266.883C547.559 266.883 549.138 286.585 550.994 310.268C553.518 342.441 556.55 381.956 556.852 389.443C557.371 402.441 559.453 423.235 559.453 423.235C559.453 423.235 564.388 428.176 574.269 426.094C574.269 426.094 583.073 396.41 585.589 365.004C585.627 364.49 585.665 363.971 585.707 363.452C588.046 331.48 591.683 264.156 591.683 264.156L547.559 266.883Z" fill="#145566"/>
<path d="M547.559 266.883C547.559 266.883 549.138 286.585 550.994 310.268L585.586 365.004C585.624 364.49 585.663 363.971 585.704 363.452C588.044 331.48 591.68 264.156 591.68 264.156L547.559 266.883Z" fill="#0F3C48"/>
<path d="M554.773 269.226C554.773 269.226 583.236 340.578 601.951 374.11C620.667 407.642 626.516 416.998 626.516 416.998C626.516 416.998 637.238 412.708 638.213 409.784C638.213 409.784 631.056 345.049 618.522 329.269C611.439 320.352 603.121 293.593 602.731 284.236C602.341 274.88 600.196 256.359 600.196 256.359L554.773 269.226Z" fill="#145566"/>
<path d="M498.907 259.344C498.907 259.344 488.864 264.163 487.511 265.402C486.159 266.638 482.823 272.712 483.078 273.171C483.334 273.63 483.833 273.77 484.745 273.141C485.654 272.512 488.211 269.881 488.304 270.37C488.398 270.859 481.485 278.993 482.707 280.715C483.929 282.437 490.861 281.929 494.816 279.114C498.773 276.299 502.722 265.954 503.318 265.391C508.366 260.599 498.907 259.344 498.907 259.344Z" fill="#FFB27D"/>
<path d="M498.455 264.513C495.668 262.088 495.594 261.473 495.594 261.473C495.594 261.473 513.403 230.673 514.949 227.713C516.493 224.75 526.039 178.498 526.039 178.498L559.037 168.93C559.037 168.93 535.793 229.034 531.734 236.463C525.025 248.738 503.127 266.803 503.127 266.803C503.127 266.803 500.647 266.419 498.455 264.513Z" fill="#9B732A"/>
<path d="M542.232 156.892C542.232 156.892 530.618 177.324 519.267 179.993C519.267 179.993 519.74 173.13 522.505 168.434C521.374 167.1 520.38 165.872 519.52 164.776C516.661 161.116 515.305 158.872 515.305 158.872L519.158 148.516L521.772 141.488C523.027 143.768 524.414 145.712 525.856 147.373C533.293 155.928 542.232 156.892 542.232 156.892Z" fill="#FFB27D"/>
<path d="M525.848 147.374C525.848 147.374 527.235 157.615 519.512 164.774C516.654 161.113 515.297 158.87 515.297 158.87L519.15 148.514C523.28 147.256 525.848 147.374 525.848 147.374Z" fill="#ED975D"/>
<path d="M512.24 160.381C512.24 160.381 529.591 153.617 525.214 142.876C520.836 132.136 520.125 124.029 508.862 127.893C497.597 131.757 497.13 136.728 497.721 140.668C498.306 144.609 507.613 161.864 512.24 160.381Z" fill="#FFB27D"/>
<path d="M601.87 261.749C594.872 271.811 542.535 285.257 543.161 278.295C543.397 275.626 543.715 270.93 543.155 264.558C543.023 263.064 542.837 261.48 542.598 259.813C541.263 250.654 538.11 238.889 531.063 225.265C530.536 224.244 529.987 223.216 529.416 222.173C526.51 216.9 524.044 211.325 522.16 205.871C518.532 195.392 517.066 185.365 518.9 178.812C518.909 178.777 518.914 178.749 518.928 178.722C529.866 173.663 534.104 154.047 534.104 154.047C534.104 154.047 571.425 160.745 592.335 210.49C592.335 210.49 594.342 215.953 596.635 223.368C599.423 232.359 602.633 244.214 603.188 252.67C603.463 256.682 603.128 259.934 601.87 261.749Z" fill="#EBB044"/>
<path d="M527.702 122.923C527.823 122.684 528.177 122.426 529.039 122.163C529.039 122.163 528.232 121.891 527.293 122.097C526.807 120.908 525.623 118.884 523.401 118.867C523.401 118.867 524.676 119.199 525.145 120.474C522.102 118.546 516.459 117.986 502.376 122.676C483.814 128.858 493.088 139.634 495.901 140.497C498.713 141.362 503.892 135.817 508.55 135.059C513.207 134.301 515.728 140.79 517.502 141.329C519.279 141.867 518.269 140.389 520.128 138.912C521.987 137.435 523.055 140.911 523.014 143.355C522.973 145.8 526.601 148.115 526.601 148.115C526.601 148.115 526.601 148.115 528.726 144.215C530.852 140.315 530.275 126.153 528.243 123.604C528.065 123.382 527.886 123.154 527.702 122.923Z" fill="#1A3151"/>
<path d="M603.194 252.664C558.158 239.078 550.996 185.387 550.996 185.387C550.996 185.387 576.638 204.981 596.641 223.362C599.429 232.353 602.639 244.208 603.194 252.664Z" fill="#9B732A"/>
<path d="M615.542 254.428C615.542 254.428 614.526 262.947 614.773 264.339C615.018 265.729 616.641 269.865 617.044 269.89C617.448 269.912 618.673 269.961 618.64 269.11C618.607 268.258 618.055 267.462 618.409 267.602C618.766 267.742 618.868 270.958 620.491 270.875C622.114 270.793 626.895 268.989 626.703 265.254C626.508 261.519 621.416 254.678 621.295 254.057C620.266 248.798 615.542 254.428 615.542 254.428Z" fill="#FFB27D"/>
<path d="M618.238 255.864C614.665 257.501 613.338 255.831 613.338 255.831C613.338 255.831 592.527 221.077 590.336 218.284C588.144 215.489 549.724 199.003 549.724 199.003C549.724 199.003 534.09 193.027 533.472 183.542C532.934 175.3 537.613 170.236 542.738 167.182C548.845 163.544 556.571 164.079 562.184 168.437C574.786 178.225 599.769 197.913 603.79 203.251C612.737 215.134 622.656 252.379 622.656 252.379C622.656 252.379 621.044 254.576 618.238 255.864Z" fill="#EBB044"/>
<path d="M528.777 279.434L519.41 288.793L519.281 288.711L505.223 279.892C505.223 279.892 512.497 282.24 513.481 281.966C514.409 281.708 524.57 278.214 526.965 278.505C527.11 278.525 527.228 278.555 527.313 278.604C528.777 279.434 528.777 279.434 528.777 279.434Z" fill="#4A75CB"/>
<path d="M518.987 291.335C518.611 291.253 517.496 290.989 515.977 290.602C511.614 289.484 503.916 287.339 500.879 285.582C498.152 284.005 483.75 275.629 473.828 269.747C477.785 267.629 481.691 267.333 484.964 267.745C496.548 274.544 511.682 283.472 513.536 284.774C516.582 286.916 520.734 289.509 520.734 289.509C520.734 289.509 520.717 289.627 520.674 289.803C520.536 290.379 520.102 291.574 518.987 291.335Z" fill="#E58638"/>
<path d="M518.987 291.332C518.611 291.25 517.496 290.986 515.977 290.599C511.613 289.481 503.916 287.337 500.878 285.579C498.151 284.003 483.75 275.627 473.828 269.744C468.846 266.792 464.993 264.466 464.315 263.944C462.291 262.387 458.394 258.495 459.352 257.762C460.311 257.029 462.181 257.768 462.884 257.658C462.895 257.655 462.903 257.655 462.914 257.652C463.079 257.628 463.351 257.584 463.724 257.562C465.062 257.482 467.717 257.666 471.496 259.849C471.496 259.849 477.491 263.351 484.966 267.739C496.55 274.539 511.685 283.467 513.538 284.769C516.584 286.911 520.736 289.503 520.736 289.503C520.736 289.503 520.72 289.621 520.676 289.797C520.536 290.377 520.102 291.571 518.987 291.332Z" fill="#739AF0"/>
<path d="M518.988 291.334C518.612 291.255 517.497 290.988 515.978 290.601C516.176 288.871 514.965 287.492 514.965 287.492L520.674 289.805C520.537 290.378 520.103 291.573 518.988 291.334Z" fill="#4A75CB"/>
<g opacity="0.5">
<path d="M506.615 283.973C506.527 283.921 506.497 283.806 506.549 283.715L506.651 283.545C506.703 283.457 506.818 283.427 506.909 283.479C506.997 283.531 507.027 283.646 506.975 283.737L506.873 283.907C506.818 283.995 506.703 284.025 506.615 283.973Z" fill="#4A75CB"/>
<path d="M505.779 283.481C505.691 283.429 505.661 283.313 505.713 283.223L505.815 283.052C505.867 282.965 505.982 282.934 506.073 282.987C506.161 283.039 506.191 283.154 506.139 283.245L506.037 283.415C505.982 283.506 505.867 283.533 505.779 283.481Z" fill="#4A75CB"/>
<path d="M504.943 282.989C504.855 282.937 504.825 282.821 504.877 282.731L504.979 282.56C505.031 282.472 505.146 282.442 505.237 282.494C505.325 282.547 505.355 282.662 505.303 282.753L505.201 282.923C505.146 283.011 505.031 283.041 504.943 282.989Z" fill="#4A75CB"/>
<path d="M504.107 282.493C504.019 282.44 503.989 282.325 504.041 282.234L504.143 282.064C504.195 281.976 504.31 281.946 504.401 281.998C504.489 282.05 504.519 282.166 504.467 282.256L504.365 282.427C504.313 282.515 504.195 282.545 504.107 282.493Z" fill="#4A75CB"/>
<path d="M503.275 282C503.187 281.948 503.157 281.833 503.209 281.742L503.311 281.572C503.363 281.484 503.478 281.454 503.569 281.506C503.657 281.558 503.687 281.674 503.635 281.764L503.533 281.935C503.481 282.022 503.366 282.053 503.275 282Z" fill="#4A75CB"/>
<path d="M502.443 281.508C502.355 281.456 502.325 281.341 502.377 281.25L502.479 281.08C502.531 280.992 502.646 280.962 502.737 281.014C502.825 281.066 502.855 281.181 502.803 281.272L502.701 281.442C502.649 281.53 502.534 281.56 502.443 281.508Z" fill="#4A75CB"/>
<path d="M501.607 281.012C501.519 280.96 501.489 280.845 501.541 280.754L501.643 280.584C501.695 280.496 501.81 280.466 501.901 280.518C501.989 280.57 502.019 280.685 501.967 280.776L501.865 280.946C501.813 281.037 501.698 281.064 501.607 281.012Z" fill="#4A75CB"/>
<path d="M500.775 280.52C500.687 280.468 500.657 280.352 500.709 280.262L500.811 280.092C500.863 280.004 500.978 279.973 501.069 280.026C501.157 280.078 501.187 280.193 501.135 280.284L501.033 280.454C500.978 280.542 500.863 280.572 500.775 280.52Z" fill="#4A75CB"/>
<path d="M499.939 280.028C499.851 279.976 499.821 279.86 499.873 279.77L499.975 279.599C500.027 279.511 500.142 279.481 500.233 279.533C500.321 279.586 500.351 279.701 500.299 279.792L500.197 279.962C500.142 280.05 500.027 280.08 499.939 280.028Z" fill="#4A75CB"/>
<path d="M490.107 274.219C490.019 274.167 489.989 274.052 490.041 273.961L490.143 273.791C490.195 273.703 490.31 273.673 490.401 273.725C490.489 273.777 490.519 273.892 490.467 273.983L490.365 274.153C490.313 274.241 490.198 274.271 490.107 274.219Z" fill="#4A75CB"/>
<path d="M489.271 273.727C489.183 273.675 489.153 273.559 489.205 273.469L489.307 273.299C489.359 273.211 489.474 273.18 489.565 273.233C489.653 273.285 489.683 273.4 489.631 273.491L489.529 273.661C489.477 273.749 489.362 273.779 489.271 273.727Z" fill="#4A75CB"/>
<path d="M488.443 273.231C488.355 273.179 488.325 273.063 488.377 272.973L488.479 272.802C488.531 272.715 488.646 272.684 488.737 272.737C488.825 272.789 488.855 272.904 488.803 272.995L488.701 273.165C488.646 273.256 488.531 273.286 488.443 273.231Z" fill="#4A75CB"/>
<path d="M487.607 272.739C487.519 272.687 487.489 272.571 487.541 272.481L487.643 272.31C487.695 272.222 487.81 272.192 487.901 272.244C487.989 272.297 488.019 272.412 487.967 272.503L487.865 272.673C487.81 272.761 487.695 272.791 487.607 272.739Z" fill="#4A75CB"/>
<path d="M486.771 272.247C486.683 272.194 486.653 272.079 486.705 271.988L486.807 271.818C486.859 271.73 486.974 271.7 487.065 271.752C487.153 271.804 487.183 271.92 487.131 272.01L487.029 272.181C486.974 272.271 486.859 272.299 486.771 272.247Z" fill="#4A75CB"/>
<path d="M485.935 271.754C485.847 271.702 485.817 271.587 485.869 271.496L485.971 271.326C486.023 271.238 486.138 271.208 486.229 271.26C486.317 271.312 486.347 271.428 486.295 271.518L486.193 271.688C486.141 271.776 486.026 271.807 485.935 271.754Z" fill="#4A75CB"/>
<path d="M485.099 271.258C485.011 271.206 484.981 271.091 485.033 271L485.135 270.83C485.187 270.742 485.303 270.712 485.393 270.764C485.481 270.816 485.511 270.931 485.459 271.022L485.357 271.192C485.305 271.28 485.19 271.31 485.099 271.258Z" fill="#4A75CB"/>
<path d="M484.263 270.766C484.176 270.714 484.145 270.599 484.198 270.508L484.299 270.338C484.351 270.25 484.467 270.22 484.557 270.272C484.645 270.324 484.675 270.439 484.623 270.53L484.522 270.7C484.469 270.788 484.354 270.818 484.263 270.766Z" fill="#4A75CB"/>
<path d="M483.431 270.274C483.344 270.222 483.313 270.106 483.365 270.016L483.467 269.845C483.519 269.758 483.635 269.727 483.725 269.78C483.813 269.832 483.843 269.947 483.791 270.038L483.69 270.208C483.637 270.296 483.522 270.326 483.431 270.274Z" fill="#4A75CB"/>
<path d="M480.209 268.364C480.121 268.312 480.091 268.196 480.143 268.106L480.244 267.935C480.297 267.847 480.412 267.817 480.503 267.869C480.59 267.922 480.621 268.037 480.568 268.128L480.467 268.298C480.412 268.386 480.297 268.416 480.209 268.364Z" fill="#4A75CB"/>
<path d="M481.838 269.329C481.748 269.276 481.72 269.161 481.772 269.07L481.874 268.9C481.926 268.812 482.041 268.782 482.132 268.834C482.22 268.886 482.25 269.002 482.198 269.092L482.096 269.263C482.041 269.351 481.926 269.381 481.838 269.329Z" fill="#4A75CB"/>
<path d="M479.373 267.872C479.285 267.819 479.255 267.704 479.307 267.613L479.408 267.443C479.461 267.355 479.576 267.325 479.667 267.377C479.755 267.429 479.785 267.545 479.733 267.635L479.631 267.806C479.576 267.896 479.461 267.924 479.373 267.872Z" fill="#4A75CB"/>
<path d="M478.537 267.379C478.449 267.327 478.419 267.212 478.471 267.121L478.573 266.951C478.625 266.863 478.74 266.833 478.831 266.885C478.919 266.937 478.949 267.053 478.897 267.143L478.795 267.313C478.743 267.401 478.625 267.432 478.537 267.379Z" fill="#4A75CB"/>
<path d="M477.701 266.887C477.613 266.835 477.583 266.72 477.635 266.629L477.737 266.459C477.789 266.371 477.904 266.341 477.995 266.393C478.083 266.445 478.113 266.56 478.061 266.651L477.959 266.821C477.907 266.909 477.789 266.939 477.701 266.887Z" fill="#4A75CB"/>
<path d="M476.865 266.391C476.777 266.339 476.747 266.224 476.799 266.133L476.901 265.963C476.953 265.875 477.068 265.845 477.159 265.897C477.247 265.949 477.277 266.064 477.225 266.155L477.123 266.325C477.071 266.416 476.956 266.446 476.865 266.391Z" fill="#4A75CB"/>
<path d="M476.03 265.899C475.939 265.847 475.912 265.731 475.964 265.641L476.065 265.47C476.118 265.383 476.233 265.352 476.324 265.405C476.411 265.457 476.442 265.572 476.389 265.663L476.288 265.833C476.236 265.921 476.12 265.951 476.03 265.899Z" fill="#4A75CB"/>
<path d="M475.201 265.403C475.113 265.351 475.083 265.235 475.135 265.145L475.237 264.974C475.289 264.886 475.404 264.856 475.495 264.908C475.583 264.961 475.613 265.076 475.561 265.167L475.459 265.337C475.404 265.425 475.289 265.455 475.201 265.403Z" fill="#4A75CB"/>
<path d="M474.365 264.914C474.277 264.862 474.247 264.747 474.299 264.656L474.401 264.486C474.453 264.398 474.568 264.368 474.659 264.42C474.747 264.472 474.777 264.588 474.725 264.678L474.623 264.849C474.568 264.936 474.453 264.967 474.365 264.914Z" fill="#4A75CB"/>
<path d="M473.529 264.418C473.441 264.366 473.411 264.251 473.463 264.16L473.565 263.99C473.617 263.902 473.732 263.872 473.823 263.924C473.911 263.976 473.941 264.092 473.889 264.182L473.787 264.352C473.732 264.44 473.617 264.471 473.529 264.418Z" fill="#4A75CB"/>
<path d="M472.709 263.934C472.621 263.882 472.591 263.767 472.643 263.676L472.744 263.506C472.797 263.418 472.912 263.388 473.003 263.44C473.09 263.492 473.121 263.607 473.068 263.698L472.967 263.868C472.915 263.956 472.797 263.986 472.709 263.934Z" fill="#4A75CB"/>
<path d="M471.877 263.438C471.789 263.386 471.759 263.27 471.811 263.18L471.912 263.01C471.965 262.922 472.08 262.891 472.171 262.944C472.258 262.996 472.289 263.111 472.236 263.202L472.135 263.372C472.083 263.463 471.967 263.49 471.877 263.438Z" fill="#4A75CB"/>
<path d="M471.041 262.95C470.951 262.897 470.923 262.782 470.975 262.691L471.077 262.521C471.129 262.433 471.245 262.403 471.335 262.455C471.423 262.507 471.453 262.623 471.401 262.713L471.3 262.884C471.247 262.972 471.132 263.002 471.041 262.95Z" fill="#4A75CB"/>
<path d="M464.629 258.646C464.549 258.745 464.42 258.777 464.305 258.736C464.277 258.725 464.25 258.712 464.225 258.692L462.918 257.657C463.083 257.632 463.355 257.588 463.728 257.566L464.582 258.242C464.706 258.341 464.725 258.522 464.629 258.646Z" fill="#4A75CB"/>
<path d="M485.628 272.556L485.376 272.405C485.208 272.306 485.153 272.089 485.252 271.921L485.878 270.864C485.977 270.697 486.194 270.642 486.362 270.741L486.614 270.892C486.782 270.99 486.837 271.21 486.738 271.375L486.112 272.432C486.016 272.6 485.796 272.655 485.628 272.556Z" fill="#4A75CB"/>
<path d="M487.289 273.536L487.036 273.385C486.868 273.286 486.814 273.067 486.912 272.902L487.539 271.845C487.637 271.677 487.854 271.622 488.022 271.721L488.275 271.872C488.442 271.971 488.497 272.191 488.398 272.355L487.772 273.413C487.673 273.577 487.456 273.635 487.289 273.536Z" fill="#4A75CB"/>
<path d="M497.49 278.579C497.402 278.526 497.372 278.411 497.424 278.32L497.526 278.15C497.578 278.062 497.693 278.032 497.784 278.084C497.872 278.136 497.902 278.252 497.85 278.342L497.748 278.513C497.693 278.603 497.578 278.631 497.49 278.579Z" fill="#4A75CB"/>
<path d="M496.654 278.09C496.566 278.038 496.536 277.923 496.588 277.832L496.69 277.662C496.742 277.574 496.857 277.544 496.948 277.596C497.036 277.648 497.066 277.763 497.014 277.854L496.912 278.024C496.857 278.112 496.742 278.142 496.654 278.09Z" fill="#4A75CB"/>
<path d="M495.818 277.594C495.73 277.542 495.7 277.427 495.752 277.336L495.854 277.166C495.906 277.078 496.021 277.048 496.112 277.1C496.2 277.152 496.23 277.267 496.178 277.358L496.076 277.528C496.021 277.616 495.906 277.646 495.818 277.594Z" fill="#4A75CB"/>
<path d="M494.982 277.098C494.894 277.046 494.864 276.931 494.916 276.84L495.018 276.67C495.07 276.582 495.185 276.552 495.276 276.604C495.364 276.656 495.394 276.771 495.342 276.862L495.24 277.032C495.188 277.123 495.07 277.15 494.982 277.098Z" fill="#4A75CB"/>
<path d="M494.15 276.606C494.062 276.554 494.032 276.438 494.084 276.348L494.186 276.177C494.238 276.09 494.353 276.059 494.444 276.112C494.535 276.164 494.562 276.279 494.51 276.37L494.408 276.54C494.356 276.628 494.241 276.658 494.15 276.606Z" fill="#4A75CB"/>
<path d="M493.318 276.114C493.23 276.062 493.2 275.946 493.252 275.856L493.354 275.685C493.406 275.597 493.521 275.567 493.612 275.619C493.7 275.672 493.73 275.787 493.678 275.878L493.576 276.048C493.524 276.136 493.409 276.166 493.318 276.114Z" fill="#4A75CB"/>
<path d="M492.482 275.622C492.394 275.569 492.364 275.454 492.416 275.363L492.518 275.193C492.57 275.105 492.685 275.075 492.776 275.127C492.864 275.179 492.894 275.295 492.842 275.385L492.74 275.556C492.688 275.643 492.573 275.674 492.482 275.622Z" fill="#4A75CB"/>
<path d="M491.646 275.125C491.558 275.073 491.528 274.958 491.58 274.867L491.682 274.697C491.734 274.609 491.849 274.579 491.94 274.631C492.028 274.683 492.058 274.799 492.006 274.889L491.904 275.06C491.849 275.147 491.734 275.178 491.646 275.125Z" fill="#4A75CB"/>
<path d="M490.814 274.633C490.726 274.581 490.696 274.466 490.748 274.375L490.85 274.205C490.902 274.117 491.017 274.087 491.108 274.139C491.196 274.191 491.226 274.306 491.174 274.397L491.072 274.567C491.017 274.658 490.902 274.685 490.814 274.633Z" fill="#4A75CB"/>
</g>
<path d="M485.674 276.969C486.234 277.07 486.657 276.466 486.374 275.972C486.091 275.478 485.658 274.906 485.042 274.552C483.779 273.822 483.406 276.134 483.815 276.395C484.059 276.549 484.927 276.837 485.674 276.969Z" fill="#2B478B"/>
<path d="M485.55 274.221L483.998 276.847C483.998 276.847 482.455 276.534 480.343 275.353C479.052 274.631 478.272 273.963 477.863 273.554C477.602 273.293 477.492 273.139 477.492 273.139L479.121 270.385C479.277 270.366 479.472 270.393 479.695 270.456C481.543 270.981 485.338 273.974 485.338 273.974L485.55 274.221Z" fill="#2B478B"/>
<path d="M479.695 270.456L477.863 273.554C477.602 273.293 477.492 273.139 477.492 273.139L479.121 270.385C479.277 270.366 479.472 270.393 479.695 270.456Z" fill="#4A75CB"/>
<path d="M515.031 287.024C515.108 286.996 520.472 288.208 523.388 290.341L519.7 290.284L514.963 287.483C514.965 287.485 514.652 287.164 515.031 287.024Z" fill="#2B478B"/>
<path d="M504.084 276.341C504.084 276.341 500.766 278.626 500.187 278.934C499.61 279.244 498.685 279.159 498.685 279.159H498.679L492.97 278.198C492.97 278.198 486.884 274.644 485.574 273.837C485.456 273.763 485.376 273.713 485.344 273.688C484.959 273.411 484.833 273.164 484.965 273.087C485.096 273.01 495.104 276.992 496.208 277.44C496.219 277.445 496.23 277.448 496.238 277.454C497.314 277.885 497.531 277.66 497.531 277.66L503.049 276.144C503.128 276.105 503.233 276.097 503.345 276.108C503.683 276.144 504.084 276.341 504.084 276.341Z" fill="#4A75CB"/>
<path d="M503.348 276.108C501.837 276.572 497.666 277.846 497.303 277.893C496.913 277.942 487.812 274.644 485.574 273.837C485.456 273.763 485.376 273.713 485.344 273.688C484.959 273.411 484.833 273.164 484.965 273.087C485.096 273.01 495.104 276.992 496.208 277.44C497.312 277.887 497.534 277.66 497.534 277.66L503.051 276.144C503.131 276.102 503.238 276.097 503.348 276.108Z" fill="#4A75CB"/>
<path d="M504.085 276.339C504.085 276.339 500.768 278.624 500.189 278.932C499.612 279.242 498.686 279.157 498.686 279.157H498.681C497.602 278.586 496.769 277.924 496.242 277.452C497.319 277.883 497.536 277.658 497.536 277.658L503.053 276.142C503.132 276.103 503.237 276.095 503.349 276.106C503.684 276.142 504.085 276.339 504.085 276.339Z" fill="#4A75CB"/>
<path d="M519.539 288.849L505.223 279.893C505.223 279.893 512.616 282.304 513.61 282.035C514.549 281.783 524.823 278.353 527.253 278.66C524.493 279.775 518.017 282.538 517.57 284.067C517.144 285.528 518.718 287.797 519.539 288.849Z" fill="#739AF0"/>
<path d="M175.749 114.659C175.719 113.868 175.109 105.343 162.125 104.898C162.125 104.898 168.51 105.659 169.614 108.466C169.614 108.466 165.267 104.997 161.727 106.112C158.187 107.227 156.108 113.431 156.086 115.471C156.064 117.512 158.033 124.089 160.28 124.647C161.131 124.858 162.111 124.803 163.001 124.649C162.402 125.583 161.818 126.613 161.257 127.764C156.078 138.4 161.419 148.792 165.805 147.644C168.617 146.908 169.414 151.708 169.414 151.708L196.741 129.584C196.741 129.582 186.701 108.812 175.749 114.659Z" fill="#1A3151"/>
<path d="M185.265 427.968L179.459 430.13C179.459 430.13 154.246 395.162 151.143 364.393C150.588 358.901 150.772 353.578 151.972 348.663C151.972 348.663 151.725 347.256 151.294 344.768C151.093 343.607 150.849 342.209 150.569 340.608C149.748 335.912 148.622 329.486 147.331 322.167C144.365 305.33 140.52 283.802 137.535 267.978L139.101 267.475L156.023 262.016L159.522 250.907L172.124 247.59C172.124 247.59 174.939 253.096 177.455 279.111C177.919 282.522 178.342 286.287 178.657 290.368C179.638 302.822 179.709 318.273 177.457 335.936C176.878 340.457 176.15 345.125 175.244 349.923C174.579 353.438 174.48 358.23 174.76 363.734C176.032 388.881 185.265 427.968 185.265 427.968Z" fill="#145566"/>
<path d="M178.657 290.368L151.294 344.768C151.093 343.607 150.849 342.209 150.569 340.608C149.748 335.912 148.622 329.486 147.331 322.167C144.365 305.33 140.52 283.802 137.535 267.978L139.101 267.475L156.023 262.016L159.522 250.907L172.124 247.59C172.124 247.59 174.939 253.096 177.455 279.111C177.919 282.525 178.342 286.287 178.657 290.368Z" fill="#0F3C48"/>
<path d="M166.622 254.574L165.987 249.142C155.373 251.959 127.018 241.266 127.018 241.266C127.018 241.266 116.736 250.304 118.087 271.966C118.746 282.539 119.949 327.47 121.207 340.767C121.66 345.587 122.058 349.014 122.223 350.385C122.226 350.39 122.226 350.396 122.226 350.399C122.275 350.816 122.13 351.211 121.918 351.577C120.067 354.718 118.535 357.986 117.28 361.334C104.944 394.209 119.18 434.697 119.18 434.697L122.874 433.209C122.874 433.209 130.975 388.151 137.558 368.244C138.676 364.868 139.747 362.216 140.73 360.628C143.592 356.009 146.247 348.46 148.659 339.482C153.215 322.508 156.884 300.428 159.325 283.385C159.66 283.401 166.622 254.574 166.622 254.574Z" fill="#145566"/>
<path d="M250.23 247.633C247.945 249.655 241.884 242.712 241.049 241.792C241.005 241.704 240.961 241.66 240.961 241.66L242.806 236.519C242.806 236.519 250.757 236.212 252.075 237.53C253.393 238.848 252.734 245.48 250.23 247.633Z" fill="#ED985F"/>
<path d="M242.807 236.52L242.016 241.837C242.016 241.837 241.664 241.837 241.049 241.793C239.116 241.661 234.417 241.398 229.1 240.826C221.106 240.035 211.615 238.629 207.839 236.303C202.086 232.788 192.639 222.026 186.49 211.263C186.314 210.999 186.182 210.736 186.05 210.472C182.843 204.76 180.602 199.094 180.429 194.569C180.297 191.8 180.604 189.428 181.176 187.365C181.923 184.641 183.153 182.491 184.427 180.865C184.603 180.601 184.779 180.338 185.042 180.118C187.152 177.613 189.217 176.559 189.217 176.559C190.271 176.119 191.414 176.647 192.6 177.921V177.965C193.567 178.975 194.621 180.513 195.632 182.447C195.676 182.491 195.72 182.535 195.72 182.579C195.94 182.974 196.159 183.413 196.423 183.897C196.511 183.985 196.555 184.116 196.599 184.204C197.082 185.215 197.565 186.269 198.049 187.368C203.45 199.141 209.207 216.975 213.996 222.292C216.061 224.577 225.506 229.056 233.017 232.395C238.413 234.763 242.807 236.52 242.807 236.52Z" fill="#ED985F"/>
<path d="M186.893 188.682C183.562 190.228 179.539 191.28 174.67 191.543C156.424 192.543 152.283 176.549 151.527 165.932C154.158 164.979 156.46 165.069 157.789 165.141C159.082 165.212 160.433 165.344 161.546 165.481C163.778 164.314 167.788 158.651 170.106 149.18L170.894 149.545L184.059 155.735C184.059 155.735 182.661 160.019 181.629 164.119C180.824 167.327 180.245 170.427 180.728 171.295C181.766 171.718 182.387 171.982 182.387 171.982C182.387 171.982 182.387 171.987 182.392 171.995C182.524 172.333 185.389 179.627 186.893 188.682Z" fill="#FFB27D"/>
<path d="M191.457 200.655C191.32 201.02 191.169 201.374 191.001 201.74C186.379 211.692 177.825 252.919 177.825 252.919C179.044 260.331 122.12 251.463 121.975 244.716C119.97 237.559 129.087 226.063 134.231 220.293C134.876 219.568 135.453 218.791 135.956 217.97C137.225 215.913 138.032 213.59 138.287 211.165C139.298 201.597 138.913 192.633 138.999 187.182C140.004 186.438 140.976 185.751 141.879 185.097C143.263 184.087 144.486 183.145 145.386 182.189C146.378 181.146 146.998 180.08 147.067 178.877C147.119 177.968 147.092 177.034 146.996 176.101C146.952 175.661 146.897 175.219 146.831 174.78C146.12 170.15 144.186 165.951 144.186 165.951C149.083 163.971 157.788 165.149 157.788 165.149C157.788 165.149 157.78 165.632 157.775 166.423C157.747 169.603 157.775 177.768 158.794 179.314C160.068 181.239 183.389 189.67 184.622 187.058C185.836 184.49 182.513 172.456 182.389 172.001C182.384 171.99 182.384 171.987 182.384 171.987C190.194 175.054 192.984 177.628 192.984 177.628C188.283 180.673 195.099 190.999 191.457 200.655Z" fill="#EBB044"/>
<path d="M184.064 155.738C184.064 155.738 182.663 160.019 181.633 164.122C173.939 161.975 171.601 153.887 170.898 149.551L184.064 155.738Z" fill="#ED985F"/>
<path d="M185.682 160.27C185.682 160.27 167.272 156.011 170.1 144.583C172.929 133.159 172.459 124.915 184.334 127.153C196.209 129.391 197.403 134.312 197.387 138.358C197.37 142.397 190.543 161.083 185.682 160.27Z" fill="#FFB27D"/>
<path d="M198.421 131.87C196.441 127.729 194.112 127.951 192.654 128.685C184.003 120.679 175.517 127.221 175.517 127.221C172.252 135.111 165.172 138.335 165.172 138.335C165.172 138.335 168.001 141.232 176.198 141.166C178.703 141.147 181.221 139.996 183.511 138.412C179.093 142.863 173.91 145.571 173.91 145.571C184.173 143.608 191.052 131.727 191.758 130.464C192.629 131.747 194.29 134.482 194.43 136.789C194.62 139.925 193.541 146.013 195.337 146.244C195.342 146.247 201.389 138.08 198.421 131.87Z" fill="#1A3151"/>
<path d="M192.988 177.621C192.988 177.621 197.42 185.355 198.085 187.346C198.085 187.346 192.337 187.123 190.017 191.547C190.017 191.545 189.459 178.662 192.988 177.621Z" fill="#EBB044"/>
<path d="M162.502 239.062C151.276 238.944 141.768 227.286 135.957 217.968C137.226 215.911 138.033 213.588 138.289 211.163C139.299 201.595 138.915 192.631 139 187.18C140.005 186.436 140.977 185.749 141.881 185.096C143.265 184.085 144.487 183.143 145.388 182.188C154.585 197.723 177.725 239.224 162.502 239.062Z" fill="#9B732A"/>
<path d="M140.655 437.711H111.418C111.418 437.711 110.718 433.254 112.245 429.873C113.708 426.63 115.999 425.155 115.452 421.23C117.309 423.142 120.338 425.284 124.564 424.715C125.083 425.556 127.907 430.049 129.637 431.293C131.548 432.666 140.067 432.177 140.655 437.711Z" fill="#1A3151"/>
<path d="M203.429 437.714H174.193C174.193 437.714 173.1 433.051 175.019 429.877C176.719 427.07 176.066 425.469 174.808 423.148C176.132 423.689 177.845 424.184 179.732 424.077C181.187 423.991 182.728 423.332 184.079 422.547C185.337 423.98 190.725 430.088 192.408 431.299C194.32 432.67 202.841 432.181 203.429 437.714Z" fill="#1A3151"/>
<path d="M228.722 221.949L200.273 258.952L202.586 260.572L231.383 223.567L228.722 221.949Z" fill="#247B7B"/>
<path d="M231.383 223.566H260.252L230.032 260.572H202.586L231.383 223.566Z" fill="#247B7B"/>
<path d="M228.719 221.949H257.395L259.015 223.567H231.38L228.719 221.949Z" fill="#CCDFED"/>
<path d="M229.479 222.413H257.917L258.378 221.949H228.719L229.479 222.413Z" fill="#247B7B"/>
<path d="M225.446 246.027C225.366 244.555 223.425 244.621 221.95 244.615C219.53 244.604 215.713 244.439 213.505 243.591C213.505 243.591 220.555 243.489 219.058 241.262C218.786 240.856 215.282 241.163 211.369 241.163C209.765 241.163 205.799 243.363 206.002 243.464C203.168 243.091 200.59 242.542 199.758 242.36C197.824 241.306 195.495 240.032 193.037 238.626C187.106 235.286 180.298 231.203 175.64 227.819C172.96 225.886 170.938 224.172 170.238 222.942C169.14 221.052 167.909 218.064 166.547 214.376C165.844 212.443 165.097 210.334 164.35 208.093C163.032 204.402 161.714 200.406 160.352 196.408C157.891 189.116 155.255 181.778 152.753 176.11C151.127 172.551 149.545 169.61 148.051 167.808C146.865 166.358 145.722 165.611 144.624 165.787C144.448 165.831 144.316 165.875 144.185 165.919C144.185 165.919 137.86 167.676 137.772 180.416C137.728 181.119 137.772 181.866 137.816 182.657C137.904 184.898 138.343 187.622 139.002 190.608C140.057 195.617 141.815 201.414 144.012 207.302C144.627 208.884 145.242 210.51 145.901 212.133C150.646 223.906 156.751 234.888 161.892 238.623C162.112 238.799 162.288 238.93 162.508 239.062C164.661 240.424 167.824 241.787 171.468 243.061C176.653 244.818 182.802 246.4 188.295 247.718H188.339C191.546 248.421 194.487 249.081 196.948 249.564C196.948 249.564 197.352 249.665 198.071 249.808C198.176 249.828 198.283 249.849 198.398 249.871C200.727 250.443 205.514 251.673 210.039 253.431C216.367 255.935 221.019 252.821 223.131 250.618C224.465 249.226 225.52 247.372 225.446 246.027Z" fill="#FFB27D"/>
<path d="M152.735 176.133C144.279 173.802 137.754 180.403 137.754 180.403C137.861 167.686 144.191 165.945 144.191 165.945C146.737 164.89 149.689 169.3 152.735 176.133Z" fill="#EBB044"/>
<path d="M353.916 331.798C350.462 328.692 353.304 321.36 351.989 319.913C351.772 319.677 351.277 319.309 350.643 318.836C349.775 322.428 348.193 326.094 345.889 329.555C338.049 341.344 324.801 346.323 316.301 340.669C308.035 335.171 307.307 321.64 314.494 310.054C314.695 309.73 314.903 309.408 315.117 309.084C317.405 305.646 320.151 302.79 323.106 300.604C323.115 300.596 323.123 300.59 323.131 300.585C322.755 300.368 322.458 300.206 322.258 300.134C320.412 299.481 314.749 304.935 310.548 302.949C306.349 300.964 310.185 292.947 318.484 292.008C323.546 291.434 328.887 294.049 332.284 296.18C333.795 295.817 335.297 295.633 336.761 295.641C336.816 295.641 336.87 295.639 336.925 295.641C335.989 292.513 336.401 289.009 338.351 286.079C339.01 285.088 339.801 284.233 340.682 283.522C340.677 283.514 340.674 283.506 340.668 283.498C339.691 281.68 339.724 279.397 340.946 277.56C342.712 274.907 346.296 274.185 348.951 275.951C350.874 277.228 351.783 279.461 351.467 281.603C352.384 281.913 353.277 282.347 354.122 282.91C354.872 283.41 355.542 283.981 356.133 284.61C357.975 283.536 360.345 283.53 362.24 284.791C364.896 286.56 365.615 290.141 363.85 292.799C362.691 294.54 360.749 295.449 358.802 295.37C358.489 296.517 357.989 297.638 357.294 298.681C355.454 301.45 352.612 303.15 349.569 303.622C350.327 305.174 350.854 306.89 351.151 308.719C354.455 310.957 359.42 315.055 360.939 320.256C363.281 328.267 357.371 334.902 353.916 331.798Z" fill="#EFCDAF"/>
<path d="M314.492 310.052C314.693 309.728 314.901 309.407 315.116 309.083C317.403 305.645 320.149 302.789 323.104 300.603C323.983 300.534 324.878 300.723 325.2 301.627C325.914 303.623 319.218 309.901 319.792 313.466C320.218 316.108 316.368 312.293 314.492 310.052Z" fill="#E2B99A"/>
<path d="M341.715 298.522C340.649 298.034 338.474 296.894 336.761 295.636C336.816 295.636 336.871 295.633 336.925 295.636C335.989 292.508 336.401 289.004 338.351 286.074C339.01 285.082 339.801 284.228 340.682 283.517C340.677 283.509 340.674 283.5 340.669 283.492C340.784 283.542 340.836 283.695 340.781 284.022C340.567 285.269 337.444 293.977 342.533 297.707C342.533 297.701 343.294 299.245 341.715 298.522Z" fill="#E2B99A"/>
<path d="M357.453 286.949C357.453 286.949 360.411 286.057 361.446 288.086C362.481 290.119 360.488 292.543 358.884 292.153C358.884 292.151 358.769 289.292 357.453 286.949Z" fill="#FFF3E9"/>
<path d="M349.118 280.88C349.118 280.88 347.923 277.653 345.748 277.831C343.573 278.013 344.073 281.509 344.073 281.509C344.073 281.509 347.031 280.473 349.118 280.88Z" fill="#FFF3E9"/>
<path d="M282.116 312.823C282.116 312.823 274.704 303.266 274.655 295.467C274.605 287.668 274.83 285.078 276.132 285.429C277.434 285.781 283.289 290.131 285.395 294.462C287.499 298.793 291.198 310.124 291.275 311.667C291.352 313.21 282.116 312.823 282.116 312.823Z" fill="#AFCDFB"/>
<path d="M282.524 309.773C282.524 309.773 277.789 303.171 277.608 297.898C277.43 292.626 277.52 290.879 278.325 291.143C279.132 291.406 282.812 294.457 284.188 297.423C285.564 300.392 288.052 308.123 288.129 309.166C288.203 310.21 282.524 309.773 282.524 309.773Z" fill="#E57970"/>
<path d="M294.076 308.833C294.076 308.833 290.522 295.89 291.926 292.367C293.329 288.843 300.609 291.197 301.433 293.68C302.26 296.165 301.749 306.653 301.749 306.653L294.076 308.833Z" fill="#AFCDFB"/>
<path d="M295.021 293.953C295.021 293.953 294.508 304.21 296.301 308.203L299.75 307.223C299.75 307.223 300.286 295.768 299.824 294.997C299.366 294.222 295.021 293.953 295.021 293.953Z" fill="#E57970"/>
<path d="M291.727 293.102C291.727 293.102 303.679 301.011 304.643 300.176C305.607 299.341 301.974 291.311 300.562 290.592C299.156 289.875 291.642 288.392 291.727 293.102Z" fill="#AFCDFB"/>
<path d="M269.741 437.676H432.676V303.327H269.741V437.676Z" fill="#D3671E"/>
<path d="M514.145 303.324H351.211V437.673H514.145V303.324Z" fill="#F1A34F"/>
<path opacity="0.4" d="M514.143 303.324V395.477L351.211 437.673V303.324H514.143Z" fill="#D86713"/>
<path d="M351.211 303.324L383.452 338.674H544.228L514.146 303.324H351.211Z" fill="#F1A34F"/>
<path d="M269.836 403.601H295.653L293.379 396.335L295.653 391.145H269.836V403.601Z" fill="#F1A34F"/>
<path opacity="0.4" d="M514.177 426.644H488.359L490.633 419.378L488.359 414.188H514.177V426.644Z" fill="#D86713"/>
<path d="M351.207 318.514L316.863 352.855H269.836V303.324H351.207V318.514Z" fill="#C95C12"/>
<path d="M269.742 303.324L233.109 338.674H314.629L351.209 303.324H269.742Z" fill="#F1A34F"/>
<path d="M362.602 382.003V355.535H370.744C372.526 355.535 374.158 355.84 375.643 356.452C377.129 357.065 378.401 357.924 379.461 359.034C380.521 360.143 381.347 361.473 381.943 363.024C382.537 364.576 382.833 366.298 382.833 368.187V369.387C382.833 371.277 382.539 372.996 381.952 374.542C381.364 376.088 380.534 377.414 379.461 378.524C378.387 379.633 377.107 380.49 375.616 381.097C374.125 381.704 372.483 382.006 370.689 382.006H362.602V382.003ZM368.056 359.954V377.623H370.692C372.848 377.623 374.49 376.912 375.619 375.487C376.745 374.064 377.31 372.029 377.31 369.387V368.151C377.31 365.46 376.753 363.422 375.638 362.036C374.523 360.649 372.892 359.954 370.747 359.954H368.056Z" fill="#F1A34F"/>
<path d="M408.537 369.366C408.537 371.39 408.265 373.205 407.719 374.809C407.172 376.416 406.406 377.775 405.42 378.89C404.432 380.005 403.248 380.862 401.867 381.463C400.485 382.065 398.964 382.364 397.305 382.364C395.646 382.364 394.125 382.065 392.741 381.463C391.36 380.865 390.168 380.005 389.168 378.89C388.168 377.775 387.388 376.416 386.831 374.809C386.273 373.203 385.996 371.39 385.996 369.366V368.202C385.996 366.189 386.271 364.379 386.823 362.767C387.375 361.155 388.146 359.784 389.141 358.658C390.135 357.532 391.321 356.667 392.702 356.069C394.084 355.47 395.605 355.168 397.264 355.168C398.923 355.168 400.444 355.467 401.825 356.069C403.207 356.67 404.393 357.532 405.387 358.658C406.381 359.784 407.153 361.155 407.705 362.767C408.257 364.379 408.532 366.191 408.532 368.202V369.366H408.537ZM403.009 368.169C403.009 365.392 402.512 363.286 401.518 361.841C400.524 360.4 399.107 359.677 397.264 359.677C395.421 359.677 394.004 360.4 393.01 361.841C392.016 363.283 391.519 365.392 391.519 368.169V369.369C391.519 370.75 391.648 371.972 391.909 373.032C392.17 374.092 392.546 374.982 393.035 375.704C393.526 376.427 394.128 376.97 394.844 377.341C395.559 377.712 396.377 377.896 397.3 377.896C399.142 377.896 400.554 377.168 401.534 375.715C402.515 374.263 403.006 372.148 403.006 369.372V368.169H403.009Z" fill="#F1A34F"/>
<path d="M434.021 382.003H428.567L417.95 364.59V382.003H412.496V355.535H417.95L428.584 372.985V355.535H434.018V382.003H434.021Z" fill="#F1A34F"/>
<path d="M454.055 376.549H444.493L442.675 382.003H436.875L446.729 355.535H451.782L461.69 382.003H455.89L454.055 376.549ZM445.968 372.133H452.583L449.258 362.225L445.968 372.133Z" fill="#F1A34F"/>
<path d="M481.906 359.951H473.799V382.001H468.345V359.951H460.348V355.535H481.906V359.951Z" fill="#F1A34F"/>
<path d="M500.938 370.532H490.467V377.623H502.756V382.003H485.016V355.535H502.721V359.951H490.47V366.259H500.941V370.532H500.938Z" fill="#F1A34F"/>
<path d="M229.509 402.29L226.543 402.867C223.023 403.55 219.584 401.23 218.901 397.709L214.537 375.245C213.916 372.035 215.784 368.898 218.783 367.849C218.758 367.772 218.733 367.695 218.717 367.61L218.461 366.289C218.283 365.375 218.887 364.48 219.804 364.301L221.125 364.043C222.042 363.864 222.938 364.469 223.116 365.383L223.372 366.707C223.385 366.767 223.393 366.83 223.396 366.891C223.396 366.902 223.399 366.913 223.399 366.924C226.651 366.668 229.671 368.907 230.309 372.177L234.67 394.644C235.353 398.162 233.03 401.606 229.509 402.29Z" fill="#CADDFF"/>
<path d="M230.55 373.489L214.781 376.551L217.779 391.991L233.548 388.929L230.55 373.489Z" fill="#2B478B"/>
<path d="M223.396 366.89L218.782 367.845C218.758 367.768 218.733 367.692 218.716 367.606L218.461 366.285C218.282 365.371 218.887 364.476 219.804 364.297L221.125 364.039C222.042 363.861 222.937 364.465 223.116 365.379L223.371 366.703C223.382 366.766 223.39 366.829 223.396 366.89Z" fill="#4A75CB"/>
<path d="M309.461 361.217C309.461 361.217 307.508 363.966 305.718 364.005C303.927 364.043 301.203 362.731 301.203 362.731C301.203 362.731 299.558 359.064 300.673 357.631C300.673 357.631 301.79 357.139 302.96 358.007C303.161 358.158 303.364 358.345 303.567 358.587C303.85 358.927 304.169 359.122 304.507 359.224C305.784 359.614 307.302 358.696 307.868 359.581C308.2 360.094 308.56 360.479 308.857 360.751C309.205 361.064 309.461 361.217 309.461 361.217Z" fill="#F9DDBF"/>
<path d="M283.992 381.053C283.992 381.053 290.896 364.322 303.326 364.004C303.326 364.004 314.8 365.278 315.437 381.053H283.992Z" fill="#F9DDBF"/>
<path d="M299.923 364.516C299.923 364.516 304.904 365.623 306.442 364.972C306.442 364.972 306.676 362.89 304.577 363.181C303.141 363.382 302.207 362.69 301.655 362.412C300.876 362.017 299.717 363.645 299.923 364.516Z" fill="#F1A34F"/>
<path d="M304.257 361.377C303.939 361.616 302.961 358.008 302.961 358.008C303.161 358.159 303.365 358.346 303.568 358.587C303.851 358.928 304.169 359.123 304.507 359.224C304.51 359.332 304.567 361.144 304.257 361.377Z" fill="#E5C1A1"/>
<path d="M308.857 360.749C308.788 360.79 306.481 362.172 306.171 362.172C305.852 362.172 307.871 359.582 307.871 359.582C308.198 360.093 308.56 360.48 308.857 360.749Z" fill="#E5C1A1"/>
<path d="M290.737 376.379C290.61 376.27 295.622 368.998 297.004 368.943C298.385 368.89 301.488 370.535 303.735 370.75C305.981 370.961 308.159 370.324 308.585 371.653C309.01 372.982 310.177 377.689 309.461 378.442C308.744 379.194 293.494 378.736 290.737 376.379Z" fill="#E5C1A1"/>
<path d="M232.544 387.691C232.355 388.065 232.08 388.367 231.753 388.584C231.569 388.705 231.375 388.801 231.166 388.869C230.586 389.059 229.938 389.026 229.359 388.732L198.398 373.004C197.236 372.414 196.766 370.98 197.357 369.816C197.653 369.234 198.159 368.827 198.735 368.638C199.315 368.448 199.963 368.481 200.542 368.775L231.504 384.503C232.668 385.096 233.135 386.53 232.544 387.691Z" fill="#E57970"/>
<path d="M208.664 378.218L206.711 371.907L201.727 369.375L204.731 376.221L208.664 378.218Z" fill="#B64C41"/>
<path d="M216.225 382.058L212.292 380.058L209.285 373.215L214.272 375.747L216.225 382.058Z" fill="#B64C41"/>
<path d="M223.783 385.898L219.848 383.901L216.844 377.055L221.831 379.589L223.783 385.898Z" fill="#B64C41"/>
<path d="M231.752 388.583C231.568 388.704 231.373 388.8 231.165 388.869C230.585 389.058 229.937 389.025 229.358 388.731L227.54 387.808L224.535 380.965L229.522 383.497L231.752 388.583Z" fill="#B64C41"/>
<path d="M197.355 369.816C197.355 369.816 196.729 366.452 193.996 365.449C193.996 365.449 194.318 365.836 193.002 366.257C191.687 366.677 192.068 367.583 191.602 367.995C191.602 367.995 193.499 370.516 197.355 369.816Z" fill="#B64C41"/>
<path d="M196.823 370.261L196.749 370.225C196.54 370.118 196.455 369.86 196.562 369.651L196.946 368.893C197.054 368.685 197.312 368.599 197.52 368.707L197.592 368.742C197.801 368.849 197.886 369.107 197.779 369.316L197.394 370.074C197.292 370.283 197.032 370.368 196.823 370.261Z" fill="#4A75CB"/>
<path d="M232.414 387.627C232.414 387.627 235.501 386.147 237.92 387.764C237.92 387.764 237.418 387.734 237.854 389.044C238.291 390.354 237.333 390.579 237.278 391.2C237.28 391.2 234.125 391.153 232.414 387.627Z" fill="#B64C41"/>
<path d="M232.369 388.315L232.444 388.351C232.652 388.458 232.91 388.373 233.017 388.164L233.402 387.406C233.509 387.197 233.424 386.936 233.215 386.832L233.144 386.796C232.935 386.689 232.674 386.774 232.57 386.983L232.185 387.741C232.076 387.95 232.158 388.208 232.369 388.315Z" fill="#4A75CB"/>
<path d="M272.621 387.935C272.259 388.143 271.864 388.248 271.471 388.253C271.251 388.256 271.034 388.229 270.823 388.171C270.235 388.014 269.708 387.635 269.381 387.07L251.989 357.012C251.335 355.883 251.725 354.425 252.854 353.774C253.42 353.447 254.065 353.382 254.653 353.538C255.241 353.695 255.768 354.074 256.095 354.639L273.487 384.697C274.137 385.826 273.75 387.281 272.621 387.935Z" fill="#F1A34F"/>
<path d="M257.759 366.979L259.56 360.627L256.759 355.785L255.551 363.162L257.759 366.979Z" fill="#F9DDBF"/>
<path d="M262.005 374.319L259.797 370.501L261.005 363.125L263.806 367.967L262.005 374.319Z" fill="#F9DDBF"/>
<path d="M266.247 381.653L264.039 377.836L265.247 370.457L268.049 375.299L266.247 381.653Z" fill="#F9DDBF"/>
<path d="M271.475 388.257C271.255 388.259 271.038 388.232 270.827 388.174C270.239 388.018 269.712 387.639 269.385 387.073L268.363 385.31L269.572 377.934L272.373 382.775L271.475 388.257Z" fill="#F9DDBF"/>
<path d="M252.856 353.774C252.856 353.774 254.166 350.61 252.417 348.281C252.417 348.281 252.474 348.781 251.142 348.416C249.81 348.051 249.637 349.02 249.02 349.108C249.022 349.113 249.242 352.261 252.856 353.774Z" fill="#F1A34F"/>
<path d="M252.169 353.858L252.127 353.786C252.009 353.583 252.081 353.32 252.284 353.201L253.02 352.776C253.223 352.658 253.487 352.729 253.605 352.932L253.646 353.004C253.764 353.207 253.693 353.471 253.49 353.589L252.754 354.014C252.55 354.13 252.287 354.061 252.169 353.858Z" fill="#D3671E"/>
<path d="M272.553 387.809C272.553 387.809 275.947 388.248 277.095 390.926C277.095 390.926 276.689 390.626 276.343 391.961C275.997 393.298 275.069 392.966 274.684 393.455C274.684 393.458 272.064 391.7 272.553 387.809Z" fill="#F1A34F"/>
<path d="M272.135 388.368L272.176 388.44C272.294 388.643 272.558 388.714 272.761 388.596L273.497 388.171C273.701 388.053 273.772 387.789 273.654 387.586L273.613 387.514C273.495 387.311 273.234 387.24 273.028 387.358L272.292 387.784C272.089 387.902 272.017 388.165 272.135 388.368Z" fill="#D3671E"/>
<path d="M216.341 396.366C215.971 396.171 215.674 395.891 215.463 395.562C215.345 395.375 215.251 395.177 215.188 394.969C215.01 394.386 215.051 393.741 215.356 393.164L231.58 362.461C232.19 361.308 233.629 360.863 234.785 361.473C235.362 361.777 235.76 362.288 235.941 362.87C236.12 363.453 236.079 364.101 235.774 364.677L219.549 395.38C218.937 396.531 217.495 396.976 216.341 396.366Z" fill="#4A75CB"/>
<path d="M226.199 372.642L232.538 370.791L235.152 365.848L228.259 368.742L226.199 372.642Z" fill="#699FF0"/>
<path d="M222.234 380.138L224.294 376.241L231.187 373.344L228.573 378.29L222.234 380.138Z" fill="#699FF0"/>
<path d="M218.277 387.633L220.34 383.73L227.23 380.836L224.618 385.782L218.277 387.633Z" fill="#699FF0"/>
<path d="M215.463 395.558C215.345 395.372 215.251 395.174 215.188 394.965C215.01 394.383 215.051 393.738 215.356 393.161L216.308 391.359L223.202 388.465L220.59 393.408L215.463 395.558Z" fill="#699FF0"/>
<path d="M234.782 361.472C234.782 361.472 238.157 360.901 239.201 358.182C239.201 358.182 238.808 358.498 238.41 357.174C238.011 355.85 237.097 356.221 236.696 355.746C236.696 355.746 234.145 357.603 234.782 361.472Z" fill="#699FF0"/>
<path d="M234.35 360.936L234.389 360.865C234.498 360.656 234.759 360.576 234.965 360.686L235.718 361.084C235.926 361.194 236.006 361.455 235.896 361.661L235.858 361.732C235.748 361.941 235.487 362.021 235.281 361.911L234.529 361.513C234.32 361.403 234.24 361.145 234.35 360.936Z" fill="#4A75CB"/>
<path d="M216.41 396.242C216.41 396.242 217.841 399.354 216.182 401.746C216.182 401.746 216.221 401.243 214.905 401.658C213.59 402.075 213.378 401.111 212.758 401.045C212.758 401.048 212.857 397.895 216.41 396.242Z" fill="#4A75CB"/>
<path d="M215.721 396.181L215.682 396.252C215.572 396.461 215.652 396.719 215.861 396.829L216.613 397.227C216.822 397.337 217.08 397.258 217.19 397.049L217.228 396.977C217.338 396.769 217.259 396.511 217.05 396.401L216.297 396.002C216.091 395.893 215.83 395.972 215.721 396.181Z" fill="#4A75CB"/>
<path d="M248.758 368.459C248.758 368.459 250.175 370.456 251.477 370.483C252.776 370.511 254.753 369.558 254.753 369.558C254.753 369.558 255.947 366.9 255.137 365.859C255.137 365.859 254.324 365.502 253.476 366.131C253.33 366.24 253.182 366.375 253.036 366.551C252.83 366.798 252.6 366.941 252.355 367.012C251.427 367.295 250.326 366.63 249.917 367.27C249.675 367.644 249.414 367.921 249.2 368.119C248.945 368.35 248.758 368.459 248.758 368.459Z" fill="#B64C41"/>
<path d="M267.24 382.859C267.24 382.859 262.229 370.718 253.21 370.484C253.21 370.484 244.883 371.41 244.422 382.859H267.24Z" fill="#B64C41"/>
<path d="M255.679 370.853C255.679 370.853 252.062 371.657 250.947 371.185C250.947 371.185 250.779 369.672 252.301 369.886C253.342 370.032 254.023 369.532 254.421 369.326C254.987 369.037 255.83 370.221 255.679 370.853Z" fill="#963333"/>
<path d="M252.537 368.573C252.767 368.746 253.478 366.129 253.478 366.129C253.333 366.239 253.185 366.373 253.039 366.549C252.833 366.796 252.602 366.939 252.358 367.01C252.352 367.09 252.311 368.406 252.537 368.573Z" fill="#963333"/>
<path d="M249.195 368.122C249.245 368.152 250.917 369.155 251.145 369.155C251.376 369.155 249.912 367.273 249.912 367.273C249.673 367.647 249.412 367.927 249.195 368.122Z" fill="#963333"/>
<path d="M262.343 379.464C262.436 379.384 258.797 374.106 257.795 374.067C256.792 374.029 254.541 375.223 252.909 375.377C251.278 375.531 249.699 375.07 249.391 376.034C249.084 376.998 248.235 380.414 248.754 380.96C249.276 381.507 260.341 381.175 262.343 379.464Z" fill="#963333"/>
<path d="M284.684 369.107C283.193 369.126 282.446 366.871 282.446 366.871L267.913 371.271C268.564 372.863 267.512 374.091 267.512 374.091C267.512 374.091 264.999 375.769 265.779 378.35L268.995 388.973C269.566 390.857 271.571 391.931 273.455 391.359L288.784 386.718C290.665 386.15 291.739 384.142 291.171 382.261L287.955 371.636C287.502 370.153 286.156 369.175 284.684 369.107Z" fill="#CADDFF"/>
<path d="M266.461 370.798L267.334 373.682C267.65 374.723 271.629 374.443 276.224 373.05C280.818 371.661 284.287 369.686 283.971 368.645L283.098 365.762L266.461 370.798Z" fill="#963333"/>
<path d="M283.094 365.762C283.41 366.803 279.942 368.778 275.347 370.167C270.753 371.557 266.773 371.84 266.457 370.799C266.142 369.758 269.61 367.784 274.205 366.394C278.799 365.002 282.778 364.719 283.094 365.762Z" fill="#B64C41"/>
<path d="M245.695 374.883C244.654 374.378 244.915 372.555 244.915 372.555L233.298 370.566C233.199 371.898 232.04 372.384 232.04 372.384C232.04 372.384 229.711 372.678 229.36 374.741L227.907 383.232C227.649 384.737 228.671 386.179 230.175 386.437L242.429 388.532C243.934 388.79 245.376 387.769 245.634 386.264L247.087 377.773C247.29 376.586 246.694 375.441 245.695 374.883Z" fill="#B7D2F9"/>
<path d="M232.455 369.734L232.06 372.038C231.917 372.871 234.779 374.057 238.45 374.683C242.122 375.312 245.214 375.144 245.357 374.312L245.753 372.008L232.455 369.734Z" fill="#C95C12"/>
<path d="M245.752 372.01C245.609 372.845 242.517 373.01 238.845 372.381C235.173 371.752 232.312 370.568 232.454 369.736C232.597 368.904 235.689 368.736 239.361 369.365C243.033 369.992 245.894 371.178 245.752 372.01Z" fill="#F1A34F"/>
<path d="M208.677 437.672H280.656V378.323H208.677V437.672Z" fill="#D3671E"/>
<path d="M244.662 437.672H316.641V378.323H244.662V437.672Z" fill="#F1A34F"/>
<path opacity="0.4" d="M244.664 378.324H316.827V418.985L244.664 437.673V378.324Z" fill="#D86713"/>
<path d="M244.664 378.324L258.906 393.939H329.932L316.64 378.324H244.664Z" fill="#F1A34F"/>
<path d="M208.719 422.622H220.124L219.119 419.414L220.124 417.121H208.719V422.622Z" fill="#F1A34F"/>
<path d="M244.667 385.033L229.494 400.206H208.719V378.324H244.667V385.033Z" fill="#C95C12"/>
<path d="M208.676 378.324L192.492 393.939H228.504L244.665 378.324H208.676Z" fill="#F1A34F"/>
<path d="M249.695 413.08V401.387H253.293C254.081 401.387 254.801 401.521 255.457 401.793C256.113 402.065 256.676 402.444 257.143 402.933C257.613 403.422 257.978 404.009 258.239 404.696C258.503 405.382 258.632 406.14 258.632 406.975V407.505C258.632 408.34 258.503 409.098 258.242 409.782C257.981 410.466 257.615 411.051 257.14 411.54C256.668 412.031 256.1 412.407 255.443 412.677C254.784 412.943 254.059 413.077 253.268 413.077H249.695V413.08ZM252.104 403.339V411.144H253.268C254.221 411.144 254.946 410.828 255.443 410.199C255.94 409.571 256.19 408.672 256.19 407.505V406.959C256.19 405.77 255.943 404.869 255.451 404.257C254.96 403.644 254.238 403.337 253.29 403.337H252.104V403.339Z" fill="#F1A34F"/>
<path d="M269.987 407.503C269.987 408.398 269.866 409.197 269.624 409.909C269.383 410.617 269.045 411.219 268.608 411.713C268.172 412.207 267.65 412.583 267.037 412.85C266.428 413.116 265.755 413.248 265.022 413.248C264.288 413.248 263.616 413.116 263.006 412.85C262.396 412.586 261.869 412.207 261.427 411.713C260.985 411.221 260.641 410.62 260.394 409.909C260.147 409.2 260.023 408.398 260.023 407.503V406.989C260.023 406.1 260.144 405.3 260.389 404.589C260.633 403.878 260.974 403.271 261.413 402.774C261.852 402.277 262.377 401.895 262.987 401.629C263.596 401.365 264.269 401.23 265.002 401.23C265.736 401.23 266.408 401.362 267.018 401.629C267.628 401.892 268.152 402.274 268.592 402.774C269.031 403.271 269.372 403.878 269.616 404.589C269.86 405.3 269.981 406.102 269.981 406.989V407.503H269.987ZM267.545 406.973C267.545 405.748 267.326 404.814 266.886 404.177C266.447 403.54 265.821 403.221 265.008 403.221C264.195 403.221 263.569 403.54 263.129 404.177C262.69 404.814 262.47 405.745 262.47 406.973V407.503C262.47 408.113 262.528 408.654 262.643 409.12C262.759 409.59 262.923 409.983 263.14 410.301C263.357 410.62 263.624 410.862 263.94 411.024C264.255 411.186 264.615 411.268 265.024 411.268C265.837 411.268 266.461 410.947 266.895 410.304C267.328 409.661 267.545 408.728 267.545 407.5V406.973Z" fill="#F1A34F"/>
<path d="M281.246 413.08H278.837L274.147 405.388V413.08H271.738V401.387H274.147L278.846 409.095V401.387H281.246V413.08Z" fill="#F1A34F"/>
<path d="M290.096 410.672H285.872L285.07 413.08H282.508L286.861 401.387H289.093L293.471 413.08H290.909L290.096 410.672ZM286.523 408.719H289.445L287.976 404.342L286.523 408.719Z" fill="#F1A34F"/>
<path d="M302.399 403.339H298.818V413.08H296.409V403.339H292.875V401.387H302.399V403.339Z" fill="#F1A34F"/>
<path d="M310.807 408.018H306.182V411.152H311.611V413.088H303.773V401.395H311.595V403.347H306.182V406.135H310.807V408.018Z" fill="#F1A34F"/>
</svg>
