<svg width="319" height="218" viewBox="0 0 319 218" fill="none" xmlns="http://www.w3.org/2000/svg">
<path d="M307.415 217.994C300.796 217.994 264.299 218.007 218.538 217.994C206.729 217.994 194.286 217.994 181.594 217.982C179.359 217.982 177.111 217.982 174.864 217.982C165.774 217.982 156.584 217.969 147.42 217.969C144.948 217.969 142.49 217.969 140.031 217.969C125.142 217.957 110.414 217.944 96.3936 217.932C41.7912 217.87 25.7221 217.42 25.7221 217.395C25.6103 217.133 -24.4719 191.47 15.4275 137.771C35.4952 110.735 12.6334 81.3381 29.7456 55.5628C53.9485 19.0853 94.0218 40.4772 121.515 28.9133C126.371 26.8778 131.251 23.5934 136.132 18.5483C138.876 15.7135 141.894 13.2409 145.11 11.0929C145.607 10.7682 146.103 10.4436 146.612 10.1314C148.537 8.93251 150.537 7.85854 152.598 6.88448C153.976 6.2351 155.392 5.62319 156.833 5.07371C159.118 4.19955 161.452 3.43778 163.849 2.7884C167.239 1.87678 170.741 1.18994 174.305 0.74037C175.857 0.540562 177.422 0.378217 179.011 0.265825C209.734 -2.04446 244.293 10.9431 262.138 29.9249C265.727 33.7462 282.057 53.5272 269.192 80.7012C261.058 97.8597 295.121 114.256 307.216 133.85C337.976 183.677 307.688 217.345 307.415 217.994Z" fill="#D9E3F6"/>
<path d="M186.126 127.265C186.15 126.008 187.119 123.865 185.205 121.828C183.847 120.366 182.652 118.723 182.08 117.92C181.873 117.594 179.556 119.509 179.606 119.587C179.988 120.155 181.735 123.047 181.989 124.661C182.267 126.478 185.364 128.468 185.364 128.468C185.364 128.468 186.119 128.515 186.126 127.265Z" fill="#F4A671"/>
<path d="M183.28 119.538L179.605 119.586C179.605 119.586 173.859 110.457 173.683 107.561C173.513 104.795 167.99 92.6911 174.456 85.1342C174.747 84.7916 175.064 84.4586 175.407 84.1364C175.418 84.1232 175.431 84.1124 175.444 84.1016C175.444 84.1016 175.455 84.1196 175.477 84.1545C175.608 84.3744 176.121 85.3085 176.724 87.3703C177.666 90.5945 178.832 96.5801 179.107 106.918C179.106 106.918 181.663 115.767 183.28 119.538Z" fill="#F4A671"/>
<path d="M171.814 71.0742C171.814 71.0742 171.417 72.1526 172.003 72.5757C172.589 72.9989 170.516 74.938 170.116 76.5669C169.716 78.1959 170.217 79.0614 170.217 79.0614C170.217 79.0614 170.157 78.0757 170.517 77.5936C170.517 77.5936 170.131 78.7128 170.77 79.5447C171.41 80.3754 171.034 80.7986 171.034 80.7986C171.034 80.7986 173.064 80.8322 173.557 79.4509C173.557 79.4509 173.438 80.1073 173.291 80.349C173.291 80.349 175.272 79.6517 175.789 78.2836C176.305 76.9156 175.339 75.3143 174.738 75.0991C174.136 74.8839 173.157 73.2489 173.337 72.8065C173.517 72.3641 171.814 71.0742 171.814 71.0742Z" fill="#1A3151"/>
<path d="M172.279 187.213L169.9 188.104C169.9 188.104 159.572 173.701 158.3 161.029C158.073 158.766 158.148 156.575 158.639 154.55C158.639 154.55 158.539 153.971 158.362 152.945C158.281 152.467 158.179 151.891 158.065 151.231C157.729 149.297 157.268 146.65 156.739 143.636C155.524 136.701 153.95 127.834 152.727 121.316L153.367 121.11L160.3 118.86L161.733 114.285L166.894 112.918C166.894 112.918 168.047 115.186 169.079 125.9C169.269 127.306 169.442 128.855 169.572 130.536C169.973 135.665 170.003 142.029 169.08 149.304C168.843 151.166 168.544 153.088 168.174 155.065C167.902 156.513 167.862 158.486 167.975 160.752C168.497 171.115 172.279 187.213 172.279 187.213Z" fill="#B64C41"/>
<path d="M169.572 130.539L158.362 152.946C158.281 152.468 158.179 151.892 158.065 151.232C157.729 149.298 157.268 146.65 156.739 143.637C155.524 136.701 153.95 127.835 152.727 121.317L153.367 121.11L160.3 118.861L161.733 114.286L167.899 112.441C167.899 112.441 168.048 115.187 169.079 125.901C169.269 127.309 169.442 128.858 169.572 130.539Z" fill="#963333"/>
<path d="M176.981 64.3153L165.786 73.4278C165.786 73.4278 165.459 71.4502 164.307 71.7544C162.509 72.2268 159.752 67.3833 161.873 63.0014C162.013 62.7152 163.736 58.3778 169.25 57.832C176.339 58.379 176.981 64.3153 176.981 64.3153Z" fill="#1A3151"/>
<path d="M172.945 88.6569C171.58 89.2928 169.932 89.7268 167.938 89.8362C160.463 90.2486 158.767 83.6607 158.457 79.2872C159.534 78.8953 160.478 78.9313 161.022 78.9614C161.552 78.9902 162.105 79.0455 162.562 79.102C163.477 78.6224 165.118 76.289 166.068 72.3867L166.391 72.537L171.784 75.0856C171.784 75.0856 171.212 76.8504 170.788 78.5382C170.458 79.8594 170.222 81.1361 170.419 81.4932C170.844 81.6675 171.098 81.7757 171.098 81.7757C171.098 81.7757 171.098 81.7781 171.1 81.7817C171.155 81.9223 172.328 84.9266 172.945 88.6569Z" fill="#FFB27D"/>
<path d="M174.818 93.59C174.761 93.7391 174.699 93.8857 174.632 94.0372C172.739 98.1366 167.594 111.68 167.594 111.68C168.094 114.734 146.415 114.516 146.354 111.737C145.695 109.367 147.978 105.844 149.992 103.317C150.485 102.7 150.961 102.146 151.373 101.679C151.638 101.38 151.874 101.06 152.081 100.722C152.601 99.8761 152.931 98.9192 153.037 97.9202C153.315 95.2682 153.334 92.7304 153.328 90.6675C153.325 89.6649 153.318 88.7765 153.328 88.042C153.74 87.7342 154.138 87.4517 154.51 87.1824C155.077 86.7677 155.578 86.3782 155.945 85.9839C156.351 85.5547 156.606 85.1147 156.635 84.6194C156.655 84.2443 156.644 83.8596 156.606 83.4749C156.588 83.2934 156.564 83.1131 156.537 82.9316C156.245 81.0237 155.453 79.2938 155.453 79.2938C157.46 78.4775 161.025 78.9644 161.025 78.9644C161.025 78.9644 161.022 79.1639 161.02 79.4909C161.007 80.8001 161.02 84.1638 161.438 84.7997C161.959 85.592 171.513 89.065 172.018 87.9891C172.515 86.9324 171.154 81.9746 171.103 81.7883C171.101 81.7835 171.101 81.7823 171.101 81.7823C171.204 81.8219 171.303 81.8628 171.4 81.9013C171.887 82.1009 172.308 82.3293 172.712 82.4771C175.311 83.4317 175.555 84.2996 175.555 84.2996C173.628 85.5547 176.309 89.6144 174.818 93.59Z" fill="#EBB044"/>
<path d="M171.784 75.0889C171.784 75.0889 171.21 76.8513 170.788 78.5415C167.635 77.6567 166.679 74.3255 166.391 72.5391L171.784 75.0889Z" fill="#ED985F"/>
<path d="M172.449 76.9554C172.449 76.9554 164.907 75.2003 166.067 70.495C167.226 65.7897 167.033 62.3935 171.898 63.3156C176.762 64.2377 177.252 66.2645 177.245 67.9307C177.238 69.5945 174.441 77.2896 172.449 76.9554Z" fill="#FFB27D"/>
<path d="M177.667 65.2572C176.856 63.5513 175.902 63.6427 175.304 63.9444C171.76 60.6481 168.284 63.3409 168.284 63.3409C166.946 66.5904 164.047 67.9188 164.047 67.9188C164.047 67.9188 165.206 69.1113 168.564 69.0849C169.59 69.0765 170.622 68.604 171.559 67.9512C169.749 69.7845 167.627 70.9002 167.627 70.9002C171.831 70.0911 174.649 65.1983 174.939 64.6789C175.295 65.2079 175.976 66.3331 176.033 67.284C176.11 68.5752 175.669 71.0841 176.404 71.1791C176.406 71.1791 178.883 67.8154 177.667 65.2572Z" fill="#1A3151"/>
<path d="M179.722 191.606H167.744C167.744 191.606 167.296 189.685 168.083 188.378C168.779 187.222 168.721 186.519 168.206 185.562C168.749 185.785 169.24 186.033 170.014 185.988C170.611 185.954 171.273 185.53 171.827 185.207C172.342 185.798 174.518 188.465 175.208 188.963C175.99 189.529 179.48 189.327 179.722 191.606Z" fill="#233862"/>
<path d="M158.344 104.358C155.217 104.136 152.24 103.858 149.992 103.316C150.485 102.699 150.961 102.145 151.373 101.678C151.637 101.379 151.874 101.059 152.081 100.721C152.601 99.875 152.931 98.9181 153.036 97.9191C153.315 95.2671 153.334 92.7293 153.328 90.6664C156.056 87.5961 158.345 85.1016 158.345 85.1016C158.345 85.1016 163.428 89.7852 164.215 94.4508C165.001 99.1141 166.487 104.937 158.344 104.358Z" fill="#9B732A"/>
<path d="M159.602 78.8398C159.602 78.8398 163.293 83.2362 162.501 89.8349H164.03C164.03 89.8349 164.896 85.221 161.022 78.9613C161.022 78.9613 160.516 78.8891 160.352 78.8747C160.162 78.8591 159.602 78.8398 159.602 78.8398Z" fill="#963333"/>
<path d="M172.909 93.3323L171.424 92.9644C173.419 87.6616 171.889 83.1174 171.398 81.8984C171.885 82.098 172.322 82.2915 172.71 82.4743C174.769 89.2317 172.909 93.3323 172.909 93.3323Z" fill="#963333"/>
<path d="M173.559 90.6659C173.559 90.6659 166.195 88.7376 164.118 88.2015C162.04 87.6653 161.876 88.8987 161.876 88.8987C161.876 88.8987 161.586 92.9188 161.554 93.3323C161.075 99.6425 152.082 100.721 152.082 100.721C152.082 100.721 149.758 103.631 147.766 106.492C144.35 111.399 144.771 119.686 144.771 119.686C144.698 120.689 144.688 121.779 144.76 122.961C145.031 127.316 145.523 145.823 146.039 151.299C146.225 153.283 146.388 154.696 146.455 155.26C146.456 155.262 146.456 155.263 146.456 155.266C146.476 155.438 146.417 155.6 146.329 155.75C145.571 157.044 144.943 158.39 144.428 159.769C139.374 173.31 145.206 189.987 145.206 189.987L146.72 189.374C146.72 189.374 150.039 170.815 152.736 162.616C153.194 161.225 153.633 160.132 154.034 159.479C155.207 157.576 156.295 154.467 157.283 150.77C159.149 143.779 160.652 134.683 161.652 127.664C161.79 127.67 162.886 118.236 166.489 113.897L167.9 112.444L172.373 101.394C172.373 101.394 173.608 94.0488 173.981 92.8154C174.356 91.5808 173.559 90.6659 173.559 90.6659Z" fill="#B64C41"/>
<path d="M162.617 89.2721C162.617 88.9162 162.904 88.6289 163.257 88.6289C163.61 88.6289 163.897 88.9174 163.897 89.2721C163.897 89.6279 163.61 89.9152 163.257 89.9152C162.904 89.9152 162.617 89.6279 162.617 89.2721Z" fill="#ED7D2B"/>
<path d="M162.734 89.2721C162.734 88.9162 163.021 88.6289 163.374 88.6289C163.728 88.6289 164.014 88.9174 164.014 89.2721C164.014 89.6279 163.727 89.9152 163.374 89.9152C163.021 89.9164 162.734 89.6279 162.734 89.2721Z" fill="#F99746"/>
<path d="M162.997 89.151C163.012 89.1017 163.065 89.0741 163.115 89.0909C163.164 89.1065 163.19 89.1594 163.175 89.2087C163.159 89.258 163.106 89.2856 163.057 89.2688C163.008 89.2532 162.981 89.2003 162.997 89.151Z" fill="#2B478B"/>
<path d="M163.575 89.3385C163.591 89.2892 163.644 89.2616 163.693 89.2784C163.742 89.294 163.77 89.3469 163.753 89.3962C163.738 89.4455 163.685 89.4731 163.635 89.4563C163.586 89.4407 163.558 89.3878 163.575 89.3385Z" fill="#2B478B"/>
<path d="M171.844 91.3619C171.844 91.0061 172.131 90.7188 172.483 90.7188C172.837 90.7188 173.123 91.0073 173.123 91.3619C173.123 91.7178 172.836 92.0051 172.483 92.0051C172.131 92.0051 171.844 91.7178 171.844 91.3619Z" fill="#ED7D2B"/>
<path d="M171.961 91.3619C171.961 91.0061 172.248 90.7188 172.601 90.7188C172.955 90.7188 173.24 91.0073 173.24 91.3619C173.24 91.7178 172.953 92.0051 172.601 92.0051C172.247 92.0051 171.961 91.7178 171.961 91.3619Z" fill="#F99746"/>
<path d="M172.223 91.2404C172.239 91.1911 172.292 91.1646 172.341 91.1803C172.39 91.1959 172.417 91.2488 172.401 91.2981C172.386 91.3474 172.333 91.3738 172.283 91.3582C172.234 91.3426 172.208 91.2897 172.223 91.2404Z" fill="#2B478B"/>
<path d="M172.801 91.4279C172.817 91.3786 172.87 91.3521 172.919 91.3678C172.969 91.3834 172.995 91.4363 172.979 91.4856C172.964 91.5349 172.911 91.5613 172.862 91.5457C172.812 91.5289 172.786 91.476 172.801 91.4279Z" fill="#2B478B"/>
<path d="M161.728 68.8203C161.728 68.8203 161.331 69.8987 161.917 70.3218C162.503 70.745 160.431 72.6841 160.03 74.313C159.63 75.942 160.131 76.8063 160.131 76.8063C160.131 76.8063 160.071 75.8205 160.431 75.3385C160.431 75.3385 160.043 76.4577 160.684 77.2896C161.324 78.1203 160.949 78.5435 160.949 78.5435C160.949 78.5435 162.978 78.5771 163.471 77.1958C163.471 77.1958 163.352 77.8534 163.205 78.0939C163.205 78.0939 165.186 77.3966 165.703 76.0285C166.219 74.6605 165.253 73.0592 164.652 72.844C164.05 72.6288 163.071 70.9938 163.251 70.5514C163.431 70.109 161.728 68.8203 161.728 68.8203Z" fill="#1A3151"/>
<path d="M176.723 87.3733C175.012 87.6258 174.319 88.6464 174.319 88.6464C174.319 88.6464 174.172 86.4825 174.456 85.1373C174.554 84.6672 174.706 84.297 174.933 84.1563C175.037 84.0914 175.202 84.0914 175.407 84.1407C175.43 84.1455 175.453 84.1515 175.477 84.1587C175.608 84.3775 176.121 85.3104 176.723 87.3733Z" fill="#EBB044"/>
<path d="M200.674 127.516C197.627 127.676 195.545 122.922 194.262 122.86C194.052 122.85 193.651 122.909 193.138 122.985C194.402 125.069 195.367 127.519 195.903 130.212C197.73 139.381 193.881 147.888 187.307 149.21C180.914 150.496 174.297 144.512 172.261 135.746C172.204 135.5 172.151 135.253 172.101 135.003C171.569 132.329 171.52 129.712 171.88 127.312C171.88 127.305 171.881 127.298 171.882 127.291C171.607 127.364 171.393 127.428 171.268 127.488C170.107 128.043 170.005 133.234 167.132 134.266C164.259 135.296 162.323 129.761 165.744 125.449C167.83 122.819 171.526 121.55 174.093 120.96C174.627 120.085 175.24 119.3 175.924 118.621C175.949 118.596 175.974 118.569 176 118.544C174.115 117.518 172.68 115.689 172.226 113.409C172.071 112.639 172.043 111.871 172.123 111.126C172.117 111.125 172.111 111.123 172.104 111.122C170.805 110.727 169.762 109.647 169.477 108.217C169.067 106.153 170.397 104.144 172.452 103.731C173.938 103.431 175.395 104.05 176.243 105.199C176.813 104.916 177.429 104.702 178.084 104.57C178.664 104.454 179.242 104.408 179.807 104.427C180.166 103.065 181.265 101.956 182.731 101.661C184.785 101.248 186.782 102.586 187.195 104.652C187.464 106.006 186.983 107.337 186.041 108.209C186.428 108.892 186.715 109.648 186.876 110.46C187.306 112.612 186.774 114.733 185.578 116.373C186.65 116.744 187.692 117.301 188.678 118.016C191.253 117.521 195.463 117.118 198.58 118.842C203.389 121.496 203.72 127.353 200.674 127.516Z" fill="#EBB044"/>
<path d="M172.261 135.742C172.204 135.497 172.151 135.249 172.101 134.999C171.569 132.325 171.52 129.708 171.88 127.309C172.258 126.866 172.76 126.538 173.329 126.81C174.587 127.41 174.389 133.469 176.309 134.867C177.733 135.902 174.172 135.914 172.261 135.742Z" fill="#9B732A"/>
<path d="M179.565 117.658C178.843 117.927 177.303 118.408 175.923 118.621C175.948 118.596 175.973 118.569 175.999 118.544C174.114 117.519 172.679 115.689 172.224 113.41C172.07 112.639 172.041 111.871 172.122 111.127C172.116 111.125 172.11 111.123 172.102 111.122C172.178 111.092 172.275 111.137 172.4 111.317C172.88 111.999 175.47 117.526 179.565 116.893C179.565 116.892 180.635 117.259 179.565 117.658Z" fill="#9B732A"/>
<path d="M181.508 104.905C181.508 104.905 182.468 103.108 183.892 103.573C185.316 104.039 185.515 106.104 184.588 106.669C184.587 106.67 183.207 105.386 181.508 104.905Z" fill="#9B732A"/>
<path d="M174.817 105.956C174.817 105.956 172.764 105.005 171.838 106.104C170.911 107.203 172.764 108.605 172.764 108.605C172.764 108.605 173.657 106.741 174.817 105.956Z" fill="#9B732A"/>
<path d="M175.648 116.052L174.987 118.514C174.987 118.514 172.664 117.663 171.466 117.208C171.107 117.068 170.904 116.977 170.904 116.977C169.947 116.601 168.809 116.118 167.567 115.599L167.549 115.596C165.431 114.659 163.067 113.569 161.105 112.476C159.728 111.693 158.552 110.909 157.783 110.2C157.704 110.13 157.643 110.064 157.567 109.977C155.767 108.087 154.105 103.189 153.05 98.0691C152.903 97.3622 152.772 96.6577 152.639 95.9725C152.183 93.4251 151.897 90.9462 151.836 88.84C151.788 87.5814 151.81 86.4453 151.936 85.5305C151.976 85.2071 152.013 84.9017 152.082 84.6192C153.046 79.4619 155.723 79.213 155.723 79.213C155.779 79.2046 155.836 79.1962 155.91 79.1914C156.365 79.201 156.772 79.5869 157.144 80.2613C157.615 81.1005 158.038 82.4096 158.434 83.97C159.03 86.4501 159.559 89.6166 160.019 92.7531C160.278 94.4734 160.518 96.1901 160.78 97.7818C160.917 98.7447 161.066 99.6536 161.208 100.489C161.488 102.084 161.766 103.385 162.071 104.231C162.265 104.781 162.955 105.624 163.895 106.603C165.525 108.315 167.973 110.469 170.121 112.257C171.01 113.007 171.856 113.694 172.559 114.262C173.695 115.186 175.648 116.052 175.648 116.052Z" fill="#FFB27D"/>
<path d="M158.739 84.0006C155.33 82.3897 152.078 84.6089 152.078 84.6089C153.065 79.3746 155.876 79.1438 155.876 79.1438C157.032 78.9058 157.956 80.9507 158.739 84.0006Z" fill="#EBB044"/>
<path d="M174.08 115.5C174.08 115.5 175.491 116.065 176.294 116.208C177.097 116.351 178.335 115.951 179.353 116.618C180.37 117.285 181.095 117.729 181.095 117.729C181.095 117.729 181.342 118.108 180.802 118.26C180.493 118.348 178.933 117.355 178.867 117.619C178.8 117.884 179.86 118.477 180.474 118.51C181.09 118.544 182.212 119.086 182.212 119.486C182.212 119.887 180.394 120.834 179.332 120.767C178.271 120.701 176.09 118.819 175.537 118.686C174.986 118.552 172.664 117.621 172.664 117.621L174.08 115.5Z" fill="#FFB27D"/>
<path d="M154.004 191.607H142.027C142.027 191.607 141.74 189.771 142.365 188.379C142.964 187.044 144.015 186.381 143.79 184.766C144.551 185.553 145.598 186.313 147.33 186.078C147.541 186.425 148.781 188.453 149.49 188.965C150.273 189.53 153.764 189.328 154.004 191.607Z" fill="#233862"/>
<path d="M277.873 180.57C277.873 180.57 280.193 182.731 279.741 184.268C279.287 185.804 277.194 186.828 276.912 188.705C276.628 190.583 275.497 191.607 274.478 191.607C273.46 191.607 269.623 191.607 269.623 191.607C269.623 191.607 268.873 190.286 270.683 189.888C272.493 189.49 273.176 187.283 273.064 185.236C272.951 183.188 273.234 180.457 273.234 180.457L277.081 179.547L277.873 180.57Z" fill="#1A3151"/>
<path d="M248.955 191.398C248.778 191.488 248.26 191.555 247.525 191.608H235.781C235.836 191.229 236.144 190.143 237.864 189.861C239.892 189.531 243.406 188.345 244.192 185.738C244.217 185.652 244.238 185.567 244.259 185.48C244.882 182.693 249.409 186.334 249.409 186.334C249.409 186.334 249.422 186.446 249.442 186.635C249.546 187.656 249.814 190.965 248.955 191.398Z" fill="#1A3151"/>
<path d="M238.402 116.83C238.402 116.83 239.09 125.455 239.898 135.822C240.997 149.906 242.317 167.204 242.449 170.481C242.675 176.171 243.581 185.274 243.581 185.274C243.581 185.274 245.73 187.436 250.032 186.525C250.032 186.525 253.865 173.531 254.96 159.783C254.977 159.558 254.994 159.331 255.012 159.104C256.031 145.108 257.614 115.637 257.614 115.637L238.402 116.83Z" fill="#145566"/>
<path d="M238.402 116.83C238.402 116.83 239.09 125.455 239.898 135.822L254.959 159.783C254.976 159.558 254.993 159.331 255.011 159.104C256.029 145.108 257.612 115.637 257.612 115.637L238.402 116.83Z" fill="#0F3C48"/>
<path d="M241.543 117.855C241.543 117.855 253.935 149.09 262.084 163.768C270.233 178.447 272.779 182.542 272.779 182.542C272.779 182.542 277.447 180.665 277.872 179.384C277.872 179.384 274.756 151.047 269.299 144.139C266.215 140.236 262.593 128.522 262.423 124.426C262.254 120.33 261.32 112.223 261.32 112.223L241.543 117.855Z" fill="#145566"/>
<path d="M217.222 113.527C217.222 113.527 212.849 115.637 212.26 116.179C211.672 116.72 210.219 119.38 210.33 119.58C210.441 119.781 210.659 119.842 211.056 119.567C211.452 119.292 212.565 118.14 212.605 118.354C212.646 118.568 209.636 122.129 210.169 122.883C210.701 123.636 213.719 123.414 215.44 122.182C217.163 120.95 218.883 116.421 219.142 116.175C221.34 114.077 217.222 113.527 217.222 113.527Z" fill="#FFB27D"/>
<path d="M217.027 115.791C215.814 114.729 215.781 114.46 215.781 114.46C215.781 114.46 223.535 100.978 224.209 99.6817C224.881 98.3845 229.037 78.1376 229.037 78.1376L243.404 73.9492C243.404 73.9492 233.284 100.26 231.517 103.512C228.596 108.885 219.061 116.793 219.061 116.793C219.061 116.793 217.981 116.625 217.027 115.791Z" fill="#9B732A"/>
<path d="M236.083 68.6805C236.083 68.6805 231.027 77.6246 226.085 78.7931C226.085 78.7931 226.29 75.7889 227.494 73.7332C227.002 73.1489 226.569 72.6116 226.195 72.1319C224.95 70.5294 224.359 69.5472 224.359 69.5472L226.037 65.0139L227.175 61.9375C227.722 62.9353 228.325 63.7864 228.953 64.5137C232.191 68.2585 236.083 68.6805 236.083 68.6805Z" fill="#FFB27D"/>
<path d="M228.953 64.513C228.953 64.513 229.557 68.9959 226.195 72.13C224.95 70.5275 224.359 69.5453 224.359 69.5453L226.037 65.0119C227.835 64.4613 228.953 64.513 228.953 64.513Z" fill="#ED975D"/>
<path d="M223.025 70.2088C223.025 70.2088 230.58 67.2478 228.674 62.5462C226.768 57.8445 226.458 54.2957 221.554 55.9871C216.65 57.6786 216.446 59.8545 216.703 61.5796C216.958 63.3047 221.01 70.858 223.025 70.2088Z" fill="#FFB27D"/>
<path d="M262.051 114.58C259.004 118.985 236.217 124.871 236.489 121.823C236.592 120.655 236.731 118.599 236.487 115.81C236.429 115.156 236.348 114.462 236.244 113.733C235.663 109.724 234.29 104.573 231.222 98.6095C230.993 98.1623 230.753 97.7127 230.505 97.2558C229.24 94.9477 228.166 92.5073 227.346 90.1197C225.766 85.5323 225.128 81.1431 225.926 78.2748C225.93 78.2591 225.932 78.2471 225.938 78.2351C230.701 76.0207 232.546 67.4336 232.546 67.4336C232.546 67.4336 248.795 70.3657 257.899 92.1418C257.899 92.1418 258.773 94.5329 259.772 97.7788C260.985 101.715 262.383 106.904 262.625 110.606C262.744 112.362 262.598 113.786 262.051 114.58Z" fill="#EBB044"/>
<path d="M229.757 53.8108C229.81 53.7062 229.964 53.5932 230.339 53.4778C230.339 53.4778 229.988 53.3587 229.579 53.4489C229.367 52.9284 228.852 52.0424 227.885 52.0352C227.885 52.0352 228.439 52.1806 228.644 52.7384C227.319 51.8945 224.862 51.6493 218.73 53.7026C210.649 56.4087 214.687 61.126 215.911 61.5035C217.135 61.8821 219.39 59.455 221.418 59.1232C223.446 58.7914 224.544 61.6321 225.316 61.8677C226.09 62.1033 225.65 61.4566 226.459 60.8098C227.269 60.163 227.734 61.685 227.716 62.7549C227.698 63.8248 229.278 64.8383 229.278 64.8383C229.278 64.8383 229.278 64.8383 230.203 63.1312C231.129 61.4241 230.878 55.2245 229.993 54.1089C229.915 54.0115 229.837 53.9117 229.757 53.8108Z" fill="#1A3151"/>
<path d="M262.625 110.603C243.017 104.656 239.898 81.1523 239.898 81.1523C239.898 81.1523 251.063 89.7298 259.772 97.7759C260.986 101.712 262.384 106.902 262.625 110.603Z" fill="#9B732A"/>
<path d="M268 111.375C268 111.375 267.558 115.105 267.665 115.714C267.772 116.322 268.478 118.133 268.654 118.144C268.83 118.153 269.363 118.175 269.349 117.802C269.335 117.43 269.094 117.081 269.248 117.142C269.404 117.204 269.448 118.611 270.155 118.575C270.861 118.539 272.943 117.749 272.859 116.114C272.775 114.48 270.558 111.485 270.505 111.213C270.057 108.911 268 111.375 268 111.375Z" fill="#FFB27D"/>
<path d="M269.175 112.004C267.619 112.72 267.042 111.989 267.042 111.989C267.042 111.989 257.981 96.776 257.027 95.5534C256.072 94.3296 239.345 87.1129 239.345 87.1129C239.345 87.1129 232.537 84.497 232.268 80.3447C232.034 76.737 234.072 74.5202 236.303 73.1834C238.962 71.5905 242.325 71.825 244.769 73.7328C250.257 78.0173 261.134 86.6357 262.884 88.9727C266.78 94.1745 271.099 110.478 271.099 110.478C271.099 110.478 270.397 111.44 269.175 112.004Z" fill="#EBB044"/>
<path d="M230.224 122.32L226.146 126.417L226.09 126.381L219.969 122.521C219.969 122.521 223.136 123.549 223.564 123.429C223.968 123.316 228.392 121.786 229.435 121.914C229.498 121.922 229.55 121.935 229.587 121.957C230.224 122.32 230.224 122.32 230.224 122.32Z" fill="#4A75CB"/>
<path d="M225.963 127.533C225.799 127.497 225.314 127.381 224.652 127.212C222.752 126.723 219.401 125.784 218.078 125.014C216.891 124.324 210.621 120.658 206.301 118.083C208.024 117.156 209.724 117.026 211.149 117.206C216.193 120.183 222.782 124.091 223.589 124.661C224.915 125.599 226.723 126.733 226.723 126.733C226.723 126.733 226.716 126.785 226.697 126.862C226.637 127.115 226.448 127.637 225.963 127.533Z" fill="#E58638"/>
<path d="M225.963 127.531C225.799 127.495 225.314 127.379 224.653 127.21C222.753 126.72 219.401 125.781 218.079 125.012C216.891 124.322 210.621 120.655 206.301 118.08C204.132 116.788 202.454 115.77 202.159 115.541C201.278 114.86 199.581 113.156 199.999 112.835C200.416 112.514 201.23 112.838 201.536 112.79C201.541 112.788 201.545 112.788 201.549 112.787C201.621 112.776 201.739 112.757 201.902 112.748C202.484 112.713 203.641 112.793 205.286 113.749C205.286 113.749 207.896 115.282 211.151 117.203C216.194 120.179 222.784 124.088 223.591 124.657C224.917 125.595 226.725 126.73 226.725 126.73C226.725 126.73 226.718 126.782 226.698 126.859C226.637 127.112 226.449 127.635 225.963 127.531Z" fill="#739AF0"/>
<path d="M225.963 127.529C225.799 127.495 225.313 127.378 224.652 127.209C224.738 126.451 224.211 125.848 224.211 125.848L226.697 126.86C226.637 127.111 226.448 127.634 225.963 127.529Z" fill="#4A75CB"/>
<g opacity="0.5">
<path d="M220.575 124.31C220.537 124.287 220.524 124.236 220.546 124.197L220.591 124.122C220.614 124.084 220.664 124.07 220.704 124.093C220.742 124.116 220.756 124.167 220.733 124.206L220.688 124.281C220.664 124.319 220.614 124.332 220.575 124.31Z" fill="#4A75CB"/>
<path d="M220.212 124.095C220.173 124.072 220.16 124.021 220.183 123.982L220.228 123.907C220.25 123.869 220.301 123.856 220.341 123.878C220.379 123.901 220.392 123.952 220.37 123.991L220.325 124.066C220.301 124.106 220.25 124.118 220.212 124.095Z" fill="#4A75CB"/>
<path d="M219.849 123.88C219.81 123.857 219.797 123.807 219.82 123.767L219.864 123.692C219.887 123.654 219.938 123.641 219.977 123.664C220.016 123.686 220.029 123.737 220.006 123.777L219.962 123.851C219.938 123.89 219.887 123.903 219.849 123.88Z" fill="#4A75CB"/>
<path d="M219.485 123.661C219.447 123.638 219.434 123.588 219.457 123.548L219.501 123.474C219.524 123.435 219.574 123.422 219.614 123.445C219.653 123.468 219.666 123.518 219.643 123.558L219.599 123.632C219.576 123.671 219.524 123.684 219.485 123.661Z" fill="#4A75CB"/>
<path d="M219.122 123.446C219.084 123.424 219.07 123.373 219.093 123.333L219.138 123.259C219.161 123.22 219.211 123.207 219.251 123.23C219.289 123.253 219.303 123.303 219.28 123.343L219.235 123.418C219.212 123.456 219.162 123.469 219.122 123.446Z" fill="#4A75CB"/>
<path d="M218.759 123.232C218.72 123.209 218.707 123.158 218.73 123.119L218.775 123.044C218.797 123.006 218.848 122.992 218.888 123.015C218.926 123.038 218.939 123.088 218.916 123.128L218.872 123.203C218.849 123.241 218.799 123.254 218.759 123.232Z" fill="#4A75CB"/>
<path d="M218.392 123.013C218.353 122.99 218.34 122.939 218.363 122.9L218.407 122.825C218.43 122.787 218.481 122.774 218.52 122.796C218.559 122.819 218.572 122.87 218.549 122.909L218.505 122.984C218.482 123.024 218.431 123.036 218.392 123.013Z" fill="#4A75CB"/>
<path d="M218.032 122.798C217.994 122.775 217.981 122.725 218.003 122.685L218.048 122.61C218.071 122.572 218.121 122.559 218.161 122.582C218.2 122.604 218.213 122.655 218.19 122.695L218.145 122.769C218.121 122.808 218.071 122.821 218.032 122.798Z" fill="#4A75CB"/>
<path d="M217.669 122.583C217.631 122.56 217.617 122.51 217.64 122.47L217.685 122.396C217.707 122.357 217.758 122.344 217.798 122.367C217.836 122.39 217.849 122.44 217.827 122.48L217.782 122.554C217.758 122.593 217.708 122.606 217.669 122.583Z" fill="#4A75CB"/>
<path d="M213.388 120.04C213.349 120.017 213.336 119.967 213.359 119.927L213.403 119.853C213.426 119.814 213.477 119.801 213.517 119.824C213.555 119.847 213.568 119.897 213.545 119.937L213.501 120.011C213.478 120.05 213.427 120.063 213.388 120.04Z" fill="#4A75CB"/>
<path d="M213.024 119.825C212.986 119.802 212.973 119.752 212.996 119.712L213.04 119.638C213.063 119.599 213.114 119.586 213.153 119.609C213.192 119.632 213.205 119.682 213.182 119.722L213.138 119.796C213.115 119.835 213.064 119.848 213.024 119.825Z" fill="#4A75CB"/>
<path d="M212.665 119.607C212.627 119.584 212.613 119.533 212.636 119.494L212.681 119.419C212.704 119.381 212.754 119.367 212.794 119.39C212.832 119.413 212.846 119.463 212.823 119.503L212.778 119.578C212.754 119.617 212.704 119.631 212.665 119.607Z" fill="#4A75CB"/>
<path d="M212.298 119.392C212.259 119.369 212.246 119.318 212.269 119.279L212.314 119.204C212.336 119.166 212.387 119.152 212.427 119.175C212.465 119.198 212.478 119.249 212.456 119.288L212.411 119.363C212.387 119.401 212.336 119.415 212.298 119.392Z" fill="#4A75CB"/>
<path d="M211.939 119.177C211.9 119.154 211.887 119.103 211.91 119.064L211.954 118.989C211.977 118.951 212.028 118.938 212.067 118.96C212.106 118.983 212.119 119.034 212.096 119.073L212.052 119.148C212.028 119.188 211.977 119.2 211.939 119.177Z" fill="#4A75CB"/>
<path d="M211.571 118.962C211.533 118.939 211.52 118.889 211.542 118.849L211.587 118.774C211.61 118.736 211.66 118.723 211.7 118.746C211.739 118.768 211.752 118.819 211.729 118.859L211.684 118.933C211.662 118.972 211.611 118.985 211.571 118.962Z" fill="#4A75CB"/>
<path d="M211.208 118.743C211.17 118.72 211.156 118.67 211.179 118.63L211.224 118.556C211.247 118.517 211.297 118.504 211.337 118.527C211.375 118.55 211.389 118.6 211.366 118.64L211.321 118.714C211.298 118.753 211.248 118.766 211.208 118.743Z" fill="#4A75CB"/>
<path d="M210.845 118.528C210.806 118.506 210.793 118.455 210.816 118.415L210.86 118.341C210.883 118.302 210.934 118.289 210.974 118.312C211.012 118.335 211.025 118.385 211.002 118.425L210.958 118.5C210.935 118.538 210.884 118.551 210.845 118.528Z" fill="#4A75CB"/>
<path d="M210.482 118.314C210.443 118.291 210.43 118.24 210.453 118.201L210.497 118.126C210.52 118.088 210.571 118.074 210.61 118.097C210.649 118.12 210.662 118.17 210.639 118.21L210.595 118.285C210.572 118.323 210.521 118.336 210.482 118.314Z" fill="#4A75CB"/>
<path d="M209.079 117.478C209.041 117.455 209.027 117.404 209.05 117.365L209.095 117.29C209.118 117.252 209.168 117.238 209.208 117.261C209.246 117.284 209.26 117.335 209.237 117.374L209.192 117.449C209.168 117.487 209.118 117.5 209.079 117.478Z" fill="#4A75CB"/>
<path d="M209.79 117.899C209.751 117.877 209.739 117.826 209.762 117.786L209.806 117.712C209.829 117.673 209.879 117.66 209.919 117.683C209.958 117.706 209.971 117.756 209.948 117.796L209.903 117.871C209.879 117.909 209.829 117.922 209.79 117.899Z" fill="#4A75CB"/>
<path d="M208.712 117.263C208.673 117.24 208.66 117.189 208.683 117.15L208.728 117.075C208.75 117.037 208.801 117.024 208.841 117.046C208.879 117.069 208.892 117.12 208.87 117.159L208.825 117.234C208.801 117.274 208.75 117.286 208.712 117.263Z" fill="#4A75CB"/>
<path d="M208.353 117.044C208.314 117.021 208.301 116.971 208.324 116.931L208.368 116.856C208.391 116.818 208.442 116.805 208.481 116.828C208.52 116.85 208.533 116.901 208.51 116.941L208.466 117.015C208.443 117.054 208.391 117.067 208.353 117.044Z" fill="#4A75CB"/>
<path d="M207.985 116.829C207.947 116.806 207.934 116.756 207.957 116.716L208.001 116.642C208.024 116.603 208.074 116.59 208.114 116.613C208.153 116.636 208.166 116.686 208.143 116.726L208.099 116.8C208.076 116.839 208.024 116.852 207.985 116.829Z" fill="#4A75CB"/>
<path d="M207.626 116.614C207.588 116.591 207.574 116.541 207.597 116.501L207.642 116.427C207.665 116.388 207.715 116.375 207.755 116.398C207.793 116.421 207.807 116.471 207.784 116.511L207.739 116.585C207.716 116.625 207.666 116.638 207.626 116.614Z" fill="#4A75CB"/>
<path d="M207.259 116.399C207.219 116.377 207.207 116.326 207.23 116.286L207.275 116.212C207.298 116.173 207.348 116.16 207.388 116.183C207.426 116.206 207.44 116.256 207.417 116.296L207.372 116.371C207.349 116.409 207.299 116.422 207.259 116.399Z" fill="#4A75CB"/>
<path d="M206.899 116.181C206.861 116.158 206.848 116.107 206.871 116.068L206.915 115.993C206.938 115.955 206.989 115.942 207.028 115.964C207.067 115.987 207.08 116.038 207.057 116.077L207.013 116.152C206.989 116.19 206.938 116.204 206.899 116.181Z" fill="#4A75CB"/>
<path d="M206.532 115.966C206.494 115.943 206.481 115.893 206.503 115.853L206.548 115.778C206.571 115.74 206.621 115.727 206.661 115.749C206.7 115.772 206.713 115.823 206.69 115.863L206.645 115.937C206.621 115.976 206.571 115.989 206.532 115.966Z" fill="#4A75CB"/>
<path d="M206.173 115.751C206.134 115.728 206.121 115.678 206.144 115.638L206.189 115.564C206.211 115.525 206.262 115.512 206.302 115.535C206.34 115.557 206.353 115.608 206.331 115.648L206.286 115.722C206.262 115.761 206.211 115.774 206.173 115.751Z" fill="#4A75CB"/>
<path d="M205.814 115.536C205.775 115.513 205.762 115.463 205.785 115.423L205.829 115.349C205.852 115.31 205.903 115.297 205.942 115.32C205.981 115.343 205.994 115.393 205.971 115.433L205.927 115.507C205.904 115.546 205.852 115.559 205.814 115.536Z" fill="#4A75CB"/>
<path d="M205.454 115.321C205.416 115.299 205.402 115.248 205.425 115.208L205.47 115.134C205.493 115.095 205.543 115.082 205.583 115.105C205.621 115.128 205.635 115.178 205.612 115.218L205.567 115.293C205.544 115.332 205.494 115.344 205.454 115.321Z" fill="#4A75CB"/>
<path d="M205.087 115.107C205.048 115.084 205.036 115.033 205.058 114.994L205.103 114.919C205.126 114.881 205.176 114.867 205.216 114.89C205.254 114.913 205.268 114.963 205.245 115.003L205.2 115.078C205.177 115.116 205.127 115.129 205.087 115.107Z" fill="#4A75CB"/>
<path d="M202.296 113.222C202.261 113.266 202.205 113.28 202.155 113.262C202.143 113.257 202.131 113.251 202.12 113.243L201.551 112.79C201.623 112.779 201.741 112.76 201.904 112.75L202.275 113.046C202.329 113.089 202.338 113.168 202.296 113.222Z" fill="#4A75CB"/>
<path d="M211.439 119.312L211.329 119.246C211.256 119.203 211.232 119.108 211.275 119.035L211.548 118.572C211.591 118.498 211.685 118.474 211.758 118.518L211.868 118.584C211.941 118.627 211.965 118.723 211.922 118.795L211.65 119.258C211.608 119.331 211.512 119.356 211.439 119.312Z" fill="#4A75CB"/>
<path d="M212.162 119.742L212.052 119.676C211.979 119.633 211.955 119.536 211.998 119.464L212.271 119.001C212.314 118.928 212.408 118.904 212.481 118.947L212.591 119.013C212.664 119.057 212.688 119.153 212.645 119.225L212.372 119.688C212.329 119.76 212.235 119.785 212.162 119.742Z" fill="#4A75CB"/>
<path d="M216.603 121.946C216.564 121.924 216.551 121.873 216.574 121.833L216.618 121.759C216.641 121.72 216.692 121.707 216.731 121.73C216.77 121.753 216.783 121.803 216.76 121.843L216.716 121.918C216.692 121.957 216.641 121.969 216.603 121.946Z" fill="#4A75CB"/>
<path d="M216.239 121.732C216.201 121.709 216.188 121.658 216.21 121.619L216.255 121.544C216.278 121.506 216.328 121.492 216.368 121.515C216.407 121.538 216.42 121.588 216.397 121.628L216.352 121.703C216.328 121.741 216.278 121.754 216.239 121.732Z" fill="#4A75CB"/>
<path d="M215.876 121.517C215.838 121.494 215.824 121.443 215.847 121.404L215.892 121.329C215.915 121.291 215.965 121.277 216.005 121.3C216.043 121.323 216.057 121.374 216.034 121.413L215.989 121.488C215.965 121.526 215.915 121.54 215.876 121.517Z" fill="#4A75CB"/>
<path d="M215.513 121.298C215.474 121.275 215.461 121.225 215.484 121.185L215.528 121.11C215.551 121.072 215.602 121.059 215.642 121.082C215.68 121.104 215.693 121.155 215.67 121.195L215.626 121.269C215.603 121.309 215.551 121.321 215.513 121.298Z" fill="#4A75CB"/>
<path d="M215.149 121.083C215.111 121.06 215.098 121.01 215.121 120.97L215.165 120.896C215.188 120.857 215.239 120.844 215.278 120.867C215.318 120.89 215.33 120.94 215.307 120.98L215.263 121.054C215.24 121.093 215.189 121.106 215.149 121.083Z" fill="#4A75CB"/>
<path d="M214.786 120.868C214.748 120.845 214.734 120.795 214.757 120.755L214.802 120.681C214.825 120.642 214.875 120.629 214.915 120.652C214.953 120.675 214.967 120.725 214.944 120.765L214.899 120.839C214.876 120.878 214.826 120.891 214.786 120.868Z" fill="#4A75CB"/>
<path d="M214.423 120.653C214.384 120.631 214.371 120.58 214.394 120.54L214.439 120.466C214.461 120.427 214.512 120.414 214.552 120.437C214.59 120.46 214.603 120.51 214.581 120.55L214.536 120.625C214.513 120.663 214.463 120.676 214.423 120.653Z" fill="#4A75CB"/>
<path d="M214.06 120.435C214.021 120.412 214.008 120.361 214.031 120.322L214.075 120.247C214.098 120.209 214.149 120.195 214.188 120.218C214.227 120.241 214.24 120.292 214.217 120.331L214.173 120.406C214.149 120.444 214.098 120.457 214.06 120.435Z" fill="#4A75CB"/>
<path d="M213.696 120.22C213.658 120.197 213.645 120.146 213.667 120.107L213.712 120.032C213.735 119.994 213.785 119.981 213.825 120.003C213.864 120.026 213.877 120.077 213.854 120.116L213.809 120.191C213.785 120.231 213.735 120.243 213.696 120.22Z" fill="#4A75CB"/>
</g>
<path d="M211.457 121.241C211.701 121.286 211.885 121.021 211.762 120.805C211.638 120.588 211.449 120.338 211.182 120.183C210.632 119.863 210.469 120.876 210.647 120.99C210.754 121.057 211.131 121.183 211.457 121.241Z" fill="#2B478B"/>
<path d="M211.407 120.041L210.731 121.191C210.731 121.191 210.059 121.054 209.14 120.537C208.578 120.221 208.238 119.928 208.06 119.749C207.946 119.635 207.898 119.568 207.898 119.568L208.607 118.362C208.676 118.354 208.761 118.366 208.857 118.393C209.662 118.623 211.315 119.933 211.315 119.933L211.407 120.041Z" fill="#2B478B"/>
<path d="M208.857 118.393L208.06 119.749C207.946 119.635 207.898 119.568 207.898 119.568L208.607 118.362C208.676 118.354 208.761 118.366 208.857 118.393Z" fill="#4A75CB"/>
<path d="M224.242 125.645C224.275 125.633 226.61 126.163 227.88 127.097L226.275 127.072L224.212 125.845C224.213 125.847 224.077 125.706 224.242 125.645Z" fill="#2B478B"/>
<path d="M219.475 120.968C219.475 120.968 218.031 121.968 217.779 122.103C217.528 122.239 217.125 122.201 217.125 122.201H217.122L214.636 121.781C214.636 121.781 211.987 120.225 211.416 119.872C211.365 119.839 211.33 119.818 211.316 119.807C211.148 119.685 211.093 119.577 211.151 119.543C211.208 119.51 215.565 121.253 216.046 121.449C216.051 121.451 216.056 121.452 216.059 121.455C216.528 121.644 216.622 121.545 216.622 121.545L219.025 120.881C219.059 120.865 219.105 120.861 219.154 120.866C219.301 120.881 219.475 120.968 219.475 120.968Z" fill="#4A75CB"/>
<path d="M219.155 120.866C218.497 121.069 216.681 121.627 216.523 121.647C216.353 121.669 212.391 120.225 211.416 119.872C211.365 119.839 211.33 119.818 211.316 119.807C211.148 119.685 211.093 119.577 211.151 119.543C211.208 119.51 215.565 121.253 216.046 121.449C216.527 121.645 216.624 121.545 216.624 121.545L219.026 120.881C219.06 120.863 219.107 120.861 219.155 120.866Z" fill="#4A75CB"/>
<path d="M219.477 120.967C219.477 120.967 218.033 121.968 217.781 122.102C217.53 122.238 217.127 122.201 217.127 122.201H217.124C216.654 121.951 216.292 121.661 216.062 121.454C216.531 121.643 216.626 121.544 216.626 121.544L219.028 120.881C219.062 120.864 219.108 120.86 219.157 120.865C219.303 120.881 219.477 120.967 219.477 120.967Z" fill="#4A75CB"/>
<path d="M226.202 126.445L219.969 122.525C219.969 122.525 223.188 123.58 223.62 123.463C224.029 123.352 228.502 121.85 229.561 121.985C228.359 122.473 225.54 123.683 225.345 124.352C225.159 124.992 225.844 125.985 226.202 126.445Z" fill="#739AF0"/>
<path d="M76.5222 50.1905C76.5091 49.8443 76.2436 46.1127 70.5904 45.918C70.5904 45.918 73.3704 46.251 73.851 47.4796C73.851 47.4796 71.9582 45.9612 70.417 46.4493C68.8757 46.9374 67.9706 49.6531 67.961 50.5463C67.9515 51.4395 68.8088 54.3187 69.7868 54.5628C70.1575 54.6553 70.5844 54.6313 70.9718 54.564C70.7111 54.9727 70.4564 55.4235 70.2125 55.9272C67.9574 60.5832 70.2831 65.1323 72.1926 64.6297C73.417 64.3076 73.7637 66.409 73.7637 66.409L85.6621 56.7243C85.6621 56.7231 81.2907 47.6311 76.5222 50.1905Z" fill="#1A3151"/>
<path d="M80.6641 187.344L78.1363 188.29C78.1363 188.29 67.1586 172.983 65.8075 159.514C65.566 157.109 65.6461 154.779 66.1686 152.627C66.1686 152.627 66.061 152.012 65.8733 150.923C65.786 150.414 65.6796 149.802 65.5576 149.102C65.2001 147.046 64.7099 144.233 64.1479 141.029C62.8565 133.658 61.1825 124.235 59.8828 117.308L60.5644 117.088L67.9323 114.698L69.4556 109.835L74.9426 108.383C74.9426 108.383 76.1682 110.793 77.2635 122.181C77.4656 123.674 77.6497 125.323 77.7872 127.109C78.2141 132.561 78.2452 139.324 77.2647 147.057C77.0124 149.035 76.6955 151.079 76.3009 153.179C76.0116 154.718 75.9685 156.816 76.0905 159.225C76.6441 170.233 80.6641 187.344 80.6641 187.344Z" fill="#145566"/>
<path d="M77.7872 127.109L65.8733 150.923C65.786 150.414 65.6796 149.802 65.5576 149.102C65.2001 147.046 64.7099 144.233 64.1479 141.029C62.8565 133.658 61.1825 124.235 59.8828 117.308L60.5644 117.088L67.9323 114.698L69.4556 109.835L74.9426 108.383C74.9426 108.383 76.1682 110.793 77.2635 122.181C77.4656 123.676 77.6497 125.323 77.7872 127.109Z" fill="#0F3C48"/>
<path d="M72.5481 111.439L72.2719 109.061C67.6505 110.295 55.305 105.613 55.305 105.613C55.305 105.613 50.8283 109.57 51.4166 119.052C51.7035 123.681 52.2272 143.349 52.7749 149.17C52.9722 151.28 53.1455 152.78 53.2173 153.38C53.2185 153.383 53.2185 153.385 53.2185 153.386C53.24 153.569 53.1766 153.742 53.0845 153.902C52.2786 155.277 51.6115 156.708 51.065 158.173C45.6939 172.565 51.8924 190.288 51.8924 190.288L53.5007 189.637C53.5007 189.637 57.028 169.913 59.8941 161.198C60.3807 159.721 60.847 158.559 61.2751 157.864C62.521 155.842 63.6772 152.538 64.7271 148.608C66.7107 141.177 68.3082 131.512 69.3712 124.051C69.517 124.058 72.5481 111.439 72.5481 111.439Z" fill="#145566"/>
<path d="M108.95 108.402C107.955 109.287 105.316 106.248 104.952 105.845C104.933 105.807 104.914 105.788 104.914 105.788L105.718 103.537C105.718 103.537 109.179 103.402 109.753 103.979C110.327 104.557 110.04 107.46 108.95 108.402Z" fill="#ED985F"/>
<path d="M105.719 103.534L105.375 105.861C105.375 105.861 105.222 105.861 104.954 105.842C104.112 105.784 102.066 105.669 99.7514 105.419C96.2707 105.072 92.1384 104.457 90.4943 103.439C87.9893 101.9 83.8761 97.1886 81.199 92.4773C81.1224 92.3619 81.0651 92.2465 81.0077 92.1311C79.6111 89.6306 78.6354 87.1505 78.5601 85.1693C78.5027 83.9575 78.6366 82.9189 78.8853 82.016C79.2105 80.8235 79.7462 79.8822 80.301 79.1705C80.3775 79.0551 80.4541 78.9397 80.5688 78.8435C81.4871 77.7471 82.3863 77.2855 82.3863 77.2855C82.8454 77.0932 83.3429 77.324 83.8594 77.8818V77.901C84.2803 78.3434 84.7394 79.0166 85.1795 79.863C85.1986 79.8822 85.2177 79.9014 85.2177 79.9207C85.3134 80.0938 85.409 80.2861 85.5238 80.4977C85.5621 80.5362 85.5812 80.5939 85.6003 80.6323C85.8108 81.0747 86.0212 81.5364 86.2317 82.0172C88.5836 87.1709 91.0898 94.9778 93.1751 97.3052C94.0742 98.3054 98.1863 100.266 101.456 101.728C103.806 102.764 105.719 103.534 105.719 103.534Z" fill="#ED985F"/>
<path d="M81.3748 82.5928C79.9244 83.2696 78.1727 83.73 76.0527 83.8455C68.1085 84.283 66.3054 77.2816 65.9766 72.634C67.122 72.2169 68.124 72.2565 68.7028 72.2878C69.2659 72.319 69.8542 72.3768 70.3385 72.4369C71.3106 71.9259 73.0563 69.4471 74.0655 65.3008L74.4086 65.4607L80.1408 68.1704C80.1408 68.1704 79.5322 70.0457 79.0826 71.8406C78.7323 73.2447 78.48 74.602 78.6904 74.9819C79.1424 75.167 79.4126 75.2824 79.4126 75.2824C79.4126 75.2824 79.4126 75.2848 79.415 75.2884C79.4724 75.4363 80.7195 78.6292 81.3748 82.5928Z" fill="#FFB27D"/>
<path d="M83.3601 87.8358C83.3003 87.9956 83.2345 88.1507 83.1616 88.3106C81.1492 92.6673 77.4246 110.714 77.4246 110.714C77.9555 113.959 53.1711 110.077 53.1077 107.123C52.2348 103.991 56.2045 98.9582 58.4441 96.4325C58.7251 96.1151 58.9762 95.7749 59.195 95.4154C59.7474 94.515 60.0989 93.498 60.2101 92.4365C60.6502 88.2481 60.4828 84.3242 60.5198 81.9379C60.9574 81.6121 61.3807 81.3116 61.7741 81.0255C62.3767 80.5831 62.9088 80.1707 63.301 79.7524C63.7327 79.2955 64.0029 78.8291 64.0328 78.3026C64.0555 77.9046 64.0435 77.4959 64.0017 77.0872C63.9826 76.8948 63.9587 76.7013 63.93 76.5089C63.6203 74.4821 62.7785 72.6439 62.7785 72.6439C64.9104 71.7772 68.7008 72.2929 68.7008 72.2929C68.7008 72.2929 68.6972 72.5045 68.6948 72.8507C68.6829 74.2428 68.6948 77.8169 69.1384 78.4937C69.6932 79.3364 79.8471 83.0271 80.384 81.8838C80.9125 80.7598 79.4657 75.4919 79.4119 75.2923C79.4095 75.2875 79.4095 75.2863 79.4095 75.2863C82.81 76.6291 84.0249 77.7556 84.0249 77.7556C81.9778 79.0888 84.9456 83.6089 83.3601 87.8358Z" fill="#EBB044"/>
<path d="M80.1384 68.1733C80.1384 68.1733 79.5286 70.0475 79.0802 71.8436C75.7299 70.9035 74.7123 67.3631 74.4062 65.4648L80.1384 68.1733Z" fill="#ED985F"/>
<path d="M80.8427 70.158C80.8427 70.158 72.8268 68.2934 74.0583 63.2912C75.2899 58.2902 75.0854 54.6813 80.2557 55.661C85.4259 56.6408 85.946 58.7951 85.9388 60.5659C85.9316 62.3343 82.9591 70.5138 80.8427 70.158Z" fill="#FFB27D"/>
<path d="M86.3904 57.7234C85.5283 55.9105 84.5143 56.0079 83.8794 56.3288C80.113 52.8245 76.4183 55.6881 76.4183 55.6881C74.9966 59.1419 71.9141 60.5533 71.9141 60.5533C71.9141 60.5533 73.1456 61.8216 76.7148 61.7927C77.8053 61.7843 78.9017 61.2806 79.8989 60.5869C77.9751 62.5357 75.7188 63.721 75.7188 63.721C80.1871 62.8614 83.1823 57.6609 83.4896 57.1079C83.8687 57.6693 84.5921 58.8666 84.653 59.8764C84.7355 61.2493 84.2656 63.9145 85.0476 64.0155C85.05 64.0167 87.6829 60.4415 86.3904 57.7234Z" fill="#1A3151"/>
<path d="M84.0265 77.7539C84.0265 77.7539 85.9563 81.1392 86.2457 82.0108C86.2457 82.0108 83.7431 81.9134 82.7327 83.8501C82.7327 83.8489 82.49 78.2095 84.0265 77.7539Z" fill="#EBB044"/>
<path d="M70.7529 104.647C65.8649 104.595 61.7254 99.492 59.1953 95.4131C59.7477 94.5126 60.0993 93.4956 60.2105 92.4341C60.6505 88.2457 60.4831 84.3219 60.5201 81.9355C60.9578 81.6098 61.381 81.3092 61.7744 81.0231C62.3771 80.5807 62.9092 80.1684 63.3013 79.75C67.3057 86.5507 77.3807 104.718 70.7529 104.647Z" fill="#9B732A"/>
<path d="M61.2406 191.609H48.5112C48.5112 191.609 48.2063 189.658 48.8711 188.178C49.5084 186.758 50.5056 186.112 50.2677 184.395C51.076 185.231 52.3948 186.169 54.235 185.92C54.461 186.288 55.6902 188.255 56.4435 188.799C57.2757 189.4 60.9847 189.186 61.2406 191.609Z" fill="#1A3151"/>
<path d="M88.5713 191.608H75.8419C75.8419 191.608 75.3661 189.567 76.2018 188.177C76.942 186.949 76.6574 186.248 76.1098 185.232C76.6861 185.469 77.4322 185.685 78.2537 185.638C78.8874 185.601 79.5582 185.313 80.1465 184.969C80.6941 185.596 83.04 188.27 83.773 188.8C84.6052 189.4 88.3155 189.186 88.5713 191.608Z" fill="#1A3151"/>
<path d="M99.5855 97.1562L87.1992 113.354L88.206 114.064L100.744 97.8643L99.5855 97.1562Z" fill="#247B7B"/>
<path d="M100.745 97.8633H113.314L100.157 114.063H88.207L100.745 97.8633Z" fill="#247B7B"/>
<path d="M99.5859 97.1562H112.071L112.777 97.8643H100.745L99.5859 97.1562Z" fill="#CCDFED"/>
<path d="M99.9171 97.3594H112.299L112.499 97.1562H99.5859L99.9171 97.3594Z" fill="#247B7B"/>
<path d="M98.1572 107.699C98.1225 107.054 97.2771 107.083 96.635 107.081C95.5816 107.076 93.9196 107.004 92.9583 106.632C92.9583 106.632 96.0276 106.588 95.376 105.613C95.2576 105.435 93.7319 105.57 92.028 105.57C91.3297 105.57 89.6031 106.532 89.6916 106.577C88.4576 106.413 87.3349 106.173 86.9726 106.094C86.1308 105.632 85.1169 105.074 84.0467 104.459C81.464 102.997 78.4999 101.209 76.472 99.7282C75.305 98.8819 74.4249 98.1317 74.12 97.5931C73.6418 96.766 73.1061 95.4581 72.513 93.8436C72.2069 92.9972 71.8817 92.074 71.5565 91.093C70.9825 89.4773 70.4086 87.7281 69.8155 85.9778C68.7442 82.786 67.5963 79.5738 66.507 77.0925C65.7992 75.5345 65.1104 74.247 64.46 73.4584C63.9434 72.8236 63.446 72.4966 62.9677 72.5736C62.8912 72.5928 62.8338 72.612 62.7764 72.6313C62.7764 72.6313 60.0227 73.4007 59.9845 78.9775C59.9654 79.2853 59.9845 79.6123 60.0036 79.9585C60.0419 80.9395 60.2332 82.132 60.5202 83.4388C60.9793 85.6315 61.7446 88.1693 62.7011 90.7468C62.9689 91.4392 63.2368 92.1509 63.5238 92.8614C65.5899 98.0151 68.248 102.823 70.4863 104.458C70.582 104.534 70.6585 104.592 70.7541 104.65C71.6916 105.246 73.069 105.842 74.6557 106.4C76.9132 107.17 79.5904 107.862 81.9817 108.439H82.0009C83.3975 108.747 84.678 109.035 85.7494 109.247C85.7494 109.247 85.9252 109.291 86.2384 109.354C86.2839 109.362 86.3305 109.372 86.3807 109.382C87.3947 109.632 89.4788 110.17 91.4493 110.94C94.2042 112.036 96.2297 110.673 97.1492 109.709C97.7303 109.099 98.1894 108.288 98.1572 107.699Z" fill="#FFB27D"/>
<path d="M66.4991 77.1023C62.8175 76.0817 59.9766 78.9717 59.9766 78.9717C60.0232 73.4045 62.7793 72.6423 62.7793 72.6423C63.8877 72.1806 65.1731 74.1113 66.4991 77.1023Z" fill="#EBB044"/>
<path d="M154.09 145.245C152.586 143.886 153.824 140.676 153.251 140.042C153.157 139.939 152.941 139.778 152.665 139.571C152.287 141.144 151.599 142.748 150.595 144.263C147.182 149.424 141.414 151.604 137.713 149.128C134.114 146.722 133.797 140.799 136.926 135.727C137.013 135.585 137.104 135.444 137.198 135.302C138.194 133.797 139.389 132.547 140.676 131.59C140.679 131.586 140.683 131.584 140.687 131.582C140.523 131.487 140.394 131.416 140.306 131.384C139.503 131.098 137.037 133.486 135.208 132.617C133.38 131.747 135.05 128.238 138.664 127.827C140.867 127.576 143.193 128.72 144.672 129.653C145.33 129.495 145.984 129.414 146.621 129.418C146.645 129.418 146.669 129.416 146.693 129.418C146.285 128.048 146.464 126.514 147.313 125.232C147.6 124.798 147.945 124.424 148.328 124.112C148.326 124.109 148.325 124.105 148.322 124.102C147.897 123.306 147.911 122.307 148.443 121.503C149.212 120.341 150.772 120.025 151.929 120.798C152.766 121.357 153.161 122.334 153.024 123.272C153.423 123.408 153.812 123.598 154.18 123.844C154.507 124.063 154.798 124.313 155.055 124.589C155.858 124.118 156.89 124.116 157.715 124.668C158.871 125.442 159.184 127.01 158.415 128.173C157.911 128.936 157.065 129.333 156.218 129.299C156.081 129.801 155.864 130.292 155.561 130.748C154.76 131.96 153.522 132.704 152.198 132.911C152.528 133.59 152.757 134.342 152.886 135.142C154.325 136.122 156.487 137.916 157.148 140.193C158.168 143.699 155.595 146.604 154.09 145.245Z" fill="#EFCDAF"/>
<path d="M136.926 135.724C137.013 135.582 137.104 135.442 137.197 135.3C138.193 133.795 139.389 132.545 140.675 131.588C141.058 131.558 141.448 131.641 141.588 132.036C141.899 132.91 138.984 135.658 139.233 137.219C139.419 138.375 137.742 136.705 136.926 135.724Z" fill="#E2B99A"/>
<path d="M148.779 130.677C148.315 130.463 147.368 129.964 146.622 129.414C146.646 129.414 146.67 129.412 146.693 129.414C146.286 128.044 146.465 126.51 147.314 125.228C147.601 124.794 147.945 124.42 148.329 124.108C148.327 124.105 148.326 124.101 148.323 124.098C148.373 124.119 148.396 124.187 148.372 124.33C148.279 124.875 146.919 128.688 149.135 130.32C149.135 130.318 149.466 130.993 148.779 130.677Z" fill="#E2B99A"/>
<path d="M155.629 125.613C155.629 125.613 156.917 125.222 157.367 126.111C157.818 127 156.95 128.062 156.252 127.891C156.252 127.89 156.202 126.638 155.629 125.613Z" fill="#FFF3E9"/>
<path d="M151.999 122.955C151.999 122.955 151.479 121.542 150.532 121.62C149.585 121.7 149.803 123.23 149.803 123.23C149.803 123.23 151.091 122.777 151.999 122.955Z" fill="#FFF3E9"/>
<path d="M122.83 136.939C122.83 136.939 119.602 132.755 119.581 129.341C119.559 125.927 119.657 124.793 120.224 124.947C120.791 125.101 123.34 127.005 124.257 128.901C125.173 130.797 126.784 135.757 126.817 136.433C126.851 137.108 122.83 136.939 122.83 136.939Z" fill="#AFCDFB"/>
<path d="M123.006 135.604C123.006 135.604 120.944 132.714 120.866 130.406C120.788 128.098 120.827 127.333 121.178 127.449C121.529 127.564 123.131 128.9 123.73 130.198C124.329 131.498 125.413 134.882 125.446 135.339C125.479 135.795 123.006 135.604 123.006 135.604Z" fill="#E57970"/>
<path d="M128.036 135.19C128.036 135.19 126.489 129.525 127.1 127.982C127.711 126.44 130.881 127.47 131.239 128.557C131.599 129.645 131.377 134.236 131.377 134.236L128.036 135.19Z" fill="#AFCDFB"/>
<path d="M128.448 128.676C128.448 128.676 128.224 133.166 129.005 134.914L130.507 134.485C130.507 134.485 130.74 129.47 130.539 129.133C130.339 128.794 128.448 128.676 128.448 128.676Z" fill="#E57970"/>
<path d="M127.012 128.304C127.012 128.304 132.216 131.766 132.635 131.401C133.055 131.035 131.473 127.52 130.859 127.205C130.246 126.891 126.975 126.242 127.012 128.304Z" fill="#AFCDFB"/>
<path d="M117.442 191.594H188.383V132.782H117.442L117.442 191.594Z" fill="#D3671E"/>
<path d="M223.851 132.781H152.91V191.593H223.851V132.781Z" fill="#F1A34F"/>
<path opacity="0.4" d="M223.85 132.781V173.121L152.91 191.593V132.781H223.85Z" fill="#D86713"/>
<path d="M152.91 132.781L166.948 148.256H236.949L223.851 132.781H152.91Z" fill="#F1A34F"/>
<path d="M117.484 176.68H128.725L127.735 173.499L128.725 171.227H117.484V176.68Z" fill="#F1A34F"/>
<path opacity="0.4" d="M223.866 186.766H212.625L213.615 183.585L212.625 181.312H223.866V186.766Z" fill="#D86713"/>
<path d="M152.913 139.43L137.96 154.464H117.484V132.781H152.913V139.43Z" fill="#C95C12"/>
<path d="M117.442 132.781L101.492 148.256H136.985L152.912 132.781H117.442Z" fill="#F1A34F"/>
<path d="M157.871 167.223V155.637H161.416C162.192 155.637 162.903 155.77 163.549 156.038C164.196 156.306 164.75 156.683 165.211 157.168C165.673 157.654 166.033 158.236 166.292 158.915C166.551 159.594 166.68 160.348 166.68 161.175V161.7C166.68 162.528 166.552 163.28 166.296 163.957C166.04 164.634 165.679 165.214 165.211 165.7C164.744 166.186 164.187 166.561 163.537 166.827C162.888 167.092 162.173 167.224 161.392 167.224H157.871V167.223ZM160.246 157.571V165.306H161.394C162.332 165.306 163.047 164.994 163.539 164.37C164.029 163.748 164.275 162.857 164.275 161.7V161.159C164.275 159.981 164.033 159.089 163.547 158.482C163.062 157.875 162.351 157.571 161.418 157.571H160.246Z" fill="#F1A34F"/>
<path d="M177.869 161.692C177.869 162.578 177.751 163.372 177.513 164.074C177.275 164.778 176.941 165.373 176.512 165.861C176.081 166.349 175.566 166.724 174.965 166.987C174.363 167.251 173.701 167.382 172.979 167.382C172.256 167.382 171.594 167.251 170.991 166.987C170.39 166.725 169.871 166.349 169.436 165.861C169 165.373 168.661 164.778 168.418 164.074C168.175 163.371 168.055 162.578 168.055 161.692V161.182C168.055 160.301 168.174 159.509 168.415 158.803C168.655 158.097 168.991 157.497 169.424 157.005C169.857 156.512 170.373 156.133 170.975 155.871C171.576 155.609 172.238 155.477 172.961 155.477C173.683 155.477 174.345 155.608 174.947 155.871C175.548 156.134 176.065 156.512 176.498 157.005C176.93 157.497 177.266 158.097 177.507 158.803C177.747 159.509 177.867 160.302 177.867 161.182V161.692H177.869ZM175.462 161.168C175.462 159.952 175.246 159.03 174.813 158.398C174.38 157.767 173.763 157.451 172.961 157.451C172.158 157.451 171.541 157.767 171.109 158.398C170.676 159.029 170.459 159.952 170.459 161.168V161.693C170.459 162.298 170.515 162.833 170.629 163.297C170.743 163.761 170.906 164.15 171.119 164.466C171.333 164.783 171.595 165.021 171.907 165.183C172.218 165.345 172.574 165.426 172.976 165.426C173.779 165.426 174.393 165.107 174.82 164.471C175.247 163.835 175.461 162.91 175.461 161.694V161.168H175.462Z" fill="#F1A34F"/>
<path d="M188.966 167.223H186.591L181.968 159.6V167.223H179.594V155.637H181.968L186.598 163.275V155.637H188.964V167.223H188.966Z" fill="#F1A34F"/>
<path d="M197.691 164.836H193.528L192.736 167.223H190.211L194.501 155.637H196.701L201.015 167.223H198.49L197.691 164.836ZM194.17 162.903H197.05L195.602 158.565L194.17 162.903Z" fill="#F1A34F"/>
<path d="M209.816 157.57H206.286V167.222H203.912V157.57H200.43V155.637H209.816V157.57Z" fill="#F1A34F"/>
<path d="M218.105 162.202H213.545V165.306H218.896V167.223H211.172V155.637H218.881V157.57H213.547V160.331H218.106V162.202H218.105Z" fill="#F1A34F"/>
<path d="M99.9262 176.1L98.6348 176.353C97.1019 176.652 95.6049 175.636 95.3072 174.095L93.4072 164.261C93.137 162.856 93.9501 161.483 95.2558 161.024C95.245 160.99 95.2343 160.956 95.2271 160.919L95.1159 160.341C95.0382 159.94 95.3012 159.549 95.7006 159.47L96.2757 159.357C96.6751 159.279 97.0649 159.544 97.1426 159.944L97.2538 160.524C97.2598 160.55 97.2634 160.578 97.2646 160.604C97.2646 160.609 97.2658 160.614 97.2658 160.619C98.6815 160.507 99.9967 161.486 100.274 162.918L102.173 172.753C102.471 174.293 101.459 175.801 99.9262 176.1Z" fill="#CADDFF"/>
<path d="M100.381 163.496L93.5156 164.836L94.8208 171.595L101.686 170.255L100.381 163.496Z" fill="#2B478B"/>
<path d="M97.2639 160.605L95.2551 161.024C95.2443 160.99 95.2336 160.956 95.2264 160.919L95.1152 160.341C95.0375 159.94 95.3005 159.549 95.6999 159.47L96.275 159.357C96.6744 159.279 97.0642 159.544 97.1419 159.944L97.2531 160.524C97.2579 160.551 97.2615 160.579 97.2639 160.605Z" fill="#4A75CB"/>
<path d="M134.737 158.123C134.737 158.123 133.887 159.326 133.107 159.343C132.328 159.36 131.142 158.785 131.142 158.785C131.142 158.785 130.425 157.18 130.911 156.553C130.911 156.553 131.398 156.338 131.907 156.718C131.994 156.784 132.083 156.865 132.171 156.971C132.294 157.12 132.433 157.206 132.58 157.25C133.136 157.421 133.797 157.019 134.044 157.406C134.188 157.631 134.345 157.8 134.474 157.919C134.626 158.056 134.737 158.123 134.737 158.123Z" fill="#F9DDBF"/>
<path d="M123.648 166.807C123.648 166.807 126.654 159.483 132.066 159.344C132.066 159.344 137.062 159.902 137.339 166.807H123.648Z" fill="#F9DDBF"/>
<path d="M130.581 159.569C130.581 159.569 132.75 160.053 133.419 159.768C133.419 159.768 133.521 158.857 132.608 158.984C131.982 159.072 131.576 158.769 131.335 158.648C130.996 158.475 130.491 159.188 130.581 159.569Z" fill="#F1A34F"/>
<path d="M132.471 158.194C132.332 158.298 131.906 156.719 131.906 156.719C131.994 156.785 132.082 156.867 132.17 156.972C132.294 157.121 132.432 157.207 132.579 157.251C132.581 157.298 132.606 158.092 132.471 158.194Z" fill="#E5C1A1"/>
<path d="M134.473 157.917C134.443 157.935 133.439 158.54 133.304 158.54C133.165 158.54 134.044 157.406 134.044 157.406C134.186 157.63 134.344 157.799 134.473 157.917Z" fill="#E5C1A1"/>
<path d="M126.587 164.76C126.532 164.712 128.714 161.528 129.316 161.504C129.917 161.482 131.268 162.202 132.246 162.295C133.224 162.388 134.172 162.109 134.358 162.691C134.543 163.273 135.051 165.333 134.739 165.663C134.427 165.992 127.787 165.791 126.587 164.76Z" fill="#E5C1A1"/>
<path d="M101.248 169.713C101.166 169.876 101.046 170.008 100.904 170.103C100.824 170.156 100.739 170.198 100.648 170.228C100.395 170.311 100.113 170.297 99.861 170.168L86.3807 163.284C85.8749 163.025 85.6705 162.398 85.9275 161.888C86.0567 161.633 86.2767 161.455 86.5278 161.372C86.7801 161.289 87.0623 161.304 87.3146 161.432L100.795 168.317C101.302 168.577 101.505 169.204 101.248 169.713Z" fill="#E57970"/>
<path d="M90.8485 165.566L89.9983 162.804L87.8281 161.695L89.1362 164.692L90.8485 165.566Z" fill="#B64C41"/>
<path d="M94.1426 167.246L92.4304 166.371L91.1211 163.375L93.2925 164.483L94.1426 167.246Z" fill="#B64C41"/>
<path d="M97.4356 168.93L95.7221 168.056L94.4141 165.059L96.5854 166.168L97.4356 168.93Z" fill="#B64C41"/>
<path d="M100.904 170.104C100.824 170.157 100.739 170.199 100.648 170.229C100.396 170.312 100.114 170.298 99.8614 170.169L99.0698 169.765L97.7617 166.77L99.9331 167.878L100.904 170.104Z" fill="#B64C41"/>
<path d="M85.9269 161.888C85.9269 161.888 85.6542 160.415 84.4645 159.977C84.4645 159.977 84.6044 160.146 84.0317 160.33C83.4589 160.514 83.6251 160.911 83.4219 161.091C83.4219 161.091 84.2481 162.195 85.9269 161.888Z" fill="#B64C41"/>
<path d="M85.6963 162.084L85.664 162.068C85.5731 162.021 85.5361 161.908 85.5827 161.817L85.7501 161.485C85.7967 161.393 85.9091 161.356 86 161.403L86.0311 161.419C86.1219 161.466 86.159 161.579 86.1124 161.67L85.945 162.002C85.9007 162.093 85.7872 162.13 85.6963 162.084Z" fill="#4A75CB"/>
<path d="M101.191 169.685C101.191 169.685 102.535 169.037 103.589 169.745C103.589 169.745 103.37 169.732 103.56 170.305C103.75 170.879 103.333 170.977 103.309 171.249C103.31 171.249 101.936 171.229 101.191 169.685Z" fill="#B64C41"/>
<path d="M101.172 169.986L101.204 170.001C101.295 170.048 101.407 170.011 101.454 169.92L101.621 169.588C101.668 169.497 101.631 169.382 101.54 169.337L101.509 169.321C101.418 169.274 101.304 169.311 101.259 169.403L101.092 169.735C101.044 169.826 101.08 169.939 101.172 169.986Z" fill="#4A75CB"/>
<path d="M118.699 169.819C118.542 169.911 118.369 169.956 118.198 169.959C118.103 169.96 118.008 169.948 117.916 169.923C117.66 169.854 117.431 169.688 117.289 169.441L109.716 156.283C109.432 155.789 109.601 155.15 110.093 154.865C110.339 154.722 110.62 154.694 110.876 154.762C111.132 154.831 111.361 154.996 111.504 155.244L119.076 168.402C119.359 168.896 119.191 169.533 118.699 169.819Z" fill="#F1A34F"/>
<path d="M112.227 160.646L113.011 157.866L111.792 155.746L111.266 158.975L112.227 160.646Z" fill="#F9DDBF"/>
<path d="M114.079 163.857L113.117 162.186L113.643 158.957L114.863 161.076L114.079 163.857Z" fill="#F9DDBF"/>
<path d="M115.922 167.069L114.961 165.398L115.487 162.168L116.707 164.287L115.922 167.069Z" fill="#F9DDBF"/>
<path d="M118.198 169.96C118.103 169.962 118.008 169.95 117.916 169.924C117.66 169.856 117.431 169.69 117.289 169.442L116.844 168.67L117.37 165.441L118.589 167.561L118.198 169.96Z" fill="#F9DDBF"/>
<path d="M110.092 154.865C110.092 154.865 110.663 153.48 109.901 152.461C109.901 152.461 109.926 152.68 109.346 152.52C108.766 152.36 108.691 152.784 108.422 152.823C108.423 152.825 108.519 154.203 110.092 154.865Z" fill="#F1A34F"/>
<path d="M109.793 154.901L109.775 154.87C109.723 154.781 109.755 154.665 109.843 154.614L110.163 154.427C110.252 154.376 110.367 154.407 110.418 154.496L110.436 154.527C110.487 154.616 110.456 154.731 110.368 154.783L110.047 154.97C109.959 155.02 109.844 154.99 109.793 154.901Z" fill="#D3671E"/>
<path d="M118.667 169.766C118.667 169.766 120.145 169.958 120.645 171.13C120.645 171.13 120.468 170.999 120.317 171.583C120.166 172.169 119.762 172.023 119.595 172.237C119.595 172.238 118.454 171.469 118.667 169.766Z" fill="#F1A34F"/>
<path d="M118.486 170.01L118.504 170.042C118.555 170.131 118.67 170.162 118.758 170.11L119.079 169.924C119.167 169.872 119.198 169.757 119.147 169.668L119.129 169.636C119.078 169.548 118.964 169.516 118.874 169.568L118.554 169.754C118.465 169.806 118.434 169.921 118.486 170.01Z" fill="#D3671E"/>
<path d="M94.1929 173.512C94.0315 173.426 93.9023 173.304 93.8103 173.159C93.7588 173.078 93.7182 172.991 93.6907 172.9C93.613 172.645 93.6309 172.362 93.7636 172.11L100.828 158.67C101.093 158.165 101.72 157.97 102.223 158.237C102.474 158.37 102.648 158.594 102.727 158.849C102.804 159.104 102.786 159.387 102.654 159.64L95.5895 173.08C95.3228 173.584 94.6951 173.779 94.1929 173.512Z" fill="#4A75CB"/>
<path d="M98.4844 163.127L101.244 162.316L102.382 160.152L99.3811 161.419L98.4844 163.127Z" fill="#699FF0"/>
<path d="M96.7578 166.408L97.6546 164.702L100.656 163.434L99.5175 165.599L96.7578 166.408Z" fill="#699FF0"/>
<path d="M95.0352 169.69L95.9331 167.982L98.9331 166.715L97.796 168.88L95.0352 169.69Z" fill="#699FF0"/>
<path d="M93.8103 173.16C93.7588 173.078 93.7182 172.992 93.6907 172.9C93.613 172.645 93.6309 172.363 93.7636 172.11L94.1785 171.322L97.1797 170.055L96.0426 172.219L93.8103 173.16Z" fill="#699FF0"/>
<path d="M102.224 158.237C102.224 158.237 103.694 157.987 104.148 156.797C104.148 156.797 103.977 156.935 103.804 156.356C103.63 155.776 103.232 155.938 103.058 155.73C103.058 155.73 101.947 156.543 102.224 158.237Z" fill="#699FF0"/>
<path d="M102.033 158.002L102.05 157.971C102.098 157.879 102.211 157.845 102.301 157.893L102.629 158.067C102.72 158.115 102.754 158.229 102.706 158.319L102.69 158.351C102.642 158.442 102.528 158.477 102.439 158.429L102.111 158.255C102.02 158.206 101.985 158.093 102.033 158.002Z" fill="#4A75CB"/>
<path d="M94.2231 173.457C94.2231 173.457 94.846 174.819 94.1238 175.866C94.1238 175.866 94.1406 175.646 93.5678 175.828C92.9951 176.01 92.903 175.588 92.6328 175.56C92.6328 175.561 92.6758 174.181 94.2231 173.457Z" fill="#4A75CB"/>
<path d="M93.921 173.432L93.9043 173.463C93.8565 173.554 93.8911 173.667 93.982 173.715L94.3096 173.89C94.4005 173.938 94.5129 173.903 94.5607 173.812L94.5775 173.78C94.6253 173.689 94.5906 173.576 94.4998 173.528L94.1721 173.354C94.0825 173.306 93.9689 173.34 93.921 173.432Z" fill="#4A75CB"/>
<path d="M108.309 161.296C108.309 161.296 108.926 162.17 109.492 162.182C110.058 162.194 110.919 161.777 110.919 161.777C110.919 161.777 111.439 160.613 111.086 160.157C111.086 160.157 110.732 160.001 110.363 160.276C110.299 160.325 110.235 160.383 110.171 160.46C110.082 160.569 109.981 160.631 109.875 160.662C109.471 160.786 108.991 160.495 108.813 160.775C108.708 160.939 108.594 161.06 108.501 161.147C108.39 161.248 108.309 161.296 108.309 161.296Z" fill="#B64C41"/>
<path d="M116.357 167.601C116.357 167.601 114.175 162.286 110.248 162.184C110.248 162.184 106.623 162.589 106.422 167.601H116.357Z" fill="#B64C41"/>
<path d="M111.32 162.344C111.32 162.344 109.746 162.696 109.26 162.49C109.26 162.49 109.187 161.827 109.85 161.921C110.303 161.985 110.599 161.766 110.773 161.676C111.019 161.549 111.386 162.068 111.32 162.344Z" fill="#963333"/>
<path d="M109.956 161.347C110.056 161.423 110.366 160.277 110.366 160.277C110.302 160.325 110.238 160.384 110.174 160.461C110.085 160.569 109.984 160.632 109.878 160.663C109.875 160.698 109.857 161.274 109.956 161.347Z" fill="#963333"/>
<path d="M108.5 161.149C108.522 161.162 109.25 161.601 109.349 161.601C109.449 161.601 108.812 160.777 108.812 160.777C108.708 160.941 108.594 161.063 108.5 161.149Z" fill="#963333"/>
<path d="M114.222 166.113C114.263 166.078 112.679 163.767 112.242 163.75C111.806 163.734 110.825 164.256 110.115 164.324C109.405 164.391 108.717 164.189 108.583 164.611C108.449 165.033 108.08 166.529 108.306 166.768C108.533 167.007 113.351 166.862 114.222 166.113Z" fill="#963333"/>
<path d="M123.949 161.576C123.3 161.585 122.974 160.598 122.974 160.598L116.647 162.524C116.93 163.221 116.472 163.758 116.472 163.758C116.472 163.758 115.378 164.493 115.718 165.623L117.118 170.273C117.367 171.097 118.239 171.567 119.06 171.317L125.734 169.286C126.553 169.037 127.021 168.158 126.773 167.335L125.373 162.683C125.176 162.034 124.59 161.606 123.949 161.576Z" fill="#CADDFF"/>
<path d="M116.016 162.314L116.396 163.576C116.533 164.032 118.266 163.909 120.266 163.3C122.267 162.692 123.777 161.827 123.639 161.372L123.259 160.109L116.016 162.314Z" fill="#963333"/>
<path d="M123.26 160.112C123.398 160.567 121.887 161.432 119.887 162.04C117.887 162.648 116.154 162.772 116.017 162.316C115.879 161.861 117.389 160.996 119.39 160.388C121.39 159.779 123.123 159.655 123.26 160.112Z" fill="#B64C41"/>
<path d="M106.973 164.105C106.52 163.883 106.633 163.085 106.633 163.085L101.575 162.215C101.532 162.798 101.028 163.011 101.028 163.011C101.028 163.011 100.014 163.139 99.8608 164.042L99.2283 167.759C99.1159 168.418 99.5607 169.049 100.216 169.162L105.551 170.079C106.206 170.192 106.834 169.745 106.947 169.086L107.579 165.369C107.668 164.85 107.408 164.349 106.973 164.105Z" fill="#B7D2F9"/>
<path d="M101.206 161.852L101.033 162.86C100.971 163.224 102.217 163.744 103.816 164.018C105.415 164.293 106.761 164.22 106.823 163.856L106.995 162.847L101.206 161.852Z" fill="#C95C12"/>
<path d="M106.995 162.848C106.933 163.213 105.586 163.285 103.988 163.01C102.389 162.735 101.143 162.217 101.205 161.853C101.268 161.488 102.614 161.415 104.213 161.69C105.811 161.964 107.057 162.484 106.995 162.848Z" fill="#F1A34F"/>
<path d="M90.8561 191.594H122.195V165.614H90.8561V191.594Z" fill="#D3671E"/>
<path d="M106.528 191.594H137.867V165.614H106.528V191.594Z" fill="#F1A34F"/>
<path opacity="0.4" d="M106.531 165.613H137.951V183.413L106.531 191.593V165.613Z" fill="#D86713"/>
<path d="M106.531 165.613L112.732 172.449H143.656L137.869 165.613H106.531Z" fill="#F1A34F"/>
<path d="M90.875 185.006H95.8407L95.4031 183.601L95.8407 182.598H90.875V185.006Z" fill="#F1A34F"/>
<path d="M106.527 168.55L99.9205 175.192H90.875V165.613H106.527V168.55Z" fill="#C95C12"/>
<path d="M90.8588 165.613L83.8125 172.449H99.4917L106.528 165.613H90.8588Z" fill="#F1A34F"/>
<path d="M108.715 180.83V175.711H110.281C110.624 175.711 110.938 175.77 111.223 175.889C111.509 176.008 111.754 176.174 111.958 176.388C112.162 176.602 112.321 176.859 112.435 177.16C112.549 177.46 112.606 177.792 112.606 178.157V178.389C112.606 178.755 112.549 179.087 112.436 179.386C112.322 179.685 112.163 179.941 111.956 180.155C111.751 180.371 111.503 180.535 111.217 180.653C110.93 180.77 110.615 180.829 110.27 180.829H108.715V180.83ZM109.763 176.566V179.982H110.27C110.685 179.982 111.001 179.844 111.217 179.569C111.434 179.293 111.543 178.9 111.543 178.389V178.15C111.543 177.63 111.435 177.235 111.221 176.967C111.007 176.699 110.693 176.564 110.28 176.564H109.763V176.566Z" fill="#F1A34F"/>
<path d="M117.549 178.386C117.549 178.778 117.496 179.128 117.391 179.439C117.286 179.75 117.139 180.013 116.949 180.229C116.759 180.446 116.531 180.61 116.265 180.727C115.999 180.844 115.706 180.901 115.387 180.901C115.068 180.901 114.775 180.844 114.509 180.727C114.244 180.612 114.014 180.446 113.822 180.229C113.629 180.014 113.48 179.751 113.372 179.439C113.265 179.129 113.211 178.778 113.211 178.386V178.162C113.211 177.772 113.264 177.422 113.37 177.111C113.476 176.8 113.625 176.534 113.816 176.316C114.007 176.099 114.236 175.932 114.501 175.815C114.767 175.7 115.059 175.641 115.379 175.641C115.698 175.641 115.991 175.698 116.256 175.815C116.522 175.93 116.75 176.097 116.942 176.316C117.133 176.534 117.281 176.8 117.388 177.111C117.494 177.422 117.547 177.773 117.547 178.162V178.386H117.549ZM116.486 178.154C116.486 177.618 116.39 177.209 116.199 176.931C116.008 176.652 115.735 176.512 115.381 176.512C115.027 176.512 114.755 176.652 114.563 176.931C114.372 177.209 114.276 177.617 114.276 178.154V178.386C114.276 178.653 114.301 178.89 114.352 179.094C114.402 179.3 114.474 179.472 114.568 179.611C114.663 179.751 114.778 179.857 114.916 179.928C115.054 179.998 115.21 180.035 115.388 180.035C115.742 180.035 116.014 179.894 116.203 179.613C116.391 179.331 116.486 178.923 116.486 178.385V178.154Z" fill="#F1A34F"/>
<path d="M122.452 180.83H121.403L119.361 177.462V180.83H118.312V175.711H119.361L121.407 179.085V175.711H122.452V180.83Z" fill="#F1A34F"/>
<path d="M126.304 179.775H124.465L124.116 180.83H123L124.895 175.711H125.867L127.773 180.83H126.658L126.304 179.775ZM124.748 178.921H126.02L125.381 177.004L124.748 178.921Z" fill="#F1A34F"/>
<path d="M131.662 176.566H130.103V180.83H129.054V176.566H127.516V175.711H131.662V176.566Z" fill="#F1A34F"/>
<path d="M135.32 178.611H133.306V179.982H135.67V180.83H132.258V175.711H135.663V176.566H133.306V177.786H135.32V178.611Z" fill="#F1A34F"/>
</svg>
