<svg width="738" height="498" viewBox="0 0 738 498" fill="none" xmlns="http://www.w3.org/2000/svg">
<path d="M706.06 497.987C690.858 497.987 607.034 498.016 501.932 497.987C474.808 497.987 446.229 497.987 417.08 497.959C411.946 497.959 406.784 497.959 401.621 497.959C380.744 497.959 359.638 497.93 338.589 497.93C332.913 497.93 327.266 497.93 321.618 497.93C287.421 497.902 253.595 497.873 221.394 497.845C95.9846 497.702 59.0777 496.675 59.0777 496.618C58.821 496.019 -56.2063 437.395 35.4334 314.725C81.5242 252.963 29.016 185.809 68.3187 126.928C123.907 43.5985 215.946 92.4664 279.093 66.0497C290.245 61.3997 301.454 53.897 312.663 42.3718C318.966 35.896 325.897 30.2475 333.284 25.3407C334.425 24.599 335.566 23.8573 336.735 23.1441C341.156 20.4055 345.748 17.9521 350.482 15.7269C353.648 14.2435 356.9 12.8456 360.208 11.5904C365.456 9.59347 370.818 7.85328 376.323 6.36984C384.109 4.28732 392.152 2.7183 400.338 1.6913C403.903 1.23486 407.497 0.864001 411.148 0.607252C481.71 -4.67037 561.085 24.9984 602.071 68.3605C610.314 77.09 647.819 122.278 618.271 184.354C599.589 223.551 677.824 261.008 705.604 305.768C776.252 419.593 706.688 496.504 706.06 497.987Z" fill="#D9E3F6"/>
<path d="M427.489 290.719C427.544 287.849 429.768 282.953 425.371 278.301C422.255 274.961 419.508 271.207 418.196 269.373C417.72 268.628 412.398 273.003 412.514 273.182C413.39 274.478 417.402 281.085 417.987 284.771C418.624 288.923 425.737 293.468 425.737 293.468C425.737 293.468 427.472 293.575 427.489 290.719Z" fill="#F4A671"/>
<path d="M420.955 273.069L412.516 273.179C412.516 273.179 399.318 252.324 398.914 245.708C398.524 239.389 385.839 211.74 400.688 194.477C401.358 193.694 402.086 192.934 402.874 192.198C402.899 192.167 402.929 192.143 402.959 192.118C402.959 192.118 402.984 192.159 403.033 192.239C403.335 192.741 404.514 194.875 405.898 199.585C408.062 206.95 410.739 220.624 411.371 244.239C411.368 244.239 417.242 264.454 420.955 273.069Z" fill="#F4A671"/>
<path d="M394.62 162.353C394.62 162.353 393.708 164.816 395.053 165.783C396.399 166.75 391.637 171.18 390.72 174.901C389.8 178.622 390.951 180.599 390.951 180.599C390.951 180.599 390.813 178.347 391.64 177.246C391.64 177.246 390.753 179.803 392.222 181.703C393.691 183.601 392.829 184.567 392.829 184.567C392.829 184.567 397.489 184.644 398.624 181.489C398.624 181.489 398.349 182.988 398.011 183.54C398.011 183.54 402.562 181.948 403.748 178.822C404.934 175.697 402.715 172.039 401.334 171.548C399.953 171.056 397.704 167.321 398.118 166.31C398.53 165.3 394.62 162.353 394.62 162.353Z" fill="#1A3151"/>
<path d="M395.688 427.668L390.226 429.703C390.226 429.703 366.503 396.801 363.581 367.852C363.06 362.684 363.233 357.678 364.361 353.053C364.361 353.053 364.131 351.729 363.724 349.387C363.538 348.294 363.304 346.978 363.043 345.471C362.272 341.052 361.211 335.005 359.998 328.12C357.207 312.277 353.591 292.023 350.781 277.133L352.253 276.661L368.176 271.523L371.466 261.07L383.321 257.948C383.321 257.948 385.969 263.13 388.339 287.605C388.776 290.815 389.174 294.355 389.47 298.194C390.393 309.912 390.462 324.448 388.342 341.068C387.798 345.322 387.111 349.714 386.26 354.228C385.637 357.538 385.543 362.044 385.804 367.221C387.001 390.893 395.688 427.668 395.688 427.668Z" fill="#B64C41"/>
<path d="M389.47 298.199L363.724 349.386C363.538 348.293 363.304 346.977 363.043 345.47C362.272 341.051 361.211 335.004 359.998 328.119C357.207 312.276 353.591 292.022 350.781 277.132L352.253 276.66L368.176 271.522L371.466 261.069L385.628 256.857C385.628 256.857 385.972 263.129 388.339 287.604C388.776 290.819 389.174 294.359 389.47 298.199Z" fill="#963333"/>
<path d="M406.486 146.918L380.773 167.734C380.773 167.734 380.023 163.217 377.376 163.912C373.248 164.991 366.915 153.926 371.787 143.916C372.108 143.263 376.066 133.354 388.729 132.107C405.011 133.357 406.486 146.918 406.486 146.918Z" fill="#1A3151"/>
<path d="M397.222 202.527C394.085 203.979 390.301 204.971 385.72 205.221C368.554 206.163 364.657 191.113 363.945 181.122C366.42 180.227 368.586 180.31 369.836 180.378C371.053 180.444 372.324 180.57 373.373 180.699C375.474 179.604 379.245 174.273 381.425 165.359L382.167 165.702L394.555 171.524C394.555 171.524 393.239 175.556 392.267 179.412C391.509 182.43 390.966 185.346 391.419 186.162C392.396 186.56 392.979 186.807 392.979 186.807C392.979 186.807 392.979 186.813 392.984 186.821C393.11 187.142 395.804 194.005 397.222 202.527Z" fill="#FFB27D"/>
<path d="M401.519 213.789C401.39 214.129 401.247 214.465 401.093 214.811C396.746 224.175 384.929 255.114 384.929 255.114C386.077 262.09 336.285 261.593 336.145 255.243C334.631 249.831 339.874 241.781 344.501 236.009C345.633 234.6 346.726 233.334 347.673 232.268C348.28 231.585 348.824 230.854 349.299 230.082C350.494 228.149 351.252 225.963 351.493 223.681C352.133 217.623 352.177 211.825 352.163 207.113C352.155 204.822 352.139 202.793 352.163 201.115C353.108 200.412 354.023 199.767 354.877 199.151C356.178 198.204 357.329 197.314 358.172 196.413C359.106 195.433 359.691 194.428 359.757 193.296C359.803 192.44 359.779 191.561 359.691 190.682C359.65 190.267 359.595 189.855 359.532 189.441C358.861 185.082 357.043 181.131 357.043 181.131C361.652 179.266 369.841 180.378 369.841 180.378C369.841 180.378 369.833 180.834 369.83 181.581C369.8 184.572 369.83 192.256 370.788 193.708C371.986 195.518 393.928 203.452 395.09 200.994C396.23 198.58 393.104 187.255 392.986 186.829C392.984 186.818 392.984 186.815 392.984 186.815C393.22 186.906 393.448 186.999 393.67 187.087C394.788 187.543 395.754 188.065 396.683 188.403C402.653 190.583 403.213 192.566 403.213 192.566C398.786 195.433 404.943 204.707 401.519 213.789Z" fill="#EBB044"/>
<path d="M394.552 171.53C394.552 171.53 393.234 175.556 392.265 179.417C385.023 177.396 382.826 169.786 382.164 165.705L394.552 171.53Z" fill="#ED985F"/>
<path d="M396.082 175.793C396.082 175.793 378.759 171.784 381.423 161.035C384.087 150.286 383.642 142.528 394.816 144.634C405.988 146.741 407.114 151.371 407.098 155.177C407.081 158.978 400.658 176.557 396.082 175.793Z" fill="#FFB27D"/>
<path d="M408.068 149.073C406.206 145.176 404.014 145.385 402.641 146.074C394.501 138.544 386.518 144.695 386.518 144.695C383.445 152.118 376.785 155.153 376.785 155.153C376.785 155.153 379.446 157.877 387.16 157.817C389.517 157.798 391.887 156.718 394.04 155.227C389.882 159.415 385.007 161.964 385.007 161.964C394.663 160.115 401.136 148.938 401.801 147.752C402.619 148.96 404.184 151.531 404.313 153.703C404.492 156.652 403.479 162.384 405.168 162.601C405.17 162.601 410.861 154.917 408.068 149.073Z" fill="#1A3151"/>
<path d="M412.782 437.698H385.273C385.273 437.698 384.243 433.309 386.05 430.324C387.648 427.682 387.516 426.076 386.333 423.89C387.58 424.4 388.708 424.966 390.485 424.865C391.855 424.785 393.377 423.818 394.648 423.079C395.832 424.431 400.83 430.522 402.415 431.659C404.211 432.952 412.227 432.491 412.782 437.698Z" fill="#233862"/>
<path d="M363.682 238.393C356.501 237.885 349.663 237.25 344.5 236.012C345.631 234.603 346.724 233.337 347.672 232.271C348.279 231.588 348.823 230.857 349.298 230.085C350.492 228.152 351.25 225.966 351.492 223.684C352.132 217.626 352.176 211.828 352.162 207.116C358.426 200.102 363.685 194.403 363.685 194.403C363.685 194.403 375.36 205.103 377.167 215.761C378.971 226.414 382.384 239.716 363.682 238.393Z" fill="#9B732A"/>
<path d="M366.574 180.1C366.574 180.1 375.052 190.143 373.234 205.217H376.746C376.746 205.217 378.735 194.677 369.837 180.377C369.837 180.377 368.675 180.212 368.299 180.179C367.862 180.144 366.574 180.1 366.574 180.1Z" fill="#963333"/>
<path d="M397.136 213.207L393.726 212.366C398.309 200.253 394.794 189.872 393.668 187.087C394.786 187.543 395.788 187.985 396.681 188.403C401.41 203.839 397.136 213.207 397.136 213.207Z" fill="#963333"/>
<path d="M398.62 207.116C398.62 207.116 381.706 202.711 376.936 201.486C372.163 200.261 371.787 203.079 371.787 203.079C371.787 203.079 371.122 212.262 371.048 213.207C369.947 227.622 349.293 230.085 349.293 230.085C349.293 230.085 343.957 236.734 339.381 243.27C331.535 254.477 332.502 273.41 332.502 273.41C332.334 275.7 332.31 278.191 332.477 280.891C333.098 290.84 334.229 333.116 335.413 345.625C335.841 350.159 336.215 353.386 336.369 354.674C336.371 354.68 336.371 354.682 336.371 354.688C336.418 355.081 336.281 355.451 336.08 355.795C334.339 358.75 332.897 361.825 331.714 364.975C320.105 395.909 333.502 434.005 333.502 434.005L336.978 432.604C336.978 432.604 344.602 390.208 350.795 371.478C351.846 368.301 352.854 365.805 353.777 364.313C356.471 359.966 358.97 352.864 361.239 344.417C365.526 328.447 368.978 307.669 371.273 291.634C371.589 291.648 374.108 270.098 382.382 260.184L385.623 256.867L395.896 231.623C395.896 231.623 398.733 214.844 399.59 212.026C400.452 209.206 398.62 207.116 398.62 207.116Z" fill="#B64C41"/>
<path d="M373.5 203.932C373.5 203.119 374.159 202.463 374.969 202.463C375.779 202.463 376.438 203.122 376.438 203.932C376.438 204.745 375.779 205.401 374.969 205.401C374.159 205.401 373.5 204.745 373.5 203.932Z" fill="#ED7D2B"/>
<path d="M373.766 203.932C373.766 203.119 374.425 202.463 375.235 202.463C376.048 202.463 376.704 203.122 376.704 203.932C376.704 204.745 376.045 205.401 375.235 205.401C374.425 205.404 373.766 204.745 373.766 203.932Z" fill="#F99746"/>
<path d="M374.366 203.656C374.401 203.544 374.522 203.48 374.635 203.519C374.747 203.555 374.808 203.675 374.772 203.788C374.736 203.901 374.616 203.964 374.503 203.925C374.39 203.89 374.33 203.769 374.366 203.656Z" fill="#2B478B"/>
<path d="M375.695 204.083C375.731 203.97 375.851 203.907 375.964 203.946C376.077 203.981 376.14 204.102 376.101 204.215C376.066 204.327 375.945 204.39 375.832 204.352C375.72 204.316 375.656 204.195 375.695 204.083Z" fill="#2B478B"/>
<path d="M394.688 208.705C394.688 207.892 395.347 207.236 396.157 207.236C396.97 207.236 397.626 207.895 397.626 208.705C397.626 209.518 396.967 210.174 396.157 210.174C395.347 210.174 394.688 209.518 394.688 208.705Z" fill="#ED7D2B"/>
<path d="M394.953 208.705C394.953 207.892 395.612 207.236 396.422 207.236C397.235 207.236 397.892 207.895 397.892 208.705C397.892 209.518 397.232 210.174 396.422 210.174C395.609 210.174 394.953 209.518 394.953 208.705Z" fill="#F99746"/>
<path d="M395.553 208.428C395.589 208.315 395.71 208.255 395.822 208.29C395.935 208.326 395.995 208.447 395.96 208.559C395.924 208.672 395.803 208.732 395.691 208.697C395.578 208.661 395.518 208.54 395.553 208.428Z" fill="#2B478B"/>
<path d="M396.885 208.854C396.921 208.742 397.042 208.681 397.154 208.717C397.267 208.753 397.327 208.873 397.292 208.986C397.256 209.099 397.135 209.159 397.023 209.123C396.91 209.085 396.85 208.964 396.885 208.854Z" fill="#2B478B"/>
<path d="M371.459 157.209C371.459 157.209 370.548 159.672 371.893 160.639C373.239 161.605 368.48 166.035 367.56 169.756C366.64 173.477 367.79 175.452 367.79 175.452C367.79 175.452 367.653 173.2 368.48 172.099C368.48 172.099 367.59 174.656 369.062 176.556C370.531 178.454 369.669 179.42 369.669 179.42C369.669 179.42 374.329 179.497 375.463 176.342C375.463 176.342 375.189 177.844 374.851 178.393C374.851 178.393 379.402 176.8 380.588 173.675C381.774 170.55 379.555 166.892 378.174 166.4C376.793 165.909 374.543 162.174 374.958 161.163C375.37 160.153 371.459 157.209 371.459 157.209Z" fill="#1A3151"/>
<path d="M405.893 199.588C401.963 200.165 400.373 202.497 400.373 202.497C400.373 202.497 400.035 197.553 400.686 194.48C400.911 193.406 401.26 192.561 401.782 192.239C402.021 192.091 402.399 192.091 402.872 192.204C402.924 192.215 402.976 192.228 403.031 192.245C403.333 192.745 404.511 194.876 405.893 199.588Z" fill="#EBB044"/>
<path d="M460.899 291.289C453.901 291.655 449.12 280.796 446.173 280.653C445.69 280.631 444.77 280.766 443.592 280.939C446.494 285.701 448.711 291.297 449.941 297.449C454.137 318.395 445.297 337.827 430.198 340.848C415.514 343.786 400.316 330.116 395.642 310.09C395.511 309.53 395.39 308.964 395.274 308.393C394.052 302.285 393.94 296.307 394.766 290.825C394.766 290.809 394.769 290.792 394.772 290.776C394.14 290.943 393.649 291.089 393.36 291.226C390.694 292.495 390.46 304.353 383.861 306.709C377.262 309.063 372.816 296.419 380.673 286.568C385.465 280.56 393.953 277.662 399.85 276.314C401.074 274.315 402.483 272.521 404.054 270.97C404.112 270.912 404.169 270.852 404.23 270.794C399.899 268.451 396.603 264.272 395.56 259.065C395.206 257.304 395.14 255.55 395.324 253.85C395.31 253.847 395.296 253.841 395.28 253.839C392.297 252.938 389.903 250.469 389.246 247.204C388.304 242.489 391.361 237.9 396.079 236.955C399.493 236.271 402.84 237.685 404.787 240.308C406.097 239.663 407.512 239.174 409.017 238.872C410.348 238.608 411.675 238.501 412.974 238.545C413.798 235.433 416.322 232.901 419.688 232.226C424.406 231.284 428.993 234.34 429.94 239.058C430.558 242.153 429.454 245.194 427.29 247.185C428.18 248.744 428.839 250.472 429.21 252.328C430.196 257.244 428.973 262.088 426.227 265.834C428.691 266.683 431.083 267.954 433.348 269.588C439.261 268.457 448.93 267.537 456.09 271.475C467.135 277.539 467.896 290.919 460.899 291.289Z" fill="#EBB044"/>
<path d="M395.638 310.086C395.507 309.525 395.386 308.96 395.27 308.388C394.048 302.281 393.936 296.302 394.762 290.821C395.63 289.81 396.784 289.06 398.091 289.681C400.98 291.051 400.524 304.893 404.934 308.086C408.205 310.451 400.027 310.478 395.638 310.086Z" fill="#9B732A"/>
<path d="M412.418 268.768C410.759 269.383 407.222 270.481 404.053 270.967C404.11 270.91 404.168 270.849 404.228 270.792C399.898 268.449 396.602 264.269 395.559 259.062C395.204 257.302 395.138 255.547 395.322 253.847C395.309 253.845 395.295 253.839 395.279 253.836C395.452 253.768 395.674 253.872 395.962 254.281C397.064 255.841 403.012 268.466 412.418 267.021C412.418 267.018 414.876 267.856 412.418 268.768Z" fill="#9B732A"/>
<path d="M416.875 239.64C416.875 239.64 419.08 235.535 422.351 236.597C425.622 237.663 426.078 242.378 423.949 243.669C423.947 243.672 420.777 240.739 416.875 239.64Z" fill="#9B732A"/>
<path d="M401.514 242.042C401.514 242.042 396.798 239.869 394.67 242.38C392.542 244.89 396.798 248.092 396.798 248.092C396.798 248.092 398.85 243.835 401.514 242.042Z" fill="#9B732A"/>
<path d="M403.433 265.104L401.914 270.728C401.914 270.728 396.578 268.784 393.826 267.743C393.003 267.424 392.536 267.216 392.536 267.216C390.339 266.356 387.724 265.255 384.871 264.068L384.83 264.06C379.966 261.921 374.537 259.43 370.03 256.934C366.867 255.146 364.167 253.355 362.401 251.735C362.22 251.576 362.08 251.425 361.904 251.224C357.771 246.907 353.954 235.719 351.529 224.023C351.191 222.408 350.892 220.799 350.587 219.233C349.538 213.414 348.881 207.751 348.741 202.94C348.631 200.065 348.681 197.469 348.972 195.379C349.063 194.641 349.148 193.943 349.307 193.298C351.521 181.516 357.669 180.948 357.669 180.948C357.798 180.929 357.928 180.91 358.098 180.899C359.144 180.92 360.078 181.802 360.932 183.343C362.014 185.26 362.986 188.25 363.895 191.815C365.265 197.48 366.479 204.714 367.537 211.879C368.13 215.809 368.682 219.73 369.283 223.366C369.599 225.566 369.94 227.642 370.266 229.551C370.909 233.195 371.549 236.167 372.249 238.1C372.694 239.355 374.279 241.28 376.437 243.518C380.183 247.429 385.805 252.35 390.737 256.434C392.78 258.148 394.722 259.716 396.336 261.015C398.945 263.124 403.433 265.104 403.433 265.104Z" fill="#FFB27D"/>
<path d="M364.6 191.889C356.771 188.209 349.301 193.279 349.301 193.279C351.566 181.322 358.023 180.795 358.023 180.795C360.678 180.251 362.801 184.922 364.6 191.889Z" fill="#EBB044"/>
<path d="M399.822 263.849C399.822 263.849 403.062 265.14 404.908 265.467C406.751 265.793 409.596 264.879 411.933 266.403C414.27 267.927 415.934 268.941 415.934 268.941C415.934 268.941 416.503 269.806 415.261 270.154C414.553 270.355 410.969 268.087 410.818 268.691C410.664 269.295 413.097 270.649 414.509 270.726C415.923 270.803 418.499 272.041 418.499 272.956C418.499 273.87 414.325 276.034 411.886 275.88C409.447 275.729 404.438 271.431 403.17 271.127C401.904 270.822 396.57 268.693 396.57 268.693L399.822 263.849Z" fill="#FFB27D"/>
<path d="M353.715 437.701H326.206C326.206 437.701 325.547 433.508 326.983 430.328C328.359 427.276 330.773 425.763 330.256 422.072C332.003 423.871 334.409 425.607 338.385 425.071C338.871 425.862 341.719 430.495 343.348 431.665C345.146 432.956 353.163 432.494 353.715 437.701Z" fill="#233862"/>
<path d="M638.209 412.49C638.209 412.49 643.536 417.428 642.498 420.938C641.458 424.447 636.649 426.787 636.001 431.074C635.35 435.364 632.752 437.703 630.412 437.703C628.072 437.703 619.26 437.703 619.26 437.703C619.26 437.703 617.538 434.685 621.696 433.776C625.853 432.867 627.422 427.825 627.163 423.148C626.905 418.471 627.553 412.232 627.553 412.232L636.391 410.153L638.209 412.49Z" fill="#1A3151"/>
<path d="M571.797 437.223C571.391 437.429 570.199 437.583 568.513 437.704H541.539C541.665 436.839 542.371 434.356 546.323 433.713C550.981 432.958 559.052 430.25 560.856 424.294C560.914 424.099 560.963 423.904 561.01 423.706C562.441 417.338 572.838 425.656 572.838 425.656C572.838 425.656 572.868 425.911 572.915 426.343C573.154 428.677 573.769 436.234 571.797 437.223Z" fill="#1A3151"/>
<path d="M547.559 266.883C547.559 266.883 549.138 286.585 550.994 310.269C553.518 342.441 556.55 381.956 556.852 389.443C557.371 402.441 559.453 423.235 559.453 423.235C559.453 423.235 564.388 428.176 574.269 426.094C574.269 426.094 583.073 396.41 585.589 365.004C585.627 364.49 585.665 363.971 585.707 363.452C588.046 331.481 591.683 264.156 591.683 264.156L547.559 266.883Z" fill="#145566"/>
<path d="M547.559 266.883C547.559 266.883 549.138 286.585 550.994 310.269L585.586 365.004C585.624 364.49 585.663 363.971 585.704 363.452C588.044 331.481 591.68 264.156 591.68 264.156L547.559 266.883Z" fill="#0F3C48"/>
<path d="M554.77 269.224C554.77 269.224 583.232 340.577 601.947 374.108C620.663 407.64 626.512 416.996 626.512 416.996C626.512 416.996 637.234 412.707 638.209 409.782C638.209 409.782 631.052 345.048 618.518 329.268C611.436 320.351 603.117 293.591 602.727 284.235C602.337 274.878 600.192 256.358 600.192 256.358L554.77 269.224Z" fill="#145566"/>
<path d="M498.911 259.345C498.911 259.345 488.868 264.165 487.514 265.403C486.163 266.639 482.827 272.714 483.082 273.173C483.337 273.631 483.837 273.771 484.749 273.142C485.658 272.513 488.215 269.883 488.308 270.371C488.402 270.86 481.489 278.995 482.711 280.716C483.933 282.438 490.865 281.93 494.819 279.115C498.777 276.301 502.726 265.955 503.322 265.392C508.369 260.6 498.911 259.345 498.911 259.345Z" fill="#FFB27D"/>
<path d="M498.455 264.511C495.668 262.086 495.594 261.471 495.594 261.471C495.594 261.471 513.403 230.672 514.949 227.711C516.493 224.748 526.039 178.496 526.039 178.496L559.037 168.928C559.037 168.928 535.793 229.032 531.734 236.461C525.025 248.737 503.127 266.801 503.127 266.801C503.127 266.801 500.647 266.417 498.455 264.511Z" fill="#9B732A"/>
<path d="M542.228 156.893C542.228 156.893 530.614 177.325 519.264 179.994C519.264 179.994 519.736 173.131 522.501 168.435C521.37 167.1 520.376 165.873 519.516 164.777C516.657 161.116 515.301 158.873 515.301 158.873L519.154 148.517L521.768 141.489C523.023 143.768 524.41 145.713 525.852 147.374C533.289 155.929 542.228 156.893 542.228 156.893Z" fill="#FFB27D"/>
<path d="M525.852 147.372C525.852 147.372 527.239 157.613 519.516 164.773C516.657 161.112 515.301 158.868 515.301 158.868L519.154 148.512C523.284 147.254 525.852 147.372 525.852 147.372Z" fill="#ED975D"/>
<path d="M512.24 160.381C512.24 160.381 529.591 153.617 525.214 142.877C520.836 132.136 520.125 124.029 508.862 127.893C497.597 131.757 497.13 136.728 497.721 140.669C498.306 144.61 507.613 161.864 512.24 160.381Z" fill="#FFB27D"/>
<path d="M601.87 261.748C594.872 271.81 542.535 285.256 543.161 278.294C543.397 275.625 543.715 270.929 543.155 264.557C543.023 263.063 542.837 261.479 542.598 259.812C541.263 250.653 538.11 238.888 531.063 225.264C530.536 224.242 529.987 223.215 529.416 222.172C526.51 216.899 524.044 211.324 522.16 205.87C518.532 195.39 517.066 185.364 518.9 178.811C518.909 178.776 518.914 178.748 518.928 178.721C529.866 173.662 534.104 154.046 534.104 154.046C534.104 154.046 571.425 160.744 592.335 210.489C592.335 210.489 594.342 215.952 596.635 223.366C599.423 232.358 602.633 244.213 603.188 252.669C603.463 256.681 603.128 259.933 601.87 261.748Z" fill="#EBB044"/>
<path d="M527.702 122.923C527.823 122.684 528.177 122.426 529.039 122.163C529.039 122.163 528.232 121.891 527.293 122.097C526.807 120.908 525.623 118.884 523.401 118.867C523.401 118.867 524.676 119.199 525.145 120.474C522.102 118.546 516.459 117.986 502.376 122.676C483.814 128.858 493.088 139.634 495.901 140.497C498.713 141.362 503.892 135.817 508.55 135.059C513.207 134.301 515.728 140.79 517.502 141.329C519.279 141.867 518.269 140.389 520.128 138.912C521.987 137.435 523.055 140.911 523.014 143.355C522.973 145.8 526.601 148.115 526.601 148.115C526.601 148.115 526.601 148.115 528.726 144.215C530.852 140.315 530.275 126.153 528.243 123.604C528.065 123.382 527.886 123.154 527.702 122.923Z" fill="#1A3151"/>
<path d="M603.194 252.665C558.158 239.08 550.996 185.388 550.996 185.388C550.996 185.388 576.638 204.982 596.641 223.363C599.429 232.354 602.639 244.21 603.194 252.665Z" fill="#9B732A"/>
<path d="M615.538 254.428C615.538 254.428 614.522 262.947 614.769 264.339C615.014 265.729 616.637 269.865 617.04 269.889C617.444 269.911 618.669 269.961 618.636 269.109C618.603 268.258 618.051 267.462 618.405 267.602C618.762 267.742 618.864 270.958 620.487 270.875C622.11 270.793 626.891 268.988 626.699 265.254C626.504 261.519 621.412 254.678 621.292 254.057C620.262 248.798 615.538 254.428 615.538 254.428Z" fill="#FFB27D"/>
<path d="M618.238 255.866C614.665 257.502 613.338 255.833 613.338 255.833C613.338 255.833 592.527 221.079 590.336 218.286C588.144 215.49 549.724 199.005 549.724 199.005C549.724 199.005 534.09 193.029 533.472 183.543C532.934 175.302 537.613 170.238 542.738 167.184C548.845 163.545 556.571 164.081 562.184 168.439C574.786 178.227 599.769 197.915 603.79 203.253C612.737 215.136 622.656 252.381 622.656 252.381C622.656 252.381 621.044 254.578 618.238 255.866Z" fill="#EBB044"/>
<path d="M528.777 279.432L519.41 288.792L519.281 288.709L505.223 279.891C505.223 279.891 512.497 282.239 513.481 281.965C514.409 281.706 524.57 278.213 526.965 278.504C527.11 278.523 527.228 278.554 527.313 278.603C528.777 279.432 528.777 279.432 528.777 279.432Z" fill="#4A75CB"/>
<path d="M518.987 291.333C518.611 291.251 517.496 290.987 515.977 290.6C511.614 289.483 503.916 287.338 500.879 285.58C498.152 284.004 483.75 275.628 473.828 269.745C477.785 267.628 481.691 267.331 484.964 267.743C496.548 274.543 511.682 283.471 513.536 284.773C516.582 286.915 520.734 289.507 520.734 289.507C520.734 289.507 520.717 289.625 520.674 289.801C520.536 290.378 520.102 291.572 518.987 291.333Z" fill="#E58638"/>
<path d="M518.987 291.332C518.611 291.25 517.496 290.986 515.977 290.599C511.613 289.482 503.916 287.337 500.878 285.579C498.151 284.003 483.75 275.627 473.828 269.744C468.846 266.792 464.993 264.466 464.315 263.944C462.291 262.387 458.394 258.496 459.352 257.762C460.311 257.029 462.181 257.768 462.884 257.658C462.895 257.655 462.903 257.655 462.914 257.653C463.079 257.628 463.351 257.584 463.724 257.562C465.062 257.482 467.717 257.666 471.496 259.85C471.496 259.85 477.491 263.351 484.966 267.74C496.55 274.539 511.685 283.467 513.538 284.769C516.584 286.911 520.736 289.503 520.736 289.503C520.736 289.503 520.72 289.622 520.676 289.797C520.536 290.377 520.102 291.571 518.987 291.332Z" fill="#739AF0"/>
<path d="M518.988 291.333C518.612 291.253 517.497 290.987 515.978 290.599C516.176 288.869 514.965 287.491 514.965 287.491L520.674 289.803C520.537 290.377 520.103 291.572 518.988 291.333Z" fill="#4A75CB"/>
<g opacity="0.5">
<path d="M506.615 283.978C506.527 283.925 506.497 283.81 506.549 283.719L506.651 283.549C506.703 283.461 506.818 283.431 506.909 283.483C506.997 283.535 507.027 283.651 506.975 283.741L506.873 283.912C506.818 284 506.703 284.03 506.615 283.978Z" fill="#4A75CB"/>
<path d="M505.779 283.483C505.691 283.431 505.661 283.315 505.713 283.225L505.815 283.054C505.867 282.966 505.982 282.936 506.073 282.988C506.161 283.041 506.191 283.156 506.139 283.247L506.037 283.417C505.982 283.507 505.867 283.535 505.779 283.483Z" fill="#4A75CB"/>
<path d="M504.947 282.991C504.859 282.939 504.829 282.824 504.881 282.733L504.983 282.563C505.035 282.475 505.15 282.445 505.241 282.497C505.329 282.549 505.359 282.665 505.307 282.755L505.205 282.925C505.15 283.013 505.035 283.044 504.947 282.991Z" fill="#4A75CB"/>
<path d="M504.111 282.496C504.023 282.444 503.993 282.329 504.045 282.238L504.147 282.068C504.199 281.98 504.314 281.95 504.405 282.002C504.493 282.054 504.523 282.17 504.471 282.26L504.369 282.431C504.317 282.518 504.199 282.549 504.111 282.496Z" fill="#4A75CB"/>
<path d="M503.275 282.005C503.187 281.953 503.157 281.838 503.209 281.747L503.311 281.577C503.363 281.489 503.478 281.459 503.569 281.511C503.657 281.563 503.687 281.678 503.635 281.769L503.533 281.939C503.481 282.027 503.366 282.057 503.275 282.005Z" fill="#4A75CB"/>
<path d="M502.443 281.51C502.355 281.458 502.325 281.343 502.377 281.252L502.479 281.082C502.531 280.994 502.646 280.964 502.737 281.016C502.825 281.068 502.855 281.183 502.803 281.274L502.701 281.444C502.649 281.532 502.534 281.562 502.443 281.51Z" fill="#4A75CB"/>
<path d="M501.607 281.017C501.519 280.965 501.489 280.85 501.541 280.759L501.643 280.589C501.695 280.501 501.81 280.471 501.901 280.523C501.989 280.575 502.019 280.69 501.967 280.781L501.865 280.951C501.813 281.042 501.698 281.069 501.607 281.017Z" fill="#4A75CB"/>
<path d="M500.775 280.524C500.687 280.472 500.657 280.357 500.709 280.266L500.811 280.096C500.863 280.008 500.978 279.978 501.069 280.03C501.157 280.082 501.187 280.197 501.135 280.288L501.033 280.458C500.978 280.546 500.863 280.576 500.775 280.524Z" fill="#4A75CB"/>
<path d="M499.939 280.031C499.851 279.979 499.821 279.863 499.873 279.773L499.975 279.603C500.027 279.515 500.142 279.484 500.233 279.537C500.321 279.589 500.351 279.704 500.299 279.795L500.197 279.965C500.142 280.053 500.027 280.083 499.939 280.031Z" fill="#4A75CB"/>
<path d="M490.107 274.221C490.019 274.169 489.989 274.053 490.041 273.963L490.143 273.792C490.195 273.705 490.31 273.674 490.401 273.727C490.489 273.779 490.519 273.894 490.467 273.985L490.365 274.155C490.313 274.243 490.198 274.273 490.107 274.221Z" fill="#4A75CB"/>
<path d="M489.271 273.726C489.183 273.674 489.153 273.559 489.205 273.468L489.307 273.298C489.359 273.21 489.474 273.18 489.565 273.232C489.653 273.284 489.683 273.399 489.631 273.49L489.529 273.66C489.477 273.748 489.362 273.778 489.271 273.726Z" fill="#4A75CB"/>
<path d="M488.443 273.233C488.355 273.181 488.325 273.065 488.377 272.975L488.479 272.805C488.531 272.717 488.646 272.686 488.737 272.739C488.825 272.791 488.855 272.906 488.803 272.997L488.701 273.167C488.646 273.258 488.531 273.288 488.443 273.233Z" fill="#4A75CB"/>
<path d="M487.607 272.74C487.519 272.688 487.489 272.572 487.541 272.482L487.643 272.311C487.695 272.224 487.81 272.193 487.901 272.246C487.989 272.298 488.019 272.413 487.967 272.504L487.865 272.674C487.81 272.762 487.695 272.792 487.607 272.74Z" fill="#4A75CB"/>
<path d="M486.771 272.247C486.683 272.195 486.653 272.079 486.705 271.989L486.807 271.818C486.859 271.73 486.974 271.7 487.065 271.752C487.153 271.805 487.183 271.92 487.131 272.011L487.029 272.181C486.974 272.271 486.859 272.299 486.771 272.247Z" fill="#4A75CB"/>
<path d="M485.935 271.754C485.847 271.701 485.817 271.586 485.869 271.495L485.971 271.325C486.023 271.237 486.138 271.207 486.229 271.259C486.317 271.311 486.347 271.427 486.295 271.517L486.193 271.688C486.141 271.776 486.026 271.806 485.935 271.754Z" fill="#4A75CB"/>
<path d="M485.099 271.26C485.011 271.208 484.981 271.093 485.033 271.002L485.135 270.832C485.187 270.744 485.303 270.714 485.393 270.766C485.481 270.818 485.511 270.934 485.459 271.024L485.357 271.195C485.305 271.282 485.19 271.313 485.099 271.26Z" fill="#4A75CB"/>
<path d="M484.267 270.767C484.179 270.715 484.149 270.6 484.201 270.509L484.303 270.339C484.355 270.251 484.471 270.221 484.561 270.273C484.649 270.325 484.679 270.441 484.627 270.531L484.525 270.701C484.473 270.789 484.358 270.82 484.267 270.767Z" fill="#4A75CB"/>
<path d="M483.431 270.274C483.344 270.222 483.313 270.107 483.365 270.016L483.467 269.846C483.519 269.758 483.635 269.728 483.725 269.78C483.813 269.832 483.843 269.947 483.791 270.038L483.69 270.208C483.637 270.296 483.522 270.326 483.431 270.274Z" fill="#4A75CB"/>
<path d="M480.209 268.366C480.121 268.314 480.091 268.199 480.143 268.108L480.244 267.938C480.297 267.85 480.412 267.82 480.503 267.872C480.59 267.924 480.621 268.039 480.568 268.13L480.467 268.3C480.412 268.388 480.297 268.418 480.209 268.366Z" fill="#4A75CB"/>
<path d="M481.838 269.33C481.748 269.277 481.72 269.162 481.772 269.071L481.874 268.901C481.926 268.813 482.041 268.783 482.132 268.835C482.22 268.887 482.25 269.003 482.198 269.093L482.096 269.264C482.041 269.351 481.926 269.382 481.838 269.33Z" fill="#4A75CB"/>
<path d="M479.373 267.871C479.285 267.819 479.255 267.704 479.307 267.613L479.408 267.443C479.461 267.355 479.576 267.325 479.667 267.377C479.755 267.429 479.785 267.544 479.733 267.635L479.631 267.805C479.576 267.896 479.461 267.923 479.373 267.871Z" fill="#4A75CB"/>
<path d="M478.537 267.38C478.449 267.328 478.419 267.212 478.471 267.122L478.573 266.951C478.625 266.864 478.74 266.833 478.831 266.885C478.919 266.938 478.949 267.053 478.897 267.144L478.795 267.314C478.743 267.402 478.625 267.432 478.537 267.38Z" fill="#4A75CB"/>
<path d="M477.701 266.887C477.613 266.835 477.583 266.719 477.635 266.629L477.737 266.458C477.789 266.37 477.904 266.34 477.995 266.392C478.083 266.445 478.113 266.56 478.061 266.651L477.959 266.821C477.907 266.909 477.789 266.939 477.701 266.887Z" fill="#4A75CB"/>
<path d="M476.865 266.392C476.777 266.34 476.747 266.224 476.799 266.134L476.901 265.963C476.953 265.876 477.068 265.845 477.159 265.898C477.247 265.95 477.277 266.065 477.225 266.156L477.123 266.326C477.071 266.417 476.956 266.447 476.865 266.392Z" fill="#4A75CB"/>
<path d="M476.03 265.9C475.939 265.848 475.912 265.733 475.964 265.642L476.065 265.472C476.118 265.384 476.233 265.354 476.324 265.406C476.411 265.458 476.442 265.574 476.389 265.664L476.288 265.835C476.236 265.922 476.12 265.953 476.03 265.9Z" fill="#4A75CB"/>
<path d="M475.201 265.406C475.113 265.353 475.083 265.238 475.135 265.147L475.237 264.977C475.289 264.889 475.404 264.859 475.495 264.911C475.583 264.963 475.613 265.079 475.561 265.169L475.459 265.34C475.404 265.428 475.289 265.458 475.201 265.406Z" fill="#4A75CB"/>
<path d="M474.365 264.914C474.277 264.862 474.247 264.747 474.299 264.656L474.401 264.486C474.453 264.398 474.568 264.368 474.659 264.42C474.747 264.472 474.777 264.587 474.725 264.678L474.623 264.848C474.568 264.936 474.453 264.966 474.365 264.914Z" fill="#4A75CB"/>
<path d="M473.529 264.419C473.441 264.367 473.411 264.252 473.463 264.161L473.565 263.991C473.617 263.903 473.732 263.873 473.823 263.925C473.911 263.977 473.941 264.093 473.889 264.183L473.787 264.354C473.732 264.441 473.617 264.472 473.529 264.419Z" fill="#4A75CB"/>
<path d="M472.709 263.937C472.621 263.885 472.591 263.769 472.643 263.679L472.744 263.508C472.797 263.42 472.912 263.39 473.003 263.442C473.09 263.495 473.121 263.61 473.068 263.701L472.967 263.871C472.915 263.959 472.797 263.989 472.709 263.937Z" fill="#4A75CB"/>
<path d="M471.877 263.44C471.789 263.388 471.759 263.273 471.811 263.182L471.912 263.012C471.965 262.924 472.08 262.894 472.171 262.946C472.258 262.998 472.289 263.113 472.236 263.204L472.135 263.374C472.083 263.465 471.967 263.492 471.877 263.44Z" fill="#4A75CB"/>
<path d="M471.041 262.951C470.951 262.898 470.923 262.783 470.975 262.692L471.077 262.522C471.129 262.434 471.245 262.404 471.335 262.456C471.423 262.508 471.453 262.624 471.401 262.714L471.3 262.885C471.247 262.973 471.132 263.003 471.041 262.951Z" fill="#4A75CB"/>
<path d="M464.629 258.647C464.549 258.746 464.42 258.779 464.305 258.738C464.277 258.727 464.25 258.713 464.225 258.694L462.918 257.658C463.083 257.634 463.355 257.59 463.728 257.568L464.582 258.243C464.706 258.342 464.725 258.523 464.629 258.647Z" fill="#4A75CB"/>
<path d="M485.628 272.555L485.376 272.404C485.208 272.306 485.153 272.089 485.252 271.921L485.878 270.864C485.977 270.696 486.194 270.641 486.362 270.74L486.614 270.891C486.782 270.99 486.837 271.21 486.738 271.375L486.112 272.432C486.016 272.599 485.796 272.654 485.628 272.555Z" fill="#4A75CB"/>
<path d="M487.289 273.538L487.036 273.387C486.868 273.288 486.814 273.069 486.912 272.904L487.539 271.846C487.637 271.679 487.854 271.624 488.022 271.723L488.275 271.874C488.442 271.973 488.497 272.193 488.398 272.357L487.772 273.415C487.673 273.579 487.456 273.637 487.289 273.538Z" fill="#4A75CB"/>
<path d="M497.49 278.582C497.402 278.529 497.372 278.414 497.424 278.323L497.526 278.153C497.578 278.065 497.693 278.035 497.784 278.087C497.872 278.139 497.902 278.255 497.85 278.345L497.748 278.516C497.693 278.606 497.578 278.634 497.49 278.582Z" fill="#4A75CB"/>
<path d="M496.654 278.09C496.566 278.038 496.536 277.923 496.588 277.832L496.69 277.662C496.742 277.574 496.857 277.544 496.948 277.596C497.036 277.648 497.066 277.763 497.014 277.854L496.912 278.024C496.857 278.112 496.742 278.142 496.654 278.09Z" fill="#4A75CB"/>
<path d="M495.822 277.595C495.734 277.543 495.704 277.428 495.756 277.337L495.858 277.167C495.91 277.079 496.025 277.049 496.116 277.101C496.204 277.153 496.234 277.269 496.182 277.359L496.08 277.529C496.025 277.617 495.91 277.648 495.822 277.595Z" fill="#4A75CB"/>
<path d="M494.986 277.101C494.898 277.048 494.868 276.933 494.92 276.842L495.022 276.672C495.074 276.584 495.189 276.554 495.28 276.606C495.368 276.658 495.398 276.774 495.346 276.864L495.244 277.035C495.192 277.125 495.074 277.153 494.986 277.101Z" fill="#4A75CB"/>
<path d="M494.15 276.609C494.062 276.557 494.032 276.442 494.084 276.351L494.186 276.181C494.238 276.093 494.353 276.063 494.444 276.115C494.535 276.167 494.562 276.282 494.51 276.373L494.408 276.543C494.356 276.631 494.241 276.661 494.15 276.609Z" fill="#4A75CB"/>
<path d="M493.318 276.114C493.23 276.062 493.2 275.947 493.252 275.856L493.354 275.686C493.406 275.598 493.521 275.568 493.612 275.62C493.7 275.672 493.73 275.788 493.678 275.878L493.576 276.048C493.524 276.136 493.409 276.166 493.318 276.114Z" fill="#4A75CB"/>
<path d="M492.482 275.623C492.394 275.571 492.364 275.455 492.416 275.365L492.518 275.195C492.57 275.107 492.685 275.076 492.776 275.129C492.864 275.181 492.894 275.296 492.842 275.387L492.74 275.557C492.688 275.645 492.573 275.675 492.482 275.623Z" fill="#4A75CB"/>
<path d="M491.65 275.128C491.562 275.076 491.532 274.961 491.584 274.87L491.686 274.7C491.738 274.612 491.853 274.582 491.944 274.634C492.032 274.686 492.062 274.801 492.01 274.892L491.908 275.062C491.853 275.15 491.738 275.18 491.65 275.128Z" fill="#4A75CB"/>
<path d="M490.814 274.635C490.726 274.583 490.696 274.467 490.748 274.377L490.85 274.207C490.902 274.119 491.017 274.089 491.108 274.141C491.196 274.193 491.226 274.308 491.174 274.399L491.072 274.569C491.017 274.66 490.902 274.687 490.814 274.635Z" fill="#4A75CB"/>
</g>
<path d="M485.67 276.97C486.23 277.071 486.653 276.467 486.37 275.973C486.088 275.479 485.654 274.907 485.039 274.553C483.775 273.823 483.402 276.135 483.811 276.396C484.055 276.55 484.923 276.838 485.67 276.97Z" fill="#2B478B"/>
<path d="M485.55 274.221L483.998 276.847C483.998 276.847 482.455 276.534 480.343 275.353C479.052 274.63 478.272 273.963 477.863 273.554C477.602 273.293 477.492 273.139 477.492 273.139L479.121 270.385C479.277 270.366 479.472 270.393 479.695 270.456C481.543 270.981 485.338 273.974 485.338 273.974L485.55 274.221Z" fill="#2B478B"/>
<path d="M479.691 270.458L477.859 273.556C477.598 273.295 477.488 273.141 477.488 273.141L479.117 270.387C479.273 270.367 479.468 270.395 479.691 270.458Z" fill="#4A75CB"/>
<path d="M515.031 287.026C515.108 286.998 520.472 288.21 523.388 290.343L519.7 290.286L514.963 287.485C514.965 287.487 514.652 287.166 515.031 287.026Z" fill="#2B478B"/>
<path d="M504.084 276.342C504.084 276.342 500.766 278.627 500.187 278.934C499.61 279.245 498.685 279.159 498.685 279.159H498.679L492.97 278.198C492.97 278.198 486.884 274.645 485.574 273.837C485.456 273.763 485.376 273.714 485.344 273.689C484.959 273.412 484.833 273.164 484.965 273.087C485.096 273.011 495.104 276.993 496.208 277.44C496.219 277.446 496.23 277.449 496.238 277.454C497.314 277.885 497.531 277.66 497.531 277.66L503.049 276.144C503.128 276.106 503.233 276.097 503.345 276.108C503.683 276.144 504.084 276.342 504.084 276.342Z" fill="#4A75CB"/>
<path d="M503.348 276.108C501.837 276.572 497.666 277.847 497.303 277.893C496.913 277.943 487.812 274.645 485.574 273.837C485.456 273.763 485.376 273.714 485.344 273.689C484.959 273.412 484.833 273.164 484.965 273.087C485.096 273.011 495.104 276.993 496.208 277.44C497.312 277.888 497.534 277.66 497.534 277.66L503.051 276.144C503.131 276.103 503.238 276.097 503.348 276.108Z" fill="#4A75CB"/>
<path d="M504.081 276.341C504.081 276.341 500.764 278.625 500.185 278.933C499.608 279.243 498.682 279.158 498.682 279.158H498.677C497.598 278.587 496.766 277.925 496.238 277.453C497.315 277.884 497.532 277.659 497.532 277.659L503.049 276.143C503.129 276.104 503.233 276.096 503.346 276.107C503.681 276.143 504.081 276.341 504.081 276.341Z" fill="#4A75CB"/>
<path d="M519.539 288.847L505.223 279.892C505.223 279.892 512.616 282.303 513.61 282.034C514.549 281.781 524.823 278.351 527.253 278.659C524.493 279.774 518.017 282.536 517.57 284.066C517.144 285.527 518.718 287.795 519.539 288.847Z" fill="#739AF0"/>
<path d="M175.749 114.659C175.719 113.868 175.109 105.343 162.125 104.898C162.125 104.898 168.51 105.659 169.614 108.466C169.614 108.466 165.267 104.997 161.727 106.112C158.187 107.227 156.108 113.431 156.086 115.471C156.064 117.512 158.033 124.089 160.28 124.647C161.131 124.858 162.111 124.803 163.001 124.649C162.402 125.583 161.818 126.613 161.257 127.764C156.078 138.4 161.419 148.792 165.805 147.644C168.617 146.908 169.414 151.708 169.414 151.708L196.741 129.584C196.741 129.582 186.701 108.812 175.749 114.659Z" fill="#1A3151"/>
<path d="M185.265 427.967L179.459 430.128C179.459 430.128 154.246 395.16 151.143 364.392C150.588 358.899 150.772 353.577 151.972 348.661C151.972 348.661 151.725 347.255 151.294 344.767C151.093 343.605 150.849 342.207 150.569 340.606C149.748 335.91 148.622 329.484 147.331 322.165C144.365 305.328 140.52 283.8 137.535 267.977L139.101 267.474L156.023 262.014L159.522 250.906L172.124 247.588C172.124 247.588 174.939 253.095 177.455 279.11C177.919 282.521 178.342 286.286 178.657 290.367C179.638 302.821 179.709 318.271 177.457 335.935C176.878 340.455 176.15 345.124 175.244 349.922C174.579 353.437 174.48 358.229 174.76 363.733C176.032 388.88 185.265 427.967 185.265 427.967Z" fill="#145566"/>
<path d="M178.657 290.367L151.294 344.767C151.093 343.605 150.849 342.207 150.569 340.606C149.748 335.91 148.622 329.484 147.331 322.165C144.365 305.328 140.52 283.8 137.535 267.977L139.101 267.474L156.023 262.014L159.522 250.906L172.124 247.588C172.124 247.588 174.939 253.095 177.455 279.11C177.919 282.523 178.342 286.286 178.657 290.367Z" fill="#0F3C48"/>
<path d="M166.622 254.574L165.987 249.142C155.373 251.959 127.018 241.266 127.018 241.266C127.018 241.266 116.736 250.303 118.087 271.966C118.746 282.539 119.949 327.47 121.207 340.767C121.66 345.587 122.058 349.014 122.223 350.385C122.226 350.39 122.226 350.396 122.226 350.398C122.275 350.816 122.13 351.211 121.918 351.577C120.067 354.718 118.535 357.986 117.28 361.334C104.944 394.209 119.18 434.697 119.18 434.697L122.874 433.209C122.874 433.209 130.975 388.151 137.558 368.243C138.676 364.868 139.747 362.215 140.73 360.628C143.592 356.009 146.247 348.46 148.659 339.482C153.215 322.508 156.884 300.428 159.325 283.385C159.66 283.401 166.622 254.574 166.622 254.574Z" fill="#145566"/>
<path d="M250.23 247.632C247.945 249.653 241.884 242.71 241.049 241.79C241.005 241.703 240.961 241.659 240.961 241.659L242.806 236.518C242.806 236.518 250.757 236.21 252.075 237.528C253.393 238.846 252.734 245.479 250.23 247.632Z" fill="#ED985F"/>
<path d="M242.807 236.518L242.016 241.835C242.016 241.835 241.664 241.835 241.049 241.791C239.116 241.659 234.417 241.396 229.1 240.824C221.106 240.033 211.615 238.627 207.839 236.301C202.086 232.786 192.639 222.024 186.49 211.261C186.314 210.997 186.182 210.734 186.05 210.47C182.843 204.758 180.602 199.092 180.429 194.567C180.297 191.798 180.604 189.426 181.176 187.363C181.923 184.639 183.153 182.489 184.427 180.863C184.603 180.599 184.779 180.336 185.042 180.116C187.152 177.611 189.217 176.557 189.217 176.557C190.271 176.117 191.414 176.645 192.6 177.919V177.963C193.567 178.973 194.621 180.511 195.632 182.445C195.676 182.489 195.72 182.533 195.72 182.577C195.94 182.972 196.159 183.411 196.423 183.895C196.511 183.983 196.555 184.114 196.599 184.202C197.082 185.213 197.565 186.267 198.049 187.366C203.45 199.139 209.207 216.973 213.996 222.29C216.061 224.575 225.506 229.054 233.017 232.393C238.413 234.761 242.807 236.518 242.807 236.518Z" fill="#ED985F"/>
<path d="M186.893 188.68C183.562 190.227 179.539 191.278 174.67 191.542C156.424 192.542 152.283 176.548 151.527 165.931C154.158 164.978 156.46 165.068 157.789 165.14C159.082 165.211 160.433 165.343 161.546 165.48C163.778 164.313 167.788 158.65 170.106 149.178L170.894 149.544L184.059 155.734C184.059 155.734 182.661 160.018 181.629 164.118C180.824 167.326 180.245 170.426 180.728 171.294C181.766 171.717 182.387 171.981 182.387 171.981C182.387 171.981 182.387 171.986 182.392 171.994C182.524 172.332 185.389 179.626 186.893 188.68Z" fill="#FFB27D"/>
<path d="M191.457 200.655C191.32 201.02 191.169 201.374 191.001 201.739C186.379 211.692 177.825 252.918 177.825 252.918C179.044 260.33 122.12 251.463 121.975 244.715C119.97 237.559 129.087 226.063 134.231 220.293C134.876 219.568 135.453 218.791 135.956 217.97C137.225 215.913 138.032 213.589 138.287 211.164C139.298 201.597 138.913 192.633 138.999 187.181C140.004 186.437 140.976 185.751 141.879 185.097C143.263 184.086 144.486 183.145 145.386 182.189C146.378 181.145 146.998 180.08 147.067 178.877C147.119 177.968 147.092 177.034 146.996 176.1C146.952 175.661 146.897 175.219 146.831 174.779C146.12 170.149 144.186 165.95 144.186 165.95C149.083 163.97 157.788 165.148 157.788 165.148C157.788 165.148 157.78 165.632 157.775 166.423C157.747 169.603 157.775 177.767 158.794 179.314C160.068 181.239 183.389 189.67 184.622 187.058C185.836 184.49 182.513 172.456 182.389 172C182.384 171.989 182.384 171.987 182.384 171.987C190.194 175.054 192.984 177.627 192.984 177.627C188.283 180.673 195.099 190.999 191.457 200.655Z" fill="#EBB044"/>
<path d="M184.06 155.736C184.06 155.736 182.659 160.018 181.63 164.121C173.935 161.973 171.598 153.885 170.895 149.549L184.06 155.736Z" fill="#ED985F"/>
<path d="M185.682 160.271C185.682 160.271 167.272 156.011 170.1 144.584C172.929 133.16 172.459 124.915 184.334 127.154C196.209 129.392 197.403 134.313 197.387 138.358C197.37 142.398 190.543 161.083 185.682 160.271Z" fill="#FFB27D"/>
<path d="M198.425 131.869C196.444 127.727 194.116 127.95 192.657 128.683C184.007 120.678 175.521 127.219 175.521 127.219C172.256 135.109 165.176 138.333 165.176 138.333C165.176 138.333 168.004 141.231 176.202 141.165C178.707 141.145 181.225 139.995 183.515 138.41C179.096 142.862 173.914 145.57 173.914 145.57C184.177 143.606 191.056 131.726 191.762 130.463C192.633 131.745 194.294 134.48 194.434 136.787C194.624 139.923 193.544 146.012 195.341 146.242C195.346 146.245 201.393 138.078 198.425 131.869Z" fill="#1A3151"/>
<path d="M192.992 177.62C192.992 177.62 197.424 185.353 198.089 187.344C198.089 187.344 192.341 187.122 190.02 191.546C190.02 191.543 189.463 178.66 192.992 177.62Z" fill="#EBB044"/>
<path d="M162.502 239.062C151.276 238.944 141.768 227.286 135.957 217.968C137.226 215.911 138.033 213.587 138.289 211.163C139.299 201.595 138.915 192.631 139 187.18C140.005 186.435 140.977 185.749 141.881 185.095C143.265 184.085 144.487 183.143 145.388 182.187C154.585 197.722 177.725 239.224 162.502 239.062Z" fill="#9B732A"/>
<path d="M140.655 437.713H111.418C111.418 437.713 110.718 433.255 112.245 429.875C113.708 426.631 115.999 425.157 115.452 421.232C117.309 423.144 120.338 425.286 124.564 424.717C125.083 425.558 127.907 430.051 129.637 431.295C131.548 432.668 140.067 432.179 140.655 437.713Z" fill="#1A3151"/>
<path d="M203.429 437.713H174.193C174.193 437.713 173.1 433.05 175.019 429.875C176.719 427.069 176.066 425.468 174.808 423.147C176.132 423.688 177.845 424.182 179.732 424.075C181.187 423.99 182.728 423.331 184.079 422.546C185.337 423.979 190.725 430.087 192.408 431.298C194.32 432.668 202.841 432.179 203.429 437.713Z" fill="#1A3151"/>
<path d="M228.722 221.95L200.273 258.953L202.586 260.573L231.383 223.567L228.722 221.95Z" fill="#247B7B"/>
<path d="M231.383 223.567H260.252L230.032 260.573H202.586L231.383 223.567Z" fill="#247B7B"/>
<path d="M228.723 221.95H257.399L259.019 223.567H231.384L228.723 221.95Z" fill="#CCDFED"/>
<path d="M229.483 222.414H257.921L258.382 221.95H228.723L229.483 222.414Z" fill="#247B7B"/>
<path d="M225.446 246.026C225.366 244.554 223.425 244.619 221.95 244.614C219.53 244.603 215.713 244.438 213.505 243.59C213.505 243.59 220.555 243.488 219.058 241.261C218.786 240.854 215.282 241.162 211.369 241.162C209.765 241.162 205.799 243.362 206.002 243.463C203.168 243.09 200.59 242.541 199.758 242.359C197.824 241.305 195.495 240.03 193.037 238.624C187.106 235.285 180.298 231.201 175.64 227.818C172.96 225.885 170.938 224.171 170.238 222.941C169.14 221.051 167.909 218.063 166.547 214.375C165.844 212.442 165.097 210.333 164.35 208.092C163.032 204.401 161.714 200.405 160.352 196.406C157.891 189.115 155.255 181.777 152.753 176.109C151.127 172.55 149.545 169.609 148.051 167.807C146.865 166.357 145.722 165.61 144.624 165.786C144.448 165.83 144.316 165.874 144.185 165.918C144.185 165.918 137.86 167.675 137.772 180.415C137.728 181.118 137.772 181.865 137.816 182.656C137.904 184.897 138.343 187.621 139.002 190.606C140.057 195.616 141.815 201.413 144.012 207.301C144.627 208.883 145.242 210.508 145.901 212.131C150.646 223.905 156.751 234.887 161.892 238.622C162.112 238.797 162.288 238.929 162.508 239.061C164.661 240.423 167.824 241.785 171.468 243.06C176.653 244.817 182.802 246.399 188.295 247.717H188.339C191.546 248.42 194.487 249.079 196.948 249.563C196.948 249.563 197.352 249.664 198.071 249.807C198.176 249.826 198.283 249.848 198.398 249.87C200.727 250.441 205.514 251.672 210.039 253.429C216.367 255.934 221.019 252.82 223.131 250.617C224.465 249.225 225.52 247.371 225.446 246.026Z" fill="#FFB27D"/>
<path d="M152.735 176.134C144.279 173.803 137.754 180.405 137.754 180.405C137.861 167.687 144.191 165.946 144.191 165.946C146.737 164.891 149.689 169.302 152.735 176.134Z" fill="#EBB044"/>
<path d="M353.916 331.798C350.462 328.692 353.304 321.36 351.989 319.913C351.772 319.677 351.277 319.309 350.643 318.836C349.775 322.428 348.193 326.094 345.889 329.555C338.049 341.344 324.801 346.323 316.301 340.669C308.035 335.171 307.307 321.64 314.494 310.054C314.695 309.73 314.903 309.408 315.117 309.084C317.405 305.646 320.151 302.79 323.106 300.604C323.115 300.596 323.123 300.59 323.131 300.585C322.755 300.368 322.458 300.206 322.258 300.134C320.412 299.481 314.749 304.935 310.548 302.949C306.349 300.964 310.185 292.947 318.484 292.008C323.546 291.434 328.887 294.049 332.284 296.18C333.795 295.817 335.297 295.633 336.761 295.641C336.816 295.641 336.87 295.639 336.925 295.641C335.989 292.513 336.401 289.009 338.351 286.079C339.01 285.088 339.801 284.233 340.682 283.522C340.677 283.514 340.674 283.506 340.668 283.498C339.691 281.68 339.724 279.397 340.946 277.56C342.712 274.907 346.296 274.185 348.951 275.951C350.874 277.228 351.783 279.461 351.467 281.603C352.384 281.913 353.277 282.347 354.122 282.91C354.872 283.41 355.542 283.981 356.133 284.61C357.975 283.536 360.345 283.53 362.24 284.791C364.896 286.56 365.615 290.141 363.85 292.799C362.691 294.54 360.749 295.449 358.802 295.37C358.489 296.517 357.989 297.638 357.294 298.681C355.454 301.45 352.612 303.15 349.569 303.622C350.327 305.174 350.854 306.89 351.151 308.719C354.455 310.957 359.42 315.055 360.939 320.256C363.281 328.267 357.371 334.902 353.916 331.798Z" fill="#EFCDAF"/>
<path d="M314.492 310.054C314.693 309.73 314.901 309.408 315.116 309.084C317.403 305.646 320.149 302.79 323.104 300.604C323.983 300.535 324.878 300.725 325.2 301.628C325.914 303.625 319.218 309.903 319.792 313.467C320.218 316.109 316.368 312.295 314.492 310.054Z" fill="#E2B99A"/>
<path d="M341.719 298.523C340.653 298.034 338.478 296.895 336.765 295.637C336.819 295.637 336.874 295.634 336.929 295.637C335.993 292.509 336.405 289.005 338.355 286.075C339.014 285.083 339.805 284.229 340.686 283.518C340.681 283.51 340.678 283.501 340.672 283.493C340.788 283.543 340.84 283.696 340.785 284.023C340.571 285.27 337.448 293.978 342.537 297.708C342.537 297.702 343.298 299.246 341.719 298.523Z" fill="#E2B99A"/>
<path d="M357.449 286.95C357.449 286.95 360.407 286.057 361.442 288.087C362.478 290.119 360.484 292.544 358.88 292.154C358.88 292.151 358.765 289.292 357.449 286.95Z" fill="#FFF3E9"/>
<path d="M349.118 280.88C349.118 280.88 347.923 277.653 345.748 277.831C343.573 278.013 344.073 281.508 344.073 281.508C344.073 281.508 347.031 280.473 349.118 280.88Z" fill="#FFF3E9"/>
<path d="M282.112 312.824C282.112 312.824 274.7 303.267 274.651 295.467C274.601 287.668 274.826 285.078 276.128 285.43C277.43 285.781 283.285 290.131 285.391 294.462C287.495 298.793 291.194 310.124 291.271 311.668C291.348 313.211 282.112 312.824 282.112 312.824Z" fill="#AFCDFB"/>
<path d="M282.516 309.773C282.516 309.773 277.782 303.171 277.6 297.898C277.422 292.625 277.513 290.879 278.317 291.142C279.125 291.406 282.805 294.457 284.18 297.423C285.556 300.392 288.044 308.122 288.121 309.166C288.195 310.209 282.516 309.773 282.516 309.773Z" fill="#E57970"/>
<path d="M294.072 308.837C294.072 308.837 290.518 295.893 291.922 292.37C293.325 288.847 300.605 291.2 301.429 293.683C302.256 296.168 301.745 306.656 301.745 306.656L294.072 308.837Z" fill="#AFCDFB"/>
<path d="M295.017 293.956C295.017 293.956 294.504 304.213 296.297 308.206L299.746 307.226C299.746 307.226 300.282 295.771 299.82 295C299.362 294.225 295.017 293.956 295.017 293.956Z" fill="#E57970"/>
<path d="M291.723 293.103C291.723 293.103 303.675 301.013 304.639 300.178C305.603 299.343 301.97 291.313 300.558 290.593C299.152 289.877 291.638 288.394 291.723 293.103Z" fill="#AFCDFB"/>
<path d="M269.741 437.676H432.676V303.327H269.741V437.676Z" fill="#D3671E"/>
<path d="M514.142 303.326H351.207V437.674H514.142V303.326Z" fill="#F1A34F"/>
<path opacity="0.4" d="M514.139 303.326V395.478L351.207 437.674V303.326H514.139Z" fill="#D86713"/>
<path d="M351.207 303.326L383.448 338.675H544.224L514.142 303.326H351.207Z" fill="#F1A34F"/>
<path d="M269.836 403.603H295.653L293.379 396.336L295.653 391.146H269.836V403.603Z" fill="#F1A34F"/>
<path opacity="0.4" d="M514.177 426.644H488.359L490.633 419.378L488.359 414.187H514.177V426.644Z" fill="#D86713"/>
<path d="M351.207 318.515L316.863 352.857H269.836V303.326H351.207V318.515Z" fill="#C95C12"/>
<path d="M269.742 303.326L233.109 338.675H314.629L351.209 303.326H269.742Z" fill="#F1A34F"/>
<path d="M362.598 382V355.532H370.74C372.523 355.532 374.154 355.836 375.64 356.449C377.125 357.061 378.397 357.921 379.457 359.03C380.517 360.14 381.343 361.469 381.939 363.021C382.533 364.572 382.829 366.294 382.829 368.184V369.384C382.829 371.273 382.535 372.992 381.948 374.538C381.36 376.084 380.531 377.411 379.457 378.52C378.383 379.63 377.103 380.487 375.612 381.094C374.121 381.701 372.479 382.003 370.685 382.003H362.598V382ZM368.052 359.95V377.62H370.688C372.844 377.62 374.486 376.908 375.615 375.483C376.741 374.061 377.307 372.026 377.307 369.384V368.148C377.307 365.457 376.749 363.419 375.634 362.032C374.519 360.645 372.888 359.95 370.743 359.95H368.052Z" fill="#F1A34F"/>
<path d="M408.533 369.364C408.533 371.388 408.261 373.203 407.715 374.807C407.168 376.414 406.402 377.773 405.416 378.888C404.428 380.003 403.244 380.86 401.863 381.461C400.481 382.063 398.96 382.362 397.301 382.362C395.642 382.362 394.121 382.063 392.737 381.461C391.356 380.863 390.164 380.003 389.164 378.888C388.164 377.773 387.385 376.414 386.827 374.807C386.27 373.201 385.992 371.388 385.992 369.364V368.2C385.992 366.187 386.267 364.377 386.819 362.765C387.371 361.153 388.142 359.783 389.137 358.657C390.131 357.531 391.317 356.666 392.699 356.067C394.08 355.468 395.601 355.166 397.26 355.166C398.919 355.166 400.44 355.465 401.822 356.067C403.203 356.668 404.389 357.531 405.383 358.657C406.378 359.783 407.149 361.153 407.701 362.765C408.253 364.377 408.528 366.19 408.528 368.2V369.364H408.533ZM403.005 368.167C403.005 365.39 402.508 363.284 401.514 361.84C400.52 360.398 399.103 359.675 397.26 359.675C395.417 359.675 394 360.398 393.006 361.84C392.012 363.281 391.515 365.39 391.515 368.167V369.367C391.515 370.748 391.644 371.97 391.905 373.03C392.166 374.091 392.542 374.98 393.031 375.703C393.522 376.425 394.124 376.969 394.841 377.339C395.555 377.71 396.373 377.894 397.296 377.894C399.138 377.894 400.55 377.166 401.53 375.714C402.511 374.261 403.002 372.146 403.002 369.37V368.167H403.005Z" fill="#F1A34F"/>
<path d="M434.017 382H428.563L417.946 364.586V382H412.492V355.532H417.946L428.58 372.981V355.532H434.014V382H434.017Z" fill="#F1A34F"/>
<path d="M454.052 376.546H444.489L442.671 382H436.871L446.725 355.532H451.778L461.686 382H455.886L454.052 376.546ZM445.964 372.13H452.58L449.254 362.221L445.964 372.13Z" fill="#F1A34F"/>
<path d="M481.902 359.951H473.795V382.001H468.341V359.951H460.344V355.535H481.902V359.951Z" fill="#F1A34F"/>
<path d="M500.934 370.529H490.463V377.62H502.752V382H485.012V355.532H502.717V359.948H490.466V366.256H500.937V370.529H500.934Z" fill="#F1A34F"/>
<path d="M229.509 402.287L226.543 402.864C223.023 403.547 219.584 401.227 218.901 397.706L214.537 375.242C213.916 372.031 215.784 368.895 218.783 367.846C218.758 367.769 218.733 367.692 218.717 367.607L218.461 366.286C218.283 365.372 218.887 364.477 219.804 364.298L221.125 364.04C222.042 363.861 222.938 364.466 223.116 365.38L223.372 366.704C223.385 366.764 223.393 366.827 223.396 366.888C223.396 366.899 223.399 366.91 223.399 366.921C226.651 366.665 229.671 368.904 230.309 372.174L234.67 394.641C235.353 398.159 233.03 401.603 229.509 402.287Z" fill="#CADDFF"/>
<path d="M230.55 373.485L214.781 376.546L217.779 391.986L233.548 388.925L230.55 373.485Z" fill="#2B478B"/>
<path d="M223.396 366.887L218.782 367.843C218.758 367.766 218.733 367.689 218.716 367.604L218.461 366.283C218.282 365.368 218.887 364.473 219.804 364.295L221.125 364.036C222.042 363.858 222.937 364.462 223.116 365.377L223.371 366.7C223.382 366.763 223.39 366.827 223.396 366.887Z" fill="#4A75CB"/>
<path d="M309.461 361.217C309.461 361.217 307.508 363.966 305.718 364.004C303.927 364.043 301.203 362.73 301.203 362.73C301.203 362.73 299.558 359.064 300.673 357.63C300.673 357.63 301.79 357.139 302.96 358.007C303.161 358.158 303.364 358.344 303.567 358.586C303.85 358.927 304.169 359.122 304.507 359.223C305.784 359.613 307.302 358.696 307.868 359.58C308.2 360.094 308.56 360.478 308.857 360.75C309.205 361.063 309.461 361.217 309.461 361.217Z" fill="#F9DDBF"/>
<path d="M283.992 381.052C283.992 381.052 290.896 364.322 303.326 364.004C303.326 364.004 314.8 365.278 315.437 381.052H283.992Z" fill="#F9DDBF"/>
<path d="M299.919 364.516C299.919 364.516 304.9 365.622 306.438 364.971C306.438 364.971 306.672 362.89 304.574 363.181C303.137 363.381 302.204 362.689 301.652 362.412C300.872 362.016 299.713 363.645 299.919 364.516Z" fill="#F1A34F"/>
<path d="M304.257 361.377C303.939 361.616 302.961 358.008 302.961 358.008C303.161 358.159 303.365 358.345 303.568 358.587C303.851 358.928 304.169 359.123 304.507 359.224C304.51 359.331 304.567 361.144 304.257 361.377Z" fill="#E5C1A1"/>
<path d="M308.857 360.75C308.788 360.791 306.481 362.173 306.171 362.173C305.852 362.173 307.871 359.583 307.871 359.583C308.198 360.094 308.56 360.481 308.857 360.75Z" fill="#E5C1A1"/>
<path d="M290.737 376.38C290.61 376.27 295.622 368.998 297.004 368.943C298.385 368.891 301.488 370.536 303.735 370.75C305.981 370.961 308.159 370.324 308.585 371.653C309.01 372.983 310.177 377.69 309.461 378.442C308.744 379.195 293.494 378.736 290.737 376.38Z" fill="#E5C1A1"/>
<path d="M232.544 387.691C232.355 388.064 232.08 388.366 231.753 388.583C231.569 388.704 231.375 388.8 231.166 388.869C230.586 389.058 229.938 389.025 229.359 388.732L198.398 373.004C197.236 372.413 196.766 370.98 197.357 369.815C197.653 369.233 198.159 368.827 198.735 368.637C199.315 368.448 199.963 368.481 200.542 368.775L231.504 384.502C232.668 385.096 233.135 386.529 232.544 387.691Z" fill="#E57970"/>
<path d="M208.66 378.219L206.707 371.908L201.723 369.376L204.727 376.222L208.66 378.219Z" fill="#B64C41"/>
<path d="M216.225 382.059L212.292 380.06L209.285 373.216L214.272 375.748L216.225 382.059Z" fill="#B64C41"/>
<path d="M223.78 385.897L219.844 383.9L216.84 377.054L221.827 379.589L223.78 385.897Z" fill="#B64C41"/>
<path d="M231.752 388.582C231.568 388.703 231.373 388.799 231.165 388.868C230.585 389.057 229.937 389.024 229.358 388.73L227.54 387.808L224.535 380.964L229.522 383.496L231.752 388.582Z" fill="#B64C41"/>
<path d="M197.355 369.815C197.355 369.815 196.729 366.451 193.996 365.449C193.996 365.449 194.318 365.836 193.002 366.256C191.687 366.676 192.068 367.582 191.602 367.994C191.602 367.994 193.499 370.515 197.355 369.815Z" fill="#B64C41"/>
<path d="M196.823 370.26L196.749 370.224C196.54 370.117 196.455 369.859 196.562 369.65L196.946 368.892C197.054 368.683 197.312 368.598 197.52 368.705L197.592 368.741C197.801 368.848 197.886 369.106 197.779 369.315L197.394 370.073C197.292 370.282 197.032 370.367 196.823 370.26Z" fill="#4A75CB"/>
<path d="M232.414 387.628C232.414 387.628 235.501 386.148 237.92 387.765C237.92 387.765 237.418 387.735 237.854 389.045C238.291 390.355 237.333 390.58 237.278 391.201C237.28 391.201 234.125 391.154 232.414 387.628Z" fill="#B64C41"/>
<path d="M232.369 388.315L232.444 388.351C232.652 388.458 232.91 388.373 233.017 388.164L233.402 387.406C233.509 387.197 233.424 386.937 233.215 386.832L233.144 386.796C232.935 386.689 232.674 386.774 232.57 386.983L232.185 387.741C232.076 387.95 232.158 388.208 232.369 388.315Z" fill="#4A75CB"/>
<path d="M272.625 387.935C272.263 388.143 271.867 388.248 271.475 388.253C271.255 388.256 271.038 388.228 270.827 388.171C270.239 388.014 269.712 387.635 269.385 387.07L251.993 357.012C251.339 355.883 251.729 354.425 252.858 353.774C253.424 353.447 254.069 353.381 254.657 353.538C255.244 353.694 255.772 354.073 256.098 354.639L273.49 384.697C274.141 385.825 273.754 387.281 272.625 387.935Z" fill="#F1A34F"/>
<path d="M257.759 366.978L259.56 360.626L256.759 355.784L255.551 363.161L257.759 366.978Z" fill="#F9DDBF"/>
<path d="M262.005 374.319L259.797 370.501L261.005 363.125L263.806 367.967L262.005 374.319Z" fill="#F9DDBF"/>
<path d="M266.251 381.653L264.043 377.836L265.251 370.457L268.052 375.299L266.251 381.653Z" fill="#F9DDBF"/>
<path d="M271.475 388.255C271.255 388.258 271.038 388.231 270.827 388.173C270.239 388.016 269.712 387.637 269.385 387.072L268.363 385.309L269.572 377.932L272.373 382.774L271.475 388.255Z" fill="#F9DDBF"/>
<path d="M252.856 353.772C252.856 353.772 254.166 350.608 252.417 348.279C252.417 348.279 252.474 348.779 251.142 348.414C249.81 348.049 249.637 349.018 249.02 349.106C249.022 349.111 249.242 352.259 252.856 353.772Z" fill="#F1A34F"/>
<path d="M252.169 353.856L252.127 353.785C252.009 353.582 252.081 353.318 252.284 353.2L253.02 352.774C253.223 352.656 253.487 352.728 253.605 352.931L253.646 353.002C253.764 353.205 253.693 353.469 253.49 353.587L252.754 354.013C252.55 354.128 252.287 354.06 252.169 353.856Z" fill="#D3671E"/>
<path d="M272.549 387.808C272.549 387.808 275.943 388.248 277.091 390.925C277.091 390.925 276.685 390.626 276.339 391.961C275.993 393.298 275.065 392.966 274.68 393.455C274.68 393.457 272.06 391.7 272.549 387.808Z" fill="#F1A34F"/>
<path d="M272.135 388.365L272.176 388.437C272.294 388.64 272.558 388.711 272.761 388.593L273.497 388.168C273.701 388.05 273.772 387.786 273.654 387.583L273.613 387.511C273.495 387.308 273.234 387.237 273.028 387.355L272.292 387.781C272.089 387.899 272.017 388.162 272.135 388.365Z" fill="#D3671E"/>
<path d="M216.338 396.363C215.967 396.168 215.67 395.888 215.459 395.559C215.341 395.372 215.247 395.174 215.184 394.966C215.006 394.383 215.047 393.738 215.352 393.161L231.576 362.458C232.186 361.305 233.625 360.86 234.781 361.47C235.358 361.774 235.756 362.285 235.937 362.867C236.116 363.45 236.075 364.098 235.77 364.674L219.545 395.377C218.933 396.528 217.491 396.973 216.338 396.363Z" fill="#4A75CB"/>
<path d="M226.195 372.638L232.534 370.787L235.148 365.844L228.255 368.739L226.195 372.638Z" fill="#699FF0"/>
<path d="M222.234 380.136L224.294 376.239L231.187 373.342L228.573 378.288L222.234 380.136Z" fill="#699FF0"/>
<path d="M218.273 387.632L220.336 383.729L227.226 380.835L224.615 385.781L218.273 387.632Z" fill="#699FF0"/>
<path d="M215.459 395.558C215.341 395.371 215.247 395.173 215.184 394.964C215.006 394.382 215.047 393.737 215.352 393.16L216.305 391.359L223.198 388.464L220.586 393.407L215.459 395.558Z" fill="#699FF0"/>
<path d="M234.778 361.47C234.778 361.47 238.153 360.899 239.197 358.18C239.197 358.18 238.804 358.496 238.406 357.172C238.008 355.848 237.093 356.219 236.692 355.744C236.692 355.744 234.141 357.601 234.778 361.47Z" fill="#699FF0"/>
<path d="M234.346 360.932L234.385 360.861C234.495 360.652 234.755 360.573 234.961 360.683L235.714 361.081C235.923 361.191 236.002 361.451 235.892 361.657L235.854 361.729C235.744 361.938 235.483 362.017 235.277 361.907L234.525 361.509C234.316 361.399 234.236 361.141 234.346 360.932Z" fill="#4A75CB"/>
<path d="M216.406 396.238C216.406 396.238 217.837 399.35 216.178 401.742C216.178 401.742 216.217 401.239 214.901 401.654C213.586 402.071 213.375 401.107 212.754 401.042C212.754 401.044 212.853 397.892 216.406 396.238Z" fill="#4A75CB"/>
<path d="M215.717 396.179L215.678 396.251C215.568 396.46 215.648 396.718 215.857 396.828L216.609 397.226C216.818 397.336 217.076 397.256 217.186 397.047L217.224 396.976C217.334 396.767 217.255 396.509 217.046 396.399L216.293 396.001C216.087 395.891 215.827 395.971 215.717 396.179Z" fill="#4A75CB"/>
<path d="M248.758 368.459C248.758 368.459 250.175 370.456 251.477 370.483C252.776 370.51 254.753 369.558 254.753 369.558C254.753 369.558 255.947 366.899 255.137 365.858C255.137 365.858 254.324 365.501 253.476 366.13C253.33 366.24 253.182 366.375 253.036 366.55C252.83 366.798 252.6 366.94 252.355 367.012C251.427 367.295 250.326 366.63 249.917 367.27C249.675 367.643 249.414 367.921 249.2 368.119C248.945 368.349 248.758 368.459 248.758 368.459Z" fill="#B64C41"/>
<path d="M267.24 382.858C267.24 382.858 262.229 370.717 253.21 370.484C253.21 370.484 244.883 371.409 244.422 382.858H267.24Z" fill="#B64C41"/>
<path d="M255.679 370.854C255.679 370.854 252.062 371.659 250.947 371.186C250.947 371.186 250.779 369.673 252.301 369.887C253.342 370.033 254.023 369.533 254.421 369.327C254.987 369.039 255.83 370.222 255.679 370.854Z" fill="#963333"/>
<path d="M252.537 368.574C252.767 368.747 253.478 366.13 253.478 366.13C253.333 366.24 253.185 366.374 253.039 366.55C252.833 366.797 252.602 366.94 252.358 367.011C252.352 367.091 252.311 368.407 252.537 368.574Z" fill="#963333"/>
<path d="M249.195 368.12C249.245 368.151 250.917 369.153 251.145 369.153C251.376 369.153 249.912 367.272 249.912 367.272C249.673 367.645 249.412 367.925 249.195 368.12Z" fill="#963333"/>
<path d="M262.343 379.462C262.436 379.383 258.797 374.104 257.795 374.066C256.792 374.028 254.541 375.222 252.909 375.376C251.278 375.53 249.699 375.068 249.391 376.032C249.084 376.996 248.235 380.413 248.754 380.959C249.276 381.506 260.341 381.173 262.343 379.462Z" fill="#963333"/>
<path d="M284.684 369.104C283.193 369.123 282.446 366.868 282.446 366.868L267.913 371.268C268.564 372.861 267.512 374.088 267.512 374.088C267.512 374.088 264.999 375.766 265.779 378.348L268.995 388.97C269.566 390.854 271.571 391.928 273.455 391.357L288.784 386.715C290.665 386.147 291.739 384.139 291.171 382.258L287.955 371.633C287.502 370.15 286.156 369.172 284.684 369.104Z" fill="#CADDFF"/>
<path d="M266.461 370.797L267.334 373.681C267.65 374.722 271.629 374.442 276.224 373.049C280.818 371.66 284.287 369.685 283.971 368.644L283.098 365.761L266.461 370.797Z" fill="#963333"/>
<path d="M283.098 365.761C283.414 366.802 279.945 368.776 275.351 370.166C270.756 371.555 266.777 371.838 266.461 370.797C266.146 369.757 269.614 367.782 274.209 366.392C278.803 365 282.782 364.717 283.098 365.761Z" fill="#B64C41"/>
<path d="M245.695 374.88C244.654 374.374 244.915 372.551 244.915 372.551L233.298 370.562C233.199 371.894 232.04 372.38 232.04 372.38C232.04 372.38 229.711 372.674 229.36 374.737L227.907 383.228C227.649 384.733 228.671 386.175 230.175 386.433L242.429 388.528C243.934 388.786 245.376 387.765 245.634 386.26L247.087 377.769C247.29 376.582 246.694 375.437 245.695 374.88Z" fill="#B7D2F9"/>
<path d="M232.455 369.732L232.06 372.036C231.917 372.868 234.779 374.055 238.45 374.681C242.122 375.31 245.214 375.142 245.357 374.31L245.753 372.006L232.455 369.732Z" fill="#C95C12"/>
<path d="M245.752 372.008C245.609 372.842 242.517 373.007 238.845 372.378C235.173 371.749 232.312 370.566 232.454 369.734C232.597 368.902 235.689 368.734 239.361 369.363C243.033 369.989 245.894 371.175 245.752 372.008Z" fill="#F1A34F"/>
<path d="M208.673 437.672H280.652V378.323H208.673V437.672Z" fill="#D3671E"/>
<path d="M244.662 437.672H316.641V378.323H244.662V437.672Z" fill="#F1A34F"/>
<path opacity="0.4" d="M244.664 378.322H316.827V418.983L244.664 437.671V378.322Z" fill="#D86713"/>
<path d="M244.664 378.322L258.906 393.937H329.932L316.64 378.322H244.664Z" fill="#F1A34F"/>
<path d="M208.719 422.619H220.124L219.119 419.412L220.124 417.118H208.719V422.619Z" fill="#F1A34F"/>
<path d="M244.667 385.031L229.494 400.204H208.719V378.322H244.667V385.031Z" fill="#C95C12"/>
<path d="M208.676 378.322L192.492 393.937H228.504L244.665 378.322H208.676Z" fill="#F1A34F"/>
<path d="M249.695 413.08V401.387H253.293C254.081 401.387 254.801 401.521 255.457 401.793C256.113 402.065 256.676 402.444 257.143 402.933C257.613 403.422 257.978 404.009 258.239 404.696C258.503 405.382 258.632 406.14 258.632 406.975V407.505C258.632 408.34 258.503 409.098 258.242 409.782C257.981 410.466 257.615 411.051 257.14 411.54C256.668 412.031 256.1 412.407 255.443 412.677C254.784 412.943 254.059 413.077 253.268 413.077H249.695V413.08ZM252.104 403.339V411.144H253.268C254.221 411.144 254.946 410.828 255.443 410.199C255.94 409.571 256.19 408.672 256.19 407.505V406.959C256.19 405.77 255.943 404.869 255.451 404.257C254.96 403.644 254.238 403.337 253.29 403.337H252.104V403.339Z" fill="#F1A34F"/>
<path d="M269.987 407.502C269.987 408.397 269.866 409.196 269.624 409.908C269.383 410.616 269.045 411.217 268.608 411.712C268.172 412.206 267.65 412.582 267.037 412.849C266.428 413.115 265.755 413.247 265.022 413.247C264.288 413.247 263.616 413.115 263.006 412.849C262.396 412.585 261.869 412.206 261.427 411.712C260.985 411.22 260.641 410.619 260.394 409.908C260.147 409.199 260.023 408.397 260.023 407.502V406.988C260.023 406.098 260.144 405.299 260.389 404.588C260.633 403.877 260.974 403.27 261.413 402.773C261.852 402.276 262.377 401.894 262.987 401.628C263.596 401.364 264.269 401.229 265.002 401.229C265.736 401.229 266.408 401.361 267.018 401.628C267.628 401.891 268.152 402.273 268.592 402.773C269.031 403.27 269.372 403.877 269.616 404.588C269.86 405.299 269.981 406.101 269.981 406.988V407.502H269.987ZM267.545 406.972C267.545 405.747 267.326 404.813 266.886 404.176C266.447 403.539 265.821 403.22 265.008 403.22C264.195 403.22 263.569 403.539 263.129 404.176C262.69 404.813 262.47 405.744 262.47 406.972V407.502C262.47 408.111 262.528 408.652 262.643 409.119C262.759 409.589 262.923 409.982 263.14 410.3C263.357 410.619 263.624 410.86 263.94 411.022C264.255 411.184 264.615 411.267 265.024 411.267C265.837 411.267 266.461 410.946 266.895 410.303C267.328 409.66 267.545 408.727 267.545 407.499V406.972Z" fill="#F1A34F"/>
<path d="M281.246 413.08H278.837L274.147 405.388V413.08H271.738V401.387H274.147L278.846 409.095V401.387H281.246V413.08Z" fill="#F1A34F"/>
<path d="M290.096 410.672H285.872L285.07 413.08H282.508L286.861 401.387H289.093L293.471 413.08H290.909L290.096 410.672ZM286.523 408.719H289.445L287.976 404.342L286.523 408.719Z" fill="#F1A34F"/>
<path d="M302.399 403.339H298.818V413.08H296.409V403.339H292.875V401.387H302.399V403.339Z" fill="#F1A34F"/>
<path d="M310.807 408.016H306.182V411.149H311.611V413.085H303.773V401.392H311.595V403.345H306.182V406.132H310.807V408.016Z" fill="#F1A34F"/>
</svg>
