<svg width="1440" height="637" viewBox="0 0 1440 637" fill="none" xmlns="http://www.w3.org/2000/svg">
<path d="M-126 633.016C-126 633.016 -109.024 598.906 -68.4297 602.679C-68.4297 602.679 -9.52322 545.816 53.3129 595.095C53.3129 595.095 120.118 582.873 169.554 605.666C202.524 620.874 213.41 636.789 213.41 636.789L-126 633.016Z" fill="#D9E3F6"/>
<path d="M1101 33.802C1101 33.802 1110.7 13.9286 1133.91 16.1266C1133.91 16.1266 1167.58 -17.0035 1203.49 11.7077C1203.49 11.7077 1241.68 4.58713 1269.93 17.8666C1288.78 26.7273 1295 36 1295 36L1101 33.802Z" fill="#D9E3F6"/>
<path d="M1289 392.016C1289 392.016 1305.98 357.906 1346.57 361.679C1346.57 361.679 1405.48 304.816 1468.31 354.095C1468.31 354.095 1535.12 341.873 1584.55 364.666C1617.52 379.874 1628.41 395.789 1628.41 395.789L1289 392.016Z" fill="#D9E3F6"/>
<path d="M497 518.802C497 518.802 507.053 498.929 531.093 501.127C531.093 501.127 565.978 467.997 603.19 496.708C603.19 496.708 642.752 489.587 672.028 502.867C691.554 511.727 698 521 698 521L497 518.802Z" fill="#D9E3F6"/>
<path d="M345 82.9328C345 82.9328 358.792 55.3275 391.811 58.3947C391.811 58.3947 439.758 12.386 490.788 52.2603C490.788 52.2603 545.063 42.4127 585.303 60.8162C612.157 73.0853 621 86 621 86L345 82.9328Z" fill="#D9E3F6"/>
<path d="M102 355.546C102 355.546 113.093 333.462 139.653 335.916C139.653 335.916 178.219 299.109 219.265 331.008C219.265 331.008 262.921 323.13 295.287 337.853C316.887 347.668 324 358 324 358L102 355.546Z" fill="#D9E3F6"/>
</svg>
