<svg width="387" height="555" viewBox="0 0 387 555" fill="none" xmlns="http://www.w3.org/2000/svg">
<path d="M387.001 343.822H150.948V556.133H387.001V343.822Z" fill="#D3DFFF"/>
<path d="M146.212 480.432L156.656 555.484H63.4409L106.448 520.131L105.929 482.638L146.212 480.432Z" fill="#102048"/>
<path d="M83.4193 267.991C83.4193 267.991 -15.6986 267.991 98.6632 502.423H142.514L83.4193 267.991Z" fill="#1F3C88"/>
<path d="M178.123 480.432L188.631 555.484H95.3516L138.424 520.131L137.84 482.638L178.123 480.432Z" fill="#1F3C88"/>
<path d="M293.656 248.985C293.656 248.985 342.956 381.77 158.731 343.692L192.008 503.007L123.703 502.423C123.703 502.423 14.1413 310.61 83.42 268.056L293.656 248.985Z" fill="#3A6BEA"/>
<path d="M134.729 482.573C120.913 482.573 111.961 482.379 111.766 482.379C111.053 482.379 110.469 481.73 110.469 481.017C110.469 480.303 111.117 479.719 111.831 479.719C112.22 479.719 148.157 480.563 187.921 478.876C188.634 478.811 189.283 479.395 189.283 480.108C189.283 480.822 188.764 481.471 188.051 481.471C167.877 482.379 148.741 482.573 134.729 482.573Z" fill="white"/>
<path d="M147.962 460.777C127.204 460.777 105.409 459.739 103.852 459.609C103.138 459.544 102.554 458.96 102.619 458.247C102.684 457.533 103.268 456.95 103.981 457.015C104.176 457.015 121.69 457.923 140.243 458.117C171.055 458.506 180.979 456.82 183.834 455.393C184.482 455.068 185.261 455.328 185.585 455.977C185.909 456.625 185.65 457.404 185.001 457.728C180.266 460.063 164.438 460.777 147.962 460.777Z" fill="white"/>
<path d="M153.474 535.181C153.15 535.181 152.826 535.051 152.566 534.857L137.517 521.105C136.998 520.586 136.933 519.807 137.452 519.223C137.971 518.704 138.749 518.64 139.333 519.159L154.382 532.911C154.901 533.429 154.966 534.208 154.447 534.792C154.188 535.051 153.864 535.181 153.474 535.181Z" fill="white"/>
<path d="M200.96 94.6002C200.96 94.6002 119.551 80.1347 104.177 259.105L301.959 249.569C301.959 249.569 332.447 126.969 237.156 95.8327L200.96 94.6002Z" fill="#FBC343"/>
<path d="M173.652 262.411H81.54V277.266H173.652V262.411Z" fill="#E5ECFF"/>
<path d="M180.591 239.451C180.591 239.451 134.21 230.888 118.318 238.997C104.501 246.067 107.679 253.138 112.934 251.841L112.544 253.722C111.766 257.419 114.62 260.857 118.382 260.793C121.172 260.728 123.961 261.117 126.621 261.83C139.529 265.268 179.877 275.517 189.477 273.117L196.613 262.933L180.591 239.451Z" fill="#E28B6D"/>
<path d="M189.477 273.117C189.477 273.117 277.113 296.599 301.892 249.635L260.572 220.445C260.572 220.445 230.732 241.397 180.525 239.516L189.477 273.117Z" fill="#FBC343"/>
<path d="M137.779 277.202H31.4608L0 171.922H106.383L137.779 277.202Z" fill="#102048"/>
<path d="M180.595 241.203C179.751 241.203 178.973 240.555 178.843 239.711C178.713 238.738 179.362 237.895 180.335 237.7C181.113 237.571 256.555 226.284 274.263 220.056C275.172 219.732 276.145 220.186 276.469 221.094C276.793 222.002 276.339 222.975 275.431 223.3C257.398 229.722 183.968 240.684 180.854 241.138C180.789 241.203 180.724 241.203 180.595 241.203Z" fill="#E49B31"/>
<path d="M144.136 235.949C143.228 235.949 142.449 235.236 142.385 234.328C142.385 234.133 140.893 215.711 141.217 192.099C141.541 170.239 143.552 139.426 151.207 116.333C151.531 115.425 152.504 114.906 153.412 115.231C154.32 115.555 154.839 116.528 154.515 117.436C140.114 160.833 145.758 233.29 145.823 234.068C145.887 235.041 145.174 235.885 144.201 235.949C144.266 235.949 144.201 235.949 144.136 235.949Z" fill="#E49B31"/>
<path d="M202.063 124.959C195.706 124.959 191.23 122.948 191.165 122.948C190.257 122.559 189.868 121.521 190.322 120.613C190.711 119.705 191.749 119.38 192.657 119.77C193.241 120.029 207.123 126.062 219.642 114.385C220.356 113.737 221.459 113.737 222.107 114.45C222.756 115.164 222.756 116.267 222.042 116.915C215.101 123.272 207.836 124.959 202.063 124.959Z" fill="#E49B31"/>
<path d="M256.81 227.516C256.745 227.516 256.68 227.516 256.55 227.516C255.577 227.387 254.929 226.543 255.059 225.57C260.183 186.39 239.685 148.248 239.49 147.859C239.036 147.015 239.36 145.978 240.204 145.459C241.047 145.005 242.085 145.329 242.604 146.172C242.798 146.561 263.816 185.677 258.561 226.024C258.432 226.868 257.653 227.516 256.81 227.516Z" fill="#E49B31"/>
<path d="M220.935 91.6826C220.935 98.5586 216.459 104.916 209.519 106.927C200.956 109.456 192.069 104.526 189.604 96.0936C189.474 95.8342 189.41 95.5098 189.345 95.2503L184.869 75.6603L184.609 74.5575L202.967 56.4595L214.773 62.3624L220.481 88.2447C220.806 89.3474 220.935 90.515 220.935 91.6826Z" fill="#E28B6D"/>
<path d="M200.83 75.5915C200.83 75.5915 199.533 84.4784 189.608 96.0897C189.478 95.8302 189.413 95.5059 189.349 95.2464L184.873 75.6564H200.83V75.5915Z" fill="#102048"/>
<path d="M155.163 30.6408C155.163 30.6408 152.114 109.65 200.765 75.5941L212.312 54.1878L194.408 24.9324L155.163 30.6408Z" fill="#E28B6D"/>
<path d="M155.939 32.7158C155.939 32.7158 160.675 41.6027 191.227 39.008C191.227 39.008 194.276 70.6634 213.217 76.761L227.748 73.8419C234.429 7.48228 207.639 -9.44818 175.075 4.56324C139.268 -9.38331 124.414 28.8238 155.745 46.1434C155.745 41.1486 155.485 37.7106 155.939 32.7158Z" fill="#102048"/>
<path d="M213.282 76.7633C213.282 76.7633 204.849 136.701 227.552 132.679C250.256 128.593 255.186 95.4452 227.812 73.8443L213.282 76.7633Z" fill="#102048"/>
<path d="M221.061 79.3312C227.808 77.3875 232.852 74.3329 232.326 72.5084C231.8 70.6839 225.905 70.7804 219.157 72.7241C212.41 74.6677 207.366 77.7224 207.892 79.5469C208.418 81.3714 214.313 81.2748 221.061 79.3312Z" fill="#FBC343"/>
<path d="M161.513 53.6025C162.588 53.6025 163.459 52.7312 163.459 51.6565C163.459 50.5817 162.588 49.7104 161.513 49.7104C160.439 49.7104 159.567 50.5817 159.567 51.6565C159.567 52.7312 160.439 53.6025 161.513 53.6025Z" fill="#102048"/>
<path d="M173.642 51.7881C174.86 51.7881 175.848 50.8006 175.848 49.5826C175.848 48.3645 174.86 47.3771 173.642 47.3771C172.424 47.3771 171.437 48.3645 171.437 49.5826C171.437 50.8006 172.424 51.7881 173.642 51.7881Z" fill="#102048"/>
<path d="M166.379 63.4649C165.924 63.4649 165.6 63.4 165.276 63.4C164.238 63.2703 163.395 62.7514 162.876 62.0378C162.422 61.3892 162.292 60.6756 162.486 59.8972C162.941 57.6917 165.925 55.7456 166.508 55.4213C166.898 55.1618 167.481 55.2916 167.741 55.6808C168 56.07 167.871 56.6538 167.481 56.9133C166.119 57.7565 164.498 59.1836 164.238 60.2864C164.173 60.6107 164.238 60.8702 164.368 61.0648C164.562 61.3892 165.016 61.6486 165.6 61.7135C166.379 61.8432 167.157 61.7783 167.611 61.5837C168.065 61.3891 168.584 61.5838 168.779 62.0378C168.973 62.4919 168.779 63.0108 168.325 63.2054C167.676 63.4 166.962 63.4649 166.379 63.4649Z" fill="#102048"/>
<path d="M168.975 70.8572C168.067 70.8572 167.094 70.7274 166.056 70.3382C165.602 70.2085 165.342 69.6896 165.537 69.2355C165.667 68.7814 166.186 68.5219 166.64 68.7165C171.57 70.4679 175.073 66.1867 175.202 65.9921C175.527 65.6029 176.046 65.5381 176.435 65.8624C176.824 66.1867 176.889 66.7056 176.565 67.0948C176.565 67.0948 173.581 70.8572 168.975 70.8572Z" fill="#102048"/>
<path d="M169.944 44.3925C171.112 45.8844 172.409 45.1709 175.912 45.0412C176.756 45.0412 181.167 45.1709 180.907 44.133C180.777 43.3546 178.118 41.9924 175.134 41.8626C173.512 41.7978 172.15 41.9924 170.723 42.5113C170.399 42.641 170.074 42.7708 169.815 43.0302C169.49 43.4194 169.555 43.8735 169.944 44.3925Z" fill="#102048"/>
<path d="M164.498 44.6508C164.044 46.2077 162.812 45.8833 160.022 46.6618C159.374 46.8564 156.001 48.024 155.806 47.051C155.676 46.3374 157.298 44.5211 159.568 43.6778C160.801 43.2237 161.968 43.094 163.201 43.1589C163.525 43.1589 163.785 43.2237 164.044 43.3535C164.498 43.6778 164.628 44.1319 164.498 44.6508Z" fill="#102048"/>
<path opacity="0.4" d="M186.357 63.3339C189.295 63.3339 191.676 60.9524 191.676 58.0147C191.676 55.077 189.295 52.6955 186.357 52.6955C183.42 52.6955 181.038 55.077 181.038 58.0147C181.038 60.9524 183.42 63.3339 186.357 63.3339Z" fill="#EB5D60"/>
</svg>
