<svg width="24" height="24" viewBox="0 0 24 24" fill="none" xmlns="http://www.w3.org/2000/svg">
<path d="M9 22H15C20 22 22 20 22 15V9C22 4 20 2 15 2H9C4 2 2 4 2 9V15C2 20 4 22 9 22Z" stroke="white" stroke-width="1.5" stroke-linecap="round" stroke-linejoin="round"/>
<path d="M12 15.5C12.4596 15.5 12.9148 15.4095 13.3394 15.2336C13.764 15.0577 14.1499 14.7999 14.4749 14.4749C14.7999 14.1499 15.0577 13.764 15.2336 13.3394C15.4095 12.9148 15.5 12.4596 15.5 12C15.5 11.5404 15.4095 11.0852 15.2336 10.6606C15.0577 10.236 14.7999 9.85013 14.4749 9.52513C14.1499 9.20012 13.764 8.94231 13.3394 8.76642C12.9148 8.59053 12.4596 8.5 12 8.5C11.0717 8.5 10.1815 8.86875 9.52513 9.52513C8.86875 10.1815 8.5 11.0717 8.5 12C8.5 12.9283 8.86875 13.8185 9.52513 14.4749C10.1815 15.1313 11.0717 15.5 12 15.5Z" stroke="white" stroke-width="1.5" stroke-linecap="round" stroke-linejoin="round"/>
<path d="M17.6367 7H17.6487" stroke="white" stroke-width="2" stroke-linecap="round" stroke-linejoin="round"/>
</svg>
