<svg width="24" height="24" viewBox="0 0 24 24" fill="none" xmlns="http://www.w3.org/2000/svg">
<path d="M11.9989 13.4275C12.4086 13.4275 12.8143 13.3468 13.1929 13.19C13.5714 13.0332 13.9154 12.8034 14.2051 12.5137C14.4948 12.224 14.7246 11.88 14.8814 11.5015C15.0382 11.1229 15.1189 10.7172 15.1189 10.3075C15.1189 9.89778 15.0382 9.49206 14.8814 9.11353C14.7246 8.73499 14.4948 8.39105 14.2051 8.10133C13.9154 7.81161 13.5714 7.58179 13.1929 7.425C12.8143 7.2682 12.4086 7.1875 11.9989 7.1875C11.1714 7.1875 10.3778 7.51621 9.79273 8.10133C9.20762 8.68644 8.87891 9.48002 8.87891 10.3075C8.87891 11.135 9.20762 11.9286 9.79273 12.5137C10.3778 13.0988 11.1714 13.4275 11.9989 13.4275Z" stroke="white" stroke-width="1.5"/>
<path d="M3.62166 8.49C5.59166 -0.169998 18.4217 -0.159997 20.3817 8.5C21.5317 13.58 18.3717 17.88 15.6017 20.54C14.6337 21.4735 13.3414 21.9952 11.9967 21.9952C10.6519 21.9952 9.35959 21.4735 8.39166 20.54C5.63166 17.88 2.47166 13.57 3.62166 8.49Z" stroke="white" stroke-width="1.5"/>
</svg>
