<svg width="88" height="70" viewBox="0 0 88 70" fill="none" xmlns="http://www.w3.org/2000/svg">
<g clip-path="url(#clip0_1041_3910)">
<path d="M11.975 46.3882C11.975 46.3882 9.29003 40.9956 7.5656 39.5517C5.83985 38.1078 6.60641 36.0847 9.77095 36.5665C12.9342 37.0482 17.2492 42.7291 19.3576 45.33C21.4673 47.9296 23.8639 48.1231 23.8639 48.1231C31.6291 49.2787 33.9089 49.8312 38.1588 56.5716C43.6217 65.2364 39.5006 69.2825 33.7495 68.8982C27.997 68.5125 24.9294 65.6247 24.9294 65.6247C24.9294 65.6247 16.7696 60.4496 13.6064 59.0057C10.4432 57.5618 3.44452 42.8279 1.81443 38.8791C0.184328 34.9304 1.43049 20.8717 3.73149 20.9678C6.03249 21.0639 7.27864 22.4117 7.27864 27.5161C7.27864 32.6191 7.75824 35.0278 7.75824 35.0278" stroke="#1D40B8" stroke-width="1.4391" stroke-miterlimit="10" stroke-linecap="round" stroke-linejoin="round"/>
<path d="M76.0252 46.3882C76.0252 46.3882 78.7102 40.9956 80.4346 39.5517C82.1603 38.1078 81.3938 36.0847 78.2292 36.5665C75.066 37.0482 70.751 42.7291 68.6426 45.33C66.5329 47.9296 64.1363 48.1231 64.1363 48.1231C56.371 49.2787 54.0913 49.8312 49.8413 56.5716C44.3784 65.2364 48.4995 69.2825 54.2507 68.8982C60.0032 68.5125 63.0708 65.6247 63.0708 65.6247C63.0708 65.6247 71.2306 60.4496 74.3938 59.0057C77.557 57.5618 84.5556 42.8279 86.1857 38.8791C87.8158 34.9304 86.5697 20.8717 84.2687 20.9678C81.9677 21.0639 80.7215 22.4117 80.7215 27.5161C80.7215 32.6191 80.2419 35.0278 80.2419 35.0278" stroke="#1D40B8" stroke-width="1.4391" stroke-miterlimit="10" stroke-linecap="round" stroke-linejoin="round"/>
<path fill-rule="evenodd" clip-rule="evenodd" d="M44.8742 9.1336C44.8742 9.1336 59.3932 -7.64991 69.6245 6.70102C72.7692 11.114 71.5408 16.6232 68.3305 22.1378C68.3305 22.1378 60.0776 24.6897 54.6497 24.6476C51.185 24.6207 48.5844 23.4004 46.0203 22.1973C43.244 20.8946 40.5103 19.6118 36.7685 19.8854C31.1064 20.2993 27.7442 21.4621 22.9997 24.6476C18.4762 17.6511 16.1366 10.4139 20.3066 5.22731C31.3375 -8.49294 44.8742 9.1336 44.8742 9.1336Z" fill="url(#paint0_linear_1041_3910)"/>
<path d="M22.9997 24.6476C30.4425 36.1592 43.7976 47.0188 43.7976 47.0188C43.7976 47.0188 61.0961 34.5645 68.3305 22.1378C68.3305 22.1378 60.0776 24.6897 54.6497 24.6476C51.185 24.6207 48.5844 23.4004 46.0203 22.1973C43.244 20.8946 40.5103 19.6118 36.7685 19.8854C31.1064 20.2993 27.7442 21.4621 22.9997 24.6476Z" fill="url(#paint1_linear_1041_3910)"/>
<path d="M64.9654 11.8467C63.8825 12.2006 62.6988 11.7694 62.0944 10.7912C61.4396 9.74228 60.3881 8.53886 58.8518 8.17848C57.8193 7.94037 57.1708 6.8914 57.41 5.83599C57.643 4.78059 58.6693 4.11775 59.7018 4.36229C63.0262 5.13454 64.934 7.83097 65.8658 9.63931C66.3002 10.4888 65.8721 11.5506 64.9654 11.8467Z" fill="white" fill-opacity="0.5"/>
<path d="M40.4708 41.4366C38.5568 39.551 33.375 33.6819 33.375 33.6819C32.5376 32.8518 31.3225 30.8761 32.1347 30.0202C32.9469 29.1643 35.2891 31.3395 36.1264 32.1696C36.1264 32.1696 39.879 36.8482 41.9882 38.4055C44.2989 40.1173 45.2433 41.4495 44.4311 42.3054C44.0218 42.743 42.1519 43.0969 40.4708 41.4366Z" fill="white" fill-opacity="0.5"/>
</g>
<defs>
<linearGradient id="paint0_linear_1041_3910" x1="39.9481" y1="23.4892" x2="70.3064" y2="0.641798" gradientUnits="userSpaceOnUse">
<stop stop-color="#1E96FC"/>
<stop offset="0.555573" stop-color="#1E96FC" stop-opacity="0.7"/>
<stop offset="0.810423" stop-color="#1E96FC" stop-opacity="0.48"/>
<stop offset="1" stop-color="#1E96FC" stop-opacity="0.16"/>
</linearGradient>
<linearGradient id="paint1_linear_1041_3910" x1="62.4884" y1="21.269" x2="30.566" y2="46.3609" gradientUnits="userSpaceOnUse">
<stop stop-color="#FCF300"/>
<stop offset="0.431531" stop-color="#FCF300" stop-opacity="0.66"/>
<stop offset="0.765125" stop-color="#FCF300" stop-opacity="0.41"/>
<stop offset="1" stop-color="#FCF300" stop-opacity="0.13"/>
</linearGradient>
<clipPath id="clip0_1041_3910">
<rect width="88" height="70" fill="white"/>
</clipPath>
</defs>
</svg>
